<svg xmlns="http://www.w3.org/2000/svg" xmlns:xlink="http://www.w3.org/1999/xlink" contentStyleType="text/css" data-diagram-type="SEQUENCE" height="437px" preserveAspectRatio="none" style="width:1229px;height:437px;background:#FFFFFF;" version="1.1" viewBox="0 0 1229 437" width="1229px" zoomAndPan="magnify"><defs/><g><g><title>RouteController</title><rect fill="#FFFFFF" height="219.0371" style="stroke:#181818;stroke-width:1;" width="10" x="353.4648" y="116.9121"/></g><g><title>ListActiveRoutesUseCase</title><rect fill="#FFFFFF" height="156.4551" style="stroke:#181818;stroke-width:1;" width="10" x="577.415" y="148.2031"/></g><g><title>RouteRepository</title><rect fill="#FFFFFF" height="93.873" style="stroke:#181818;stroke-width:1;" width="10" x="776.5439" y="179.4941"/></g><g><title>Database</title><rect fill="#FFFFFF" height="31.291" style="stroke:#181818;stroke-width:1;" width="10" x="1189.8955" y="210.7852"/></g><g><title>ATCC</title><rect fill="#000000" fill-opacity="0.00000" height="270.3281" width="8" x="23.0552" y="83.6211"/><line style="stroke:#181818;stroke-width:0.5;stroke-dasharray:5,5;" x1="27" x2="27" y1="83.6211" y2="353.9492"/></g><g><title>RouteController</title><rect fill="#000000" fill-opacity="0.00000" height="270.3281" width="8" x="354.4648" y="83.6211"/><line style="stroke:#181818;stroke-width:0.5;stroke-dasharray:5,5;" x1="358.4409" x2="358.4409" y1="83.6211" y2="353.9492"/></g><g><title>ListActiveRoutesUseCase</title><rect fill="#000000" fill-opacity="0.00000" height="270.3281" width="8" x="578.415" y="83.6211"/><line style="stroke:#181818;stroke-width:0.5;stroke-dasharray:5,5;" x1="581.4912" x2="581.4912" y1="83.6211" y2="353.9492"/></g><g><title>RouteRepository</title><rect fill="#000000" fill-opacity="0.00000" height="270.3281" width="8" x="777.5439" y="83.6211"/><line style="stroke:#181818;stroke-width:0.5;stroke-dasharray:5,5;" x1="781.4063" x2="781.4063" y1="83.6211" y2="353.9492"/></g><g><title>Database</title><rect fill="#000000" fill-opacity="0.00000" height="270.3281" width="8" x="1190.8955" y="83.6211"/><line style="stroke:#181818;stroke-width:0.5;stroke-dasharray:5,5;" x1="1193.9302" x2="1193.9302" y1="83.6211" y2="353.9492"/></g><g class="participant participant-head" data-participant="BO"><text fill="#000000" font-family="sans-serif" font-size="14" lengthAdjust="spacing" textLength="38.1104" x="5" y="80.1074">ATCC</text><ellipse cx="27.0552" cy="13.5" fill="#E2E2F0" rx="8" ry="8" style="stroke:#181818;stroke-width:0.5;"/><path d="M27.0552,21.5 L27.0552,48.5 M14.0552,29.5 L40.0552,29.5 M27.0552,48.5 L14.0552,63.5 M27.0552,48.5 L40.0552,63.5" fill="none" style="stroke:#181818;stroke-width:0.5;"/></g><g class="participant participant-tail" data-participant="BO"><text fill="#000000" font-family="sans-serif" font-size="14" lengthAdjust="spacing" textLength="38.1104" x="5" y="368.0566">ATCC</text><ellipse cx="27.0552" cy="380.0703" fill="#E2E2F0" rx="8" ry="8" style="stroke:#181818;stroke-width:0.5;"/><path d="M27.0552,388.0703 L27.0552,415.0703 M14.0552,396.0703 L40.0552,396.0703 M27.0552,415.0703 L14.0552,430.0703 M27.0552,415.0703 L40.0552,430.0703" fill="none" style="stroke:#181818;stroke-width:0.5;"/></g><g class="participant participant-head" data-participant="Ctrl"><rect fill="#E2E2F0" height="32.6211" rx="2.5" ry="2.5" style="stroke:#181818;stroke-width:0.5;" width="112.0479" x="302.4409" y="50"/><text fill="#000000" font-family="sans-serif" font-size="14" lengthAdjust="spacing" textLength="98.0479" x="309.4409" y="72.1074">RouteController</text></g><g class="participant participant-tail" data-participant="Ctrl"><rect fill="#E2E2F0" height="32.6211" rx="2.5" ry="2.5" style="stroke:#181818;stroke-width:0.5;" width="112.0479" x="302.4409" y="352.9492"/><text fill="#000000" font-family="sans-serif" font-size="14" lengthAdjust="spacing" textLength="98.0479" x="309.4409" y="375.0566">RouteController</text></g><g class="participant participant-head" data-participant="UC"><rect fill="#E2E2F0" height="32.6211" rx="2.5" ry="2.5" style="stroke:#181818;stroke-width:0.5;" width="175.8477" x="494.4912" y="50"/><text fill="#000000" font-family="sans-serif" font-size="14" lengthAdjust="spacing" textLength="161.8477" x="501.4912" y="72.1074">ListActiveRoutesUseCase</text></g><g class="participant participant-tail" data-participant="UC"><rect fill="#E2E2F0" height="32.6211" rx="2.5" ry="2.5" style="stroke:#181818;stroke-width:0.5;" width="175.8477" x="494.4912" y="352.9492"/><text fill="#000000" font-family="sans-serif" font-size="14" lengthAdjust="spacing" textLength="161.8477" x="501.4912" y="375.0566">ListActiveRoutesUseCase</text></g><g class="participant participant-head" data-participant="Repo"><rect fill="#E2E2F0" height="32.6211" rx="2.5" ry="2.5" style="stroke:#181818;stroke-width:0.5;" width="118.2754" x="722.4063" y="50"/><text fill="#000000" font-family="sans-serif" font-size="14" lengthAdjust="spacing" textLength="104.2754" x="729.4063" y="72.1074">RouteRepository</text></g><g class="participant participant-tail" data-participant="Repo"><rect fill="#E2E2F0" height="32.6211" rx="2.5" ry="2.5" style="stroke:#181818;stroke-width:0.5;" width="118.2754" x="722.4063" y="352.9492"/><text fill="#000000" font-family="sans-serif" font-size="14" lengthAdjust="spacing" textLength="104.2754" x="729.4063" y="375.0566">RouteRepository</text></g><g class="participant participant-head" data-participant="DB"><text fill="#000000" font-family="sans-serif" font-size="14" lengthAdjust="spacing" textLength="59.9307" x="1161.9302" y="80.1074">Database</text><path d="M1176.8955,29 C1176.8955,19 1194.8955,19 1194.8955,19 C1194.8955,19 1212.8955,19 1212.8955,29 L1212.8955,55 C1212.8955,65 1194.8955,65 1194.8955,65 C1194.8955,65 1176.8955,65 1176.8955,55 L1176.8955,29" fill="#E2E2F0" style="stroke:#181818;stroke-width:0.5;"/><path d="M1176.8955,29 C1176.8955,39 1194.8955,39 1194.8955,39 C1194.8955,39 1212.8955,39 1212.8955,29" fill="none" style="stroke:#181818;stroke-width:0.5;"/></g><g class="participant participant-tail" data-participant="DB"><text fill="#000000" font-family="sans-serif" font-size="14" lengthAdjust="spacing" textLength="59.9307" x="1161.9302" y="368.0566">Database</text><path d="M1176.8955,381.5703 C1176.8955,371.5703 1194.8955,371.5703 1194.8955,371.5703 C1194.8955,371.5703 1212.8955,371.5703 1212.8955,381.5703 L1212.8955,407.5703 C1212.8955,417.5703 1194.8955,417.5703 1194.8955,417.5703 C1194.8955,417.5703 1176.8955,417.5703 1176.8955,407.5703 L1176.8955,381.5703" fill="#E2E2F0" style="stroke:#181818;stroke-width:0.5;"/><path d="M1176.8955,381.5703 C1176.8955,391.5703 1194.8955,391.5703 1194.8955,391.5703 C1194.8955,391.5703 1212.8955,391.5703 1212.8955,381.5703" fill="none" style="stroke:#181818;stroke-width:0.5;"/></g><g><title>RouteController</title><rect fill="#FFFFFF" height="219.0371" style="stroke:#181818;stroke-width:1;" width="10" x="353.4648" y="116.9121"/></g><g><title>ListActiveRoutesUseCase</title><rect fill="#FFFFFF" height="156.4551" style="stroke:#181818;stroke-width:1;" width="10" x="577.415" y="148.2031"/></g><g><title>RouteRepository</title><rect fill="#FFFFFF" height="93.873" style="stroke:#181818;stroke-width:1;" width="10" x="776.5439" y="179.4941"/></g><g><title>Database</title><rect fill="#FFFFFF" height="31.291" style="stroke:#181818;stroke-width:1;" width="10" x="1189.8955" y="210.7852"/></g><g class="message" data-participant-1="BO" data-participant-2="Ctrl"><polygon fill="#181818" points="341.4648,112.9121,351.4648,116.9121,341.4648,120.9121,345.4648,116.9121" style="stroke:#181818;stroke-width:1;"/><line style="stroke:#181818;stroke-width:1;" x1="27.0552" x2="347.4648" y1="116.9121" y2="116.9121"/><text fill="#000000" font-family="sans-serif" font-size="13" font-weight="bold" lengthAdjust="spacing" textLength="7.23" x="34.0552" y="111.6494">1</text><text fill="#000000" font-family="sans-serif" font-size="13" lengthAdjust="spacing" textLength="273.1333" x="45.2852" y="111.6494">GET /api/routes?status=active&amp;sortBy={sortBy}</text></g><g class="message" data-participant-1="Ctrl" data-participant-2="UC"><polygon fill="#181818" points="565.415,144.2031,575.415,148.2031,565.415,152.2031,569.415,148.2031" style="stroke:#181818;stroke-width:1;"/><line style="stroke:#181818;stroke-width:1;" x1="363.4648" x2="571.415" y1="148.2031" y2="148.2031"/><text fill="#000000" font-family="sans-serif" font-size="13" font-weight="bold" lengthAdjust="spacing" textLength="7.23" x="370.4648" y="142.9404">2</text><text fill="#000000" font-family="sans-serif" font-size="13" lengthAdjust="spacing" textLength="183.7202" x="381.6948" y="142.9404">execute(status="active", sortBy)</text></g><g class="message" data-participant-1="UC" data-participant-2="Repo"><polygon fill="#181818" points="764.5439,175.4941,774.5439,179.4941,764.5439,183.4941,768.5439,179.4941" style="stroke:#181818;stroke-width:1;"/><line style="stroke:#181818;stroke-width:1;" x1="587.415" x2="770.5439" y1="179.4941" y2="179.4941"/><text fill="#000000" font-family="sans-serif" font-size="13" font-weight="bold" lengthAdjust="spacing" textLength="7.23" x="594.415" y="174.2314">3</text><text fill="#000000" font-family="sans-serif" font-size="13" lengthAdjust="spacing" textLength="148.8335" x="605.645" y="174.2314">findActiveAndSort(sortBy)</text></g><g class="message" data-participant-1="Repo" data-participant-2="DB"><polygon fill="#181818" points="1177.8955,206.7852,1187.8955,210.7852,1177.8955,214.7852,1181.8955,210.7852" style="stroke:#181818;stroke-width:1;"/><line style="stroke:#181818;stroke-width:1;" x1="786.5439" x2="1183.8955" y1="210.7852" y2="210.7852"/><text fill="#000000" font-family="sans-serif" font-size="13" font-weight="bold" lengthAdjust="spacing" textLength="7.23" x="793.5439" y="205.5225">4</text><text fill="#000000" font-family="sans-serif" font-size="13" lengthAdjust="spacing" textLength="373.1216" x="804.7739" y="205.5225">SELECT * FROM route WHERE active = true ORDER BY sortBy</text></g><g class="message" data-participant-1="DB" data-participant-2="Repo"><polygon fill="#181818" points="797.5439,238.0762,787.5439,242.0762,797.5439,246.0762,793.5439,242.0762" style="stroke:#181818;stroke-width:1;"/><line style="stroke:#181818;stroke-width:1;stroke-dasharray:2,2;" x1="791.5439" x2="1193.8955" y1="242.0762" y2="242.0762"/><text fill="#000000" font-family="sans-serif" font-size="13" font-weight="bold" lengthAdjust="spacing" textLength="7.23" x="803.5439" y="236.8135">5</text><text fill="#000000" font-family="sans-serif" font-size="13" lengthAdjust="spacing" textLength="160.4053" x="814.7739" y="236.8135">returns sorted route records</text></g><g class="message" data-participant-1="Repo" data-participant-2="UC"><polygon fill="#181818" points="598.415,269.3672,588.415,273.3672,598.415,277.3672,594.415,273.3672" style="stroke:#181818;stroke-width:1;"/><line style="stroke:#181818;stroke-width:1;stroke-dasharray:2,2;" x1="592.415" x2="780.5439" y1="273.3672" y2="273.3672"/><text fill="#000000" font-family="sans-serif" font-size="13" font-weight="bold" lengthAdjust="spacing" textLength="7.23" x="604.415" y="268.1045">6</text><text fill="#000000" font-family="sans-serif" font-size="13" lengthAdjust="spacing" textLength="153.8989" x="615.645" y="268.1045">returns list of sorted routes</text></g><g class="message" data-participant-1="UC" data-participant-2="Ctrl"><polygon fill="#181818" points="374.4648,300.6582,364.4648,304.6582,374.4648,308.6582,370.4648,304.6582" style="stroke:#181818;stroke-width:1;"/><line style="stroke:#181818;stroke-width:1;stroke-dasharray:2,2;" x1="368.4648" x2="581.415" y1="304.6582" y2="304.6582"/><text fill="#000000" font-family="sans-serif" font-size="13" font-weight="bold" lengthAdjust="spacing" textLength="7.23" x="380.4648" y="299.3955">7</text><text fill="#000000" font-family="sans-serif" font-size="13" lengthAdjust="spacing" textLength="172.7134" x="391.6948" y="299.3955">returns List&lt;RouteResponse&gt;</text></g><g class="message" data-participant-1="Ctrl" data-participant-2="BO"><polygon fill="#181818" points="38.0552,331.9492,28.0552,335.9492,38.0552,339.9492,34.0552,335.9492" style="stroke:#181818;stroke-width:1;"/><line style="stroke:#181818;stroke-width:1;stroke-dasharray:2,2;" x1="32.0552" x2="357.4648" y1="335.9492" y2="335.9492"/><text fill="#000000" font-family="sans-serif" font-size="13" font-weight="bold" lengthAdjust="spacing" textLength="7.23" x="44.0552" y="330.6865">8</text><text fill="#000000" font-family="sans-serif" font-size="13" lengthAdjust="spacing" textLength="291.1797" x="55.2852" y="330.6865">returns list of active Route details sorted by criteria</text></g><!--SRC=[RP51IyD048Nl-ok67AIAfNUnIhE9UgW4qXRnk4sci12pONSY5l6_EvbDRKiz9TcyxxrvEwOdr_OVM_JALEGy98krrWcO06cXEkF9LhOpBK5IkfvGkvQyQnhqej7actFLqWPQL6G_KVHX4r2RWABUw7ySI-nSi1oz5ytmgMf3PiiK9Ddu9l-oLAcqWEc3vC8TFEThc9dEphnaFGOor8UvaVohu3ob-_btVFueEJQ4SMeb7korqUo4NrYnnMHqIA95SWiHlZx2N48nmk0mAgCxszQnyQAjLooVN31IIkICPIb3gtoPwpNSm5DPl8AC3sylUPb3J8OvaEyHYZBBIqZVnpcEbdmNR3GzZk6HUjy64M8zMdgidA-3gl4KZ9CSgX_0XZS7RdTcS4PA2-b-tC017jP-F-upTAuD-72A3fSMxvjHNk5bwbXRBA16ChRvwxBTG-KjeRVcr7Gm_0K0]--></g></svg>