<svg xmlns="http://www.w3.org/2000/svg" xmlns:xlink="http://www.w3.org/1999/xlink" contentStyleType="text/css" data-diagram-type="SEQUENCE" height="249px" preserveAspectRatio="none" style="width:394px;height:249px;background:#FFFFFF;" version="1.1" viewBox="0 0 394 249" width="394px" zoomAndPan="magnify"><defs/><g><g><title>System</title><rect fill="#FFFFFF" height="31.291" style="stroke:#181818;stroke-width:1;" width="10" x="353.4648" y="116.9121"/></g><g><title>ATCC</title><rect fill="#000000" fill-opacity="0.00000" height="82.582" width="8" x="23.0552" y="83.6211"/><line style="stroke:#181818;stroke-width:0.5;stroke-dasharray:5,5;" x1="27" x2="27" y1="83.6211" y2="166.2031"/></g><g><title>System</title><rect fill="#000000" fill-opacity="0.00000" height="82.582" width="8" x="354.4648" y="83.6211"/><line style="stroke:#181818;stroke-width:0.5;stroke-dasharray:5,5;" x1="358.127" x2="358.127" y1="83.6211" y2="166.2031"/></g><g class="participant participant-head" data-participant="BO"><text fill="#000000" font-family="sans-serif" font-size="14" lengthAdjust="spacing" textLength="38.1104" x="5" y="80.1074">ATCC</text><ellipse cx="27.0552" cy="13.5" fill="#E2E2F0" rx="8" ry="8" style="stroke:#181818;stroke-width:0.5;"/><path d="M27.0552,21.5 L27.0552,48.5 M14.0552,29.5 L40.0552,29.5 M27.0552,48.5 L14.0552,63.5 M27.0552,48.5 L40.0552,63.5" fill="none" style="stroke:#181818;stroke-width:0.5;"/></g><g class="participant participant-tail" data-participant="BO"><text fill="#000000" font-family="sans-serif" font-size="14" lengthAdjust="spacing" textLength="38.1104" x="5" y="180.3105">ATCC</text><ellipse cx="27.0552" cy="192.3242" fill="#E2E2F0" rx="8" ry="8" style="stroke:#181818;stroke-width:0.5;"/><path d="M27.0552,200.3242 L27.0552,227.3242 M14.0552,208.3242 L40.0552,208.3242 M27.0552,227.3242 L14.0552,242.3242 M27.0552,227.3242 L40.0552,242.3242" fill="none" style="stroke:#181818;stroke-width:0.5;"/></g><g class="participant participant-head" data-participant="Sys"><rect fill="#E2E2F0" height="32.6211" rx="2.5" ry="2.5" style="stroke:#181818;stroke-width:0.5;" width="60.6758" x="328.127" y="50"/><text fill="#000000" font-family="sans-serif" font-size="14" lengthAdjust="spacing" textLength="46.6758" x="335.127" y="72.1074">System</text></g><g class="participant participant-tail" data-participant="Sys"><rect fill="#E2E2F0" height="32.6211" rx="2.5" ry="2.5" style="stroke:#181818;stroke-width:0.5;" width="60.6758" x="328.127" y="165.2031"/><text fill="#000000" font-family="sans-serif" font-size="14" lengthAdjust="spacing" textLength="46.6758" x="335.127" y="187.3105">System</text></g><g><title>System</title><rect fill="#FFFFFF" height="31.291" style="stroke:#181818;stroke-width:1;" width="10" x="353.4648" y="116.9121"/></g><g class="message" data-participant-1="BO" data-participant-2="Sys"><polygon fill="#181818" points="341.4648,112.9121,351.4648,116.9121,341.4648,120.9121,345.4648,116.9121" style="stroke:#181818;stroke-width:1;"/><line style="stroke:#181818;stroke-width:1;" x1="27.0552" x2="347.4648" y1="116.9121" y2="116.9121"/><text fill="#000000" font-family="sans-serif" font-size="13" font-weight="bold" lengthAdjust="spacing" textLength="7.23" x="34.0552" y="111.6494">1</text><text fill="#000000" font-family="sans-serif" font-size="13" lengthAdjust="spacing" textLength="182.0698" x="45.2852" y="111.6494">getActiveRoutes(status, sortBy)</text></g><g class="message" data-participant-1="Sys" data-participant-2="BO"><polygon fill="#181818" points="38.0552,144.2031,28.0552,148.2031,38.0552,152.2031,34.0552,148.2031" style="stroke:#181818;stroke-width:1;"/><line style="stroke:#181818;stroke-width:1;stroke-dasharray:2,2;" x1="32.0552" x2="357.4648" y1="148.2031" y2="148.2031"/><text fill="#000000" font-family="sans-serif" font-size="13" font-weight="bold" lengthAdjust="spacing" textLength="7.23" x="44.0552" y="142.9404">2</text><text fill="#000000" font-family="sans-serif" font-size="13" lengthAdjust="spacing" textLength="291.1797" x="55.2852" y="142.9404">returns list of active Route details sorted by criteria</text></g><!--SRC=[JSn12eD038NX_PmYk6gXlO2BWde0eUq5ufYMW3gIl16yVNLMtJr8_eypqfBdGInmH3AgcdVNLSHERHzMDcZKbHTGzTeTCfVJCKDeUxe_paarVGLDX6xoJ1dY5mSZ-uqy6ThzUjgwCQIKPt8_qWEeoGJP5gT97PG-L3w5YaEZW7NomiX8mqxH56BAOPH_ymS0]--></g></svg>