<?plantuml 1.2026.1?><svg xmlns="http://www.w3.org/2000/svg" xmlns:xlink="http://www.w3.org/1999/xlink" contentStyleType="text/css" data-diagram-type="SEQUENCE" height="503px" preserveAspectRatio="none" style="width:1331px;height:503px;background:#FFFFFF;" version="1.1" viewBox="0 0 1331 503" width="1331px" zoomAndPan="magnify"><defs/><g><g><title>AircraftController</title><rect fill="#FFFFFF" height="292" style="stroke:#181818;stroke-width:1;" width="10" x="344.5474" y="112.4297"/></g><g><title>ViewAircraftDetailsUseCase</title><rect fill="#FFFFFF" height="241.7344" style="stroke:#181818;stroke-width:1;" width="10" x="578.7979" y="141.5625"/></g><g><title>AircraftRepository</title><rect fill="#FFFFFF" height="87.3984" style="stroke:#181818;stroke-width:1;" width="10" x="878.7676" y="170.6953"/></g><g><title>Database</title><rect fill="#FFFFFF" height="29.1328" style="stroke:#181818;stroke-width:1;" width="10" x="1288.6025" y="199.8281"/></g><rect fill="none" height="103.2031" style="stroke:#000000;stroke-width:1.5;" width="575.2437" x="272.1245" y="273.0938"/><g class="participant-lifeline" data-entity-uid="part1" data-qualified-name="Actor" id="part1-lifeline"><g><title>ATCC . Backoffice Operator</title><rect fill="#000000" fill-opacity="0.00000" height="341.1328" width="8" x="99.5117" y="81.2969"/><line style="stroke:#181818;stroke-width:0.5;stroke-dasharray:5,5;" x1="103" x2="103" y1="81.2969" y2="422.4297"/></g></g><g class="participant-lifeline" data-entity-uid="part2" data-qualified-name="Ctrl" id="part2-lifeline"><g><title>AircraftController</title><rect fill="#000000" fill-opacity="0.00000" height="341.1328" width="8" x="345.5474" y="81.2969"/><line style="stroke:#181818;stroke-width:0.5;stroke-dasharray:5,5;" x1="349.1245" x2="349.1245" y1="81.2969" y2="422.4297"/></g></g><g class="participant-lifeline" data-entity-uid="part3" data-qualified-name="UC" id="part3-lifeline"><g><title>ViewAircraftDetailsUseCase</title><rect fill="#000000" fill-opacity="0.00000" height="341.1328" width="8" x="579.7979" y="81.2969"/><line style="stroke:#181818;stroke-width:0.5;stroke-dasharray:5,5;" x1="583.7207" x2="583.7207" y1="81.2969" y2="422.4297"/></g></g><g class="participant-lifeline" data-entity-uid="part4" data-qualified-name="Repo" id="part4-lifeline"><g><title>AircraftRepository</title><rect fill="#000000" fill-opacity="0.00000" height="341.1328" width="8" x="879.7676" y="81.2969"/><line style="stroke:#181818;stroke-width:0.5;stroke-dasharray:5,5;" x1="883.395" x2="883.395" y1="81.2969" y2="422.4297"/></g></g><g class="participant-lifeline" data-entity-uid="part5" data-qualified-name="DB" id="part5-lifeline"><g><title>Database</title><rect fill="#000000" fill-opacity="0.00000" height="341.1328" width="8" x="1289.6025" y="81.2969"/><line style="stroke:#181818;stroke-width:0.5;stroke-dasharray:5,5;" x1="1293.2021" x2="1293.2021" y1="81.2969" y2="422.4297"/></g></g><g class="participant participant-head" data-entity-uid="part1" data-qualified-name="Actor" id="part1-head"><text fill="#000000" font-family="sans-serif" font-size="14" lengthAdjust="spacing" textLength="191.0234" x="5" y="77.9951">ATCC / Backoffice Operator</text><ellipse cx="103.5117" cy="13.5" fill="#E2E2F0" rx="8" ry="8" style="stroke:#181818;stroke-width:0.5;"/><path d="M103.5117,21.5 L103.5117,48.5 M90.5117,29.5 L116.5117,29.5 M103.5117,48.5 L90.5117,63.5 M103.5117,48.5 L116.5117,63.5" fill="none" style="stroke:#181818;stroke-width:0.5;"/></g><g class="participant participant-tail" data-entity-uid="part1" data-qualified-name="Actor" id="part1-tail"><text fill="#000000" font-family="sans-serif" font-size="14" lengthAdjust="spacing" textLength="191.0234" x="5" y="434.4248">ATCC / Backoffice Operator</text><ellipse cx="103.5117" cy="446.2266" fill="#E2E2F0" rx="8" ry="8" style="stroke:#181818;stroke-width:0.5;"/><path d="M103.5117,454.2266 L103.5117,481.2266 M90.5117,462.2266 L116.5117,462.2266 M103.5117,481.2266 L90.5117,496.2266 M103.5117,481.2266 L116.5117,496.2266" fill="none" style="stroke:#181818;stroke-width:0.5;"/></g><g class="participant participant-head" data-entity-uid="part2" data-qualified-name="Ctrl" id="part2-head"><rect fill="#E2E2F0" height="30.2969" rx="2.5" ry="2.5" style="stroke:#181818;stroke-width:0.5;" width="134.8457" x="282.1245" y="50"/><text fill="#000000" font-family="sans-serif" font-size="14" lengthAdjust="spacing" textLength="120.8457" x="289.1245" y="69.9951">AircraftController</text></g><g class="participant participant-tail" data-entity-uid="part2" data-qualified-name="Ctrl" id="part2-tail"><rect fill="#E2E2F0" height="30.2969" rx="2.5" ry="2.5" style="stroke:#181818;stroke-width:0.5;" width="134.8457" x="282.1245" y="421.4297"/><text fill="#000000" font-family="sans-serif" font-size="14" lengthAdjust="spacing" textLength="120.8457" x="289.1245" y="441.4248">AircraftController</text></g><g class="participant participant-head" data-entity-uid="part3" data-qualified-name="UC" id="part3-head"><rect fill="#E2E2F0" height="30.2969" rx="2.5" ry="2.5" style="stroke:#181818;stroke-width:0.5;" width="208.1543" x="479.7207" y="50"/><text fill="#000000" font-family="sans-serif" font-size="14" lengthAdjust="spacing" textLength="194.1543" x="486.7207" y="69.9951">ViewAircraftDetailsUseCase</text></g><g class="participant participant-tail" data-entity-uid="part3" data-qualified-name="UC" id="part3-tail"><rect fill="#E2E2F0" height="30.2969" rx="2.5" ry="2.5" style="stroke:#181818;stroke-width:0.5;" width="208.1543" x="479.7207" y="421.4297"/><text fill="#000000" font-family="sans-serif" font-size="14" lengthAdjust="spacing" textLength="194.1543" x="486.7207" y="441.4248">ViewAircraftDetailsUseCase</text></g><g class="participant participant-head" data-entity-uid="part4" data-qualified-name="Repo" id="part4-head"><rect fill="#E2E2F0" height="30.2969" rx="2.5" ry="2.5" style="stroke:#181818;stroke-width:0.5;" width="140.7451" x="813.395" y="50"/><text fill="#000000" font-family="sans-serif" font-size="14" lengthAdjust="spacing" textLength="126.7451" x="820.395" y="69.9951">AircraftRepository</text></g><g class="participant participant-tail" data-entity-uid="part4" data-qualified-name="Repo" id="part4-tail"><rect fill="#E2E2F0" height="30.2969" rx="2.5" ry="2.5" style="stroke:#181818;stroke-width:0.5;" width="140.7451" x="813.395" y="421.4297"/><text fill="#000000" font-family="sans-serif" font-size="14" lengthAdjust="spacing" textLength="126.7451" x="820.395" y="441.4248">AircraftRepository</text></g><g class="participant participant-head" data-entity-uid="part5" data-qualified-name="DB" id="part5-head"><text fill="#000000" font-family="sans-serif" font-size="14" lengthAdjust="spacing" textLength="66.8008" x="1257.2021" y="77.9951">Database</text><path d="M1275.6025,29 C1275.6025,19 1293.6025,19 1293.6025,19 C1293.6025,19 1311.6025,19 1311.6025,29 L1311.6025,55 C1311.6025,65 1293.6025,65 1293.6025,65 C1293.6025,65 1275.6025,65 1275.6025,55 L1275.6025,29" fill="#E2E2F0" style="stroke:#181818;stroke-width:0.5;"/><path d="M1275.6025,29 C1275.6025,39 1293.6025,39 1293.6025,39 C1293.6025,39 1311.6025,39 1311.6025,29" fill="none" style="stroke:#181818;stroke-width:0.5;"/></g><g class="participant participant-tail" data-entity-uid="part5" data-qualified-name="DB" id="part5-tail"><text fill="#000000" font-family="sans-serif" font-size="14" lengthAdjust="spacing" textLength="66.8008" x="1257.2021" y="434.4248">Database</text><path d="M1275.6025,447.7266 C1275.6025,437.7266 1293.6025,437.7266 1293.6025,437.7266 C1293.6025,437.7266 1311.6025,437.7266 1311.6025,447.7266 L1311.6025,473.7266 C1311.6025,483.7266 1293.6025,483.7266 1293.6025,483.7266 C1293.6025,483.7266 1275.6025,483.7266 1275.6025,473.7266 L1275.6025,447.7266" fill="#E2E2F0" style="stroke:#181818;stroke-width:0.5;"/><path d="M1275.6025,447.7266 C1275.6025,457.7266 1293.6025,457.7266 1293.6025,457.7266 C1293.6025,457.7266 1311.6025,457.7266 1311.6025,447.7266" fill="none" style="stroke:#181818;stroke-width:0.5;"/></g><g><title>AircraftController</title><rect fill="#FFFFFF" height="292" style="stroke:#181818;stroke-width:1;" width="10" x="344.5474" y="112.4297"/></g><g><title>ViewAircraftDetailsUseCase</title><rect fill="#FFFFFF" height="241.7344" style="stroke:#181818;stroke-width:1;" width="10" x="578.7979" y="141.5625"/></g><g><title>AircraftRepository</title><rect fill="#FFFFFF" height="87.3984" style="stroke:#181818;stroke-width:1;" width="10" x="878.7676" y="170.6953"/></g><g><title>Database</title><rect fill="#FFFFFF" height="29.1328" style="stroke:#181818;stroke-width:1;" width="10" x="1288.6025" y="199.8281"/></g><g class="message" data-entity-1="part1" data-entity-2="part2" id="msg1"><polygon fill="#181818" points="332.5474,108.4297,342.5474,112.4297,332.5474,116.4297,336.5474,112.4297" style="stroke:#181818;stroke-width:1;"/><line style="stroke:#181818;stroke-width:1;" x1="103.5117" x2="338.5474" y1="112.4297" y2="112.4297"/><text fill="#000000" font-family="sans-serif" font-size="13" font-weight="bold" lengthAdjust="spacing" textLength="9.0454" x="110.5117" y="107.3638">1</text><text fill="#000000" font-family="sans-serif" font-size="13" lengthAdjust="spacing" textLength="208.9902" x="123.5571" y="107.3638">GET /api/aircrafts/{registration}</text></g><g class="message" data-entity-1="part2" data-entity-2="part3" id="msg2"><polygon fill="#181818" points="566.7979,137.5625,576.7979,141.5625,566.7979,145.5625,570.7979,141.5625" style="stroke:#181818;stroke-width:1;"/><line style="stroke:#181818;stroke-width:1;" x1="354.5474" x2="572.7979" y1="141.5625" y2="141.5625"/><text fill="#000000" font-family="sans-serif" font-size="13" font-weight="bold" lengthAdjust="spacing" textLength="9.0454" x="361.5474" y="136.4966">2</text><text fill="#000000" font-family="sans-serif" font-size="13" lengthAdjust="spacing" textLength="137.6045" x="374.5928" y="136.4966">execute(registration)</text></g><g class="message" data-entity-1="part3" data-entity-2="part4" id="msg3"><polygon fill="#181818" points="866.7676,166.6953,876.7676,170.6953,866.7676,174.6953,870.7676,170.6953" style="stroke:#181818;stroke-width:1;"/><line style="stroke:#181818;stroke-width:1;" x1="588.7979" x2="872.7676" y1="170.6953" y2="170.6953"/><text fill="#000000" font-family="sans-serif" font-size="13" font-weight="bold" lengthAdjust="spacing" textLength="9.0454" x="595.7979" y="165.6294">3</text><text fill="#000000" font-family="sans-serif" font-size="13" lengthAdjust="spacing" textLength="257.9243" x="608.8433" y="165.6294">findByRegistrationNumber(registration)</text></g><g class="message" data-entity-1="part4" data-entity-2="part5" id="msg4"><polygon fill="#181818" points="1276.6025,195.8281,1286.6025,199.8281,1276.6025,203.8281,1280.6025,199.8281" style="stroke:#181818;stroke-width:1;"/><line style="stroke:#181818;stroke-width:1;" x1="888.7676" x2="1282.6025" y1="199.8281" y2="199.8281"/><text fill="#000000" font-family="sans-serif" font-size="13" font-weight="bold" lengthAdjust="spacing" textLength="9.0454" x="895.7676" y="194.7622">4</text><text fill="#000000" font-family="sans-serif" font-size="13" lengthAdjust="spacing" textLength="367.7896" x="908.813" y="194.7622">SELECT * FROM aircraft WHERE registration_number = ?</text></g><g class="message" data-entity-1="part5" data-entity-2="part4" id="msg5"><polygon fill="#181818" points="899.7676,224.9609,889.7676,228.9609,899.7676,232.9609,895.7676,228.9609" style="stroke:#181818;stroke-width:1;"/><line style="stroke:#181818;stroke-width:1;stroke-dasharray:2,2;" x1="893.7676" x2="1292.6025" y1="228.9609" y2="228.9609"/><text fill="#000000" font-family="sans-serif" font-size="13" font-weight="bold" lengthAdjust="spacing" textLength="9.0454" x="905.7676" y="223.895">5</text><text fill="#000000" font-family="sans-serif" font-size="13" lengthAdjust="spacing" textLength="75.4546" x="918.813" y="223.895">record data</text></g><g class="message" data-entity-1="part4" data-entity-2="part3" id="msg6"><polygon fill="#181818" points="599.7979,254.0938,589.7979,258.0938,599.7979,262.0938,595.7979,258.0938" style="stroke:#181818;stroke-width:1;"/><line style="stroke:#181818;stroke-width:1;stroke-dasharray:2,2;" x1="593.7979" x2="882.7676" y1="258.0938" y2="258.0938"/><text fill="#000000" font-family="sans-serif" font-size="13" font-weight="bold" lengthAdjust="spacing" textLength="9.0454" x="605.7979" y="253.0278">6</text><text fill="#000000" font-family="sans-serif" font-size="13" lengthAdjust="spacing" textLength="124.7314" x="618.8433" y="253.0278">Optional&lt;Aircraft&gt;</text></g><path d="M272.1245,273.0938 L336.5674,273.0938 L336.5674,280.2266 L326.5674,290.2266 L272.1245,290.2266 L272.1245,273.0938" fill="#EEEEEE" style="stroke:#000000;stroke-width:1.5;"/><rect fill="none" height="103.2031" style="stroke:#000000;stroke-width:1.5;" width="575.2437" x="272.1245" y="273.0938"/><text fill="#000000" font-family="sans-serif" font-size="13" font-weight="bold" lengthAdjust="spacing" textLength="19.4429" x="287.1245" y="286.1606">alt</text><text fill="#000000" font-family="sans-serif" font-size="11" font-weight="bold" lengthAdjust="spacing" textLength="120.2695" x="351.5674" y="285.3042">[aircraft not found]</text><g class="message" data-entity-1="part3" data-entity-2="part3" id="msg7"><line style="stroke:#181818;stroke-width:1;" x1="588.7979" x2="630.7979" y1="311.3594" y2="311.3594"/><line style="stroke:#181818;stroke-width:1;" x1="630.7979" x2="630.7979" y1="311.3594" y2="324.3594"/><line style="stroke:#181818;stroke-width:1;" x1="589.7979" x2="630.7979" y1="324.3594" y2="324.3594"/><polygon fill="#181818" points="599.7979,320.3594,589.7979,324.3594,599.7979,328.3594,595.7979,324.3594" style="stroke:#181818;stroke-width:1;"/><text fill="#000000" font-family="sans-serif" font-size="13" font-weight="bold" lengthAdjust="spacing" textLength="9.0454" x="595.7979" y="306.2935">7</text><text fill="#000000" font-family="sans-serif" font-size="13" lengthAdjust="spacing" textLength="216.5249" x="608.8433" y="306.2935">throw AircraftNotFoundException</text></g><line style="stroke:#000000;stroke-width:1;stroke-dasharray:2,2;" x1="272.1245" x2="847.3682" y1="333.3594" y2="333.3594"/><text fill="#000000" font-family="sans-serif" font-size="11" font-weight="bold" lengthAdjust="spacing" textLength="95.7935" x="277.1245" y="343.5698">[aircraft found]</text><g class="message" data-entity-1="part3" data-entity-2="part2" id="msg8"><polygon fill="#181818" points="365.5474,364.2969,355.5474,368.2969,365.5474,372.2969,361.5474,368.2969" style="stroke:#181818;stroke-width:1;"/><line style="stroke:#181818;stroke-width:1;stroke-dasharray:2,2;" x1="359.5474" x2="577.7979" y1="368.2969" y2="368.2969"/><text fill="#000000" font-family="sans-serif" font-size="13" font-weight="bold" lengthAdjust="spacing" textLength="9.0454" x="371.5474" y="363.231">8</text><text fill="#000000" font-family="sans-serif" font-size="13" lengthAdjust="spacing" textLength="187.2051" x="384.5928" y="363.231">ViewAircraftDetailsResponse</text></g><g class="message" data-entity-1="part2" data-entity-2="part1" id="msg9"><polygon fill="#181818" points="114.5117,400.4297,104.5117,404.4297,114.5117,408.4297,110.5117,404.4297" style="stroke:#181818;stroke-width:1;"/><line style="stroke:#181818;stroke-width:1;stroke-dasharray:2,2;" x1="108.5117" x2="348.5474" y1="404.4297" y2="404.4297"/><text fill="#000000" font-family="sans-serif" font-size="13" font-weight="bold" lengthAdjust="spacing" textLength="9.0454" x="120.5117" y="399.3638">9</text><text fill="#000000" font-family="sans-serif" font-size="13" lengthAdjust="spacing" textLength="166.1309" x="133.5571" y="399.3638">200 OK (JSON with _links)</text></g><?plantuml-src TP9FJy904CNl_HGJJc9281wDOg1KZNzeKa2FP6Ydih7kDhk3Q8pVtUcMsf9eJzli-xrvCxEuOwDtRnko0QPiBFGcop248KmnVJLvhbA2k2IBSjS3T32fL469bbMgIjGiXBAfnPn3ezcQeg1Q6R8jZeLFYlQDU4QCgd0hHo4wyi0g_DiteT8u9MK_lQpw3J9at0W8lTdXvEzcqy07XC7OruTpk8cMCCHI3V5WvuPVbbwKOsbA6VrTDQxUaQbEx371Lw70z47fZkca2_HRG1ABJCHL9f7dIcVJpwGZdllP_iVxLZmh7hEfE2oYXoXSmYbS9_4ZD97X-JPA8kYwhEkjmILSjNxIlhWCsa2MKcCpgAOLPDJLrLMRFkEoyiJYefdvk2ltCR7WDeys3BdPwIm0-UePU2FUMhE7ncLk-BfIHHyf-Ge15RApNvjZYtPdVpoKX5nfjAE0XEXaanNK6nEwNlqvd8r64D_3oTqYdiDUyHRMXTAlhjy5A-e7?></g></svg>