<svg xmlns="http://www.w3.org/2000/svg" xmlns:xlink="http://www.w3.org/1999/xlink" contentStyleType="text/css" data-diagram-type="SEQUENCE" height="520px" preserveAspectRatio="none" style="width:1207px;height:520px;background:#FFFFFF;" version="1.1" viewBox="0 0 1207 520" width="1207px" zoomAndPan="magnify"><?plantuml 1.2026.4?><defs/><g><g><title>AircraftController</title><rect fill="#FFFFFF" height="304" style="stroke:#181818;stroke-width:1;" width="10" x="302.7222" y="114.9609"/></g><g><title>ViewAircraftDetailsUseCase</title><rect fill="#FFFFFF" height="251.2969" style="stroke:#181818;stroke-width:1;" width="10" x="515.5747" y="145.3125"/></g><g><title>AircraftRepository</title><rect fill="#FFFFFF" height="91.0547" style="stroke:#181818;stroke-width:1;" width="10" x="780.5054" y="175.6641"/></g><g><title>Database</title><rect fill="#FFFFFF" height="30.3516" style="stroke:#181818;stroke-width:1;" width="10" x="1158.4751" y="206.0156"/></g><rect fill="none" height="107.8906" style="stroke:#000000;stroke-width:1.5;" width="518.3496" x="238.2085" y="281.7188"/><g class="participant-lifeline" data-entity-uid="part1" data-qualified-name="Actor" data-source-line="2" id="part1-lifeline"><g><title>ATCC . Backoffice Operator</title><rect fill="#000000" fill-opacity="0.00000" height="354.3516" width="8" x="90.7515" y="82.6094"/><line style="stroke:#181818;stroke-width:0.5;stroke-dasharray:5,5;" x1="94" x2="94" y1="82.6094" y2="436.9609"/></g></g><g class="participant-lifeline" data-entity-uid="part2" data-qualified-name="Ctrl" data-source-line="3" id="part2-lifeline"><g><title>AircraftController</title><rect fill="#000000" fill-opacity="0.00000" height="354.3516" width="8" x="303.7222" y="82.6094"/><line style="stroke:#181818;stroke-width:0.5;stroke-dasharray:5,5;" x1="307.2085" x2="307.2085" y1="82.6094" y2="436.9609"/></g></g><g class="participant-lifeline" data-entity-uid="part3" data-qualified-name="UC" data-source-line="4" id="part3-lifeline"><g><title>ViewAircraftDetailsUseCase</title><rect fill="#000000" fill-opacity="0.00000" height="354.3516" width="8" x="516.5747" y="82.6094"/><line style="stroke:#181818;stroke-width:0.5;stroke-dasharray:5,5;" x1="520.0474" x2="520.0474" y1="82.6094" y2="436.9609"/></g></g><g class="participant-lifeline" data-entity-uid="part4" data-qualified-name="Repo" data-source-line="5" id="part4-lifeline"><g><title>AircraftRepository</title><rect fill="#000000" fill-opacity="0.00000" height="354.3516" width="8" x="781.5054" y="82.6094"/><line style="stroke:#181818;stroke-width:0.5;stroke-dasharray:5,5;" x1="784.8779" x2="784.8779" y1="82.6094" y2="436.9609"/></g></g><g class="participant-lifeline" data-entity-uid="part5" data-qualified-name="DB" data-source-line="6" id="part5-lifeline"><g><title>Database</title><rect fill="#000000" fill-opacity="0.00000" height="354.3516" width="8" x="1159.4751" y="82.6094"/><line style="stroke:#181818;stroke-width:0.5;stroke-dasharray:5,5;" x1="1162.5098" x2="1162.5098" y1="82.6094" y2="436.9609"/></g></g><g class="participant participant-head" data-entity-uid="part1" data-qualified-name="Actor" data-source-line="2" id="part1-head"><text fill="#000000" font-family="sans-serif" font-size="14" lengthAdjust="spacing" textLength="173.5029" x="5" y="79.5332">ATCC / Backoffice Operator</text><ellipse cx="94.7515" cy="13.5" fill="#E2E2F0" rx="8" ry="8" style="stroke:#181818;stroke-width:0.5;"/><path d="M94.7515,21.5 L94.7515,48.5 M81.7515,29.5 L107.7515,29.5 M94.7515,48.5 L81.7515,63.5 M94.7515,48.5 L107.7515,63.5" fill="none" style="stroke:#181818;stroke-width:0.5;"/></g><g class="participant participant-tail" data-entity-uid="part1" data-qualified-name="Actor" data-source-line="2" id="part1-tail"><text fill="#000000" font-family="sans-serif" font-size="14" lengthAdjust="spacing" textLength="173.5029" x="5" y="450.4941">ATCC / Backoffice Operator</text><ellipse cx="94.7515" cy="462.0703" fill="#E2E2F0" rx="8" ry="8" style="stroke:#181818;stroke-width:0.5;"/><path d="M94.7515,470.0703 L94.7515,497.0703 M81.7515,478.0703 L107.7515,478.0703 M94.7515,497.0703 L81.7515,512.0703 M94.7515,497.0703 L107.7515,512.0703" fill="none" style="stroke:#181818;stroke-width:0.5;"/></g><g class="participant participant-head" data-entity-uid="part2" data-qualified-name="Ctrl" data-source-line="3" id="part2-head"><rect fill="#E2E2F0" height="31.6094" rx="2.5" ry="2.5" style="stroke:#181818;stroke-width:0.5;" width="119.0273" x="248.2085" y="50"/><text fill="#000000" font-family="sans-serif" font-size="14" lengthAdjust="spacing" textLength="105.0273" x="255.2085" y="71.5332">AircraftController</text></g><g class="participant participant-tail" data-entity-uid="part2" data-qualified-name="Ctrl" data-source-line="3" id="part2-tail"><rect fill="#E2E2F0" height="31.6094" rx="2.5" ry="2.5" style="stroke:#181818;stroke-width:0.5;" width="119.0273" x="248.2085" y="435.9609"/><text fill="#000000" font-family="sans-serif" font-size="14" lengthAdjust="spacing" textLength="105.0273" x="255.2085" y="457.4941">AircraftController</text></g><g class="participant participant-head" data-entity-uid="part3" data-qualified-name="UC" data-source-line="4" id="part3-head"><rect fill="#E2E2F0" height="31.6094" rx="2.5" ry="2.5" style="stroke:#181818;stroke-width:0.5;" width="189.0547" x="426.0474" y="50"/><text fill="#000000" font-family="sans-serif" font-size="14" lengthAdjust="spacing" textLength="175.0547" x="433.0474" y="71.5332">ViewAircraftDetailsUseCase</text></g><g class="participant participant-tail" data-entity-uid="part3" data-qualified-name="UC" data-source-line="4" id="part3-tail"><rect fill="#E2E2F0" height="31.6094" rx="2.5" ry="2.5" style="stroke:#181818;stroke-width:0.5;" width="189.0547" x="426.0474" y="435.9609"/><text fill="#000000" font-family="sans-serif" font-size="14" lengthAdjust="spacing" textLength="175.0547" x="433.0474" y="457.4941">ViewAircraftDetailsUseCase</text></g><g class="participant participant-head" data-entity-uid="part4" data-qualified-name="Repo" data-source-line="5" id="part4-head"><rect fill="#E2E2F0" height="31.6094" rx="2.5" ry="2.5" style="stroke:#181818;stroke-width:0.5;" width="125.2549" x="722.8779" y="50"/><text fill="#000000" font-family="sans-serif" font-size="14" lengthAdjust="spacing" textLength="111.2549" x="729.8779" y="71.5332">AircraftRepository</text></g><g class="participant participant-tail" data-entity-uid="part4" data-qualified-name="Repo" data-source-line="5" id="part4-tail"><rect fill="#E2E2F0" height="31.6094" rx="2.5" ry="2.5" style="stroke:#181818;stroke-width:0.5;" width="125.2549" x="722.8779" y="435.9609"/><text fill="#000000" font-family="sans-serif" font-size="14" lengthAdjust="spacing" textLength="111.2549" x="729.8779" y="457.4941">AircraftRepository</text></g><g class="participant participant-head" data-entity-uid="part5" data-qualified-name="DB" data-source-line="6" id="part5-head"><text fill="#000000" font-family="sans-serif" font-size="14" lengthAdjust="spacing" textLength="59.9307" x="1130.5098" y="79.5332">Database</text><path d="M1145.4751,29 C1145.4751,19 1163.4751,19 1163.4751,19 C1163.4751,19 1181.4751,19 1181.4751,29 L1181.4751,55 C1181.4751,65 1163.4751,65 1163.4751,65 C1163.4751,65 1145.4751,65 1145.4751,55 L1145.4751,29" fill="#E2E2F0" style="stroke:#181818;stroke-width:0.5;"/><path d="M1145.4751,29 C1145.4751,39 1163.4751,39 1163.4751,39 C1163.4751,39 1181.4751,39 1181.4751,29" fill="none" style="stroke:#181818;stroke-width:0.5;"/></g><g class="participant participant-tail" data-entity-uid="part5" data-qualified-name="DB" data-source-line="6" id="part5-tail"><text fill="#000000" font-family="sans-serif" font-size="14" lengthAdjust="spacing" textLength="59.9307" x="1130.5098" y="450.4941">Database</text><path d="M1145.4751,463.5703 C1145.4751,453.5703 1163.4751,453.5703 1163.4751,453.5703 C1163.4751,453.5703 1181.4751,453.5703 1181.4751,463.5703 L1181.4751,489.5703 C1181.4751,499.5703 1163.4751,499.5703 1163.4751,499.5703 C1163.4751,499.5703 1145.4751,499.5703 1145.4751,489.5703 L1145.4751,463.5703" fill="#E2E2F0" style="stroke:#181818;stroke-width:0.5;"/><path d="M1145.4751,463.5703 C1145.4751,473.5703 1163.4751,473.5703 1163.4751,473.5703 C1163.4751,473.5703 1181.4751,473.5703 1181.4751,463.5703" fill="none" style="stroke:#181818;stroke-width:0.5;"/></g><g><title>AircraftController</title><rect fill="#FFFFFF" height="304" style="stroke:#181818;stroke-width:1;" width="10" x="302.7222" y="114.9609"/></g><g><title>ViewAircraftDetailsUseCase</title><rect fill="#FFFFFF" height="251.2969" style="stroke:#181818;stroke-width:1;" width="10" x="515.5747" y="145.3125"/></g><g><title>AircraftRepository</title><rect fill="#FFFFFF" height="91.0547" style="stroke:#181818;stroke-width:1;" width="10" x="780.5054" y="175.6641"/></g><g><title>Database</title><rect fill="#FFFFFF" height="30.3516" style="stroke:#181818;stroke-width:1;" width="10" x="1158.4751" y="206.0156"/></g><g class="message" data-entity-1="part1" data-entity-2="part2" data-source-line="7" id="msg1"><polygon fill="#181818" points="290.7222,110.9609,300.7222,114.9609,290.7222,118.9609,294.7222,114.9609" style="stroke:#181818;stroke-width:1;stroke-linejoin:miter;stroke-miterlimit:10;"/><line style="stroke:#181818;stroke-width:1;" x1="94.7515" x2="296.7222" y1="114.9609" y2="114.9609"/><text fill="#000000" font-family="sans-serif" font-size="13" font-weight="700" lengthAdjust="spacing" textLength="7.23" x="101.7515" y="110.1045">1</text><text fill="#000000" font-family="sans-serif" font-size="13" lengthAdjust="spacing" textLength="177.7407" x="112.9814" y="110.1045">GET /api/aircrafts/{registration}</text></g><g class="message" data-entity-1="part2" data-entity-2="part3" data-source-line="9" id="msg2"><polygon fill="#181818" points="503.5747,141.3125,513.5747,145.3125,503.5747,149.3125,507.5747,145.3125" style="stroke:#181818;stroke-width:1;stroke-linejoin:miter;stroke-miterlimit:10;"/><line style="stroke:#181818;stroke-width:1;" x1="312.7222" x2="509.5747" y1="145.3125" y2="145.3125"/><text fill="#000000" font-family="sans-serif" font-size="13" font-weight="700" lengthAdjust="spacing" textLength="7.23" x="319.7222" y="140.4561">2</text><text fill="#000000" font-family="sans-serif" font-size="13" lengthAdjust="spacing" textLength="118.498" x="330.9521" y="140.4561">execute(registration)</text></g><g class="message" data-entity-1="part3" data-entity-2="part4" data-source-line="11" id="msg3"><polygon fill="#181818" points="768.5054,171.6641,778.5054,175.6641,768.5054,179.6641,772.5054,175.6641" style="stroke:#181818;stroke-width:1;stroke-linejoin:miter;stroke-miterlimit:10;"/><line style="stroke:#181818;stroke-width:1;" x1="525.5747" x2="774.5054" y1="175.6641" y2="175.6641"/><text fill="#000000" font-family="sans-serif" font-size="13" font-weight="700" lengthAdjust="spacing" textLength="7.23" x="532.5747" y="170.8076">3</text><text fill="#000000" font-family="sans-serif" font-size="13" lengthAdjust="spacing" textLength="224.7007" x="543.8047" y="170.8076">findByRegistrationNumber(registration)</text></g><g class="message" data-entity-1="part4" data-entity-2="part5" data-source-line="13" id="msg4"><polygon fill="#181818" points="1146.4751,202.0156,1156.4751,206.0156,1146.4751,210.0156,1150.4751,206.0156" style="stroke:#181818;stroke-width:1;stroke-linejoin:miter;stroke-miterlimit:10;"/><line style="stroke:#181818;stroke-width:1;" x1="790.5054" x2="1152.4751" y1="206.0156" y2="206.0156"/><text fill="#000000" font-family="sans-serif" font-size="13" font-weight="700" lengthAdjust="spacing" textLength="7.23" x="797.5054" y="201.1592">4</text><text fill="#000000" font-family="sans-serif" font-size="13" lengthAdjust="spacing" textLength="337.7397" x="808.7354" y="201.1592">SELECT * FROM aircraft WHERE registration_number = ?</text></g><g class="message" data-entity-1="part5" data-entity-2="part4" data-source-line="15" id="msg5"><polygon fill="#181818" points="801.5054,232.3672,791.5054,236.3672,801.5054,240.3672,797.5054,236.3672" style="stroke:#181818;stroke-width:1;stroke-linejoin:miter;stroke-miterlimit:10;"/><line style="stroke:#181818;stroke-width:1;stroke-dasharray:2,2;" x1="795.5054" x2="1162.4751" y1="236.3672" y2="236.3672"/><text fill="#000000" font-family="sans-serif" font-size="13" font-weight="700" lengthAdjust="spacing" textLength="7.23" x="807.5054" y="231.5107">5</text><text fill="#000000" font-family="sans-serif" font-size="13" lengthAdjust="spacing" textLength="65.7617" x="818.7354" y="231.5107">record data</text></g><g class="message" data-entity-1="part4" data-entity-2="part3" data-source-line="17" id="msg6"><polygon fill="#181818" points="536.5747,262.7188,526.5747,266.7188,536.5747,270.7188,532.5747,266.7188" style="stroke:#181818;stroke-width:1;stroke-linejoin:miter;stroke-miterlimit:10;"/><line style="stroke:#181818;stroke-width:1;stroke-dasharray:2,2;" x1="530.5747" x2="784.5054" y1="266.7188" y2="266.7188"/><text fill="#000000" font-family="sans-serif" font-size="13" font-weight="700" lengthAdjust="spacing" textLength="7.23" x="542.5747" y="261.8623">6</text><text fill="#000000" font-family="sans-serif" font-size="13" lengthAdjust="spacing" textLength="104.7744" x="553.8047" y="261.8623">Optional&lt;Aircraft&gt;</text></g><path d="M238.2085,281.7188 L298.3794,281.7188 L298.3794,290.0703 L288.3794,300.0703 L238.2085,300.0703 L238.2085,281.7188" fill="#EEEEEE" style="stroke:#000000;stroke-width:1.5;"/><rect fill="none" height="107.8906" style="stroke:#000000;stroke-width:1.5;" width="518.3496" x="238.2085" y="281.7188"/><text fill="#000000" font-family="sans-serif" font-size="13" font-weight="700" lengthAdjust="spacing" textLength="15.1709" x="253.2085" y="296.2139">alt</text><text fill="#000000" font-family="sans-serif" font-size="11" font-weight="700" lengthAdjust="spacing" textLength="98.377" x="313.3794" y="295.1377">[aircraft not found]</text><g class="message" data-entity-1="part3" data-entity-2="part3" data-source-line="20" id="msg7"><line style="stroke:#181818;stroke-width:1;" x1="525.5747" x2="567.5747" y1="322.4219" y2="322.4219"/><line style="stroke:#181818;stroke-width:1;" x1="567.5747" x2="567.5747" y1="322.4219" y2="335.4219"/><line style="stroke:#181818;stroke-width:1;" x1="526.5747" x2="567.5747" y1="335.4219" y2="335.4219"/><polygon fill="#181818" points="536.5747,331.4219,526.5747,335.4219,536.5747,339.4219,532.5747,335.4219" style="stroke:#181818;stroke-width:1;stroke-linejoin:miter;stroke-miterlimit:10;"/><text fill="#000000" font-family="sans-serif" font-size="13" font-weight="700" lengthAdjust="spacing" textLength="7.23" x="532.5747" y="317.5654">7</text><text fill="#000000" font-family="sans-serif" font-size="13" lengthAdjust="spacing" textLength="190.7534" x="543.8047" y="317.5654">throw AircraftNotFoundException</text></g><line style="stroke:#000000;stroke-width:1;stroke-dasharray:2,2;" x1="238.2085" x2="756.5581" y1="344.4219" y2="344.4219"/><text fill="#000000" font-family="sans-serif" font-size="11" font-weight="700" lengthAdjust="spacing" textLength="78.2192" x="243.2085" y="355.8408">[aircraft found]</text><g class="message" data-entity-1="part3" data-entity-2="part2" data-source-line="22" id="msg8"><polygon fill="#181818" points="323.7222,377.6094,313.7222,381.6094,323.7222,385.6094,319.7222,381.6094" style="stroke:#181818;stroke-width:1;stroke-linejoin:miter;stroke-miterlimit:10;"/><line style="stroke:#181818;stroke-width:1;stroke-dasharray:2,2;" x1="317.7222" x2="514.5747" y1="381.6094" y2="381.6094"/><text fill="#000000" font-family="sans-serif" font-size="13" font-weight="700" lengthAdjust="spacing" textLength="7.23" x="329.7222" y="376.7529">8</text><text fill="#000000" font-family="sans-serif" font-size="13" lengthAdjust="spacing" textLength="167.6226" x="340.9521" y="376.7529">ViewAircraftDetailsResponse</text></g><g class="message" data-entity-1="part2" data-entity-2="part1" data-source-line="25" id="msg9"><polygon fill="#181818" points="105.7515,414.9609,95.7515,418.9609,105.7515,422.9609,101.7515,418.9609" style="stroke:#181818;stroke-width:1;stroke-linejoin:miter;stroke-miterlimit:10;"/><line style="stroke:#181818;stroke-width:1;stroke-dasharray:2,2;" x1="99.7515" x2="306.7222" y1="418.9609" y2="418.9609"/><text fill="#000000" font-family="sans-serif" font-size="13" font-weight="700" lengthAdjust="spacing" textLength="7.23" x="111.7515" y="414.1045">9</text><text fill="#000000" font-family="sans-serif" font-size="13" lengthAdjust="spacing" textLength="154.6035" x="122.9814" y="414.1045">200 OK (JSON with _links)</text></g><?plantuml-src TP9FJy904CNl_HGJJc9281wDOg1KZNzeKa2FP6Ydih7kDhk3Q8pVtUcMsf9eJzli-xrvCxEuOwDtRnko0QPiBFGcop248KmnVJLvhbA2k2IBSjS3T32fL469bbMgIjGiXBAfnPn3ezcQeg1Q6R8jZeLFYlQDU4QCgd0hHo4wyi0g_DiteT8u9MK_lQpw3J9at0W8lTdXvEzcqy07XC7OruTpk8cMCCHI3V5WvuPVbbwKOsbA6VrTDQxUaQbEx371Lw70z47fZkca2_HRG1ABJCHL9f7dIcVJpwGZdllP_iVxLZmh7hEfE2oYXoXSmYbS9_4ZD97X-JPA8kYwhEkjmILSjNxIlhWCsa2MKcCpgAOLPDJLrLMRFkEoyiJYefdvk2ltCR7WDeys3BdPwIm0-UePU2FUMhE7ncLk-BfIHHyf-Ge15RApNvjZYtPdVpoKX5nfjAE0XEXaanNK6nEwNlqvd8r64D_3oTqYdiDUyHRMXTAlhjy5A-e7?></g></svg>