<?plantuml 1.2026.1?><svg xmlns="http://www.w3.org/2000/svg" xmlns:xlink="http://www.w3.org/1999/xlink" contentStyleType="text/css" data-diagram-type="SEQUENCE" height="595px" preserveAspectRatio="none" style="width:1601px;height:595px;background:#FFFFFF;" version="1.1" viewBox="0 0 1601 595" width="1601px" zoomAndPan="magnify"><defs/><g><g><title>AircraftController</title><rect fill="#FFFFFF" height="391.7969" style="stroke:#181818;stroke-width:1;" width="10" x="522.6865" y="112.4297"/></g><g><title>ViewAircraftDetailsUseCase</title><rect fill="#FFFFFF" height="303.3984" style="stroke:#181818;stroke-width:1;" width="10" x="859.6104" y="141.5625"/></g><g><title>AircraftRepository</title><rect fill="#FFFFFF" height="87.3984" style="stroke:#181818;stroke-width:1;" width="10" x="1159.5801" y="170.6953"/></g><g><title>Database</title><rect fill="#FFFFFF" height="29.1328" style="stroke:#181818;stroke-width:1;" width="10" x="1558.7827" y="199.8281"/></g><rect fill="none" height="224.1328" style="stroke:#000000;stroke-width:1.5;" width="968.6875" x="10" y="273.0938"/><g class="participant-lifeline" data-entity-uid="part1" data-qualified-name="Actor" id="part1-lifeline"><g><title>ATCC . Backoffice Operator</title><rect fill="#000000" fill-opacity="0.00000" height="432.9297" width="8" x="114.5117" y="81.2969"/><line style="stroke:#181818;stroke-width:0.5;stroke-dasharray:5,5;" x1="118" x2="118" y1="81.2969" y2="514.2266"/></g></g><g class="participant-lifeline" data-entity-uid="part2" data-qualified-name="Ctrl" id="part2-lifeline"><g><title>AircraftController</title><rect fill="#000000" fill-opacity="0.00000" height="432.9297" width="8" x="523.6865" y="81.2969"/><line style="stroke:#181818;stroke-width:0.5;stroke-dasharray:5,5;" x1="527.2637" x2="527.2637" y1="81.2969" y2="514.2266"/></g></g><g class="participant-lifeline" data-entity-uid="part3" data-qualified-name="UC" id="part3-lifeline"><g><title>ViewAircraftDetailsUseCase</title><rect fill="#000000" fill-opacity="0.00000" height="432.9297" width="8" x="860.6104" y="81.2969"/><line style="stroke:#181818;stroke-width:0.5;stroke-dasharray:5,5;" x1="864.5332" x2="864.5332" y1="81.2969" y2="514.2266"/></g></g><g class="participant-lifeline" data-entity-uid="part4" data-qualified-name="Repo" id="part4-lifeline"><g><title>AircraftRepository</title><rect fill="#000000" fill-opacity="0.00000" height="432.9297" width="8" x="1160.5801" y="81.2969"/><line style="stroke:#181818;stroke-width:0.5;stroke-dasharray:5,5;" x1="1164.2075" x2="1164.2075" y1="81.2969" y2="514.2266"/></g></g><g class="participant-lifeline" data-entity-uid="part5" data-qualified-name="DB" id="part5-lifeline"><g><title>Database</title><rect fill="#000000" fill-opacity="0.00000" height="432.9297" width="8" x="1559.7827" y="81.2969"/><line style="stroke:#181818;stroke-width:0.5;stroke-dasharray:5,5;" x1="1563.3823" x2="1563.3823" y1="81.2969" y2="514.2266"/></g></g><g class="participant participant-head" data-entity-uid="part1" data-qualified-name="Actor" id="part1-head"><text fill="#000000" font-family="sans-serif" font-size="14" lengthAdjust="spacing" textLength="191.0234" x="20" y="77.9951">ATCC / Backoffice Operator</text><ellipse cx="118.5117" cy="13.5" fill="#E2E2F0" rx="8" ry="8" style="stroke:#181818;stroke-width:0.5;"/><path d="M118.5117,21.5 L118.5117,48.5 M105.5117,29.5 L131.5117,29.5 M118.5117,48.5 L105.5117,63.5 M118.5117,48.5 L131.5117,63.5" fill="none" style="stroke:#181818;stroke-width:0.5;"/></g><g class="participant participant-tail" data-entity-uid="part1" data-qualified-name="Actor" id="part1-tail"><text fill="#000000" font-family="sans-serif" font-size="14" lengthAdjust="spacing" textLength="191.0234" x="20" y="526.2217">ATCC / Backoffice Operator</text><ellipse cx="118.5117" cy="538.0234" fill="#E2E2F0" rx="8" ry="8" style="stroke:#181818;stroke-width:0.5;"/><path d="M118.5117,546.0234 L118.5117,573.0234 M105.5117,554.0234 L131.5117,554.0234 M118.5117,573.0234 L105.5117,588.0234 M118.5117,573.0234 L131.5117,588.0234" fill="none" style="stroke:#181818;stroke-width:0.5;"/></g><g class="participant participant-head" data-entity-uid="part2" data-qualified-name="Ctrl" id="part2-head"><rect fill="#E2E2F0" height="30.2969" rx="2.5" ry="2.5" style="stroke:#181818;stroke-width:0.5;" width="134.8457" x="460.2637" y="50"/><text fill="#000000" font-family="sans-serif" font-size="14" lengthAdjust="spacing" textLength="120.8457" x="467.2637" y="69.9951">AircraftController</text></g><g class="participant participant-tail" data-entity-uid="part2" data-qualified-name="Ctrl" id="part2-tail"><rect fill="#E2E2F0" height="30.2969" rx="2.5" ry="2.5" style="stroke:#181818;stroke-width:0.5;" width="134.8457" x="460.2637" y="513.2266"/><text fill="#000000" font-family="sans-serif" font-size="14" lengthAdjust="spacing" textLength="120.8457" x="467.2637" y="533.2217">AircraftController</text></g><g class="participant participant-head" data-entity-uid="part3" data-qualified-name="UC" id="part3-head"><rect fill="#E2E2F0" height="30.2969" rx="2.5" ry="2.5" style="stroke:#181818;stroke-width:0.5;" width="208.1543" x="760.5332" y="50"/><text fill="#000000" font-family="sans-serif" font-size="14" lengthAdjust="spacing" textLength="194.1543" x="767.5332" y="69.9951">ViewAircraftDetailsUseCase</text></g><g class="participant participant-tail" data-entity-uid="part3" data-qualified-name="UC" id="part3-tail"><rect fill="#E2E2F0" height="30.2969" rx="2.5" ry="2.5" style="stroke:#181818;stroke-width:0.5;" width="208.1543" x="760.5332" y="513.2266"/><text fill="#000000" font-family="sans-serif" font-size="14" lengthAdjust="spacing" textLength="194.1543" x="767.5332" y="533.2217">ViewAircraftDetailsUseCase</text></g><g class="participant participant-head" data-entity-uid="part4" data-qualified-name="Repo" id="part4-head"><rect fill="#E2E2F0" height="30.2969" rx="2.5" ry="2.5" style="stroke:#181818;stroke-width:0.5;" width="140.7451" x="1094.2075" y="50"/><text fill="#000000" font-family="sans-serif" font-size="14" lengthAdjust="spacing" textLength="126.7451" x="1101.2075" y="69.9951">AircraftRepository</text></g><g class="participant participant-tail" data-entity-uid="part4" data-qualified-name="Repo" id="part4-tail"><rect fill="#E2E2F0" height="30.2969" rx="2.5" ry="2.5" style="stroke:#181818;stroke-width:0.5;" width="140.7451" x="1094.2075" y="513.2266"/><text fill="#000000" font-family="sans-serif" font-size="14" lengthAdjust="spacing" textLength="126.7451" x="1101.2075" y="533.2217">AircraftRepository</text></g><g class="participant participant-head" data-entity-uid="part5" data-qualified-name="DB" id="part5-head"><text fill="#000000" font-family="sans-serif" font-size="14" lengthAdjust="spacing" textLength="66.8008" x="1527.3823" y="77.9951">Database</text><path d="M1545.7827,29 C1545.7827,19 1563.7827,19 1563.7827,19 C1563.7827,19 1581.7827,19 1581.7827,29 L1581.7827,55 C1581.7827,65 1563.7827,65 1563.7827,65 C1563.7827,65 1545.7827,65 1545.7827,55 L1545.7827,29" fill="#E2E2F0" style="stroke:#181818;stroke-width:0.5;"/><path d="M1545.7827,29 C1545.7827,39 1563.7827,39 1563.7827,39 C1563.7827,39 1581.7827,39 1581.7827,29" fill="none" style="stroke:#181818;stroke-width:0.5;"/></g><g class="participant participant-tail" data-entity-uid="part5" data-qualified-name="DB" id="part5-tail"><text fill="#000000" font-family="sans-serif" font-size="14" lengthAdjust="spacing" textLength="66.8008" x="1527.3823" y="526.2217">Database</text><path d="M1545.7827,539.5234 C1545.7827,529.5234 1563.7827,529.5234 1563.7827,529.5234 C1563.7827,529.5234 1581.7827,529.5234 1581.7827,539.5234 L1581.7827,565.5234 C1581.7827,575.5234 1563.7827,575.5234 1563.7827,575.5234 C1563.7827,575.5234 1545.7827,575.5234 1545.7827,565.5234 L1545.7827,539.5234" fill="#E2E2F0" style="stroke:#181818;stroke-width:0.5;"/><path d="M1545.7827,539.5234 C1545.7827,549.5234 1563.7827,549.5234 1563.7827,549.5234 C1563.7827,549.5234 1581.7827,549.5234 1581.7827,539.5234" fill="none" style="stroke:#181818;stroke-width:0.5;"/></g><g><title>AircraftController</title><rect fill="#FFFFFF" height="391.7969" style="stroke:#181818;stroke-width:1;" width="10" x="522.6865" y="112.4297"/></g><g><title>ViewAircraftDetailsUseCase</title><rect fill="#FFFFFF" height="303.3984" style="stroke:#181818;stroke-width:1;" width="10" x="859.6104" y="141.5625"/></g><g><title>AircraftRepository</title><rect fill="#FFFFFF" height="87.3984" style="stroke:#181818;stroke-width:1;" width="10" x="1159.5801" y="170.6953"/></g><g><title>Database</title><rect fill="#FFFFFF" height="29.1328" style="stroke:#181818;stroke-width:1;" width="10" x="1558.7827" y="199.8281"/></g><g class="message" data-entity-1="part1" data-entity-2="part2" id="msg1"><polygon fill="#181818" points="510.6865,108.4297,520.6865,112.4297,510.6865,116.4297,514.6865,112.4297" style="stroke:#181818;stroke-width:1;"/><line style="stroke:#181818;stroke-width:1;" x1="118.5117" x2="516.6865" y1="112.4297" y2="112.4297"/><text fill="#000000" font-family="sans-serif" font-size="13" font-weight="bold" lengthAdjust="spacing" textLength="9.0454" x="125.5117" y="107.3638">1</text><text fill="#000000" font-family="sans-serif" font-size="13" lengthAdjust="spacing" textLength="208.9902" x="138.5571" y="107.3638">GET /api/aircrafts/{registration}</text></g><g class="message" data-entity-1="part2" data-entity-2="part3" id="msg2"><polygon fill="#181818" points="847.6104,137.5625,857.6104,141.5625,847.6104,145.5625,851.6104,141.5625" style="stroke:#181818;stroke-width:1;"/><line style="stroke:#181818;stroke-width:1;" x1="532.6865" x2="853.6104" y1="141.5625" y2="141.5625"/><text fill="#000000" font-family="sans-serif" font-size="13" font-weight="bold" lengthAdjust="spacing" textLength="9.0454" x="539.6865" y="136.4966">2</text><text fill="#000000" font-family="sans-serif" font-size="13" lengthAdjust="spacing" textLength="184.9136" x="552.7319" y="136.4966">execute(registration: String)</text></g><g class="message" data-entity-1="part3" data-entity-2="part4" id="msg3"><polygon fill="#181818" points="1147.5801,166.6953,1157.5801,170.6953,1147.5801,174.6953,1151.5801,170.6953" style="stroke:#181818;stroke-width:1;"/><line style="stroke:#181818;stroke-width:1;" x1="869.6104" x2="1153.5801" y1="170.6953" y2="170.6953"/><text fill="#000000" font-family="sans-serif" font-size="13" font-weight="bold" lengthAdjust="spacing" textLength="9.0454" x="876.6104" y="165.6294">3</text><text fill="#000000" font-family="sans-serif" font-size="13" lengthAdjust="spacing" textLength="257.9243" x="889.6558" y="165.6294">findByRegistrationNumber(registration)</text></g><g class="message" data-entity-1="part4" data-entity-2="part5" id="msg4"><polygon fill="#181818" points="1546.7827,195.8281,1556.7827,199.8281,1546.7827,203.8281,1550.7827,199.8281" style="stroke:#181818;stroke-width:1;"/><line style="stroke:#181818;stroke-width:1;" x1="1169.5801" x2="1552.7827" y1="199.8281" y2="199.8281"/><text fill="#000000" font-family="sans-serif" font-size="13" font-weight="bold" lengthAdjust="spacing" textLength="9.0454" x="1176.5801" y="194.7622">4</text><text fill="#000000" font-family="sans-serif" font-size="13" lengthAdjust="spacing" textLength="357.1572" x="1189.6255" y="194.7622">SELECT FROM aircraft WHERE registration_number = ?</text></g><g class="message" data-entity-1="part5" data-entity-2="part4" id="msg5"><polygon fill="#181818" points="1180.5801,224.9609,1170.5801,228.9609,1180.5801,232.9609,1176.5801,228.9609" style="stroke:#181818;stroke-width:1;"/><line style="stroke:#181818;stroke-width:1;stroke-dasharray:2,2;" x1="1174.5801" x2="1562.7827" y1="228.9609" y2="228.9609"/><text fill="#000000" font-family="sans-serif" font-size="13" font-weight="bold" lengthAdjust="spacing" textLength="9.0454" x="1186.5801" y="223.895">5</text><text fill="#000000" font-family="sans-serif" font-size="13" lengthAdjust="spacing" textLength="93.228" x="1199.6255" y="223.895">aircraft record</text></g><g class="message" data-entity-1="part4" data-entity-2="part3" id="msg6"><polygon fill="#181818" points="880.6104,254.0938,870.6104,258.0938,880.6104,262.0938,876.6104,258.0938" style="stroke:#181818;stroke-width:1;"/><line style="stroke:#181818;stroke-width:1;stroke-dasharray:2,2;" x1="874.6104" x2="1163.5801" y1="258.0938" y2="258.0938"/><text fill="#000000" font-family="sans-serif" font-size="13" font-weight="bold" lengthAdjust="spacing" textLength="9.0454" x="886.6104" y="253.0278">6</text><text fill="#000000" font-family="sans-serif" font-size="13" lengthAdjust="spacing" textLength="124.7314" x="899.6558" y="253.0278">Optional&lt;Aircraft&gt;</text></g><path d="M10,273.0938 L74.4429,273.0938 L74.4429,280.2266 L64.4429,290.2266 L10,290.2266 L10,273.0938" fill="#EEEEEE" style="stroke:#000000;stroke-width:1.5;"/><rect fill="none" height="224.1328" style="stroke:#000000;stroke-width:1.5;" width="968.6875" x="10" y="273.0938"/><text fill="#000000" font-family="sans-serif" font-size="13" font-weight="bold" lengthAdjust="spacing" textLength="19.4429" x="25" y="286.1606">alt</text><text fill="#000000" font-family="sans-serif" font-size="11" font-weight="bold" lengthAdjust="spacing" textLength="120.2695" x="89.4429" y="285.3042">[aircraft not found]</text><g class="message" data-entity-1="part3" data-entity-2="part2" id="msg7"><polygon fill="#181818" points="543.6865,307.3594,533.6865,311.3594,543.6865,315.3594,539.6865,311.3594" style="stroke:#181818;stroke-width:1;"/><line style="stroke:#181818;stroke-width:1;stroke-dasharray:2,2;" x1="537.6865" x2="858.6104" y1="311.3594" y2="311.3594"/><text fill="#000000" font-family="sans-serif" font-size="13" font-weight="bold" lengthAdjust="spacing" textLength="9.0454" x="549.6865" y="306.2935">7</text><text fill="#000000" font-family="sans-serif" font-size="13" lengthAdjust="spacing" textLength="223.2979" x="562.7319" y="306.2935">throws AircraftNotFoundException</text></g><g class="message" data-entity-1="part2" data-entity-2="part1" id="msg8"><polygon fill="#181818" points="129.5117,351.625,119.5117,355.625,129.5117,359.625,125.5117,355.625" style="stroke:#181818;stroke-width:1;"/><line style="stroke:#181818;stroke-width:1;stroke-dasharray:2,2;" x1="123.5117" x2="521.6865" y1="355.625" y2="355.625"/><text fill="#000000" font-family="sans-serif" font-size="13" font-weight="bold" lengthAdjust="spacing" textLength="9.0454" x="135.5117" y="342.9927">8</text><text fill="#000000" font-family="sans-serif" font-size="13" lengthAdjust="spacing" textLength="96.0146" x="148.5571" y="335.4263">404 Not Found</text><text fill="#000000" font-family="sans-serif" font-size="13" lengthAdjust="spacing" textLength="246.3081" x="148.5571" y="350.5591">{ message: "Aircraft '...' not found." }</text></g><line style="stroke:#000000;stroke-width:1;stroke-dasharray:2,2;" x1="10" x2="978.6875" y1="364.625" y2="364.625"/><text fill="#000000" font-family="sans-serif" font-size="11" font-weight="bold" lengthAdjust="spacing" textLength="95.7935" x="15" y="374.8354">[aircraft found]</text><g class="message" data-entity-1="part3" data-entity-2="part2" id="msg9"><polygon fill="#181818" points="543.6865,440.9609,533.6865,444.9609,543.6865,448.9609,539.6865,444.9609" style="stroke:#181818;stroke-width:1;"/><line style="stroke:#181818;stroke-width:1;stroke-dasharray:2,2;" x1="537.6865" x2="863.6104" y1="444.9609" y2="444.9609"/><text fill="#000000" font-family="sans-serif" font-size="13" font-weight="bold" lengthAdjust="spacing" textLength="9.0454" x="549.6865" y="417.1958">9</text><text fill="#000000" font-family="sans-serif" font-size="13" lengthAdjust="spacing" textLength="187.2051" x="562.7319" y="394.4966">ViewAircraftDetailsResponse</text><text fill="#000000" font-family="sans-serif" font-size="13" lengthAdjust="spacing" textLength="289.8784" x="562.7319" y="409.6294">{ registrationNumber, model, manufacturer,</text><text fill="#000000" font-family="sans-serif" font-size="13" lengthAdjust="spacing" textLength="271.9082" x="570.9966" y="424.7622">manufacturingDate, status, seatCapacity,</text><text fill="#000000" font-family="sans-serif" font-size="13" lengthAdjust="spacing" textLength="122.2749" x="570.9966" y="439.895">features, version }</text></g><g class="message" data-entity-1="part2" data-entity-2="part1" id="msg10"><polygon fill="#181818" points="129.5117,485.2266,119.5117,489.2266,129.5117,493.2266,125.5117,489.2266" style="stroke:#181818;stroke-width:1;"/><line style="stroke:#181818;stroke-width:1;stroke-dasharray:2,2;" x1="123.5117" x2="521.6865" y1="489.2266" y2="489.2266"/><text fill="#000000" font-family="sans-serif" font-size="13" font-weight="bold" lengthAdjust="spacing" textLength="18.0908" x="135.5117" y="476.5942">10</text><text fill="#000000" font-family="sans-serif" font-size="13" lengthAdjust="spacing" textLength="47.7026" x="157.6025" y="469.0278">200 OK</text><text fill="#000000" font-family="sans-serif" font-size="13" lengthAdjust="spacing" textLength="358.084" x="157.6025" y="484.1606">EntityModel&lt;ViewAircraftDetailsResponse&gt; with _links</text></g><?plantuml-src VL9TRzim37pNho3oqWreFZ3qAUWoD8wx0LiR84ssbm05QzEfK4So9BffKFI_ZvAJsiM2FScMxex78x5cQ-hj0pc56Li7lQjbai0GffWzsQBG6S6y8eVorWFqS1LGgaB7EjCL6XQ6Tfd3WXDhsDcof0QPi2i_0dzhsXt1CsBKfLzvIj1J9AoIqxeBggpNKdOVOU5NvSZu84JepGvVyMqsLIewXFua6e0nV4-NCCHA3_6WvuUlZZRQitIbhNaBdUjdP6eigyWJ_YeHDhrGLZDzwZB6SCTEcytdbYdUbU255Um9hz0cd-uN7TPjZFc3K4SWTXMveZ6RYi9T-YjDbd2zcD_0qJhy-P4kKkXgt3VZWw_mhLMJ74IZtzfv5t2KMPUhdBhOfkwnvNaLTB6yF0vWqeL7emfBRZMDPIXiRN85GQ7VPi-FpkvaQGx8MylN0PU-P1IB2A59MoZDtCPmCRe00K94hiqhRCbxtD2utGWu6mm6PstTGG_U59Mo3k-UJliviO4ByfKrda8bzy-upc5hSohbG5CN4aBjv79je7CXco1BIEVW6RdsSX9oWXLcclSHMyY54ENfcPmNSR4Bq0bLrkT44bz68vZ_N9lKi2ZT12EN_-bW0ZlDZt1VQlFa5KdxtRa5zRy0?></g></svg>