<svg xmlns="http://www.w3.org/2000/svg" xmlns:xlink="http://www.w3.org/1999/xlink" contentStyleType="text/css" data-diagram-type="DESCRIPTION" height="291px" preserveAspectRatio="none" style="width:602px;height:291px;background:#FFFFFF;" version="1.1" viewBox="0 0 602 291" width="602px" zoomAndPan="magnify"><?plantuml 1.2026.4?><defs/><g><!--cluster Bonus Use Cases--><g class="cluster" data-qualified-name="Bonus Use Cases" data-source-line="7" id="ent0003"><rect fill="none" height="202" rx="2.5" ry="2.5" style="stroke:#181818;stroke-width:1;" width="304" x="284" y="7"/><text fill="#000000" font-family="sans-serif" font-size="14" font-weight="700" lengthAdjust="spacing" textLength="118.2686" x="376.8657" y="23.5332">Bonus Use Cases</text></g><!--entity UC223--><g class="entity" data-qualified-name="Bonus Use Cases.UC223" data-source-line="8" id="ent0004"><ellipse cx="435.9223" cy="71.0845" fill="#F1F1F1" rx="125.9223" ry="27.5845" style="stroke:#181818;stroke-width:0.5;"/><text fill="#000000" font-family="sans-serif" font-size="14" lengthAdjust="spacing" textLength="229.5371" x="321.1537" y="76.3891">US223 - View aircraft utilization rates</text></g><!--entity UC227--><g class="entity" data-qualified-name="Bonus Use Cases.UC227" data-source-line="9" id="ent0005"><ellipse cx="436.1499" cy="163.13" fill="#F1F1F1" rx="136.1499" ry="29.63" style="stroke:#181818;stroke-width:0.5;"/><text fill="#000000" font-family="sans-serif" font-size="14" lengthAdjust="spacing" textLength="251.3232" x="310.4883" y="168.4347">US227 - Calculate fuel efficiency metrics</text></g><!--entity BO--><g class="entity" data-qualified-name="BO" data-source-line="4" id="ent0001"><ellipse cx="122.8618" cy="208.5" fill="#F1F1F1" rx="8" ry="8" style="stroke:#181818;stroke-width:0.5;"/><path d="M122.8618,216.5 L122.8618,243.5 M109.8618,224.5 L135.8618,224.5 M122.8618,243.5 L109.8618,258.5 M122.8618,243.5 L135.8618,258.5" fill="none" style="stroke:#181818;stroke-width:0.5;"/><text fill="#000000" font-family="sans-serif" font-size="14" lengthAdjust="spacing" textLength="123.7236" x="61" y="274.5332">Backoffice Operator</text></g><!--entity ATCC--><g class="entity" data-qualified-name="ATCC" data-source-line="5" id="ent0002"><ellipse cx="123.0962" cy="78" fill="#F1F1F1" rx="8" ry="8" style="stroke:#181818;stroke-width:0.5;"/><path d="M123.0962,86 L123.0962,113 M110.0962,94 L136.0962,94 M123.0962,113 L110.0962,128 M123.0962,113 L136.0962,128" fill="none" style="stroke:#181818;stroke-width:0.5;"/><text fill="#000000" font-family="sans-serif" font-size="14" lengthAdjust="spacing" textLength="38.1104" x="6" y="144.0332">ATCC</text><text fill="#000000" font-family="sans-serif" font-size="14" lengthAdjust="spacing" textLength="234.1924" x="6" y="161.6426">(Air Transport Company Collaborator)</text></g><!--link ATCC to UC223--><g class="link" data-entity-1="ent0002" data-entity-2="ent0004" data-link-type="dependency" data-source-line="12" id="lnk6"><path d="M240.25,99.81 C270.09,95.39 297.0637,91.4008 326.2337,87.0908" fill="none" id="ATCC-to-UC223" style="stroke:#181818;stroke-width:1;"/><polygon fill="#181818" points="331.18,86.36,321.692,83.7185,326.2337,87.0908,322.8613,91.6325,331.18,86.36" style="stroke:#181818;stroke-width:1;stroke-linejoin:miter;stroke-miterlimit:10;"/></g><!--link ATCC to UC227--><g class="link" data-entity-1="ent0002" data-entity-2="ent0005" data-link-type="dependency" data-source-line="13" id="lnk7"><path d="M240.25,134.19 C267.42,138.21 291.3636,141.76 318.3336,145.74" fill="none" id="ATCC-to-UC227" style="stroke:#181818;stroke-width:1;"/><polygon fill="#181818" points="323.28,146.47,314.9604,141.1989,318.3336,145.74,313.7925,149.1132,323.28,146.47" style="stroke:#181818;stroke-width:1;stroke-linejoin:miter;stroke-miterlimit:10;"/></g><?plantuml-src NO-zRiCm38HtFSN1KpjuIGTl1H8zG8R4dRgmAkqIaIL1ab6uHT-zLD0Vj1D1yhuZp_DKKIEop2yLpvBPLOd1b8k4H9aM978NclbKDyzeQmgpPsF8rPZH7NGTfqaSuvWuamuxKC7X-AtOdwrz33TxoJXd2YN5N67ZaYXiMhsdftZbRgzWanlpSqWlnB0MZ8LXgN3fy6w0jR3J3jrusktkqED1-1KasMNIH6iLBs_Kea2z6wNMerNjVtXGs99tgrSTffKzkEKH3cx3mZMB-yK7ys5CUn5zV_zb-ASTp2S0?></g></svg>