<svg xmlns="http://www.w3.org/2000/svg" xmlns:xlink="http://www.w3.org/1999/xlink" contentStyleType="text/css" data-diagram-type="SEQUENCE" height="537px" preserveAspectRatio="none" style="width:1091px;height:537px;background:#FFFFFF;" version="1.1" viewBox="0 0 1091 537" width="1091px" zoomAndPan="magnify"><?plantuml 1.2026.4?><defs/><g><g><title>AirportController</title><rect fill="#FFFFFF" height="329.3516" style="stroke:#181818;stroke-width:1;" width="10" x="302.5703" y="114.9609"/></g><g><title>ViewAirportDetailsUseCase</title><rect fill="#FFFFFF" height="299" style="stroke:#181818;stroke-width:1;" width="10" x="542.1719" y="145.3125"/></g><g><title>AirportRepository</title><rect fill="#FFFFFF" height="91.0547" style="stroke:#181818;stroke-width:1;" width="10" x="763.0688" y="175.6641"/></g><g><title>Database</title><rect fill="#FFFFFF" height="30.3516" style="stroke:#181818;stroke-width:1;" width="10" x="1042.0596" y="206.0156"/></g><rect fill="none" height="155.5938" style="stroke:#000000;stroke-width:1.5;" width="640.1475" x="10" y="281.7188"/><g class="participant-lifeline" data-entity-uid="part1" data-qualified-name="Actor" data-source-line="2" id="part1-lifeline"><g><title>Backoffice Operator . ATCC</title><rect fill="#000000" fill-opacity="0.00000" height="371.7031" width="8" x="105.7515" y="82.6094"/><line style="stroke:#181818;stroke-width:0.5;stroke-dasharray:5,5;" x1="109" x2="109" y1="82.6094" y2="454.3125"/></g></g><g class="participant-lifeline" data-entity-uid="part2" data-qualified-name="Ctrl" data-source-line="3" id="part2-lifeline"><g><title>AirportController</title><rect fill="#000000" fill-opacity="0.00000" height="371.7031" width="8" x="303.5703" y="82.6094"/><line style="stroke:#181818;stroke-width:0.5;stroke-dasharray:5,5;" x1="306.6084" x2="306.6084" y1="82.6094" y2="454.3125"/></g></g><g class="participant-lifeline" data-entity-uid="part3" data-qualified-name="UC" data-source-line="4" id="part3-lifeline"><g><title>ViewAirportDetailsUseCase</title><rect fill="#000000" fill-opacity="0.00000" height="371.7031" width="8" x="543.1719" y="82.6094"/><line style="stroke:#181818;stroke-width:0.5;stroke-dasharray:5,5;" x1="546.1963" x2="546.1963" y1="82.6094" y2="454.3125"/></g></g><g class="participant-lifeline" data-entity-uid="part4" data-qualified-name="Repo" data-source-line="5" id="part4-lifeline"><g><title>AirportRepository</title><rect fill="#000000" fill-opacity="0.00000" height="371.7031" width="8" x="764.0688" y="82.6094"/><line style="stroke:#181818;stroke-width:0.5;stroke-dasharray:5,5;" x1="767.9932" x2="767.9932" y1="82.6094" y2="454.3125"/></g></g><g class="participant-lifeline" data-entity-uid="part5" data-qualified-name="DB" data-source-line="6" id="part5-lifeline"><g><title>Database</title><rect fill="#000000" fill-opacity="0.00000" height="371.7031" width="8" x="1043.0596" y="82.6094"/><line style="stroke:#181818;stroke-width:0.5;stroke-dasharray:5,5;" x1="1046.0942" x2="1046.0942" y1="82.6094" y2="454.3125"/></g></g><g class="participant participant-head" data-entity-uid="part1" data-qualified-name="Actor" data-source-line="2" id="part1-head"><text fill="#000000" font-family="sans-serif" font-size="14" lengthAdjust="spacing" textLength="173.5029" x="20" y="79.5332">Backoffice Operator / ATCC</text><ellipse cx="109.7515" cy="13.5" fill="#E2E2F0" rx="8" ry="8" style="stroke:#181818;stroke-width:0.5;"/><path d="M109.7515,21.5 L109.7515,48.5 M96.7515,29.5 L122.7515,29.5 M109.7515,48.5 L96.7515,63.5 M109.7515,48.5 L122.7515,63.5" fill="none" style="stroke:#181818;stroke-width:0.5;"/></g><g class="participant participant-tail" data-entity-uid="part1" data-qualified-name="Actor" data-source-line="2" id="part1-tail"><text fill="#000000" font-family="sans-serif" font-size="14" lengthAdjust="spacing" textLength="173.5029" x="20" y="467.8457">Backoffice Operator / ATCC</text><ellipse cx="109.7515" cy="479.4219" fill="#E2E2F0" rx="8" ry="8" style="stroke:#181818;stroke-width:0.5;"/><path d="M109.7515,487.4219 L109.7515,514.4219 M96.7515,495.4219 L122.7515,495.4219 M109.7515,514.4219 L96.7515,529.4219 M109.7515,514.4219 L122.7515,529.4219" fill="none" style="stroke:#181818;stroke-width:0.5;"/></g><g class="participant participant-head" data-entity-uid="part2" data-qualified-name="Ctrl" data-source-line="3" id="part2-head"><rect fill="#E2E2F0" height="31.6094" rx="2.5" ry="2.5" style="stroke:#181818;stroke-width:0.5;" width="115.9238" x="249.6084" y="50"/><text fill="#000000" font-family="sans-serif" font-size="14" lengthAdjust="spacing" textLength="101.9238" x="256.6084" y="71.5332">AirportController</text></g><g class="participant participant-tail" data-entity-uid="part2" data-qualified-name="Ctrl" data-source-line="3" id="part2-tail"><rect fill="#E2E2F0" height="31.6094" rx="2.5" ry="2.5" style="stroke:#181818;stroke-width:0.5;" width="115.9238" x="249.6084" y="453.3125"/><text fill="#000000" font-family="sans-serif" font-size="14" lengthAdjust="spacing" textLength="101.9238" x="256.6084" y="474.8457">AirportController</text></g><g class="participant participant-head" data-entity-uid="part3" data-qualified-name="UC" data-source-line="4" id="part3-head"><rect fill="#E2E2F0" height="31.6094" rx="2.5" ry="2.5" style="stroke:#181818;stroke-width:0.5;" width="185.9512" x="454.1963" y="50"/><text fill="#000000" font-family="sans-serif" font-size="14" lengthAdjust="spacing" textLength="171.9512" x="461.1963" y="71.5332">ViewAirportDetailsUseCase</text></g><g class="participant participant-tail" data-entity-uid="part3" data-qualified-name="UC" data-source-line="4" id="part3-tail"><rect fill="#E2E2F0" height="31.6094" rx="2.5" ry="2.5" style="stroke:#181818;stroke-width:0.5;" width="185.9512" x="454.1963" y="453.3125"/><text fill="#000000" font-family="sans-serif" font-size="14" lengthAdjust="spacing" textLength="171.9512" x="461.1963" y="474.8457">ViewAirportDetailsUseCase</text></g><g class="participant participant-head" data-entity-uid="part4" data-qualified-name="Repo" data-source-line="5" id="part4-head"><rect fill="#E2E2F0" height="31.6094" rx="2.5" ry="2.5" style="stroke:#181818;stroke-width:0.5;" width="122.1514" x="706.9932" y="50"/><text fill="#000000" font-family="sans-serif" font-size="14" lengthAdjust="spacing" textLength="108.1514" x="713.9932" y="71.5332">AirportRepository</text></g><g class="participant participant-tail" data-entity-uid="part4" data-qualified-name="Repo" data-source-line="5" id="part4-tail"><rect fill="#E2E2F0" height="31.6094" rx="2.5" ry="2.5" style="stroke:#181818;stroke-width:0.5;" width="122.1514" x="706.9932" y="453.3125"/><text fill="#000000" font-family="sans-serif" font-size="14" lengthAdjust="spacing" textLength="108.1514" x="713.9932" y="474.8457">AirportRepository</text></g><g class="participant participant-head" data-entity-uid="part5" data-qualified-name="DB" data-source-line="6" id="part5-head"><text fill="#000000" font-family="sans-serif" font-size="14" lengthAdjust="spacing" textLength="59.9307" x="1014.0942" y="79.5332">Database</text><path d="M1029.0596,29 C1029.0596,19 1047.0596,19 1047.0596,19 C1047.0596,19 1065.0596,19 1065.0596,29 L1065.0596,55 C1065.0596,65 1047.0596,65 1047.0596,65 C1047.0596,65 1029.0596,65 1029.0596,55 L1029.0596,29" fill="#E2E2F0" style="stroke:#181818;stroke-width:0.5;"/><path d="M1029.0596,29 C1029.0596,39 1047.0596,39 1047.0596,39 C1047.0596,39 1065.0596,39 1065.0596,29" fill="none" style="stroke:#181818;stroke-width:0.5;"/></g><g class="participant participant-tail" data-entity-uid="part5" data-qualified-name="DB" data-source-line="6" id="part5-tail"><text fill="#000000" font-family="sans-serif" font-size="14" lengthAdjust="spacing" textLength="59.9307" x="1014.0942" y="467.8457">Database</text><path d="M1029.0596,480.9219 C1029.0596,470.9219 1047.0596,470.9219 1047.0596,470.9219 C1047.0596,470.9219 1065.0596,470.9219 1065.0596,480.9219 L1065.0596,506.9219 C1065.0596,516.9219 1047.0596,516.9219 1047.0596,516.9219 C1047.0596,516.9219 1029.0596,516.9219 1029.0596,506.9219 L1029.0596,480.9219" fill="#E2E2F0" style="stroke:#181818;stroke-width:0.5;"/><path d="M1029.0596,480.9219 C1029.0596,490.9219 1047.0596,490.9219 1047.0596,490.9219 C1047.0596,490.9219 1065.0596,490.9219 1065.0596,480.9219" fill="none" style="stroke:#181818;stroke-width:0.5;"/></g><g><title>AirportController</title><rect fill="#FFFFFF" height="329.3516" style="stroke:#181818;stroke-width:1;" width="10" x="302.5703" y="114.9609"/></g><g><title>ViewAirportDetailsUseCase</title><rect fill="#FFFFFF" height="299" style="stroke:#181818;stroke-width:1;" width="10" x="542.1719" y="145.3125"/></g><g><title>AirportRepository</title><rect fill="#FFFFFF" height="91.0547" style="stroke:#181818;stroke-width:1;" width="10" x="763.0688" y="175.6641"/></g><g><title>Database</title><rect fill="#FFFFFF" height="30.3516" style="stroke:#181818;stroke-width:1;" width="10" x="1042.0596" y="206.0156"/></g><g class="message" data-entity-1="part1" data-entity-2="part2" data-source-line="8" id="msg1"><polygon fill="#181818" points="290.5703,110.9609,300.5703,114.9609,290.5703,118.9609,294.5703,114.9609" style="stroke:#181818;stroke-width:1;stroke-linejoin:miter;stroke-miterlimit:10;"/><line style="stroke:#181818;stroke-width:1;" x1="109.7515" x2="296.5703" y1="114.9609" y2="114.9609"/><text fill="#000000" font-family="sans-serif" font-size="13" font-weight="700" lengthAdjust="spacing" textLength="7.23" x="116.7515" y="110.1045">1</text><text fill="#000000" font-family="sans-serif" font-size="13" lengthAdjust="spacing" textLength="162.5889" x="127.9814" y="110.1045">GET /api/airports/{iataCode}</text></g><g class="message" data-entity-1="part2" data-entity-2="part3" data-source-line="11" id="msg2"><polygon fill="#181818" points="530.1719,141.3125,540.1719,145.3125,530.1719,149.3125,534.1719,145.3125" style="stroke:#181818;stroke-width:1;stroke-linejoin:miter;stroke-miterlimit:10;"/><line style="stroke:#181818;stroke-width:1;" x1="312.5703" x2="536.1719" y1="145.3125" y2="145.3125"/><text fill="#000000" font-family="sans-serif" font-size="13" font-weight="700" lengthAdjust="spacing" textLength="7.23" x="319.5703" y="140.4561">2</text><text fill="#000000" font-family="sans-serif" font-size="13" lengthAdjust="spacing" textLength="106.228" x="330.8003" y="140.4561">execute(iataCode)</text></g><g class="message" data-entity-1="part3" data-entity-2="part4" data-source-line="14" id="msg3"><polygon fill="#181818" points="751.0688,171.6641,761.0688,175.6641,751.0688,179.6641,755.0688,175.6641" style="stroke:#181818;stroke-width:1;stroke-linejoin:miter;stroke-miterlimit:10;"/><line style="stroke:#181818;stroke-width:1;" x1="552.1719" x2="757.0688" y1="175.6641" y2="175.6641"/><text fill="#000000" font-family="sans-serif" font-size="13" font-weight="700" lengthAdjust="spacing" textLength="7.23" x="559.1719" y="170.8076">3</text><text fill="#000000" font-family="sans-serif" font-size="13" lengthAdjust="spacing" textLength="180.667" x="570.4019" y="170.8076">findByIataCodeCode(iataCode)</text></g><g class="message" data-entity-1="part4" data-entity-2="part5" data-source-line="16" id="msg4"><polygon fill="#181818" points="1030.0596,202.0156,1040.0596,206.0156,1030.0596,210.0156,1034.0596,206.0156" style="stroke:#181818;stroke-width:1;stroke-linejoin:miter;stroke-miterlimit:10;"/><line style="stroke:#181818;stroke-width:1;" x1="773.0688" x2="1036.0596" y1="206.0156" y2="206.0156"/><text fill="#000000" font-family="sans-serif" font-size="13" font-weight="700" lengthAdjust="spacing" textLength="7.23" x="780.0688" y="201.1592">4</text><text fill="#000000" font-family="sans-serif" font-size="13" lengthAdjust="spacing" textLength="238.7607" x="791.2988" y="201.1592">SELECT FROM airport WHERE code = ?</text></g><g class="message" data-entity-1="part5" data-entity-2="part4" data-source-line="18" id="msg5"><polygon fill="#181818" points="784.0688,232.3672,774.0688,236.3672,784.0688,240.3672,780.0688,236.3672" style="stroke:#181818;stroke-width:1;stroke-linejoin:miter;stroke-miterlimit:10;"/><line style="stroke:#181818;stroke-width:1;stroke-dasharray:2,2;" x1="778.0688" x2="1046.0596" y1="236.3672" y2="236.3672"/><text fill="#000000" font-family="sans-serif" font-size="13" font-weight="700" lengthAdjust="spacing" textLength="7.23" x="790.0688" y="231.5107">5</text><text fill="#000000" font-family="sans-serif" font-size="13" lengthAdjust="spacing" textLength="77.3081" x="801.2988" y="231.5107">airport record</text></g><g class="message" data-entity-1="part4" data-entity-2="part3" data-source-line="20" id="msg6"><polygon fill="#181818" points="563.1719,262.7188,553.1719,266.7188,563.1719,270.7188,559.1719,266.7188" style="stroke:#181818;stroke-width:1;stroke-linejoin:miter;stroke-miterlimit:10;"/><line style="stroke:#181818;stroke-width:1;stroke-dasharray:2,2;" x1="557.1719" x2="767.0688" y1="266.7188" y2="266.7188"/><text fill="#000000" font-family="sans-serif" font-size="13" font-weight="700" lengthAdjust="spacing" textLength="7.23" x="569.1719" y="261.8623">6</text><text fill="#000000" font-family="sans-serif" font-size="13" lengthAdjust="spacing" textLength="101.8926" x="580.4019" y="261.8623">Optional&lt;Airport&gt;</text></g><path d="M10,281.7188 L70.1709,281.7188 L70.1709,290.0703 L60.1709,300.0703 L10,300.0703 L10,281.7188" fill="#EEEEEE" style="stroke:#000000;stroke-width:1.5;"/><rect fill="none" height="155.5938" style="stroke:#000000;stroke-width:1.5;" width="640.1475" x="10" y="281.7188"/><text fill="#000000" font-family="sans-serif" font-size="13" font-weight="700" lengthAdjust="spacing" textLength="15.1709" x="25" y="296.2139">alt</text><text fill="#000000" font-family="sans-serif" font-size="11" font-weight="700" lengthAdjust="spacing" textLength="77.5854" x="85.1709" y="295.1377">[Airport found]</text><g class="message" data-entity-1="part3" data-entity-2="part2" data-source-line="24" id="msg7"><polygon fill="#181818" points="323.5703,318.4219,313.5703,322.4219,323.5703,326.4219,319.5703,322.4219" style="stroke:#181818;stroke-width:1;stroke-linejoin:miter;stroke-miterlimit:10;"/><line style="stroke:#181818;stroke-width:1;stroke-dasharray:2,2;" x1="317.5703" x2="541.1719" y1="322.4219" y2="322.4219"/><text fill="#000000" font-family="sans-serif" font-size="13" font-weight="700" lengthAdjust="spacing" textLength="7.23" x="329.5703" y="317.5654">7</text><text fill="#000000" font-family="sans-serif" font-size="13" lengthAdjust="spacing" textLength="96.8271" x="340.8003" y="317.5654">AirportResponse</text></g><g class="message" data-entity-1="part2" data-entity-2="part1" data-source-line="25" id="msg8"><polygon fill="#181818" points="120.7515,348.7734,110.7515,352.7734,120.7515,356.7734,116.7515,352.7734" style="stroke:#181818;stroke-width:1;stroke-linejoin:miter;stroke-miterlimit:10;"/><line style="stroke:#181818;stroke-width:1;stroke-dasharray:2,2;" x1="114.7515" x2="301.5703" y1="352.7734" y2="352.7734"/><text fill="#000000" font-family="sans-serif" font-size="13" font-weight="700" lengthAdjust="spacing" textLength="7.23" x="126.7515" y="347.917">8</text><text fill="#000000" font-family="sans-serif" font-size="13" lengthAdjust="spacing" textLength="154.6035" x="137.9814" y="347.917">200 OK (JSON with _links)</text></g><line style="stroke:#000000;stroke-width:1;stroke-dasharray:2,2;" x1="10" x2="650.1475" y1="361.7734" y2="361.7734"/><text fill="#000000" font-family="sans-serif" font-size="11" font-weight="700" lengthAdjust="spacing" textLength="97.7432" x="15" y="373.1924">[Airport not found]</text><g class="message" data-entity-1="part3" data-entity-2="part2" data-source-line="27" id="msg9"><polygon fill="#181818" points="323.5703,394.9609,313.5703,398.9609,323.5703,402.9609,319.5703,398.9609" style="stroke:#181818;stroke-width:1;stroke-linejoin:miter;stroke-miterlimit:10;"/><line style="stroke:#181818;stroke-width:1;stroke-dasharray:2,2;" x1="317.5703" x2="541.1719" y1="398.9609" y2="398.9609"/><text fill="#000000" font-family="sans-serif" font-size="13" font-weight="700" lengthAdjust="spacing" textLength="7.23" x="329.5703" y="394.1045">9</text><text fill="#000000" font-family="sans-serif" font-size="13" lengthAdjust="spacing" textLength="194.3716" x="340.8003" y="394.1045">throws AirportNotFoundException</text></g><g class="message" data-entity-1="part2" data-entity-2="part1" data-source-line="28" id="msg10"><polygon fill="#181818" points="120.7515,425.3125,110.7515,429.3125,120.7515,433.3125,116.7515,429.3125" style="stroke:#181818;stroke-width:1;stroke-linejoin:miter;stroke-miterlimit:10;"/><line style="stroke:#181818;stroke-width:1;stroke-dasharray:2,2;" x1="114.7515" x2="301.5703" y1="429.3125" y2="429.3125"/><text fill="#000000" font-family="sans-serif" font-size="13" font-weight="700" lengthAdjust="spacing" textLength="14.46" x="126.7515" y="424.4561">10</text><text fill="#000000" font-family="sans-serif" font-size="13" lengthAdjust="spacing" textLength="86.0044" x="145.2114" y="424.4561">404 Not Found</text></g><?plantuml-src TP7BRi8m44Nt_eeHArWWKCKAjLHWGjz4uj4kAvDCX4LgHxOfeAh_th6JD5IY2qjnV8xdpbZidLRxZmqQ9XAd3RGc8jdfB9C9GboW4Vvd3yOhpbiWB8mznGfXd4na8PI3rbYQGXl7jN96vpcQ079dyh_SgyH3nKxH2PdRjKKkB0P-pI_Uki12MqarJu7oMvOA9pRaGMjQVOMpwOIn40-wer0UXd0NhQ0d2jaJvNMszoN9uJh5Rz-n_1GEowmiAAIkEObun6Jli5tJdOQcf8mO8dqQOZEfqidfeIBzkgI5wC4WSpeXRnazHtm5iqNy0bK-UBkF5X4afC8Dt3OsDKTEjobQ2mOJRLAMuZbQbgbxYGidjHBvTJNJqJaTOZ6HEwXE8TDxbJBmRhUPvEzxs48hYtHUpek8SkX3kEht8Nw2zkCodiD1kYsyvrBjR8TXJgzLtw_qVpNSrkY3hS6vTZEFHSS4GmUNQWxw0o0G0icGrdbpz5HdEo__0000?></g></svg>