<?plantuml 1.2026.1?><svg xmlns="http://www.w3.org/2000/svg" xmlns:xlink="http://www.w3.org/1999/xlink" contentStyleType="text/css" data-diagram-type="SEQUENCE" height="640px" preserveAspectRatio="none" style="width:1390px;height:640px;background:#FFFFFF;" version="1.1" viewBox="0 0 1390 640" width="1390px" zoomAndPan="magnify"><defs/><g><g><title>AirportController</title><rect fill="#FFFFFF" height="437.1953" style="stroke:#181818;stroke-width:1;" width="10" x="508.3154" y="112.4297"/></g><g><title>ViewAirportDetailsUseCase</title><rect fill="#FFFFFF" height="230.3281" style="stroke:#181818;stroke-width:1;" width="10" x="810.6191" y="141.5625"/></g><g><title>AirportRepository</title><rect fill="#FFFFFF" height="87.3984" style="stroke:#181818;stroke-width:1;" width="10" x="1053.4473" y="170.6953"/></g><g><title>Database</title><rect fill="#FFFFFF" height="29.1328" style="stroke:#181818;stroke-width:1;" width="10" x="1347.9897" y="199.8281"/></g><rect fill="none" height="269.5313" style="stroke:#000000;stroke-width:1.5;" width="917.8198" x="10" y="273.0938"/><g class="participant-lifeline" data-entity-uid="part1" data-qualified-name="Actor" id="part1-lifeline"><g><title>Backoffice Operator . ATCC</title><rect fill="#000000" fill-opacity="0.00000" height="478.3281" width="8" x="114.5117" y="81.2969"/><line style="stroke:#181818;stroke-width:0.5;stroke-dasharray:5,5;" x1="118" x2="118" y1="81.2969" y2="559.625"/></g></g><g class="participant-lifeline" data-entity-uid="part2" data-qualified-name="Ctrl" id="part2-lifeline"><g><title>AirportController</title><rect fill="#000000" fill-opacity="0.00000" height="478.3281" width="8" x="509.3154" y="81.2969"/><line style="stroke:#181818;stroke-width:0.5;stroke-dasharray:5,5;" x1="512.769" x2="512.769" y1="81.2969" y2="559.625"/></g></g><g class="participant-lifeline" data-entity-uid="part3" data-qualified-name="UC" id="part3-lifeline"><g><title>ViewAirportDetailsUseCase</title><rect fill="#000000" fill-opacity="0.00000" height="478.3281" width="8" x="811.6191" y="81.2969"/><line style="stroke:#181818;stroke-width:0.5;stroke-dasharray:5,5;" x1="815.4185" x2="815.4185" y1="81.2969" y2="559.625"/></g></g><g class="participant-lifeline" data-entity-uid="part4" data-qualified-name="Repo" id="part4-lifeline"><g><title>AirportRepository</title><rect fill="#000000" fill-opacity="0.00000" height="478.3281" width="8" x="1054.4473" y="81.2969"/><line style="stroke:#181818;stroke-width:0.5;stroke-dasharray:5,5;" x1="1057.9512" x2="1057.9512" y1="81.2969" y2="559.625"/></g></g><g class="participant-lifeline" data-entity-uid="part5" data-qualified-name="DB" id="part5-lifeline"><g><title>Database</title><rect fill="#000000" fill-opacity="0.00000" height="478.3281" width="8" x="1348.9897" y="81.2969"/><line style="stroke:#181818;stroke-width:0.5;stroke-dasharray:5,5;" x1="1352.5894" x2="1352.5894" y1="81.2969" y2="559.625"/></g></g><g class="participant participant-head" data-entity-uid="part1" data-qualified-name="Actor" id="part1-head"><text fill="#000000" font-family="sans-serif" font-size="14" lengthAdjust="spacing" textLength="191.0234" x="20" y="77.9951">Backoffice Operator / ATCC</text><ellipse cx="118.5117" cy="13.5" fill="#E2E2F0" rx="8" ry="8" style="stroke:#181818;stroke-width:0.5;"/><path d="M118.5117,21.5 L118.5117,48.5 M105.5117,29.5 L131.5117,29.5 M118.5117,48.5 L105.5117,63.5 M118.5117,48.5 L131.5117,63.5" fill="none" style="stroke:#181818;stroke-width:0.5;"/></g><g class="participant participant-tail" data-entity-uid="part1" data-qualified-name="Actor" id="part1-tail"><text fill="#000000" font-family="sans-serif" font-size="14" lengthAdjust="spacing" textLength="191.0234" x="20" y="571.6201">Backoffice Operator / ATCC</text><ellipse cx="118.5117" cy="583.4219" fill="#E2E2F0" rx="8" ry="8" style="stroke:#181818;stroke-width:0.5;"/><path d="M118.5117,591.4219 L118.5117,618.4219 M105.5117,599.4219 L131.5117,599.4219 M118.5117,618.4219 L105.5117,633.4219 M118.5117,618.4219 L131.5117,633.4219" fill="none" style="stroke:#181818;stroke-width:0.5;"/></g><g class="participant participant-head" data-entity-uid="part2" data-qualified-name="Ctrl" id="part2-head"><rect fill="#E2E2F0" height="30.2969" rx="2.5" ry="2.5" style="stroke:#181818;stroke-width:0.5;" width="131.0928" x="447.769" y="50"/><text fill="#000000" font-family="sans-serif" font-size="14" lengthAdjust="spacing" textLength="117.0928" x="454.769" y="69.9951">AirportController</text></g><g class="participant participant-tail" data-entity-uid="part2" data-qualified-name="Ctrl" id="part2-tail"><rect fill="#E2E2F0" height="30.2969" rx="2.5" ry="2.5" style="stroke:#181818;stroke-width:0.5;" width="131.0928" x="447.769" y="558.625"/><text fill="#000000" font-family="sans-serif" font-size="14" lengthAdjust="spacing" textLength="117.0928" x="454.769" y="578.6201">AirportController</text></g><g class="participant participant-head" data-entity-uid="part3" data-qualified-name="UC" id="part3-head"><rect fill="#E2E2F0" height="30.2969" rx="2.5" ry="2.5" style="stroke:#181818;stroke-width:0.5;" width="204.4014" x="713.4185" y="50"/><text fill="#000000" font-family="sans-serif" font-size="14" lengthAdjust="spacing" textLength="190.4014" x="720.4185" y="69.9951">ViewAirportDetailsUseCase</text></g><g class="participant participant-tail" data-entity-uid="part3" data-qualified-name="UC" id="part3-tail"><rect fill="#E2E2F0" height="30.2969" rx="2.5" ry="2.5" style="stroke:#181818;stroke-width:0.5;" width="204.4014" x="713.4185" y="558.625"/><text fill="#000000" font-family="sans-serif" font-size="14" lengthAdjust="spacing" textLength="190.4014" x="720.4185" y="578.6201">ViewAirportDetailsUseCase</text></g><g class="participant participant-head" data-entity-uid="part4" data-qualified-name="Repo" id="part4-head"><rect fill="#E2E2F0" height="30.2969" rx="2.5" ry="2.5" style="stroke:#181818;stroke-width:0.5;" width="136.9922" x="989.9512" y="50"/><text fill="#000000" font-family="sans-serif" font-size="14" lengthAdjust="spacing" textLength="122.9922" x="996.9512" y="69.9951">AirportRepository</text></g><g class="participant participant-tail" data-entity-uid="part4" data-qualified-name="Repo" id="part4-tail"><rect fill="#E2E2F0" height="30.2969" rx="2.5" ry="2.5" style="stroke:#181818;stroke-width:0.5;" width="136.9922" x="989.9512" y="558.625"/><text fill="#000000" font-family="sans-serif" font-size="14" lengthAdjust="spacing" textLength="122.9922" x="996.9512" y="578.6201">AirportRepository</text></g><g class="participant participant-head" data-entity-uid="part5" data-qualified-name="DB" id="part5-head"><text fill="#000000" font-family="sans-serif" font-size="14" lengthAdjust="spacing" textLength="66.8008" x="1316.5894" y="77.9951">Database</text><path d="M1334.9897,29 C1334.9897,19 1352.9897,19 1352.9897,19 C1352.9897,19 1370.9897,19 1370.9897,29 L1370.9897,55 C1370.9897,65 1352.9897,65 1352.9897,65 C1352.9897,65 1334.9897,65 1334.9897,55 L1334.9897,29" fill="#E2E2F0" style="stroke:#181818;stroke-width:0.5;"/><path d="M1334.9897,29 C1334.9897,39 1352.9897,39 1352.9897,39 C1352.9897,39 1370.9897,39 1370.9897,29" fill="none" style="stroke:#181818;stroke-width:0.5;"/></g><g class="participant participant-tail" data-entity-uid="part5" data-qualified-name="DB" id="part5-tail"><text fill="#000000" font-family="sans-serif" font-size="14" lengthAdjust="spacing" textLength="66.8008" x="1316.5894" y="571.6201">Database</text><path d="M1334.9897,584.9219 C1334.9897,574.9219 1352.9897,574.9219 1352.9897,574.9219 C1352.9897,574.9219 1370.9897,574.9219 1370.9897,584.9219 L1370.9897,610.9219 C1370.9897,620.9219 1352.9897,620.9219 1352.9897,620.9219 C1352.9897,620.9219 1334.9897,620.9219 1334.9897,610.9219 L1334.9897,584.9219" fill="#E2E2F0" style="stroke:#181818;stroke-width:0.5;"/><path d="M1334.9897,584.9219 C1334.9897,594.9219 1352.9897,594.9219 1352.9897,594.9219 C1352.9897,594.9219 1370.9897,594.9219 1370.9897,584.9219" fill="none" style="stroke:#181818;stroke-width:0.5;"/></g><g><title>AirportController</title><rect fill="#FFFFFF" height="437.1953" style="stroke:#181818;stroke-width:1;" width="10" x="508.3154" y="112.4297"/></g><g><title>ViewAirportDetailsUseCase</title><rect fill="#FFFFFF" height="230.3281" style="stroke:#181818;stroke-width:1;" width="10" x="810.6191" y="141.5625"/></g><g><title>AirportRepository</title><rect fill="#FFFFFF" height="87.3984" style="stroke:#181818;stroke-width:1;" width="10" x="1053.4473" y="170.6953"/></g><g><title>Database</title><rect fill="#FFFFFF" height="29.1328" style="stroke:#181818;stroke-width:1;" width="10" x="1347.9897" y="199.8281"/></g><g class="message" data-entity-1="part1" data-entity-2="part2" id="msg1"><polygon fill="#181818" points="496.3154,108.4297,506.3154,112.4297,496.3154,116.4297,500.3154,112.4297" style="stroke:#181818;stroke-width:1;"/><line style="stroke:#181818;stroke-width:1;" x1="118.5117" x2="502.3154" y1="112.4297" y2="112.4297"/><text fill="#000000" font-family="sans-serif" font-size="13" font-weight="bold" lengthAdjust="spacing" textLength="9.0454" x="125.5117" y="107.3638">1</text><text fill="#000000" font-family="sans-serif" font-size="13" lengthAdjust="spacing" textLength="188.1382" x="138.5571" y="107.3638">GET /api/airports/{iataCode}</text></g><g class="message" data-entity-1="part2" data-entity-2="part3" id="msg2"><polygon fill="#181818" points="798.6191,137.5625,808.6191,141.5625,798.6191,145.5625,802.6191,141.5625" style="stroke:#181818;stroke-width:1;"/><line style="stroke:#181818;stroke-width:1;" x1="518.3154" x2="804.6191" y1="141.5625" y2="141.5625"/><text fill="#000000" font-family="sans-serif" font-size="13" font-weight="bold" lengthAdjust="spacing" textLength="9.0454" x="525.3154" y="136.4966">2</text><text fill="#000000" font-family="sans-serif" font-size="13" lengthAdjust="spacing" textLength="167.5464" x="538.3608" y="136.4966">execute(iataCode: String)</text></g><g class="message" data-entity-1="part3" data-entity-2="part4" id="msg3"><polygon fill="#181818" points="1041.4473,166.6953,1051.4473,170.6953,1041.4473,174.6953,1045.4473,170.6953" style="stroke:#181818;stroke-width:1;"/><line style="stroke:#181818;stroke-width:1;" x1="820.6191" x2="1047.4473" y1="170.6953" y2="170.6953"/><text fill="#000000" font-family="sans-serif" font-size="13" font-weight="bold" lengthAdjust="spacing" textLength="9.0454" x="827.6191" y="165.6294">3</text><text fill="#000000" font-family="sans-serif" font-size="13" lengthAdjust="spacing" textLength="200.7827" x="840.6646" y="165.6294">findByIataCodeCode(iataCode)</text></g><g class="message" data-entity-1="part4" data-entity-2="part5" id="msg4"><polygon fill="#181818" points="1335.9897,195.8281,1345.9897,199.8281,1335.9897,203.8281,1339.9897,199.8281" style="stroke:#181818;stroke-width:1;"/><line style="stroke:#181818;stroke-width:1;" x1="1063.4473" x2="1341.9897" y1="199.8281" y2="199.8281"/><text fill="#000000" font-family="sans-serif" font-size="13" font-weight="bold" lengthAdjust="spacing" textLength="9.0454" x="1070.4473" y="194.7622">4</text><text fill="#000000" font-family="sans-serif" font-size="13" lengthAdjust="spacing" textLength="252.4971" x="1083.4927" y="194.7622">SELECT FROM airport WHERE code = ?</text></g><g class="message" data-entity-1="part5" data-entity-2="part4" id="msg5"><polygon fill="#181818" points="1074.4473,224.9609,1064.4473,228.9609,1074.4473,232.9609,1070.4473,228.9609" style="stroke:#181818;stroke-width:1;"/><line style="stroke:#181818;stroke-width:1;stroke-dasharray:2,2;" x1="1068.4473" x2="1351.9897" y1="228.9609" y2="228.9609"/><text fill="#000000" font-family="sans-serif" font-size="13" font-weight="bold" lengthAdjust="spacing" textLength="9.0454" x="1080.4473" y="223.895">5</text><text fill="#000000" font-family="sans-serif" font-size="13" lengthAdjust="spacing" textLength="89.7432" x="1093.4927" y="223.895">airport record</text></g><g class="message" data-entity-1="part4" data-entity-2="part3" id="msg6"><polygon fill="#181818" points="831.6191,254.0938,821.6191,258.0938,831.6191,262.0938,827.6191,258.0938" style="stroke:#181818;stroke-width:1;"/><line style="stroke:#181818;stroke-width:1;stroke-dasharray:2,2;" x1="825.6191" x2="1057.4473" y1="258.0938" y2="258.0938"/><text fill="#000000" font-family="sans-serif" font-size="13" font-weight="bold" lengthAdjust="spacing" textLength="9.0454" x="837.6191" y="253.0278">6</text><text fill="#000000" font-family="sans-serif" font-size="13" lengthAdjust="spacing" textLength="121.2466" x="850.6646" y="253.0278">Optional&lt;Airport&gt;</text></g><path d="M10,273.0938 L74.4429,273.0938 L74.4429,280.2266 L64.4429,290.2266 L10,290.2266 L10,273.0938" fill="#EEEEEE" style="stroke:#000000;stroke-width:1.5;"/><rect fill="none" height="269.5313" style="stroke:#000000;stroke-width:1.5;" width="917.8198" x="10" y="273.0938"/><text fill="#000000" font-family="sans-serif" font-size="13" font-weight="bold" lengthAdjust="spacing" textLength="19.4429" x="25" y="286.1606">alt</text><text fill="#000000" font-family="sans-serif" font-size="11" font-weight="bold" lengthAdjust="spacing" textLength="93.5859" x="89.4429" y="285.3042">[Airport found]</text><g class="message" data-entity-1="part3" data-entity-2="part2" id="msg7"><polygon fill="#181818" points="529.3154,367.8906,519.3154,371.8906,529.3154,375.8906,525.3154,371.8906" style="stroke:#181818;stroke-width:1;"/><line style="stroke:#181818;stroke-width:1;stroke-dasharray:2,2;" x1="523.3154" x2="814.6191" y1="371.8906" y2="371.8906"/><text fill="#000000" font-family="sans-serif" font-size="13" font-weight="bold" lengthAdjust="spacing" textLength="9.0454" x="535.3154" y="336.5591">7</text><text fill="#000000" font-family="sans-serif" font-size="13" lengthAdjust="spacing" textLength="195.9014" x="548.3608" y="306.2935">AirportResponse.from(airport)</text><text fill="#000000" font-family="sans-serif" font-size="13" lengthAdjust="spacing" textLength="229.5122" x="548.3608" y="321.4263">{ id, iataCode, name, city, country,</text><text fill="#000000" font-family="sans-serif" font-size="13" lengthAdjust="spacing" textLength="246.9937" x="556.6255" y="336.5591">region, timezone, status, coordinates,</text><text fill="#000000" font-family="sans-serif" font-size="13" lengthAdjust="spacing" textLength="184.3105" x="556.6255" y="351.6919">runways, contacts, services,</text><text fill="#000000" font-family="sans-serif" font-size="13" lengthAdjust="spacing" textLength="118.0601" x="556.6255" y="366.8247">terminals, gates }</text></g><g class="message" data-entity-1="part2" data-entity-2="part1" id="msg8"><polygon fill="#181818" points="129.5117,442.4219,119.5117,446.4219,129.5117,450.4219,125.5117,446.4219" style="stroke:#181818;stroke-width:1;"/><line style="stroke:#181818;stroke-width:1;stroke-dasharray:2,2;" x1="123.5117" x2="507.3154" y1="446.4219" y2="446.4219"/><text fill="#000000" font-family="sans-serif" font-size="13" font-weight="bold" lengthAdjust="spacing" textLength="9.0454" x="135.5117" y="418.6567">8</text><text fill="#000000" font-family="sans-serif" font-size="13" lengthAdjust="spacing" textLength="47.7026" x="148.5571" y="395.9575">200 OK</text><text fill="#000000" font-family="sans-serif" font-size="13" lengthAdjust="spacing" textLength="282.7754" x="148.5571" y="411.0903">EntityModel&lt;AirportResponse&gt; with _links:</text><text fill="#000000" font-family="sans-serif" font-size="13" lengthAdjust="spacing" textLength="227.8682" x="156.8218" y="426.2231">self, update-status, update-details,</text><text fill="#000000" font-family="sans-serif" font-size="13" lengthAdjust="spacing" textLength="133.8467" x="156.8218" y="441.356">routes, certifications</text></g><line style="stroke:#000000;stroke-width:1;stroke-dasharray:2,2;" x1="10" x2="927.8198" y1="455.4219" y2="455.4219"/><text fill="#000000" font-family="sans-serif" font-size="11" font-weight="bold" lengthAdjust="spacing" textLength="118.062" x="15" y="465.6323">[Airport not found]</text><g class="message" data-entity-1="part3" data-entity-2="part2" id="msg9"><polygon fill="#181818" points="529.3154,486.3594,519.3154,490.3594,529.3154,494.3594,525.3154,490.3594" style="stroke:#181818;stroke-width:1;"/><line style="stroke:#181818;stroke-width:1;stroke-dasharray:2,2;" x1="523.3154" x2="814.6191" y1="490.3594" y2="490.3594"/><text fill="#000000" font-family="sans-serif" font-size="13" font-weight="bold" lengthAdjust="spacing" textLength="9.0454" x="535.3154" y="485.2935">9</text><text fill="#000000" font-family="sans-serif" font-size="13" lengthAdjust="spacing" textLength="219.813" x="548.3608" y="485.2935">throws AirportNotFoundException</text></g><g class="message" data-entity-1="part2" data-entity-2="part1" id="msg10"><polygon fill="#181818" points="129.5117,530.625,119.5117,534.625,129.5117,538.625,125.5117,534.625" style="stroke:#181818;stroke-width:1;"/><line style="stroke:#181818;stroke-width:1;stroke-dasharray:2,2;" x1="123.5117" x2="507.3154" y1="534.625" y2="534.625"/><text fill="#000000" font-family="sans-serif" font-size="13" font-weight="bold" lengthAdjust="spacing" textLength="18.0908" x="135.5117" y="521.9927">10</text><text fill="#000000" font-family="sans-serif" font-size="13" lengthAdjust="spacing" textLength="96.0146" x="157.6025" y="514.4263">404 Not Found</text><text fill="#000000" font-family="sans-serif" font-size="13" lengthAdjust="spacing" textLength="343.7129" x="157.6025" y="529.5591">{ message: "Airport with IATA code '...' not found." }</text></g><?plantuml-src TPFDRjim48JlV8g5Bqa0_w78oMXTsBBI1crgmB7RYu62aLOE4OaKo5KSDyYxTqbAjWka1mcIECFzPhcI3HdTL0zeXSp8MEZDPVPaYa9b2CiQhVGVHp1R9qaFf8EPLubQMbAPggKcwCsKhOsbn6YofYpH1c52jlnNzrFXljKkaAGgtSPX8Xq6_IPvTzSLriOfhda8AlygSadoWNtGMxHFOMqn5oBWmM0QoiC4lgHh6CbQZMJSperU5NiIa-ERJwoU9M5a5S72rat2Hdp1h26yxDGJk2UhzExgv69YmLfsU2hs54hdyyDjw_3NqNvc2n62WvsBEVlkq-zfieQRrV8EMaxuzJLTfP2n5Jx1vvERGx9dS2hQ6IncnkOYntDfBDDbMjQaZ9RbnxQtqtDrm1Ao96XNeJ2DpWLux-3KqUEvkDfeXyF2ckgoXRZQwbTGUH-ws7tGik9xfkZ0TzwGxA6_rS2uEsRf0waA_nZD6aUI6kTLd4DfPd9HsUYzF8G5JOpBJmxjCmzeN2Uq5SjB_hxp9dXZvhDWV4mGuNsAE20J-30Um_BRLgUQcEsEMOzjwQ9DOQ_e4NwNIZ-vYI_bi2pwqDGyW3ZeUDlNF8vqH3QDfuSCUQ3vLvA-xqvWoJFRTLUR_tMO7gtPkqxumz2DbwKl6ORpUo_DzVWQM0X1wG-XGkVaZgUs-uzYbjlPUXQ7wc8u75wS88OzRXiopFb8-39_0G00?></g></svg>