<?plantuml 1.2026.1?><svg xmlns="http://www.w3.org/2000/svg" xmlns:xlink="http://www.w3.org/1999/xlink" contentStyleType="text/css" data-diagram-type="DESCRIPTION" height="485px" preserveAspectRatio="none" style="width:677px;height:485px;background:#FFFFFF;" version="1.1" viewBox="0 0 677 485" width="677px" zoomAndPan="magnify"><defs/><g><!--cluster Airport Management (WP #2A)--><g class="cluster" data-qualified-name="Airport Management .WP .2A." data-source-line="7" id="ent0004"><rect fill="none" height="472" rx="2.5" ry="2.5" style="stroke:#181818;stroke-width:1;" width="357.12" x="314.15" y="7"/><text fill="#000000" font-family="sans-serif" font-size="14" font-weight="bold" lengthAdjust="spacing" textLength="244.2549" x="370.5826" y="21.9951">Airport Management (WP #2A)</text></g><!--entity UC106--><g class="entity" data-qualified-name="Airport Management .WP .2A..UC106" data-source-line="8" id="ent0005"><ellipse cx="492.7093" cy="65.9979" fill="#F1F1F1" rx="106.9893" ry="23.7979" style="stroke:#181818;stroke-width:0.5;"/><text fill="#000000" font-family="sans-serif" font-size="14" lengthAdjust="spacing" textLength="191.3516" x="397.0335" y="70.6463">US106 - Register an airport</text></g><!--entity UC106a--><g class="entity" data-qualified-name="Airport Management .WP .2A..UC106a" data-source-line="9" id="ent0006"><ellipse cx="492.7126" cy="345.0025" fill="#F1F1F1" rx="162.5626" ry="34.9125" style="stroke:#181818;stroke-width:0.5;"/><text fill="#000000" font-family="sans-serif" font-size="14" lengthAdjust="spacing" textLength="308.5469" x="338.4392" y="349.651">US106a - Add aircraft certification to airport</text></g><!--entity UC107--><g class="entity" data-qualified-name="Airport Management .WP .2A..UC107" data-source-line="10" id="ent0007"><ellipse cx="492.7101" cy="250.998" fill="#F1F1F1" rx="109.0401" ry="24.208" style="stroke:#181818;stroke-width:0.5;"/><text fill="#000000" font-family="sans-serif" font-size="14" lengthAdjust="spacing" textLength="195.8018" x="394.8092" y="255.6465">US107 - View airport details</text></g><!--entity UC108--><g class="entity" data-qualified-name="Airport Management .WP .2A..UC108" data-source-line="11" id="ent0008"><ellipse cx="492.7141" cy="438.9968" fill="#F1F1F1" rx="106.6341" ry="23.7268" style="stroke:#181818;stroke-width:0.5;"/><text fill="#000000" font-family="sans-serif" font-size="14" lengthAdjust="spacing" textLength="190.5791" x="397.4245" y="443.6453">US108 - Search for airports</text></g><!--entity UC109--><g class="entity" data-qualified-name="Airport Management .WP .2A..UC109" data-source-line="12" id="ent0009"><ellipse cx="492.7145" cy="157.9989" fill="#F1F1F1" rx="155.2945" ry="33.4589" style="stroke:#181818;stroke-width:0.5;"/><text fill="#000000" font-family="sans-serif" font-size="14" lengthAdjust="spacing" textLength="293.4873" x="345.9709" y="162.6473">US109 - Update airport operational status</text></g><!--entity BO--><g class="entity" data-qualified-name="BO" data-source-line="4" id="ent0002"><ellipse cx="138.0733" cy="162.35" fill="#F1F1F1" rx="8" ry="8" style="stroke:#181818;stroke-width:0.5;"/><path d="M138.0733,170.35 L138.0733,197.35 M125.0733,178.35 L151.0733,178.35 M138.0733,197.35 L125.0733,212.35 M138.0733,197.35 L151.0733,212.35" fill="none" style="stroke:#181818;stroke-width:0.5;"/><text fill="#000000" font-family="sans-serif" font-size="14" lengthAdjust="spacing" textLength="139.7266" x="68.21" y="226.8451">Backoffice Operator</text></g><!--entity ATCC--><g class="entity" data-qualified-name="ATCC" data-source-line="5" id="ent0003"><ellipse cx="138.0737" cy="307.2" fill="#F1F1F1" rx="8" ry="8" style="stroke:#181818;stroke-width:0.5;"/><path d="M138.0737,315.2 L138.0737,342.2 M125.0737,323.2 L151.0737,323.2 M138.0737,342.2 L125.0737,357.2 M138.0737,342.2 L151.0737,357.2" fill="none" style="stroke:#181818;stroke-width:0.5;"/><text fill="#000000" font-family="sans-serif" font-size="14" lengthAdjust="spacing" textLength="37.6797" x="6" y="371.6951">ATCC</text><text fill="#000000" font-family="sans-serif" font-size="14" lengthAdjust="spacing" textLength="264.1475" x="6" y="387.992">(Air Transport Company Collaborator)</text></g><!--link BO to UC106--><g class="link" data-entity-1="ent0002" data-entity-2="ent0005" data-link-type="dependency" data-source-line="15" id="lnk10"><path d="M205.22,153.46 C235.24,137.26 271.68,119.35 306.15,107 C337.98,95.59 368.1916,87.9519 400.0316,81.4419" fill="none" id="BO-to-UC106" style="stroke:#181818;stroke-width:1;"/><polygon fill="#181818" points="405.91,80.24,396.2912,78.1239,401.0113,81.2416,397.8937,85.9618,405.91,80.24" style="stroke:#181818;stroke-width:1;"/></g><!--link BO to UC106a--><g class="link" data-entity-1="ent0002" data-entity-2="ent0006" data-link-type="dependency" data-source-line="16" id="lnk11"><path d="M194.25,230.56 C225.87,251.3 266.95,276.04 306.15,293 C329.79,303.23 350.2377,310.338 375.3277,317.618" fill="none" id="BO-to-UC106a" style="stroke:#181818;stroke-width:1;"/><polygon fill="#181818" points="381.09,319.29,373.5611,312.9405,376.2881,317.8967,371.3318,320.6236,381.09,319.29" style="stroke:#181818;stroke-width:1;"/></g><!--link BO to UC107--><g class="link" data-entity-1="ent0002" data-entity-2="ent0007" data-link-type="dependency" data-source-line="17" id="lnk12"><path d="M208.32,203.59 C264.49,212.98 338.0524,225.2893 398.5624,235.4193" fill="none" id="BO-to-UC107" style="stroke:#181818;stroke-width:1;"/><polygon fill="#181818" points="404.48,236.41,396.264,230.9789,399.5486,235.5844,394.9431,238.8691,404.48,236.41" style="stroke:#181818;stroke-width:1;"/></g><!--link BO to UC109--><g class="link" data-entity-1="ent0002" data-entity-2="ent0009" data-link-type="dependency" data-source-line="18" id="lnk13"><path d="M208.32,185.32 C248.84,181.42 295.5277,176.9163 344.4377,172.1963" fill="none" id="BO-to-UC109" style="stroke:#181818;stroke-width:1;"/><polygon fill="#181818" points="350.41,171.62,341.0674,168.503,345.4331,172.1003,341.8358,176.466,350.41,171.62" style="stroke:#181818;stroke-width:1;"/></g><!--link ATCC to UC106a--><g class="link" data-entity-1="ent0003" data-entity-2="ent0006" data-link-type="dependency" data-source-line="20" id="lnk14"><path d="M270.63,345 C289.91,345 303.96,345 323.76,345" fill="none" id="ATCC-to-UC106a" style="stroke:#181818;stroke-width:1;"/><polygon fill="#181818" points="329.76,345,320.76,341,324.76,345,320.76,349,329.76,345" style="stroke:#181818;stroke-width:1;"/></g><!--link ATCC to UC107--><g class="link" data-entity-1="ent0003" data-entity-2="ent0007" data-link-type="dependency" data-source-line="21" id="lnk15"><path d="M270.58,303 C282.57,299.5 294.56,296.11 306.15,293 C340.6,283.75 373.1495,276.1161 406.0495,268.8961" fill="none" id="ATCC-to-UC107" style="stroke:#181818;stroke-width:1;"/><polygon fill="#181818" points="411.91,267.61,402.2618,265.6321,407.0262,268.6818,403.9766,273.4462,411.91,267.61" style="stroke:#181818;stroke-width:1;"/></g><!--link ATCC to UC108--><g class="link" data-entity-1="ent0003" data-entity-2="ent0008" data-link-type="dependency" data-source-line="22" id="lnk16"><path d="M270.58,387 C282.57,390.5 294.56,393.89 306.15,397 C341.24,406.42 374.5789,414.2165 407.8689,421.5065" fill="none" id="ATCC-to-UC108" style="stroke:#181818;stroke-width:1;"/><polygon fill="#181818" points="413.73,422.79,405.794,416.9574,408.8457,421.7204,404.0827,424.7722,413.73,422.79" style="stroke:#181818;stroke-width:1;"/></g><?plantuml-src PP5FRy8m3CNl-HGMkx034jjXXSkaqlF4D62xxEAbRea8IUKOJMZQTv_RyQV0ANhn-zdEYwTAG2AmgzS2fMEouc8mQUD2WunRQD1kiAQ5x3r1MyPGUp86hKI6mKpBiQgS9PWtnAYN0y04i_dHaI-BuZCCSyUmP0ofYInGn6s3OQ-dz_WLE-w-0rkxCQT1oZlka1SCkiUMWi3munNk7dC5VWp0Bf75fCxLuc7y12Duezeb8GOCWFzqrtfLQFq6G2NoicoTbb7ZiCJYz4NO9j66SzC3hvjaskFTqVVH2YK9EfzEI7PDJ9HO4B9TGwKf7RWpCBa6fWgicXA5JaDY5xWkYHwIeEpE-DJy6ZERmsZqV7XsNs1VPNqnDQRzWBxrGcUNScB-0000?></g></svg>