<svg xmlns="http://www.w3.org/2000/svg" xmlns:xlink="http://www.w3.org/1999/xlink" contentStyleType="text/css" data-diagram-type="DESCRIPTION" height="486px" preserveAspectRatio="none" style="width:683px;height:486px;background:#FFFFFF;" version="1.1" viewBox="0 0 683 486" width="683px" zoomAndPan="magnify"><defs/><g><!--cluster Airport Management (WP #2A)--><g class="cluster" data-entity="Airport Management .WP .2A." data-source-line="7" data-uid="ent0004" id="cluster_Airport Management .WP .2A."><rect fill="none" height="473" rx="2.5" ry="2.5" style="stroke:#181818;stroke-width:1;" width="363.31" x="314.15" y="7"/><text fill="#000000" font-family="sans-serif" font-size="14" font-weight="bold" lengthAdjust="spacing" textLength="244.2549" x="373.6776" y="21.9951">Airport Management (WP #2A)</text></g><!--entity UC106--><g class="entity" data-entity="UC106" data-source-line="8" data-uid="ent0005" id="entity_UC106"><ellipse cx="495.7993" cy="65.9979" fill="#F1F1F1" rx="106.9893" ry="23.7979" style="stroke:#181818;stroke-width:0.5;"/><text fill="#000000" font-family="sans-serif" font-size="14" lengthAdjust="spacing" textLength="191.3516" x="400.1235" y="70.6463">US106 - Register an airport</text></g><!--entity UC106a--><g class="entity" data-entity="UC106a" data-source-line="9" data-uid="ent0006" id="entity_UC106a"><ellipse cx="495.8045" cy="346.0009" fill="#F1F1F1" rx="165.6545" ry="35.5309" style="stroke:#181818;stroke-width:0.5;"/><text fill="#000000" font-family="sans-serif" font-size="14" lengthAdjust="spacing" textLength="314.9385" x="338.3353" y="350.6493">US106a - Add airplane certification to airport</text></g><!--entity UC107--><g class="entity" data-entity="UC107" data-source-line="10" data-uid="ent0007" id="entity_UC107"><ellipse cx="495.8001" cy="250.998" fill="#F1F1F1" rx="109.0401" ry="24.208" style="stroke:#181818;stroke-width:0.5;"/><text fill="#000000" font-family="sans-serif" font-size="14" lengthAdjust="spacing" textLength="195.8018" x="397.8992" y="255.6465">US107 - View airport details</text></g><!--entity UC108--><g class="entity" data-entity="UC108" data-source-line="11" data-uid="ent0008" id="entity_UC108"><ellipse cx="495.8041" cy="439.9968" fill="#F1F1F1" rx="106.6341" ry="23.7268" style="stroke:#181818;stroke-width:0.5;"/><text fill="#000000" font-family="sans-serif" font-size="14" lengthAdjust="spacing" textLength="190.5791" x="400.5145" y="444.6453">US108 - Search for airports</text></g><!--entity UC109--><g class="entity" data-entity="UC109" data-source-line="12" data-uid="ent0009" id="entity_UC109"><ellipse cx="495.8045" cy="157.9989" fill="#F1F1F1" rx="155.2945" ry="33.4589" style="stroke:#181818;stroke-width:0.5;"/><text fill="#000000" font-family="sans-serif" font-size="14" lengthAdjust="spacing" textLength="293.4873" x="349.0609" y="162.6473">US109 - Update airport operational status</text></g><!--entity BO--><g class="entity" data-entity="BO" data-source-line="4" data-uid="ent0002" id="entity_BO"><ellipse cx="138.0733" cy="163.35" fill="#F1F1F1" rx="8" ry="8" style="stroke:#181818;stroke-width:0.5;"/><path d="M138.0733,171.35 L138.0733,198.35 M125.0733,179.35 L151.0733,179.35 M138.0733,198.35 L125.0733,213.35 M138.0733,198.35 L151.0733,213.35" fill="none" style="stroke:#181818;stroke-width:0.5;"/><text fill="#000000" font-family="sans-serif" font-size="14" lengthAdjust="spacing" textLength="139.7266" x="68.21" y="227.8451">Backoffice Operator</text></g><!--entity ATCC--><g class="entity" data-entity="ATCC" data-source-line="5" data-uid="ent0003" id="entity_ATCC"><ellipse cx="138.0737" cy="308.2" fill="#F1F1F1" rx="8" ry="8" style="stroke:#181818;stroke-width:0.5;"/><path d="M138.0737,316.2 L138.0737,343.2 M125.0737,324.2 L151.0737,324.2 M138.0737,343.2 L125.0737,358.2 M138.0737,343.2 L151.0737,358.2" fill="none" style="stroke:#181818;stroke-width:0.5;"/><text fill="#000000" font-family="sans-serif" font-size="14" lengthAdjust="spacing" textLength="37.6797" x="6" y="372.6951">ATCC</text><text fill="#000000" font-family="sans-serif" font-size="14" lengthAdjust="spacing" textLength="264.1475" x="6" y="388.992">(Air Transport Company Collaborator)</text></g><!--link BO to UC106--><g class="link" data-entity-1="BO" data-entity-2="UC106" data-source-line="15" data-uid="lnk10" id="link_BO_UC106"><path d="M204.35,154.35 C234.51,137.83 271.3,119.51 306.15,107 C338.64,95.33 369.6463,87.5957 402.1263,81.1057" fill="none" id="BO-to-UC106" style="stroke:#181818;stroke-width:1;"/><polygon fill="#181818" points="408.01,79.93,398.4007,77.771,403.1069,80.9097,399.9682,85.6159,408.01,79.93" style="stroke:#181818;stroke-width:1;"/></g><!--link BO to UC106a--><g class="link" data-entity-1="BO" data-entity-2="UC106a" data-source-line="16" data-uid="lnk11" id="link_BO_UC106a"><path d="M195.06,231.63 C226.59,252.05 267.34,276.29 306.15,293 C330.21,303.36 351.0988,310.6042 376.6088,318.0242" fill="none" id="BO-to-UC106a" style="stroke:#181818;stroke-width:1;"/><polygon fill="#181818" points="382.37,319.7,374.8453,313.3455,377.569,318.3035,372.611,321.0272,382.37,319.7" style="stroke:#181818;stroke-width:1;"/></g><!--link BO to UC107--><g class="link" data-entity-1="BO" data-entity-2="UC107" data-source-line="17" data-uid="lnk12" id="link_BO_UC107"><path d="M208.08,204.25 C264.76,213.49 339.4682,225.6744 400.7982,235.6744" fill="none" id="BO-to-UC107" style="stroke:#181818;stroke-width:1;"/><polygon fill="#181818" points="406.72,236.64,398.481,231.2438,401.7852,235.8354,397.1936,239.1395,406.72,236.64" style="stroke:#181818;stroke-width:1;"/></g><!--link BO to UC109--><g class="link" data-entity-1="BO" data-entity-2="UC109" data-source-line="18" data-uid="lnk13" id="link_BO_UC109"><path d="M208.08,186.21 C249.5,182.13 297.7488,177.3873 347.8688,172.4573" fill="none" id="BO-to-UC109" style="stroke:#181818;stroke-width:1;"/><polygon fill="#181818" points="353.84,171.87,344.4917,168.7702,348.864,172.3595,345.2748,176.7318,353.84,171.87" style="stroke:#181818;stroke-width:1;"/></g><!--link ATCC to UC106a--><g class="link" data-entity-1="ATCC" data-entity-2="UC106a" data-source-line="20" data-uid="lnk14" id="link_ATCC_UC106a"><path d="M270.52,346 C289.82,346 303.9,346 323.77,346" fill="none" id="ATCC-to-UC106a" style="stroke:#181818;stroke-width:1;"/><polygon fill="#181818" points="329.77,346,320.77,342,324.77,346,320.77,350,329.77,346" style="stroke:#181818;stroke-width:1;"/></g><!--link ATCC to UC107--><g class="link" data-entity-1="ATCC" data-entity-2="UC107" data-source-line="21" data-uid="lnk15" id="link_ATCC_UC107"><path d="M270.54,303.1 C282.54,299.55 294.54,296.13 306.15,293 C341.3,283.53 374.6739,275.8003 408.2339,268.5903" fill="none" id="ATCC-to-UC107" style="stroke:#181818;stroke-width:1;"/><polygon fill="#181818" points="414.1,267.33,404.4606,265.3097,409.2115,268.3802,406.141,273.1312,414.1,267.33" style="stroke:#181818;stroke-width:1;"/></g><!--link ATCC to UC108--><g class="link" data-entity-1="ATCC" data-entity-2="UC108" data-source-line="22" data-uid="lnk16" id="link_ATCC_UC108"><path d="M270.52,388.96 C282.53,392.5 294.53,395.9 306.15,399 C341.45,408.41 375.0172,416.0113 408.6672,423.0513" fill="none" id="ATCC-to-UC108" style="stroke:#181818;stroke-width:1;"/><polygon fill="#181818" points="414.54,424.28,406.5498,418.5218,409.646,423.2561,404.9116,426.3522,414.54,424.28" style="stroke:#181818;stroke-width:1;"/></g><!--SRC=[PP4nRy8m48Lt_ueJNUY0H3iqOQaKCbTKXRHBbwjp2HR6Zkn35Qhwttj98OGmMS_tlhlpiwMAWJq4KsyPIXD8i_5EnPrn3GRSGuDwXpMj-MW9sZAwsf9IgDa7c2obxAlAQ89LGm7bSW8OORawEx9Ddd-wQMO2R0AwsFZ0aFjzW-uefxNuvJlklWDRkrBz8E5Dw90NTBB7dXp3zECLxXup0NuKm26InYZEOlqmVu8Pl55j8bC0T83_TDUwoAL-0w0GMLbsJekEG5DW8o_2Deasd9iUE6wII8ztGzzdAvJ4Q6piaMHCf4Ai2OFUGYKfdRWBa8w1XG15Ko9JFyHtWSkIQ24oyk62BzIlKiiLp6RFfsSF1GvLCXGBfTeF65glT78jK_K7]--></g></svg>