<?plantuml 1.2026.1?><svg xmlns="http://www.w3.org/2000/svg" xmlns:xlink="http://www.w3.org/1999/xlink" contentStyleType="text/css" data-diagram-type="SEQUENCE" height="430px" preserveAspectRatio="none" style="width:1902px;height:430px;background:#FFFFFF;" version="1.1" viewBox="0 0 1902 430" width="1902px" zoomAndPan="magnify"><defs/><g><g><title>AirportController</title><rect fill="#FFFFFF" height="219.0625" style="stroke:#181818;stroke-width:1;" width="10" x="668.1377" y="112.4297"/></g><g><title>SearchAirportUseCase</title><rect fill="#FFFFFF" height="160.7969" style="stroke:#181818;stroke-width:1;" width="10" x="967.7202" y="141.5625"/></g><g><title>AirportRepository</title><rect fill="#FFFFFF" height="102.5313" style="stroke:#181818;stroke-width:1;" width="10" x="1309.8701" y="170.6953"/></g><g><title>Database</title><rect fill="#FFFFFF" height="29.1328" style="stroke:#181818;stroke-width:1;" width="10" x="1859.8613" y="214.9609"/></g><g class="participant-lifeline" data-entity-uid="part1" data-qualified-name="ATCC" id="part1-lifeline"><g><title>ATCC</title><rect fill="#000000" fill-opacity="0.00000" height="268.1953" width="8" x="22.8398" y="81.2969"/><line style="stroke:#181818;stroke-width:0.5;stroke-dasharray:5,5;" x1="26" x2="26" y1="81.2969" y2="349.4922"/></g></g><g class="participant-lifeline" data-entity-uid="part2" data-qualified-name="Ctrl" id="part2-lifeline"><g><title>AirportController</title><rect fill="#000000" fill-opacity="0.00000" height="268.1953" width="8" x="669.1377" y="81.2969"/><line style="stroke:#181818;stroke-width:0.5;stroke-dasharray:5,5;" x1="672.5913" x2="672.5913" y1="81.2969" y2="349.4922"/></g></g><g class="participant-lifeline" data-entity-uid="part3" data-qualified-name="UC" id="part3-lifeline"><g><title>SearchAirportUseCase</title><rect fill="#000000" fill-opacity="0.00000" height="268.1953" width="8" x="968.7202" y="81.2969"/><line style="stroke:#181818;stroke-width:0.5;stroke-dasharray:5,5;" x1="972.3496" x2="972.3496" y1="81.2969" y2="349.4922"/></g></g><g class="participant-lifeline" data-entity-uid="part4" data-qualified-name="Repo" id="part4-lifeline"><g><title>AirportRepository</title><rect fill="#000000" fill-opacity="0.00000" height="268.1953" width="8" x="1310.8701" y="81.2969"/><line style="stroke:#181818;stroke-width:0.5;stroke-dasharray:5,5;" x1="1314.374" x2="1314.374" y1="81.2969" y2="349.4922"/></g></g><g class="participant-lifeline" data-entity-uid="part5" data-qualified-name="DB" id="part5-lifeline"><g><title>Database</title><rect fill="#000000" fill-opacity="0.00000" height="268.1953" width="8" x="1860.8613" y="81.2969"/><line style="stroke:#181818;stroke-width:0.5;stroke-dasharray:5,5;" x1="1864.4609" x2="1864.4609" y1="81.2969" y2="349.4922"/></g></g><g class="participant participant-head" data-entity-uid="part1" data-qualified-name="ATCC" id="part1-head"><text fill="#000000" font-family="sans-serif" font-size="14" lengthAdjust="spacing" textLength="37.6797" x="5" y="77.9951">ATCC</text><ellipse cx="26.8398" cy="13.5" fill="#E2E2F0" rx="8" ry="8" style="stroke:#181818;stroke-width:0.5;"/><path d="M26.8398,21.5 L26.8398,48.5 M13.8398,29.5 L39.8398,29.5 M26.8398,48.5 L13.8398,63.5 M26.8398,48.5 L39.8398,63.5" fill="none" style="stroke:#181818;stroke-width:0.5;"/></g><g class="participant participant-tail" data-entity-uid="part1" data-qualified-name="ATCC" id="part1-tail"><text fill="#000000" font-family="sans-serif" font-size="14" lengthAdjust="spacing" textLength="37.6797" x="5" y="361.4873">ATCC</text><ellipse cx="26.8398" cy="373.2891" fill="#E2E2F0" rx="8" ry="8" style="stroke:#181818;stroke-width:0.5;"/><path d="M26.8398,381.2891 L26.8398,408.2891 M13.8398,389.2891 L39.8398,389.2891 M26.8398,408.2891 L13.8398,423.2891 M26.8398,408.2891 L39.8398,423.2891" fill="none" style="stroke:#181818;stroke-width:0.5;"/></g><g class="participant participant-head" data-entity-uid="part2" data-qualified-name="Ctrl" id="part2-head"><rect fill="#E2E2F0" height="30.2969" rx="2.5" ry="2.5" style="stroke:#181818;stroke-width:0.5;" width="131.0928" x="607.5913" y="50"/><text fill="#000000" font-family="sans-serif" font-size="14" lengthAdjust="spacing" textLength="117.0928" x="614.5913" y="69.9951">AirportController</text></g><g class="participant participant-tail" data-entity-uid="part2" data-qualified-name="Ctrl" id="part2-tail"><rect fill="#E2E2F0" height="30.2969" rx="2.5" ry="2.5" style="stroke:#181818;stroke-width:0.5;" width="131.0928" x="607.5913" y="348.4922"/><text fill="#000000" font-family="sans-serif" font-size="14" lengthAdjust="spacing" textLength="117.0928" x="614.5913" y="368.4873">AirportController</text></g><g class="participant participant-head" data-entity-uid="part3" data-qualified-name="UC" id="part3-head"><rect fill="#E2E2F0" height="30.2969" rx="2.5" ry="2.5" style="stroke:#181818;stroke-width:0.5;" width="170.7412" x="887.3496" y="50"/><text fill="#000000" font-family="sans-serif" font-size="14" lengthAdjust="spacing" textLength="156.7412" x="894.3496" y="69.9951">SearchAirportUseCase</text></g><g class="participant participant-tail" data-entity-uid="part3" data-qualified-name="UC" id="part3-tail"><rect fill="#E2E2F0" height="30.2969" rx="2.5" ry="2.5" style="stroke:#181818;stroke-width:0.5;" width="170.7412" x="887.3496" y="348.4922"/><text fill="#000000" font-family="sans-serif" font-size="14" lengthAdjust="spacing" textLength="156.7412" x="894.3496" y="368.4873">SearchAirportUseCase</text></g><g class="participant participant-head" data-entity-uid="part4" data-qualified-name="Repo" id="part4-head"><rect fill="#E2E2F0" height="30.2969" rx="2.5" ry="2.5" style="stroke:#181818;stroke-width:0.5;" width="136.9922" x="1246.374" y="50"/><text fill="#000000" font-family="sans-serif" font-size="14" lengthAdjust="spacing" textLength="122.9922" x="1253.374" y="69.9951">AirportRepository</text></g><g class="participant participant-tail" data-entity-uid="part4" data-qualified-name="Repo" id="part4-tail"><rect fill="#E2E2F0" height="30.2969" rx="2.5" ry="2.5" style="stroke:#181818;stroke-width:0.5;" width="136.9922" x="1246.374" y="348.4922"/><text fill="#000000" font-family="sans-serif" font-size="14" lengthAdjust="spacing" textLength="122.9922" x="1253.374" y="368.4873">AirportRepository</text></g><g class="participant participant-head" data-entity-uid="part5" data-qualified-name="DB" id="part5-head"><text fill="#000000" font-family="sans-serif" font-size="14" lengthAdjust="spacing" textLength="66.8008" x="1828.4609" y="77.9951">Database</text><path d="M1846.8613,29 C1846.8613,19 1864.8613,19 1864.8613,19 C1864.8613,19 1882.8613,19 1882.8613,29 L1882.8613,55 C1882.8613,65 1864.8613,65 1864.8613,65 C1864.8613,65 1846.8613,65 1846.8613,55 L1846.8613,29" fill="#E2E2F0" style="stroke:#181818;stroke-width:0.5;"/><path d="M1846.8613,29 C1846.8613,39 1864.8613,39 1864.8613,39 C1864.8613,39 1882.8613,39 1882.8613,29" fill="none" style="stroke:#181818;stroke-width:0.5;"/></g><g class="participant participant-tail" data-entity-uid="part5" data-qualified-name="DB" id="part5-tail"><text fill="#000000" font-family="sans-serif" font-size="14" lengthAdjust="spacing" textLength="66.8008" x="1828.4609" y="361.4873">Database</text><path d="M1846.8613,374.7891 C1846.8613,364.7891 1864.8613,364.7891 1864.8613,364.7891 C1864.8613,364.7891 1882.8613,364.7891 1882.8613,374.7891 L1882.8613,400.7891 C1882.8613,410.7891 1864.8613,410.7891 1864.8613,410.7891 C1864.8613,410.7891 1846.8613,410.7891 1846.8613,400.7891 L1846.8613,374.7891" fill="#E2E2F0" style="stroke:#181818;stroke-width:0.5;"/><path d="M1846.8613,374.7891 C1846.8613,384.7891 1864.8613,384.7891 1864.8613,384.7891 C1864.8613,384.7891 1882.8613,384.7891 1882.8613,374.7891" fill="none" style="stroke:#181818;stroke-width:0.5;"/></g><g><title>AirportController</title><rect fill="#FFFFFF" height="219.0625" style="stroke:#181818;stroke-width:1;" width="10" x="668.1377" y="112.4297"/></g><g><title>SearchAirportUseCase</title><rect fill="#FFFFFF" height="160.7969" style="stroke:#181818;stroke-width:1;" width="10" x="967.7202" y="141.5625"/></g><g><title>AirportRepository</title><rect fill="#FFFFFF" height="102.5313" style="stroke:#181818;stroke-width:1;" width="10" x="1309.8701" y="170.6953"/></g><g><title>Database</title><rect fill="#FFFFFF" height="29.1328" style="stroke:#181818;stroke-width:1;" width="10" x="1859.8613" y="214.9609"/></g><g class="message" data-entity-1="part1" data-entity-2="part2" id="msg1"><polygon fill="#181818" points="656.1377,108.4297,666.1377,112.4297,656.1377,116.4297,660.1377,112.4297" style="stroke:#181818;stroke-width:1;"/><line style="stroke:#181818;stroke-width:1;" x1="26.8398" x2="662.1377" y1="112.4297" y2="112.4297"/><text fill="#000000" font-family="sans-serif" font-size="13" font-weight="bold" lengthAdjust="spacing" textLength="9.0454" x="33.8398" y="107.3638">1</text><text fill="#000000" font-family="sans-serif" font-size="13" lengthAdjust="spacing" textLength="477.4263" x="46.8853" y="107.3638">GET /api/airports/search?name=X&amp;city=Y&amp;country=Z&amp;page=0&amp;size=20</text></g><g class="message" data-entity-1="part2" data-entity-2="part3" id="msg2"><polygon fill="#181818" points="955.7202,137.5625,965.7202,141.5625,955.7202,145.5625,959.7202,141.5625" style="stroke:#181818;stroke-width:1;"/><line style="stroke:#181818;stroke-width:1;" x1="678.1377" x2="961.7202" y1="141.5625" y2="141.5625"/><text fill="#000000" font-family="sans-serif" font-size="13" font-weight="bold" lengthAdjust="spacing" textLength="9.0454" x="685.1377" y="136.4966">2</text><text fill="#000000" font-family="sans-serif" font-size="13" lengthAdjust="spacing" textLength="257.5371" x="698.1831" y="136.4966">execute(name, city, country, pageable)</text></g><g class="message" data-entity-1="part3" data-entity-2="part4" id="msg3"><polygon fill="#181818" points="1297.8701,166.6953,1307.8701,170.6953,1297.8701,174.6953,1301.8701,170.6953" style="stroke:#181818;stroke-width:1;"/><line style="stroke:#181818;stroke-width:1;" x1="977.7202" x2="1303.8701" y1="170.6953" y2="170.6953"/><text fill="#000000" font-family="sans-serif" font-size="13" font-weight="bold" lengthAdjust="spacing" textLength="9.0454" x="984.7202" y="165.6294">3</text><text fill="#000000" font-family="sans-serif" font-size="13" lengthAdjust="spacing" textLength="300.1045" x="997.7656" y="165.6294">searchAirports(name, city, country, pageable)</text></g><g class="message" data-entity-1="part4" data-entity-2="part5" id="msg4"><polygon fill="#181818" points="1847.8613,210.9609,1857.8613,214.9609,1847.8613,218.9609,1851.8613,214.9609" style="stroke:#181818;stroke-width:1;"/><line style="stroke:#181818;stroke-width:1;" x1="1319.8701" x2="1853.8613" y1="214.9609" y2="214.9609"/><text fill="#000000" font-family="sans-serif" font-size="13" font-weight="bold" lengthAdjust="spacing" textLength="9.0454" x="1326.8701" y="202.3286">4</text><text fill="#000000" font-family="sans-serif" font-size="13" lengthAdjust="spacing" textLength="507.9458" x="1339.9155" y="194.7622">SELECT FROM airport WHERE name LIKE ? AND city LIKE ? AND country LIKE ?</text><text fill="#000000" font-family="sans-serif" font-size="13" lengthAdjust="spacing" textLength="235.0029" x="1339.9155" y="209.895">(Dynamic Query with LIMIT/OFFSET)</text></g><g class="message" data-entity-1="part5" data-entity-2="part4" id="msg5"><polygon fill="#181818" points="1330.8701,240.0938,1320.8701,244.0938,1330.8701,248.0938,1326.8701,244.0938" style="stroke:#181818;stroke-width:1;"/><line style="stroke:#181818;stroke-width:1;stroke-dasharray:2,2;" x1="1324.8701" x2="1863.8613" y1="244.0938" y2="244.0938"/><text fill="#000000" font-family="sans-serif" font-size="13" font-weight="bold" lengthAdjust="spacing" textLength="9.0454" x="1336.8701" y="239.0278">5</text><text fill="#000000" font-family="sans-serif" font-size="13" lengthAdjust="spacing" textLength="102.0767" x="1349.9155" y="239.0278">page of records</text></g><g class="message" data-entity-1="part4" data-entity-2="part3" id="msg6"><polygon fill="#181818" points="988.7202,269.2266,978.7202,273.2266,988.7202,277.2266,984.7202,273.2266" style="stroke:#181818;stroke-width:1;"/><line style="stroke:#181818;stroke-width:1;stroke-dasharray:2,2;" x1="982.7202" x2="1313.8701" y1="273.2266" y2="273.2266"/><text fill="#000000" font-family="sans-serif" font-size="13" font-weight="bold" lengthAdjust="spacing" textLength="9.0454" x="994.7202" y="268.1606">6</text><text fill="#000000" font-family="sans-serif" font-size="13" lengthAdjust="spacing" textLength="98.3379" x="1007.7656" y="268.1606">Page&lt;Airport&gt;</text></g><g class="message" data-entity-1="part3" data-entity-2="part2" id="msg7"><polygon fill="#181818" points="689.1377,298.3594,679.1377,302.3594,689.1377,306.3594,685.1377,302.3594" style="stroke:#181818;stroke-width:1;"/><line style="stroke:#181818;stroke-width:1;stroke-dasharray:2,2;" x1="683.1377" x2="971.7202" y1="302.3594" y2="302.3594"/><text fill="#000000" font-family="sans-serif" font-size="13" font-weight="bold" lengthAdjust="spacing" textLength="9.0454" x="695.1377" y="297.2935">7</text><text fill="#000000" font-family="sans-serif" font-size="13" lengthAdjust="spacing" textLength="161.3574" x="708.1831" y="297.2935">Page&lt;AirportResponse&gt;</text></g><g class="message" data-entity-1="part2" data-entity-2="part1" id="msg8"><polygon fill="#181818" points="37.8398,327.4922,27.8398,331.4922,37.8398,335.4922,33.8398,331.4922" style="stroke:#181818;stroke-width:1;"/><line style="stroke:#181818;stroke-width:1;stroke-dasharray:2,2;" x1="31.8398" x2="672.1377" y1="331.4922" y2="331.4922"/><text fill="#000000" font-family="sans-serif" font-size="13" font-weight="bold" lengthAdjust="spacing" textLength="9.0454" x="43.8398" y="326.4263">8</text><text fill="#000000" font-family="sans-serif" font-size="13" lengthAdjust="spacing" textLength="604.2524" x="56.8853" y="326.4263">200 OK (HAL+JSON with _embedded, _links, page{number, size, totalElements, totalPages})</text></g><?plantuml-src ZP9VJy8m5CNVzobkU20OPo0-4WV1RIYAeZ3YdvYOibsrSQnBswbe_ExUjZECn0TVbhKzztVkkIshj2YgzGgbnr8j9BH6IHYsW2amFrx9fEOfBrcXwOZBKaWTYa9BaUSehIxKCj_LBP39zALMBnM6JA6LBly6ph4KYfFxnghCqikOPYkgWrPK_zcpwDZpJ6DmCB36q8UJE84kAtcNEPhgAki_BDWQWzjsolKck6kdegAsDy5zksJF6FJQYdzYSDWpkVaRq-Y2U9PAz6L8RFp0jDBOCIWV38c-3kI3uR1LZdjR10NqbhOv4u80gZaAzM-E7O5542ew9j0YdiPX0kFvx0Bge71p6izZC4oOJivZ6CBeChBqdRNpgRSUYawqeHAUmdM5jFtEzGkTNKoIxcmyNiH9emsQDfaVREEOLa4yWSHKo4nv6JQrhk7VsLsHzgXEFcWgRJWxfkqbDiLpLAKe5EuKcScwgw4Y-mBwSDZhmUmSEgUZwVxPOdRfiZmYFUSimyo7nvmNhyfD-CizSn_ClVkWXMPvdECQ2wtgfMb2VUyrROtb3m00?></g></svg>