<svg xmlns="http://www.w3.org/2000/svg" xmlns:xlink="http://www.w3.org/1999/xlink" contentStyleType="text/css" data-diagram-type="SEQUENCE" height="445px" preserveAspectRatio="none" style="width:1640px;height:445px;background:#FFFFFF;" version="1.1" viewBox="0 0 1640 445" width="1640px" zoomAndPan="magnify"><?plantuml 1.2026.4?><defs/><g><g><title>AirportController</title><rect fill="#FFFFFF" height="228.8125" style="stroke:#181818;stroke-width:1;" width="10" x="503.7773" y="114.9609"/></g><g><title>SearchAirportUseCase</title><rect fill="#FFFFFF" height="168.1094" style="stroke:#181818;stroke-width:1;" width="10" x="768.0161" y="145.3125"/></g><g><title>AirportRepository</title><rect fill="#FFFFFF" height="107.4063" style="stroke:#181818;stroke-width:1;" width="10" x="1070.5313" y="175.6641"/></g><g><title>Database</title><rect fill="#FFFFFF" height="30.3516" style="stroke:#181818;stroke-width:1;" width="10" x="1591.1899" y="222.3672"/></g><g class="participant-lifeline" data-entity-uid="part1" data-qualified-name="ATCC" data-source-line="2" id="part1-lifeline"><g><title>ATCC</title><rect fill="#000000" fill-opacity="0.00000" height="279.1641" width="8" x="23.0552" y="82.6094"/><line style="stroke:#181818;stroke-width:0.5;stroke-dasharray:5,5;" x1="27" x2="27" y1="82.6094" y2="361.7734"/></g></g><g class="participant-lifeline" data-entity-uid="part2" data-qualified-name="Ctrl" data-source-line="3" id="part2-lifeline"><g><title>AirportController</title><rect fill="#000000" fill-opacity="0.00000" height="279.1641" width="8" x="504.7773" y="82.6094"/><line style="stroke:#181818;stroke-width:0.5;stroke-dasharray:5,5;" x1="507.8154" x2="507.8154" y1="82.6094" y2="361.7734"/></g></g><g class="participant-lifeline" data-entity-uid="part3" data-qualified-name="UC" data-source-line="4" id="part3-lifeline"><g><title>SearchAirportUseCase</title><rect fill="#000000" fill-opacity="0.00000" height="279.1641" width="8" x="769.0161" y="82.6094"/><line style="stroke:#181818;stroke-width:0.5;stroke-dasharray:5,5;" x1="772.4302" x2="772.4302" y1="82.6094" y2="361.7734"/></g></g><g class="participant-lifeline" data-entity-uid="part4" data-qualified-name="Repo" data-source-line="5" id="part4-lifeline"><g><title>AirportRepository</title><rect fill="#000000" fill-opacity="0.00000" height="279.1641" width="8" x="1071.5313" y="82.6094"/><line style="stroke:#181818;stroke-width:0.5;stroke-dasharray:5,5;" x1="1075.4556" x2="1075.4556" y1="82.6094" y2="361.7734"/></g></g><g class="participant-lifeline" data-entity-uid="part5" data-qualified-name="DB" data-source-line="6" id="part5-lifeline"><g><title>Database</title><rect fill="#000000" fill-opacity="0.00000" height="279.1641" width="8" x="1592.1899" y="82.6094"/><line style="stroke:#181818;stroke-width:0.5;stroke-dasharray:5,5;" x1="1595.2246" x2="1595.2246" y1="82.6094" y2="361.7734"/></g></g><g class="participant participant-head" data-entity-uid="part1" data-qualified-name="ATCC" data-source-line="2" id="part1-head"><text fill="#000000" font-family="sans-serif" font-size="14" lengthAdjust="spacing" textLength="38.1104" x="5" y="79.5332">ATCC</text><ellipse cx="27.0552" cy="13.5" fill="#E2E2F0" rx="8" ry="8" style="stroke:#181818;stroke-width:0.5;"/><path d="M27.0552,21.5 L27.0552,48.5 M14.0552,29.5 L40.0552,29.5 M27.0552,48.5 L14.0552,63.5 M27.0552,48.5 L40.0552,63.5" fill="none" style="stroke:#181818;stroke-width:0.5;"/></g><g class="participant participant-tail" data-entity-uid="part1" data-qualified-name="ATCC" data-source-line="2" id="part1-tail"><text fill="#000000" font-family="sans-serif" font-size="14" lengthAdjust="spacing" textLength="38.1104" x="5" y="375.3066">ATCC</text><ellipse cx="27.0552" cy="386.8828" fill="#E2E2F0" rx="8" ry="8" style="stroke:#181818;stroke-width:0.5;"/><path d="M27.0552,394.8828 L27.0552,421.8828 M14.0552,402.8828 L40.0552,402.8828 M27.0552,421.8828 L14.0552,436.8828 M27.0552,421.8828 L40.0552,436.8828" fill="none" style="stroke:#181818;stroke-width:0.5;"/></g><g class="participant participant-head" data-entity-uid="part2" data-qualified-name="Ctrl" data-source-line="3" id="part2-head"><rect fill="#E2E2F0" height="31.6094" rx="2.5" ry="2.5" style="stroke:#181818;stroke-width:0.5;" width="115.9238" x="450.8154" y="50"/><text fill="#000000" font-family="sans-serif" font-size="14" lengthAdjust="spacing" textLength="101.9238" x="457.8154" y="71.5332">AirportController</text></g><g class="participant participant-tail" data-entity-uid="part2" data-qualified-name="Ctrl" data-source-line="3" id="part2-tail"><rect fill="#E2E2F0" height="31.6094" rx="2.5" ry="2.5" style="stroke:#181818;stroke-width:0.5;" width="115.9238" x="450.8154" y="360.7734"/><text fill="#000000" font-family="sans-serif" font-size="14" lengthAdjust="spacing" textLength="101.9238" x="457.8154" y="382.3066">AirportController</text></g><g class="participant participant-head" data-entity-uid="part3" data-qualified-name="UC" data-source-line="4" id="part3-head"><rect fill="#E2E2F0" height="31.6094" rx="2.5" ry="2.5" style="stroke:#181818;stroke-width:0.5;" width="157.1719" x="694.4302" y="50"/><text fill="#000000" font-family="sans-serif" font-size="14" lengthAdjust="spacing" textLength="143.1719" x="701.4302" y="71.5332">SearchAirportUseCase</text></g><g class="participant participant-tail" data-entity-uid="part3" data-qualified-name="UC" data-source-line="4" id="part3-tail"><rect fill="#E2E2F0" height="31.6094" rx="2.5" ry="2.5" style="stroke:#181818;stroke-width:0.5;" width="157.1719" x="694.4302" y="360.7734"/><text fill="#000000" font-family="sans-serif" font-size="14" lengthAdjust="spacing" textLength="143.1719" x="701.4302" y="382.3066">SearchAirportUseCase</text></g><g class="participant participant-head" data-entity-uid="part4" data-qualified-name="Repo" data-source-line="5" id="part4-head"><rect fill="#E2E2F0" height="31.6094" rx="2.5" ry="2.5" style="stroke:#181818;stroke-width:0.5;" width="122.1514" x="1014.4556" y="50"/><text fill="#000000" font-family="sans-serif" font-size="14" lengthAdjust="spacing" textLength="108.1514" x="1021.4556" y="71.5332">AirportRepository</text></g><g class="participant participant-tail" data-entity-uid="part4" data-qualified-name="Repo" data-source-line="5" id="part4-tail"><rect fill="#E2E2F0" height="31.6094" rx="2.5" ry="2.5" style="stroke:#181818;stroke-width:0.5;" width="122.1514" x="1014.4556" y="360.7734"/><text fill="#000000" font-family="sans-serif" font-size="14" lengthAdjust="spacing" textLength="108.1514" x="1021.4556" y="382.3066">AirportRepository</text></g><g class="participant participant-head" data-entity-uid="part5" data-qualified-name="DB" data-source-line="6" id="part5-head"><text fill="#000000" font-family="sans-serif" font-size="14" lengthAdjust="spacing" textLength="59.9307" x="1563.2246" y="79.5332">Database</text><path d="M1578.1899,29 C1578.1899,19 1596.1899,19 1596.1899,19 C1596.1899,19 1614.1899,19 1614.1899,29 L1614.1899,55 C1614.1899,65 1596.1899,65 1596.1899,65 C1596.1899,65 1578.1899,65 1578.1899,55 L1578.1899,29" fill="#E2E2F0" style="stroke:#181818;stroke-width:0.5;"/><path d="M1578.1899,29 C1578.1899,39 1596.1899,39 1596.1899,39 C1596.1899,39 1614.1899,39 1614.1899,29" fill="none" style="stroke:#181818;stroke-width:0.5;"/></g><g class="participant participant-tail" data-entity-uid="part5" data-qualified-name="DB" data-source-line="6" id="part5-tail"><text fill="#000000" font-family="sans-serif" font-size="14" lengthAdjust="spacing" textLength="59.9307" x="1563.2246" y="375.3066">Database</text><path d="M1578.1899,388.3828 C1578.1899,378.3828 1596.1899,378.3828 1596.1899,378.3828 C1596.1899,378.3828 1614.1899,378.3828 1614.1899,388.3828 L1614.1899,414.3828 C1614.1899,424.3828 1596.1899,424.3828 1596.1899,424.3828 C1596.1899,424.3828 1578.1899,424.3828 1578.1899,414.3828 L1578.1899,388.3828" fill="#E2E2F0" style="stroke:#181818;stroke-width:0.5;"/><path d="M1578.1899,388.3828 C1578.1899,398.3828 1596.1899,398.3828 1596.1899,398.3828 C1596.1899,398.3828 1614.1899,398.3828 1614.1899,388.3828" fill="none" style="stroke:#181818;stroke-width:0.5;"/></g><g><title>AirportController</title><rect fill="#FFFFFF" height="228.8125" style="stroke:#181818;stroke-width:1;" width="10" x="503.7773" y="114.9609"/></g><g><title>SearchAirportUseCase</title><rect fill="#FFFFFF" height="168.1094" style="stroke:#181818;stroke-width:1;" width="10" x="768.0161" y="145.3125"/></g><g><title>AirportRepository</title><rect fill="#FFFFFF" height="107.4063" style="stroke:#181818;stroke-width:1;" width="10" x="1070.5313" y="175.6641"/></g><g><title>Database</title><rect fill="#FFFFFF" height="30.3516" style="stroke:#181818;stroke-width:1;" width="10" x="1591.1899" y="222.3672"/></g><g class="message" data-entity-1="part1" data-entity-2="part2" data-source-line="8" id="msg1"><polygon fill="#181818" points="491.7773,110.9609,501.7773,114.9609,491.7773,118.9609,495.7773,114.9609" style="stroke:#181818;stroke-width:1;stroke-linejoin:miter;stroke-miterlimit:10;"/><line style="stroke:#181818;stroke-width:1;" x1="27.0552" x2="497.7773" y1="114.9609" y2="114.9609"/><text fill="#000000" font-family="sans-serif" font-size="13" font-weight="700" lengthAdjust="spacing" textLength="7.23" x="34.0552" y="110.1045">1</text><text fill="#000000" font-family="sans-serif" font-size="13" lengthAdjust="spacing" textLength="414.4194" x="45.2852" y="110.1045">GET /api/airports/search?name=X&amp;city=Y&amp;country=Z&amp;page=0&amp;size=20</text></g><g class="message" data-entity-1="part2" data-entity-2="part3" data-source-line="11" id="msg2"><polygon fill="#181818" points="756.0161,141.3125,766.0161,145.3125,756.0161,149.3125,760.0161,145.3125" style="stroke:#181818;stroke-width:1;stroke-linejoin:miter;stroke-miterlimit:10;"/><line style="stroke:#181818;stroke-width:1;" x1="513.7773" x2="762.0161" y1="145.3125" y2="145.3125"/><text fill="#000000" font-family="sans-serif" font-size="13" font-weight="700" lengthAdjust="spacing" textLength="7.23" x="520.7773" y="140.4561">2</text><text fill="#000000" font-family="sans-serif" font-size="13" lengthAdjust="spacing" textLength="224.0088" x="532.0073" y="140.4561">execute(name, city, country, pageable)</text></g><g class="message" data-entity-1="part3" data-entity-2="part4" data-source-line="14" id="msg3"><polygon fill="#181818" points="1058.5313,171.6641,1068.5313,175.6641,1058.5313,179.6641,1062.5313,175.6641" style="stroke:#181818;stroke-width:1;stroke-linejoin:miter;stroke-miterlimit:10;"/><line style="stroke:#181818;stroke-width:1;" x1="778.0161" x2="1064.5313" y1="175.6641" y2="175.6641"/><text fill="#000000" font-family="sans-serif" font-size="13" font-weight="700" lengthAdjust="spacing" textLength="7.23" x="785.0161" y="170.8076">3</text><text fill="#000000" font-family="sans-serif" font-size="13" lengthAdjust="spacing" textLength="262.2852" x="796.2461" y="170.8076">searchAirports(name, city, country, pageable)</text></g><g class="message" data-entity-1="part4" data-entity-2="part5" data-source-line="16" id="msg4"><polygon fill="#181818" points="1579.1899,218.3672,1589.1899,222.3672,1579.1899,226.3672,1583.1899,222.3672" style="stroke:#181818;stroke-width:1;stroke-linejoin:miter;stroke-miterlimit:10;"/><line style="stroke:#181818;stroke-width:1;" x1="1080.5313" x2="1585.1899" y1="222.3672" y2="222.3672"/><text fill="#000000" font-family="sans-serif" font-size="13" font-weight="700" lengthAdjust="spacing" textLength="7.23" x="1087.5313" y="209.335">4</text><text fill="#000000" font-family="sans-serif" font-size="13" lengthAdjust="spacing" textLength="480.4287" x="1098.7612" y="201.1592">SELECT FROM airport WHERE name LIKE ? AND city LIKE ? AND country LIKE ?</text><text fill="#000000" font-family="sans-serif" font-size="13" lengthAdjust="spacing" textLength="216.6899" x="1098.7612" y="217.5107">(Dynamic Query with LIMIT/OFFSET)</text></g><g class="message" data-entity-1="part5" data-entity-2="part4" data-source-line="18" id="msg5"><polygon fill="#181818" points="1091.5313,248.7188,1081.5313,252.7188,1091.5313,256.7188,1087.5313,252.7188" style="stroke:#181818;stroke-width:1;stroke-linejoin:miter;stroke-miterlimit:10;"/><line style="stroke:#181818;stroke-width:1;stroke-dasharray:2,2;" x1="1085.5313" x2="1595.1899" y1="252.7188" y2="252.7188"/><text fill="#000000" font-family="sans-serif" font-size="13" font-weight="700" lengthAdjust="spacing" textLength="7.23" x="1097.5313" y="247.8623">5</text><text fill="#000000" font-family="sans-serif" font-size="13" lengthAdjust="spacing" textLength="90.3335" x="1108.7612" y="247.8623">page of records</text></g><g class="message" data-entity-1="part4" data-entity-2="part3" data-source-line="20" id="msg6"><polygon fill="#181818" points="789.0161,279.0703,779.0161,283.0703,789.0161,287.0703,785.0161,283.0703" style="stroke:#181818;stroke-width:1;stroke-linejoin:miter;stroke-miterlimit:10;"/><line style="stroke:#181818;stroke-width:1;stroke-dasharray:2,2;" x1="783.0161" x2="1074.5313" y1="283.0703" y2="283.0703"/><text fill="#000000" font-family="sans-serif" font-size="13" font-weight="700" lengthAdjust="spacing" textLength="7.23" x="795.0161" y="278.2139">6</text><text fill="#000000" font-family="sans-serif" font-size="13" lengthAdjust="spacing" textLength="83.8335" x="806.2461" y="278.2139">Page&lt;Airport&gt;</text></g><g class="message" data-entity-1="part3" data-entity-2="part2" data-source-line="23" id="msg7"><polygon fill="#181818" points="524.7773,309.4219,514.7773,313.4219,524.7773,317.4219,520.7773,313.4219" style="stroke:#181818;stroke-width:1;stroke-linejoin:miter;stroke-miterlimit:10;"/><line style="stroke:#181818;stroke-width:1;stroke-dasharray:2,2;" x1="518.7773" x2="772.0161" y1="313.4219" y2="313.4219"/><text fill="#000000" font-family="sans-serif" font-size="13" font-weight="700" lengthAdjust="spacing" textLength="7.23" x="530.7773" y="308.5654">7</text><text fill="#000000" font-family="sans-serif" font-size="13" lengthAdjust="spacing" textLength="142.3716" x="542.0073" y="308.5654">Page&lt;AirportResponse&gt;</text></g><g class="message" data-entity-1="part2" data-entity-2="part1" data-source-line="26" id="msg8"><polygon fill="#181818" points="38.0552,339.7734,28.0552,343.7734,38.0552,347.7734,34.0552,343.7734" style="stroke:#181818;stroke-width:1;stroke-linejoin:miter;stroke-miterlimit:10;"/><line style="stroke:#181818;stroke-width:1;stroke-dasharray:2,2;" x1="32.0552" x2="507.7773" y1="343.7734" y2="343.7734"/><text fill="#000000" font-family="sans-serif" font-size="13" font-weight="700" lengthAdjust="spacing" textLength="7.23" x="44.0552" y="338.917">8</text><text fill="#000000" font-family="sans-serif" font-size="13" lengthAdjust="spacing" textLength="441.4922" x="55.2852" y="338.917">200 OK (JSON Page with content[], totalElements, totalPages, number, size)</text></g><?plantuml-src ZP9DRy8m38Rl_HKM1mGI2CGHhKFGbetnjK7HlWyXU2DIQQeatSP-_Poq4qNQOPSgJbu_zkkQvKQc-M6BocFSI0MrOHm4DM0QxC7Bc3A2YuobXfw4ogGoWKoDaac2oka2ev9ptHgPuljIlT4OC8rEklaRkC9CQa7LZqvbGs_73DjI7jJ2ykJUmf7dsSQWVUaAGn-keXWwB1CTLj1qHxlwWvGTq7-eSs6E_cETovpQFlfFzOozez-jQ_6DVgzhVOiFPh0muZagqJS1iV4BUMwmOL4ji2Jw5g0MM0xR9jWy8SYWjt7DMHC4qDLHw7zpt0WSWb3XY43hQ1O5COnNopcKHk7-Ebf5O9amcqmZ6C1m4JhwMLpKAQzUqaPuf1J1uIv7kluKPazlyqdSMOx7woYkj47JfkBjantRAiWtKCYbscblXrLjqV3lx6v9Ur4wlwmgdJatfjDFh8fNg3EPQZnBifCjVWqbkGteGw_RXUKK6ZVhvS8H2ZESzXDJy_pQ0YCDIw843nJhChH2EXTRtmAx1irg9Llb1m00?></g></svg>