<?plantuml 1.2026.1?><svg xmlns="http://www.w3.org/2000/svg" xmlns:xlink="http://www.w3.org/1999/xlink" contentStyleType="text/css" data-diagram-type="SEQUENCE" height="772px" preserveAspectRatio="none" style="width:1460px;height:772px;background:#FFFFFF;" version="1.1" viewBox="0 0 1460 772" width="1460px" zoomAndPan="magnify"><defs/><g><g><title>AirportController</title><rect fill="#FFFFFF" height="546.5859" style="stroke:#181818;stroke-width:1;" width="10" x="379.1689" y="127.5625"/></g><g><title>SearchAirportUseCase</title><rect fill="#FFFFFF" height="191.0625" style="stroke:#181818;stroke-width:1;" width="10" x="668.5317" y="282.625"/></g><g><title>AirportRepository</title><rect fill="#FFFFFF" height="117.6641" style="stroke:#181818;stroke-width:1;" width="10" x="1010.6816" y="311.7578"/></g><g><title>Database</title><rect fill="#FFFFFF" height="29.1328" style="stroke:#181818;stroke-width:1;" width="10" x="1417.8062" y="371.1563"/></g><g class="participant-lifeline" data-entity-uid="part1" data-qualified-name="ATCC" id="part1-lifeline"><g><title>ATCC</title><rect fill="#000000" fill-opacity="0.00000" height="610.8516" width="8" x="22.8398" y="81.2969"/><line style="stroke:#181818;stroke-width:0.5;stroke-dasharray:5,5;" x1="26" x2="26" y1="81.2969" y2="692.1484"/></g></g><g class="participant-lifeline" data-entity-uid="part2" data-qualified-name="Ctrl" id="part2-lifeline"><g><title>AirportController</title><rect fill="#000000" fill-opacity="0.00000" height="610.8516" width="8" x="380.1689" y="81.2969"/><line style="stroke:#181818;stroke-width:0.5;stroke-dasharray:5,5;" x1="383.6226" x2="383.6226" y1="81.2969" y2="692.1484"/></g></g><g class="participant-lifeline" data-entity-uid="part3" data-qualified-name="UC" id="part3-lifeline"><g><title>SearchAirportUseCase</title><rect fill="#000000" fill-opacity="0.00000" height="610.8516" width="8" x="669.5317" y="81.2969"/><line style="stroke:#181818;stroke-width:0.5;stroke-dasharray:5,5;" x1="673.1611" x2="673.1611" y1="81.2969" y2="692.1484"/></g></g><g class="participant-lifeline" data-entity-uid="part4" data-qualified-name="Repo" id="part4-lifeline"><g><title>AirportRepository</title><rect fill="#000000" fill-opacity="0.00000" height="610.8516" width="8" x="1011.6816" y="81.2969"/><line style="stroke:#181818;stroke-width:0.5;stroke-dasharray:5,5;" x1="1015.1855" x2="1015.1855" y1="81.2969" y2="692.1484"/></g></g><g class="participant-lifeline" data-entity-uid="part5" data-qualified-name="DB" id="part5-lifeline"><g><title>Database</title><rect fill="#000000" fill-opacity="0.00000" height="610.8516" width="8" x="1418.8062" y="81.2969"/><line style="stroke:#181818;stroke-width:0.5;stroke-dasharray:5,5;" x1="1422.4058" x2="1422.4058" y1="81.2969" y2="692.1484"/></g></g><g class="participant participant-head" data-entity-uid="part1" data-qualified-name="ATCC" id="part1-head"><text fill="#000000" font-family="sans-serif" font-size="14" lengthAdjust="spacing" textLength="37.6797" x="5" y="77.9951">ATCC</text><ellipse cx="26.8398" cy="13.5" fill="#E2E2F0" rx="8" ry="8" style="stroke:#181818;stroke-width:0.5;"/><path d="M26.8398,21.5 L26.8398,48.5 M13.8398,29.5 L39.8398,29.5 M26.8398,48.5 L13.8398,63.5 M26.8398,48.5 L39.8398,63.5" fill="none" style="stroke:#181818;stroke-width:0.5;"/></g><g class="participant participant-tail" data-entity-uid="part1" data-qualified-name="ATCC" id="part1-tail"><text fill="#000000" font-family="sans-serif" font-size="14" lengthAdjust="spacing" textLength="37.6797" x="5" y="704.1436">ATCC</text><ellipse cx="26.8398" cy="715.9453" fill="#E2E2F0" rx="8" ry="8" style="stroke:#181818;stroke-width:0.5;"/><path d="M26.8398,723.9453 L26.8398,750.9453 M13.8398,731.9453 L39.8398,731.9453 M26.8398,750.9453 L13.8398,765.9453 M26.8398,750.9453 L39.8398,765.9453" fill="none" style="stroke:#181818;stroke-width:0.5;"/></g><g class="participant participant-head" data-entity-uid="part2" data-qualified-name="Ctrl" id="part2-head"><rect fill="#E2E2F0" height="30.2969" rx="2.5" ry="2.5" style="stroke:#181818;stroke-width:0.5;" width="131.0928" x="318.6226" y="50"/><text fill="#000000" font-family="sans-serif" font-size="14" lengthAdjust="spacing" textLength="117.0928" x="325.6226" y="69.9951">AirportController</text></g><g class="participant participant-tail" data-entity-uid="part2" data-qualified-name="Ctrl" id="part2-tail"><rect fill="#E2E2F0" height="30.2969" rx="2.5" ry="2.5" style="stroke:#181818;stroke-width:0.5;" width="131.0928" x="318.6226" y="691.1484"/><text fill="#000000" font-family="sans-serif" font-size="14" lengthAdjust="spacing" textLength="117.0928" x="325.6226" y="711.1436">AirportController</text></g><g class="participant participant-head" data-entity-uid="part3" data-qualified-name="UC" id="part3-head"><rect fill="#E2E2F0" height="30.2969" rx="2.5" ry="2.5" style="stroke:#181818;stroke-width:0.5;" width="170.7412" x="588.1611" y="50"/><text fill="#000000" font-family="sans-serif" font-size="14" lengthAdjust="spacing" textLength="156.7412" x="595.1611" y="69.9951">SearchAirportUseCase</text></g><g class="participant participant-tail" data-entity-uid="part3" data-qualified-name="UC" id="part3-tail"><rect fill="#E2E2F0" height="30.2969" rx="2.5" ry="2.5" style="stroke:#181818;stroke-width:0.5;" width="170.7412" x="588.1611" y="691.1484"/><text fill="#000000" font-family="sans-serif" font-size="14" lengthAdjust="spacing" textLength="156.7412" x="595.1611" y="711.1436">SearchAirportUseCase</text></g><g class="participant participant-head" data-entity-uid="part4" data-qualified-name="Repo" id="part4-head"><rect fill="#E2E2F0" height="30.2969" rx="2.5" ry="2.5" style="stroke:#181818;stroke-width:0.5;" width="136.9922" x="947.1855" y="50"/><text fill="#000000" font-family="sans-serif" font-size="14" lengthAdjust="spacing" textLength="122.9922" x="954.1855" y="69.9951">AirportRepository</text></g><g class="participant participant-tail" data-entity-uid="part4" data-qualified-name="Repo" id="part4-tail"><rect fill="#E2E2F0" height="30.2969" rx="2.5" ry="2.5" style="stroke:#181818;stroke-width:0.5;" width="136.9922" x="947.1855" y="691.1484"/><text fill="#000000" font-family="sans-serif" font-size="14" lengthAdjust="spacing" textLength="122.9922" x="954.1855" y="711.1436">AirportRepository</text></g><g class="participant participant-head" data-entity-uid="part5" data-qualified-name="DB" id="part5-head"><text fill="#000000" font-family="sans-serif" font-size="14" lengthAdjust="spacing" textLength="66.8008" x="1386.4058" y="77.9951">Database</text><path d="M1404.8062,29 C1404.8062,19 1422.8062,19 1422.8062,19 C1422.8062,19 1440.8062,19 1440.8062,29 L1440.8062,55 C1440.8062,65 1422.8062,65 1422.8062,65 C1422.8062,65 1404.8062,65 1404.8062,55 L1404.8062,29" fill="#E2E2F0" style="stroke:#181818;stroke-width:0.5;"/><path d="M1404.8062,29 C1404.8062,39 1422.8062,39 1422.8062,39 C1422.8062,39 1440.8062,39 1440.8062,29" fill="none" style="stroke:#181818;stroke-width:0.5;"/></g><g class="participant participant-tail" data-entity-uid="part5" data-qualified-name="DB" id="part5-tail"><text fill="#000000" font-family="sans-serif" font-size="14" lengthAdjust="spacing" textLength="66.8008" x="1386.4058" y="704.1436">Database</text><path d="M1404.8062,717.4453 C1404.8062,707.4453 1422.8062,707.4453 1422.8062,707.4453 C1422.8062,707.4453 1440.8062,707.4453 1440.8062,717.4453 L1440.8062,743.4453 C1440.8062,753.4453 1422.8062,753.4453 1422.8062,753.4453 C1422.8062,753.4453 1404.8062,753.4453 1404.8062,743.4453 L1404.8062,717.4453" fill="#E2E2F0" style="stroke:#181818;stroke-width:0.5;"/><path d="M1404.8062,717.4453 C1404.8062,727.4453 1422.8062,727.4453 1422.8062,727.4453 C1422.8062,727.4453 1440.8062,727.4453 1440.8062,717.4453" fill="none" style="stroke:#181818;stroke-width:0.5;"/></g><g><title>AirportController</title><rect fill="#FFFFFF" height="546.5859" style="stroke:#181818;stroke-width:1;" width="10" x="379.1689" y="127.5625"/></g><g><title>SearchAirportUseCase</title><rect fill="#FFFFFF" height="191.0625" style="stroke:#181818;stroke-width:1;" width="10" x="668.5317" y="282.625"/></g><g><title>AirportRepository</title><rect fill="#FFFFFF" height="117.6641" style="stroke:#181818;stroke-width:1;" width="10" x="1010.6816" y="311.7578"/></g><g><title>Database</title><rect fill="#FFFFFF" height="29.1328" style="stroke:#181818;stroke-width:1;" width="10" x="1417.8062" y="371.1563"/></g><g class="message" data-entity-1="part1" data-entity-2="part2" id="msg1"><polygon fill="#181818" points="367.1689,123.5625,377.1689,127.5625,367.1689,131.5625,371.1689,127.5625" style="stroke:#181818;stroke-width:1;"/><line style="stroke:#181818;stroke-width:1;" x1="26.8398" x2="373.1689" y1="127.5625" y2="127.5625"/><text fill="#000000" font-family="sans-serif" font-size="13" font-weight="bold" lengthAdjust="spacing" textLength="9.0454" x="33.8398" y="114.9302">1</text><text fill="#000000" font-family="sans-serif" font-size="13" lengthAdjust="spacing" textLength="157.1426" x="46.8853" y="107.3638">GET /api/airports/search</text><text fill="#000000" font-family="sans-serif" font-size="13" lengthAdjust="spacing" textLength="320.2837" x="46.8853" y="122.4966">?name=X&amp;city=Y&amp;country=Z&amp;page=0&amp;size=20</text></g><path d="M394,140.5625 L394,240.5625 L598,240.5625 L598,150.5625 L588,140.5625 L394,140.5625" fill="#FEFFDD" style="stroke:#181818;stroke-width:0.5;"/><path d="M588,140.5625 L588,150.5625 L598,150.5625 L588,140.5625" fill="#FEFFDD" style="stroke:#181818;stroke-width:0.5;"/><text fill="#000000" font-family="sans-serif" font-size="13" lengthAdjust="spacing" textLength="183.2695" x="400" y="157.6294">Query params (all optional):</text><text fill="#000000" font-family="sans-serif" font-size="13" lengthAdjust="spacing" textLength="92.9995" x="400" y="172.7622">- name: String</text><text fill="#000000" font-family="sans-serif" font-size="13" lengthAdjust="spacing" textLength="79.6821" x="400" y="187.895">- city: String</text><text fill="#000000" font-family="sans-serif" font-size="13" lengthAdjust="spacing" textLength="105.8472" x="400" y="203.0278">- country: String</text><text fill="#000000" font-family="sans-serif" font-size="13" lengthAdjust="spacing" textLength="182.3555" x="400" y="218.1606">- page, size, sort (Pageable)</text><text fill="#000000" font-family="sans-serif" font-size="13" lengthAdjust="spacing" textLength="138.4932" x="400" y="233.2935">Default page size: 20</text><g class="message" data-entity-1="part2" data-entity-2="part3" id="msg2"><polygon fill="#181818" points="656.5317,278.625,666.5317,282.625,656.5317,286.625,660.5317,282.625" style="stroke:#181818;stroke-width:1;"/><line style="stroke:#181818;stroke-width:1;" x1="389.1689" x2="662.5317" y1="282.625" y2="282.625"/><text fill="#000000" font-family="sans-serif" font-size="13" font-weight="bold" lengthAdjust="spacing" textLength="9.0454" x="396.1689" y="269.9927">2</text><text fill="#000000" font-family="sans-serif" font-size="13" lengthAdjust="spacing" textLength="224.6753" x="409.2144" y="262.4263">execute(name: String, city: String,</text><text fill="#000000" font-family="sans-serif" font-size="13" lengthAdjust="spacing" textLength="239.0527" x="417.479" y="277.5591">country: String, pageable: Pageable)</text></g><g class="message" data-entity-1="part3" data-entity-2="part4" id="msg3"><polygon fill="#181818" points="998.6816,307.7578,1008.6816,311.7578,998.6816,315.7578,1002.6816,311.7578" style="stroke:#181818;stroke-width:1;"/><line style="stroke:#181818;stroke-width:1;" x1="678.5317" x2="1004.6816" y1="311.7578" y2="311.7578"/><text fill="#000000" font-family="sans-serif" font-size="13" font-weight="bold" lengthAdjust="spacing" textLength="9.0454" x="685.5317" y="306.6919">3</text><text fill="#000000" font-family="sans-serif" font-size="13" lengthAdjust="spacing" textLength="300.1045" x="698.5771" y="306.6919">searchAirports(name, city, country, pageable)</text></g><g class="message" data-entity-1="part4" data-entity-2="part5" id="msg4"><polygon fill="#181818" points="1405.8062,367.1563,1415.8062,371.1563,1405.8062,375.1563,1409.8062,371.1563" style="stroke:#181818;stroke-width:1;"/><line style="stroke:#181818;stroke-width:1;" x1="1020.6816" x2="1411.8062" y1="371.1563" y2="371.1563"/><text fill="#000000" font-family="sans-serif" font-size="13" font-weight="bold" lengthAdjust="spacing" textLength="9.0454" x="1027.6816" y="350.9575">4</text><text fill="#000000" font-family="sans-serif" font-size="13" lengthAdjust="spacing" textLength="138.7344" x="1040.7271" y="335.8247">SELECT FROM airport</text><text fill="#000000" font-family="sans-serif" font-size="13" lengthAdjust="spacing" textLength="365.0791" x="1040.7271" y="350.9575">WHERE name LIKE ? AND city LIKE ? AND country LIKE ?</text><text fill="#000000" font-family="sans-serif" font-size="13" lengthAdjust="spacing" textLength="120.0024" x="1040.7271" y="366.0903">(LIMIT ? OFFSET ?)</text></g><g class="message" data-entity-1="part5" data-entity-2="part4" id="msg5"><polygon fill="#181818" points="1031.6816,396.2891,1021.6816,400.2891,1031.6816,404.2891,1027.6816,400.2891" style="stroke:#181818;stroke-width:1;"/><line style="stroke:#181818;stroke-width:1;stroke-dasharray:2,2;" x1="1025.6816" x2="1421.8062" y1="400.2891" y2="400.2891"/><text fill="#000000" font-family="sans-serif" font-size="13" font-weight="bold" lengthAdjust="spacing" textLength="9.0454" x="1037.6816" y="395.2231">5</text><text fill="#000000" font-family="sans-serif" font-size="13" lengthAdjust="spacing" textLength="191.769" x="1050.7271" y="395.2231">page of records + total count</text></g><g class="message" data-entity-1="part4" data-entity-2="part3" id="msg6"><polygon fill="#181818" points="689.5317,425.4219,679.5317,429.4219,689.5317,433.4219,685.5317,429.4219" style="stroke:#181818;stroke-width:1;"/><line style="stroke:#181818;stroke-width:1;stroke-dasharray:2,2;" x1="683.5317" x2="1014.6816" y1="429.4219" y2="429.4219"/><text fill="#000000" font-family="sans-serif" font-size="13" font-weight="bold" lengthAdjust="spacing" textLength="9.0454" x="695.5317" y="424.356">6</text><text fill="#000000" font-family="sans-serif" font-size="13" lengthAdjust="spacing" textLength="98.3379" x="708.5771" y="424.356">Page&lt;Airport&gt;</text></g><g class="message" data-entity-1="part3" data-entity-2="part2" id="msg7"><polygon fill="#181818" points="400.1689,469.6875,390.1689,473.6875,400.1689,477.6875,396.1689,473.6875" style="stroke:#181818;stroke-width:1;"/><line style="stroke:#181818;stroke-width:1;stroke-dasharray:2,2;" x1="394.1689" x2="672.5317" y1="473.6875" y2="473.6875"/><text fill="#000000" font-family="sans-serif" font-size="13" font-weight="bold" lengthAdjust="spacing" textLength="9.0454" x="406.1689" y="461.0552">7</text><text fill="#000000" font-family="sans-serif" font-size="13" lengthAdjust="spacing" textLength="222.4409" x="419.2144" y="453.4888">page.map(AirportResponse::from)</text><text fill="#000000" font-family="sans-serif" font-size="13" lengthAdjust="spacing" textLength="176.3823" x="419.2144" y="468.6216">&#8594; Page&lt;AirportResponse&gt;</text></g><path d="M394,486.6875 L394,556.6875 L722,556.6875 L722,496.6875 L712,486.6875 L394,486.6875" fill="#FEFFDD" style="stroke:#181818;stroke-width:0.5;"/><path d="M712,486.6875 L712,496.6875 L722,496.6875 L712,486.6875" fill="#FEFFDD" style="stroke:#181818;stroke-width:0.5;"/><text fill="#000000" font-family="sans-serif" font-size="13" lengthAdjust="spacing" textLength="218.9751" x="400" y="503.7544">PagedResourcesAssembler wraps</text><text fill="#000000" font-family="sans-serif" font-size="13" lengthAdjust="spacing" textLength="190.3916" x="400" y="518.8872">Page&lt;AirportResponse&gt; into</text><text fill="#000000" font-family="sans-serif" font-size="13" lengthAdjust="spacing" textLength="307.4106" x="400" y="534.02">PagedModel&lt;EntityModel&lt;AirportResponse&gt;&gt;</text><text fill="#000000" font-family="sans-serif" font-size="13" lengthAdjust="spacing" textLength="217.2993" x="400" y="549.1528">adding _links and page metadata</text><g class="message" data-entity-1="part2" data-entity-2="part1" id="msg8"><polygon fill="#181818" points="37.8398,670.1484,27.8398,674.1484,37.8398,678.1484,33.8398,674.1484" style="stroke:#181818;stroke-width:1;"/><line style="stroke:#181818;stroke-width:1;stroke-dasharray:2,2;" x1="31.8398" x2="383.1689" y1="674.1484" y2="674.1484"/><text fill="#000000" font-family="sans-serif" font-size="13" font-weight="bold" lengthAdjust="spacing" textLength="9.0454" x="43.8398" y="623.6841">8</text><text fill="#000000" font-family="sans-serif" font-size="13" lengthAdjust="spacing" textLength="130.8252" x="56.8853" y="578.2856">200 OK (HAL+JSON)</text><text fill="#000000" font-family="sans-serif" font-size="13" lengthAdjust="spacing" textLength="8.271" x="56.8853" y="593.4185">{</text><text fill="#000000" font-family="sans-serif" font-size="13" lengthAdjust="spacing" textLength="297.9019" x="65.1499" y="608.5513">"_embedded": { "airportResponseList": [...] },</text><text fill="#000000" font-family="sans-serif" font-size="13" lengthAdjust="spacing" textLength="219.356" x="65.1499" y="623.6841">"_links": { "self", "next", "prev" },</text><text fill="#000000" font-family="sans-serif" font-size="13" lengthAdjust="spacing" textLength="153.6831" x="65.1499" y="638.8169">"page": { number, size,</text><text fill="#000000" font-family="sans-serif" font-size="13" lengthAdjust="spacing" textLength="179.5435" x="73.4146" y="653.9497">totalElements, totalPages }</text><text fill="#000000" font-family="sans-serif" font-size="13" lengthAdjust="spacing" textLength="8.271" x="56.8853" y="669.0825">}</text></g><?plantuml-src RLHTJzim57tFhxZAGrL4A6YF4IqgQHYCGZVQQb-Ta4bkmLfYHxR3w12l-m7xYVibkxPJsW0lhUDxVCwvnpTXjP6YBczG1ImpKa4ud2L924o3NGGLKuPdl6B2K8chIYgJI66KB0fK3fSOLRHnKsGgkslGSuq9q-YWyxS9hx2IcfFwog7iOv0pmsxe78IZPkLge-CWiCPWR-248ORtwGpsMSNtcMVJ-zhfByIHO2NsltGoRbRzhvrCrcHyrV_MgTWjzWywcl_6_hi3spc_PmPzAu6Gj5Jyziw0NFezW4yrgXMGUrPgwBAY05aPBWKhTc8gxu7LYc5g51UtRiEgjZUyVclFEed06g5VCW_TZxJ3RWhSeVe8bwmkZ4CvK0na5qKErcCGk0GeYNb2EU03PhN1xhQHgEKYMWXuwI9ov5OmXetqSo9qOy7SfMrlXLJqzjrg9-P5eZNpXd6Bnzsfeo2gqJ4HJTDncipWv6fo0StDBSJdq_GgTL72-EmyXICONeuSVUlP2pLR2z4TdrsSpQWuEJcPqZGSRGdJm93StgO1boNTgy9Cgbp3BXXfME59WnotJth3wu1jF8TDvuDjf6lEnRIPIYlJArdLVPvnNKcXCOwNIfOx2_7lpzyMunhGOhRnlpcEzcHEHsIjCjH3hR6am1NyKgpIJVqLCt1XvFhmXSonE4o5eN3z-YLyG52MvpGaS5rmyLC3eybp-PLec7r3NyqY1U1UJpke1p0vX-xfSBpxOJgvf9OVxVo5rsGLynppC8P725bRTSoreSBtNg_t0vuYVyAfUxZ6OXb640fyCFQ_KdWVhe7McuFvJrhpOjaI-5jE2onH61tvHnk4XgU5UDeEtNRo7m00?></g></svg>