<svg xmlns="http://www.w3.org/2000/svg" xmlns:xlink="http://www.w3.org/1999/xlink" contentStyleType="text/css" data-diagram-type="SEQUENCE" height="437px" preserveAspectRatio="none" style="width:1071px;height:437px;background:#FFFFFF;" version="1.1" viewBox="0 0 1071 437" width="1071px" zoomAndPan="magnify"><defs/><g><g><title>FlightController</title><rect fill="#FFFFFF" height="219.0371" style="stroke:#181818;stroke-width:1;" width="10" x="278.3403" y="116.9121"/></g><g><title>GetFlightsByAircraftUseCase</title><rect fill="#FFFFFF" height="156.4551" style="stroke:#181818;stroke-width:1;" width="10" x="493.3828" y="148.2031"/></g><g><title>FlightRepository</title><rect fill="#FFFFFF" height="93.873" style="stroke:#181818;stroke-width:1;" width="10" x="680.9863" y="179.4941"/></g><g><title>Database</title><rect fill="#FFFFFF" height="31.291" style="stroke:#181818;stroke-width:1;" width="10" x="1031.4897" y="210.7852"/></g><g><title>ATCC</title><rect fill="#000000" fill-opacity="0.00000" height="270.3281" width="8" x="23.0552" y="83.6211"/><line style="stroke:#181818;stroke-width:0.5;stroke-dasharray:5,5;" x1="27" x2="27" y1="83.6211" y2="353.9492"/></g><g><title>FlightController</title><rect fill="#000000" fill-opacity="0.00000" height="270.3281" width="8" x="279.3403" y="83.6211"/><line style="stroke:#181818;stroke-width:0.5;stroke-dasharray:5,5;" x1="282.8784" x2="282.8784" y1="83.6211" y2="353.9492"/></g><g><title>GetFlightsByAircraftUseCase</title><rect fill="#000000" fill-opacity="0.00000" height="270.3281" width="8" x="494.3828" y="83.6211"/><line style="stroke:#181818;stroke-width:0.5;stroke-dasharray:5,5;" x1="498.3555" x2="498.3555" y1="83.6211" y2="353.9492"/></g><g><title>FlightRepository</title><rect fill="#000000" fill-opacity="0.00000" height="270.3281" width="8" x="681.9863" y="83.6211"/><line style="stroke:#181818;stroke-width:0.5;stroke-dasharray:5,5;" x1="685.4106" x2="685.4106" y1="83.6211" y2="353.9492"/></g><g><title>Database</title><rect fill="#000000" fill-opacity="0.00000" height="270.3281" width="8" x="1032.4897" y="83.6211"/><line style="stroke:#181818;stroke-width:0.5;stroke-dasharray:5,5;" x1="1035.5244" x2="1035.5244" y1="83.6211" y2="353.9492"/></g><g class="participant participant-head" data-participant="BO"><text fill="#000000" font-family="sans-serif" font-size="14" lengthAdjust="spacing" textLength="38.1104" x="5" y="80.1074">ATCC</text><ellipse cx="27.0552" cy="13.5" fill="#E2E2F0" rx="8" ry="8" style="stroke:#181818;stroke-width:0.5;"/><path d="M27.0552,21.5 L27.0552,48.5 M14.0552,29.5 L40.0552,29.5 M27.0552,48.5 L14.0552,63.5 M27.0552,48.5 L40.0552,63.5" fill="none" style="stroke:#181818;stroke-width:0.5;"/></g><g class="participant participant-tail" data-participant="BO"><text fill="#000000" font-family="sans-serif" font-size="14" lengthAdjust="spacing" textLength="38.1104" x="5" y="368.0566">ATCC</text><ellipse cx="27.0552" cy="380.0703" fill="#E2E2F0" rx="8" ry="8" style="stroke:#181818;stroke-width:0.5;"/><path d="M27.0552,388.0703 L27.0552,415.0703 M14.0552,396.0703 L40.0552,396.0703 M27.0552,415.0703 L14.0552,430.0703 M27.0552,415.0703 L40.0552,430.0703" fill="none" style="stroke:#181818;stroke-width:0.5;"/></g><g class="participant participant-head" data-participant="Ctrl"><rect fill="#E2E2F0" height="32.6211" rx="2.5" ry="2.5" style="stroke:#181818;stroke-width:0.5;" width="108.9238" x="228.8784" y="50"/><text fill="#000000" font-family="sans-serif" font-size="14" lengthAdjust="spacing" textLength="94.9238" x="235.8784" y="72.1074">FlightController</text></g><g class="participant participant-tail" data-participant="Ctrl"><rect fill="#E2E2F0" height="32.6211" rx="2.5" ry="2.5" style="stroke:#181818;stroke-width:0.5;" width="108.9238" x="228.8784" y="352.9492"/><text fill="#000000" font-family="sans-serif" font-size="14" lengthAdjust="spacing" textLength="94.9238" x="235.8784" y="375.0566">FlightController</text></g><g class="participant participant-head" data-participant="UC"><rect fill="#E2E2F0" height="32.6211" rx="2.5" ry="2.5" style="stroke:#181818;stroke-width:0.5;" width="196.0547" x="400.3555" y="50"/><text fill="#000000" font-family="sans-serif" font-size="14" lengthAdjust="spacing" textLength="182.0547" x="407.3555" y="72.1074">GetFlightsByAircraftUseCase</text></g><g class="participant participant-tail" data-participant="UC"><rect fill="#E2E2F0" height="32.6211" rx="2.5" ry="2.5" style="stroke:#181818;stroke-width:0.5;" width="196.0547" x="400.3555" y="352.9492"/><text fill="#000000" font-family="sans-serif" font-size="14" lengthAdjust="spacing" textLength="182.0547" x="407.3555" y="375.0566">GetFlightsByAircraftUseCase</text></g><g class="participant participant-head" data-participant="Repo"><rect fill="#E2E2F0" height="32.6211" rx="2.5" ry="2.5" style="stroke:#181818;stroke-width:0.5;" width="115.1514" x="628.4106" y="50"/><text fill="#000000" font-family="sans-serif" font-size="14" lengthAdjust="spacing" textLength="101.1514" x="635.4106" y="72.1074">FlightRepository</text></g><g class="participant participant-tail" data-participant="Repo"><rect fill="#E2E2F0" height="32.6211" rx="2.5" ry="2.5" style="stroke:#181818;stroke-width:0.5;" width="115.1514" x="628.4106" y="352.9492"/><text fill="#000000" font-family="sans-serif" font-size="14" lengthAdjust="spacing" textLength="101.1514" x="635.4106" y="375.0566">FlightRepository</text></g><g class="participant participant-head" data-participant="DB"><text fill="#000000" font-family="sans-serif" font-size="14" lengthAdjust="spacing" textLength="59.9307" x="1003.5244" y="80.1074">Database</text><path d="M1018.4897,29 C1018.4897,19 1036.4897,19 1036.4897,19 C1036.4897,19 1054.4897,19 1054.4897,29 L1054.4897,55 C1054.4897,65 1036.4897,65 1036.4897,65 C1036.4897,65 1018.4897,65 1018.4897,55 L1018.4897,29" fill="#E2E2F0" style="stroke:#181818;stroke-width:0.5;"/><path d="M1018.4897,29 C1018.4897,39 1036.4897,39 1036.4897,39 C1036.4897,39 1054.4897,39 1054.4897,29" fill="none" style="stroke:#181818;stroke-width:0.5;"/></g><g class="participant participant-tail" data-participant="DB"><text fill="#000000" font-family="sans-serif" font-size="14" lengthAdjust="spacing" textLength="59.9307" x="1003.5244" y="368.0566">Database</text><path d="M1018.4897,381.5703 C1018.4897,371.5703 1036.4897,371.5703 1036.4897,371.5703 C1036.4897,371.5703 1054.4897,371.5703 1054.4897,381.5703 L1054.4897,407.5703 C1054.4897,417.5703 1036.4897,417.5703 1036.4897,417.5703 C1036.4897,417.5703 1018.4897,417.5703 1018.4897,407.5703 L1018.4897,381.5703" fill="#E2E2F0" style="stroke:#181818;stroke-width:0.5;"/><path d="M1018.4897,381.5703 C1018.4897,391.5703 1036.4897,391.5703 1036.4897,391.5703 C1036.4897,391.5703 1054.4897,391.5703 1054.4897,381.5703" fill="none" style="stroke:#181818;stroke-width:0.5;"/></g><g><title>FlightController</title><rect fill="#FFFFFF" height="219.0371" style="stroke:#181818;stroke-width:1;" width="10" x="278.3403" y="116.9121"/></g><g><title>GetFlightsByAircraftUseCase</title><rect fill="#FFFFFF" height="156.4551" style="stroke:#181818;stroke-width:1;" width="10" x="493.3828" y="148.2031"/></g><g><title>FlightRepository</title><rect fill="#FFFFFF" height="93.873" style="stroke:#181818;stroke-width:1;" width="10" x="680.9863" y="179.4941"/></g><g><title>Database</title><rect fill="#FFFFFF" height="31.291" style="stroke:#181818;stroke-width:1;" width="10" x="1031.4897" y="210.7852"/></g><g class="message" data-participant-1="BO" data-participant-2="Ctrl"><polygon fill="#181818" points="266.3403,112.9121,276.3403,116.9121,266.3403,120.9121,270.3403,116.9121" style="stroke:#181818;stroke-width:1;"/><line style="stroke:#181818;stroke-width:1;" x1="27.0552" x2="272.3403" y1="116.9121" y2="116.9121"/><text fill="#000000" font-family="sans-serif" font-size="13" font-weight="bold" lengthAdjust="spacing" textLength="7.23" x="34.0552" y="111.6494">1</text><text fill="#000000" font-family="sans-serif" font-size="13" lengthAdjust="spacing" textLength="213.5161" x="45.2852" y="111.6494">GET /api/flights?aircraftId={aircraftId}</text></g><g class="message" data-participant-1="Ctrl" data-participant-2="UC"><polygon fill="#181818" points="481.3828,144.2031,491.3828,148.2031,481.3828,152.2031,485.3828,148.2031" style="stroke:#181818;stroke-width:1;"/><line style="stroke:#181818;stroke-width:1;" x1="288.3403" x2="487.3828" y1="148.2031" y2="148.2031"/><text fill="#000000" font-family="sans-serif" font-size="13" font-weight="bold" lengthAdjust="spacing" textLength="7.23" x="295.3403" y="142.9404">2</text><text fill="#000000" font-family="sans-serif" font-size="13" lengthAdjust="spacing" textLength="104.7617" x="306.5703" y="142.9404">execute(aircraftId)</text></g><g class="message" data-participant-1="UC" data-participant-2="Repo"><polygon fill="#181818" points="668.9863,175.4941,678.9863,179.4941,668.9863,183.4941,672.9863,179.4941" style="stroke:#181818;stroke-width:1;"/><line style="stroke:#181818;stroke-width:1;" x1="503.3828" x2="674.9863" y1="179.4941" y2="179.4941"/><text fill="#000000" font-family="sans-serif" font-size="13" font-weight="bold" lengthAdjust="spacing" textLength="7.23" x="510.3828" y="174.2314">3</text><text fill="#000000" font-family="sans-serif" font-size="13" lengthAdjust="spacing" textLength="147.3735" x="521.6128" y="174.2314">findByAircraftId(aircraftId)</text></g><g class="message" data-participant-1="Repo" data-participant-2="DB"><polygon fill="#181818" points="1019.4897,206.7852,1029.4897,210.7852,1019.4897,214.7852,1023.4897,210.7852" style="stroke:#181818;stroke-width:1;"/><line style="stroke:#181818;stroke-width:1;" x1="690.9863" x2="1025.4897" y1="210.7852" y2="210.7852"/><text fill="#000000" font-family="sans-serif" font-size="13" font-weight="bold" lengthAdjust="spacing" textLength="7.23" x="697.9863" y="205.5225">4</text><text fill="#000000" font-family="sans-serif" font-size="13" lengthAdjust="spacing" textLength="310.2734" x="709.2163" y="205.5225">SELECT * FROM flight WHERE aircraft_id = aircraftId</text></g><g class="message" data-participant-1="DB" data-participant-2="Repo"><polygon fill="#181818" points="701.9863,238.0762,691.9863,242.0762,701.9863,246.0762,697.9863,242.0762" style="stroke:#181818;stroke-width:1;"/><line style="stroke:#181818;stroke-width:1;stroke-dasharray:2,2;" x1="695.9863" x2="1035.4897" y1="242.0762" y2="242.0762"/><text fill="#000000" font-family="sans-serif" font-size="13" font-weight="bold" lengthAdjust="spacing" textLength="7.23" x="707.9863" y="236.8135">5</text><text fill="#000000" font-family="sans-serif" font-size="13" lengthAdjust="spacing" textLength="118.4917" x="719.2163" y="236.8135">returns flight records</text></g><g class="message" data-participant-1="Repo" data-participant-2="UC"><polygon fill="#181818" points="514.3828,269.3672,504.3828,273.3672,514.3828,277.3672,510.3828,273.3672" style="stroke:#181818;stroke-width:1;"/><line style="stroke:#181818;stroke-width:1;stroke-dasharray:2,2;" x1="508.3828" x2="684.9863" y1="273.3672" y2="273.3672"/><text fill="#000000" font-family="sans-serif" font-size="13" font-weight="bold" lengthAdjust="spacing" textLength="7.23" x="520.3828" y="268.1045">6</text><text fill="#000000" font-family="sans-serif" font-size="13" lengthAdjust="spacing" textLength="111.9854" x="531.6128" y="268.1045">returns list of flights</text></g><g class="message" data-participant-1="UC" data-participant-2="Ctrl"><polygon fill="#181818" points="299.3403,300.6582,289.3403,304.6582,299.3403,308.6582,295.3403,304.6582" style="stroke:#181818;stroke-width:1;"/><line style="stroke:#181818;stroke-width:1;stroke-dasharray:2,2;" x1="293.3403" x2="497.3828" y1="304.6582" y2="304.6582"/><text fill="#000000" font-family="sans-serif" font-size="13" font-weight="bold" lengthAdjust="spacing" textLength="7.23" x="305.3403" y="299.3955">7</text><text fill="#000000" font-family="sans-serif" font-size="13" lengthAdjust="spacing" textLength="169.8125" x="316.5703" y="299.3955">returns List&lt;FlightResponse&gt;</text></g><g class="message" data-participant-1="Ctrl" data-participant-2="BO"><polygon fill="#181818" points="38.0552,331.9492,28.0552,335.9492,38.0552,339.9492,34.0552,335.9492" style="stroke:#181818;stroke-width:1;"/><line style="stroke:#181818;stroke-width:1;stroke-dasharray:2,2;" x1="32.0552" x2="282.3403" y1="335.9492" y2="335.9492"/><text fill="#000000" font-family="sans-serif" font-size="13" font-weight="bold" lengthAdjust="spacing" textLength="7.23" x="44.0552" y="330.6865">8</text><text fill="#000000" font-family="sans-serif" font-size="13" lengthAdjust="spacing" textLength="216.0552" x="55.2852" y="330.6865">returns list of Scheduled Flight details</text></g><!--SRC=[RP7DQiCm48JlUeh5fxOGSYzDIgmuQI0ba1zwB8grRWIkPQHrQIXzzwxb6CKqDmdDDpkpKWtPglayeXCg9-iWcUsbJ41vI3UYLevCRcfL4IIBqdoSIDgAd2rBT44aoPL3sHAfK_hqF3CkTwgWWqUfF0RY86_PRh6std20Sn2rLw4LgIDZaCmlf_0sJuL8Dp2QXk7m2Cji3sDLct7HpNrMbx4hFVc9vz-seVbIX5rg4N2sEKWsmM_C6yAxgB-FUiuiMCNQDXYh2rFfM6-bRsEXHI2OdAVCxR9r9lVm08ljvXMwlF3sacqpw1tUZOO9HBzenyNPP1HJEAJ6LRxtSPXRfxtGU8rqy_kQFL8QJs2B2pfWGkfGDwwunzQCFVK_vcjRUPnUi-sYkhKoov_qV-0kFw5kIjJGsO16KgOS96WT_W00]--></g></svg>