<?plantuml 1.2026.1?><svg xmlns="http://www.w3.org/2000/svg" xmlns:xlink="http://www.w3.org/1999/xlink" contentStyleType="text/css" data-diagram-type="SEQUENCE" height="1452px" preserveAspectRatio="none" style="width:1577px;height:1452px;background:#FFFFFF;" version="1.1" viewBox="0 0 1577 1452" width="1577px" zoomAndPan="magnify"><defs/><g><g><title>RouteController</title><rect fill="#FFFFFF" height="591.3281" style="stroke:#181818;stroke-width:1;" width="10" x="393.2495" y="136.5625"/></g><g><title>RouteController</title><rect fill="#FFFFFF" height="591.3281" style="stroke:#181818;stroke-width:1;" width="10" x="393.2495" y="763.8281"/></g><g><title>UpdateRouteUseCase</title><rect fill="#FFFFFF" height="562.1953" style="stroke:#181818;stroke-width:1;" width="10" x="662.9771" y="165.6953"/></g><g><title>DesactivateRouteUseCase</title><rect fill="#FFFFFF" height="562.1953" style="stroke:#181818;stroke-width:1;" width="10" x="886.6396" y="792.9609"/></g><g><title>RouteRepository</title><rect fill="#FFFFFF" height="87.3984" style="stroke:#181818;stroke-width:1;" width="10" x="1093.7051" y="194.8281"/></g><g><title>RouteRepository</title><rect fill="#FFFFFF" height="87.3984" style="stroke:#181818;stroke-width:1;" width="10" x="1093.7051" y="377.625"/></g><g><title>RouteRepository</title><rect fill="#FFFFFF" height="87.3984" style="stroke:#181818;stroke-width:1;" width="10" x="1093.7051" y="822.0938"/></g><g><title>RouteRepository</title><rect fill="#FFFFFF" height="87.3984" style="stroke:#181818;stroke-width:1;" width="10" x="1093.7051" y="1004.8906"/></g><g><title>RouteHistoryRepository</title><rect fill="#FFFFFF" height="87.3984" style="stroke:#181818;stroke-width:1;" width="10" x="1258.9492" y="494.1563"/></g><g><title>RouteHistoryRepository</title><rect fill="#FFFFFF" height="87.3984" style="stroke:#181818;stroke-width:1;" width="10" x="1258.9492" y="1121.4219"/></g><rect fill="none" height="1256.8594" style="stroke:#000000;stroke-width:1.5;" width="1560.9536" x="10" y="98.2969"/><rect fill="none" height="423.6641" style="stroke:#000000;stroke-width:1.5;" width="1540.9536" x="20" y="297.2266"/><rect fill="none" height="423.6641" style="stroke:#000000;stroke-width:1.5;" width="1540.9536" x="20" y="924.4922"/><g class="participant-lifeline" data-entity-uid="part1" data-qualified-name="Actor" id="part1-lifeline"><g><title>ATCC . Backoffice Operator</title><rect fill="#000000" fill-opacity="0.00000" height="1290.8594" width="8" x="124.5117" y="81.2969"/><line style="stroke:#181818;stroke-width:0.5;stroke-dasharray:5,5;" x1="128" x2="128" y1="81.2969" y2="1372.1563"/></g></g><g class="participant-lifeline" data-entity-uid="part2" data-qualified-name="Ctrl" id="part2-lifeline"><g><title>RouteController</title><rect fill="#000000" fill-opacity="0.00000" height="1290.8594" width="8" x="394.2495" y="81.2969"/><line style="stroke:#181818;stroke-width:0.5;stroke-dasharray:5,5;" x1="398.0288" x2="398.0288" y1="81.2969" y2="1372.1563"/></g></g><g class="participant-lifeline" data-entity-uid="part3" data-qualified-name="UpdateUC" id="part3-lifeline"><g><title>UpdateRouteUseCase</title><rect fill="#000000" fill-opacity="0.00000" height="1290.8594" width="8" x="663.9771" y="81.2969"/><line style="stroke:#181818;stroke-width:0.5;stroke-dasharray:5,5;" x1="667.7837" x2="667.7837" y1="81.2969" y2="1372.1563"/></g></g><g class="participant-lifeline" data-entity-uid="part4" data-qualified-name="DeactivateUC" id="part4-lifeline"><g><title>DesactivateRouteUseCase</title><rect fill="#000000" fill-opacity="0.00000" height="1290.8594" width="8" x="887.6396" y="81.2969"/><line style="stroke:#181818;stroke-width:0.5;stroke-dasharray:5,5;" x1="891.1426" x2="891.1426" y1="81.2969" y2="1372.1563"/></g></g><g class="participant-lifeline" data-entity-uid="part5" data-qualified-name="Repo" id="part5-lifeline"><g><title>RouteRepository</title><rect fill="#000000" fill-opacity="0.00000" height="1290.8594" width="8" x="1094.7051" y="81.2969"/><line style="stroke:#181818;stroke-width:0.5;stroke-dasharray:5,5;" x1="1098.5347" x2="1098.5347" y1="81.2969" y2="1372.1563"/></g></g><g class="participant-lifeline" data-entity-uid="part6" data-qualified-name="HistoryRepo" id="part6-lifeline"><g><title>RouteHistoryRepository</title><rect fill="#000000" fill-opacity="0.00000" height="1290.8594" width="8" x="1259.9492" y="81.2969"/><line style="stroke:#181818;stroke-width:0.5;stroke-dasharray:5,5;" x1="1263.8755" x2="1263.8755" y1="81.2969" y2="1372.1563"/></g></g><g class="participant-lifeline" data-entity-uid="part7" data-qualified-name="DB" id="part7-lifeline"><g><title>Database</title><rect fill="#000000" fill-opacity="0.00000" height="1290.8594" width="8" x="1510.5532" y="81.2969"/><line style="stroke:#181818;stroke-width:0.5;stroke-dasharray:5,5;" x1="1514.1528" x2="1514.1528" y1="81.2969" y2="1372.1563"/></g></g><g class="participant participant-head" data-entity-uid="part1" data-qualified-name="Actor" id="part1-head"><text fill="#000000" font-family="sans-serif" font-size="14" lengthAdjust="spacing" textLength="191.0234" x="30" y="77.9951">ATCC / Backoffice Operator</text><ellipse cx="128.5117" cy="13.5" fill="#E2E2F0" rx="8" ry="8" style="stroke:#181818;stroke-width:0.5;"/><path d="M128.5117,21.5 L128.5117,48.5 M115.5117,29.5 L141.5117,29.5 M128.5117,48.5 L115.5117,63.5 M128.5117,48.5 L141.5117,63.5" fill="none" style="stroke:#181818;stroke-width:0.5;"/></g><g class="participant participant-tail" data-entity-uid="part1" data-qualified-name="Actor" id="part1-tail"><text fill="#000000" font-family="sans-serif" font-size="14" lengthAdjust="spacing" textLength="191.0234" x="30" y="1384.1514">ATCC / Backoffice Operator</text><ellipse cx="128.5117" cy="1395.9531" fill="#E2E2F0" rx="8" ry="8" style="stroke:#181818;stroke-width:0.5;"/><path d="M128.5117,1403.9531 L128.5117,1430.9531 M115.5117,1411.9531 L141.5117,1411.9531 M128.5117,1430.9531 L115.5117,1445.9531 M128.5117,1430.9531 L141.5117,1445.9531" fill="none" style="stroke:#181818;stroke-width:0.5;"/></g><g class="participant participant-head" data-entity-uid="part2" data-qualified-name="Ctrl" id="part2-head"><rect fill="#E2E2F0" height="30.2969" rx="2.5" ry="2.5" style="stroke:#181818;stroke-width:0.5;" width="124.4414" x="336.0288" y="50"/><text fill="#000000" font-family="sans-serif" font-size="14" lengthAdjust="spacing" textLength="110.4414" x="343.0288" y="69.9951">RouteController</text></g><g class="participant participant-tail" data-entity-uid="part2" data-qualified-name="Ctrl" id="part2-tail"><rect fill="#E2E2F0" height="30.2969" rx="2.5" ry="2.5" style="stroke:#181818;stroke-width:0.5;" width="124.4414" x="336.0288" y="1371.1563"/><text fill="#000000" font-family="sans-serif" font-size="14" lengthAdjust="spacing" textLength="110.4414" x="343.0288" y="1391.1514">RouteController</text></g><g class="participant participant-head" data-entity-uid="part3" data-qualified-name="UpdateUC" id="part3-head"><rect fill="#E2E2F0" height="30.2969" rx="2.5" ry="2.5" style="stroke:#181818;stroke-width:0.5;" width="166.3867" x="584.7837" y="50"/><text fill="#000000" font-family="sans-serif" font-size="14" lengthAdjust="spacing" textLength="152.3867" x="591.7837" y="69.9951">UpdateRouteUseCase</text></g><g class="participant participant-tail" data-entity-uid="part3" data-qualified-name="UpdateUC" id="part3-tail"><rect fill="#E2E2F0" height="30.2969" rx="2.5" ry="2.5" style="stroke:#181818;stroke-width:0.5;" width="166.3867" x="584.7837" y="1371.1563"/><text fill="#000000" font-family="sans-serif" font-size="14" lengthAdjust="spacing" textLength="152.3867" x="591.7837" y="1391.1514">UpdateRouteUseCase</text></g><g class="participant participant-head" data-entity-uid="part4" data-qualified-name="DeactivateUC" id="part4-head"><rect fill="#E2E2F0" height="30.2969" rx="2.5" ry="2.5" style="stroke:#181818;stroke-width:0.5;" width="198.9941" x="792.1426" y="50"/><text fill="#000000" font-family="sans-serif" font-size="14" lengthAdjust="spacing" textLength="184.9941" x="799.1426" y="69.9951">DesactivateRouteUseCase</text></g><g class="participant participant-tail" data-entity-uid="part4" data-qualified-name="DeactivateUC" id="part4-tail"><rect fill="#E2E2F0" height="30.2969" rx="2.5" ry="2.5" style="stroke:#181818;stroke-width:0.5;" width="198.9941" x="792.1426" y="1371.1563"/><text fill="#000000" font-family="sans-serif" font-size="14" lengthAdjust="spacing" textLength="184.9941" x="799.1426" y="1391.1514">DesactivateRouteUseCase</text></g><g class="participant participant-head" data-entity-uid="part5" data-qualified-name="Repo" id="part5-head"><rect fill="#E2E2F0" height="30.2969" rx="2.5" ry="2.5" style="stroke:#181818;stroke-width:0.5;" width="130.3408" x="1033.5347" y="50"/><text fill="#000000" font-family="sans-serif" font-size="14" lengthAdjust="spacing" textLength="116.3408" x="1040.5347" y="69.9951">RouteRepository</text></g><g class="participant participant-tail" data-entity-uid="part5" data-qualified-name="Repo" id="part5-tail"><rect fill="#E2E2F0" height="30.2969" rx="2.5" ry="2.5" style="stroke:#181818;stroke-width:0.5;" width="130.3408" x="1033.5347" y="1371.1563"/><text fill="#000000" font-family="sans-serif" font-size="14" lengthAdjust="spacing" textLength="116.3408" x="1040.5347" y="1391.1514">RouteRepository</text></g><g class="participant participant-head" data-entity-uid="part6" data-qualified-name="HistoryRepo" id="part6-head"><rect fill="#E2E2F0" height="30.2969" rx="2.5" ry="2.5" style="stroke:#181818;stroke-width:0.5;" width="180.1475" x="1173.8755" y="50"/><text fill="#000000" font-family="sans-serif" font-size="14" lengthAdjust="spacing" textLength="166.1475" x="1180.8755" y="69.9951">RouteHistoryRepository</text></g><g class="participant participant-tail" data-entity-uid="part6" data-qualified-name="HistoryRepo" id="part6-tail"><rect fill="#E2E2F0" height="30.2969" rx="2.5" ry="2.5" style="stroke:#181818;stroke-width:0.5;" width="180.1475" x="1173.8755" y="1371.1563"/><text fill="#000000" font-family="sans-serif" font-size="14" lengthAdjust="spacing" textLength="166.1475" x="1180.8755" y="1391.1514">RouteHistoryRepository</text></g><g class="participant participant-head" data-entity-uid="part7" data-qualified-name="DB" id="part7-head"><text fill="#000000" font-family="sans-serif" font-size="14" lengthAdjust="spacing" textLength="66.8008" x="1478.1528" y="77.9951">Database</text><path d="M1496.5532,29 C1496.5532,19 1514.5532,19 1514.5532,19 C1514.5532,19 1532.5532,19 1532.5532,29 L1532.5532,55 C1532.5532,65 1514.5532,65 1514.5532,65 C1514.5532,65 1496.5532,65 1496.5532,55 L1496.5532,29" fill="#E2E2F0" style="stroke:#181818;stroke-width:0.5;"/><path d="M1496.5532,29 C1496.5532,39 1514.5532,39 1514.5532,39 C1514.5532,39 1532.5532,39 1532.5532,29" fill="none" style="stroke:#181818;stroke-width:0.5;"/></g><g class="participant participant-tail" data-entity-uid="part7" data-qualified-name="DB" id="part7-tail"><text fill="#000000" font-family="sans-serif" font-size="14" lengthAdjust="spacing" textLength="66.8008" x="1478.1528" y="1384.1514">Database</text><path d="M1496.5532,1397.4531 C1496.5532,1387.4531 1514.5532,1387.4531 1514.5532,1387.4531 C1514.5532,1387.4531 1532.5532,1387.4531 1532.5532,1397.4531 L1532.5532,1423.4531 C1532.5532,1433.4531 1514.5532,1433.4531 1514.5532,1433.4531 C1514.5532,1433.4531 1496.5532,1433.4531 1496.5532,1423.4531 L1496.5532,1397.4531" fill="#E2E2F0" style="stroke:#181818;stroke-width:0.5;"/><path d="M1496.5532,1397.4531 C1496.5532,1407.4531 1514.5532,1407.4531 1514.5532,1407.4531 C1514.5532,1407.4531 1532.5532,1407.4531 1532.5532,1397.4531" fill="none" style="stroke:#181818;stroke-width:0.5;"/></g><g><title>RouteController</title><rect fill="#FFFFFF" height="591.3281" style="stroke:#181818;stroke-width:1;" width="10" x="393.2495" y="136.5625"/></g><g><title>RouteController</title><rect fill="#FFFFFF" height="591.3281" style="stroke:#181818;stroke-width:1;" width="10" x="393.2495" y="763.8281"/></g><g><title>UpdateRouteUseCase</title><rect fill="#FFFFFF" height="562.1953" style="stroke:#181818;stroke-width:1;" width="10" x="662.9771" y="165.6953"/></g><g><title>DesactivateRouteUseCase</title><rect fill="#FFFFFF" height="562.1953" style="stroke:#181818;stroke-width:1;" width="10" x="886.6396" y="792.9609"/></g><g><title>RouteRepository</title><rect fill="#FFFFFF" height="87.3984" style="stroke:#181818;stroke-width:1;" width="10" x="1093.7051" y="194.8281"/></g><g><title>RouteRepository</title><rect fill="#FFFFFF" height="87.3984" style="stroke:#181818;stroke-width:1;" width="10" x="1093.7051" y="377.625"/></g><g><title>RouteRepository</title><rect fill="#FFFFFF" height="87.3984" style="stroke:#181818;stroke-width:1;" width="10" x="1093.7051" y="822.0938"/></g><g><title>RouteRepository</title><rect fill="#FFFFFF" height="87.3984" style="stroke:#181818;stroke-width:1;" width="10" x="1093.7051" y="1004.8906"/></g><g><title>RouteHistoryRepository</title><rect fill="#FFFFFF" height="87.3984" style="stroke:#181818;stroke-width:1;" width="10" x="1258.9492" y="494.1563"/></g><g><title>RouteHistoryRepository</title><rect fill="#FFFFFF" height="87.3984" style="stroke:#181818;stroke-width:1;" width="10" x="1258.9492" y="1121.4219"/></g><path d="M10,98.2969 L74.4429,98.2969 L74.4429,105.4297 L64.4429,115.4297 L10,115.4297 L10,98.2969" fill="#EEEEEE" style="stroke:#000000;stroke-width:1.5;"/><rect fill="none" height="1256.8594" style="stroke:#000000;stroke-width:1.5;" width="1560.9536" x="10" y="98.2969"/><text fill="#000000" font-family="sans-serif" font-size="13" font-weight="bold" lengthAdjust="spacing" textLength="19.4429" x="25" y="111.3638">alt</text><text fill="#000000" font-family="sans-serif" font-size="11" font-weight="bold" lengthAdjust="spacing" textLength="138.1714" x="89.4429" y="110.5073">[Update route details]</text><g class="message" data-entity-1="part1" data-entity-2="part2" id="msg1"><polygon fill="#181818" points="381.2495,132.5625,391.2495,136.5625,381.2495,140.5625,385.2495,136.5625" style="stroke:#181818;stroke-width:1;"/><line style="stroke:#181818;stroke-width:1;" x1="128.5117" x2="387.2495" y1="136.5625" y2="136.5625"/><text fill="#000000" font-family="sans-serif" font-size="13" font-weight="bold" lengthAdjust="spacing" textLength="9.0454" x="135.5117" y="131.4966">1</text><text fill="#000000" font-family="sans-serif" font-size="13" lengthAdjust="spacing" textLength="223.3296" x="148.5571" y="131.4966">PUT /api/routes/{id} (updateData)</text></g><g class="message" data-entity-1="part2" data-entity-2="part3" id="msg2"><polygon fill="#181818" points="650.9771,161.6953,660.9771,165.6953,650.9771,169.6953,654.9771,165.6953" style="stroke:#181818;stroke-width:1;"/><line style="stroke:#181818;stroke-width:1;" x1="403.2495" x2="656.9771" y1="165.6953" y2="165.6953"/><text fill="#000000" font-family="sans-serif" font-size="13" font-weight="bold" lengthAdjust="spacing" textLength="9.0454" x="410.2495" y="160.6294">2</text><text fill="#000000" font-family="sans-serif" font-size="13" lengthAdjust="spacing" textLength="159.2881" x="423.2949" y="160.6294">execute(id, updateData)</text></g><g class="message" data-entity-1="part3" data-entity-2="part5" id="msg3"><polygon fill="#181818" points="1081.7051,190.8281,1091.7051,194.8281,1081.7051,198.8281,1085.7051,194.8281" style="stroke:#181818;stroke-width:1;"/><line style="stroke:#181818;stroke-width:1;" x1="672.9771" x2="1087.7051" y1="194.8281" y2="194.8281"/><text fill="#000000" font-family="sans-serif" font-size="13" font-weight="bold" lengthAdjust="spacing" textLength="9.0454" x="679.9771" y="189.7622">3</text><text fill="#000000" font-family="sans-serif" font-size="13" lengthAdjust="spacing" textLength="75.3848" x="693.0225" y="189.7622">findById(id)</text></g><g class="message" data-entity-1="part5" data-entity-2="part7" id="msg4"><polygon fill="#181818" points="1502.5532,219.9609,1512.5532,223.9609,1502.5532,227.9609,1506.5532,223.9609" style="stroke:#181818;stroke-width:1;"/><line style="stroke:#181818;stroke-width:1;" x1="1103.7051" x2="1508.5532" y1="223.9609" y2="223.9609"/><text fill="#000000" font-family="sans-serif" font-size="13" font-weight="bold" lengthAdjust="spacing" textLength="9.0454" x="1110.7051" y="218.895">4</text><text fill="#000000" font-family="sans-serif" font-size="13" lengthAdjust="spacing" textLength="224.0723" x="1123.7505" y="218.895">SELECT FROM route WHERE id = ?</text></g><g class="message" data-entity-1="part7" data-entity-2="part5" id="msg5"><polygon fill="#181818" points="1114.7051,249.0938,1104.7051,253.0938,1114.7051,257.0938,1110.7051,253.0938" style="stroke:#181818;stroke-width:1;"/><line style="stroke:#181818;stroke-width:1;stroke-dasharray:2,2;" x1="1108.7051" x2="1513.5532" y1="253.0938" y2="253.0938"/><text fill="#000000" font-family="sans-serif" font-size="13" font-weight="bold" lengthAdjust="spacing" textLength="9.0454" x="1120.7051" y="248.0278">5</text><text fill="#000000" font-family="sans-serif" font-size="13" lengthAdjust="spacing" textLength="80.8057" x="1133.7505" y="248.0278">route record</text></g><g class="message" data-entity-1="part5" data-entity-2="part3" id="msg6"><polygon fill="#181818" points="683.9771,278.2266,673.9771,282.2266,683.9771,286.2266,679.9771,282.2266" style="stroke:#181818;stroke-width:1;"/><line style="stroke:#181818;stroke-width:1;stroke-dasharray:2,2;" x1="677.9771" x2="1097.7051" y1="282.2266" y2="282.2266"/><text fill="#000000" font-family="sans-serif" font-size="13" font-weight="bold" lengthAdjust="spacing" textLength="9.0454" x="689.9771" y="277.1606">6</text><text fill="#000000" font-family="sans-serif" font-size="13" lengthAdjust="spacing" textLength="115.0703" x="703.0225" y="277.1606">Optional&lt;Route&gt;</text></g><path d="M20,297.2266 L84.4429,297.2266 L84.4429,304.3594 L74.4429,314.3594 L20,314.3594 L20,297.2266" fill="#EEEEEE" style="stroke:#000000;stroke-width:1.5;"/><rect fill="none" height="423.6641" style="stroke:#000000;stroke-width:1.5;" width="1540.9536" x="20" y="297.2266"/><text fill="#000000" font-family="sans-serif" font-size="13" font-weight="bold" lengthAdjust="spacing" textLength="19.4429" x="35" y="310.2935">alt</text><text fill="#000000" font-family="sans-serif" font-size="11" font-weight="bold" lengthAdjust="spacing" textLength="86.3403" x="99.4429" y="309.437">[Route found]</text><g class="message" data-entity-1="part3" data-entity-2="part3" id="msg7"><line style="stroke:#181818;stroke-width:1;" x1="672.9771" x2="714.9771" y1="335.4922" y2="335.4922"/><line style="stroke:#181818;stroke-width:1;" x1="714.9771" x2="714.9771" y1="335.4922" y2="348.4922"/><line style="stroke:#181818;stroke-width:1;" x1="673.9771" x2="714.9771" y1="348.4922" y2="348.4922"/><polygon fill="#181818" points="683.9771,344.4922,673.9771,348.4922,683.9771,352.4922,679.9771,348.4922" style="stroke:#181818;stroke-width:1;"/><text fill="#000000" font-family="sans-serif" font-size="13" font-weight="bold" lengthAdjust="spacing" textLength="9.0454" x="679.9771" y="330.4263">7</text><text fill="#000000" font-family="sans-serif" font-size="13" lengthAdjust="spacing" textLength="176.6172" x="693.0225" y="330.4263">applyUpdates(updateData)</text></g><g class="message" data-entity-1="part3" data-entity-2="part5" id="msg8"><polygon fill="#181818" points="1081.7051,373.625,1091.7051,377.625,1081.7051,381.625,1085.7051,377.625" style="stroke:#181818;stroke-width:1;"/><line style="stroke:#181818;stroke-width:1;" x1="672.9771" x2="1087.7051" y1="377.625" y2="377.625"/><text fill="#000000" font-family="sans-serif" font-size="13" font-weight="bold" lengthAdjust="spacing" textLength="9.0454" x="679.9771" y="372.5591">8</text><text fill="#000000" font-family="sans-serif" font-size="13" lengthAdjust="spacing" textLength="132.9517" x="693.0225" y="372.5591">save(updatedRoute)</text></g><g class="message" data-entity-1="part5" data-entity-2="part7" id="msg9"><polygon fill="#181818" points="1502.5532,402.7578,1512.5532,406.7578,1502.5532,410.7578,1506.5532,406.7578" style="stroke:#181818;stroke-width:1;"/><line style="stroke:#181818;stroke-width:1;" x1="1103.7051" x2="1508.5532" y1="406.7578" y2="406.7578"/><text fill="#000000" font-family="sans-serif" font-size="13" font-weight="bold" lengthAdjust="spacing" textLength="9.0454" x="1110.7051" y="401.6919">9</text><text fill="#000000" font-family="sans-serif" font-size="13" lengthAdjust="spacing" textLength="230.5215" x="1123.7505" y="401.6919">UPDATE route SET ... WHERE id = ?</text></g><g class="message" data-entity-1="part7" data-entity-2="part5" id="msg10"><polygon fill="#181818" points="1114.7051,431.8906,1104.7051,435.8906,1114.7051,439.8906,1110.7051,435.8906" style="stroke:#181818;stroke-width:1;"/><line style="stroke:#181818;stroke-width:1;stroke-dasharray:2,2;" x1="1108.7051" x2="1513.5532" y1="435.8906" y2="435.8906"/><text fill="#000000" font-family="sans-serif" font-size="13" font-weight="bold" lengthAdjust="spacing" textLength="18.0908" x="1120.7051" y="430.8247">10</text><text fill="#000000" font-family="sans-serif" font-size="13" lengthAdjust="spacing" textLength="50.8511" x="1142.7959" y="430.8247">success</text></g><g class="message" data-entity-1="part5" data-entity-2="part3" id="msg11"><polygon fill="#181818" points="683.9771,461.0234,673.9771,465.0234,683.9771,469.0234,679.9771,465.0234" style="stroke:#181818;stroke-width:1;"/><line style="stroke:#181818;stroke-width:1;stroke-dasharray:2,2;" x1="677.9771" x2="1097.7051" y1="465.0234" y2="465.0234"/><text fill="#000000" font-family="sans-serif" font-size="13" font-weight="bold" lengthAdjust="spacing" textLength="18.0908" x="689.9771" y="459.9575">11</text><text fill="#000000" font-family="sans-serif" font-size="13" lengthAdjust="spacing" textLength="38.3208" x="712.0679" y="459.9575">Route</text></g><g class="message" data-entity-1="part3" data-entity-2="part6" id="msg12"><polygon fill="#181818" points="1246.9492,490.1563,1256.9492,494.1563,1246.9492,498.1563,1250.9492,494.1563" style="stroke:#181818;stroke-width:1;"/><line style="stroke:#181818;stroke-width:1;" x1="672.9771" x2="1252.9492" y1="494.1563" y2="494.1563"/><text fill="#000000" font-family="sans-serif" font-size="13" font-weight="bold" lengthAdjust="spacing" textLength="18.0908" x="679.9771" y="489.0903">12</text><text fill="#000000" font-family="sans-serif" font-size="13" lengthAdjust="spacing" textLength="119.8755" x="702.0679" y="489.0903">save(historyEntry)</text></g><g class="message" data-entity-1="part6" data-entity-2="part7" id="msg13"><polygon fill="#181818" points="1502.5532,519.2891,1512.5532,523.2891,1502.5532,527.2891,1506.5532,523.2891" style="stroke:#181818;stroke-width:1;"/><line style="stroke:#181818;stroke-width:1;" x1="1268.9492" x2="1508.5532" y1="523.2891" y2="523.2891"/><text fill="#000000" font-family="sans-serif" font-size="13" font-weight="bold" lengthAdjust="spacing" textLength="18.0908" x="1275.9492" y="518.2231">13</text><text fill="#000000" font-family="sans-serif" font-size="13" lengthAdjust="spacing" textLength="199.5132" x="1298.04" y="518.2231">INSERT INTO route_history (...)</text></g><g class="message" data-entity-1="part7" data-entity-2="part6" id="msg14"><polygon fill="#181818" points="1279.9492,548.4219,1269.9492,552.4219,1279.9492,556.4219,1275.9492,552.4219" style="stroke:#181818;stroke-width:1;"/><line style="stroke:#181818;stroke-width:1;stroke-dasharray:2,2;" x1="1273.9492" x2="1513.5532" y1="552.4219" y2="552.4219"/><text fill="#000000" font-family="sans-serif" font-size="13" font-weight="bold" lengthAdjust="spacing" textLength="18.0908" x="1285.9492" y="547.356">14</text><text fill="#000000" font-family="sans-serif" font-size="13" lengthAdjust="spacing" textLength="50.8511" x="1308.04" y="547.356">success</text></g><g class="message" data-entity-1="part6" data-entity-2="part3" id="msg15"><polygon fill="#181818" points="683.9771,577.5547,673.9771,581.5547,683.9771,585.5547,679.9771,581.5547" style="stroke:#181818;stroke-width:1;"/><line style="stroke:#181818;stroke-width:1;stroke-dasharray:2,2;" x1="677.9771" x2="1262.9492" y1="581.5547" y2="581.5547"/><text fill="#000000" font-family="sans-serif" font-size="13" font-weight="bold" lengthAdjust="spacing" textLength="18.0908" x="689.9771" y="576.4888">15</text><text fill="#000000" font-family="sans-serif" font-size="13" lengthAdjust="spacing" textLength="84.5698" x="712.0679" y="576.4888">RouteHistory</text></g><g class="message" data-entity-1="part3" data-entity-2="part2" id="msg16"><polygon fill="#181818" points="414.2495,606.6875,404.2495,610.6875,414.2495,614.6875,410.2495,610.6875" style="stroke:#181818;stroke-width:1;"/><line style="stroke:#181818;stroke-width:1;stroke-dasharray:2,2;" x1="408.2495" x2="661.9771" y1="610.6875" y2="610.6875"/><text fill="#000000" font-family="sans-serif" font-size="13" font-weight="bold" lengthAdjust="spacing" textLength="18.0908" x="420.2495" y="605.6216">16</text><text fill="#000000" font-family="sans-serif" font-size="13" lengthAdjust="spacing" textLength="38.3208" x="442.3403" y="605.6216">Route</text></g><g class="message" data-entity-1="part2" data-entity-2="part1" id="msg17"><polygon fill="#181818" points="139.5117,635.8203,129.5117,639.8203,139.5117,643.8203,135.5117,639.8203" style="stroke:#181818;stroke-width:1;"/><line style="stroke:#181818;stroke-width:1;stroke-dasharray:2,2;" x1="133.5117" x2="392.2495" y1="639.8203" y2="639.8203"/><text fill="#000000" font-family="sans-serif" font-size="13" font-weight="bold" lengthAdjust="spacing" textLength="18.0908" x="145.5117" y="634.7544">17</text><text fill="#000000" font-family="sans-serif" font-size="13" lengthAdjust="spacing" textLength="47.7026" x="167.6025" y="634.7544">200 OK</text></g><line style="stroke:#000000;stroke-width:1;stroke-dasharray:2,2;" x1="20" x2="1560.9536" y1="648.8203" y2="648.8203"/><text fill="#000000" font-family="sans-serif" font-size="11" font-weight="bold" lengthAdjust="spacing" textLength="110.8164" x="25" y="659.0308">[Route not found]</text><g class="message" data-entity-1="part3" data-entity-2="part2" id="msg18"><polygon fill="#181818" points="414.2495,679.7578,404.2495,683.7578,414.2495,687.7578,410.2495,683.7578" style="stroke:#181818;stroke-width:1;"/><line style="stroke:#181818;stroke-width:1;stroke-dasharray:2,2;" x1="408.2495" x2="661.9771" y1="683.7578" y2="683.7578"/><text fill="#000000" font-family="sans-serif" font-size="13" font-weight="bold" lengthAdjust="spacing" textLength="18.0908" x="420.2495" y="678.6919">18</text><text fill="#000000" font-family="sans-serif" font-size="13" lengthAdjust="spacing" textLength="213.6367" x="442.3403" y="678.6919">throws RouteNotFoundException</text></g><g class="message" data-entity-1="part2" data-entity-2="part1" id="msg19"><polygon fill="#181818" points="139.5117,708.8906,129.5117,712.8906,139.5117,716.8906,135.5117,712.8906" style="stroke:#181818;stroke-width:1;"/><line style="stroke:#181818;stroke-width:1;stroke-dasharray:2,2;" x1="133.5117" x2="392.2495" y1="712.8906" y2="712.8906"/><text fill="#000000" font-family="sans-serif" font-size="13" font-weight="bold" lengthAdjust="spacing" textLength="18.0908" x="145.5117" y="707.8247">19</text><text fill="#000000" font-family="sans-serif" font-size="13" lengthAdjust="spacing" textLength="96.0146" x="167.6025" y="707.8247">404 Not Found</text></g><line style="stroke:#000000;stroke-width:1;stroke-dasharray:2,2;" x1="10" x2="1570.9536" y1="728.8906" y2="728.8906"/><text fill="#000000" font-family="sans-serif" font-size="11" font-weight="bold" lengthAdjust="spacing" textLength="114.2915" x="15" y="739.1011">[Deactivate route]</text><g class="message" data-entity-1="part1" data-entity-2="part2" id="msg20"><polygon fill="#181818" points="381.2495,759.8281,391.2495,763.8281,381.2495,767.8281,385.2495,763.8281" style="stroke:#181818;stroke-width:1;"/><line style="stroke:#181818;stroke-width:1;" x1="128.5117" x2="387.2495" y1="763.8281" y2="763.8281"/><text fill="#000000" font-family="sans-serif" font-size="13" font-weight="bold" lengthAdjust="spacing" textLength="18.0908" x="135.5117" y="758.7622">20</text><text fill="#000000" font-family="sans-serif" font-size="13" lengthAdjust="spacing" textLength="223.647" x="157.6025" y="758.7622">PATCH /api/routes/{id}/deactivate</text></g><g class="message" data-entity-1="part2" data-entity-2="part4" id="msg21"><polygon fill="#181818" points="874.6396,788.9609,884.6396,792.9609,874.6396,796.9609,878.6396,792.9609" style="stroke:#181818;stroke-width:1;"/><line style="stroke:#181818;stroke-width:1;" x1="403.2495" x2="880.6396" y1="792.9609" y2="792.9609"/><text fill="#000000" font-family="sans-serif" font-size="13" font-weight="bold" lengthAdjust="spacing" textLength="18.0908" x="410.2495" y="787.895">21</text><text fill="#000000" font-family="sans-serif" font-size="13" lengthAdjust="spacing" textLength="74.1787" x="432.3403" y="787.895">execute(id)</text></g><g class="message" data-entity-1="part4" data-entity-2="part5" id="msg22"><polygon fill="#181818" points="1081.7051,818.0938,1091.7051,822.0938,1081.7051,826.0938,1085.7051,822.0938" style="stroke:#181818;stroke-width:1;"/><line style="stroke:#181818;stroke-width:1;" x1="896.6396" x2="1087.7051" y1="822.0938" y2="822.0938"/><text fill="#000000" font-family="sans-serif" font-size="13" font-weight="bold" lengthAdjust="spacing" textLength="18.0908" x="903.6396" y="817.0278">22</text><text fill="#000000" font-family="sans-serif" font-size="13" lengthAdjust="spacing" textLength="75.3848" x="925.7305" y="817.0278">findById(id)</text></g><g class="message" data-entity-1="part5" data-entity-2="part7" id="msg23"><polygon fill="#181818" points="1502.5532,847.2266,1512.5532,851.2266,1502.5532,855.2266,1506.5532,851.2266" style="stroke:#181818;stroke-width:1;"/><line style="stroke:#181818;stroke-width:1;" x1="1103.7051" x2="1508.5532" y1="851.2266" y2="851.2266"/><text fill="#000000" font-family="sans-serif" font-size="13" font-weight="bold" lengthAdjust="spacing" textLength="18.0908" x="1110.7051" y="846.1606">23</text><text fill="#000000" font-family="sans-serif" font-size="13" lengthAdjust="spacing" textLength="224.0723" x="1132.7959" y="846.1606">SELECT FROM route WHERE id = ?</text></g><g class="message" data-entity-1="part7" data-entity-2="part5" id="msg24"><polygon fill="#181818" points="1114.7051,876.3594,1104.7051,880.3594,1114.7051,884.3594,1110.7051,880.3594" style="stroke:#181818;stroke-width:1;"/><line style="stroke:#181818;stroke-width:1;stroke-dasharray:2,2;" x1="1108.7051" x2="1513.5532" y1="880.3594" y2="880.3594"/><text fill="#000000" font-family="sans-serif" font-size="13" font-weight="bold" lengthAdjust="spacing" textLength="18.0908" x="1120.7051" y="875.2935">24</text><text fill="#000000" font-family="sans-serif" font-size="13" lengthAdjust="spacing" textLength="80.8057" x="1142.7959" y="875.2935">route record</text></g><g class="message" data-entity-1="part5" data-entity-2="part4" id="msg25"><polygon fill="#181818" points="907.6396,905.4922,897.6396,909.4922,907.6396,913.4922,903.6396,909.4922" style="stroke:#181818;stroke-width:1;"/><line style="stroke:#181818;stroke-width:1;stroke-dasharray:2,2;" x1="901.6396" x2="1097.7051" y1="909.4922" y2="909.4922"/><text fill="#000000" font-family="sans-serif" font-size="13" font-weight="bold" lengthAdjust="spacing" textLength="18.0908" x="913.6396" y="904.4263">25</text><text fill="#000000" font-family="sans-serif" font-size="13" lengthAdjust="spacing" textLength="115.0703" x="935.7305" y="904.4263">Optional&lt;Route&gt;</text></g><path d="M20,924.4922 L84.4429,924.4922 L84.4429,931.625 L74.4429,941.625 L20,941.625 L20,924.4922" fill="#EEEEEE" style="stroke:#000000;stroke-width:1.5;"/><rect fill="none" height="423.6641" style="stroke:#000000;stroke-width:1.5;" width="1540.9536" x="20" y="924.4922"/><text fill="#000000" font-family="sans-serif" font-size="13" font-weight="bold" lengthAdjust="spacing" textLength="19.4429" x="35" y="937.5591">alt</text><text fill="#000000" font-family="sans-serif" font-size="11" font-weight="bold" lengthAdjust="spacing" textLength="86.3403" x="99.4429" y="936.7026">[Route found]</text><g class="message" data-entity-1="part4" data-entity-2="part4" id="msg26"><line style="stroke:#181818;stroke-width:1;" x1="896.6396" x2="938.6396" y1="962.7578" y2="962.7578"/><line style="stroke:#181818;stroke-width:1;" x1="938.6396" x2="938.6396" y1="962.7578" y2="975.7578"/><line style="stroke:#181818;stroke-width:1;" x1="897.6396" x2="938.6396" y1="975.7578" y2="975.7578"/><polygon fill="#181818" points="907.6396,971.7578,897.6396,975.7578,907.6396,979.7578,903.6396,975.7578" style="stroke:#181818;stroke-width:1;"/><text fill="#000000" font-family="sans-serif" font-size="13" font-weight="bold" lengthAdjust="spacing" textLength="18.0908" x="903.6396" y="957.6919">26</text><text fill="#000000" font-family="sans-serif" font-size="13" lengthAdjust="spacing" textLength="127.7656" x="925.7305" y="957.6919">mark route inactive</text></g><g class="message" data-entity-1="part4" data-entity-2="part5" id="msg27"><polygon fill="#181818" points="1081.7051,1000.8906,1091.7051,1004.8906,1081.7051,1008.8906,1085.7051,1004.8906" style="stroke:#181818;stroke-width:1;"/><line style="stroke:#181818;stroke-width:1;" x1="896.6396" x2="1087.7051" y1="1004.8906" y2="1004.8906"/><text fill="#000000" font-family="sans-serif" font-size="13" font-weight="bold" lengthAdjust="spacing" textLength="18.0908" x="903.6396" y="999.8247">27</text><text fill="#000000" font-family="sans-serif" font-size="13" lengthAdjust="spacing" textLength="155.9746" x="925.7305" y="999.8247">save(deactivatedRoute)</text></g><g class="message" data-entity-1="part5" data-entity-2="part7" id="msg28"><polygon fill="#181818" points="1502.5532,1030.0234,1512.5532,1034.0234,1502.5532,1038.0234,1506.5532,1034.0234" style="stroke:#181818;stroke-width:1;"/><line style="stroke:#181818;stroke-width:1;" x1="1103.7051" x2="1508.5532" y1="1034.0234" y2="1034.0234"/><text fill="#000000" font-family="sans-serif" font-size="13" font-weight="bold" lengthAdjust="spacing" textLength="18.0908" x="1110.7051" y="1028.9575">28</text><text fill="#000000" font-family="sans-serif" font-size="13" lengthAdjust="spacing" textLength="307.7217" x="1132.7959" y="1028.9575">UPDATE route SET active = false WHERE id = ?</text></g><g class="message" data-entity-1="part7" data-entity-2="part5" id="msg29"><polygon fill="#181818" points="1114.7051,1059.1563,1104.7051,1063.1563,1114.7051,1067.1563,1110.7051,1063.1563" style="stroke:#181818;stroke-width:1;"/><line style="stroke:#181818;stroke-width:1;stroke-dasharray:2,2;" x1="1108.7051" x2="1513.5532" y1="1063.1563" y2="1063.1563"/><text fill="#000000" font-family="sans-serif" font-size="13" font-weight="bold" lengthAdjust="spacing" textLength="18.0908" x="1120.7051" y="1058.0903">29</text><text fill="#000000" font-family="sans-serif" font-size="13" lengthAdjust="spacing" textLength="50.8511" x="1142.7959" y="1058.0903">success</text></g><g class="message" data-entity-1="part5" data-entity-2="part4" id="msg30"><polygon fill="#181818" points="907.6396,1088.2891,897.6396,1092.2891,907.6396,1096.2891,903.6396,1092.2891" style="stroke:#181818;stroke-width:1;"/><line style="stroke:#181818;stroke-width:1;stroke-dasharray:2,2;" x1="901.6396" x2="1097.7051" y1="1092.2891" y2="1092.2891"/><text fill="#000000" font-family="sans-serif" font-size="13" font-weight="bold" lengthAdjust="spacing" textLength="18.0908" x="913.6396" y="1087.2231">30</text><text fill="#000000" font-family="sans-serif" font-size="13" lengthAdjust="spacing" textLength="38.3208" x="935.7305" y="1087.2231">Route</text></g><g class="message" data-entity-1="part4" data-entity-2="part6" id="msg31"><polygon fill="#181818" points="1246.9492,1117.4219,1256.9492,1121.4219,1246.9492,1125.4219,1250.9492,1121.4219" style="stroke:#181818;stroke-width:1;"/><line style="stroke:#181818;stroke-width:1;" x1="896.6396" x2="1252.9492" y1="1121.4219" y2="1121.4219"/><text fill="#000000" font-family="sans-serif" font-size="13" font-weight="bold" lengthAdjust="spacing" textLength="18.0908" x="903.6396" y="1116.356">31</text><text fill="#000000" font-family="sans-serif" font-size="13" lengthAdjust="spacing" textLength="119.8755" x="925.7305" y="1116.356">save(historyEntry)</text></g><g class="message" data-entity-1="part6" data-entity-2="part7" id="msg32"><polygon fill="#181818" points="1502.5532,1146.5547,1512.5532,1150.5547,1502.5532,1154.5547,1506.5532,1150.5547" style="stroke:#181818;stroke-width:1;"/><line style="stroke:#181818;stroke-width:1;" x1="1268.9492" x2="1508.5532" y1="1150.5547" y2="1150.5547"/><text fill="#000000" font-family="sans-serif" font-size="13" font-weight="bold" lengthAdjust="spacing" textLength="18.0908" x="1275.9492" y="1145.4888">32</text><text fill="#000000" font-family="sans-serif" font-size="13" lengthAdjust="spacing" textLength="199.5132" x="1298.04" y="1145.4888">INSERT INTO route_history (...)</text></g><g class="message" data-entity-1="part7" data-entity-2="part6" id="msg33"><polygon fill="#181818" points="1279.9492,1175.6875,1269.9492,1179.6875,1279.9492,1183.6875,1275.9492,1179.6875" style="stroke:#181818;stroke-width:1;"/><line style="stroke:#181818;stroke-width:1;stroke-dasharray:2,2;" x1="1273.9492" x2="1513.5532" y1="1179.6875" y2="1179.6875"/><text fill="#000000" font-family="sans-serif" font-size="13" font-weight="bold" lengthAdjust="spacing" textLength="18.0908" x="1285.9492" y="1174.6216">33</text><text fill="#000000" font-family="sans-serif" font-size="13" lengthAdjust="spacing" textLength="50.8511" x="1308.04" y="1174.6216">success</text></g><g class="message" data-entity-1="part6" data-entity-2="part4" id="msg34"><polygon fill="#181818" points="907.6396,1204.8203,897.6396,1208.8203,907.6396,1212.8203,903.6396,1208.8203" style="stroke:#181818;stroke-width:1;"/><line style="stroke:#181818;stroke-width:1;stroke-dasharray:2,2;" x1="901.6396" x2="1262.9492" y1="1208.8203" y2="1208.8203"/><text fill="#000000" font-family="sans-serif" font-size="13" font-weight="bold" lengthAdjust="spacing" textLength="18.0908" x="913.6396" y="1203.7544">34</text><text fill="#000000" font-family="sans-serif" font-size="13" lengthAdjust="spacing" textLength="84.5698" x="935.7305" y="1203.7544">RouteHistory</text></g><g class="message" data-entity-1="part4" data-entity-2="part2" id="msg35"><polygon fill="#181818" points="414.2495,1233.9531,404.2495,1237.9531,414.2495,1241.9531,410.2495,1237.9531" style="stroke:#181818;stroke-width:1;"/><line style="stroke:#181818;stroke-width:1;stroke-dasharray:2,2;" x1="408.2495" x2="885.6396" y1="1237.9531" y2="1237.9531"/><text fill="#000000" font-family="sans-serif" font-size="13" font-weight="bold" lengthAdjust="spacing" textLength="18.0908" x="420.2495" y="1232.8872">35</text><text fill="#000000" font-family="sans-serif" font-size="13" lengthAdjust="spacing" textLength="38.3208" x="442.3403" y="1232.8872">Route</text></g><g class="message" data-entity-1="part2" data-entity-2="part1" id="msg36"><polygon fill="#181818" points="139.5117,1263.0859,129.5117,1267.0859,139.5117,1271.0859,135.5117,1267.0859" style="stroke:#181818;stroke-width:1;"/><line style="stroke:#181818;stroke-width:1;stroke-dasharray:2,2;" x1="133.5117" x2="392.2495" y1="1267.0859" y2="1267.0859"/><text fill="#000000" font-family="sans-serif" font-size="13" font-weight="bold" lengthAdjust="spacing" textLength="18.0908" x="145.5117" y="1262.02">36</text><text fill="#000000" font-family="sans-serif" font-size="13" lengthAdjust="spacing" textLength="47.7026" x="167.6025" y="1262.02">200 OK</text></g><line style="stroke:#000000;stroke-width:1;stroke-dasharray:2,2;" x1="20" x2="1560.9536" y1="1276.0859" y2="1276.0859"/><text fill="#000000" font-family="sans-serif" font-size="11" font-weight="bold" lengthAdjust="spacing" textLength="110.8164" x="25" y="1286.2964">[Route not found]</text><g class="message" data-entity-1="part4" data-entity-2="part2" id="msg37"><polygon fill="#181818" points="414.2495,1307.0234,404.2495,1311.0234,414.2495,1315.0234,410.2495,1311.0234" style="stroke:#181818;stroke-width:1;"/><line style="stroke:#181818;stroke-width:1;stroke-dasharray:2,2;" x1="408.2495" x2="885.6396" y1="1311.0234" y2="1311.0234"/><text fill="#000000" font-family="sans-serif" font-size="13" font-weight="bold" lengthAdjust="spacing" textLength="18.0908" x="420.2495" y="1305.9575">37</text><text fill="#000000" font-family="sans-serif" font-size="13" lengthAdjust="spacing" textLength="213.6367" x="442.3403" y="1305.9575">throws RouteNotFoundException</text></g><g class="message" data-entity-1="part2" data-entity-2="part1" id="msg38"><polygon fill="#181818" points="139.5117,1336.1563,129.5117,1340.1563,139.5117,1344.1563,135.5117,1340.1563" style="stroke:#181818;stroke-width:1;"/><line style="stroke:#181818;stroke-width:1;stroke-dasharray:2,2;" x1="133.5117" x2="392.2495" y1="1340.1563" y2="1340.1563"/><text fill="#000000" font-family="sans-serif" font-size="13" font-weight="bold" lengthAdjust="spacing" textLength="18.0908" x="145.5117" y="1335.0903">38</text><text fill="#000000" font-family="sans-serif" font-size="13" lengthAdjust="spacing" textLength="96.0146" x="167.6025" y="1335.0903">404 Not Found</text></g><?plantuml-src rLHHQzim47xNhpZobCAQXD6dihKaZalAjgOa3diSggLGKTSobjmrZFttdIGdbXHtZAum5WYnTTztTzz5tz56ox9vlECreRcMDGocMPB066OqVv3RhSWvB2jUKumDW2gO6XIfQAr5BYfQQXYiPADv8ajTowBW3fRekWXHcufHpIrsetX25RT0Txn9Gl2SAsn7FFKnvdmVYbaMkkALL0ARt5cqUUr1BOGoa0ZidH9iYzvXJMocVNBLPuJGGhTzGssI0UEQYa8HEnmulR3ouHnkDncCQIN65gR6FmJx2SF6KatM4xANuWP6B0_v-wbW3lxCSoGF1Ni7lSp31Cc1XHcC1cHlHSbcksk6T8zY1Le48kSpnAtJpscImTLg-QNLz7MHhb8G33x29K7CQPVK0MgUovgrQSAUbvKMigJ51plh2y9uMDfEqCPWAvkI4S2FtxsNYrPLiNFlAXXTp6cRK_I9jpXcIpXas80v2VHlRkVJB6sLhTCCHgDHE0932SUWcZpdIdd9mivjTHkDzSUjU_Tkh-3U7QNegbsamB-b9k2pztgkRzRfAiEVREb4VMiJmX2LdVXgekAUg21nZxOs7akC--kKTixePkEkF4QSUSxX_MG2oq-45-WzTqTAgNllIPTEtzVoktBm6wcl33XzphczX_rbpYPdW52mMCBnwr_JWwcyCsjHsrQtWjnmZusFMtHnPFrnb-mbu_lBBJ2_vzvW0PA0yK-C7_NyAlF7AgASZxH-QAkBqaPuByrtK5VtR_Q0AuQps5Bppxzc9KHQVhyMOaN_oMheq_Y7wo5K_2OhugMKRxuc0YiUhOgI_G80?></g></svg>