<?plantuml 1.2026.1?><svg xmlns="http://www.w3.org/2000/svg" xmlns:xlink="http://www.w3.org/1999/xlink" contentStyleType="text/css" data-diagram-type="SEQUENCE" height="344px" preserveAspectRatio="none" style="width:454px;height:344px;background:#FFFFFF;" version="1.1" viewBox="0 0 454 344" width="454px" zoomAndPan="magnify"><defs/><g><g><title>System</title><rect fill="#FFFFFF" height="29.1328" style="stroke:#181818;stroke-width:1;" width="10" x="398.9346" y="136.5625"/></g><g><title>System</title><rect fill="#FFFFFF" height="29.1328" style="stroke:#181818;stroke-width:1;" width="10" x="398.9346" y="209.6328"/></g><rect fill="none" height="148.4688" style="stroke:#000000;stroke-width:1.5;" width="437.0376" x="10" y="98.2969"/><g class="participant-lifeline" data-entity-uid="part1" data-qualified-name="Actor" id="part1-lifeline"><g><title>ATCC . Backoffice Operator</title><rect fill="#000000" fill-opacity="0.00000" height="182.4688" width="8" x="114.5117" y="81.2969"/><line style="stroke:#181818;stroke-width:0.5;stroke-dasharray:5,5;" x1="118" x2="118" y1="81.2969" y2="263.7656"/></g></g><g class="participant-lifeline" data-entity-uid="part2" data-qualified-name="Sys" id="part2-lifeline"><g><title>System</title><rect fill="#000000" fill-opacity="0.00000" height="182.4688" width="8" x="399.9346" y="81.2969"/><line style="stroke:#181818;stroke-width:0.5;stroke-dasharray:5,5;" x1="403.8315" x2="403.8315" y1="81.2969" y2="263.7656"/></g></g><g class="participant participant-head" data-entity-uid="part1" data-qualified-name="Actor" id="part1-head"><text fill="#000000" font-family="sans-serif" font-size="14" lengthAdjust="spacing" textLength="191.0234" x="20" y="77.9951">ATCC / Backoffice Operator</text><ellipse cx="118.5117" cy="13.5" fill="#E2E2F0" rx="8" ry="8" style="stroke:#181818;stroke-width:0.5;"/><path d="M118.5117,21.5 L118.5117,48.5 M105.5117,29.5 L131.5117,29.5 M118.5117,48.5 L105.5117,63.5 M118.5117,48.5 L131.5117,63.5" fill="none" style="stroke:#181818;stroke-width:0.5;"/></g><g class="participant participant-tail" data-entity-uid="part1" data-qualified-name="Actor" id="part1-tail"><text fill="#000000" font-family="sans-serif" font-size="14" lengthAdjust="spacing" textLength="191.0234" x="20" y="275.7607">ATCC / Backoffice Operator</text><ellipse cx="118.5117" cy="287.5625" fill="#E2E2F0" rx="8" ry="8" style="stroke:#181818;stroke-width:0.5;"/><path d="M118.5117,295.5625 L118.5117,322.5625 M105.5117,303.5625 L131.5117,303.5625 M118.5117,322.5625 L105.5117,337.5625 M118.5117,322.5625 L131.5117,337.5625" fill="none" style="stroke:#181818;stroke-width:0.5;"/></g><g class="participant participant-head" data-entity-uid="part2" data-qualified-name="Sys" id="part2-head"><rect fill="#E2E2F0" height="30.2969" rx="2.5" ry="2.5" style="stroke:#181818;stroke-width:0.5;" width="66.2061" x="370.8315" y="50"/><text fill="#000000" font-family="sans-serif" font-size="14" lengthAdjust="spacing" textLength="52.2061" x="377.8315" y="69.9951">System</text></g><g class="participant participant-tail" data-entity-uid="part2" data-qualified-name="Sys" id="part2-tail"><rect fill="#E2E2F0" height="30.2969" rx="2.5" ry="2.5" style="stroke:#181818;stroke-width:0.5;" width="66.2061" x="370.8315" y="262.7656"/><text fill="#000000" font-family="sans-serif" font-size="14" lengthAdjust="spacing" textLength="52.2061" x="377.8315" y="282.7607">System</text></g><g><title>System</title><rect fill="#FFFFFF" height="29.1328" style="stroke:#181818;stroke-width:1;" width="10" x="398.9346" y="136.5625"/></g><g><title>System</title><rect fill="#FFFFFF" height="29.1328" style="stroke:#181818;stroke-width:1;" width="10" x="398.9346" y="209.6328"/></g><path d="M10,98.2969 L74.4429,98.2969 L74.4429,105.4297 L64.4429,115.4297 L10,115.4297 L10,98.2969" fill="#EEEEEE" style="stroke:#000000;stroke-width:1.5;"/><rect fill="none" height="148.4688" style="stroke:#000000;stroke-width:1.5;" width="437.0376" x="10" y="98.2969"/><text fill="#000000" font-family="sans-serif" font-size="13" font-weight="bold" lengthAdjust="spacing" textLength="19.4429" x="25" y="111.3638">alt</text><text fill="#000000" font-family="sans-serif" font-size="11" font-weight="bold" lengthAdjust="spacing" textLength="138.1714" x="89.4429" y="110.5073">[Update route details]</text><g class="message" data-entity-1="part1" data-entity-2="part2" id="msg1"><polygon fill="#181818" points="386.9346,132.5625,396.9346,136.5625,386.9346,140.5625,390.9346,136.5625" style="stroke:#181818;stroke-width:1;"/><line style="stroke:#181818;stroke-width:1;" x1="118.5117" x2="392.9346" y1="136.5625" y2="136.5625"/><text fill="#000000" font-family="sans-serif" font-size="13" font-weight="bold" lengthAdjust="spacing" textLength="9.0454" x="125.5117" y="131.4966">1</text><text fill="#000000" font-family="sans-serif" font-size="13" lengthAdjust="spacing" textLength="248.3774" x="138.5571" y="131.4966">updateRoute(routeId, updatedDetails)</text></g><g class="message" data-entity-1="part2" data-entity-2="part1" id="msg2"><polygon fill="#181818" points="129.5117,161.6953,119.5117,165.6953,129.5117,169.6953,125.5117,165.6953" style="stroke:#181818;stroke-width:1;"/><line style="stroke:#181818;stroke-width:1;stroke-dasharray:2,2;" x1="123.5117" x2="402.9346" y1="165.6953" y2="165.6953"/><text fill="#000000" font-family="sans-serif" font-size="13" font-weight="bold" lengthAdjust="spacing" textLength="9.0454" x="135.5117" y="160.6294">2</text><text fill="#000000" font-family="sans-serif" font-size="13" lengthAdjust="spacing" textLength="195.1206" x="148.5571" y="160.6294">returns updated Route details</text></g><line style="stroke:#000000;stroke-width:1;stroke-dasharray:2,2;" x1="10" x2="447.0376" y1="174.6953" y2="174.6953"/><text fill="#000000" font-family="sans-serif" font-size="11" font-weight="bold" lengthAdjust="spacing" textLength="114.2915" x="15" y="184.9058">[Deactivate route]</text><g class="message" data-entity-1="part1" data-entity-2="part2" id="msg3"><polygon fill="#181818" points="386.9346,205.6328,396.9346,209.6328,386.9346,213.6328,390.9346,209.6328" style="stroke:#181818;stroke-width:1;"/><line style="stroke:#181818;stroke-width:1;" x1="118.5117" x2="392.9346" y1="209.6328" y2="209.6328"/><text fill="#000000" font-family="sans-serif" font-size="13" font-weight="bold" lengthAdjust="spacing" textLength="9.0454" x="125.5117" y="204.5669">3</text><text fill="#000000" font-family="sans-serif" font-size="13" lengthAdjust="spacing" textLength="164.0107" x="138.5571" y="204.5669">deactivateRoute(routeId)</text></g><g class="message" data-entity-1="part2" data-entity-2="part1" id="msg4"><polygon fill="#181818" points="129.5117,234.7656,119.5117,238.7656,129.5117,242.7656,125.5117,238.7656" style="stroke:#181818;stroke-width:1;"/><line style="stroke:#181818;stroke-width:1;stroke-dasharray:2,2;" x1="123.5117" x2="402.9346" y1="238.7656" y2="238.7656"/><text fill="#000000" font-family="sans-serif" font-size="13" font-weight="bold" lengthAdjust="spacing" textLength="9.0454" x="135.5117" y="233.6997">4</text><text fill="#000000" font-family="sans-serif" font-size="13" lengthAdjust="spacing" textLength="218.1436" x="148.5571" y="233.6997">returns deactivated Route details</text></g><?plantuml-src bOx12i8m44Jl-Ogb9mMBznw4sbuy2LK_O6ss46pJa6m4_zuaLKhHW-QmXDbviuEUH-s7Arc1BOyMil9SLR25FRQtiUjKIt0qP37iCa07PNG9WvPLgmngXkpqS4n3seQl4DWpN8n49h2Z3rCIe-gTWF0I3_akMg40dtnDjAsI-I0tBr7M4xPEN6YdxZ4odeX2vFEGCmKMO8czrUuDG_DnMj8YX7f7KCzQEl-juymjUlxPQqxvfPkMJm00?></g></svg>