<?plantuml 1.2026.1?><svg xmlns="http://www.w3.org/2000/svg" xmlns:xlink="http://www.w3.org/1999/xlink" contentStyleType="text/css" data-diagram-type="SEQUENCE" height="882px" preserveAspectRatio="none" style="width:1604px;height:882px;background:#FFFFFF;" version="1.1" viewBox="0 0 1604 882" width="1604px" zoomAndPan="magnify"><defs/><g><g><title>AircraftController</title><rect fill="#FFFFFF" height="671.3984" style="stroke:#181818;stroke-width:1;" width="10" x="272.0376" y="112.4297"/></g><g><title>RegisterAircraftUseCase</title><rect fill="#FFFFFF" height="613.1328" style="stroke:#181818;stroke-width:1;" width="10" x="515.3335" y="141.5625"/></g><g><title>AircraftModelRepository</title><rect fill="#FFFFFF" height="87.3984" style="stroke:#181818;stroke-width:1;" width="10" x="898.0493" y="170.6953"/></g><g><title>AircraftRepository</title><rect fill="#FFFFFF" height="87.3984" style="stroke:#181818;stroke-width:1;" width="10" x="1069.8115" y="368.2969"/></g><g><title>AircraftRepository</title><rect fill="#FFFFFF" height="87.3984" style="stroke:#181818;stroke-width:1;" width="10" x="1069.8115" y="624.1641"/></g><g><title>AircraftModel</title><rect fill="#FFFFFF" height="29.1328" style="stroke:#181818;stroke-width:1;" width="10" x="1204.0376" y="565.8984"/></g><g><title>Database</title><rect fill="#FFFFFF" height="29.1328" style="stroke:#181818;stroke-width:1;" width="10" x="1536.2803" y="199.8281"/></g><g><title>Database</title><rect fill="#FFFFFF" height="29.1328" style="stroke:#181818;stroke-width:1;" width="10" x="1536.2803" y="397.4297"/></g><g><title>Database</title><rect fill="#FFFFFF" height="29.1328" style="stroke:#181818;stroke-width:1;" width="10" x="1536.2803" y="653.2969"/></g><rect fill="none" height="453.4688" style="stroke:#000000;stroke-width:1.5;" width="1189.5264" x="408.1543" y="273.0938"/><rect fill="none" height="248.8672" style="stroke:#000000;stroke-width:1.5;" width="1169.5264" x="418.1543" y="470.6953"/><g class="participant-lifeline" data-entity-uid="part1" data-qualified-name="ATCC" id="part1-lifeline"><g><title>ATCC</title><rect fill="#000000" fill-opacity="0.00000" height="720.5313" width="8" x="22.8398" y="81.2969"/><line style="stroke:#181818;stroke-width:0.5;stroke-dasharray:5,5;" x1="26" x2="26" y1="81.2969" y2="801.8281"/></g></g><g class="participant-lifeline" data-entity-uid="part2" data-qualified-name="Ctrl" id="part2-lifeline"><g><title>AircraftController</title><rect fill="#000000" fill-opacity="0.00000" height="720.5313" width="8" x="273.0376" y="81.2969"/><line style="stroke:#181818;stroke-width:0.5;stroke-dasharray:5,5;" x1="276.6147" x2="276.6147" y1="81.2969" y2="801.8281"/></g></g><g class="participant-lifeline" data-entity-uid="part3" data-qualified-name="UC" id="part3-lifeline"><g><title>RegisterAircraftUseCase</title><rect fill="#000000" fill-opacity="0.00000" height="720.5313" width="8" x="516.3335" y="81.2969"/><line style="stroke:#181818;stroke-width:0.5;stroke-dasharray:5,5;" x1="520.1543" x2="520.1543" y1="81.2969" y2="801.8281"/></g></g><g class="participant-lifeline" data-entity-uid="part4" data-qualified-name="ModelRepo" id="part4-lifeline"><g><title>AircraftModelRepository</title><rect fill="#000000" fill-opacity="0.00000" height="720.5313" width="8" x="899.0493" y="81.2969"/><line style="stroke:#181818;stroke-width:0.5;stroke-dasharray:5,5;" x1="902.6597" x2="902.6597" y1="81.2969" y2="801.8281"/></g></g><g class="participant-lifeline" data-entity-uid="part5" data-qualified-name="Repo" id="part5-lifeline"><g><title>AircraftRepository</title><rect fill="#000000" fill-opacity="0.00000" height="720.5313" width="8" x="1070.8115" y="81.2969"/><line style="stroke:#181818;stroke-width:0.5;stroke-dasharray:5,5;" x1="1074.439" x2="1074.439" y1="81.2969" y2="801.8281"/></g></g><g class="participant-lifeline" data-entity-uid="part6" data-qualified-name="Model" id="part6-lifeline"><g><title>AircraftModel</title><rect fill="#000000" fill-opacity="0.00000" height="720.5313" width="8" x="1205.0376" y="81.2969"/><line style="stroke:#181818;stroke-width:0.5;stroke-dasharray:5,5;" x1="1208.1841" x2="1208.1841" y1="81.2969" y2="801.8281"/></g></g><g class="participant-lifeline" data-entity-uid="part7" data-qualified-name="DB" id="part7-lifeline"><g><title>Database</title><rect fill="#000000" fill-opacity="0.00000" height="720.5313" width="8" x="1537.2803" y="81.2969"/><line style="stroke:#181818;stroke-width:0.5;stroke-dasharray:5,5;" x1="1540.8799" x2="1540.8799" y1="81.2969" y2="801.8281"/></g></g><g class="participant participant-head" data-entity-uid="part1" data-qualified-name="ATCC" id="part1-head"><text fill="#000000" font-family="sans-serif" font-size="14" lengthAdjust="spacing" textLength="37.6797" x="5" y="77.9951">ATCC</text><ellipse cx="26.8398" cy="13.5" fill="#E2E2F0" rx="8" ry="8" style="stroke:#181818;stroke-width:0.5;"/><path d="M26.8398,21.5 L26.8398,48.5 M13.8398,29.5 L39.8398,29.5 M26.8398,48.5 L13.8398,63.5 M26.8398,48.5 L39.8398,63.5" fill="none" style="stroke:#181818;stroke-width:0.5;"/></g><g class="participant participant-tail" data-entity-uid="part1" data-qualified-name="ATCC" id="part1-tail"><text fill="#000000" font-family="sans-serif" font-size="14" lengthAdjust="spacing" textLength="37.6797" x="5" y="813.8232">ATCC</text><ellipse cx="26.8398" cy="825.625" fill="#E2E2F0" rx="8" ry="8" style="stroke:#181818;stroke-width:0.5;"/><path d="M26.8398,833.625 L26.8398,860.625 M13.8398,841.625 L39.8398,841.625 M26.8398,860.625 L13.8398,875.625 M26.8398,860.625 L39.8398,875.625" fill="none" style="stroke:#181818;stroke-width:0.5;"/></g><g class="participant participant-head" data-entity-uid="part2" data-qualified-name="Ctrl" id="part2-head"><rect fill="#E2E2F0" height="30.2969" rx="2.5" ry="2.5" style="stroke:#181818;stroke-width:0.5;" width="134.8457" x="209.6147" y="50"/><text fill="#000000" font-family="sans-serif" font-size="14" lengthAdjust="spacing" textLength="120.8457" x="216.6147" y="69.9951">AircraftController</text></g><g class="participant participant-tail" data-entity-uid="part2" data-qualified-name="Ctrl" id="part2-tail"><rect fill="#E2E2F0" height="30.2969" rx="2.5" ry="2.5" style="stroke:#181818;stroke-width:0.5;" width="134.8457" x="209.6147" y="800.8281"/><text fill="#000000" font-family="sans-serif" font-size="14" lengthAdjust="spacing" textLength="120.8457" x="216.6147" y="820.8232">AircraftController</text></g><g class="participant participant-head" data-entity-uid="part3" data-qualified-name="UC" id="part3-head"><rect fill="#E2E2F0" height="30.2969" rx="2.5" ry="2.5" style="stroke:#181818;stroke-width:0.5;" width="184.3584" x="428.1543" y="50"/><text fill="#000000" font-family="sans-serif" font-size="14" lengthAdjust="spacing" textLength="170.3584" x="435.1543" y="69.9951">RegisterAircraftUseCase</text></g><g class="participant participant-tail" data-entity-uid="part3" data-qualified-name="UC" id="part3-tail"><rect fill="#E2E2F0" height="30.2969" rx="2.5" ry="2.5" style="stroke:#181818;stroke-width:0.5;" width="184.3584" x="428.1543" y="800.8281"/><text fill="#000000" font-family="sans-serif" font-size="14" lengthAdjust="spacing" textLength="170.3584" x="435.1543" y="820.8232">RegisterAircraftUseCase</text></g><g class="participant participant-head" data-entity-uid="part4" data-qualified-name="ModelRepo" id="part4-head"><rect fill="#E2E2F0" height="30.2969" rx="2.5" ry="2.5" style="stroke:#181818;stroke-width:0.5;" width="182.7793" x="811.6597" y="50"/><text fill="#000000" font-family="sans-serif" font-size="14" lengthAdjust="spacing" textLength="168.7793" x="818.6597" y="69.9951">AircraftModelRepository</text></g><g class="participant participant-tail" data-entity-uid="part4" data-qualified-name="ModelRepo" id="part4-tail"><rect fill="#E2E2F0" height="30.2969" rx="2.5" ry="2.5" style="stroke:#181818;stroke-width:0.5;" width="182.7793" x="811.6597" y="800.8281"/><text fill="#000000" font-family="sans-serif" font-size="14" lengthAdjust="spacing" textLength="168.7793" x="818.6597" y="820.8232">AircraftModelRepository</text></g><g class="participant participant-head" data-entity-uid="part5" data-qualified-name="Repo" id="part5-head"><rect fill="#E2E2F0" height="30.2969" rx="2.5" ry="2.5" style="stroke:#181818;stroke-width:0.5;" width="140.7451" x="1004.439" y="50"/><text fill="#000000" font-family="sans-serif" font-size="14" lengthAdjust="spacing" textLength="126.7451" x="1011.439" y="69.9951">AircraftRepository</text></g><g class="participant participant-tail" data-entity-uid="part5" data-qualified-name="Repo" id="part5-tail"><rect fill="#E2E2F0" height="30.2969" rx="2.5" ry="2.5" style="stroke:#181818;stroke-width:0.5;" width="140.7451" x="1004.439" y="800.8281"/><text fill="#000000" font-family="sans-serif" font-size="14" lengthAdjust="spacing" textLength="126.7451" x="1011.439" y="820.8232">AircraftRepository</text></g><g class="participant participant-head" data-entity-uid="part6" data-qualified-name="Model" id="part6-head"><rect fill="#E2E2F0" height="30.2969" rx="2.5" ry="2.5" style="stroke:#181818;stroke-width:0.5;" width="107.707" x="1155.1841" y="50"/><text fill="#000000" font-family="sans-serif" font-size="14" lengthAdjust="spacing" textLength="93.707" x="1162.1841" y="69.9951">AircraftModel</text></g><g class="participant participant-tail" data-entity-uid="part6" data-qualified-name="Model" id="part6-tail"><rect fill="#E2E2F0" height="30.2969" rx="2.5" ry="2.5" style="stroke:#181818;stroke-width:0.5;" width="107.707" x="1155.1841" y="800.8281"/><text fill="#000000" font-family="sans-serif" font-size="14" lengthAdjust="spacing" textLength="93.707" x="1162.1841" y="820.8232">AircraftModel</text></g><g class="participant participant-head" data-entity-uid="part7" data-qualified-name="DB" id="part7-head"><text fill="#000000" font-family="sans-serif" font-size="14" lengthAdjust="spacing" textLength="66.8008" x="1504.8799" y="77.9951">Database</text><path d="M1523.2803,29 C1523.2803,19 1541.2803,19 1541.2803,19 C1541.2803,19 1559.2803,19 1559.2803,29 L1559.2803,55 C1559.2803,65 1541.2803,65 1541.2803,65 C1541.2803,65 1523.2803,65 1523.2803,55 L1523.2803,29" fill="#E2E2F0" style="stroke:#181818;stroke-width:0.5;"/><path d="M1523.2803,29 C1523.2803,39 1541.2803,39 1541.2803,39 C1541.2803,39 1559.2803,39 1559.2803,29" fill="none" style="stroke:#181818;stroke-width:0.5;"/></g><g class="participant participant-tail" data-entity-uid="part7" data-qualified-name="DB" id="part7-tail"><text fill="#000000" font-family="sans-serif" font-size="14" lengthAdjust="spacing" textLength="66.8008" x="1504.8799" y="813.8232">Database</text><path d="M1523.2803,827.125 C1523.2803,817.125 1541.2803,817.125 1541.2803,817.125 C1541.2803,817.125 1559.2803,817.125 1559.2803,827.125 L1559.2803,853.125 C1559.2803,863.125 1541.2803,863.125 1541.2803,863.125 C1541.2803,863.125 1523.2803,863.125 1523.2803,853.125 L1523.2803,827.125" fill="#E2E2F0" style="stroke:#181818;stroke-width:0.5;"/><path d="M1523.2803,827.125 C1523.2803,837.125 1541.2803,837.125 1541.2803,837.125 C1541.2803,837.125 1559.2803,837.125 1559.2803,827.125" fill="none" style="stroke:#181818;stroke-width:0.5;"/></g><g><title>AircraftController</title><rect fill="#FFFFFF" height="671.3984" style="stroke:#181818;stroke-width:1;" width="10" x="272.0376" y="112.4297"/></g><g><title>RegisterAircraftUseCase</title><rect fill="#FFFFFF" height="613.1328" style="stroke:#181818;stroke-width:1;" width="10" x="515.3335" y="141.5625"/></g><g><title>AircraftModelRepository</title><rect fill="#FFFFFF" height="87.3984" style="stroke:#181818;stroke-width:1;" width="10" x="898.0493" y="170.6953"/></g><g><title>AircraftRepository</title><rect fill="#FFFFFF" height="87.3984" style="stroke:#181818;stroke-width:1;" width="10" x="1069.8115" y="368.2969"/></g><g><title>AircraftRepository</title><rect fill="#FFFFFF" height="87.3984" style="stroke:#181818;stroke-width:1;" width="10" x="1069.8115" y="624.1641"/></g><g><title>AircraftModel</title><rect fill="#FFFFFF" height="29.1328" style="stroke:#181818;stroke-width:1;" width="10" x="1204.0376" y="565.8984"/></g><g><title>Database</title><rect fill="#FFFFFF" height="29.1328" style="stroke:#181818;stroke-width:1;" width="10" x="1536.2803" y="199.8281"/></g><g><title>Database</title><rect fill="#FFFFFF" height="29.1328" style="stroke:#181818;stroke-width:1;" width="10" x="1536.2803" y="397.4297"/></g><g><title>Database</title><rect fill="#FFFFFF" height="29.1328" style="stroke:#181818;stroke-width:1;" width="10" x="1536.2803" y="653.2969"/></g><g class="message" data-entity-1="part1" data-entity-2="part2" id="msg1"><polygon fill="#181818" points="260.0376,108.4297,270.0376,112.4297,260.0376,116.4297,264.0376,112.4297" style="stroke:#181818;stroke-width:1;"/><line style="stroke:#181818;stroke-width:1;" x1="26.8398" x2="266.0376" y1="112.4297" y2="112.4297"/><text fill="#000000" font-family="sans-serif" font-size="13" font-weight="bold" lengthAdjust="spacing" textLength="9.0454" x="33.8398" y="107.3638">1</text><text fill="#000000" font-family="sans-serif" font-size="13" lengthAdjust="spacing" textLength="167.1338" x="46.8853" y="107.3638">POST /api/aircrafts (JSON)</text></g><g class="message" data-entity-1="part2" data-entity-2="part3" id="msg2"><polygon fill="#181818" points="503.3335,137.5625,513.3335,141.5625,503.3335,145.5625,507.3335,141.5625" style="stroke:#181818;stroke-width:1;"/><line style="stroke:#181818;stroke-width:1;" x1="282.0376" x2="509.3335" y1="141.5625" y2="141.5625"/><text fill="#000000" font-family="sans-serif" font-size="13" font-weight="bold" lengthAdjust="spacing" textLength="9.0454" x="289.0376" y="136.4966">2</text><text fill="#000000" font-family="sans-serif" font-size="13" lengthAdjust="spacing" textLength="112.0171" x="302.083" y="136.4966">execute(request)</text></g><g class="message" data-entity-1="part3" data-entity-2="part4" id="msg3"><polygon fill="#181818" points="886.0493,166.6953,896.0493,170.6953,886.0493,174.6953,890.0493,170.6953" style="stroke:#181818;stroke-width:1;"/><line style="stroke:#181818;stroke-width:1;" x1="525.3335" x2="892.0493" y1="170.6953" y2="170.6953"/><text fill="#000000" font-family="sans-serif" font-size="13" font-weight="bold" lengthAdjust="spacing" textLength="9.0454" x="532.3335" y="165.6294">3</text><text fill="#000000" font-family="sans-serif" font-size="13" lengthAdjust="spacing" textLength="169.9204" x="545.3789" y="165.6294">findById(request.modelId)</text></g><g class="message" data-entity-1="part4" data-entity-2="part7" id="msg4"><polygon fill="#181818" points="1524.2803,195.8281,1534.2803,199.8281,1524.2803,203.8281,1528.2803,199.8281" style="stroke:#181818;stroke-width:1;"/><line style="stroke:#181818;stroke-width:1;" x1="908.0493" x2="1530.2803" y1="199.8281" y2="199.8281"/><text fill="#000000" font-family="sans-serif" font-size="13" font-weight="bold" lengthAdjust="spacing" textLength="9.0454" x="915.0493" y="194.7622">4</text><text fill="#000000" font-family="sans-serif" font-size="13" lengthAdjust="spacing" textLength="294.106" x="928.0947" y="194.7622">SELECT * FROM aircraft_model WHERE id = ?</text></g><g class="message" data-entity-1="part7" data-entity-2="part4" id="msg5"><polygon fill="#181818" points="919.0493,224.9609,909.0493,228.9609,919.0493,232.9609,915.0493,228.9609" style="stroke:#181818;stroke-width:1;"/><line style="stroke:#181818;stroke-width:1;stroke-dasharray:2,2;" x1="913.0493" x2="1540.2803" y1="228.9609" y2="228.9609"/><text fill="#000000" font-family="sans-serif" font-size="13" font-weight="bold" lengthAdjust="spacing" textLength="9.0454" x="925.0493" y="223.895">5</text><text fill="#000000" font-family="sans-serif" font-size="13" lengthAdjust="spacing" textLength="86.6519" x="938.0947" y="223.895">model record</text></g><g class="message" data-entity-1="part4" data-entity-2="part3" id="msg6"><polygon fill="#181818" points="536.3335,254.0938,526.3335,258.0938,536.3335,262.0938,532.3335,258.0938" style="stroke:#181818;stroke-width:1;"/><line style="stroke:#181818;stroke-width:1;stroke-dasharray:2,2;" x1="530.3335" x2="902.0493" y1="258.0938" y2="258.0938"/><text fill="#000000" font-family="sans-serif" font-size="13" font-weight="bold" lengthAdjust="spacing" textLength="9.0454" x="542.3335" y="253.0278">6</text><text fill="#000000" font-family="sans-serif" font-size="13" lengthAdjust="spacing" textLength="163.7632" x="555.3789" y="253.0278">Optional&lt;AircraftModel&gt;</text></g><path d="M408.1543,273.0938 L472.5972,273.0938 L472.5972,280.2266 L462.5972,290.2266 L408.1543,290.2266 L408.1543,273.0938" fill="#EEEEEE" style="stroke:#000000;stroke-width:1.5;"/><rect fill="none" height="453.4688" style="stroke:#000000;stroke-width:1.5;" width="1189.5264" x="408.1543" y="273.0938"/><text fill="#000000" font-family="sans-serif" font-size="13" font-weight="bold" lengthAdjust="spacing" textLength="19.4429" x="423.1543" y="286.1606">alt</text><text fill="#000000" font-family="sans-serif" font-size="11" font-weight="bold" lengthAdjust="spacing" textLength="112.3633" x="487.5972" y="285.3042">[model not found]</text><g class="message" data-entity-1="part3" data-entity-2="part3" id="msg7"><line style="stroke:#181818;stroke-width:1;" x1="525.3335" x2="567.3335" y1="311.3594" y2="311.3594"/><line style="stroke:#181818;stroke-width:1;" x1="567.3335" x2="567.3335" y1="311.3594" y2="324.3594"/><line style="stroke:#181818;stroke-width:1;" x1="526.3335" x2="567.3335" y1="324.3594" y2="324.3594"/><polygon fill="#181818" points="536.3335,320.3594,526.3335,324.3594,536.3335,328.3594,532.3335,324.3594" style="stroke:#181818;stroke-width:1;"/><text fill="#000000" font-family="sans-serif" font-size="13" font-weight="bold" lengthAdjust="spacing" textLength="9.0454" x="532.3335" y="306.2935">7</text><text fill="#000000" font-family="sans-serif" font-size="13" lengthAdjust="spacing" textLength="335.6704" x="545.3789" y="306.2935">throw IllegalArgumentException("Invalid Model ID")</text></g><line style="stroke:#000000;stroke-width:1;stroke-dasharray:2,2;" x1="408.1543" x2="1597.6807" y1="333.3594" y2="333.3594"/><text fill="#000000" font-family="sans-serif" font-size="11" font-weight="bold" lengthAdjust="spacing" textLength="87.8872" x="413.1543" y="343.5698">[model found]</text><g class="message" data-entity-1="part3" data-entity-2="part5" id="msg8"><polygon fill="#181818" points="1057.8115,364.2969,1067.8115,368.2969,1057.8115,372.2969,1061.8115,368.2969" style="stroke:#181818;stroke-width:1;"/><line style="stroke:#181818;stroke-width:1;" x1="525.3335" x2="1063.8115" y1="368.2969" y2="368.2969"/><text fill="#000000" font-family="sans-serif" font-size="13" font-weight="bold" lengthAdjust="spacing" textLength="9.0454" x="532.3335" y="363.231">8</text><text fill="#000000" font-family="sans-serif" font-size="13" lengthAdjust="spacing" textLength="248.1235" x="545.3789" y="363.231">existsByRegistrationNumber(regNum)</text></g><g class="message" data-entity-1="part5" data-entity-2="part7" id="msg9"><polygon fill="#181818" points="1524.2803,393.4297,1534.2803,397.4297,1524.2803,401.4297,1528.2803,397.4297" style="stroke:#181818;stroke-width:1;"/><line style="stroke:#181818;stroke-width:1;" x1="1079.8115" x2="1530.2803" y1="397.4297" y2="397.4297"/><text fill="#000000" font-family="sans-serif" font-size="13" font-weight="bold" lengthAdjust="spacing" textLength="9.0454" x="1086.8115" y="392.3638">9</text><text fill="#000000" font-family="sans-serif" font-size="13" lengthAdjust="spacing" textLength="424.4233" x="1099.8569" y="392.3638">SELECT COUNT(*) FROM aircraft WHERE registration_number = ?</text></g><g class="message" data-entity-1="part7" data-entity-2="part5" id="msg10"><polygon fill="#181818" points="1090.8115,422.5625,1080.8115,426.5625,1090.8115,430.5625,1086.8115,426.5625" style="stroke:#181818;stroke-width:1;"/><line style="stroke:#181818;stroke-width:1;stroke-dasharray:2,2;" x1="1084.8115" x2="1540.2803" y1="426.5625" y2="426.5625"/><text fill="#000000" font-family="sans-serif" font-size="13" font-weight="bold" lengthAdjust="spacing" textLength="18.0908" x="1096.8115" y="421.4966">10</text><text fill="#000000" font-family="sans-serif" font-size="13" lengthAdjust="spacing" textLength="36.6768" x="1118.9023" y="421.4966">count</text></g><g class="message" data-entity-1="part5" data-entity-2="part3" id="msg11"><polygon fill="#181818" points="536.3335,451.6953,526.3335,455.6953,536.3335,459.6953,532.3335,455.6953" style="stroke:#181818;stroke-width:1;"/><line style="stroke:#181818;stroke-width:1;stroke-dasharray:2,2;" x1="530.3335" x2="1073.8115" y1="455.6953" y2="455.6953"/><text fill="#000000" font-family="sans-serif" font-size="13" font-weight="bold" lengthAdjust="spacing" textLength="18.0908" x="542.3335" y="450.6294">11</text><text fill="#000000" font-family="sans-serif" font-size="13" lengthAdjust="spacing" textLength="61.9849" x="564.4243" y="450.6294">true/false</text></g><path d="M418.1543,470.6953 L482.5972,470.6953 L482.5972,477.8281 L472.5972,487.8281 L418.1543,487.8281 L418.1543,470.6953" fill="#EEEEEE" style="stroke:#000000;stroke-width:1.5;"/><rect fill="none" height="248.8672" style="stroke:#000000;stroke-width:1.5;" width="1169.5264" x="418.1543" y="470.6953"/><text fill="#000000" font-family="sans-serif" font-size="13" font-weight="bold" lengthAdjust="spacing" textLength="19.4429" x="433.1543" y="483.7622">alt</text><text fill="#000000" font-family="sans-serif" font-size="11" font-weight="bold" lengthAdjust="spacing" textLength="174.5391" x="497.5972" y="482.9058">[registration already exists]</text><g class="message" data-entity-1="part3" data-entity-2="part3" id="msg12"><line style="stroke:#181818;stroke-width:1;" x1="525.3335" x2="567.3335" y1="508.9609" y2="508.9609"/><line style="stroke:#181818;stroke-width:1;" x1="567.3335" x2="567.3335" y1="508.9609" y2="521.9609"/><line style="stroke:#181818;stroke-width:1;" x1="526.3335" x2="567.3335" y1="521.9609" y2="521.9609"/><polygon fill="#181818" points="536.3335,517.9609,526.3335,521.9609,536.3335,525.9609,532.3335,521.9609" style="stroke:#181818;stroke-width:1;"/><text fill="#000000" font-family="sans-serif" font-size="13" font-weight="bold" lengthAdjust="spacing" textLength="18.0908" x="532.3335" y="503.895">12</text><text fill="#000000" font-family="sans-serif" font-size="13" lengthAdjust="spacing" textLength="241.5093" x="554.4243" y="503.895">throw AircraftAlreadyExistsException</text></g><line style="stroke:#000000;stroke-width:1;stroke-dasharray:2,2;" x1="418.1543" x2="1587.6807" y1="530.9609" y2="530.9609"/><text fill="#000000" font-family="sans-serif" font-size="11" font-weight="bold" lengthAdjust="spacing" textLength="144.23" x="423.1543" y="541.1714">[registration is unique]</text><g class="message" data-entity-1="part3" data-entity-2="part6" id="msg13"><polygon fill="#181818" points="1192.0376,561.8984,1202.0376,565.8984,1192.0376,569.8984,1196.0376,565.8984" style="stroke:#181818;stroke-width:1;"/><line style="stroke:#181818;stroke-width:1;" x1="525.3335" x2="1198.0376" y1="565.8984" y2="565.8984"/><text fill="#000000" font-family="sans-serif" font-size="13" font-weight="bold" lengthAdjust="spacing" textLength="18.0908" x="532.3335" y="560.8325">13</text><text fill="#000000" font-family="sans-serif" font-size="13" lengthAdjust="spacing" textLength="215.8457" x="554.4243" y="560.8325">validate seat capacity and status</text></g><g class="message" data-entity-1="part6" data-entity-2="part3" id="msg14"><polygon fill="#181818" points="536.3335,591.0313,526.3335,595.0313,536.3335,599.0313,532.3335,595.0313" style="stroke:#181818;stroke-width:1;"/><line style="stroke:#181818;stroke-width:1;stroke-dasharray:2,2;" x1="530.3335" x2="1208.0376" y1="595.0313" y2="595.0313"/><text fill="#000000" font-family="sans-serif" font-size="13" font-weight="bold" lengthAdjust="spacing" textLength="18.0908" x="542.3335" y="589.9653">14</text><text fill="#000000" font-family="sans-serif" font-size="13" lengthAdjust="spacing" textLength="4.1323" x="564.4243" y="589.9653">&#160;</text></g><g class="message" data-entity-1="part3" data-entity-2="part5" id="msg15"><polygon fill="#181818" points="1057.8115,620.1641,1067.8115,624.1641,1057.8115,628.1641,1061.8115,624.1641" style="stroke:#181818;stroke-width:1;"/><line style="stroke:#181818;stroke-width:1;" x1="525.3335" x2="1063.8115" y1="624.1641" y2="624.1641"/><text fill="#000000" font-family="sans-serif" font-size="13" font-weight="bold" lengthAdjust="spacing" textLength="18.0908" x="532.3335" y="619.0981">15</text><text fill="#000000" font-family="sans-serif" font-size="13" lengthAdjust="spacing" textLength="87.6294" x="554.4243" y="619.0981">save(aircraft)</text></g><g class="message" data-entity-1="part5" data-entity-2="part7" id="msg16"><polygon fill="#181818" points="1524.2803,649.2969,1534.2803,653.2969,1524.2803,657.2969,1528.2803,653.2969" style="stroke:#181818;stroke-width:1;"/><line style="stroke:#181818;stroke-width:1;" x1="1079.8115" x2="1530.2803" y1="653.2969" y2="653.2969"/><text fill="#000000" font-family="sans-serif" font-size="13" font-weight="bold" lengthAdjust="spacing" textLength="18.0908" x="1086.8115" y="648.231">16</text><text fill="#000000" font-family="sans-serif" font-size="13" lengthAdjust="spacing" textLength="134.0498" x="1108.9023" y="648.231">INSERT INTO aircraft</text></g><g class="message" data-entity-1="part7" data-entity-2="part5" id="msg17"><polygon fill="#181818" points="1090.8115,678.4297,1080.8115,682.4297,1090.8115,686.4297,1086.8115,682.4297" style="stroke:#181818;stroke-width:1;"/><line style="stroke:#181818;stroke-width:1;stroke-dasharray:2,2;" x1="1084.8115" x2="1540.2803" y1="682.4297" y2="682.4297"/><text fill="#000000" font-family="sans-serif" font-size="13" font-weight="bold" lengthAdjust="spacing" textLength="18.0908" x="1096.8115" y="677.3638">17</text><text fill="#000000" font-family="sans-serif" font-size="13" lengthAdjust="spacing" textLength="144.6885" x="1118.9023" y="677.3638">saved record (with ID)</text></g><g class="message" data-entity-1="part5" data-entity-2="part3" id="msg18"><polygon fill="#181818" points="536.3335,707.5625,526.3335,711.5625,536.3335,715.5625,532.3335,711.5625" style="stroke:#181818;stroke-width:1;"/><line style="stroke:#181818;stroke-width:1;stroke-dasharray:2,2;" x1="530.3335" x2="1073.8115" y1="711.5625" y2="711.5625"/><text fill="#000000" font-family="sans-serif" font-size="13" font-weight="bold" lengthAdjust="spacing" textLength="18.0908" x="542.3335" y="706.4966">18</text><text fill="#000000" font-family="sans-serif" font-size="13" lengthAdjust="spacing" textLength="86.6646" x="564.4243" y="706.4966">savedAircraft</text></g><g class="message" data-entity-1="part3" data-entity-2="part2" id="msg19"><polygon fill="#181818" points="293.0376,750.6953,283.0376,754.6953,293.0376,758.6953,289.0376,754.6953" style="stroke:#181818;stroke-width:1;"/><line style="stroke:#181818;stroke-width:1;stroke-dasharray:2,2;" x1="287.0376" x2="519.3335" y1="754.6953" y2="754.6953"/><text fill="#000000" font-family="sans-serif" font-size="13" font-weight="bold" lengthAdjust="spacing" textLength="18.0908" x="299.0376" y="749.6294">19</text><text fill="#000000" font-family="sans-serif" font-size="13" lengthAdjust="spacing" textLength="187.2051" x="321.1284" y="749.6294">ViewAircraftDetailsResponse</text></g><g class="message" data-entity-1="part2" data-entity-2="part1" id="msg20"><polygon fill="#181818" points="37.8398,779.8281,27.8398,783.8281,37.8398,787.8281,33.8398,783.8281" style="stroke:#181818;stroke-width:1;"/><line style="stroke:#181818;stroke-width:1;stroke-dasharray:2,2;" x1="31.8398" x2="276.0376" y1="783.8281" y2="783.8281"/><text fill="#000000" font-family="sans-serif" font-size="13" font-weight="bold" lengthAdjust="spacing" textLength="18.0908" x="43.8398" y="778.7622">20</text><text fill="#000000" font-family="sans-serif" font-size="13" lengthAdjust="spacing" textLength="199.1069" x="65.9307" y="778.7622">201 Created (JSON with _links)</text></g><?plantuml-src TLJBRjim4BphAnO-MG7Qj3q6RGfRLb4NZLtuqHw3ZRHsY2gKIb99_FTThjwoOy0mJSqCPsTNnDBbkdnw81DWud83azakYYQ05lmYAD0ubQW2jUD7oYG63oxAjJDvbf4HOEHCDWHkwAYi8zCGzfOYj2Je_HkYTtbAsOQAt2hsSH9iktUPCaA_3HITJZ58qU436uB9ebx9myKyy4N3krkf2MxWrtgxWsiir3NMKXQcFxRhLUZZKi_eg2fVyCpRHyoYLqfAHrD3_qgoheVbulUYtrR6y8FIwVoqJ1ly-oV_S9dsU5qG7P5L5dEcR-EVSRI3A_YsMTz1u_DUHE3FztWJWqhX2tpjvBXGfhuR-QWOXfBSf45AVNJlrAR8TU5KhZ7xF0Zvja_iN6FcQdcTEpZafKu3u4yLXkYvHvE_m9AdweZPp1pB9z8kVar8pfbEblePCov4H66vc8G1PTp2IdOiMPT4hpo7Tdwg1jAWbrh9k7FOHrw5mcaTYrc_SodXQBrVxQPNuJ3eEcBJE-6-UgCayu4y9-d_rzdN7XEsxcH_c7bdeut8b7HzGAvw36zz-w3xLdZ34AQdEWd1N0o-wUAimiS2R-CNdiGz45SMIgruQ4UwLOzkG3hc_Lb21maMc2Xt0jGfM8UkxFmCPwRTheIg0DhDyOID3gzZjVXCqwP9uVb1RMHdxLwkjl5cnp-xTTlbStxTeVD--eFJ-ZM2wOjoZpojuINtFObXeqLYDZxwKh-9fzv_VUdTjVLRqKj3Nv13bTaDsIBNF3az5SwqkhUOAHVV3Npwy14YdW379SX51rB0VQRqNnlsoPxv7m00?></g></svg>