<?plantuml 1.2026.1?><svg xmlns="http://www.w3.org/2000/svg" xmlns:xlink="http://www.w3.org/1999/xlink" contentStyleType="text/css" data-diagram-type="SEQUENCE" height="840px" preserveAspectRatio="none" style="width:1632px;height:840px;background:#FFFFFF;" version="1.1" viewBox="0 0 1632 840" width="1632px" zoomAndPan="magnify"><defs/><g><g><title>RouteController</title><rect fill="#FFFFFF" height="629.0703" style="stroke:#181818;stroke-width:1;" width="10" x="505.1064" y="112.4297"/></g><g><title>SearchRoutesUseCase</title><rect fill="#FFFFFF" height="599.9375" style="stroke:#181818;stroke-width:1;" width="10" x="796.145" y="141.5625"/></g><g><title>RouteRepository</title><rect fill="#FFFFFF" height="87.3984" style="stroke:#181818;stroke-width:1;" width="10" x="1147.0166" y="194.8281"/></g><g><title>RouteRepository</title><rect fill="#FFFFFF" height="87.3984" style="stroke:#181818;stroke-width:1;" width="10" x="1147.0166" y="326.1641"/></g><g><title>RouteRepository</title><rect fill="#FFFFFF" height="87.3984" style="stroke:#181818;stroke-width:1;" width="10" x="1147.0166" y="457.5"/></g><g><title>RouteRepository</title><rect fill="#FFFFFF" height="87.3984" style="stroke:#181818;stroke-width:1;" width="10" x="1147.0166" y="588.8359"/></g><g><title>Database</title><rect fill="#FFFFFF" height="29.1328" style="stroke:#181818;stroke-width:1;" width="10" x="1574.0728" y="223.9609"/></g><g><title>Database</title><rect fill="#FFFFFF" height="29.1328" style="stroke:#181818;stroke-width:1;" width="10" x="1574.0728" y="355.2969"/></g><g><title>Database</title><rect fill="#FFFFFF" height="29.1328" style="stroke:#181818;stroke-width:1;" width="10" x="1574.0728" y="486.6328"/></g><g><title>Database</title><rect fill="#FFFFFF" height="29.1328" style="stroke:#181818;stroke-width:1;" width="10" x="1574.0728" y="617.9688"/></g><rect fill="none" height="527.6719" style="stroke:#000000;stroke-width:1.5;" width="920.02" x="705.4531" y="156.5625"/><g class="participant-lifeline" data-entity-uid="part1" data-qualified-name="Actor" id="part1-lifeline"><g><title>ATCC</title><rect fill="#000000" fill-opacity="0.00000" height="678.2031" width="8" x="22.8398" y="81.2969"/><line style="stroke:#181818;stroke-width:0.5;stroke-dasharray:5,5;" x1="26" x2="26" y1="81.2969" y2="759.5"/></g></g><g class="participant-lifeline" data-entity-uid="part2" data-qualified-name="Ctrl" id="part2-lifeline"><g><title>RouteController</title><rect fill="#000000" fill-opacity="0.00000" height="678.2031" width="8" x="506.1064" y="81.2969"/><line style="stroke:#181818;stroke-width:0.5;stroke-dasharray:5,5;" x1="509.8857" x2="509.8857" y1="81.2969" y2="759.5"/></g></g><g class="participant-lifeline" data-entity-uid="part3" data-qualified-name="UC" id="part3-lifeline"><g><title>SearchRoutesUseCase</title><rect fill="#000000" fill-opacity="0.00000" height="678.2031" width="8" x="797.145" y="81.2969"/><line style="stroke:#181818;stroke-width:0.5;stroke-dasharray:5,5;" x1="800.4531" x2="800.4531" y1="81.2969" y2="759.5"/></g></g><g class="participant-lifeline" data-entity-uid="part4" data-qualified-name="Repo" id="part4-lifeline"><g><title>RouteRepository</title><rect fill="#000000" fill-opacity="0.00000" height="678.2031" width="8" x="1148.0166" y="81.2969"/><line style="stroke:#181818;stroke-width:0.5;stroke-dasharray:5,5;" x1="1151.8462" x2="1151.8462" y1="81.2969" y2="759.5"/></g></g><g class="participant-lifeline" data-entity-uid="part5" data-qualified-name="DB" id="part5-lifeline"><g><title>Database</title><rect fill="#000000" fill-opacity="0.00000" height="678.2031" width="8" x="1575.0728" y="81.2969"/><line style="stroke:#181818;stroke-width:0.5;stroke-dasharray:5,5;" x1="1578.6724" x2="1578.6724" y1="81.2969" y2="759.5"/></g></g><g class="participant participant-head" data-entity-uid="part1" data-qualified-name="Actor" id="part1-head"><text fill="#000000" font-family="sans-serif" font-size="14" lengthAdjust="spacing" textLength="37.6797" x="5" y="77.9951">ATCC</text><ellipse cx="26.8398" cy="13.5" fill="#E2E2F0" rx="8" ry="8" style="stroke:#181818;stroke-width:0.5;"/><path d="M26.8398,21.5 L26.8398,48.5 M13.8398,29.5 L39.8398,29.5 M26.8398,48.5 L13.8398,63.5 M26.8398,48.5 L39.8398,63.5" fill="none" style="stroke:#181818;stroke-width:0.5;"/></g><g class="participant participant-tail" data-entity-uid="part1" data-qualified-name="Actor" id="part1-tail"><text fill="#000000" font-family="sans-serif" font-size="14" lengthAdjust="spacing" textLength="37.6797" x="5" y="771.4951">ATCC</text><ellipse cx="26.8398" cy="783.2969" fill="#E2E2F0" rx="8" ry="8" style="stroke:#181818;stroke-width:0.5;"/><path d="M26.8398,791.2969 L26.8398,818.2969 M13.8398,799.2969 L39.8398,799.2969 M26.8398,818.2969 L13.8398,833.2969 M26.8398,818.2969 L39.8398,833.2969" fill="none" style="stroke:#181818;stroke-width:0.5;"/></g><g class="participant participant-head" data-entity-uid="part2" data-qualified-name="Ctrl" id="part2-head"><rect fill="#E2E2F0" height="30.2969" rx="2.5" ry="2.5" style="stroke:#181818;stroke-width:0.5;" width="124.4414" x="447.8857" y="50"/><text fill="#000000" font-family="sans-serif" font-size="14" lengthAdjust="spacing" textLength="110.4414" x="454.8857" y="69.9951">RouteController</text></g><g class="participant participant-tail" data-entity-uid="part2" data-qualified-name="Ctrl" id="part2-tail"><rect fill="#E2E2F0" height="30.2969" rx="2.5" ry="2.5" style="stroke:#181818;stroke-width:0.5;" width="124.4414" x="447.8857" y="758.5"/><text fill="#000000" font-family="sans-serif" font-size="14" lengthAdjust="spacing" textLength="110.4414" x="454.8857" y="778.4951">RouteController</text></g><g class="participant participant-head" data-entity-uid="part3" data-qualified-name="UC" id="part3-head"><rect fill="#E2E2F0" height="30.2969" rx="2.5" ry="2.5" style="stroke:#181818;stroke-width:0.5;" width="171.3838" x="715.4531" y="50"/><text fill="#000000" font-family="sans-serif" font-size="14" lengthAdjust="spacing" textLength="157.3838" x="722.4531" y="69.9951">SearchRoutesUseCase</text></g><g class="participant participant-tail" data-entity-uid="part3" data-qualified-name="UC" id="part3-tail"><rect fill="#E2E2F0" height="30.2969" rx="2.5" ry="2.5" style="stroke:#181818;stroke-width:0.5;" width="171.3838" x="715.4531" y="758.5"/><text fill="#000000" font-family="sans-serif" font-size="14" lengthAdjust="spacing" textLength="157.3838" x="722.4531" y="778.4951">SearchRoutesUseCase</text></g><g class="participant participant-head" data-entity-uid="part4" data-qualified-name="Repo" id="part4-head"><rect fill="#E2E2F0" height="30.2969" rx="2.5" ry="2.5" style="stroke:#181818;stroke-width:0.5;" width="130.3408" x="1086.8462" y="50"/><text fill="#000000" font-family="sans-serif" font-size="14" lengthAdjust="spacing" textLength="116.3408" x="1093.8462" y="69.9951">RouteRepository</text></g><g class="participant participant-tail" data-entity-uid="part4" data-qualified-name="Repo" id="part4-tail"><rect fill="#E2E2F0" height="30.2969" rx="2.5" ry="2.5" style="stroke:#181818;stroke-width:0.5;" width="130.3408" x="1086.8462" y="758.5"/><text fill="#000000" font-family="sans-serif" font-size="14" lengthAdjust="spacing" textLength="116.3408" x="1093.8462" y="778.4951">RouteRepository</text></g><g class="participant participant-head" data-entity-uid="part5" data-qualified-name="DB" id="part5-head"><text fill="#000000" font-family="sans-serif" font-size="14" lengthAdjust="spacing" textLength="66.8008" x="1542.6724" y="77.9951">Database</text><path d="M1561.0728,29 C1561.0728,19 1579.0728,19 1579.0728,19 C1579.0728,19 1597.0728,19 1597.0728,29 L1597.0728,55 C1597.0728,65 1579.0728,65 1579.0728,65 C1579.0728,65 1561.0728,65 1561.0728,55 L1561.0728,29" fill="#E2E2F0" style="stroke:#181818;stroke-width:0.5;"/><path d="M1561.0728,29 C1561.0728,39 1579.0728,39 1579.0728,39 C1579.0728,39 1597.0728,39 1597.0728,29" fill="none" style="stroke:#181818;stroke-width:0.5;"/></g><g class="participant participant-tail" data-entity-uid="part5" data-qualified-name="DB" id="part5-tail"><text fill="#000000" font-family="sans-serif" font-size="14" lengthAdjust="spacing" textLength="66.8008" x="1542.6724" y="771.4951">Database</text><path d="M1561.0728,784.7969 C1561.0728,774.7969 1579.0728,774.7969 1579.0728,774.7969 C1579.0728,774.7969 1597.0728,774.7969 1597.0728,784.7969 L1597.0728,810.7969 C1597.0728,820.7969 1579.0728,820.7969 1579.0728,820.7969 C1579.0728,820.7969 1561.0728,820.7969 1561.0728,810.7969 L1561.0728,784.7969" fill="#E2E2F0" style="stroke:#181818;stroke-width:0.5;"/><path d="M1561.0728,784.7969 C1561.0728,794.7969 1579.0728,794.7969 1579.0728,794.7969 C1579.0728,794.7969 1597.0728,794.7969 1597.0728,784.7969" fill="none" style="stroke:#181818;stroke-width:0.5;"/></g><g><title>RouteController</title><rect fill="#FFFFFF" height="629.0703" style="stroke:#181818;stroke-width:1;" width="10" x="505.1064" y="112.4297"/></g><g><title>SearchRoutesUseCase</title><rect fill="#FFFFFF" height="599.9375" style="stroke:#181818;stroke-width:1;" width="10" x="796.145" y="141.5625"/></g><g><title>RouteRepository</title><rect fill="#FFFFFF" height="87.3984" style="stroke:#181818;stroke-width:1;" width="10" x="1147.0166" y="194.8281"/></g><g><title>RouteRepository</title><rect fill="#FFFFFF" height="87.3984" style="stroke:#181818;stroke-width:1;" width="10" x="1147.0166" y="326.1641"/></g><g><title>RouteRepository</title><rect fill="#FFFFFF" height="87.3984" style="stroke:#181818;stroke-width:1;" width="10" x="1147.0166" y="457.5"/></g><g><title>RouteRepository</title><rect fill="#FFFFFF" height="87.3984" style="stroke:#181818;stroke-width:1;" width="10" x="1147.0166" y="588.8359"/></g><g><title>Database</title><rect fill="#FFFFFF" height="29.1328" style="stroke:#181818;stroke-width:1;" width="10" x="1574.0728" y="223.9609"/></g><g><title>Database</title><rect fill="#FFFFFF" height="29.1328" style="stroke:#181818;stroke-width:1;" width="10" x="1574.0728" y="355.2969"/></g><g><title>Database</title><rect fill="#FFFFFF" height="29.1328" style="stroke:#181818;stroke-width:1;" width="10" x="1574.0728" y="486.6328"/></g><g><title>Database</title><rect fill="#FFFFFF" height="29.1328" style="stroke:#181818;stroke-width:1;" width="10" x="1574.0728" y="617.9688"/></g><g class="message" data-entity-1="part1" data-entity-2="part2" id="msg1"><polygon fill="#181818" points="493.1064,108.4297,503.1064,112.4297,493.1064,116.4297,497.1064,112.4297" style="stroke:#181818;stroke-width:1;"/><line style="stroke:#181818;stroke-width:1;" x1="26.8398" x2="499.1064" y1="112.4297" y2="112.4297"/><text fill="#000000" font-family="sans-serif" font-size="13" font-weight="bold" lengthAdjust="spacing" textLength="9.0454" x="33.8398" y="107.3638">1</text><text fill="#000000" font-family="sans-serif" font-size="13" lengthAdjust="spacing" textLength="446.2212" x="46.8853" y="107.3638">GET /api/routes/search?origin=...&amp;destination=...&amp;page=0&amp;size=20</text></g><g class="message" data-entity-1="part2" data-entity-2="part3" id="msg2"><polygon fill="#181818" points="784.145,137.5625,794.145,141.5625,784.145,145.5625,788.145,141.5625" style="stroke:#181818;stroke-width:1;"/><line style="stroke:#181818;stroke-width:1;" x1="515.1064" x2="790.145" y1="141.5625" y2="141.5625"/><text fill="#000000" font-family="sans-serif" font-size="13" font-weight="bold" lengthAdjust="spacing" textLength="9.0454" x="522.1064" y="136.4966">2</text><text fill="#000000" font-family="sans-serif" font-size="13" lengthAdjust="spacing" textLength="248.9932" x="535.1519" y="136.4966">execute(origin, destination, pageable)</text></g><path d="M705.4531,156.5625 L769.896,156.5625 L769.896,163.6953 L759.896,173.6953 L705.4531,173.6953 L705.4531,156.5625" fill="#EEEEEE" style="stroke:#000000;stroke-width:1.5;"/><rect fill="none" height="527.6719" style="stroke:#000000;stroke-width:1.5;" width="920.02" x="705.4531" y="156.5625"/><text fill="#000000" font-family="sans-serif" font-size="13" font-weight="bold" lengthAdjust="spacing" textLength="19.4429" x="720.4531" y="169.6294">alt</text><text fill="#000000" font-family="sans-serif" font-size="11" font-weight="bold" lengthAdjust="spacing" textLength="208.2803" x="784.896" y="168.7729">[Origin and destination provided]</text><g class="message" data-entity-1="part3" data-entity-2="part4" id="msg3"><polygon fill="#181818" points="1135.0166,190.8281,1145.0166,194.8281,1135.0166,198.8281,1139.0166,194.8281" style="stroke:#181818;stroke-width:1;"/><line style="stroke:#181818;stroke-width:1;" x1="806.145" x2="1141.0166" y1="194.8281" y2="194.8281"/><text fill="#000000" font-family="sans-serif" font-size="13" font-weight="bold" lengthAdjust="spacing" textLength="9.0454" x="813.145" y="189.7622">3</text><text fill="#000000" font-family="sans-serif" font-size="13" lengthAdjust="spacing" textLength="308.8262" x="826.1904" y="189.7622">findByOriginAndDestination(origin, destination)</text></g><g class="message" data-entity-1="part4" data-entity-2="part5" id="msg4"><polygon fill="#181818" points="1562.0728,219.9609,1572.0728,223.9609,1562.0728,227.9609,1566.0728,223.9609" style="stroke:#181818;stroke-width:1;"/><line style="stroke:#181818;stroke-width:1;" x1="1157.0166" x2="1568.0728" y1="223.9609" y2="223.9609"/><text fill="#000000" font-family="sans-serif" font-size="13" font-weight="bold" lengthAdjust="spacing" textLength="9.0454" x="1164.0166" y="218.895">4</text><text fill="#000000" font-family="sans-serif" font-size="13" lengthAdjust="spacing" textLength="385.0107" x="1177.062" y="218.895">SELECT FROM route WHERE origin = ? AND destination = ?</text></g><g class="message" data-entity-1="part5" data-entity-2="part4" id="msg5"><polygon fill="#181818" points="1168.0166,249.0938,1158.0166,253.0938,1168.0166,257.0938,1164.0166,253.0938" style="stroke:#181818;stroke-width:1;"/><line style="stroke:#181818;stroke-width:1;stroke-dasharray:2,2;" x1="1162.0166" x2="1578.0728" y1="253.0938" y2="253.0938"/><text fill="#000000" font-family="sans-serif" font-size="13" font-weight="bold" lengthAdjust="spacing" textLength="9.0454" x="1174.0166" y="248.0278">5</text><text fill="#000000" font-family="sans-serif" font-size="13" lengthAdjust="spacing" textLength="87.5786" x="1187.062" y="248.0278">route records</text></g><g class="message" data-entity-1="part4" data-entity-2="part3" id="msg6"><polygon fill="#181818" points="817.145,278.2266,807.145,282.2266,817.145,286.2266,813.145,282.2266" style="stroke:#181818;stroke-width:1;"/><line style="stroke:#181818;stroke-width:1;stroke-dasharray:2,2;" x1="811.145" x2="1151.0166" y1="282.2266" y2="282.2266"/><text fill="#000000" font-family="sans-serif" font-size="13" font-weight="bold" lengthAdjust="spacing" textLength="9.0454" x="823.145" y="277.1606">6</text><text fill="#000000" font-family="sans-serif" font-size="13" lengthAdjust="spacing" textLength="92.1616" x="836.1904" y="277.1606">Page&lt;Route&gt;</text></g><line style="stroke:#000000;stroke-width:1;stroke-dasharray:2,2;" x1="705.4531" x2="1625.4731" y1="291.2266" y2="291.2266"/><text fill="#000000" font-family="sans-serif" font-size="11" font-weight="bold" lengthAdjust="spacing" textLength="137.0703" x="710.4531" y="301.437">[Only origin provided]</text><g class="message" data-entity-1="part3" data-entity-2="part4" id="msg7"><polygon fill="#181818" points="1135.0166,322.1641,1145.0166,326.1641,1135.0166,330.1641,1139.0166,326.1641" style="stroke:#181818;stroke-width:1;"/><line style="stroke:#181818;stroke-width:1;" x1="806.145" x2="1141.0166" y1="326.1641" y2="326.1641"/><text fill="#000000" font-family="sans-serif" font-size="13" font-weight="bold" lengthAdjust="spacing" textLength="9.0454" x="813.145" y="321.0981">7</text><text fill="#000000" font-family="sans-serif" font-size="13" lengthAdjust="spacing" textLength="127.7402" x="826.1904" y="321.0981">findByOrigin(origin)</text></g><g class="message" data-entity-1="part4" data-entity-2="part5" id="msg8"><polygon fill="#181818" points="1562.0728,351.2969,1572.0728,355.2969,1562.0728,359.2969,1566.0728,355.2969" style="stroke:#181818;stroke-width:1;"/><line style="stroke:#181818;stroke-width:1;" x1="1157.0166" x2="1568.0728" y1="355.2969" y2="355.2969"/><text fill="#000000" font-family="sans-serif" font-size="13" font-weight="bold" lengthAdjust="spacing" textLength="9.0454" x="1164.0166" y="350.231">8</text><text fill="#000000" font-family="sans-serif" font-size="13" lengthAdjust="spacing" textLength="249.2217" x="1177.062" y="350.231">SELECT FROM route WHERE origin = ?</text></g><g class="message" data-entity-1="part5" data-entity-2="part4" id="msg9"><polygon fill="#181818" points="1168.0166,380.4297,1158.0166,384.4297,1168.0166,388.4297,1164.0166,384.4297" style="stroke:#181818;stroke-width:1;"/><line style="stroke:#181818;stroke-width:1;stroke-dasharray:2,2;" x1="1162.0166" x2="1578.0728" y1="384.4297" y2="384.4297"/><text fill="#000000" font-family="sans-serif" font-size="13" font-weight="bold" lengthAdjust="spacing" textLength="9.0454" x="1174.0166" y="379.3638">9</text><text fill="#000000" font-family="sans-serif" font-size="13" lengthAdjust="spacing" textLength="87.5786" x="1187.062" y="379.3638">route records</text></g><g class="message" data-entity-1="part4" data-entity-2="part3" id="msg10"><polygon fill="#181818" points="817.145,409.5625,807.145,413.5625,817.145,417.5625,813.145,413.5625" style="stroke:#181818;stroke-width:1;"/><line style="stroke:#181818;stroke-width:1;stroke-dasharray:2,2;" x1="811.145" x2="1151.0166" y1="413.5625" y2="413.5625"/><text fill="#000000" font-family="sans-serif" font-size="13" font-weight="bold" lengthAdjust="spacing" textLength="18.0908" x="823.145" y="408.4966">10</text><text fill="#000000" font-family="sans-serif" font-size="13" lengthAdjust="spacing" textLength="92.1616" x="845.2358" y="408.4966">Page&lt;Route&gt;</text></g><line style="stroke:#000000;stroke-width:1;stroke-dasharray:2,2;" x1="705.4531" x2="1625.4731" y1="422.5625" y2="422.5625"/><text fill="#000000" font-family="sans-serif" font-size="11" font-weight="bold" lengthAdjust="spacing" textLength="171.4238" x="710.4531" y="432.7729">[Only destination provided]</text><g class="message" data-entity-1="part3" data-entity-2="part4" id="msg11"><polygon fill="#181818" points="1135.0166,453.5,1145.0166,457.5,1135.0166,461.5,1139.0166,457.5" style="stroke:#181818;stroke-width:1;"/><line style="stroke:#181818;stroke-width:1;" x1="806.145" x2="1141.0166" y1="457.5" y2="457.5"/><text fill="#000000" font-family="sans-serif" font-size="13" font-weight="bold" lengthAdjust="spacing" textLength="18.0908" x="813.145" y="452.4341">11</text><text fill="#000000" font-family="sans-serif" font-size="13" lengthAdjust="spacing" textLength="198.8721" x="835.2358" y="452.4341">findByDestination(destination)</text></g><g class="message" data-entity-1="part4" data-entity-2="part5" id="msg12"><polygon fill="#181818" points="1562.0728,482.6328,1572.0728,486.6328,1562.0728,490.6328,1566.0728,486.6328" style="stroke:#181818;stroke-width:1;"/><line style="stroke:#181818;stroke-width:1;" x1="1157.0166" x2="1568.0728" y1="486.6328" y2="486.6328"/><text fill="#000000" font-family="sans-serif" font-size="13" font-weight="bold" lengthAdjust="spacing" textLength="18.0908" x="1164.0166" y="481.5669">12</text><text fill="#000000" font-family="sans-serif" font-size="13" lengthAdjust="spacing" textLength="285.0479" x="1186.1074" y="481.5669">SELECT FROM route WHERE destination = ?</text></g><g class="message" data-entity-1="part5" data-entity-2="part4" id="msg13"><polygon fill="#181818" points="1168.0166,511.7656,1158.0166,515.7656,1168.0166,519.7656,1164.0166,515.7656" style="stroke:#181818;stroke-width:1;"/><line style="stroke:#181818;stroke-width:1;stroke-dasharray:2,2;" x1="1162.0166" x2="1578.0728" y1="515.7656" y2="515.7656"/><text fill="#000000" font-family="sans-serif" font-size="13" font-weight="bold" lengthAdjust="spacing" textLength="18.0908" x="1174.0166" y="510.6997">13</text><text fill="#000000" font-family="sans-serif" font-size="13" lengthAdjust="spacing" textLength="87.5786" x="1196.1074" y="510.6997">route records</text></g><g class="message" data-entity-1="part4" data-entity-2="part3" id="msg14"><polygon fill="#181818" points="817.145,540.8984,807.145,544.8984,817.145,548.8984,813.145,544.8984" style="stroke:#181818;stroke-width:1;"/><line style="stroke:#181818;stroke-width:1;stroke-dasharray:2,2;" x1="811.145" x2="1151.0166" y1="544.8984" y2="544.8984"/><text fill="#000000" font-family="sans-serif" font-size="13" font-weight="bold" lengthAdjust="spacing" textLength="18.0908" x="823.145" y="539.8325">14</text><text fill="#000000" font-family="sans-serif" font-size="13" lengthAdjust="spacing" textLength="92.1616" x="845.2358" y="539.8325">Page&lt;Route&gt;</text></g><line style="stroke:#000000;stroke-width:1;stroke-dasharray:2,2;" x1="705.4531" x2="1625.4731" y1="553.8984" y2="553.8984"/><text fill="#000000" font-family="sans-serif" font-size="11" font-weight="bold" lengthAdjust="spacing" textLength="126.5" x="710.4531" y="564.1089">[No filters provided]</text><g class="message" data-entity-1="part3" data-entity-2="part4" id="msg15"><polygon fill="#181818" points="1135.0166,584.8359,1145.0166,588.8359,1135.0166,592.8359,1139.0166,588.8359" style="stroke:#181818;stroke-width:1;"/><line style="stroke:#181818;stroke-width:1;" x1="806.145" x2="1141.0166" y1="588.8359" y2="588.8359"/><text fill="#000000" font-family="sans-serif" font-size="13" font-weight="bold" lengthAdjust="spacing" textLength="18.0908" x="813.145" y="583.77">15</text><text fill="#000000" font-family="sans-serif" font-size="13" lengthAdjust="spacing" textLength="50.9399" x="835.2358" y="583.77">findAll()</text></g><g class="message" data-entity-1="part4" data-entity-2="part5" id="msg16"><polygon fill="#181818" points="1562.0728,613.9688,1572.0728,617.9688,1562.0728,621.9688,1566.0728,617.9688" style="stroke:#181818;stroke-width:1;"/><line style="stroke:#181818;stroke-width:1;" x1="1157.0166" x2="1568.0728" y1="617.9688" y2="617.9688"/><text fill="#000000" font-family="sans-serif" font-size="13" font-weight="bold" lengthAdjust="spacing" textLength="18.0908" x="1164.0166" y="612.9028">16</text><text fill="#000000" font-family="sans-serif" font-size="13" lengthAdjust="spacing" textLength="129.7969" x="1186.1074" y="612.9028">SELECT FROM route</text></g><g class="message" data-entity-1="part5" data-entity-2="part4" id="msg17"><polygon fill="#181818" points="1168.0166,643.1016,1158.0166,647.1016,1168.0166,651.1016,1164.0166,647.1016" style="stroke:#181818;stroke-width:1;"/><line style="stroke:#181818;stroke-width:1;stroke-dasharray:2,2;" x1="1162.0166" x2="1578.0728" y1="647.1016" y2="647.1016"/><text fill="#000000" font-family="sans-serif" font-size="13" font-weight="bold" lengthAdjust="spacing" textLength="18.0908" x="1174.0166" y="642.0356">17</text><text fill="#000000" font-family="sans-serif" font-size="13" lengthAdjust="spacing" textLength="87.5786" x="1196.1074" y="642.0356">route records</text></g><g class="message" data-entity-1="part4" data-entity-2="part3" id="msg18"><polygon fill="#181818" points="817.145,672.2344,807.145,676.2344,817.145,680.2344,813.145,676.2344" style="stroke:#181818;stroke-width:1;"/><line style="stroke:#181818;stroke-width:1;stroke-dasharray:2,2;" x1="811.145" x2="1151.0166" y1="676.2344" y2="676.2344"/><text fill="#000000" font-family="sans-serif" font-size="13" font-weight="bold" lengthAdjust="spacing" textLength="18.0908" x="823.145" y="671.1685">18</text><text fill="#000000" font-family="sans-serif" font-size="13" lengthAdjust="spacing" textLength="92.1616" x="845.2358" y="671.1685">Page&lt;Route&gt;</text></g><g class="message" data-entity-1="part3" data-entity-2="part2" id="msg19"><polygon fill="#181818" points="526.1064,708.3672,516.1064,712.3672,526.1064,716.3672,522.1064,712.3672" style="stroke:#181818;stroke-width:1;"/><line style="stroke:#181818;stroke-width:1;stroke-dasharray:2,2;" x1="520.1064" x2="795.145" y1="712.3672" y2="712.3672"/><text fill="#000000" font-family="sans-serif" font-size="13" font-weight="bold" lengthAdjust="spacing" textLength="18.0908" x="532.1064" y="707.3013">19</text><text fill="#000000" font-family="sans-serif" font-size="13" lengthAdjust="spacing" textLength="92.1616" x="554.1973" y="707.3013">Page&lt;Route&gt;</text></g><g class="message" data-entity-1="part2" data-entity-2="part1" id="msg20"><polygon fill="#181818" points="37.8398,737.5,27.8398,741.5,37.8398,745.5,33.8398,741.5" style="stroke:#181818;stroke-width:1;"/><line style="stroke:#181818;stroke-width:1;stroke-dasharray:2,2;" x1="31.8398" x2="509.1064" y1="741.5" y2="741.5"/><text fill="#000000" font-family="sans-serif" font-size="13" font-weight="bold" lengthAdjust="spacing" textLength="18.0908" x="43.8398" y="736.4341">20</text><text fill="#000000" font-family="sans-serif" font-size="13" lengthAdjust="spacing" textLength="328.0977" x="65.9307" y="736.4341">200 OK (HAL+JSON with _embedded, _links, page)</text></g><?plantuml-src pPHDRzim38Rl-XL43aM2fKdGOx6qS6nlnTR5GpxGOw5ON2jCamn9wPRz-j5KkpX5WNL3WSudqoAVbtmjK6wZizjl6_H2rj5vw6MhFE-1392riMYaZxhMZRGHUWktZPWx6xqp1ZsdvT6RmwmbIb_VScvO1ynbGCvSvq_G5jYue4bfnpbjA9ICSaDLq2lkt_Yic0d1JS7n6Sl2ARmlLp2MZHvxbXi7rZvtNjzeEnsDHaSAGzHMHkrItCWRd4wEWlw9qvD9ExM-an7J78AnX5_d1CSVM1ErdsX3wA26q7Bank1WZw01XJGHAiu7QLMt11hlxhH29O0U4Y2PTbmI-gAjckrIMMPLiIzwIdl0WD-gR5dxXM44BMQ4N9QNPRw2Tulg4x0tS7LHBaf8F9Z2EMJpug0_-dP89iFRc7Z7-ruJp6Fjl0fyhl1nHUhamSRFvDHR_jbdZ_EvTpJqgojhTW_DFS-eUsjUo8rNdlnlxadtUhpKjVXlxi7SqPGceWz_y24pflzl8x_ES5O9qGwntrtTahHtw2mjk5CucKoW-WZzY-popOTbDOVlEjx2DTAgLkJ94AwDjbz3saC38Jfwj8OwKKl-1G00?></g></svg>