<?plantuml 1.2026.1?><svg xmlns="http://www.w3.org/2000/svg" xmlns:xlink="http://www.w3.org/1999/xlink" contentStyleType="text/css" data-diagram-type="SEQUENCE" height="240px" preserveAspectRatio="none" style="width:319px;height:240px;background:#FFFFFF;" version="1.1" viewBox="0 0 319 240" width="319px" zoomAndPan="magnify"><defs/><g><g><title>System</title><rect fill="#FFFFFF" height="29.1328" style="stroke:#181818;stroke-width:1;" width="10" x="275.7085" y="112.4297"/></g><g class="participant-lifeline" data-entity-uid="part1" data-qualified-name="Actor" id="part1-lifeline"><g><title>ATCC</title><rect fill="#000000" fill-opacity="0.00000" height="78.2656" width="8" x="22.8398" y="81.2969"/><line style="stroke:#181818;stroke-width:0.5;stroke-dasharray:5,5;" x1="26" x2="26" y1="81.2969" y2="159.5625"/></g></g><g class="participant-lifeline" data-entity-uid="part2" data-qualified-name="Sys" id="part2-lifeline"><g><title>System</title><rect fill="#000000" fill-opacity="0.00000" height="78.2656" width="8" x="276.7085" y="81.2969"/><line style="stroke:#181818;stroke-width:0.5;stroke-dasharray:5,5;" x1="280.6055" x2="280.6055" y1="81.2969" y2="159.5625"/></g></g><g class="participant participant-head" data-entity-uid="part1" data-qualified-name="Actor" id="part1-head"><text fill="#000000" font-family="sans-serif" font-size="14" lengthAdjust="spacing" textLength="37.6797" x="5" y="77.9951">ATCC</text><ellipse cx="26.8398" cy="13.5" fill="#E2E2F0" rx="8" ry="8" style="stroke:#181818;stroke-width:0.5;"/><path d="M26.8398,21.5 L26.8398,48.5 M13.8398,29.5 L39.8398,29.5 M26.8398,48.5 L13.8398,63.5 M26.8398,48.5 L39.8398,63.5" fill="none" style="stroke:#181818;stroke-width:0.5;"/></g><g class="participant participant-tail" data-entity-uid="part1" data-qualified-name="Actor" id="part1-tail"><text fill="#000000" font-family="sans-serif" font-size="14" lengthAdjust="spacing" textLength="37.6797" x="5" y="171.5576">ATCC</text><ellipse cx="26.8398" cy="183.3594" fill="#E2E2F0" rx="8" ry="8" style="stroke:#181818;stroke-width:0.5;"/><path d="M26.8398,191.3594 L26.8398,218.3594 M13.8398,199.3594 L39.8398,199.3594 M26.8398,218.3594 L13.8398,233.3594 M26.8398,218.3594 L39.8398,233.3594" fill="none" style="stroke:#181818;stroke-width:0.5;"/></g><g class="participant participant-head" data-entity-uid="part2" data-qualified-name="Sys" id="part2-head"><rect fill="#E2E2F0" height="30.2969" rx="2.5" ry="2.5" style="stroke:#181818;stroke-width:0.5;" width="66.2061" x="247.6055" y="50"/><text fill="#000000" font-family="sans-serif" font-size="14" lengthAdjust="spacing" textLength="52.2061" x="254.6055" y="69.9951">System</text></g><g class="participant participant-tail" data-entity-uid="part2" data-qualified-name="Sys" id="part2-tail"><rect fill="#E2E2F0" height="30.2969" rx="2.5" ry="2.5" style="stroke:#181818;stroke-width:0.5;" width="66.2061" x="247.6055" y="158.5625"/><text fill="#000000" font-family="sans-serif" font-size="14" lengthAdjust="spacing" textLength="52.2061" x="254.6055" y="178.5576">System</text></g><g><title>System</title><rect fill="#FFFFFF" height="29.1328" style="stroke:#181818;stroke-width:1;" width="10" x="275.7085" y="112.4297"/></g><g class="message" data-entity-1="part1" data-entity-2="part2" id="msg1"><polygon fill="#181818" points="263.7085,108.4297,273.7085,112.4297,263.7085,116.4297,267.7085,112.4297" style="stroke:#181818;stroke-width:1;"/><line style="stroke:#181818;stroke-width:1;" x1="26.8398" x2="269.7085" y1="112.4297" y2="112.4297"/><text fill="#000000" font-family="sans-serif" font-size="13" font-weight="bold" lengthAdjust="spacing" textLength="9.0454" x="33.8398" y="107.3638">1</text><text fill="#000000" font-family="sans-serif" font-size="13" lengthAdjust="spacing" textLength="216.8232" x="46.8853" y="107.3638">searchRoutes(origin, destination)</text></g><g class="message" data-entity-1="part2" data-entity-2="part1" id="msg2"><polygon fill="#181818" points="37.8398,137.5625,27.8398,141.5625,37.8398,145.5625,33.8398,141.5625" style="stroke:#181818;stroke-width:1;"/><line style="stroke:#181818;stroke-width:1;stroke-dasharray:2,2;" x1="31.8398" x2="279.7085" y1="141.5625" y2="141.5625"/><text fill="#000000" font-family="sans-serif" font-size="13" font-weight="bold" lengthAdjust="spacing" textLength="9.0454" x="43.8398" y="136.4966">2</text><text fill="#000000" font-family="sans-serif" font-size="13" lengthAdjust="spacing" textLength="181.1494" x="56.8853" y="136.4966">returns matching routes list</text></g><?plantuml-src JOr13i8m30JlUOML4qZq0pqWLVq1y06JMgqbubIsWyJlQSA5swvsPnUh5wdvIHemUL68qsEU8w31r7pOKPqJxoWEyVunfzpJGuRGAp1ScuCHZ53JTYlLoKv5UMMvm4BcBEXSvDm--8rE7M_GSC2_bH6KlAeOPFIqiQoWVGbUR1uM-cU_?></g></svg>