<svg xmlns="http://www.w3.org/2000/svg" xmlns:xlink="http://www.w3.org/1999/xlink" contentStyleType="text/css" data-diagram-type="SEQUENCE" height="558px" preserveAspectRatio="none" style="width:1252px;height:558px;background:#FFFFFF;" version="1.1" viewBox="0 0 1252 558" width="1252px" zoomAndPan="magnify"><?plantuml 1.2026.4?><defs/><g><g><title>AirportController</title><rect fill="#FFFFFF" height="342.2188" style="stroke:#181818;stroke-width:1;" width="10" x="294.3916" y="114.9609"/></g><g><title>RegisterAirportUseCase</title><rect fill="#FFFFFF" height="212.4609" style="stroke:#181818;stroke-width:1;" width="10" x="444.8257" y="214.3672"/></g><g><title>Airport</title><rect fill="#FFFFFF" height="30.3516" style="stroke:#181818;stroke-width:1;" width="10" x="932.3115" y="244.7188"/></g><g><title>AirportRepository</title><rect fill="#FFFFFF" height="91.0547" style="stroke:#181818;stroke-width:1;" width="10" x="1031.0044" y="305.4219"/></g><g><title>Database</title><rect fill="#FFFFFF" height="30.3516" style="stroke:#181818;stroke-width:1;" width="10" x="1203.3843" y="335.7734"/></g><g class="participant-lifeline" data-entity-uid="part1" data-qualified-name="BO" data-source-line="2" id="part1-lifeline"><g><title>Backoffice Operator</title><rect fill="#000000" fill-opacity="0.00000" height="392.5703" width="8" x="65.8618" y="82.6094"/><line style="stroke:#181818;stroke-width:0.5;stroke-dasharray:5,5;" x1="69" x2="69" y1="82.6094" y2="475.1797"/></g></g><g class="participant-lifeline" data-entity-uid="part2" data-qualified-name="Ctrl" data-source-line="3" id="part2-lifeline"><g><title>AirportController</title><rect fill="#000000" fill-opacity="0.00000" height="392.5703" width="8" x="295.3916" y="82.6094"/><line style="stroke:#181818;stroke-width:0.5;stroke-dasharray:5,5;" x1="298.4297" x2="298.4297" y1="82.6094" y2="475.1797"/></g></g><g class="participant-lifeline" data-entity-uid="part3" data-qualified-name="UC" data-source-line="4" id="part3-lifeline"><g><title>RegisterAirportUseCase</title><rect fill="#000000" fill-opacity="0.00000" height="392.5703" width="8" x="445.8257" y="82.6094"/><line style="stroke:#181818;stroke-width:0.5;stroke-dasharray:5,5;" x1="449.3535" x2="449.3535" y1="82.6094" y2="475.1797"/></g></g><g class="participant-lifeline" data-entity-uid="part4" data-qualified-name="Entity" data-source-line="5" id="part4-lifeline"><g><title>Airport</title><rect fill="#000000" fill-opacity="0.00000" height="392.5703" width="8" x="933.3115" y="82.6094"/><line style="stroke:#181818;stroke-width:0.5;stroke-dasharray:5,5;" x1="936.6943" x2="936.6943" y1="82.6094" y2="475.1797"/></g></g><g class="participant-lifeline" data-entity-uid="part5" data-qualified-name="Repo" data-source-line="6" id="part5-lifeline"><g><title>AirportRepository</title><rect fill="#000000" fill-opacity="0.00000" height="392.5703" width="8" x="1032.0044" y="82.6094"/><line style="stroke:#181818;stroke-width:0.5;stroke-dasharray:5,5;" x1="1035.9287" x2="1035.9287" y1="82.6094" y2="475.1797"/></g></g><g class="participant-lifeline" data-entity-uid="part6" data-qualified-name="DB" data-source-line="7" id="part6-lifeline"><g><title>Database</title><rect fill="#000000" fill-opacity="0.00000" height="392.5703" width="8" x="1204.3843" y="82.6094"/><line style="stroke:#181818;stroke-width:0.5;stroke-dasharray:5,5;" x1="1207.4189" x2="1207.4189" y1="82.6094" y2="475.1797"/></g></g><g class="participant participant-head" data-entity-uid="part1" data-qualified-name="BO" data-source-line="2" id="part1-head"><text fill="#000000" font-family="sans-serif" font-size="14" lengthAdjust="spacing" textLength="123.7236" x="5" y="79.5332">Backoffice Operator</text><ellipse cx="69.8618" cy="13.5" fill="#E2E2F0" rx="8" ry="8" style="stroke:#181818;stroke-width:0.5;"/><path d="M69.8618,21.5 L69.8618,48.5 M56.8618,29.5 L82.8618,29.5 M69.8618,48.5 L56.8618,63.5 M69.8618,48.5 L82.8618,63.5" fill="none" style="stroke:#181818;stroke-width:0.5;"/></g><g class="participant participant-tail" data-entity-uid="part1" data-qualified-name="BO" data-source-line="2" id="part1-tail"><text fill="#000000" font-family="sans-serif" font-size="14" lengthAdjust="spacing" textLength="123.7236" x="5" y="488.7129">Backoffice Operator</text><ellipse cx="69.8618" cy="500.2891" fill="#E2E2F0" rx="8" ry="8" style="stroke:#181818;stroke-width:0.5;"/><path d="M69.8618,508.2891 L69.8618,535.2891 M56.8618,516.2891 L82.8618,516.2891 M69.8618,535.2891 L56.8618,550.2891 M69.8618,535.2891 L82.8618,550.2891" fill="none" style="stroke:#181818;stroke-width:0.5;"/></g><g class="participant participant-head" data-entity-uid="part2" data-qualified-name="Ctrl" data-source-line="3" id="part2-head"><rect fill="#E2E2F0" height="31.6094" rx="2.5" ry="2.5" style="stroke:#181818;stroke-width:0.5;" width="115.9238" x="241.4297" y="50"/><text fill="#000000" font-family="sans-serif" font-size="14" lengthAdjust="spacing" textLength="101.9238" x="248.4297" y="71.5332">AirportController</text></g><g class="participant participant-tail" data-entity-uid="part2" data-qualified-name="Ctrl" data-source-line="3" id="part2-tail"><rect fill="#E2E2F0" height="31.6094" rx="2.5" ry="2.5" style="stroke:#181818;stroke-width:0.5;" width="115.9238" x="241.4297" y="474.1797"/><text fill="#000000" font-family="sans-serif" font-size="14" lengthAdjust="spacing" textLength="101.9238" x="248.4297" y="495.7129">AirportController</text></g><g class="participant participant-head" data-entity-uid="part3" data-qualified-name="UC" data-source-line="4" id="part3-head"><rect fill="#E2E2F0" height="31.6094" rx="2.5" ry="2.5" style="stroke:#181818;stroke-width:0.5;" width="164.9443" x="367.3535" y="50"/><text fill="#000000" font-family="sans-serif" font-size="14" lengthAdjust="spacing" textLength="150.9443" x="374.3535" y="71.5332">RegisterAirportUseCase</text></g><g class="participant participant-tail" data-entity-uid="part3" data-qualified-name="UC" data-source-line="4" id="part3-tail"><rect fill="#E2E2F0" height="31.6094" rx="2.5" ry="2.5" style="stroke:#181818;stroke-width:0.5;" width="164.9443" x="367.3535" y="474.1797"/><text fill="#000000" font-family="sans-serif" font-size="14" lengthAdjust="spacing" textLength="150.9443" x="374.3535" y="495.7129">RegisterAirportUseCase</text></g><g class="participant participant-head" data-entity-uid="part4" data-qualified-name="Entity" data-source-line="5" id="part4-head"><rect fill="#E2E2F0" height="31.6094" rx="2.5" ry="2.5" style="stroke:#181818;stroke-width:0.5;" width="55.2344" x="909.6943" y="50"/><text fill="#000000" font-family="sans-serif" font-size="14" lengthAdjust="spacing" textLength="41.2344" x="916.6943" y="71.5332">Airport</text></g><g class="participant participant-tail" data-entity-uid="part4" data-qualified-name="Entity" data-source-line="5" id="part4-tail"><rect fill="#E2E2F0" height="31.6094" rx="2.5" ry="2.5" style="stroke:#181818;stroke-width:0.5;" width="55.2344" x="909.6943" y="474.1797"/><text fill="#000000" font-family="sans-serif" font-size="14" lengthAdjust="spacing" textLength="41.2344" x="916.6943" y="495.7129">Airport</text></g><g class="participant participant-head" data-entity-uid="part5" data-qualified-name="Repo" data-source-line="6" id="part5-head"><rect fill="#E2E2F0" height="31.6094" rx="2.5" ry="2.5" style="stroke:#181818;stroke-width:0.5;" width="122.1514" x="974.9287" y="50"/><text fill="#000000" font-family="sans-serif" font-size="14" lengthAdjust="spacing" textLength="108.1514" x="981.9287" y="71.5332">AirportRepository</text></g><g class="participant participant-tail" data-entity-uid="part5" data-qualified-name="Repo" data-source-line="6" id="part5-tail"><rect fill="#E2E2F0" height="31.6094" rx="2.5" ry="2.5" style="stroke:#181818;stroke-width:0.5;" width="122.1514" x="974.9287" y="474.1797"/><text fill="#000000" font-family="sans-serif" font-size="14" lengthAdjust="spacing" textLength="108.1514" x="981.9287" y="495.7129">AirportRepository</text></g><g class="participant participant-head" data-entity-uid="part6" data-qualified-name="DB" data-source-line="7" id="part6-head"><text fill="#000000" font-family="sans-serif" font-size="14" lengthAdjust="spacing" textLength="59.9307" x="1175.4189" y="79.5332">Database</text><path d="M1190.3843,29 C1190.3843,19 1208.3843,19 1208.3843,19 C1208.3843,19 1226.3843,19 1226.3843,29 L1226.3843,55 C1226.3843,65 1208.3843,65 1208.3843,65 C1208.3843,65 1190.3843,65 1190.3843,55 L1190.3843,29" fill="#E2E2F0" style="stroke:#181818;stroke-width:0.5;"/><path d="M1190.3843,29 C1190.3843,39 1208.3843,39 1208.3843,39 C1208.3843,39 1226.3843,39 1226.3843,29" fill="none" style="stroke:#181818;stroke-width:0.5;"/></g><g class="participant participant-tail" data-entity-uid="part6" data-qualified-name="DB" data-source-line="7" id="part6-tail"><text fill="#000000" font-family="sans-serif" font-size="14" lengthAdjust="spacing" textLength="59.9307" x="1175.4189" y="488.7129">Database</text><path d="M1190.3843,501.7891 C1190.3843,491.7891 1208.3843,491.7891 1208.3843,491.7891 C1208.3843,491.7891 1226.3843,491.7891 1226.3843,501.7891 L1226.3843,527.7891 C1226.3843,537.7891 1208.3843,537.7891 1208.3843,537.7891 C1208.3843,537.7891 1190.3843,537.7891 1190.3843,527.7891 L1190.3843,501.7891" fill="#E2E2F0" style="stroke:#181818;stroke-width:0.5;"/><path d="M1190.3843,501.7891 C1190.3843,511.7891 1208.3843,511.7891 1208.3843,511.7891 C1208.3843,511.7891 1226.3843,511.7891 1226.3843,501.7891" fill="none" style="stroke:#181818;stroke-width:0.5;"/></g><g><title>AirportController</title><rect fill="#FFFFFF" height="342.2188" style="stroke:#181818;stroke-width:1;" width="10" x="294.3916" y="114.9609"/></g><g><title>RegisterAirportUseCase</title><rect fill="#FFFFFF" height="212.4609" style="stroke:#181818;stroke-width:1;" width="10" x="444.8257" y="214.3672"/></g><g><title>Airport</title><rect fill="#FFFFFF" height="30.3516" style="stroke:#181818;stroke-width:1;" width="10" x="932.3115" y="244.7188"/></g><g><title>AirportRepository</title><rect fill="#FFFFFF" height="91.0547" style="stroke:#181818;stroke-width:1;" width="10" x="1031.0044" y="305.4219"/></g><g><title>Database</title><rect fill="#FFFFFF" height="30.3516" style="stroke:#181818;stroke-width:1;" width="10" x="1203.3843" y="335.7734"/></g><g class="message" data-entity-1="part1" data-entity-2="part2" data-source-line="9" id="msg1"><polygon fill="#181818" points="282.3916,110.9609,292.3916,114.9609,282.3916,118.9609,286.3916,114.9609" style="stroke:#181818;stroke-width:1;stroke-linejoin:miter;stroke-miterlimit:10;"/><line style="stroke:#181818;stroke-width:1;" x1="69.8618" x2="288.3916" y1="114.9609" y2="114.9609"/><text fill="#000000" font-family="sans-serif" font-size="13" font-weight="700" lengthAdjust="spacing" textLength="7.23" x="76.8618" y="110.1045">1</text><text fill="#000000" font-family="sans-serif" font-size="13" lengthAdjust="spacing" textLength="153.8672" x="88.0918" y="110.1045">POST /api/airports (JSON)</text></g><path d="M309,127.9609 L309,186.9609 L503,186.9609 L503,137.9609 L493,127.9609 L309,127.9609" fill="#FEFFDD" style="stroke:#181818;stroke-width:0.5;"/><path d="M493,127.9609 L493,137.9609 L503,137.9609 L493,127.9609" fill="#FEFFDD" style="stroke:#181818;stroke-width:0.5;"/><text fill="#000000" font-family="sans-serif" font-size="13" lengthAdjust="spacing" textLength="173.5957" x="315" y="146.4561">@Valid validates IATA format,</text><text fill="#000000" font-family="sans-serif" font-size="13" lengthAdjust="spacing" textLength="158.9897" x="315" y="162.8076">non-blank fields, coordinate</text><text fill="#000000" font-family="sans-serif" font-size="13" lengthAdjust="spacing" textLength="159.707" x="315" y="179.1592">ranges, at least one runway</text><g class="message" data-entity-1="part2" data-entity-2="part3" data-source-line="14" id="msg2"><polygon fill="#181818" points="432.8257,210.3672,442.8257,214.3672,432.8257,218.3672,436.8257,214.3672" style="stroke:#181818;stroke-width:1;stroke-linejoin:miter;stroke-miterlimit:10;"/><line style="stroke:#181818;stroke-width:1;" x1="304.3916" x2="438.8257" y1="214.3672" y2="214.3672"/><text fill="#000000" font-family="sans-serif" font-size="13" font-weight="700" lengthAdjust="spacing" textLength="7.23" x="311.3916" y="209.5107">2</text><text fill="#000000" font-family="sans-serif" font-size="13" lengthAdjust="spacing" textLength="97.5508" x="322.6216" y="209.5107">execute(request)</text></g><g class="message" data-entity-1="part3" data-entity-2="part4" data-source-line="17" id="msg3"><polygon fill="#181818" points="920.3115,240.7188,930.3115,244.7188,920.3115,248.7188,924.3115,244.7188" style="stroke:#181818;stroke-width:1;stroke-linejoin:miter;stroke-miterlimit:10;"/><line style="stroke:#181818;stroke-width:1;" x1="454.8257" x2="926.3115" y1="244.7188" y2="244.7188"/><text fill="#000000" font-family="sans-serif" font-size="13" font-weight="700" lengthAdjust="spacing" textLength="7.23" x="461.8257" y="239.8623">3</text><text fill="#000000" font-family="sans-serif" font-size="13" lengthAdjust="spacing" textLength="447.2559" x="473.0557" y="239.8623">new Airport(iataCode, name, city, country, region, timezone, lat, lon, runways)</text></g><g class="message" data-entity-1="part4" data-entity-2="part3" data-source-line="19" id="msg4"><polygon fill="#181818" points="465.8257,271.0703,455.8257,275.0703,465.8257,279.0703,461.8257,275.0703" style="stroke:#181818;stroke-width:1;stroke-linejoin:miter;stroke-miterlimit:10;"/><line style="stroke:#181818;stroke-width:1;stroke-dasharray:2,2;" x1="459.8257" x2="936.3115" y1="275.0703" y2="275.0703"/><text fill="#000000" font-family="sans-serif" font-size="13" font-weight="700" lengthAdjust="spacing" textLength="7.23" x="471.8257" y="270.2139">4</text><text fill="#000000" font-family="sans-serif" font-size="13" lengthAdjust="spacing" textLength="36.8481" x="483.0557" y="270.2139">airport</text></g><g class="message" data-entity-1="part3" data-entity-2="part5" data-source-line="22" id="msg5"><polygon fill="#181818" points="1019.0044,301.4219,1029.0044,305.4219,1019.0044,309.4219,1023.0044,305.4219" style="stroke:#181818;stroke-width:1;stroke-linejoin:miter;stroke-miterlimit:10;"/><line style="stroke:#181818;stroke-width:1;" x1="454.8257" x2="1025.0044" y1="305.4219" y2="305.4219"/><text fill="#000000" font-family="sans-serif" font-size="13" font-weight="700" lengthAdjust="spacing" textLength="7.23" x="461.8257" y="300.5654">5</text><text fill="#000000" font-family="sans-serif" font-size="13" lengthAdjust="spacing" textLength="72.9663" x="473.0557" y="300.5654">save(airport)</text></g><g class="message" data-entity-1="part5" data-entity-2="part6" data-source-line="24" id="msg6"><polygon fill="#181818" points="1191.3843,331.7734,1201.3843,335.7734,1191.3843,339.7734,1195.3843,335.7734" style="stroke:#181818;stroke-width:1;stroke-linejoin:miter;stroke-miterlimit:10;"/><line style="stroke:#181818;stroke-width:1;" x1="1041.0044" x2="1197.3843" y1="335.7734" y2="335.7734"/><text fill="#000000" font-family="sans-serif" font-size="13" font-weight="700" lengthAdjust="spacing" textLength="7.23" x="1048.0044" y="330.917">6</text><text fill="#000000" font-family="sans-serif" font-size="13" lengthAdjust="spacing" textLength="122.7954" x="1059.2344" y="330.917">INSERT INTO airport</text></g><g class="message" data-entity-1="part6" data-entity-2="part5" data-source-line="26" id="msg7"><polygon fill="#181818" points="1052.0044,362.125,1042.0044,366.125,1052.0044,370.125,1048.0044,366.125" style="stroke:#181818;stroke-width:1;stroke-linejoin:miter;stroke-miterlimit:10;"/><line style="stroke:#181818;stroke-width:1;stroke-dasharray:2,2;" x1="1046.0044" x2="1207.3843" y1="366.125" y2="366.125"/><text fill="#000000" font-family="sans-serif" font-size="13" font-weight="700" lengthAdjust="spacing" textLength="7.23" x="1058.0044" y="361.2686">7</text><text fill="#000000" font-family="sans-serif" font-size="13" lengthAdjust="spacing" textLength="127.1499" x="1069.2344" y="361.2686">saved record (with ID)</text></g><g class="message" data-entity-1="part5" data-entity-2="part3" data-source-line="28" id="msg8"><polygon fill="#181818" points="465.8257,392.4766,455.8257,396.4766,465.8257,400.4766,461.8257,396.4766" style="stroke:#181818;stroke-width:1;stroke-linejoin:miter;stroke-miterlimit:10;"/><line style="stroke:#181818;stroke-width:1;stroke-dasharray:2,2;" x1="459.8257" x2="1035.0044" y1="396.4766" y2="396.4766"/><text fill="#000000" font-family="sans-serif" font-size="13" font-weight="700" lengthAdjust="spacing" textLength="7.23" x="471.8257" y="391.6201">8</text><text fill="#000000" font-family="sans-serif" font-size="13" lengthAdjust="spacing" textLength="72.979" x="483.0557" y="391.6201">savedAirport</text></g><g class="message" data-entity-1="part3" data-entity-2="part2" data-source-line="31" id="msg9"><polygon fill="#181818" points="315.3916,422.8281,305.3916,426.8281,315.3916,430.8281,311.3916,426.8281" style="stroke:#181818;stroke-width:1;stroke-linejoin:miter;stroke-miterlimit:10;"/><line style="stroke:#181818;stroke-width:1;stroke-dasharray:2,2;" x1="309.3916" x2="448.8257" y1="426.8281" y2="426.8281"/><text fill="#000000" font-family="sans-serif" font-size="13" font-weight="700" lengthAdjust="spacing" textLength="7.23" x="321.3916" y="421.9717">9</text><text fill="#000000" font-family="sans-serif" font-size="13" lengthAdjust="spacing" textLength="96.8271" x="332.6216" y="421.9717">AirportResponse</text></g><g class="message" data-entity-1="part2" data-entity-2="part1" data-source-line="34" id="msg10"><polygon fill="#181818" points="80.8618,453.1797,70.8618,457.1797,80.8618,461.1797,76.8618,457.1797" style="stroke:#181818;stroke-width:1;stroke-linejoin:miter;stroke-miterlimit:10;"/><line style="stroke:#181818;stroke-width:1;stroke-dasharray:2,2;" x1="74.8618" x2="298.3916" y1="457.1797" y2="457.1797"/><text fill="#000000" font-family="sans-serif" font-size="13" font-weight="700" lengthAdjust="spacing" textLength="14.46" x="86.8618" y="452.3232">10</text><text fill="#000000" font-family="sans-serif" font-size="13" lengthAdjust="spacing" textLength="182.0698" x="105.3218" y="452.3232">201 Created (JSON with _links)</text></g><?plantuml-src RP9DRzim38Rl-XL4JYxWe5kFFGoBdHwoGrtaOwS20sFJgH15SYKwQVRhHyjEvcozoBBua7pvWIqxsnwsv1MMx3nCCYpthgvrIL0qv54U9u01ia8rw5cNka7BC9bftpZFkRFidJ7KKpbxSyijQQS3an_uJQ0S0qLuatyQCjgUB6i-VsfVKkE25btdI7Q_gaB6hSI5oNouHTiyKoehOFej2eD7U2bMQxZ7HjzZ7on0ycDLFDzrvUiZClKbAElawlNkZS7L5-_lFz7e2exTAMY0nMmzWzhv0tBwQgspqwr1kuTQawb22gLplj9Ms5VhqUv8tf3140Q9QoL3QqzuLYec49cRNDBG1vKjK-BflQN08stICIM8W7r_1BPqWg4nYPRQSrTH2XOFSfQ2T29QcP5Sl8p2sHHO7-YtP4_1Y6umtLil98no3HCO4aqlueQ-gOh-9GTbtJo42tYaP817KUEq8YBeF1DmyRnwMgxbiowkmQ-u352WwMtOIYeffR6Gd3I_mM9-DrOZBdtyY-BeCljVTfGIHV_TZ-kAXSRPG6Eywtq_9i5bgHxXuSjNo3s9iUgt2AAUNqRRVRZHrFdz0G00?></g></svg>