<svg xmlns="http://www.w3.org/2000/svg" xmlns:xlink="http://www.w3.org/1999/xlink" contentStyleType="text/css" data-diagram-type="SEQUENCE" height="429px" preserveAspectRatio="none" style="width:1378px;height:429px;background:#FFFFFF;" version="1.1" viewBox="0 0 1378 429" width="1378px" zoomAndPan="magnify"><?plantuml 1.2026.4?><defs/><g><g><title>AircraftController</title><rect fill="#FFFFFF" height="212.4609" style="stroke:#181818;stroke-width:1;" width="10" x="379.9048" y="114.9609"/></g><g><title>SearchAircraftUseCase</title><rect fill="#FFFFFF" height="151.7578" style="stroke:#181818;stroke-width:1;" width="10" x="665.0444" y="145.3125"/></g><g><title>AircraftRepository</title><rect fill="#FFFFFF" height="91.0547" style="stroke:#181818;stroke-width:1;" width="10" x="982.0132" y="175.6641"/></g><g><title>Database</title><rect fill="#FFFFFF" height="30.3516" style="stroke:#181818;stroke-width:1;" width="10" x="1329.9648" y="206.0156"/></g><g class="participant-lifeline" data-entity-uid="part1" data-qualified-name="ATCC" data-source-line="2" id="part1-lifeline"><g><title>ATCC</title><rect fill="#000000" fill-opacity="0.00000" height="262.8125" width="8" x="23.0552" y="82.6094"/><line style="stroke:#181818;stroke-width:0.5;stroke-dasharray:5,5;" x1="27" x2="27" y1="82.6094" y2="345.4219"/></g></g><g class="participant-lifeline" data-entity-uid="part2" data-qualified-name="Ctrl" data-source-line="3" id="part2-lifeline"><g><title>AircraftController</title><rect fill="#000000" fill-opacity="0.00000" height="262.8125" width="8" x="380.9048" y="82.6094"/><line style="stroke:#181818;stroke-width:0.5;stroke-dasharray:5,5;" x1="384.3911" x2="384.3911" y1="82.6094" y2="345.4219"/></g></g><g class="participant-lifeline" data-entity-uid="part3" data-qualified-name="UC" data-source-line="4" id="part3-lifeline"><g><title>SearchAircraftUseCase</title><rect fill="#000000" fill-opacity="0.00000" height="262.8125" width="8" x="666.0444" y="82.6094"/><line style="stroke:#181818;stroke-width:0.5;stroke-dasharray:5,5;" x1="669.9067" x2="669.9067" y1="82.6094" y2="345.4219"/></g></g><g class="participant-lifeline" data-entity-uid="part4" data-qualified-name="Repo" data-source-line="5" id="part4-lifeline"><g><title>AircraftRepository</title><rect fill="#000000" fill-opacity="0.00000" height="262.8125" width="8" x="983.0132" y="82.6094"/><line style="stroke:#181818;stroke-width:0.5;stroke-dasharray:5,5;" x1="986.3857" x2="986.3857" y1="82.6094" y2="345.4219"/></g></g><g class="participant-lifeline" data-entity-uid="part5" data-qualified-name="DB" data-source-line="6" id="part5-lifeline"><g><title>Database</title><rect fill="#000000" fill-opacity="0.00000" height="262.8125" width="8" x="1330.9648" y="82.6094"/><line style="stroke:#181818;stroke-width:0.5;stroke-dasharray:5,5;" x1="1333.9995" x2="1333.9995" y1="82.6094" y2="345.4219"/></g></g><g class="participant participant-head" data-entity-uid="part1" data-qualified-name="ATCC" data-source-line="2" id="part1-head"><text fill="#000000" font-family="sans-serif" font-size="14" lengthAdjust="spacing" textLength="38.1104" x="5" y="79.5332">ATCC</text><ellipse cx="27.0552" cy="13.5" fill="#E2E2F0" rx="8" ry="8" style="stroke:#181818;stroke-width:0.5;"/><path d="M27.0552,21.5 L27.0552,48.5 M14.0552,29.5 L40.0552,29.5 M27.0552,48.5 L14.0552,63.5 M27.0552,48.5 L40.0552,63.5" fill="none" style="stroke:#181818;stroke-width:0.5;"/></g><g class="participant participant-tail" data-entity-uid="part1" data-qualified-name="ATCC" data-source-line="2" id="part1-tail"><text fill="#000000" font-family="sans-serif" font-size="14" lengthAdjust="spacing" textLength="38.1104" x="5" y="358.9551">ATCC</text><ellipse cx="27.0552" cy="370.5313" fill="#E2E2F0" rx="8" ry="8" style="stroke:#181818;stroke-width:0.5;"/><path d="M27.0552,378.5313 L27.0552,405.5313 M14.0552,386.5313 L40.0552,386.5313 M27.0552,405.5313 L14.0552,420.5313 M27.0552,405.5313 L40.0552,420.5313" fill="none" style="stroke:#181818;stroke-width:0.5;"/></g><g class="participant participant-head" data-entity-uid="part2" data-qualified-name="Ctrl" data-source-line="3" id="part2-head"><rect fill="#E2E2F0" height="31.6094" rx="2.5" ry="2.5" style="stroke:#181818;stroke-width:0.5;" width="119.0273" x="325.3911" y="50"/><text fill="#000000" font-family="sans-serif" font-size="14" lengthAdjust="spacing" textLength="105.0273" x="332.3911" y="71.5332">AircraftController</text></g><g class="participant participant-tail" data-entity-uid="part2" data-qualified-name="Ctrl" data-source-line="3" id="part2-tail"><rect fill="#E2E2F0" height="31.6094" rx="2.5" ry="2.5" style="stroke:#181818;stroke-width:0.5;" width="119.0273" x="325.3911" y="344.4219"/><text fill="#000000" font-family="sans-serif" font-size="14" lengthAdjust="spacing" textLength="105.0273" x="332.3911" y="365.9551">AircraftController</text></g><g class="participant participant-head" data-entity-uid="part3" data-qualified-name="UC" data-source-line="4" id="part3-head"><rect fill="#E2E2F0" height="31.6094" rx="2.5" ry="2.5" style="stroke:#181818;stroke-width:0.5;" width="160.2754" x="589.9067" y="50"/><text fill="#000000" font-family="sans-serif" font-size="14" lengthAdjust="spacing" textLength="146.2754" x="596.9067" y="71.5332">SearchAircraftUseCase</text></g><g class="participant participant-tail" data-entity-uid="part3" data-qualified-name="UC" data-source-line="4" id="part3-tail"><rect fill="#E2E2F0" height="31.6094" rx="2.5" ry="2.5" style="stroke:#181818;stroke-width:0.5;" width="160.2754" x="589.9067" y="344.4219"/><text fill="#000000" font-family="sans-serif" font-size="14" lengthAdjust="spacing" textLength="146.2754" x="596.9067" y="365.9551">SearchAircraftUseCase</text></g><g class="participant participant-head" data-entity-uid="part4" data-qualified-name="Repo" data-source-line="5" id="part4-head"><rect fill="#E2E2F0" height="31.6094" rx="2.5" ry="2.5" style="stroke:#181818;stroke-width:0.5;" width="125.2549" x="924.3857" y="50"/><text fill="#000000" font-family="sans-serif" font-size="14" lengthAdjust="spacing" textLength="111.2549" x="931.3857" y="71.5332">AircraftRepository</text></g><g class="participant participant-tail" data-entity-uid="part4" data-qualified-name="Repo" data-source-line="5" id="part4-tail"><rect fill="#E2E2F0" height="31.6094" rx="2.5" ry="2.5" style="stroke:#181818;stroke-width:0.5;" width="125.2549" x="924.3857" y="344.4219"/><text fill="#000000" font-family="sans-serif" font-size="14" lengthAdjust="spacing" textLength="111.2549" x="931.3857" y="365.9551">AircraftRepository</text></g><g class="participant participant-head" data-entity-uid="part5" data-qualified-name="DB" data-source-line="6" id="part5-head"><text fill="#000000" font-family="sans-serif" font-size="14" lengthAdjust="spacing" textLength="59.9307" x="1301.9995" y="79.5332">Database</text><path d="M1316.9648,29 C1316.9648,19 1334.9648,19 1334.9648,19 C1334.9648,19 1352.9648,19 1352.9648,29 L1352.9648,55 C1352.9648,65 1334.9648,65 1334.9648,65 C1334.9648,65 1316.9648,65 1316.9648,55 L1316.9648,29" fill="#E2E2F0" style="stroke:#181818;stroke-width:0.5;"/><path d="M1316.9648,29 C1316.9648,39 1334.9648,39 1334.9648,39 C1334.9648,39 1352.9648,39 1352.9648,29" fill="none" style="stroke:#181818;stroke-width:0.5;"/></g><g class="participant participant-tail" data-entity-uid="part5" data-qualified-name="DB" data-source-line="6" id="part5-tail"><text fill="#000000" font-family="sans-serif" font-size="14" lengthAdjust="spacing" textLength="59.9307" x="1301.9995" y="358.9551">Database</text><path d="M1316.9648,372.0313 C1316.9648,362.0313 1334.9648,362.0313 1334.9648,362.0313 C1334.9648,362.0313 1352.9648,362.0313 1352.9648,372.0313 L1352.9648,398.0313 C1352.9648,408.0313 1334.9648,408.0313 1334.9648,408.0313 C1334.9648,408.0313 1316.9648,408.0313 1316.9648,398.0313 L1316.9648,372.0313" fill="#E2E2F0" style="stroke:#181818;stroke-width:0.5;"/><path d="M1316.9648,372.0313 C1316.9648,382.0313 1334.9648,382.0313 1334.9648,382.0313 C1334.9648,382.0313 1352.9648,382.0313 1352.9648,372.0313" fill="none" style="stroke:#181818;stroke-width:0.5;"/></g><g><title>AircraftController</title><rect fill="#FFFFFF" height="212.4609" style="stroke:#181818;stroke-width:1;" width="10" x="379.9048" y="114.9609"/></g><g><title>SearchAircraftUseCase</title><rect fill="#FFFFFF" height="151.7578" style="stroke:#181818;stroke-width:1;" width="10" x="665.0444" y="145.3125"/></g><g><title>AircraftRepository</title><rect fill="#FFFFFF" height="91.0547" style="stroke:#181818;stroke-width:1;" width="10" x="982.0132" y="175.6641"/></g><g><title>Database</title><rect fill="#FFFFFF" height="30.3516" style="stroke:#181818;stroke-width:1;" width="10" x="1329.9648" y="206.0156"/></g><g class="message" data-entity-1="part1" data-entity-2="part2" data-source-line="7" id="msg1"><polygon fill="#181818" points="367.9048,110.9609,377.9048,114.9609,367.9048,118.9609,371.9048,114.9609" style="stroke:#181818;stroke-width:1;stroke-linejoin:miter;stroke-miterlimit:10;"/><line style="stroke:#181818;stroke-width:1;" x1="27.0552" x2="373.9048" y1="114.9609" y2="114.9609"/><text fill="#000000" font-family="sans-serif" font-size="13" font-weight="700" lengthAdjust="spacing" textLength="7.23" x="34.0552" y="110.1045">1</text><text fill="#000000" font-family="sans-serif" font-size="13" lengthAdjust="spacing" textLength="322.6196" x="45.2852" y="110.1045">GET /api/aircrafts/search?modelId=X&amp;status=Y&amp;year=Z</text></g><g class="message" data-entity-1="part2" data-entity-2="part3" data-source-line="9" id="msg2"><polygon fill="#181818" points="653.0444,141.3125,663.0444,145.3125,653.0444,149.3125,657.0444,145.3125" style="stroke:#181818;stroke-width:1;stroke-linejoin:miter;stroke-miterlimit:10;"/><line style="stroke:#181818;stroke-width:1;" x1="389.9048" x2="659.0444" y1="145.3125" y2="145.3125"/><text fill="#000000" font-family="sans-serif" font-size="13" font-weight="700" lengthAdjust="spacing" textLength="7.23" x="396.9048" y="140.4561">2</text><text fill="#000000" font-family="sans-serif" font-size="13" lengthAdjust="spacing" textLength="235.5806" x="408.1348" y="140.4561">execute(modelId, status, year, pageable)</text></g><g class="message" data-entity-1="part3" data-entity-2="part4" data-source-line="11" id="msg3"><polygon fill="#181818" points="970.0132,171.6641,980.0132,175.6641,970.0132,179.6641,974.0132,175.6641" style="stroke:#181818;stroke-width:1;stroke-linejoin:miter;stroke-miterlimit:10;"/><line style="stroke:#181818;stroke-width:1;" x1="675.0444" x2="976.0132" y1="175.6641" y2="175.6641"/><text fill="#000000" font-family="sans-serif" font-size="13" font-weight="700" lengthAdjust="spacing" textLength="7.23" x="682.0444" y="170.8076">3</text><text fill="#000000" font-family="sans-serif" font-size="13" lengthAdjust="spacing" textLength="276.7388" x="693.2744" y="170.8076">searchAircrafts(modelId, status, year, pageable)</text></g><g class="message" data-entity-1="part4" data-entity-2="part5" data-source-line="13" id="msg4"><polygon fill="#181818" points="1317.9648,202.0156,1327.9648,206.0156,1317.9648,210.0156,1321.9648,206.0156" style="stroke:#181818;stroke-width:1;stroke-linejoin:miter;stroke-miterlimit:10;"/><line style="stroke:#181818;stroke-width:1;" x1="992.0132" x2="1323.9648" y1="206.0156" y2="206.0156"/><text fill="#000000" font-family="sans-serif" font-size="13" font-weight="700" lengthAdjust="spacing" textLength="7.23" x="999.0132" y="201.1592">4</text><text fill="#000000" font-family="sans-serif" font-size="13" lengthAdjust="spacing" textLength="307.7217" x="1010.2432" y="201.1592">SELECT * FROM aircraft WHERE ... (dynamic query)</text></g><g class="message" data-entity-1="part5" data-entity-2="part4" data-source-line="15" id="msg5"><polygon fill="#181818" points="1003.0132,232.3672,993.0132,236.3672,1003.0132,240.3672,999.0132,236.3672" style="stroke:#181818;stroke-width:1;stroke-linejoin:miter;stroke-miterlimit:10;"/><line style="stroke:#181818;stroke-width:1;stroke-dasharray:2,2;" x1="997.0132" x2="1333.9648" y1="236.3672" y2="236.3672"/><text fill="#000000" font-family="sans-serif" font-size="13" font-weight="700" lengthAdjust="spacing" textLength="7.23" x="1009.0132" y="231.5107">5</text><text fill="#000000" font-family="sans-serif" font-size="13" lengthAdjust="spacing" textLength="90.3335" x="1020.2432" y="231.5107">page of records</text></g><g class="message" data-entity-1="part4" data-entity-2="part3" data-source-line="17" id="msg6"><polygon fill="#181818" points="686.0444,262.7188,676.0444,266.7188,686.0444,270.7188,682.0444,266.7188" style="stroke:#181818;stroke-width:1;stroke-linejoin:miter;stroke-miterlimit:10;"/><line style="stroke:#181818;stroke-width:1;stroke-dasharray:2,2;" x1="680.0444" x2="986.0132" y1="266.7188" y2="266.7188"/><text fill="#000000" font-family="sans-serif" font-size="13" font-weight="700" lengthAdjust="spacing" textLength="7.23" x="692.0444" y="261.8623">6</text><text fill="#000000" font-family="sans-serif" font-size="13" lengthAdjust="spacing" textLength="86.7153" x="703.2744" y="261.8623">Page&lt;Aircraft&gt;</text></g><g class="message" data-entity-1="part3" data-entity-2="part2" data-source-line="19" id="msg7"><polygon fill="#181818" points="400.9048,293.0703,390.9048,297.0703,400.9048,301.0703,396.9048,297.0703" style="stroke:#181818;stroke-width:1;stroke-linejoin:miter;stroke-miterlimit:10;"/><line style="stroke:#181818;stroke-width:1;stroke-dasharray:2,2;" x1="394.9048" x2="669.0444" y1="297.0703" y2="297.0703"/><text fill="#000000" font-family="sans-serif" font-size="13" font-weight="700" lengthAdjust="spacing" textLength="7.23" x="406.9048" y="292.2139">7</text><text fill="#000000" font-family="sans-serif" font-size="13" lengthAdjust="spacing" textLength="239.9097" x="418.1348" y="292.2139">Page&lt;SearchAircraftUseCaseResponse&gt;</text></g><g class="message" data-entity-1="part2" data-entity-2="part1" data-source-line="21" id="msg8"><polygon fill="#181818" points="38.0552,323.4219,28.0552,327.4219,38.0552,331.4219,34.0552,327.4219" style="stroke:#181818;stroke-width:1;stroke-linejoin:miter;stroke-miterlimit:10;"/><line style="stroke:#181818;stroke-width:1;stroke-dasharray:2,2;" x1="32.0552" x2="383.9048" y1="327.4219" y2="327.4219"/><text fill="#000000" font-family="sans-serif" font-size="13" font-weight="700" lengthAdjust="spacing" textLength="7.23" x="44.0552" y="322.5654">8</text><text fill="#000000" font-family="sans-serif" font-size="13" lengthAdjust="spacing" textLength="197.2598" x="55.2852" y="322.5654">200 OK (paged HATEOAS model)</text></g><?plantuml-src bP5DJy9048Rl_HKJ3WGCN_5810EbYb63AMtyk0tRGPkKRjtT6llldTtIK18zUDlDlFFC-yvWQMHU7dQaF1H6AkWi8j_l06gm3wz0PLAH5fWRBgLAADmRN-P6oImZvOI-KTcvS4ken4SZZpNvgCbfup-G8HLIfsoWSZBxzH8qkED6wAoEBrTRBJrh3OPpDnccS1j4CCOY7UEHfiVQERW-o8IoksJsqjK6JQbdhzsAAxCtcpRzGaErUmTYOEmpZhv9b8Pwn-O1rBq3iAq3AF2TS9TH_yJWLB4pP7qpGP_br_yWkU2EmhJLabdRu27m8xY0ct3p24r2U5u7OG2ZqGXwIPNZ8HNmMPAgMYnU51E69rjs7iWzA19I9TfBgAsjfpPBU6BjLPDWtfOwYpRkwG1E_ElHGzA5p3MT4NXTzSAPu4uvXSl913RtqBCM4rWlec2ps8BRMx_TQlj-0000?></g></svg>