<?plantuml 1.2026.1?><svg xmlns="http://www.w3.org/2000/svg" xmlns:xlink="http://www.w3.org/1999/xlink" contentStyleType="text/css" data-diagram-type="SEQUENCE" height="415px" preserveAspectRatio="none" style="width:1514px;height:415px;background:#FFFFFF;" version="1.1" viewBox="0 0 1514 415" width="1514px" zoomAndPan="magnify"><defs/><g><g><title>AircraftController</title><rect fill="#FFFFFF" height="203.9297" style="stroke:#181818;stroke-width:1;" width="10" x="426.6304" y="112.4297"/></g><g><title>SearchAircraftUseCase</title><rect fill="#FFFFFF" height="145.6641" style="stroke:#181818;stroke-width:1;" width="10" x="739.5664" y="141.5625"/></g><g><title>AircraftRepository</title><rect fill="#FFFFFF" height="87.3984" style="stroke:#181818;stroke-width:1;" width="10" x="1096.5825" y="170.6953"/></g><g><title>Database</title><rect fill="#FFFFFF" height="29.1328" style="stroke:#181818;stroke-width:1;" width="10" x="1471.7402" y="199.8281"/></g><g class="participant-lifeline" data-entity-uid="part1" data-qualified-name="ATCC" id="part1-lifeline"><g><title>ATCC</title><rect fill="#000000" fill-opacity="0.00000" height="253.0625" width="8" x="22.8398" y="81.2969"/><line style="stroke:#181818;stroke-width:0.5;stroke-dasharray:5,5;" x1="26" x2="26" y1="81.2969" y2="334.3594"/></g></g><g class="participant-lifeline" data-entity-uid="part2" data-qualified-name="Ctrl" id="part2-lifeline"><g><title>AircraftController</title><rect fill="#000000" fill-opacity="0.00000" height="253.0625" width="8" x="427.6304" y="81.2969"/><line style="stroke:#181818;stroke-width:0.5;stroke-dasharray:5,5;" x1="431.2075" x2="431.2075" y1="81.2969" y2="334.3594"/></g></g><g class="participant-lifeline" data-entity-uid="part3" data-qualified-name="UC" id="part3-lifeline"><g><title>SearchAircraftUseCase</title><rect fill="#000000" fill-opacity="0.00000" height="253.0625" width="8" x="740.5664" y="81.2969"/><line style="stroke:#181818;stroke-width:0.5;stroke-dasharray:5,5;" x1="744.3193" x2="744.3193" y1="81.2969" y2="334.3594"/></g></g><g class="participant-lifeline" data-entity-uid="part4" data-qualified-name="Repo" id="part4-lifeline"><g><title>AircraftRepository</title><rect fill="#000000" fill-opacity="0.00000" height="253.0625" width="8" x="1097.5825" y="81.2969"/><line style="stroke:#181818;stroke-width:0.5;stroke-dasharray:5,5;" x1="1101.21" x2="1101.21" y1="81.2969" y2="334.3594"/></g></g><g class="participant-lifeline" data-entity-uid="part5" data-qualified-name="DB" id="part5-lifeline"><g><title>Database</title><rect fill="#000000" fill-opacity="0.00000" height="253.0625" width="8" x="1472.7402" y="81.2969"/><line style="stroke:#181818;stroke-width:0.5;stroke-dasharray:5,5;" x1="1476.3398" x2="1476.3398" y1="81.2969" y2="334.3594"/></g></g><g class="participant participant-head" data-entity-uid="part1" data-qualified-name="ATCC" id="part1-head"><text fill="#000000" font-family="sans-serif" font-size="14" lengthAdjust="spacing" textLength="37.6797" x="5" y="77.9951">ATCC</text><ellipse cx="26.8398" cy="13.5" fill="#E2E2F0" rx="8" ry="8" style="stroke:#181818;stroke-width:0.5;"/><path d="M26.8398,21.5 L26.8398,48.5 M13.8398,29.5 L39.8398,29.5 M26.8398,48.5 L13.8398,63.5 M26.8398,48.5 L39.8398,63.5" fill="none" style="stroke:#181818;stroke-width:0.5;"/></g><g class="participant participant-tail" data-entity-uid="part1" data-qualified-name="ATCC" id="part1-tail"><text fill="#000000" font-family="sans-serif" font-size="14" lengthAdjust="spacing" textLength="37.6797" x="5" y="346.3545">ATCC</text><ellipse cx="26.8398" cy="358.1563" fill="#E2E2F0" rx="8" ry="8" style="stroke:#181818;stroke-width:0.5;"/><path d="M26.8398,366.1563 L26.8398,393.1563 M13.8398,374.1563 L39.8398,374.1563 M26.8398,393.1563 L13.8398,408.1563 M26.8398,393.1563 L39.8398,408.1563" fill="none" style="stroke:#181818;stroke-width:0.5;"/></g><g class="participant participant-head" data-entity-uid="part2" data-qualified-name="Ctrl" id="part2-head"><rect fill="#E2E2F0" height="30.2969" rx="2.5" ry="2.5" style="stroke:#181818;stroke-width:0.5;" width="134.8457" x="364.2075" y="50"/><text fill="#000000" font-family="sans-serif" font-size="14" lengthAdjust="spacing" textLength="120.8457" x="371.2075" y="69.9951">AircraftController</text></g><g class="participant participant-tail" data-entity-uid="part2" data-qualified-name="Ctrl" id="part2-tail"><rect fill="#E2E2F0" height="30.2969" rx="2.5" ry="2.5" style="stroke:#181818;stroke-width:0.5;" width="134.8457" x="364.2075" y="333.3594"/><text fill="#000000" font-family="sans-serif" font-size="14" lengthAdjust="spacing" textLength="120.8457" x="371.2075" y="353.3545">AircraftController</text></g><g class="participant participant-head" data-entity-uid="part3" data-qualified-name="UC" id="part3-head"><rect fill="#E2E2F0" height="30.2969" rx="2.5" ry="2.5" style="stroke:#181818;stroke-width:0.5;" width="174.4941" x="657.3193" y="50"/><text fill="#000000" font-family="sans-serif" font-size="14" lengthAdjust="spacing" textLength="160.4941" x="664.3193" y="69.9951">SearchAircraftUseCase</text></g><g class="participant participant-tail" data-entity-uid="part3" data-qualified-name="UC" id="part3-tail"><rect fill="#E2E2F0" height="30.2969" rx="2.5" ry="2.5" style="stroke:#181818;stroke-width:0.5;" width="174.4941" x="657.3193" y="333.3594"/><text fill="#000000" font-family="sans-serif" font-size="14" lengthAdjust="spacing" textLength="160.4941" x="664.3193" y="353.3545">SearchAircraftUseCase</text></g><g class="participant participant-head" data-entity-uid="part4" data-qualified-name="Repo" id="part4-head"><rect fill="#E2E2F0" height="30.2969" rx="2.5" ry="2.5" style="stroke:#181818;stroke-width:0.5;" width="140.7451" x="1031.21" y="50"/><text fill="#000000" font-family="sans-serif" font-size="14" lengthAdjust="spacing" textLength="126.7451" x="1038.21" y="69.9951">AircraftRepository</text></g><g class="participant participant-tail" data-entity-uid="part4" data-qualified-name="Repo" id="part4-tail"><rect fill="#E2E2F0" height="30.2969" rx="2.5" ry="2.5" style="stroke:#181818;stroke-width:0.5;" width="140.7451" x="1031.21" y="333.3594"/><text fill="#000000" font-family="sans-serif" font-size="14" lengthAdjust="spacing" textLength="126.7451" x="1038.21" y="353.3545">AircraftRepository</text></g><g class="participant participant-head" data-entity-uid="part5" data-qualified-name="DB" id="part5-head"><text fill="#000000" font-family="sans-serif" font-size="14" lengthAdjust="spacing" textLength="66.8008" x="1440.3398" y="77.9951">Database</text><path d="M1458.7402,29 C1458.7402,19 1476.7402,19 1476.7402,19 C1476.7402,19 1494.7402,19 1494.7402,29 L1494.7402,55 C1494.7402,65 1476.7402,65 1476.7402,65 C1476.7402,65 1458.7402,65 1458.7402,55 L1458.7402,29" fill="#E2E2F0" style="stroke:#181818;stroke-width:0.5;"/><path d="M1458.7402,29 C1458.7402,39 1476.7402,39 1476.7402,39 C1476.7402,39 1494.7402,39 1494.7402,29" fill="none" style="stroke:#181818;stroke-width:0.5;"/></g><g class="participant participant-tail" data-entity-uid="part5" data-qualified-name="DB" id="part5-tail"><text fill="#000000" font-family="sans-serif" font-size="14" lengthAdjust="spacing" textLength="66.8008" x="1440.3398" y="346.3545">Database</text><path d="M1458.7402,359.6563 C1458.7402,349.6563 1476.7402,349.6563 1476.7402,349.6563 C1476.7402,349.6563 1494.7402,349.6563 1494.7402,359.6563 L1494.7402,385.6563 C1494.7402,395.6563 1476.7402,395.6563 1476.7402,395.6563 C1476.7402,395.6563 1458.7402,395.6563 1458.7402,385.6563 L1458.7402,359.6563" fill="#E2E2F0" style="stroke:#181818;stroke-width:0.5;"/><path d="M1458.7402,359.6563 C1458.7402,369.6563 1476.7402,369.6563 1476.7402,369.6563 C1476.7402,369.6563 1494.7402,369.6563 1494.7402,359.6563" fill="none" style="stroke:#181818;stroke-width:0.5;"/></g><g><title>AircraftController</title><rect fill="#FFFFFF" height="203.9297" style="stroke:#181818;stroke-width:1;" width="10" x="426.6304" y="112.4297"/></g><g><title>SearchAircraftUseCase</title><rect fill="#FFFFFF" height="145.6641" style="stroke:#181818;stroke-width:1;" width="10" x="739.5664" y="141.5625"/></g><g><title>AircraftRepository</title><rect fill="#FFFFFF" height="87.3984" style="stroke:#181818;stroke-width:1;" width="10" x="1096.5825" y="170.6953"/></g><g><title>Database</title><rect fill="#FFFFFF" height="29.1328" style="stroke:#181818;stroke-width:1;" width="10" x="1471.7402" y="199.8281"/></g><g class="message" data-entity-1="part1" data-entity-2="part2" id="msg1"><polygon fill="#181818" points="414.6304,108.4297,424.6304,112.4297,414.6304,116.4297,418.6304,112.4297" style="stroke:#181818;stroke-width:1;"/><line style="stroke:#181818;stroke-width:1;" x1="26.8398" x2="420.6304" y1="112.4297" y2="112.4297"/><text fill="#000000" font-family="sans-serif" font-size="13" font-weight="bold" lengthAdjust="spacing" textLength="9.0454" x="33.8398" y="107.3638">1</text><text fill="#000000" font-family="sans-serif" font-size="13" lengthAdjust="spacing" textLength="367.7451" x="46.8853" y="107.3638">GET /api/aircrafts/search?modelId=X&amp;status=Y&amp;year=Z</text></g><g class="message" data-entity-1="part2" data-entity-2="part3" id="msg2"><polygon fill="#181818" points="727.5664,137.5625,737.5664,141.5625,727.5664,145.5625,731.5664,141.5625" style="stroke:#181818;stroke-width:1;"/><line style="stroke:#181818;stroke-width:1;" x1="436.6304" x2="733.5664" y1="141.5625" y2="141.5625"/><text fill="#000000" font-family="sans-serif" font-size="13" font-weight="bold" lengthAdjust="spacing" textLength="9.0454" x="443.6304" y="136.4966">2</text><text fill="#000000" font-family="sans-serif" font-size="13" lengthAdjust="spacing" textLength="268.9185" x="456.6758" y="136.4966">execute(modelId, status, year, pageable)</text></g><g class="message" data-entity-1="part3" data-entity-2="part4" id="msg3"><polygon fill="#181818" points="1084.5825,166.6953,1094.5825,170.6953,1084.5825,174.6953,1088.5825,170.6953" style="stroke:#181818;stroke-width:1;"/><line style="stroke:#181818;stroke-width:1;" x1="749.5664" x2="1090.5825" y1="170.6953" y2="170.6953"/><text fill="#000000" font-family="sans-serif" font-size="13" font-weight="bold" lengthAdjust="spacing" textLength="9.0454" x="756.5664" y="165.6294">3</text><text fill="#000000" font-family="sans-serif" font-size="13" lengthAdjust="spacing" textLength="314.9707" x="769.6118" y="165.6294">searchAircrafts(modelId, status, year, pageable)</text></g><g class="message" data-entity-1="part4" data-entity-2="part5" id="msg4"><polygon fill="#181818" points="1459.7402,195.8281,1469.7402,199.8281,1459.7402,203.8281,1463.7402,199.8281" style="stroke:#181818;stroke-width:1;"/><line style="stroke:#181818;stroke-width:1;" x1="1106.5825" x2="1465.7402" y1="199.8281" y2="199.8281"/><text fill="#000000" font-family="sans-serif" font-size="13" font-weight="bold" lengthAdjust="spacing" textLength="9.0454" x="1113.5825" y="194.7622">4</text><text fill="#000000" font-family="sans-serif" font-size="13" lengthAdjust="spacing" textLength="333.1123" x="1126.6279" y="194.7622">SELECT * FROM aircraft WHERE ... (dynamic query)</text></g><g class="message" data-entity-1="part5" data-entity-2="part4" id="msg5"><polygon fill="#181818" points="1117.5825,224.9609,1107.5825,228.9609,1117.5825,232.9609,1113.5825,228.9609" style="stroke:#181818;stroke-width:1;"/><line style="stroke:#181818;stroke-width:1;stroke-dasharray:2,2;" x1="1111.5825" x2="1475.7402" y1="228.9609" y2="228.9609"/><text fill="#000000" font-family="sans-serif" font-size="13" font-weight="bold" lengthAdjust="spacing" textLength="9.0454" x="1123.5825" y="223.895">5</text><text fill="#000000" font-family="sans-serif" font-size="13" lengthAdjust="spacing" textLength="102.0767" x="1136.6279" y="223.895">page of records</text></g><g class="message" data-entity-1="part4" data-entity-2="part3" id="msg6"><polygon fill="#181818" points="760.5664,254.0938,750.5664,258.0938,760.5664,262.0938,756.5664,258.0938" style="stroke:#181818;stroke-width:1;"/><line style="stroke:#181818;stroke-width:1;stroke-dasharray:2,2;" x1="754.5664" x2="1100.5825" y1="258.0938" y2="258.0938"/><text fill="#000000" font-family="sans-serif" font-size="13" font-weight="bold" lengthAdjust="spacing" textLength="9.0454" x="766.5664" y="253.0278">6</text><text fill="#000000" font-family="sans-serif" font-size="13" lengthAdjust="spacing" textLength="101.8228" x="779.6118" y="253.0278">Page&lt;Aircraft&gt;</text></g><g class="message" data-entity-1="part3" data-entity-2="part2" id="msg7"><polygon fill="#181818" points="447.6304,283.2266,437.6304,287.2266,447.6304,291.2266,443.6304,287.2266" style="stroke:#181818;stroke-width:1;"/><line style="stroke:#181818;stroke-width:1;stroke-dasharray:2,2;" x1="441.6304" x2="743.5664" y1="287.2266" y2="287.2266"/><text fill="#000000" font-family="sans-serif" font-size="13" font-weight="bold" lengthAdjust="spacing" textLength="9.0454" x="453.6304" y="282.1606">7</text><text fill="#000000" font-family="sans-serif" font-size="13" lengthAdjust="spacing" textLength="265.8906" x="466.6758" y="282.1606">Page&lt;SearchAircraftUseCaseResponse&gt;</text></g><g class="message" data-entity-1="part2" data-entity-2="part1" id="msg8"><polygon fill="#181818" points="37.8398,312.3594,27.8398,316.3594,37.8398,320.3594,33.8398,316.3594" style="stroke:#181818;stroke-width:1;"/><line style="stroke:#181818;stroke-width:1;stroke-dasharray:2,2;" x1="31.8398" x2="430.6304" y1="316.3594" y2="316.3594"/><text fill="#000000" font-family="sans-serif" font-size="13" font-weight="bold" lengthAdjust="spacing" textLength="9.0454" x="43.8398" y="311.2935">8</text><text fill="#000000" font-family="sans-serif" font-size="13" lengthAdjust="spacing" textLength="213.6431" x="56.8853" y="311.2935">200 OK (paged HATEOAS model)</text></g><?plantuml-src bP5DJy9048Rl_HKJ3WGCN_5810EbYb63AMtyk0tRGPkKRjtT6llldTtIK18zUDlDlFFC-yvWQMHU7dQaF1H6AkWi8j_l06gm3wz0PLAH5fWRBgLAADmRN-P6oImZvOI-KTcvS4ken4SZZpNvgCbfup-G8HLIfsoWSZBxzH8qkED6wAoEBrTRBJrh3OPpDnccS1j4CCOY7UEHfiVQERW-o8IoksJsqjK6JQbdhzsAAxCtcpRzGaErUmTYOEmpZhv9b8Pwn-O1rBq3iAq3AF2TS9TH_yJWLB4pP7qpGP_br_yWkU2EmhJLabdRu27m8xY0ct3p24r2U5u7OG2ZqGXwIPNZ8HNmMPAgMYnU51E69rjs7iWzA19I9TfBgAsjfpPBU6BjLPDWtfOwYpRkwG1E_ElHGzA5p3MT4NXTzSAPu4uvXSl913RtqBCM4rWlec2ps8BRMx_TQlj-0000?></g></svg>