<svg xmlns="http://www.w3.org/2000/svg" xmlns:xlink="http://www.w3.org/1999/xlink" contentStyleType="text/css" data-diagram-type="SEQUENCE" height="628px" preserveAspectRatio="none" style="width:1264px;height:628px;background:#FFFFFF;" version="1.1" viewBox="0 0 1264 628" width="1264px" zoomAndPan="magnify"><?plantuml 1.2026.4?><defs/><g><g><title>AircraftController</title><rect fill="#FFFFFF" height="420.4063" style="stroke:#181818;stroke-width:1;" width="10" x="316.6807" y="114.9609"/></g><g><title>DeleteAircraftUseCase</title><rect fill="#FFFFFF" height="344.7031" style="stroke:#181818;stroke-width:1;" width="10" x="559.1641" y="145.3125"/></g><g><title>AircraftRepository</title><rect fill="#FFFFFF" height="91.0547" style="stroke:#181818;stroke-width:1;" width="10" x="824.0947" y="175.6641"/></g><g><title>AircraftRepository</title><rect fill="#FFFFFF" height="60.7031" style="stroke:#181818;stroke-width:1;" width="10" x="824.0947" y="398.9609"/></g><g><title>Database</title><rect fill="#FFFFFF" height="30.3516" style="stroke:#181818;stroke-width:1;" width="10" x="1200.6235" y="206.0156"/></g><g><title>Database</title><rect fill="#FFFFFF" height="30.3516" style="stroke:#181818;stroke-width:1;" width="10" x="1200.6235" y="429.3125"/></g><rect fill="none" height="246.6484" style="stroke:#000000;stroke-width:1.5;" width="1238.5889" x="10" y="281.7188"/><g class="participant-lifeline" data-entity-uid="part1" data-qualified-name="BO" data-source-line="6" id="part1-lifeline"><g><title>Backoffice Operator</title><rect fill="#000000" fill-opacity="0.00000" height="462.7578" width="8" x="80.8618" y="82.6094"/><line style="stroke:#181818;stroke-width:0.5;stroke-dasharray:5,5;" x1="84" x2="84" y1="82.6094" y2="545.3672"/></g></g><g class="participant-lifeline" data-entity-uid="part2" data-qualified-name="Ctrl" data-source-line="7" id="part2-lifeline"><g><title>AircraftController</title><rect fill="#000000" fill-opacity="0.00000" height="462.7578" width="8" x="317.6807" y="82.6094"/><line style="stroke:#181818;stroke-width:0.5;stroke-dasharray:5,5;" x1="321.167" x2="321.167" y1="82.6094" y2="545.3672"/></g></g><g class="participant-lifeline" data-entity-uid="part3" data-qualified-name="UC" data-source-line="8" id="part3-lifeline"><g><title>DeleteAircraftUseCase</title><rect fill="#000000" fill-opacity="0.00000" height="462.7578" width="8" x="560.1641" y="82.6094"/><line style="stroke:#181818;stroke-width:0.5;stroke-dasharray:5,5;" x1="563.9712" x2="563.9712" y1="82.6094" y2="545.3672"/></g></g><g class="participant-lifeline" data-entity-uid="part4" data-qualified-name="Repo" data-source-line="9" id="part4-lifeline"><g><title>AircraftRepository</title><rect fill="#000000" fill-opacity="0.00000" height="462.7578" width="8" x="825.0947" y="82.6094"/><line style="stroke:#181818;stroke-width:0.5;stroke-dasharray:5,5;" x1="828.4673" x2="828.4673" y1="82.6094" y2="545.3672"/></g></g><g class="participant-lifeline" data-entity-uid="part5" data-qualified-name="DB" data-source-line="10" id="part5-lifeline"><g><title>Database</title><rect fill="#000000" fill-opacity="0.00000" height="462.7578" width="8" x="1201.6235" y="82.6094"/><line style="stroke:#181818;stroke-width:0.5;stroke-dasharray:5,5;" x1="1204.6582" x2="1204.6582" y1="82.6094" y2="545.3672"/></g></g><g class="participant participant-head" data-entity-uid="part1" data-qualified-name="BO" data-source-line="6" id="part1-head"><text fill="#000000" font-family="sans-serif" font-size="14" lengthAdjust="spacing" textLength="123.7236" x="20" y="79.5332">Backoffice Operator</text><ellipse cx="84.8618" cy="13.5" fill="#E3E3E3" rx="8" ry="8" style="stroke:#181818;stroke-width:0.5;"/><path d="M84.8618,21.5 L84.8618,48.5 M71.8618,29.5 L97.8618,29.5 M84.8618,48.5 L71.8618,63.5 M84.8618,48.5 L97.8618,63.5" fill="none" style="stroke:#181818;stroke-width:0.5;"/></g><g class="participant participant-tail" data-entity-uid="part1" data-qualified-name="BO" data-source-line="6" id="part1-tail"><text fill="#000000" font-family="sans-serif" font-size="14" lengthAdjust="spacing" textLength="123.7236" x="20" y="558.9004">Backoffice Operator</text><ellipse cx="84.8618" cy="570.4766" fill="#E3E3E3" rx="8" ry="8" style="stroke:#181818;stroke-width:0.5;"/><path d="M84.8618,578.4766 L84.8618,605.4766 M71.8618,586.4766 L97.8618,586.4766 M84.8618,605.4766 L71.8618,620.4766 M84.8618,605.4766 L97.8618,620.4766" fill="none" style="stroke:#181818;stroke-width:0.5;"/></g><g class="participant participant-head" data-entity-uid="part2" data-qualified-name="Ctrl" data-source-line="7" id="part2-head"><rect fill="#E3E3E3" height="31.6094" rx="2.5" ry="2.5" style="stroke:#181818;stroke-width:0.5;" width="119.0273" x="262.167" y="50"/><text fill="#000000" font-family="sans-serif" font-size="14" lengthAdjust="spacing" textLength="105.0273" x="269.167" y="71.5332">AircraftController</text></g><g class="participant participant-tail" data-entity-uid="part2" data-qualified-name="Ctrl" data-source-line="7" id="part2-tail"><rect fill="#E3E3E3" height="31.6094" rx="2.5" ry="2.5" style="stroke:#181818;stroke-width:0.5;" width="119.0273" x="262.167" y="544.3672"/><text fill="#000000" font-family="sans-serif" font-size="14" lengthAdjust="spacing" textLength="105.0273" x="269.167" y="565.9004">AircraftController</text></g><g class="participant participant-head" data-entity-uid="part3" data-qualified-name="UC" data-source-line="8" id="part3-head"><rect fill="#E3E3E3" height="31.6094" rx="2.5" ry="2.5" style="stroke:#181818;stroke-width:0.5;" width="156.3857" x="485.9712" y="50"/><text fill="#000000" font-family="sans-serif" font-size="14" lengthAdjust="spacing" textLength="142.3857" x="492.9712" y="71.5332">DeleteAircraftUseCase</text></g><g class="participant participant-tail" data-entity-uid="part3" data-qualified-name="UC" data-source-line="8" id="part3-tail"><rect fill="#E3E3E3" height="31.6094" rx="2.5" ry="2.5" style="stroke:#181818;stroke-width:0.5;" width="156.3857" x="485.9712" y="544.3672"/><text fill="#000000" font-family="sans-serif" font-size="14" lengthAdjust="spacing" textLength="142.3857" x="492.9712" y="565.9004">DeleteAircraftUseCase</text></g><g class="participant participant-head" data-entity-uid="part4" data-qualified-name="Repo" data-source-line="9" id="part4-head"><rect fill="#E3E3E3" height="31.6094" rx="2.5" ry="2.5" style="stroke:#181818;stroke-width:0.5;" width="125.2549" x="766.4673" y="50"/><text fill="#000000" font-family="sans-serif" font-size="14" lengthAdjust="spacing" textLength="111.2549" x="773.4673" y="71.5332">AircraftRepository</text></g><g class="participant participant-tail" data-entity-uid="part4" data-qualified-name="Repo" data-source-line="9" id="part4-tail"><rect fill="#E3E3E3" height="31.6094" rx="2.5" ry="2.5" style="stroke:#181818;stroke-width:0.5;" width="125.2549" x="766.4673" y="544.3672"/><text fill="#000000" font-family="sans-serif" font-size="14" lengthAdjust="spacing" textLength="111.2549" x="773.4673" y="565.9004">AircraftRepository</text></g><g class="participant participant-head" data-entity-uid="part5" data-qualified-name="DB" data-source-line="10" id="part5-head"><text fill="#000000" font-family="sans-serif" font-size="14" lengthAdjust="spacing" textLength="59.9307" x="1172.6582" y="79.5332">Database</text><path d="M1187.6235,29 C1187.6235,19 1205.6235,19 1205.6235,19 C1205.6235,19 1223.6235,19 1223.6235,29 L1223.6235,55 C1223.6235,65 1205.6235,65 1205.6235,65 C1205.6235,65 1187.6235,65 1187.6235,55 L1187.6235,29" fill="#E3E3E3" style="stroke:#181818;stroke-width:0.5;"/><path d="M1187.6235,29 C1187.6235,39 1205.6235,39 1205.6235,39 C1205.6235,39 1223.6235,39 1223.6235,29" fill="none" style="stroke:#181818;stroke-width:0.5;"/></g><g class="participant participant-tail" data-entity-uid="part5" data-qualified-name="DB" data-source-line="10" id="part5-tail"><text fill="#000000" font-family="sans-serif" font-size="14" lengthAdjust="spacing" textLength="59.9307" x="1172.6582" y="558.9004">Database</text><path d="M1187.6235,571.9766 C1187.6235,561.9766 1205.6235,561.9766 1205.6235,561.9766 C1205.6235,561.9766 1223.6235,561.9766 1223.6235,571.9766 L1223.6235,597.9766 C1223.6235,607.9766 1205.6235,607.9766 1205.6235,607.9766 C1205.6235,607.9766 1187.6235,607.9766 1187.6235,597.9766 L1187.6235,571.9766" fill="#E3E3E3" style="stroke:#181818;stroke-width:0.5;"/><path d="M1187.6235,571.9766 C1187.6235,581.9766 1205.6235,581.9766 1205.6235,581.9766 C1205.6235,581.9766 1223.6235,581.9766 1223.6235,571.9766" fill="none" style="stroke:#181818;stroke-width:0.5;"/></g><g><title>AircraftController</title><rect fill="#FFFFFF" height="420.4063" style="stroke:#181818;stroke-width:1;" width="10" x="316.6807" y="114.9609"/></g><g><title>DeleteAircraftUseCase</title><rect fill="#FFFFFF" height="344.7031" style="stroke:#181818;stroke-width:1;" width="10" x="559.1641" y="145.3125"/></g><g><title>AircraftRepository</title><rect fill="#FFFFFF" height="91.0547" style="stroke:#181818;stroke-width:1;" width="10" x="824.0947" y="175.6641"/></g><g><title>AircraftRepository</title><rect fill="#FFFFFF" height="60.7031" style="stroke:#181818;stroke-width:1;" width="10" x="824.0947" y="398.9609"/></g><g><title>Database</title><rect fill="#FFFFFF" height="30.3516" style="stroke:#181818;stroke-width:1;" width="10" x="1200.6235" y="206.0156"/></g><g><title>Database</title><rect fill="#FFFFFF" height="30.3516" style="stroke:#181818;stroke-width:1;" width="10" x="1200.6235" y="429.3125"/></g><g class="message" data-entity-1="part1" data-entity-2="part2" data-source-line="12" id="msg1"><polygon fill="#181818" points="304.6807,110.9609,314.6807,114.9609,304.6807,118.9609,308.6807,114.9609" style="stroke:#181818;stroke-width:1;stroke-linejoin:miter;stroke-miterlimit:10;"/><line style="stroke:#181818;stroke-width:1;" x1="84.8618" x2="310.6807" y1="114.9609" y2="114.9609"/><text fill="#000000" font-family="sans-serif" font-size="13" font-weight="700" lengthAdjust="spacing" textLength="7.23" x="91.8618" y="110.1045">1</text><text fill="#000000" font-family="sans-serif" font-size="13" lengthAdjust="spacing" textLength="201.5889" x="103.0918" y="110.1045">DELETE /api/aircrafts/{registration}</text></g><g class="message" data-entity-1="part2" data-entity-2="part3" data-source-line="15" id="msg2"><polygon fill="#181818" points="547.1641,141.3125,557.1641,145.3125,547.1641,149.3125,551.1641,145.3125" style="stroke:#181818;stroke-width:1;stroke-linejoin:miter;stroke-miterlimit:10;"/><line style="stroke:#181818;stroke-width:1;" x1="326.6807" x2="553.1641" y1="145.3125" y2="145.3125"/><text fill="#000000" font-family="sans-serif" font-size="13" font-weight="700" lengthAdjust="spacing" textLength="7.23" x="333.6807" y="140.4561">2</text><text fill="#000000" font-family="sans-serif" font-size="13" lengthAdjust="spacing" textLength="118.498" x="344.9106" y="140.4561">execute(registration)</text></g><g class="message" data-entity-1="part3" data-entity-2="part4" data-source-line="18" id="msg3"><polygon fill="#181818" points="812.0947,171.6641,822.0947,175.6641,812.0947,179.6641,816.0947,175.6641" style="stroke:#181818;stroke-width:1;stroke-linejoin:miter;stroke-miterlimit:10;"/><line style="stroke:#181818;stroke-width:1;" x1="569.1641" x2="818.0947" y1="175.6641" y2="175.6641"/><text fill="#000000" font-family="sans-serif" font-size="13" font-weight="700" lengthAdjust="spacing" textLength="7.23" x="576.1641" y="170.8076">3</text><text fill="#000000" font-family="sans-serif" font-size="13" lengthAdjust="spacing" textLength="224.7007" x="587.394" y="170.8076">findByRegistrationNumber(registration)</text></g><g class="message" data-entity-1="part4" data-entity-2="part5" data-source-line="20" id="msg4"><polygon fill="#181818" points="1188.6235,202.0156,1198.6235,206.0156,1188.6235,210.0156,1192.6235,206.0156" style="stroke:#181818;stroke-width:1;stroke-linejoin:miter;stroke-miterlimit:10;"/><line style="stroke:#181818;stroke-width:1;" x1="834.0947" x2="1194.6235" y1="206.0156" y2="206.0156"/><text fill="#000000" font-family="sans-serif" font-size="13" font-weight="700" lengthAdjust="spacing" textLength="7.23" x="841.0947" y="201.1592">4</text><text fill="#000000" font-family="sans-serif" font-size="13" lengthAdjust="spacing" textLength="329.0688" x="852.3247" y="201.1592">SELECT FROM aircraft WHERE registration_number = ?</text></g><g class="message" data-entity-1="part5" data-entity-2="part4" data-source-line="22" id="msg5"><polygon fill="#181818" points="845.0947,232.3672,835.0947,236.3672,845.0947,240.3672,841.0947,236.3672" style="stroke:#181818;stroke-width:1;stroke-linejoin:miter;stroke-miterlimit:10;"/><line style="stroke:#181818;stroke-width:1;stroke-dasharray:2,2;" x1="839.0947" x2="1204.6235" y1="236.3672" y2="236.3672"/><text fill="#000000" font-family="sans-serif" font-size="13" font-weight="700" lengthAdjust="spacing" textLength="7.23" x="851.0947" y="231.5107">5</text><text fill="#000000" font-family="sans-serif" font-size="13" lengthAdjust="spacing" textLength="80.1899" x="862.3247" y="231.5107">aircraft record</text></g><g class="message" data-entity-1="part4" data-entity-2="part3" data-source-line="24" id="msg6"><polygon fill="#181818" points="580.1641,262.7188,570.1641,266.7188,580.1641,270.7188,576.1641,266.7188" style="stroke:#181818;stroke-width:1;stroke-linejoin:miter;stroke-miterlimit:10;"/><line style="stroke:#181818;stroke-width:1;stroke-dasharray:2,2;" x1="574.1641" x2="828.0947" y1="266.7188" y2="266.7188"/><text fill="#000000" font-family="sans-serif" font-size="13" font-weight="700" lengthAdjust="spacing" textLength="7.23" x="586.1641" y="261.8623">6</text><text fill="#000000" font-family="sans-serif" font-size="13" lengthAdjust="spacing" textLength="104.7744" x="597.394" y="261.8623">Optional&lt;Aircraft&gt;</text></g><path d="M10,281.7188 L70.1709,281.7188 L70.1709,290.0703 L60.1709,300.0703 L10,300.0703 L10,281.7188" fill="#EEEEEE" style="stroke:#000000;stroke-width:1.5;"/><rect fill="none" height="246.6484" style="stroke:#000000;stroke-width:1.5;" width="1238.5889" x="10" y="281.7188"/><text fill="#000000" font-family="sans-serif" font-size="13" font-weight="700" lengthAdjust="spacing" textLength="15.1709" x="25" y="296.2139">alt</text><text fill="#000000" font-family="sans-serif" font-size="11" font-weight="700" lengthAdjust="spacing" textLength="98.377" x="85.1709" y="295.1377">[aircraft not found]</text><g class="message" data-entity-1="part3" data-entity-2="part2" data-source-line="28" id="msg7"><polygon fill="#181818" points="337.6807,318.4219,327.6807,322.4219,337.6807,326.4219,333.6807,322.4219" style="stroke:#181818;stroke-width:1;stroke-linejoin:miter;stroke-miterlimit:10;"/><line style="stroke:#181818;stroke-width:1;stroke-dasharray:2,2;" x1="331.6807" x2="558.1641" y1="322.4219" y2="322.4219"/><text fill="#000000" font-family="sans-serif" font-size="13" font-weight="700" lengthAdjust="spacing" textLength="7.23" x="343.6807" y="317.5654">7</text><text fill="#000000" font-family="sans-serif" font-size="13" lengthAdjust="spacing" textLength="197.2534" x="354.9106" y="317.5654">throws AircraftNotFoundException</text></g><g class="message" data-entity-1="part2" data-entity-2="part1" data-source-line="29" id="msg8"><polygon fill="#181818" points="95.8618,348.7734,85.8618,352.7734,95.8618,356.7734,91.8618,352.7734" style="stroke:#181818;stroke-width:1;stroke-linejoin:miter;stroke-miterlimit:10;"/><line style="stroke:#181818;stroke-width:1;stroke-dasharray:2,2;" x1="89.8618" x2="315.6807" y1="352.7734" y2="352.7734"/><text fill="#000000" font-family="sans-serif" font-size="13" font-weight="700" lengthAdjust="spacing" textLength="7.23" x="101.8618" y="347.917">8</text><text fill="#000000" font-family="sans-serif" font-size="13" lengthAdjust="spacing" textLength="86.0044" x="113.0918" y="347.917">404 Not Found</text></g><line style="stroke:#000000;stroke-width:1;stroke-dasharray:2,2;" x1="10" x2="1248.5889" y1="361.7734" y2="361.7734"/><text fill="#000000" font-family="sans-serif" font-size="11" font-weight="700" lengthAdjust="spacing" textLength="78.2192" x="15" y="373.1924">[aircraft found]</text><g class="message" data-entity-1="part3" data-entity-2="part4" data-source-line="31" id="msg9"><polygon fill="#181818" points="812.0947,394.9609,822.0947,398.9609,812.0947,402.9609,816.0947,398.9609" style="stroke:#181818;stroke-width:1;stroke-linejoin:miter;stroke-miterlimit:10;"/><line style="stroke:#181818;stroke-width:1;" x1="569.1641" x2="818.0947" y1="398.9609" y2="398.9609"/><text fill="#000000" font-family="sans-serif" font-size="13" font-weight="700" lengthAdjust="spacing" textLength="7.23" x="576.1641" y="394.1045">9</text><text fill="#000000" font-family="sans-serif" font-size="13" lengthAdjust="spacing" textLength="83.8081" x="587.394" y="394.1045">delete(aircraft)</text></g><g class="message" data-entity-1="part4" data-entity-2="part5" data-source-line="33" id="msg10"><polygon fill="#181818" points="1188.6235,425.3125,1198.6235,429.3125,1188.6235,433.3125,1192.6235,429.3125" style="stroke:#181818;stroke-width:1;stroke-linejoin:miter;stroke-miterlimit:10;"/><line style="stroke:#181818;stroke-width:1;" x1="834.0947" x2="1194.6235" y1="429.3125" y2="429.3125"/><text fill="#000000" font-family="sans-serif" font-size="13" font-weight="700" lengthAdjust="spacing" textLength="14.46" x="841.0947" y="424.4561">10</text><text fill="#000000" font-family="sans-serif" font-size="13" lengthAdjust="spacing" textLength="329.0688" x="859.5547" y="424.4561">DELETE FROM aircraft WHERE registration_number = ?</text></g><g class="message" data-entity-1="part5" data-entity-2="part4" data-source-line="35" id="msg11"><polygon fill="#181818" points="840.0947,455.6641,830.0947,459.6641,840.0947,463.6641,836.0947,459.6641" style="stroke:#181818;stroke-width:1;stroke-linejoin:miter;stroke-miterlimit:10;"/><line style="stroke:#181818;stroke-width:1;stroke-dasharray:2,2;" x1="834.0947" x2="1204.6235" y1="459.6641" y2="459.6641"/><text fill="#000000" font-family="sans-serif" font-size="13" font-weight="700" lengthAdjust="spacing" textLength="14.46" x="846.0947" y="454.8076">11</text><text fill="#000000" font-family="sans-serif" font-size="13" lengthAdjust="spacing" textLength="46.96" x="864.5547" y="454.8076">success</text></g><g class="message" data-entity-1="part3" data-entity-2="part2" data-source-line="38" id="msg12"><polygon fill="#181818" points="337.6807,486.0156,327.6807,490.0156,337.6807,494.0156,333.6807,490.0156" style="stroke:#181818;stroke-width:1;stroke-linejoin:miter;stroke-miterlimit:10;"/><line style="stroke:#181818;stroke-width:1;stroke-dasharray:2,2;" x1="331.6807" x2="563.1641" y1="490.0156" y2="490.0156"/><text fill="#000000" font-family="sans-serif" font-size="13" font-weight="700" lengthAdjust="spacing" textLength="14.46" x="343.6807" y="485.1592">12</text><text fill="#000000" font-family="sans-serif" font-size="13" lengthAdjust="spacing" textLength="23.8481" x="362.1406" y="485.1592">void</text></g><g class="message" data-entity-1="part2" data-entity-2="part1" data-source-line="40" id="msg13"><polygon fill="#181818" points="95.8618,516.3672,85.8618,520.3672,95.8618,524.3672,91.8618,520.3672" style="stroke:#181818;stroke-width:1;stroke-linejoin:miter;stroke-miterlimit:10;"/><line style="stroke:#181818;stroke-width:1;stroke-dasharray:2,2;" x1="89.8618" x2="315.6807" y1="520.3672" y2="520.3672"/><text fill="#000000" font-family="sans-serif" font-size="13" font-weight="700" lengthAdjust="spacing" textLength="14.46" x="101.8618" y="515.5107">13</text><text fill="#000000" font-family="sans-serif" font-size="13" lengthAdjust="spacing" textLength="91.0635" x="120.3218" y="515.5107">204 No Content</text></g><?plantuml-src bLF1Jjmm4BtxAqPxWWFQgkA4A5MJ3UgX46bXrMCrE9F58cj7zWHOLVmxOsUpIMXxQ4w9_TwRDsycsB6ptUw1l0fFnhReSGSxPvr-z6v7mBwZoKsB-WctTCVxXi2JvibTUCJAlHYxXHgRG4gXPkTXaGd7rRNH16LB7kLm0HWWAvKGsMZJecLOV3DUUwmvTvQzQnhgOJdxPWvSKKDC0tmJACT02Rl9_owvfjO58uNt2HO_LOMC3q8KlSDRkbjbIcKbd5sbmd01g-97SL_04bkpn8DUMFxsj3M1fHlZx5jirJmZK-zM9Qf8R78He5VI7TF9b74wCiIp4foWeot1ryPMsNuzGT-c0VrB87MJkAAnoaJXJYpdzt2zBczWi0m_lnVh0gOQl_h1mnVuEgf9_w9nDjev2iYudQzKHLDiNtTejMoZBZQNG_1NKtWogh3XKTCwXjfrjb8WJunX39vb0ry235AtZgyZidZLbCeaIf-qa6Hc5t3-wHm41mceIBPmB3KlSsolIijqCi1E4s9kEPxCyZsinF_aErELtEBtFEVGQKqXf9jvnXzEZfxcSJqxKts4ocxz6TBd51B4tumiAv9KfbEAu7S0?></g></svg>