<?plantuml 1.2026.1?><svg xmlns="http://www.w3.org/2000/svg" xmlns:xlink="http://www.w3.org/1999/xlink" contentStyleType="text/css" data-diagram-type="SEQUENCE" height="858px" preserveAspectRatio="none" style="width:1470px;height:858px;background:#FFFFFF;" version="1.1" viewBox="0 0 1470 858" width="1470px" zoomAndPan="magnify"><defs/><g><g><title>AirportController</title><rect fill="#FFFFFF" height="571.1875" style="stroke:#181818;stroke-width:1;" width="10" x="402.3496" y="188.0938"/></g><g><title>UpdateAirportDetailsUseCase</title><rect fill="#FFFFFF" height="417.2578" style="stroke:#181818;stroke-width:1;" width="10" x="705.9819" y="297.7578"/></g><g><title>Airport</title><rect fill="#FFFFFF" height="79.3984" style="stroke:#181818;stroke-width:1;" width="10" x="1023.8711" y="458.5547"/></g><g><title>AirportRepository</title><rect fill="#FFFFFF" height="87.3984" style="stroke:#181818;stroke-width:1;" width="10" x="1133.3271" y="326.8906"/></g><g><title>AirportRepository</title><rect fill="#FFFFFF" height="73.3984" style="stroke:#181818;stroke-width:1;" width="10" x="1133.3271" y="567.0859"/></g><g><title>Database</title><rect fill="#FFFFFF" height="29.1328" style="stroke:#181818;stroke-width:1;" width="10" x="1427.8696" y="356.0234"/></g><g><title>Database</title><rect fill="#FFFFFF" height="29.1328" style="stroke:#181818;stroke-width:1;" width="10" x="1427.8696" y="611.3516"/></g><g class="participant-lifeline" data-entity-uid="part1" data-qualified-name="BO" id="part1-lifeline"><g><title>Backoffice Operator</title><rect fill="#000000" fill-opacity="0.00000" height="695.9844" width="8" x="73.8633" y="81.2969"/><line style="stroke:#181818;stroke-width:0.5;stroke-dasharray:5,5;" x1="77" x2="77" y1="81.2969" y2="777.2813"/></g></g><g class="participant-lifeline" data-entity-uid="part2" data-qualified-name="Ctrl" id="part2-lifeline"><g><title>AirportController</title><rect fill="#000000" fill-opacity="0.00000" height="695.9844" width="8" x="403.3496" y="81.2969"/><line style="stroke:#181818;stroke-width:0.5;stroke-dasharray:5,5;" x1="406.8032" x2="406.8032" y1="81.2969" y2="777.2813"/></g></g><g class="participant-lifeline" data-entity-uid="part3" data-qualified-name="UC" id="part3-lifeline"><g><title>UpdateAirportDetailsUseCase</title><rect fill="#000000" fill-opacity="0.00000" height="695.9844" width="8" x="706.9819" y="81.2969"/><line style="stroke:#181818;stroke-width:0.5;stroke-dasharray:5,5;" x1="710.1953" x2="710.1953" y1="81.2969" y2="777.2813"/></g></g><g class="participant-lifeline" data-entity-uid="part4" data-qualified-name="Entity" id="part4-lifeline"><g><title>Airport</title><rect fill="#000000" fill-opacity="0.00000" height="695.9844" width="8" x="1024.8711" y="81.2969"/><line style="stroke:#181818;stroke-width:0.5;stroke-dasharray:5,5;" x1="1027.9111" x2="1027.9111" y1="81.2969" y2="777.2813"/></g></g><g class="participant-lifeline" data-entity-uid="part5" data-qualified-name="Repo" id="part5-lifeline"><g><title>AirportRepository</title><rect fill="#000000" fill-opacity="0.00000" height="695.9844" width="8" x="1134.3271" y="81.2969"/><line style="stroke:#181818;stroke-width:0.5;stroke-dasharray:5,5;" x1="1137.8311" x2="1137.8311" y1="81.2969" y2="777.2813"/></g></g><g class="participant-lifeline" data-entity-uid="part6" data-qualified-name="DB" id="part6-lifeline"><g><title>Database</title><rect fill="#000000" fill-opacity="0.00000" height="695.9844" width="8" x="1428.8696" y="81.2969"/><line style="stroke:#181818;stroke-width:0.5;stroke-dasharray:5,5;" x1="1432.4692" x2="1432.4692" y1="81.2969" y2="777.2813"/></g></g><g class="participant participant-head" data-entity-uid="part1" data-qualified-name="BO" id="part1-head"><text fill="#000000" font-family="sans-serif" font-size="14" lengthAdjust="spacing" textLength="139.7266" x="5" y="77.9951">Backoffice Operator</text><ellipse cx="77.8633" cy="13.5" fill="#E2E2F0" rx="8" ry="8" style="stroke:#181818;stroke-width:0.5;"/><path d="M77.8633,21.5 L77.8633,48.5 M64.8633,29.5 L90.8633,29.5 M77.8633,48.5 L64.8633,63.5 M77.8633,48.5 L90.8633,63.5" fill="none" style="stroke:#181818;stroke-width:0.5;"/></g><g class="participant participant-tail" data-entity-uid="part1" data-qualified-name="BO" id="part1-tail"><text fill="#000000" font-family="sans-serif" font-size="14" lengthAdjust="spacing" textLength="139.7266" x="5" y="789.2764">Backoffice Operator</text><ellipse cx="77.8633" cy="801.0781" fill="#E2E2F0" rx="8" ry="8" style="stroke:#181818;stroke-width:0.5;"/><path d="M77.8633,809.0781 L77.8633,836.0781 M64.8633,817.0781 L90.8633,817.0781 M77.8633,836.0781 L64.8633,851.0781 M77.8633,836.0781 L90.8633,851.0781" fill="none" style="stroke:#181818;stroke-width:0.5;"/></g><g class="participant participant-head" data-entity-uid="part2" data-qualified-name="Ctrl" id="part2-head"><rect fill="#E2E2F0" height="30.2969" rx="2.5" ry="2.5" style="stroke:#181818;stroke-width:0.5;" width="131.0928" x="341.8032" y="50"/><text fill="#000000" font-family="sans-serif" font-size="14" lengthAdjust="spacing" textLength="117.0928" x="348.8032" y="69.9951">AirportController</text></g><g class="participant participant-tail" data-entity-uid="part2" data-qualified-name="Ctrl" id="part2-tail"><rect fill="#E2E2F0" height="30.2969" rx="2.5" ry="2.5" style="stroke:#181818;stroke-width:0.5;" width="131.0928" x="341.8032" y="776.2813"/><text fill="#000000" font-family="sans-serif" font-size="14" lengthAdjust="spacing" textLength="117.0928" x="348.8032" y="796.2764">AirportController</text></g><g class="participant participant-head" data-entity-uid="part3" data-qualified-name="UC" id="part3-head"><rect fill="#E2E2F0" height="30.2969" rx="2.5" ry="2.5" style="stroke:#181818;stroke-width:0.5;" width="221.5732" x="600.1953" y="50"/><text fill="#000000" font-family="sans-serif" font-size="14" lengthAdjust="spacing" textLength="207.5732" x="607.1953" y="69.9951">UpdateAirportDetailsUseCase</text></g><g class="participant participant-tail" data-entity-uid="part3" data-qualified-name="UC" id="part3-tail"><rect fill="#E2E2F0" height="30.2969" rx="2.5" ry="2.5" style="stroke:#181818;stroke-width:0.5;" width="221.5732" x="600.1953" y="776.2813"/><text fill="#000000" font-family="sans-serif" font-size="14" lengthAdjust="spacing" textLength="207.5732" x="607.1953" y="796.2764">UpdateAirportDetailsUseCase</text></g><g class="participant participant-head" data-entity-uid="part4" data-qualified-name="Entity" id="part4-head"><rect fill="#E2E2F0" height="30.2969" rx="2.5" ry="2.5" style="stroke:#181818;stroke-width:0.5;" width="61.9199" x="997.9111" y="50"/><text fill="#000000" font-family="sans-serif" font-size="14" lengthAdjust="spacing" textLength="47.9199" x="1004.9111" y="69.9951">Airport</text></g><g class="participant participant-tail" data-entity-uid="part4" data-qualified-name="Entity" id="part4-tail"><rect fill="#E2E2F0" height="30.2969" rx="2.5" ry="2.5" style="stroke:#181818;stroke-width:0.5;" width="61.9199" x="997.9111" y="776.2813"/><text fill="#000000" font-family="sans-serif" font-size="14" lengthAdjust="spacing" textLength="47.9199" x="1004.9111" y="796.2764">Airport</text></g><g class="participant participant-head" data-entity-uid="part5" data-qualified-name="Repo" id="part5-head"><rect fill="#E2E2F0" height="30.2969" rx="2.5" ry="2.5" style="stroke:#181818;stroke-width:0.5;" width="136.9922" x="1069.8311" y="50"/><text fill="#000000" font-family="sans-serif" font-size="14" lengthAdjust="spacing" textLength="122.9922" x="1076.8311" y="69.9951">AirportRepository</text></g><g class="participant participant-tail" data-entity-uid="part5" data-qualified-name="Repo" id="part5-tail"><rect fill="#E2E2F0" height="30.2969" rx="2.5" ry="2.5" style="stroke:#181818;stroke-width:0.5;" width="136.9922" x="1069.8311" y="776.2813"/><text fill="#000000" font-family="sans-serif" font-size="14" lengthAdjust="spacing" textLength="122.9922" x="1076.8311" y="796.2764">AirportRepository</text></g><g class="participant participant-head" data-entity-uid="part6" data-qualified-name="DB" id="part6-head"><text fill="#000000" font-family="sans-serif" font-size="14" lengthAdjust="spacing" textLength="66.8008" x="1396.4692" y="77.9951">Database</text><path d="M1414.8696,29 C1414.8696,19 1432.8696,19 1432.8696,19 C1432.8696,19 1450.8696,19 1450.8696,29 L1450.8696,55 C1450.8696,65 1432.8696,65 1432.8696,65 C1432.8696,65 1414.8696,65 1414.8696,55 L1414.8696,29" fill="#E2E2F0" style="stroke:#181818;stroke-width:0.5;"/><path d="M1414.8696,29 C1414.8696,39 1432.8696,39 1432.8696,39 C1432.8696,39 1450.8696,39 1450.8696,29" fill="none" style="stroke:#181818;stroke-width:0.5;"/></g><g class="participant participant-tail" data-entity-uid="part6" data-qualified-name="DB" id="part6-tail"><text fill="#000000" font-family="sans-serif" font-size="14" lengthAdjust="spacing" textLength="66.8008" x="1396.4692" y="789.2764">Database</text><path d="M1414.8696,802.5781 C1414.8696,792.5781 1432.8696,792.5781 1432.8696,792.5781 C1432.8696,792.5781 1450.8696,792.5781 1450.8696,802.5781 L1450.8696,828.5781 C1450.8696,838.5781 1432.8696,838.5781 1432.8696,838.5781 C1432.8696,838.5781 1414.8696,838.5781 1414.8696,828.5781 L1414.8696,802.5781" fill="#E2E2F0" style="stroke:#181818;stroke-width:0.5;"/><path d="M1414.8696,802.5781 C1414.8696,812.5781 1432.8696,812.5781 1432.8696,812.5781 C1432.8696,812.5781 1450.8696,812.5781 1450.8696,802.5781" fill="none" style="stroke:#181818;stroke-width:0.5;"/></g><g><title>AirportController</title><rect fill="#FFFFFF" height="571.1875" style="stroke:#181818;stroke-width:1;" width="10" x="402.3496" y="188.0938"/></g><g><title>UpdateAirportDetailsUseCase</title><rect fill="#FFFFFF" height="417.2578" style="stroke:#181818;stroke-width:1;" width="10" x="705.9819" y="297.7578"/></g><g><title>Airport</title><rect fill="#FFFFFF" height="79.3984" style="stroke:#181818;stroke-width:1;" width="10" x="1023.8711" y="458.5547"/></g><g><title>AirportRepository</title><rect fill="#FFFFFF" height="87.3984" style="stroke:#181818;stroke-width:1;" width="10" x="1133.3271" y="326.8906"/></g><g><title>AirportRepository</title><rect fill="#FFFFFF" height="73.3984" style="stroke:#181818;stroke-width:1;" width="10" x="1133.3271" y="567.0859"/></g><g><title>Database</title><rect fill="#FFFFFF" height="29.1328" style="stroke:#181818;stroke-width:1;" width="10" x="1427.8696" y="356.0234"/></g><g><title>Database</title><rect fill="#FFFFFF" height="29.1328" style="stroke:#181818;stroke-width:1;" width="10" x="1427.8696" y="611.3516"/></g><g class="message" data-entity-1="part1" data-entity-2="part2" id="msg1"><polygon fill="#181818" points="390.3496,184.0938,400.3496,188.0938,390.3496,192.0938,394.3496,188.0938" style="stroke:#181818;stroke-width:1;"/><line style="stroke:#181818;stroke-width:1;" x1="77.8633" x2="396.3496" y1="188.0938" y2="188.0938"/><text fill="#000000" font-family="sans-serif" font-size="13" font-weight="bold" lengthAdjust="spacing" textLength="9.0454" x="84.8633" y="145.1958">1</text><text fill="#000000" font-family="sans-serif" font-size="13" lengthAdjust="spacing" textLength="253.1255" x="97.9087" y="107.3638">PATCH /api/airports/{iataCode}/details</text><text fill="#000000" font-family="sans-serif" font-size="13" lengthAdjust="spacing" textLength="220.3145" x="97.9087" y="122.4966">{ operationalHours?, imagePath?,</text><text fill="#000000" font-family="sans-serif" font-size="13" lengthAdjust="spacing" textLength="263.2754" x="106.1733" y="137.6294">contacts?: [{ type, value, description }],</text><text fill="#000000" font-family="sans-serif" font-size="13" lengthAdjust="spacing" textLength="121.8242" x="106.1733" y="152.7622">services?: [String],</text><text fill="#000000" font-family="sans-serif" font-size="13" lengthAdjust="spacing" textLength="129.7905" x="106.1733" y="167.895">terminals?: [String],</text><text fill="#000000" font-family="sans-serif" font-size="13" lengthAdjust="spacing" textLength="112.8423" x="106.1733" y="183.0278">gates?: [String] }</text></g><path d="M417,201.0938 L417,256.0938 L647,256.0938 L647,211.0938 L637,201.0938 L417,201.0938" fill="#FEFFDD" style="stroke:#181818;stroke-width:0.5;"/><path d="M637,201.0938 L637,211.0938 L647,211.0938 L637,201.0938" fill="#FEFFDD" style="stroke:#181818;stroke-width:0.5;"/><text fill="#000000" font-family="sans-serif" font-size="13" lengthAdjust="spacing" textLength="194.416" x="423" y="218.1606">UpdateAirportDetailsRequest:</text><text fill="#000000" font-family="sans-serif" font-size="13" lengthAdjust="spacing" textLength="119.7866" x="423" y="233.2935">- all fields optional</text><text fill="#000000" font-family="sans-serif" font-size="13" lengthAdjust="spacing" textLength="209.752" x="423" y="248.4263">- only non-null fields are applied</text><g class="message" data-entity-1="part2" data-entity-2="part3" id="msg2"><polygon fill="#181818" points="693.9819,293.7578,703.9819,297.7578,693.9819,301.7578,697.9819,297.7578" style="stroke:#181818;stroke-width:1;"/><line style="stroke:#181818;stroke-width:1;" x1="412.3496" x2="699.9819" y1="297.7578" y2="297.7578"/><text fill="#000000" font-family="sans-serif" font-size="13" font-weight="bold" lengthAdjust="spacing" textLength="9.0454" x="419.3496" y="285.1255">2</text><text fill="#000000" font-family="sans-serif" font-size="13" lengthAdjust="spacing" textLength="166.6069" x="432.395" y="277.5591">execute(iataCode: String,</text><text fill="#000000" font-family="sans-serif" font-size="13" lengthAdjust="spacing" textLength="253.3223" x="440.6597" y="292.6919">request: UpdateAirportDetailsRequest)</text></g><g class="message" data-entity-1="part3" data-entity-2="part5" id="msg3"><polygon fill="#181818" points="1121.3271,322.8906,1131.3271,326.8906,1121.3271,330.8906,1125.3271,326.8906" style="stroke:#181818;stroke-width:1;"/><line style="stroke:#181818;stroke-width:1;" x1="715.9819" x2="1127.3271" y1="326.8906" y2="326.8906"/><text fill="#000000" font-family="sans-serif" font-size="13" font-weight="bold" lengthAdjust="spacing" textLength="9.0454" x="722.9819" y="321.8247">3</text><text fill="#000000" font-family="sans-serif" font-size="13" lengthAdjust="spacing" textLength="200.7827" x="736.0273" y="321.8247">findByIataCodeCode(iataCode)</text></g><g class="message" data-entity-1="part5" data-entity-2="part6" id="msg4"><polygon fill="#181818" points="1415.8696,352.0234,1425.8696,356.0234,1415.8696,360.0234,1419.8696,356.0234" style="stroke:#181818;stroke-width:1;"/><line style="stroke:#181818;stroke-width:1;" x1="1143.3271" x2="1421.8696" y1="356.0234" y2="356.0234"/><text fill="#000000" font-family="sans-serif" font-size="13" font-weight="bold" lengthAdjust="spacing" textLength="9.0454" x="1150.3271" y="350.9575">4</text><text fill="#000000" font-family="sans-serif" font-size="13" lengthAdjust="spacing" textLength="252.4971" x="1163.3726" y="350.9575">SELECT FROM airport WHERE code = ?</text></g><g class="message" data-entity-1="part6" data-entity-2="part5" id="msg5"><polygon fill="#181818" points="1154.3271,381.1563,1144.3271,385.1563,1154.3271,389.1563,1150.3271,385.1563" style="stroke:#181818;stroke-width:1;"/><line style="stroke:#181818;stroke-width:1;stroke-dasharray:2,2;" x1="1148.3271" x2="1431.8696" y1="385.1563" y2="385.1563"/><text fill="#000000" font-family="sans-serif" font-size="13" font-weight="bold" lengthAdjust="spacing" textLength="9.0454" x="1160.3271" y="380.0903">5</text><text fill="#000000" font-family="sans-serif" font-size="13" lengthAdjust="spacing" textLength="89.7432" x="1173.3726" y="380.0903">airport record</text></g><g class="message" data-entity-1="part5" data-entity-2="part3" id="msg6"><polygon fill="#181818" points="726.9819,410.2891,716.9819,414.2891,726.9819,418.2891,722.9819,414.2891" style="stroke:#181818;stroke-width:1;"/><line style="stroke:#181818;stroke-width:1;stroke-dasharray:2,2;" x1="720.9819" x2="1137.3271" y1="414.2891" y2="414.2891"/><text fill="#000000" font-family="sans-serif" font-size="13" font-weight="bold" lengthAdjust="spacing" textLength="9.0454" x="732.9819" y="409.2231">6</text><text fill="#000000" font-family="sans-serif" font-size="13" lengthAdjust="spacing" textLength="44.4971" x="746.0273" y="409.2231">Airport</text></g><g class="message" data-entity-1="part3" data-entity-2="part4" id="msg7"><polygon fill="#181818" points="1011.8711,454.5547,1021.8711,458.5547,1011.8711,462.5547,1015.8711,458.5547" style="stroke:#181818;stroke-width:1;"/><line style="stroke:#181818;stroke-width:1;" x1="715.9819" x2="1017.8711" y1="458.5547" y2="458.5547"/><text fill="#000000" font-family="sans-serif" font-size="13" font-weight="bold" lengthAdjust="spacing" textLength="9.0454" x="722.9819" y="445.9224">7</text><text fill="#000000" font-family="sans-serif" font-size="13" lengthAdjust="spacing" textLength="275.8438" x="736.0273" y="438.356">updateDetails(operationalHours, contacts,</text><text fill="#000000" font-family="sans-serif" font-size="13" lengthAdjust="spacing" textLength="250.231" x="744.292" y="453.4888">imagePath, services, terminals, gates)</text></g><path d="M1038,471.5547 L1038,511.5547 L1226,511.5547 L1226,481.5547 L1216,471.5547 L1038,471.5547" fill="#FEFFDD" style="stroke:#181818;stroke-width:0.5;"/><path d="M1216,471.5547 L1216,481.5547 L1226,481.5547 L1216,471.5547" fill="#FEFFDD" style="stroke:#181818;stroke-width:0.5;"/><text fill="#000000" font-family="sans-serif" font-size="13" lengthAdjust="spacing" textLength="125.6899" x="1044" y="488.6216">Only non-null fields</text><text fill="#000000" font-family="sans-serif" font-size="13" lengthAdjust="spacing" textLength="167.1592" x="1044" y="503.7544">are updated on the entity</text><g class="message" data-entity-1="part4" data-entity-2="part3" id="msg8"><polygon fill="#181818" points="726.9819,533.9531,716.9819,537.9531,726.9819,541.9531,722.9819,537.9531" style="stroke:#181818;stroke-width:1;"/><line style="stroke:#181818;stroke-width:1;stroke-dasharray:2,2;" x1="720.9819" x2="1027.8711" y1="537.9531" y2="537.9531"/><text fill="#000000" font-family="sans-serif" font-size="13" font-weight="bold" lengthAdjust="spacing" textLength="9.0454" x="732.9819" y="532.8872">8</text><text fill="#000000" font-family="sans-serif" font-size="13" lengthAdjust="spacing" textLength="4.1323" x="746.0273" y="532.8872">&#160;</text></g><g class="message" data-entity-1="part3" data-entity-2="part5" id="msg9"><polygon fill="#181818" points="1121.3271,563.0859,1131.3271,567.0859,1121.3271,571.0859,1125.3271,567.0859" style="stroke:#181818;stroke-width:1;"/><line style="stroke:#181818;stroke-width:1;" x1="715.9819" x2="1127.3271" y1="567.0859" y2="567.0859"/><text fill="#000000" font-family="sans-serif" font-size="13" font-weight="bold" lengthAdjust="spacing" textLength="9.0454" x="722.9819" y="562.02">9</text><text fill="#000000" font-family="sans-serif" font-size="13" lengthAdjust="spacing" textLength="84.1445" x="736.0273" y="562.02">save(airport)</text></g><g class="message" data-entity-1="part5" data-entity-2="part6" id="msg10"><polygon fill="#181818" points="1415.8696,607.3516,1425.8696,611.3516,1415.8696,615.3516,1419.8696,611.3516" style="stroke:#181818;stroke-width:1;"/><line style="stroke:#181818;stroke-width:1;" x1="1143.3271" x2="1421.8696" y1="611.3516" y2="611.3516"/><text fill="#000000" font-family="sans-serif" font-size="13" font-weight="bold" lengthAdjust="spacing" textLength="18.0908" x="1150.3271" y="598.7192">10</text><text fill="#000000" font-family="sans-serif" font-size="13" lengthAdjust="spacing" textLength="100.1152" x="1172.418" y="591.1528">UPDATE airport</text><text fill="#000000" font-family="sans-serif" font-size="13" lengthAdjust="spacing" textLength="173.6782" x="1172.418" y="606.2856">+ replace collection tables</text></g><g class="message" data-entity-1="part6" data-entity-2="part5" id="msg11"><polygon fill="#181818" points="1149.3271,636.4844,1139.3271,640.4844,1149.3271,644.4844,1145.3271,640.4844" style="stroke:#181818;stroke-width:1;"/><line style="stroke:#181818;stroke-width:1;stroke-dasharray:2,2;" x1="1143.3271" x2="1431.8696" y1="640.4844" y2="640.4844"/><text fill="#000000" font-family="sans-serif" font-size="13" font-weight="bold" lengthAdjust="spacing" textLength="18.0908" x="1155.3271" y="635.4185">11</text><text fill="#000000" font-family="sans-serif" font-size="13" lengthAdjust="spacing" textLength="4.1323" x="1177.418" y="635.4185">&#160;</text></g><g class="message" data-entity-1="part3" data-entity-2="part2" id="msg12"><polygon fill="#181818" points="423.3496,711.0156,413.3496,715.0156,423.3496,719.0156,419.3496,715.0156" style="stroke:#181818;stroke-width:1;"/><line style="stroke:#181818;stroke-width:1;stroke-dasharray:2,2;" x1="417.3496" x2="709.9819" y1="715.0156" y2="715.0156"/><text fill="#000000" font-family="sans-serif" font-size="13" font-weight="bold" lengthAdjust="spacing" textLength="18.0908" x="429.3496" y="687.2505">12</text><text fill="#000000" font-family="sans-serif" font-size="13" lengthAdjust="spacing" textLength="195.9014" x="451.4404" y="664.5513">AirportResponse.from(airport)</text><text fill="#000000" font-family="sans-serif" font-size="13" lengthAdjust="spacing" textLength="167.8003" x="451.4404" y="679.6841">{ iataCode, name, status,</text><text fill="#000000" font-family="sans-serif" font-size="13" lengthAdjust="spacing" textLength="179.8989" x="459.7051" y="694.8169">operationalHours, contacts,</text><text fill="#000000" font-family="sans-serif" font-size="13" lengthAdjust="spacing" textLength="200.3257" x="459.7051" y="709.9497">services, terminals, gates, ... }</text></g><g class="message" data-entity-1="part2" data-entity-2="part1" id="msg13"><polygon fill="#181818" points="88.8633,755.2813,78.8633,759.2813,88.8633,763.2813,84.8633,759.2813" style="stroke:#181818;stroke-width:1;"/><line style="stroke:#181818;stroke-width:1;stroke-dasharray:2,2;" x1="82.8633" x2="406.3496" y1="759.2813" y2="759.2813"/><text fill="#000000" font-family="sans-serif" font-size="13" font-weight="bold" lengthAdjust="spacing" textLength="18.0908" x="94.8633" y="746.6489">13</text><text fill="#000000" font-family="sans-serif" font-size="13" lengthAdjust="spacing" textLength="47.7026" x="116.9541" y="739.0825">200 OK</text><text fill="#000000" font-family="sans-serif" font-size="13" lengthAdjust="spacing" textLength="278.3955" x="116.9541" y="754.2153">EntityModel&lt;AirportResponse&gt; with _links</text></g><?plantuml-src XLHBZzem4BxdLumuKJN0gaVKBe90HTMkG2oeXr9LtcG0QutjsWujGlptdTWX1Cfk3q2mv_Kz9YntIkRR9pGHIvqoq1Ymz5cjLZn5c6WqZ0uRm2mC9f5cnl6KQoOTDFhSQ6LSegGpIWWCKOapuZ9keJFci8mUecDSs8N5X5dq6OlaPbr_DvAEk_tD-nbgPJaDj_UHnT-86h4dgWkDOVdaxuQ3A1fCe7NlfuCkJFlpP0mTfdc7XMgsS-2KagWCZvqi3BcK1r2U0Qua4sEL6zkBWM_P6gVCRNhnKWAaX9-Oixqk_3Y0sskCOST4JZyPsjHmNQJ3yQUFjcXsnAoFVdI6otKuTsYsd9hySx4cxkg7S2nquZiw3bn7Kj6ZuUkD0xKAPm2tI9_Xxnojwz9r2vWGiE8eCaiO0q1_hgJOWrIo9VDp13C8J6l1COjGPb2qZ29F9f6wI8XI_8jfxh1vOh4BOM0FmfITtnhhtHaNEIAYebIwK9MAhxZC1lilPUdYK_MffNaB-0pA70uext7qRPJCuVDiyW2bqF1zF9gDIBKCuHFqpjba4iffdPkU4WococHHXlNGqEO4lWHKZ_73b2Y2Yoakz_1BtCrhRyMLbpnfbS_YoZNnsITnS4ODVhahbtQeMazkwBgKXR1Xg8oK1xT1m52cJ0mGwy3ADfS2MRR3PadOcueifiF-V7JYTYdV4xrQC7hNfCKx9FMxGgihqBucpPKIDpa_hthrjh1QIOljbL7RQj9Ymqz6Ya6oBNrRnrmU5FYFGA-h4aExtQPDhSrMU3ei3Cr6BwCkVBYxWydNfGo4Fj08ukFLjFVmXxiD_19SFjjwjQBI2m00?></g></svg>