<svg xmlns="http://www.w3.org/2000/svg" xmlns:xlink="http://www.w3.org/1999/xlink" contentStyleType="text/css" data-diagram-type="SEQUENCE" height="1351px" preserveAspectRatio="none" style="width:1726px;height:1351px;background:#FFFFFF;" version="1.1" viewBox="0 0 1726 1351" width="1726px" zoomAndPan="magnify"><defs/><g><g><title>RouteController</title><rect fill="#FFFFFF" height="1089.6113" style="stroke:#181818;stroke-width:1;" width="10" x="443.376" y="168.7852"/></g><g><title>CreateRouteUseCase</title><rect fill="#FFFFFF" height="846.7012" style="stroke:#181818;stroke-width:1;" width="10" x="721.9648" y="341.1133"/></g><g><title>AirportRepository</title><rect fill="#FFFFFF" height="93.873" style="stroke:#181818;stroke-width:1;" width="10" x="1074.3662" y="372.4043"/></g><g><title>AirportRepository</title><rect fill="#FFFFFF" height="93.873" style="stroke:#181818;stroke-width:1;" width="10" x="1074.3662" y="497.5684"/></g><g><title>RouteRepository</title><rect fill="#FFFFFF" height="93.873" style="stroke:#181818;stroke-width:1;" width="10" x="1204.5796" y="745.5273"/></g><g><title>RouteRepository</title><rect fill="#FFFFFF" height="93.873" style="stroke:#181818;stroke-width:1;" width="10" x="1204.5796" y="1010.7773"/></g><g><title>Database</title><rect fill="#FFFFFF" height="31.291" style="stroke:#181818;stroke-width:1;" width="10" x="1661.6792" y="403.6953"/></g><g><title>Database</title><rect fill="#FFFFFF" height="31.291" style="stroke:#181818;stroke-width:1;" width="10" x="1661.6792" y="528.8594"/></g><g><title>Database</title><rect fill="#FFFFFF" height="31.291" style="stroke:#181818;stroke-width:1;" width="10" x="1661.6792" y="776.8184"/></g><g><title>Database</title><rect fill="#FFFFFF" height="31.291" style="stroke:#181818;stroke-width:1;" width="10" x="1661.6792" y="1042.0684"/></g><rect fill="none" height="644.9551" style="stroke:#000000;stroke-width:1.5;" width="1709.6445" x="10" y="606.4414"/><rect fill="none" height="389.9961" style="stroke:#000000;stroke-width:1.5;" width="1689.6445" x="20" y="854.4004"/><g><title>ATCC</title><rect fill="#000000" fill-opacity="0.00000" height="1184.7754" width="8" x="48.0552" y="83.6211"/><line style="stroke:#181818;stroke-width:0.5;stroke-dasharray:5,5;" x1="52" x2="52" y1="83.6211" y2="1268.3965"/></g><g><title>RouteController</title><rect fill="#000000" fill-opacity="0.00000" height="1184.7754" width="8" x="444.376" y="83.6211"/><line style="stroke:#181818;stroke-width:0.5;stroke-dasharray:5,5;" x1="448.3521" x2="448.3521" y1="83.6211" y2="1268.3965"/></g><g><title>CreateRouteUseCase</title><rect fill="#000000" fill-opacity="0.00000" height="1184.7754" width="8" x="722.9648" y="83.6211"/><line style="stroke:#181818;stroke-width:0.5;stroke-dasharray:5,5;" x1="726.4858" x2="726.4858" y1="83.6211" y2="1268.3965"/></g><g><title>AirportRepository</title><rect fill="#000000" fill-opacity="0.00000" height="1184.7754" width="8" x="1075.3662" y="83.6211"/><line style="stroke:#181818;stroke-width:0.5;stroke-dasharray:5,5;" x1="1079.2905" x2="1079.2905" y1="83.6211" y2="1268.3965"/></g><g><title>RouteRepository</title><rect fill="#000000" fill-opacity="0.00000" height="1184.7754" width="8" x="1205.5796" y="83.6211"/><line style="stroke:#181818;stroke-width:0.5;stroke-dasharray:5,5;" x1="1209.4419" x2="1209.4419" y1="83.6211" y2="1268.3965"/></g><g><title>Database</title><rect fill="#000000" fill-opacity="0.00000" height="1184.7754" width="8" x="1662.6792" y="83.6211"/><line style="stroke:#181818;stroke-width:0.5;stroke-dasharray:5,5;" x1="1665.7139" x2="1665.7139" y1="83.6211" y2="1268.3965"/></g><g class="participant participant-head" data-participant="Actor"><text fill="#000000" font-family="sans-serif" font-size="14" lengthAdjust="spacing" textLength="38.1104" x="30" y="80.1074">ATCC</text><ellipse cx="52.0552" cy="13.5" fill="#E2E2F0" rx="8" ry="8" style="stroke:#181818;stroke-width:0.5;"/><path d="M52.0552,21.5 L52.0552,48.5 M39.0552,29.5 L65.0552,29.5 M52.0552,48.5 L39.0552,63.5 M52.0552,48.5 L65.0552,63.5" fill="none" style="stroke:#181818;stroke-width:0.5;"/></g><g class="participant participant-tail" data-participant="Actor"><text fill="#000000" font-family="sans-serif" font-size="14" lengthAdjust="spacing" textLength="38.1104" x="30" y="1282.5039">ATCC</text><ellipse cx="52.0552" cy="1294.5176" fill="#E2E2F0" rx="8" ry="8" style="stroke:#181818;stroke-width:0.5;"/><path d="M52.0552,1302.5176 L52.0552,1329.5176 M39.0552,1310.5176 L65.0552,1310.5176 M52.0552,1329.5176 L39.0552,1344.5176 M52.0552,1329.5176 L65.0552,1344.5176" fill="none" style="stroke:#181818;stroke-width:0.5;"/></g><g class="participant participant-head" data-participant="Ctrl"><rect fill="#E2E2F0" height="32.6211" rx="2.5" ry="2.5" style="stroke:#181818;stroke-width:0.5;" width="112.0479" x="392.3521" y="50"/><text fill="#000000" font-family="sans-serif" font-size="14" lengthAdjust="spacing" textLength="98.0479" x="399.3521" y="72.1074">RouteController</text></g><g class="participant participant-tail" data-participant="Ctrl"><rect fill="#E2E2F0" height="32.6211" rx="2.5" ry="2.5" style="stroke:#181818;stroke-width:0.5;" width="112.0479" x="392.3521" y="1267.3965"/><text fill="#000000" font-family="sans-serif" font-size="14" lengthAdjust="spacing" textLength="98.0479" x="399.3521" y="1289.5039">RouteController</text></g><g class="participant participant-head" data-participant="UC"><rect fill="#E2E2F0" height="32.6211" rx="2.5" ry="2.5" style="stroke:#181818;stroke-width:0.5;" width="150.958" x="651.4858" y="50"/><text fill="#000000" font-family="sans-serif" font-size="14" lengthAdjust="spacing" textLength="136.958" x="658.4858" y="72.1074">CreateRouteUseCase</text></g><g class="participant participant-tail" data-participant="UC"><rect fill="#E2E2F0" height="32.6211" rx="2.5" ry="2.5" style="stroke:#181818;stroke-width:0.5;" width="150.958" x="651.4858" y="1267.3965"/><text fill="#000000" font-family="sans-serif" font-size="14" lengthAdjust="spacing" textLength="136.958" x="658.4858" y="1289.5039">CreateRouteUseCase</text></g><g class="participant participant-head" data-participant="AirRepo"><rect fill="#E2E2F0" height="32.6211" rx="2.5" ry="2.5" style="stroke:#181818;stroke-width:0.5;" width="122.1514" x="1018.2905" y="50"/><text fill="#000000" font-family="sans-serif" font-size="14" lengthAdjust="spacing" textLength="108.1514" x="1025.2905" y="72.1074">AirportRepository</text></g><g class="participant participant-tail" data-participant="AirRepo"><rect fill="#E2E2F0" height="32.6211" rx="2.5" ry="2.5" style="stroke:#181818;stroke-width:0.5;" width="122.1514" x="1018.2905" y="1267.3965"/><text fill="#000000" font-family="sans-serif" font-size="14" lengthAdjust="spacing" textLength="108.1514" x="1025.2905" y="1289.5039">AirportRepository</text></g><g class="participant participant-head" data-participant="RouteRepo"><rect fill="#E2E2F0" height="32.6211" rx="2.5" ry="2.5" style="stroke:#181818;stroke-width:0.5;" width="118.2754" x="1150.4419" y="50"/><text fill="#000000" font-family="sans-serif" font-size="14" lengthAdjust="spacing" textLength="104.2754" x="1157.4419" y="72.1074">RouteRepository</text></g><g class="participant participant-tail" data-participant="RouteRepo"><rect fill="#E2E2F0" height="32.6211" rx="2.5" ry="2.5" style="stroke:#181818;stroke-width:0.5;" width="118.2754" x="1150.4419" y="1267.3965"/><text fill="#000000" font-family="sans-serif" font-size="14" lengthAdjust="spacing" textLength="104.2754" x="1157.4419" y="1289.5039">RouteRepository</text></g><g class="participant participant-head" data-participant="DB"><text fill="#000000" font-family="sans-serif" font-size="14" lengthAdjust="spacing" textLength="59.9307" x="1633.7139" y="80.1074">Database</text><path d="M1648.6792,29 C1648.6792,19 1666.6792,19 1666.6792,19 C1666.6792,19 1684.6792,19 1684.6792,29 L1684.6792,55 C1684.6792,65 1666.6792,65 1666.6792,65 C1666.6792,65 1648.6792,65 1648.6792,55 L1648.6792,29" fill="#E2E2F0" style="stroke:#181818;stroke-width:0.5;"/><path d="M1648.6792,29 C1648.6792,39 1666.6792,39 1666.6792,39 C1666.6792,39 1684.6792,39 1684.6792,29" fill="none" style="stroke:#181818;stroke-width:0.5;"/></g><g class="participant participant-tail" data-participant="DB"><text fill="#000000" font-family="sans-serif" font-size="14" lengthAdjust="spacing" textLength="59.9307" x="1633.7139" y="1282.5039">Database</text><path d="M1648.6792,1296.0176 C1648.6792,1286.0176 1666.6792,1286.0176 1666.6792,1286.0176 C1666.6792,1286.0176 1684.6792,1286.0176 1684.6792,1296.0176 L1684.6792,1322.0176 C1684.6792,1332.0176 1666.6792,1332.0176 1666.6792,1332.0176 C1666.6792,1332.0176 1648.6792,1332.0176 1648.6792,1322.0176 L1648.6792,1296.0176" fill="#E2E2F0" style="stroke:#181818;stroke-width:0.5;"/><path d="M1648.6792,1296.0176 C1648.6792,1306.0176 1666.6792,1306.0176 1666.6792,1306.0176 C1666.6792,1306.0176 1684.6792,1306.0176 1684.6792,1296.0176" fill="none" style="stroke:#181818;stroke-width:0.5;"/></g><g><title>RouteController</title><rect fill="#FFFFFF" height="1089.6113" style="stroke:#181818;stroke-width:1;" width="10" x="443.376" y="168.7852"/></g><g><title>CreateRouteUseCase</title><rect fill="#FFFFFF" height="846.7012" style="stroke:#181818;stroke-width:1;" width="10" x="721.9648" y="341.1133"/></g><g><title>AirportRepository</title><rect fill="#FFFFFF" height="93.873" style="stroke:#181818;stroke-width:1;" width="10" x="1074.3662" y="372.4043"/></g><g><title>AirportRepository</title><rect fill="#FFFFFF" height="93.873" style="stroke:#181818;stroke-width:1;" width="10" x="1074.3662" y="497.5684"/></g><g><title>RouteRepository</title><rect fill="#FFFFFF" height="93.873" style="stroke:#181818;stroke-width:1;" width="10" x="1204.5796" y="745.5273"/></g><g><title>RouteRepository</title><rect fill="#FFFFFF" height="93.873" style="stroke:#181818;stroke-width:1;" width="10" x="1204.5796" y="1010.7773"/></g><g><title>Database</title><rect fill="#FFFFFF" height="31.291" style="stroke:#181818;stroke-width:1;" width="10" x="1661.6792" y="403.6953"/></g><g><title>Database</title><rect fill="#FFFFFF" height="31.291" style="stroke:#181818;stroke-width:1;" width="10" x="1661.6792" y="528.8594"/></g><g><title>Database</title><rect fill="#FFFFFF" height="31.291" style="stroke:#181818;stroke-width:1;" width="10" x="1661.6792" y="776.8184"/></g><g><title>Database</title><rect fill="#FFFFFF" height="31.291" style="stroke:#181818;stroke-width:1;" width="10" x="1661.6792" y="1042.0684"/></g><g class="message" data-participant-1="Actor" data-participant-2="Ctrl"><polygon fill="#181818" points="431.376,164.7852,441.376,168.7852,431.376,172.7852,435.376,168.7852" style="stroke:#181818;stroke-width:1;"/><line style="stroke:#181818;stroke-width:1;" x1="52.0552" x2="437.376" y1="168.7852" y2="168.7852"/><text fill="#000000" font-family="sans-serif" font-size="13" font-weight="bold" lengthAdjust="spacing" textLength="7.23" x="59.0552" y="137.5859">1</text><text fill="#000000" font-family="sans-serif" font-size="13" lengthAdjust="spacing" textLength="99.709" x="70.2852" y="111.6494">POST /api/routes</text><text fill="#000000" font-family="sans-serif" font-size="13" lengthAdjust="spacing" textLength="218.9878" x="70.2852" y="128.9404">{ originIataCode, destinationIataCode,</text><text fill="#000000" font-family="sans-serif" font-size="13" lengthAdjust="spacing" textLength="218.9053" x="77.5088" y="146.2314">estimatedFlightTime, minimumRange,</text><text fill="#000000" font-family="sans-serif" font-size="13" lengthAdjust="spacing" textLength="111.2554" x="77.5088" y="163.5225">minimumCapacity }</text></g><path d="M458,181.7852 L458,312.7852 L680,312.7852 L680,191.7852 L670,181.7852 L458,181.7852" fill="#FEFFDD" style="stroke:#181818;stroke-width:0.5;"/><path d="M670,181.7852 L670,191.7852 L680,191.7852 L670,181.7852" fill="#FEFFDD" style="stroke:#181818;stroke-width:0.5;"/><text fill="#000000" font-family="sans-serif" font-size="13" lengthAdjust="spacing" textLength="125.7407" x="464" y="200.8135">CreateRouteRequest:</text><text fill="#000000" font-family="sans-serif" font-size="13" lengthAdjust="spacing" textLength="152.4834" x="464" y="218.1045">- originIataCode: not blank</text><text fill="#000000" font-family="sans-serif" font-size="13" lengthAdjust="spacing" textLength="183.5679" x="464" y="235.3955">- destinationIataCode: not blank</text><text fill="#000000" font-family="sans-serif" font-size="13" lengthAdjust="spacing" textLength="150.6362" x="464" y="252.6865">- estimatedFlightTime: &gt; 0</text><text fill="#000000" font-family="sans-serif" font-size="13" lengthAdjust="spacing" textLength="135.4717" x="464" y="269.9775">- minimumRange: &gt; 0.0</text><text fill="#000000" font-family="sans-serif" font-size="13" lengthAdjust="spacing" textLength="136.8999" x="464" y="287.2686">- minimumCapacity: &gt; 0</text><text fill="#000000" font-family="sans-serif" font-size="13" lengthAdjust="spacing" textLength="201.2397" x="464" y="304.5596">- origin != destination (domain rule)</text><g class="message" data-participant-1="Ctrl" data-participant-2="UC"><polygon fill="#181818" points="709.9648,337.1133,719.9648,341.1133,709.9648,345.1133,713.9648,341.1133" style="stroke:#181818;stroke-width:1;"/><line style="stroke:#181818;stroke-width:1;" x1="453.376" x2="715.9648" y1="341.1133" y2="341.1133"/><text fill="#000000" font-family="sans-serif" font-size="13" font-weight="bold" lengthAdjust="spacing" textLength="7.23" x="460.376" y="335.8506">2</text><text fill="#000000" font-family="sans-serif" font-size="13" lengthAdjust="spacing" textLength="226.9033" x="471.606" y="335.8506">execute(request: CreateRouteRequest)</text></g><g class="message" data-participant-1="UC" data-participant-2="AirRepo"><polygon fill="#181818" points="1062.3662,368.4043,1072.3662,372.4043,1062.3662,376.4043,1066.3662,372.4043" style="stroke:#181818;stroke-width:1;"/><line style="stroke:#181818;stroke-width:1;" x1="731.9648" x2="1068.3662" y1="372.4043" y2="372.4043"/><text fill="#000000" font-family="sans-serif" font-size="13" font-weight="bold" lengthAdjust="spacing" textLength="7.23" x="738.9648" y="367.1416">3</text><text fill="#000000" font-family="sans-serif" font-size="13" lengthAdjust="spacing" textLength="281.0869" x="750.1948" y="367.1416">existsByIataCodeCode(request.originIataCode())</text></g><g class="message" data-participant-1="AirRepo" data-participant-2="DB"><polygon fill="#181818" points="1649.6792,399.6953,1659.6792,403.6953,1649.6792,407.6953,1653.6792,403.6953" style="stroke:#181818;stroke-width:1;"/><line style="stroke:#181818;stroke-width:1;" x1="1084.3662" x2="1655.6792" y1="403.6953" y2="403.6953"/><text fill="#000000" font-family="sans-serif" font-size="13" font-weight="bold" lengthAdjust="spacing" textLength="7.23" x="1091.3662" y="398.4326">4</text><text fill="#000000" font-family="sans-serif" font-size="13" lengthAdjust="spacing" textLength="293.6553" x="1102.5962" y="398.4326">SELECT EXISTS(FROM airport WHERE code = ?)</text></g><g class="message" data-participant-1="DB" data-participant-2="AirRepo"><polygon fill="#181818" points="1095.3662,430.9863,1085.3662,434.9863,1095.3662,438.9863,1091.3662,434.9863" style="stroke:#181818;stroke-width:1;"/><line style="stroke:#181818;stroke-width:1;stroke-dasharray:2,2;" x1="1089.3662" x2="1665.6792" y1="434.9863" y2="434.9863"/><text fill="#000000" font-family="sans-serif" font-size="13" font-weight="bold" lengthAdjust="spacing" textLength="7.23" x="1101.3662" y="429.7236">5</text><text fill="#000000" font-family="sans-serif" font-size="13" lengthAdjust="spacing" textLength="46.2681" x="1112.5962" y="429.7236">boolean</text></g><g class="message" data-participant-1="AirRepo" data-participant-2="UC"><polygon fill="#181818" points="742.9648,462.2773,732.9648,466.2773,742.9648,470.2773,738.9648,466.2773" style="stroke:#181818;stroke-width:1;"/><line style="stroke:#181818;stroke-width:1;stroke-dasharray:2,2;" x1="736.9648" x2="1078.3662" y1="466.2773" y2="466.2773"/><text fill="#000000" font-family="sans-serif" font-size="13" font-weight="bold" lengthAdjust="spacing" textLength="7.23" x="748.9648" y="461.0146">6</text><text fill="#000000" font-family="sans-serif" font-size="13" lengthAdjust="spacing" textLength="46.2681" x="760.1948" y="461.0146">boolean</text></g><g class="message" data-participant-1="UC" data-participant-2="AirRepo"><polygon fill="#181818" points="1062.3662,493.5684,1072.3662,497.5684,1062.3662,501.5684,1066.3662,497.5684" style="stroke:#181818;stroke-width:1;"/><line style="stroke:#181818;stroke-width:1;" x1="731.9648" x2="1068.3662" y1="497.5684" y2="497.5684"/><text fill="#000000" font-family="sans-serif" font-size="13" font-weight="bold" lengthAdjust="spacing" textLength="7.23" x="738.9648" y="492.3057">7</text><text fill="#000000" font-family="sans-serif" font-size="13" lengthAdjust="spacing" textLength="312.1714" x="750.1948" y="492.3057">existsByIataCodeCode(request.destinationIataCode())</text></g><g class="message" data-participant-1="AirRepo" data-participant-2="DB"><polygon fill="#181818" points="1649.6792,524.8594,1659.6792,528.8594,1649.6792,532.8594,1653.6792,528.8594" style="stroke:#181818;stroke-width:1;"/><line style="stroke:#181818;stroke-width:1;" x1="1084.3662" x2="1655.6792" y1="528.8594" y2="528.8594"/><text fill="#000000" font-family="sans-serif" font-size="13" font-weight="bold" lengthAdjust="spacing" textLength="7.23" x="1091.3662" y="523.5967">8</text><text fill="#000000" font-family="sans-serif" font-size="13" lengthAdjust="spacing" textLength="293.6553" x="1102.5962" y="523.5967">SELECT EXISTS(FROM airport WHERE code = ?)</text></g><g class="message" data-participant-1="DB" data-participant-2="AirRepo"><polygon fill="#181818" points="1095.3662,556.1504,1085.3662,560.1504,1095.3662,564.1504,1091.3662,560.1504" style="stroke:#181818;stroke-width:1;"/><line style="stroke:#181818;stroke-width:1;stroke-dasharray:2,2;" x1="1089.3662" x2="1665.6792" y1="560.1504" y2="560.1504"/><text fill="#000000" font-family="sans-serif" font-size="13" font-weight="bold" lengthAdjust="spacing" textLength="7.23" x="1101.3662" y="554.8877">9</text><text fill="#000000" font-family="sans-serif" font-size="13" lengthAdjust="spacing" textLength="46.2681" x="1112.5962" y="554.8877">boolean</text></g><g class="message" data-participant-1="AirRepo" data-participant-2="UC"><polygon fill="#181818" points="742.9648,587.4414,732.9648,591.4414,742.9648,595.4414,738.9648,591.4414" style="stroke:#181818;stroke-width:1;"/><line style="stroke:#181818;stroke-width:1;stroke-dasharray:2,2;" x1="736.9648" x2="1078.3662" y1="591.4414" y2="591.4414"/><text fill="#000000" font-family="sans-serif" font-size="13" font-weight="bold" lengthAdjust="spacing" textLength="14.46" x="748.9648" y="586.1787">10</text><text fill="#000000" font-family="sans-serif" font-size="13" lengthAdjust="spacing" textLength="46.2681" x="767.4248" y="586.1787">boolean</text></g><path d="M10,606.4414 L70.1709,606.4414 L70.1709,615.7324 L60.1709,625.7324 L10,625.7324 L10,606.4414" fill="#EEEEEE" style="stroke:#000000;stroke-width:1.5;"/><rect fill="none" height="644.9551" style="stroke:#000000;stroke-width:1.5;" width="1709.6445" x="10" y="606.4414"/><text fill="#000000" font-family="sans-serif" font-size="13" font-weight="bold" lengthAdjust="spacing" textLength="15.1709" x="25" y="621.4697">alt</text><text fill="#000000" font-family="sans-serif" font-size="11" font-weight="bold" lengthAdjust="spacing" textLength="205.3047" x="85.1709" y="620.3115">[origin or destination airport not found]</text><g class="message" data-participant-1="UC" data-participant-2="Ctrl"><polygon fill="#181818" points="464.376,645.0234,454.376,649.0234,464.376,653.0234,460.376,649.0234" style="stroke:#181818;stroke-width:1;"/><line style="stroke:#181818;stroke-width:1;stroke-dasharray:2,2;" x1="458.376" x2="720.9648" y1="649.0234" y2="649.0234"/><text fill="#000000" font-family="sans-serif" font-size="13" font-weight="bold" lengthAdjust="spacing" textLength="14.46" x="470.376" y="643.7607">11</text><text fill="#000000" font-family="sans-serif" font-size="13" lengthAdjust="spacing" textLength="194.3716" x="488.8359" y="643.7607">throws AirportNotFoundException</text></g><g class="message" data-participant-1="Ctrl" data-participant-2="Actor"><polygon fill="#181818" points="63.0552,693.6055,53.0552,697.6055,63.0552,701.6055,59.0552,697.6055" style="stroke:#181818;stroke-width:1;"/><line style="stroke:#181818;stroke-width:1;stroke-dasharray:2,2;" x1="57.0552" x2="442.376" y1="697.6055" y2="697.6055"/><text fill="#000000" font-family="sans-serif" font-size="13" font-weight="bold" lengthAdjust="spacing" textLength="14.46" x="69.0552" y="683.6973">12</text><text fill="#000000" font-family="sans-serif" font-size="13" lengthAdjust="spacing" textLength="86.0044" x="87.5151" y="675.0518">404 Not Found</text><text fill="#000000" font-family="sans-serif" font-size="13" lengthAdjust="spacing" textLength="295.2866" x="87.5151" y="692.3428">{ message: "Airport with IATA code '...' not found." }</text></g><line style="stroke:#000000;stroke-width:1;stroke-dasharray:2,2;" x1="10" x2="1719.6445" y1="706.6055" y2="706.6055"/><text fill="#000000" font-family="sans-serif" font-size="11" font-weight="bold" lengthAdjust="spacing" textLength="103.2861" x="15" y="718.4756">[both airports exist]</text><g class="message" data-participant-1="UC" data-participant-2="RouteRepo"><polygon fill="#181818" points="1192.5796,741.5273,1202.5796,745.5273,1192.5796,749.5273,1196.5796,745.5273" style="stroke:#181818;stroke-width:1;"/><line style="stroke:#181818;stroke-width:1;" x1="731.9648" x2="1198.5796" y1="745.5273" y2="745.5273"/><text fill="#000000" font-family="sans-serif" font-size="13" font-weight="bold" lengthAdjust="spacing" textLength="14.46" x="738.9648" y="740.2646">13</text><text fill="#000000" font-family="sans-serif" font-size="13" lengthAdjust="spacing" textLength="387.3276" x="757.4248" y="740.2646">existsByOriginAndDestination(originIataCode, destinationIataCode)</text></g><g class="message" data-participant-1="RouteRepo" data-participant-2="DB"><polygon fill="#181818" points="1649.6792,772.8184,1659.6792,776.8184,1649.6792,780.8184,1653.6792,776.8184" style="stroke:#181818;stroke-width:1;"/><line style="stroke:#181818;stroke-width:1;" x1="1214.5796" x2="1655.6792" y1="776.8184" y2="776.8184"/><text fill="#000000" font-family="sans-serif" font-size="13" font-weight="bold" lengthAdjust="spacing" textLength="14.46" x="1221.5796" y="771.5557">14</text><text fill="#000000" font-family="sans-serif" font-size="13" lengthAdjust="spacing" textLength="409.6396" x="1240.0396" y="771.5557">SELECT EXISTS(FROM route WHERE origin = ? AND destination = ?)</text></g><g class="message" data-participant-1="DB" data-participant-2="RouteRepo"><polygon fill="#181818" points="1225.5796,804.1094,1215.5796,808.1094,1225.5796,812.1094,1221.5796,808.1094" style="stroke:#181818;stroke-width:1;"/><line style="stroke:#181818;stroke-width:1;stroke-dasharray:2,2;" x1="1219.5796" x2="1665.6792" y1="808.1094" y2="808.1094"/><text fill="#000000" font-family="sans-serif" font-size="13" font-weight="bold" lengthAdjust="spacing" textLength="14.46" x="1231.5796" y="802.8467">15</text><text fill="#000000" font-family="sans-serif" font-size="13" lengthAdjust="spacing" textLength="46.2681" x="1250.0396" y="802.8467">boolean</text></g><g class="message" data-participant-1="RouteRepo" data-participant-2="UC"><polygon fill="#181818" points="742.9648,835.4004,732.9648,839.4004,742.9648,843.4004,738.9648,839.4004" style="stroke:#181818;stroke-width:1;"/><line style="stroke:#181818;stroke-width:1;stroke-dasharray:2,2;" x1="736.9648" x2="1208.5796" y1="839.4004" y2="839.4004"/><text fill="#000000" font-family="sans-serif" font-size="13" font-weight="bold" lengthAdjust="spacing" textLength="14.46" x="748.9648" y="834.1377">16</text><text fill="#000000" font-family="sans-serif" font-size="13" lengthAdjust="spacing" textLength="46.2681" x="767.4248" y="834.1377">boolean</text></g><path d="M20,854.4004 L80.1709,854.4004 L80.1709,863.6914 L70.1709,873.6914 L20,873.6914 L20,854.4004" fill="#EEEEEE" style="stroke:#000000;stroke-width:1.5;"/><rect fill="none" height="389.9961" style="stroke:#000000;stroke-width:1.5;" width="1689.6445" x="20" y="854.4004"/><text fill="#000000" font-family="sans-serif" font-size="13" font-weight="bold" lengthAdjust="spacing" textLength="15.1709" x="35" y="869.4287">alt</text><text fill="#000000" font-family="sans-serif" font-size="11" font-weight="bold" lengthAdjust="spacing" textLength="110.6553" x="95.1709" y="868.2705">[route already exists]</text><g class="message" data-participant-1="UC" data-participant-2="Ctrl"><polygon fill="#181818" points="464.376,892.9824,454.376,896.9824,464.376,900.9824,460.376,896.9824" style="stroke:#181818;stroke-width:1;"/><line style="stroke:#181818;stroke-width:1;stroke-dasharray:2,2;" x1="458.376" x2="720.9648" y1="896.9824" y2="896.9824"/><text fill="#000000" font-family="sans-serif" font-size="13" font-weight="bold" lengthAdjust="spacing" textLength="14.46" x="470.376" y="891.7197">17</text><text fill="#000000" font-family="sans-serif" font-size="13" lengthAdjust="spacing" textLength="208.8252" x="488.8359" y="891.7197">throws DuplicateResourceException</text></g><g class="message" data-participant-1="Ctrl" data-participant-2="Actor"><polygon fill="#181818" points="63.0552,941.5645,53.0552,945.5645,63.0552,949.5645,59.0552,945.5645" style="stroke:#181818;stroke-width:1;"/><line style="stroke:#181818;stroke-width:1;stroke-dasharray:2,2;" x1="57.0552" x2="442.376" y1="945.5645" y2="945.5645"/><text fill="#000000" font-family="sans-serif" font-size="13" font-weight="bold" lengthAdjust="spacing" textLength="14.46" x="69.0552" y="931.6563">18</text><text fill="#000000" font-family="sans-serif" font-size="13" lengthAdjust="spacing" textLength="68.6499" x="87.5151" y="923.0107">409 Conflict</text><text fill="#000000" font-family="sans-serif" font-size="13" lengthAdjust="spacing" textLength="348.8608" x="87.5151" y="940.3018">{ message: "A route between these airports already exists." }</text></g><line style="stroke:#000000;stroke-width:1;stroke-dasharray:2,2;" x1="20" x2="1709.6445" y1="954.5645" y2="954.5645"/><text fill="#000000" font-family="sans-serif" font-size="11" font-weight="bold" lengthAdjust="spacing" textLength="111.8423" x="25" y="966.4346">[route does not exist]</text><g class="message" data-participant-1="UC" data-participant-2="RouteRepo"><polygon fill="#181818" points="1192.5796,1006.7773,1202.5796,1010.7773,1192.5796,1014.7773,1196.5796,1010.7773" style="stroke:#181818;stroke-width:1;"/><line style="stroke:#181818;stroke-width:1;" x1="731.9648" x2="1198.5796" y1="1010.7773" y2="1010.7773"/><text fill="#000000" font-family="sans-serif" font-size="13" font-weight="bold" lengthAdjust="spacing" textLength="14.46" x="738.9648" y="996.8691">19</text><text fill="#000000" font-family="sans-serif" font-size="13" lengthAdjust="spacing" textLength="309.3022" x="757.4248" y="988.2236">save(new Route(originIataCode, destinationIataCode,</text><text fill="#000000" font-family="sans-serif" font-size="13" lengthAdjust="spacing" textLength="334.4771" x="764.6484" y="1005.5146">estimatedFlightTime, minimumRange, minimumCapacity))</text></g><g class="message" data-participant-1="RouteRepo" data-participant-2="DB"><polygon fill="#181818" points="1649.6792,1038.0684,1659.6792,1042.0684,1649.6792,1046.0684,1653.6792,1042.0684" style="stroke:#181818;stroke-width:1;"/><line style="stroke:#181818;stroke-width:1;" x1="1214.5796" x2="1655.6792" y1="1042.0684" y2="1042.0684"/><text fill="#000000" font-family="sans-serif" font-size="13" font-weight="bold" lengthAdjust="spacing" textLength="14.46" x="1221.5796" y="1036.8057">20</text><text fill="#000000" font-family="sans-serif" font-size="13" lengthAdjust="spacing" textLength="115.5781" x="1240.0396" y="1036.8057">INSERT INTO route</text></g><g class="message" data-participant-1="DB" data-participant-2="RouteRepo"><polygon fill="#181818" points="1225.5796,1069.3594,1215.5796,1073.3594,1225.5796,1077.3594,1221.5796,1073.3594" style="stroke:#181818;stroke-width:1;"/><line style="stroke:#181818;stroke-width:1;stroke-dasharray:2,2;" x1="1219.5796" x2="1665.6792" y1="1073.3594" y2="1073.3594"/><text fill="#000000" font-family="sans-serif" font-size="13" font-weight="bold" lengthAdjust="spacing" textLength="14.46" x="1231.5796" y="1068.0967">21</text><text fill="#000000" font-family="sans-serif" font-size="13" lengthAdjust="spacing" textLength="189.3125" x="1250.0396" y="1068.0967">saved record (with generated ID)</text></g><g class="message" data-participant-1="RouteRepo" data-participant-2="UC"><polygon fill="#181818" points="742.9648,1100.6504,732.9648,1104.6504,742.9648,1108.6504,738.9648,1104.6504" style="stroke:#181818;stroke-width:1;"/><line style="stroke:#181818;stroke-width:1;stroke-dasharray:2,2;" x1="736.9648" x2="1208.5796" y1="1104.6504" y2="1104.6504"/><text fill="#000000" font-family="sans-serif" font-size="13" font-weight="bold" lengthAdjust="spacing" textLength="14.46" x="748.9648" y="1099.3877">22</text><text fill="#000000" font-family="sans-serif" font-size="13" lengthAdjust="spacing" textLength="34.6899" x="767.4248" y="1099.3877">Route</text></g><g class="message" data-participant-1="UC" data-participant-2="Ctrl"><polygon fill="#181818" points="464.376,1183.8145,454.376,1187.8145,464.376,1191.8145,460.376,1187.8145" style="stroke:#181818;stroke-width:1;"/><line style="stroke:#181818;stroke-width:1;stroke-dasharray:2,2;" x1="458.376" x2="725.9648" y1="1187.8145" y2="1187.8145"/><text fill="#000000" font-family="sans-serif" font-size="13" font-weight="bold" lengthAdjust="spacing" textLength="14.46" x="470.376" y="1156.6152">23</text><text fill="#000000" font-family="sans-serif" font-size="13" lengthAdjust="spacing" textLength="93.228" x="488.8359" y="1130.6787">RouteResponse</text><text fill="#000000" font-family="sans-serif" font-size="13" lengthAdjust="spacing" textLength="218.9878" x="488.8359" y="1147.9697">{ originIataCode, destinationIataCode,</text><text fill="#000000" font-family="sans-serif" font-size="13" lengthAdjust="spacing" textLength="218.9053" x="496.0596" y="1165.2607">estimatedFlightTime, minimumRange,</text><text fill="#000000" font-family="sans-serif" font-size="13" lengthAdjust="spacing" textLength="207.3398" x="496.0596" y="1182.5518">minimumCapacity, status: ACTIVE }</text></g><g class="message" data-participant-1="Ctrl" data-participant-2="Actor"><polygon fill="#181818" points="63.0552,1232.3965,53.0552,1236.3965,63.0552,1240.3965,59.0552,1236.3965" style="stroke:#181818;stroke-width:1;"/><line style="stroke:#181818;stroke-width:1;stroke-dasharray:2,2;" x1="57.0552" x2="442.376" y1="1236.3965" y2="1236.3965"/><text fill="#000000" font-family="sans-serif" font-size="13" font-weight="bold" lengthAdjust="spacing" textLength="14.46" x="69.0552" y="1222.4883">24</text><text fill="#000000" font-family="sans-serif" font-size="13" lengthAdjust="spacing" textLength="71.5508" x="87.5151" y="1213.8428">201 Created</text><text fill="#000000" font-family="sans-serif" font-size="13" lengthAdjust="spacing" textLength="239.9097" x="87.5151" y="1231.1338">EntityModel&lt;RouteResponse&gt; with _links</text></g><!--SRC=[rLLDRzD04BtxLmovr97QjA1UY6YGwxWY4ZGeSO539RInf-cgpgxPNJUD4F-TsRKTsv6BG883XoZ9x7oycVTsbXL6YcApGkMnn4W5Wo0Emm4m3O7zx-LC6Pxmd0a3WuKi38PI62Mp39Lp2utAkbwXGcRG-Tve39b6vtWJTjq2hdAfp09pgJcLsfLLkRAMdhe7ZdkRbpB3LbG51jFgbtEONdgUwm5E9WubZE7ZV1d3ASlvgRBX-bPy1wduceiPXOOonMD8KHikcE6oCTuA06lUK6FfLSRNzoRc6tBUSC4tnMR1nBhqgWmXord2pGv-sBdoHueh9-K9IJ-LpG3ohhG1j4Qsm6y5bHgJzUG0snWe65OP4m_kj0VfeKiFw35CuCmTji4xwwXZhtje0aeuyEAYNHhyL6uOcLMHuT13aLeCw7bkvZJxcv0cZq-OK7U-gjhhQNdOZ8gqub4O1LTwS1cuDlfoLxTgFtMwKNTG_h2LgrPKdOcIJYyftp9w7uKnH5zcotZfNotc7u2LaeJFxw9510bbWWjusyf5cgBOamwkbPGPCk6bs7RRLwi7qEDM8_kpLdjO_z_wPPcfjKJNiwsb6f5LyPqiH4gwizDfhh2vLtBhzeHrl9Rcohf5JmdcDeEzJ4vt5hEx_MCuFpi7SWJdQQ_y1hLcLlFr4e8jD_Sm2-AWdCBHQ3GwQa2C1dIFCQCLivBaLu7K9KyLmacpaLeCpbsNWKYdJPF-RsoS8MNTpwrPTT0gyWjUtNAhMAtcJBn2S3tj3DjntQf3D09KVBURgQa4w7BUGNF8UyUvwS3M8_PBX2oZ9P3kgcdHqJDaJuiyuubT5wXbeH9iqzrB-6kWP-gEWim1trNb5Pejeg02IApk2Uq2ShJJuhV4bs6fHEraKJFVnxrcZ-WBt9P6_- -zBuUBUJXq27frqgUKsVKoMiJq5S_BVhhXZj5U0TYEKb2OI9M2x-xA6WKgYnPcqnB6eJPwrR7ObtrE7OSIg0vrBeN6V_vU7uCsp1Hw344Oppv5JW0TiFGqzMhkrTdBwasZ5HC9Gya-49JiJQU1IRbflcPSF5Z1qsjfNqollIPjwfy0]--></g></svg>