<?plantuml 1.2026.1?><svg xmlns="http://www.w3.org/2000/svg" xmlns:xlink="http://www.w3.org/1999/xlink" contentStyleType="text/css" data-diagram-type="SEQUENCE" height="752px" preserveAspectRatio="none" style="width:1340px;height:752px;background:#FFFFFF;" version="1.1" viewBox="0 0 1340 752" width="1340px" zoomAndPan="magnify"><defs/><g><g><title>RouteController</title><rect fill="#FFFFFF" height="549.1953" style="stroke:#181818;stroke-width:1;" width="10" x="384.9458" y="112.4297"/></g><g><title>CreateRouteUseCase</title><rect fill="#FFFFFF" height="520.0625" style="stroke:#181818;stroke-width:1;" width="10" x="660.8496" y="141.5625"/></g><g><title>AirportRepository</title><rect fill="#FFFFFF" height="87.3984" style="stroke:#181818;stroke-width:1;" width="10" x="931.8613" y="170.6953"/></g><g><title>AirportRepository</title><rect fill="#FFFFFF" height="87.3984" style="stroke:#181818;stroke-width:1;" width="10" x="931.8613" y="287.2266"/></g><g><title>RouteRepository</title><rect fill="#FFFFFF" height="87.3984" style="stroke:#181818;stroke-width:1;" width="10" x="1075.5278" y="427.8906"/></g><rect fill="none" height="265" style="stroke:#000000;stroke-width:1.5;" width="1323.3462" x="10" y="389.625"/><g class="participant-lifeline" data-entity-uid="part1" data-qualified-name="Actor" id="part1-lifeline"><g><title>ATCC</title><rect fill="#000000" fill-opacity="0.00000" height="590.3281" width="8" x="37.8398" y="81.2969"/><line style="stroke:#181818;stroke-width:0.5;stroke-dasharray:5,5;" x1="41" x2="41" y1="81.2969" y2="671.625"/></g></g><g class="participant-lifeline" data-entity-uid="part2" data-qualified-name="Ctrl" id="part2-lifeline"><g><title>RouteController</title><rect fill="#000000" fill-opacity="0.00000" height="590.3281" width="8" x="385.9458" y="81.2969"/><line style="stroke:#181818;stroke-width:0.5;stroke-dasharray:5,5;" x1="389.7251" x2="389.7251" y1="81.2969" y2="671.625"/></g></g><g class="participant-lifeline" data-entity-uid="part3" data-qualified-name="UC" id="part3-lifeline"><g><title>CreateRouteUseCase</title><rect fill="#000000" fill-opacity="0.00000" height="590.3281" width="8" x="661.8496" y="81.2969"/><line style="stroke:#181818;stroke-width:0.5;stroke-dasharray:5,5;" x1="665.5942" x2="665.5942" y1="81.2969" y2="671.625"/></g></g><g class="participant-lifeline" data-entity-uid="part4" data-qualified-name="AirRepo" id="part4-lifeline"><g><title>AirportRepository</title><rect fill="#000000" fill-opacity="0.00000" height="590.3281" width="8" x="932.8613" y="81.2969"/><line style="stroke:#181818;stroke-width:0.5;stroke-dasharray:5,5;" x1="936.3652" x2="936.3652" y1="81.2969" y2="671.625"/></g></g><g class="participant-lifeline" data-entity-uid="part5" data-qualified-name="RouteRepo" id="part5-lifeline"><g><title>RouteRepository</title><rect fill="#000000" fill-opacity="0.00000" height="590.3281" width="8" x="1076.5278" y="81.2969"/><line style="stroke:#181818;stroke-width:0.5;stroke-dasharray:5,5;" x1="1080.3574" x2="1080.3574" y1="81.2969" y2="671.625"/></g></g><g class="participant-lifeline" data-entity-uid="part6" data-qualified-name="DB" id="part6-lifeline"><g><title>Database</title><rect fill="#000000" fill-opacity="0.00000" height="590.3281" width="8" x="1282.9458" y="81.2969"/><line style="stroke:#181818;stroke-width:0.5;stroke-dasharray:5,5;" x1="1286.5454" x2="1286.5454" y1="81.2969" y2="671.625"/></g></g><g class="participant participant-head" data-entity-uid="part1" data-qualified-name="Actor" id="part1-head"><text fill="#000000" font-family="sans-serif" font-size="14" lengthAdjust="spacing" textLength="37.6797" x="20" y="77.9951">ATCC</text><ellipse cx="41.8398" cy="13.5" fill="#E2E2F0" rx="8" ry="8" style="stroke:#181818;stroke-width:0.5;"/><path d="M41.8398,21.5 L41.8398,48.5 M28.8398,29.5 L54.8398,29.5 M41.8398,48.5 L28.8398,63.5 M41.8398,48.5 L54.8398,63.5" fill="none" style="stroke:#181818;stroke-width:0.5;"/></g><g class="participant participant-tail" data-entity-uid="part1" data-qualified-name="Actor" id="part1-tail"><text fill="#000000" font-family="sans-serif" font-size="14" lengthAdjust="spacing" textLength="37.6797" x="20" y="683.6201">ATCC</text><ellipse cx="41.8398" cy="695.4219" fill="#E2E2F0" rx="8" ry="8" style="stroke:#181818;stroke-width:0.5;"/><path d="M41.8398,703.4219 L41.8398,730.4219 M28.8398,711.4219 L54.8398,711.4219 M41.8398,730.4219 L28.8398,745.4219 M41.8398,730.4219 L54.8398,745.4219" fill="none" style="stroke:#181818;stroke-width:0.5;"/></g><g class="participant participant-head" data-entity-uid="part2" data-qualified-name="Ctrl" id="part2-head"><rect fill="#E2E2F0" height="30.2969" rx="2.5" ry="2.5" style="stroke:#181818;stroke-width:0.5;" width="124.4414" x="327.7251" y="50"/><text fill="#000000" font-family="sans-serif" font-size="14" lengthAdjust="spacing" textLength="110.4414" x="334.7251" y="69.9951">RouteController</text></g><g class="participant participant-tail" data-entity-uid="part2" data-qualified-name="Ctrl" id="part2-tail"><rect fill="#E2E2F0" height="30.2969" rx="2.5" ry="2.5" style="stroke:#181818;stroke-width:0.5;" width="124.4414" x="327.7251" y="670.625"/><text fill="#000000" font-family="sans-serif" font-size="14" lengthAdjust="spacing" textLength="110.4414" x="334.7251" y="690.6201">RouteController</text></g><g class="participant participant-head" data-entity-uid="part3" data-qualified-name="UC" id="part3-head"><rect fill="#E2E2F0" height="30.2969" rx="2.5" ry="2.5" style="stroke:#181818;stroke-width:0.5;" width="162.5107" x="584.5942" y="50"/><text fill="#000000" font-family="sans-serif" font-size="14" lengthAdjust="spacing" textLength="148.5107" x="591.5942" y="69.9951">CreateRouteUseCase</text></g><g class="participant participant-tail" data-entity-uid="part3" data-qualified-name="UC" id="part3-tail"><rect fill="#E2E2F0" height="30.2969" rx="2.5" ry="2.5" style="stroke:#181818;stroke-width:0.5;" width="162.5107" x="584.5942" y="670.625"/><text fill="#000000" font-family="sans-serif" font-size="14" lengthAdjust="spacing" textLength="148.5107" x="591.5942" y="690.6201">CreateRouteUseCase</text></g><g class="participant participant-head" data-entity-uid="part4" data-qualified-name="AirRepo" id="part4-head"><rect fill="#E2E2F0" height="30.2969" rx="2.5" ry="2.5" style="stroke:#181818;stroke-width:0.5;" width="136.9922" x="868.3652" y="50"/><text fill="#000000" font-family="sans-serif" font-size="14" lengthAdjust="spacing" textLength="122.9922" x="875.3652" y="69.9951">AirportRepository</text></g><g class="participant participant-tail" data-entity-uid="part4" data-qualified-name="AirRepo" id="part4-tail"><rect fill="#E2E2F0" height="30.2969" rx="2.5" ry="2.5" style="stroke:#181818;stroke-width:0.5;" width="136.9922" x="868.3652" y="670.625"/><text fill="#000000" font-family="sans-serif" font-size="14" lengthAdjust="spacing" textLength="122.9922" x="875.3652" y="690.6201">AirportRepository</text></g><g class="participant participant-head" data-entity-uid="part5" data-qualified-name="RouteRepo" id="part5-head"><rect fill="#E2E2F0" height="30.2969" rx="2.5" ry="2.5" style="stroke:#181818;stroke-width:0.5;" width="130.3408" x="1015.3574" y="50"/><text fill="#000000" font-family="sans-serif" font-size="14" lengthAdjust="spacing" textLength="116.3408" x="1022.3574" y="69.9951">RouteRepository</text></g><g class="participant participant-tail" data-entity-uid="part5" data-qualified-name="RouteRepo" id="part5-tail"><rect fill="#E2E2F0" height="30.2969" rx="2.5" ry="2.5" style="stroke:#181818;stroke-width:0.5;" width="130.3408" x="1015.3574" y="670.625"/><text fill="#000000" font-family="sans-serif" font-size="14" lengthAdjust="spacing" textLength="116.3408" x="1022.3574" y="690.6201">RouteRepository</text></g><g class="participant participant-head" data-entity-uid="part6" data-qualified-name="DB" id="part6-head"><text fill="#000000" font-family="sans-serif" font-size="14" lengthAdjust="spacing" textLength="66.8008" x="1250.5454" y="77.9951">Database</text><path d="M1268.9458,29 C1268.9458,19 1286.9458,19 1286.9458,19 C1286.9458,19 1304.9458,19 1304.9458,29 L1304.9458,55 C1304.9458,65 1286.9458,65 1286.9458,65 C1286.9458,65 1268.9458,65 1268.9458,55 L1268.9458,29" fill="#E2E2F0" style="stroke:#181818;stroke-width:0.5;"/><path d="M1268.9458,29 C1268.9458,39 1286.9458,39 1286.9458,39 C1286.9458,39 1304.9458,39 1304.9458,29" fill="none" style="stroke:#181818;stroke-width:0.5;"/></g><g class="participant participant-tail" data-entity-uid="part6" data-qualified-name="DB" id="part6-tail"><text fill="#000000" font-family="sans-serif" font-size="14" lengthAdjust="spacing" textLength="66.8008" x="1250.5454" y="683.6201">Database</text><path d="M1268.9458,696.9219 C1268.9458,686.9219 1286.9458,686.9219 1286.9458,686.9219 C1286.9458,686.9219 1304.9458,686.9219 1304.9458,696.9219 L1304.9458,722.9219 C1304.9458,732.9219 1286.9458,732.9219 1286.9458,732.9219 C1286.9458,732.9219 1268.9458,732.9219 1268.9458,722.9219 L1268.9458,696.9219" fill="#E2E2F0" style="stroke:#181818;stroke-width:0.5;"/><path d="M1268.9458,696.9219 C1268.9458,706.9219 1286.9458,706.9219 1286.9458,706.9219 C1286.9458,706.9219 1304.9458,706.9219 1304.9458,696.9219" fill="none" style="stroke:#181818;stroke-width:0.5;"/></g><g><title>RouteController</title><rect fill="#FFFFFF" height="549.1953" style="stroke:#181818;stroke-width:1;" width="10" x="384.9458" y="112.4297"/></g><g><title>CreateRouteUseCase</title><rect fill="#FFFFFF" height="520.0625" style="stroke:#181818;stroke-width:1;" width="10" x="660.8496" y="141.5625"/></g><g><title>AirportRepository</title><rect fill="#FFFFFF" height="87.3984" style="stroke:#181818;stroke-width:1;" width="10" x="931.8613" y="170.6953"/></g><g><title>AirportRepository</title><rect fill="#FFFFFF" height="87.3984" style="stroke:#181818;stroke-width:1;" width="10" x="931.8613" y="287.2266"/></g><g><title>RouteRepository</title><rect fill="#FFFFFF" height="87.3984" style="stroke:#181818;stroke-width:1;" width="10" x="1075.5278" y="427.8906"/></g><g class="message" data-entity-1="part1" data-entity-2="part2" id="msg1"><polygon fill="#181818" points="372.9458,108.4297,382.9458,112.4297,372.9458,116.4297,376.9458,112.4297" style="stroke:#181818;stroke-width:1;"/><line style="stroke:#181818;stroke-width:1;" x1="41.8398" x2="378.9458" y1="112.4297" y2="112.4297"/><text fill="#000000" font-family="sans-serif" font-size="13" font-weight="bold" lengthAdjust="spacing" textLength="9.0454" x="48.8398" y="107.3638">1</text><text fill="#000000" font-family="sans-serif" font-size="13" lengthAdjust="spacing" textLength="311.0605" x="61.8853" y="107.3638">POST /api/routes (origin, destination, time, etc.)</text></g><g class="message" data-entity-1="part2" data-entity-2="part3" id="msg2"><polygon fill="#181818" points="648.8496,137.5625,658.8496,141.5625,648.8496,145.5625,652.8496,141.5625" style="stroke:#181818;stroke-width:1;"/><line style="stroke:#181818;stroke-width:1;" x1="394.9458" x2="654.8496" y1="141.5625" y2="141.5625"/><text fill="#000000" font-family="sans-serif" font-size="13" font-weight="bold" lengthAdjust="spacing" textLength="9.0454" x="401.9458" y="136.4966">2</text><text fill="#000000" font-family="sans-serif" font-size="13" lengthAdjust="spacing" textLength="127.9878" x="414.9912" y="136.4966">execute(routeData)</text></g><g class="message" data-entity-1="part3" data-entity-2="part4" id="msg3"><polygon fill="#181818" points="919.8613,166.6953,929.8613,170.6953,919.8613,174.6953,923.8613,170.6953" style="stroke:#181818;stroke-width:1;"/><line style="stroke:#181818;stroke-width:1;" x1="670.8496" x2="925.8613" y1="170.6953" y2="170.6953"/><text fill="#000000" font-family="sans-serif" font-size="13" font-weight="bold" lengthAdjust="spacing" textLength="9.0454" x="677.8496" y="165.6294">3</text><text fill="#000000" font-family="sans-serif" font-size="13" lengthAdjust="spacing" textLength="193.1401" x="690.895" y="165.6294">existsByIataCodeCode(origin)</text></g><g class="message" data-entity-1="part4" data-entity-2="part6" id="msg4"><polygon fill="#181818" points="1274.9458,195.8281,1284.9458,199.8281,1274.9458,203.8281,1278.9458,199.8281" style="stroke:#181818;stroke-width:1;"/><line style="stroke:#181818;stroke-width:1;" x1="941.8613" x2="1280.9458" y1="199.8281" y2="199.8281"/><text fill="#000000" font-family="sans-serif" font-size="13" font-weight="bold" lengthAdjust="spacing" textLength="9.0454" x="948.8613" y="194.7622">4</text><text fill="#000000" font-family="sans-serif" font-size="13" lengthAdjust="spacing" textLength="308.0391" x="961.9067" y="194.7622">SELECT EXISTS(FROM airport WHERE code = ?)</text></g><g class="message" data-entity-1="part6" data-entity-2="part4" id="msg5"><polygon fill="#181818" points="952.8613,224.9609,942.8613,228.9609,952.8613,232.9609,948.8613,228.9609" style="stroke:#181818;stroke-width:1;"/><line style="stroke:#181818;stroke-width:1;stroke-dasharray:2,2;" x1="946.8613" x2="1285.9458" y1="228.9609" y2="228.9609"/><text fill="#000000" font-family="sans-serif" font-size="13" font-weight="bold" lengthAdjust="spacing" textLength="9.0454" x="958.8613" y="223.895">5</text><text fill="#000000" font-family="sans-serif" font-size="13" lengthAdjust="spacing" textLength="61.9849" x="971.9067" y="223.895">true/false</text></g><g class="message" data-entity-1="part4" data-entity-2="part3" id="msg6"><polygon fill="#181818" points="681.8496,254.0938,671.8496,258.0938,681.8496,262.0938,677.8496,258.0938" style="stroke:#181818;stroke-width:1;"/><line style="stroke:#181818;stroke-width:1;stroke-dasharray:2,2;" x1="675.8496" x2="935.8613" y1="258.0938" y2="258.0938"/><text fill="#000000" font-family="sans-serif" font-size="13" font-weight="bold" lengthAdjust="spacing" textLength="9.0454" x="687.8496" y="253.0278">6</text><text fill="#000000" font-family="sans-serif" font-size="13" lengthAdjust="spacing" textLength="51.9746" x="700.895" y="253.0278">boolean</text></g><g class="message" data-entity-1="part3" data-entity-2="part4" id="msg7"><polygon fill="#181818" points="919.8613,283.2266,929.8613,287.2266,919.8613,291.2266,923.8613,287.2266" style="stroke:#181818;stroke-width:1;"/><line style="stroke:#181818;stroke-width:1;" x1="670.8496" x2="925.8613" y1="287.2266" y2="287.2266"/><text fill="#000000" font-family="sans-serif" font-size="13" font-weight="bold" lengthAdjust="spacing" textLength="9.0454" x="677.8496" y="282.1606">7</text><text fill="#000000" font-family="sans-serif" font-size="13" lengthAdjust="spacing" textLength="228.9663" x="690.895" y="282.1606">existsByIataCodeCode(destination)</text></g><g class="message" data-entity-1="part4" data-entity-2="part6" id="msg8"><polygon fill="#181818" points="1274.9458,312.3594,1284.9458,316.3594,1274.9458,320.3594,1278.9458,316.3594" style="stroke:#181818;stroke-width:1;"/><line style="stroke:#181818;stroke-width:1;" x1="941.8613" x2="1280.9458" y1="316.3594" y2="316.3594"/><text fill="#000000" font-family="sans-serif" font-size="13" font-weight="bold" lengthAdjust="spacing" textLength="9.0454" x="948.8613" y="311.2935">8</text><text fill="#000000" font-family="sans-serif" font-size="13" lengthAdjust="spacing" textLength="308.0391" x="961.9067" y="311.2935">SELECT EXISTS(FROM airport WHERE code = ?)</text></g><g class="message" data-entity-1="part6" data-entity-2="part4" id="msg9"><polygon fill="#181818" points="952.8613,341.4922,942.8613,345.4922,952.8613,349.4922,948.8613,345.4922" style="stroke:#181818;stroke-width:1;"/><line style="stroke:#181818;stroke-width:1;stroke-dasharray:2,2;" x1="946.8613" x2="1285.9458" y1="345.4922" y2="345.4922"/><text fill="#000000" font-family="sans-serif" font-size="13" font-weight="bold" lengthAdjust="spacing" textLength="9.0454" x="958.8613" y="340.4263">9</text><text fill="#000000" font-family="sans-serif" font-size="13" lengthAdjust="spacing" textLength="61.9849" x="971.9067" y="340.4263">true/false</text></g><g class="message" data-entity-1="part4" data-entity-2="part3" id="msg10"><polygon fill="#181818" points="681.8496,370.625,671.8496,374.625,681.8496,378.625,677.8496,374.625" style="stroke:#181818;stroke-width:1;"/><line style="stroke:#181818;stroke-width:1;stroke-dasharray:2,2;" x1="675.8496" x2="935.8613" y1="374.625" y2="374.625"/><text fill="#000000" font-family="sans-serif" font-size="13" font-weight="bold" lengthAdjust="spacing" textLength="18.0908" x="687.8496" y="369.5591">10</text><text fill="#000000" font-family="sans-serif" font-size="13" lengthAdjust="spacing" textLength="51.9746" x="709.9404" y="369.5591">boolean</text></g><path d="M10,389.625 L74.4429,389.625 L74.4429,396.7578 L64.4429,406.7578 L10,406.7578 L10,389.625" fill="#EEEEEE" style="stroke:#000000;stroke-width:1.5;"/><rect fill="none" height="265" style="stroke:#000000;stroke-width:1.5;" width="1323.3462" x="10" y="389.625"/><text fill="#000000" font-family="sans-serif" font-size="13" font-weight="bold" lengthAdjust="spacing" textLength="19.4429" x="25" y="402.6919">alt</text><text fill="#000000" font-family="sans-serif" font-size="11" font-weight="bold" lengthAdjust="spacing" textLength="127.3003" x="89.4429" y="401.8354">[Both Airports Exist]</text><g class="message" data-entity-1="part3" data-entity-2="part5" id="msg11"><polygon fill="#181818" points="1063.5278,423.8906,1073.5278,427.8906,1063.5278,431.8906,1067.5278,427.8906" style="stroke:#181818;stroke-width:1;"/><line style="stroke:#181818;stroke-width:1;" x1="670.8496" x2="1069.5278" y1="427.8906" y2="427.8906"/><text fill="#000000" font-family="sans-serif" font-size="13" font-weight="bold" lengthAdjust="spacing" textLength="18.0908" x="677.8496" y="422.8247">11</text><text fill="#000000" font-family="sans-serif" font-size="13" lengthAdjust="spacing" textLength="105.7646" x="699.9404" y="422.8247">save(newRoute)</text></g><g class="message" data-entity-1="part5" data-entity-2="part6" id="msg12"><polygon fill="#181818" points="1274.9458,453.0234,1284.9458,457.0234,1274.9458,461.0234,1278.9458,457.0234" style="stroke:#181818;stroke-width:1;"/><line style="stroke:#181818;stroke-width:1;" x1="1085.5278" x2="1280.9458" y1="457.0234" y2="457.0234"/><text fill="#000000" font-family="sans-serif" font-size="13" font-weight="bold" lengthAdjust="spacing" textLength="18.0908" x="1092.5278" y="451.9575">12</text><text fill="#000000" font-family="sans-serif" font-size="13" lengthAdjust="spacing" textLength="148.3003" x="1114.6187" y="451.9575">INSERT INTO route (...)</text></g><g class="message" data-entity-1="part6" data-entity-2="part5" id="msg13"><polygon fill="#181818" points="1096.5278,482.1563,1086.5278,486.1563,1096.5278,490.1563,1092.5278,486.1563" style="stroke:#181818;stroke-width:1;"/><line style="stroke:#181818;stroke-width:1;stroke-dasharray:2,2;" x1="1090.5278" x2="1285.9458" y1="486.1563" y2="486.1563"/><text fill="#000000" font-family="sans-serif" font-size="13" font-weight="bold" lengthAdjust="spacing" textLength="18.0908" x="1102.5278" y="481.0903">13</text><text fill="#000000" font-family="sans-serif" font-size="13" lengthAdjust="spacing" textLength="50.8511" x="1124.6187" y="481.0903">success</text></g><g class="message" data-entity-1="part5" data-entity-2="part3" id="msg14"><polygon fill="#181818" points="681.8496,511.2891,671.8496,515.2891,681.8496,519.2891,677.8496,515.2891" style="stroke:#181818;stroke-width:1;"/><line style="stroke:#181818;stroke-width:1;stroke-dasharray:2,2;" x1="675.8496" x2="1079.5278" y1="515.2891" y2="515.2891"/><text fill="#000000" font-family="sans-serif" font-size="13" font-weight="bold" lengthAdjust="spacing" textLength="18.0908" x="687.8496" y="510.2231">14</text><text fill="#000000" font-family="sans-serif" font-size="13" lengthAdjust="spacing" textLength="38.3208" x="709.9404" y="510.2231">Route</text></g><g class="message" data-entity-1="part3" data-entity-2="part2" id="msg15"><polygon fill="#181818" points="405.9458,540.4219,395.9458,544.4219,405.9458,548.4219,401.9458,544.4219" style="stroke:#181818;stroke-width:1;"/><line style="stroke:#181818;stroke-width:1;stroke-dasharray:2,2;" x1="399.9458" x2="659.8496" y1="544.4219" y2="544.4219"/><text fill="#000000" font-family="sans-serif" font-size="13" font-weight="bold" lengthAdjust="spacing" textLength="18.0908" x="411.9458" y="539.356">15</text><text fill="#000000" font-family="sans-serif" font-size="13" lengthAdjust="spacing" textLength="38.3208" x="434.0366" y="539.356">Route</text></g><g class="message" data-entity-1="part2" data-entity-2="part1" id="msg16"><polygon fill="#181818" points="52.8398,569.5547,42.8398,573.5547,52.8398,577.5547,48.8398,573.5547" style="stroke:#181818;stroke-width:1;"/><line style="stroke:#181818;stroke-width:1;stroke-dasharray:2,2;" x1="46.8398" x2="383.9458" y1="573.5547" y2="573.5547"/><text fill="#000000" font-family="sans-serif" font-size="13" font-weight="bold" lengthAdjust="spacing" textLength="18.0908" x="58.8398" y="568.4888">16</text><text fill="#000000" font-family="sans-serif" font-size="13" lengthAdjust="spacing" textLength="80.6787" x="80.9307" y="568.4888">201 Created</text></g><line style="stroke:#000000;stroke-width:1;stroke-dasharray:2,2;" x1="10" x2="1333.3462" y1="582.5547" y2="582.5547"/><text fill="#000000" font-family="sans-serif" font-size="11" font-weight="bold" lengthAdjust="spacing" textLength="122.1655" x="15" y="592.7651">[Airport Not Found]</text><g class="message" data-entity-1="part3" data-entity-2="part2" id="msg17"><polygon fill="#181818" points="405.9458,613.4922,395.9458,617.4922,405.9458,621.4922,401.9458,617.4922" style="stroke:#181818;stroke-width:1;"/><line style="stroke:#181818;stroke-width:1;stroke-dasharray:2,2;" x1="399.9458" x2="659.8496" y1="617.4922" y2="617.4922"/><text fill="#000000" font-family="sans-serif" font-size="13" font-weight="bold" lengthAdjust="spacing" textLength="18.0908" x="411.9458" y="612.4263">17</text><text fill="#000000" font-family="sans-serif" font-size="13" lengthAdjust="spacing" textLength="219.813" x="434.0366" y="612.4263">throws AirportNotFoundException</text></g><g class="message" data-entity-1="part2" data-entity-2="part1" id="msg18"><polygon fill="#181818" points="52.8398,642.625,42.8398,646.625,52.8398,650.625,48.8398,646.625" style="stroke:#181818;stroke-width:1;"/><line style="stroke:#181818;stroke-width:1;stroke-dasharray:2,2;" x1="46.8398" x2="383.9458" y1="646.625" y2="646.625"/><text fill="#000000" font-family="sans-serif" font-size="13" font-weight="bold" lengthAdjust="spacing" textLength="18.0908" x="58.8398" y="641.5591">18</text><text fill="#000000" font-family="sans-serif" font-size="13" lengthAdjust="spacing" textLength="96.0146" x="80.9307" y="641.5591">404 Not Found</text></g><?plantuml-src pPDDRzim38Rl-XL4JWxG9ktGKu5rI1GN3R0rW-sWlIesjmfmBKEY-_7lHybsRBSvxDW0HYBcuKk-DAKQCbNpV40hL4x6mcoLIJa3vM3bpw9MbdIkQrKHp1BJ44fJaJLbYJPWacmvfQH5HHZOlKEf70PmBwVOIjlQM4gmDavpgVUsghO-SgBk1_0O4uKYTU0gCDjqlmAmMGiHFC3vJUWIhk7tBirWgMgzj3xTGMIi_gkhCoZGaQuKQSC7qizu1aZvOkx7eb_OJsjK124Mt4kMmpVCMIOAOhxu26UxWY56Eqk1ruxS-dtBg3G5-gVhO9JPZw3FOudDchFJ-6SiCuWVjscMHhV9xXUeTeRmS1SdCUGi1z_XnrmmVpwfJBR1vHzLEXnaUnS7OqfKbIZmKml_vs0qkozgGvK4QqDFq2sTWzWR4S2Vrk9ndLZ9gHUCAdmDiNc0ZfB3sldmaDMxszwdSPBnLxQ3i1OGBHQBLgIpCodLv3awzr6iznH2uS-HgsaBllrXmOU4Tb7zzC8Tk8Pl5vVGNir284-mdmNS6u9RqrJ52JrwikRLzIYJ0OpVSgpzwpvTwUhYQYIA_8nV2b-CqSad_mC0?></g></svg>