<?plantuml 1.2026.1?><svg xmlns="http://www.w3.org/2000/svg" xmlns:xlink="http://www.w3.org/1999/xlink" contentStyleType="text/css" data-diagram-type="SEQUENCE" height="619px" preserveAspectRatio="none" style="width:1980px;height:619px;background:#FFFFFF;" version="1.1" viewBox="0 0 1980 619" width="1980px" zoomAndPan="magnify"><defs/><g><g><title>MaintenanceController</title><rect fill="#FFFFFF" height="408.5313" style="stroke:#181818;stroke-width:1;" width="10" x="522.2979" y="112.4297"/></g><g><title>ViewAllMaintenanceRecordsUseCase</title><rect fill="#FFFFFF" height="358.2656" style="stroke:#181818;stroke-width:1;" width="10" x="878.7217" y="141.5625"/></g><g><title>AircraftRepository</title><rect fill="#FFFFFF" height="87.3984" style="stroke:#181818;stroke-width:1;" width="10" x="1230.9136" y="170.6953"/></g><g><title>MaintenanceRecordRepository</title><rect fill="#FFFFFF" height="87.3984" style="stroke:#181818;stroke-width:1;" width="10" x="1425.5249" y="368.2969"/></g><g><title>Database</title><rect fill="#FFFFFF" height="29.1328" style="stroke:#181818;stroke-width:1;" width="10" x="1922.0117" y="199.8281"/></g><g><title>Database</title><rect fill="#FFFFFF" height="29.1328" style="stroke:#181818;stroke-width:1;" width="10" x="1922.0117" y="397.4297"/></g><rect fill="none" height="219.7344" style="stroke:#000000;stroke-width:1.5;" width="1542.7803" x="430.6318" y="273.0938"/><g class="participant-lifeline" data-entity-uid="part1" data-qualified-name="MT" id="part1-lifeline"><g><title>Maintenance Technician</title><rect fill="#000000" fill-opacity="0.00000" height="457.6641" width="8" x="89.0732" y="81.2969"/><line style="stroke:#181818;stroke-width:0.5;stroke-dasharray:5,5;" x1="93" x2="93" y1="81.2969" y2="538.9609"/></g></g><g class="participant-lifeline" data-entity-uid="part2" data-qualified-name="Ctrl" id="part2-lifeline"><g><title>MaintenanceController</title><rect fill="#000000" fill-opacity="0.00000" height="457.6641" width="8" x="523.2979" y="81.2969"/><line style="stroke:#181818;stroke-width:0.5;stroke-dasharray:5,5;" x1="526.6318" x2="526.6318" y1="81.2969" y2="538.9609"/></g></g><g class="participant-lifeline" data-entity-uid="part3" data-qualified-name="UC" id="part3-lifeline"><g><title>ViewAllMaintenanceRecordsUseCase</title><rect fill="#000000" fill-opacity="0.00000" height="457.6641" width="8" x="879.7217" y="81.2969"/><line style="stroke:#181818;stroke-width:0.5;stroke-dasharray:5,5;" x1="883.7207" x2="883.7207" y1="81.2969" y2="538.9609"/></g></g><g class="participant-lifeline" data-entity-uid="part4" data-qualified-name="AircraftRepo" id="part4-lifeline"><g><title>AircraftRepository</title><rect fill="#000000" fill-opacity="0.00000" height="457.6641" width="8" x="1231.9136" y="81.2969"/><line style="stroke:#181818;stroke-width:0.5;stroke-dasharray:5,5;" x1="1235.541" x2="1235.541" y1="81.2969" y2="538.9609"/></g></g><g class="participant-lifeline" data-entity-uid="part5" data-qualified-name="Repo" id="part5-lifeline"><g><title>MaintenanceRecordRepository</title><rect fill="#000000" fill-opacity="0.00000" height="457.6641" width="8" x="1426.5249" y="81.2969"/><line style="stroke:#181818;stroke-width:0.5;stroke-dasharray:5,5;" x1="1430.2861" x2="1430.2861" y1="81.2969" y2="538.9609"/></g></g><g class="participant-lifeline" data-entity-uid="part6" data-qualified-name="DB" id="part6-lifeline"><g><title>Database</title><rect fill="#000000" fill-opacity="0.00000" height="457.6641" width="8" x="1923.0117" y="81.2969"/><line style="stroke:#181818;stroke-width:0.5;stroke-dasharray:5,5;" x1="1926.6113" x2="1926.6113" y1="81.2969" y2="538.9609"/></g></g><g class="participant participant-head" data-entity-uid="part1" data-qualified-name="MT" id="part1-head"><text fill="#000000" font-family="sans-serif" font-size="14" lengthAdjust="spacing" textLength="170.1465" x="5" y="77.9951">Maintenance Technician</text><ellipse cx="93.0732" cy="13.5" fill="#E2E2F0" rx="8" ry="8" style="stroke:#181818;stroke-width:0.5;"/><path d="M93.0732,21.5 L93.0732,48.5 M80.0732,29.5 L106.0732,29.5 M93.0732,48.5 L80.0732,63.5 M93.0732,48.5 L106.0732,63.5" fill="none" style="stroke:#181818;stroke-width:0.5;"/></g><g class="participant participant-tail" data-entity-uid="part1" data-qualified-name="MT" id="part1-tail"><text fill="#000000" font-family="sans-serif" font-size="14" lengthAdjust="spacing" textLength="170.1465" x="5" y="550.9561">Maintenance Technician</text><ellipse cx="93.0732" cy="562.7578" fill="#E2E2F0" rx="8" ry="8" style="stroke:#181818;stroke-width:0.5;"/><path d="M93.0732,570.7578 L93.0732,597.7578 M80.0732,578.7578 L106.0732,578.7578 M93.0732,597.7578 L80.0732,612.7578 M93.0732,597.7578 L106.0732,612.7578" fill="none" style="stroke:#181818;stroke-width:0.5;"/></g><g class="participant participant-head" data-entity-uid="part2" data-qualified-name="Ctrl" id="part2-head"><rect fill="#E2E2F0" height="30.2969" rx="2.5" ry="2.5" style="stroke:#181818;stroke-width:0.5;" width="173.332" x="440.6318" y="50"/><text fill="#000000" font-family="sans-serif" font-size="14" lengthAdjust="spacing" textLength="159.332" x="447.6318" y="69.9951">MaintenanceController</text></g><g class="participant participant-tail" data-entity-uid="part2" data-qualified-name="Ctrl" id="part2-tail"><rect fill="#E2E2F0" height="30.2969" rx="2.5" ry="2.5" style="stroke:#181818;stroke-width:0.5;" width="173.332" x="440.6318" y="537.9609"/><text fill="#000000" font-family="sans-serif" font-size="14" lengthAdjust="spacing" textLength="159.332" x="447.6318" y="557.9561">MaintenanceController</text></g><g class="participant participant-head" data-entity-uid="part3" data-qualified-name="UC" id="part3-head"><rect fill="#E2E2F0" height="30.2969" rx="2.5" ry="2.5" style="stroke:#181818;stroke-width:0.5;" width="272.002" x="747.7207" y="50"/><text fill="#000000" font-family="sans-serif" font-size="14" lengthAdjust="spacing" textLength="258.002" x="754.7207" y="69.9951">ViewAllMaintenanceRecordsUseCase</text></g><g class="participant participant-tail" data-entity-uid="part3" data-qualified-name="UC" id="part3-tail"><rect fill="#E2E2F0" height="30.2969" rx="2.5" ry="2.5" style="stroke:#181818;stroke-width:0.5;" width="272.002" x="747.7207" y="537.9609"/><text fill="#000000" font-family="sans-serif" font-size="14" lengthAdjust="spacing" textLength="258.002" x="754.7207" y="557.9561">ViewAllMaintenanceRecordsUseCase</text></g><g class="participant participant-head" data-entity-uid="part4" data-qualified-name="AircraftRepo" id="part4-head"><rect fill="#E2E2F0" height="30.2969" rx="2.5" ry="2.5" style="stroke:#181818;stroke-width:0.5;" width="140.7451" x="1165.541" y="50"/><text fill="#000000" font-family="sans-serif" font-size="14" lengthAdjust="spacing" textLength="126.7451" x="1172.541" y="69.9951">AircraftRepository</text></g><g class="participant participant-tail" data-entity-uid="part4" data-qualified-name="AircraftRepo" id="part4-tail"><rect fill="#E2E2F0" height="30.2969" rx="2.5" ry="2.5" style="stroke:#181818;stroke-width:0.5;" width="140.7451" x="1165.541" y="537.9609"/><text fill="#000000" font-family="sans-serif" font-size="14" lengthAdjust="spacing" textLength="126.7451" x="1172.541" y="557.9561">AircraftRepository</text></g><g class="participant participant-head" data-entity-uid="part5" data-qualified-name="Repo" id="part5-head"><rect fill="#E2E2F0" height="30.2969" rx="2.5" ry="2.5" style="stroke:#181818;stroke-width:0.5;" width="228.4775" x="1316.2861" y="50"/><text fill="#000000" font-family="sans-serif" font-size="14" lengthAdjust="spacing" textLength="214.4775" x="1323.2861" y="69.9951">MaintenanceRecordRepository</text></g><g class="participant participant-tail" data-entity-uid="part5" data-qualified-name="Repo" id="part5-tail"><rect fill="#E2E2F0" height="30.2969" rx="2.5" ry="2.5" style="stroke:#181818;stroke-width:0.5;" width="228.4775" x="1316.2861" y="537.9609"/><text fill="#000000" font-family="sans-serif" font-size="14" lengthAdjust="spacing" textLength="214.4775" x="1323.2861" y="557.9561">MaintenanceRecordRepository</text></g><g class="participant participant-head" data-entity-uid="part6" data-qualified-name="DB" id="part6-head"><text fill="#000000" font-family="sans-serif" font-size="14" lengthAdjust="spacing" textLength="66.8008" x="1890.6113" y="77.9951">Database</text><path d="M1909.0117,29 C1909.0117,19 1927.0117,19 1927.0117,19 C1927.0117,19 1945.0117,19 1945.0117,29 L1945.0117,55 C1945.0117,65 1927.0117,65 1927.0117,65 C1927.0117,65 1909.0117,65 1909.0117,55 L1909.0117,29" fill="#E2E2F0" style="stroke:#181818;stroke-width:0.5;"/><path d="M1909.0117,29 C1909.0117,39 1927.0117,39 1927.0117,39 C1927.0117,39 1945.0117,39 1945.0117,29" fill="none" style="stroke:#181818;stroke-width:0.5;"/></g><g class="participant participant-tail" data-entity-uid="part6" data-qualified-name="DB" id="part6-tail"><text fill="#000000" font-family="sans-serif" font-size="14" lengthAdjust="spacing" textLength="66.8008" x="1890.6113" y="550.9561">Database</text><path d="M1909.0117,564.2578 C1909.0117,554.2578 1927.0117,554.2578 1927.0117,554.2578 C1927.0117,554.2578 1945.0117,554.2578 1945.0117,564.2578 L1945.0117,590.2578 C1945.0117,600.2578 1927.0117,600.2578 1927.0117,600.2578 C1927.0117,600.2578 1909.0117,600.2578 1909.0117,590.2578 L1909.0117,564.2578" fill="#E2E2F0" style="stroke:#181818;stroke-width:0.5;"/><path d="M1909.0117,564.2578 C1909.0117,574.2578 1927.0117,574.2578 1927.0117,574.2578 C1927.0117,574.2578 1945.0117,574.2578 1945.0117,564.2578" fill="none" style="stroke:#181818;stroke-width:0.5;"/></g><g><title>MaintenanceController</title><rect fill="#FFFFFF" height="408.5313" style="stroke:#181818;stroke-width:1;" width="10" x="522.2979" y="112.4297"/></g><g><title>ViewAllMaintenanceRecordsUseCase</title><rect fill="#FFFFFF" height="358.2656" style="stroke:#181818;stroke-width:1;" width="10" x="878.7217" y="141.5625"/></g><g><title>AircraftRepository</title><rect fill="#FFFFFF" height="87.3984" style="stroke:#181818;stroke-width:1;" width="10" x="1230.9136" y="170.6953"/></g><g><title>MaintenanceRecordRepository</title><rect fill="#FFFFFF" height="87.3984" style="stroke:#181818;stroke-width:1;" width="10" x="1425.5249" y="368.2969"/></g><g><title>Database</title><rect fill="#FFFFFF" height="29.1328" style="stroke:#181818;stroke-width:1;" width="10" x="1922.0117" y="199.8281"/></g><g><title>Database</title><rect fill="#FFFFFF" height="29.1328" style="stroke:#181818;stroke-width:1;" width="10" x="1922.0117" y="397.4297"/></g><g class="message" data-entity-1="part1" data-entity-2="part2" id="msg1"><polygon fill="#181818" points="510.2979,108.4297,520.2979,112.4297,510.2979,116.4297,514.2979,112.4297" style="stroke:#181818;stroke-width:1;"/><line style="stroke:#181818;stroke-width:1;" x1="93.0732" x2="516.2979" y1="112.4297" y2="112.4297"/><text fill="#000000" font-family="sans-serif" font-size="13" font-weight="bold" lengthAdjust="spacing" textLength="9.0454" x="100.0732" y="107.3638">1</text><text fill="#000000" font-family="sans-serif" font-size="13" lengthAdjust="spacing" textLength="397.1792" x="113.1187" y="107.3638">GET /api/maintenance/records/aircraft/{registrationNumber}</text></g><g class="message" data-entity-1="part2" data-entity-2="part3" id="msg2"><polygon fill="#181818" points="866.7217,137.5625,876.7217,141.5625,866.7217,145.5625,870.7217,141.5625" style="stroke:#181818;stroke-width:1;"/><line style="stroke:#181818;stroke-width:1;" x1="532.2979" x2="872.7217" y1="141.5625" y2="141.5625"/><text fill="#000000" font-family="sans-serif" font-size="13" font-weight="bold" lengthAdjust="spacing" textLength="9.0454" x="539.2979" y="136.4966">2</text><text fill="#000000" font-family="sans-serif" font-size="13" lengthAdjust="spacing" textLength="258.3877" x="552.3433" y="136.4966">execute(registrationNumber, pageable)</text></g><g class="message" data-entity-1="part3" data-entity-2="part4" id="msg3"><polygon fill="#181818" points="1218.9136,166.6953,1228.9136,170.6953,1218.9136,174.6953,1222.9136,170.6953" style="stroke:#181818;stroke-width:1;"/><line style="stroke:#181818;stroke-width:1;" x1="888.7217" x2="1224.9136" y1="170.6953" y2="170.6953"/><text fill="#000000" font-family="sans-serif" font-size="13" font-weight="bold" lengthAdjust="spacing" textLength="9.0454" x="895.7217" y="165.6294">3</text><text fill="#000000" font-family="sans-serif" font-size="13" lengthAdjust="spacing" textLength="310.1465" x="908.7671" y="165.6294">findByRegistrationNumber(registrationNumber)</text></g><g class="message" data-entity-1="part4" data-entity-2="part6" id="msg4"><polygon fill="#181818" points="1910.0117,195.8281,1920.0117,199.8281,1910.0117,203.8281,1914.0117,199.8281" style="stroke:#181818;stroke-width:1;"/><line style="stroke:#181818;stroke-width:1;" x1="1240.9136" x2="1916.0117" y1="199.8281" y2="199.8281"/><text fill="#000000" font-family="sans-serif" font-size="13" font-weight="bold" lengthAdjust="spacing" textLength="9.0454" x="1247.9136" y="194.7622">4</text><text fill="#000000" font-family="sans-serif" font-size="13" lengthAdjust="spacing" textLength="367.7896" x="1260.959" y="194.7622">SELECT * FROM aircraft WHERE registration_number = ?</text></g><g class="message" data-entity-1="part6" data-entity-2="part4" id="msg5"><polygon fill="#181818" points="1251.9136,224.9609,1241.9136,228.9609,1251.9136,232.9609,1247.9136,228.9609" style="stroke:#181818;stroke-width:1;"/><line style="stroke:#181818;stroke-width:1;stroke-dasharray:2,2;" x1="1245.9136" x2="1926.0117" y1="228.9609" y2="228.9609"/><text fill="#000000" font-family="sans-serif" font-size="13" font-weight="bold" lengthAdjust="spacing" textLength="9.0454" x="1257.9136" y="223.895">5</text><text fill="#000000" font-family="sans-serif" font-size="13" lengthAdjust="spacing" textLength="93.228" x="1270.959" y="223.895">aircraft record</text></g><g class="message" data-entity-1="part4" data-entity-2="part3" id="msg6"><polygon fill="#181818" points="899.7217,254.0938,889.7217,258.0938,899.7217,262.0938,895.7217,258.0938" style="stroke:#181818;stroke-width:1;"/><line style="stroke:#181818;stroke-width:1;stroke-dasharray:2,2;" x1="893.7217" x2="1234.9136" y1="258.0938" y2="258.0938"/><text fill="#000000" font-family="sans-serif" font-size="13" font-weight="bold" lengthAdjust="spacing" textLength="9.0454" x="905.7217" y="253.0278">6</text><text fill="#000000" font-family="sans-serif" font-size="13" lengthAdjust="spacing" textLength="124.7314" x="918.7671" y="253.0278">Optional&lt;Aircraft&gt;</text></g><path d="M430.6318,273.0938 L495.0747,273.0938 L495.0747,280.2266 L485.0747,290.2266 L430.6318,290.2266 L430.6318,273.0938" fill="#EEEEEE" style="stroke:#000000;stroke-width:1.5;"/><rect fill="none" height="219.7344" style="stroke:#000000;stroke-width:1.5;" width="1542.7803" x="430.6318" y="273.0938"/><text fill="#000000" font-family="sans-serif" font-size="13" font-weight="bold" lengthAdjust="spacing" textLength="19.4429" x="445.6318" y="286.1606">alt</text><text fill="#000000" font-family="sans-serif" font-size="11" font-weight="bold" lengthAdjust="spacing" textLength="120.2695" x="510.0747" y="285.3042">[aircraft not found]</text><g class="message" data-entity-1="part3" data-entity-2="part3" id="msg7"><line style="stroke:#181818;stroke-width:1;" x1="888.7217" x2="930.7217" y1="311.3594" y2="311.3594"/><line style="stroke:#181818;stroke-width:1;" x1="930.7217" x2="930.7217" y1="311.3594" y2="324.3594"/><line style="stroke:#181818;stroke-width:1;" x1="889.7217" x2="930.7217" y1="324.3594" y2="324.3594"/><polygon fill="#181818" points="899.7217,320.3594,889.7217,324.3594,899.7217,328.3594,895.7217,324.3594" style="stroke:#181818;stroke-width:1;"/><text fill="#000000" font-family="sans-serif" font-size="13" font-weight="bold" lengthAdjust="spacing" textLength="9.0454" x="895.7217" y="306.2935">7</text><text fill="#000000" font-family="sans-serif" font-size="13" lengthAdjust="spacing" textLength="216.5249" x="908.7671" y="306.2935">throw AircraftNotFoundException</text></g><line style="stroke:#000000;stroke-width:1;stroke-dasharray:2,2;" x1="430.6318" x2="1973.4121" y1="333.3594" y2="333.3594"/><text fill="#000000" font-family="sans-serif" font-size="11" font-weight="bold" lengthAdjust="spacing" textLength="96.5938" x="435.6318" y="343.5698">[aircraft exists]</text><g class="message" data-entity-1="part3" data-entity-2="part5" id="msg8"><polygon fill="#181818" points="1413.5249,364.2969,1423.5249,368.2969,1413.5249,372.2969,1417.5249,368.2969" style="stroke:#181818;stroke-width:1;"/><line style="stroke:#181818;stroke-width:1;" x1="888.7217" x2="1419.5249" y1="368.2969" y2="368.2969"/><text fill="#000000" font-family="sans-serif" font-size="13" font-weight="bold" lengthAdjust="spacing" textLength="9.0454" x="895.7217" y="363.231">8</text><text fill="#000000" font-family="sans-serif" font-size="13" lengthAdjust="spacing" textLength="426.6895" x="908.7671" y="363.231">findByAircraftRegistrationNumber(registrationNumber, pageable)</text></g><g class="message" data-entity-1="part5" data-entity-2="part6" id="msg9"><polygon fill="#181818" points="1910.0117,393.4297,1920.0117,397.4297,1910.0117,401.4297,1914.0117,397.4297" style="stroke:#181818;stroke-width:1;"/><line style="stroke:#181818;stroke-width:1;" x1="1435.5249" x2="1916.0117" y1="397.4297" y2="397.4297"/><text fill="#000000" font-family="sans-serif" font-size="13" font-weight="bold" lengthAdjust="spacing" textLength="9.0454" x="1442.5249" y="392.3638">9</text><text fill="#000000" font-family="sans-serif" font-size="13" lengthAdjust="spacing" textLength="454.4414" x="1455.5703" y="392.3638">SELECT * FROM maintenance_record WHERE registration_number = ?</text></g><g class="message" data-entity-1="part6" data-entity-2="part5" id="msg10"><polygon fill="#181818" points="1446.5249,422.5625,1436.5249,426.5625,1446.5249,430.5625,1442.5249,426.5625" style="stroke:#181818;stroke-width:1;"/><line style="stroke:#181818;stroke-width:1;stroke-dasharray:2,2;" x1="1440.5249" x2="1926.0117" y1="426.5625" y2="426.5625"/><text fill="#000000" font-family="sans-serif" font-size="13" font-weight="bold" lengthAdjust="spacing" textLength="18.0908" x="1452.5249" y="421.4966">10</text><text fill="#000000" font-family="sans-serif" font-size="13" lengthAdjust="spacing" textLength="102.0767" x="1474.6157" y="421.4966">page of records</text></g><g class="message" data-entity-1="part5" data-entity-2="part3" id="msg11"><polygon fill="#181818" points="899.7217,451.6953,889.7217,455.6953,899.7217,459.6953,895.7217,455.6953" style="stroke:#181818;stroke-width:1;"/><line style="stroke:#181818;stroke-width:1;stroke-dasharray:2,2;" x1="893.7217" x2="1429.5249" y1="455.6953" y2="455.6953"/><text fill="#000000" font-family="sans-serif" font-size="13" font-weight="bold" lengthAdjust="spacing" textLength="18.0908" x="905.7217" y="450.6294">11</text><text fill="#000000" font-family="sans-serif" font-size="13" lengthAdjust="spacing" textLength="183.2886" x="927.8125" y="450.6294">Page&lt;MaintenanceRecord&gt;</text></g><g class="message" data-entity-1="part3" data-entity-2="part2" id="msg12"><polygon fill="#181818" points="543.2979,480.8281,533.2979,484.8281,543.2979,488.8281,539.2979,484.8281" style="stroke:#181818;stroke-width:1;"/><line style="stroke:#181818;stroke-width:1;stroke-dasharray:2,2;" x1="537.2979" x2="877.7217" y1="484.8281" y2="484.8281"/><text fill="#000000" font-family="sans-serif" font-size="13" font-weight="bold" lengthAdjust="spacing" textLength="18.0908" x="549.2979" y="479.7622">12</text><text fill="#000000" font-family="sans-serif" font-size="13" lengthAdjust="spacing" textLength="300.333" x="571.3887" y="479.7622">Page&lt;ViewAllMaintenanceRecordsResponse&gt;</text></g><g class="message" data-entity-1="part2" data-entity-2="part1" id="msg13"><polygon fill="#181818" points="104.0732,516.9609,94.0732,520.9609,104.0732,524.9609,100.0732,520.9609" style="stroke:#181818;stroke-width:1;"/><line style="stroke:#181818;stroke-width:1;stroke-dasharray:2,2;" x1="98.0732" x2="526.2979" y1="520.9609" y2="520.9609"/><text fill="#000000" font-family="sans-serif" font-size="13" font-weight="bold" lengthAdjust="spacing" textLength="18.0908" x="110.0732" y="515.895">13</text><text fill="#000000" font-family="sans-serif" font-size="13" lengthAdjust="spacing" textLength="213.6431" x="132.1641" y="515.895">200 OK (paged HATEOAS model)</text></g><?plantuml-src ZPJ1Rjim38RlVWeYftPOaMB7eakHEEuAR6a6rzcE1MCphG15CcHbJJ7itKV9ZYqrRJUVOfd_H_8d5TnPhNRRDPa4IwiDZ1Oeb2M5gYGeg7nKeXIeHe0DB8gaHcFve4Pbez1KAskqb6HyP6gDZ6D_27gQIXb8SYgrgPfLGoasv6MhD1PDXIaDRcnEjMu4b_VimyBZDojgyI-KNb6XnJMdXD6y--M_pMV9ee2pYIyUBk1BLi0OQp7U3j2nQOiUOrV2-BUX1z5OWrPeTUkT_EEi5B_GKkk3vp5tbJALzbJkB9qSopv2ZG-4Qqcd0u0TOHcBmvuPin6gcZtdHv1Nk04jCYuYSeRvZBbtsRSiBU03NEVB1HowX9ytMPv1oBvljmO-mzN0PmkPSdPSRWzg_Kig2ZLn9GUdbhNBW_Boy7aIog9MKDeXXT8MDdgdgWJuQTtpGFjez5CllDNssaLb-v9yfeGaxqIFeJttsWICoFaX_NzC89oiu_LD-EBToJip2BRlldNl7zE8Ch2xxhsRIjU2gmRqfXj6ssCyaQ6cWtdVMNDvTBqcBxLzHywpuIvvzPj_0JarjLODJH9IqMxmzhUNXqbyDo_Wq_avBB_2YUkWWfjfaIsdTx3L5SdJKEXKVm40?></g></svg>