<?plantuml 1.2026.1?><svg xmlns="http://www.w3.org/2000/svg" xmlns:xlink="http://www.w3.org/1999/xlink" contentStyleType="text/css" data-diagram-type="SEQUENCE" height="855px" preserveAspectRatio="none" style="width:1790px;height:855px;background:#FFFFFF;" version="1.1" viewBox="0 0 1790 855" width="1790px" zoomAndPan="magnify"><defs/><g><g><title>MaintenanceController</title><rect fill="#FFFFFF" height="644.2656" style="stroke:#181818;stroke-width:1;" width="10" x="393.4277" y="112.4297"/></g><g><title>CreateMaintenanceTemplateUseCase</title><rect fill="#FFFFFF" height="586" style="stroke:#181818;stroke-width:1;" width="10" x="628.9248" y="141.5625"/></g><g><title>AircraftModelRepository</title><rect fill="#FFFFFF" height="87.3984" style="stroke:#181818;stroke-width:1;" width="10" x="1023.79" y="194.8281"/></g><g><title>MaintenanceTemplateRepository</title><rect fill="#FFFFFF" height="87.3984" style="stroke:#181818;stroke-width:1;" width="10" x="1247.9258" y="399.4297"/></g><g><title>MaintenanceTemplateRepository</title><rect fill="#FFFFFF" height="87.3984" style="stroke:#181818;stroke-width:1;" width="10" x="1247.9258" y="597.0313"/></g><g><title>Database</title><rect fill="#FFFFFF" height="29.1328" style="stroke:#181818;stroke-width:1;" width="10" x="1722.0308" y="223.9609"/></g><g><title>Database</title><rect fill="#FFFFFF" height="29.1328" style="stroke:#181818;stroke-width:1;" width="10" x="1722.0308" y="428.5625"/></g><g><title>Database</title><rect fill="#FFFFFF" height="29.1328" style="stroke:#181818;stroke-width:1;" width="10" x="1722.0308" y="626.1641"/></g><rect fill="none" height="133.6641" style="stroke:#000000;stroke-width:1.5;" width="1288.3374" x="485.0938" y="156.5625"/><rect fill="none" height="395.2031" style="stroke:#000000;stroke-width:1.5;" width="1308.3374" x="475.0938" y="304.2266"/><rect fill="none" height="190.6016" style="stroke:#000000;stroke-width:1.5;" width="1288.3374" x="485.0938" y="501.8281"/><g class="participant-lifeline" data-entity-uid="part1" data-qualified-name="MT" id="part1-lifeline"><g><title>Maintenance Technician</title><rect fill="#000000" fill-opacity="0.00000" height="693.3984" width="8" x="89.0732" y="81.2969"/><line style="stroke:#181818;stroke-width:0.5;stroke-dasharray:5,5;" x1="93" x2="93" y1="81.2969" y2="774.6953"/></g></g><g class="participant-lifeline" data-entity-uid="part2" data-qualified-name="Ctrl" id="part2-lifeline"><g><title>MaintenanceController</title><rect fill="#000000" fill-opacity="0.00000" height="693.3984" width="8" x="394.4277" y="81.2969"/><line style="stroke:#181818;stroke-width:0.5;stroke-dasharray:5,5;" x1="397.7617" x2="397.7617" y1="81.2969" y2="774.6953"/></g></g><g class="participant-lifeline" data-entity-uid="part3" data-qualified-name="UC" id="part3-lifeline"><g><title>CreateMaintenanceTemplateUseCase</title><rect fill="#000000" fill-opacity="0.00000" height="693.3984" width="8" x="629.9248" y="81.2969"/><line style="stroke:#181818;stroke-width:0.5;stroke-dasharray:5,5;" x1="633.0938" x2="633.0938" y1="81.2969" y2="774.6953"/></g></g><g class="participant-lifeline" data-entity-uid="part4" data-qualified-name="ModelRepo" id="part4-lifeline"><g><title>AircraftModelRepository</title><rect fill="#000000" fill-opacity="0.00000" height="693.3984" width="8" x="1024.79" y="81.2969"/><line style="stroke:#181818;stroke-width:0.5;stroke-dasharray:5,5;" x1="1028.4004" x2="1028.4004" y1="81.2969" y2="774.6953"/></g></g><g class="participant-lifeline" data-entity-uid="part5" data-qualified-name="Repo" id="part5-lifeline"><g><title>MaintenanceTemplateRepository</title><rect fill="#000000" fill-opacity="0.00000" height="693.3984" width="8" x="1248.9258" y="81.2969"/><line style="stroke:#181818;stroke-width:0.5;stroke-dasharray:5,5;" x1="1252.1797" x2="1252.1797" y1="81.2969" y2="774.6953"/></g></g><g class="participant-lifeline" data-entity-uid="part6" data-qualified-name="DB" id="part6-lifeline"><g><title>Database</title><rect fill="#000000" fill-opacity="0.00000" height="693.3984" width="8" x="1723.0308" y="81.2969"/><line style="stroke:#181818;stroke-width:0.5;stroke-dasharray:5,5;" x1="1726.6304" x2="1726.6304" y1="81.2969" y2="774.6953"/></g></g><g class="participant participant-head" data-entity-uid="part1" data-qualified-name="MT" id="part1-head"><text fill="#000000" font-family="sans-serif" font-size="14" lengthAdjust="spacing" textLength="170.1465" x="5" y="77.9951">Maintenance Technician</text><ellipse cx="93.0732" cy="13.5" fill="#E2E2F0" rx="8" ry="8" style="stroke:#181818;stroke-width:0.5;"/><path d="M93.0732,21.5 L93.0732,48.5 M80.0732,29.5 L106.0732,29.5 M93.0732,48.5 L80.0732,63.5 M93.0732,48.5 L106.0732,63.5" fill="none" style="stroke:#181818;stroke-width:0.5;"/></g><g class="participant participant-tail" data-entity-uid="part1" data-qualified-name="MT" id="part1-tail"><text fill="#000000" font-family="sans-serif" font-size="14" lengthAdjust="spacing" textLength="170.1465" x="5" y="786.6904">Maintenance Technician</text><ellipse cx="93.0732" cy="798.4922" fill="#E2E2F0" rx="8" ry="8" style="stroke:#181818;stroke-width:0.5;"/><path d="M93.0732,806.4922 L93.0732,833.4922 M80.0732,814.4922 L106.0732,814.4922 M93.0732,833.4922 L80.0732,848.4922 M93.0732,833.4922 L106.0732,848.4922" fill="none" style="stroke:#181818;stroke-width:0.5;"/></g><g class="participant participant-head" data-entity-uid="part2" data-qualified-name="Ctrl" id="part2-head"><rect fill="#E2E2F0" height="30.2969" rx="2.5" ry="2.5" style="stroke:#181818;stroke-width:0.5;" width="173.332" x="311.7617" y="50"/><text fill="#000000" font-family="sans-serif" font-size="14" lengthAdjust="spacing" textLength="159.332" x="318.7617" y="69.9951">MaintenanceController</text></g><g class="participant participant-tail" data-entity-uid="part2" data-qualified-name="Ctrl" id="part2-tail"><rect fill="#E2E2F0" height="30.2969" rx="2.5" ry="2.5" style="stroke:#181818;stroke-width:0.5;" width="173.332" x="311.7617" y="773.6953"/><text fill="#000000" font-family="sans-serif" font-size="14" lengthAdjust="spacing" textLength="159.332" x="318.7617" y="793.6904">MaintenanceController</text></g><g class="participant participant-head" data-entity-uid="part3" data-qualified-name="UC" id="part3-head"><rect fill="#E2E2F0" height="30.2969" rx="2.5" ry="2.5" style="stroke:#181818;stroke-width:0.5;" width="277.6621" x="495.0938" y="50"/><text fill="#000000" font-family="sans-serif" font-size="14" lengthAdjust="spacing" textLength="263.6621" x="502.0938" y="69.9951">CreateMaintenanceTemplateUseCase</text></g><g class="participant participant-tail" data-entity-uid="part3" data-qualified-name="UC" id="part3-tail"><rect fill="#E2E2F0" height="30.2969" rx="2.5" ry="2.5" style="stroke:#181818;stroke-width:0.5;" width="277.6621" x="495.0938" y="773.6953"/><text fill="#000000" font-family="sans-serif" font-size="14" lengthAdjust="spacing" textLength="263.6621" x="502.0938" y="793.6904">CreateMaintenanceTemplateUseCase</text></g><g class="participant participant-head" data-entity-uid="part4" data-qualified-name="ModelRepo" id="part4-head"><rect fill="#E2E2F0" height="30.2969" rx="2.5" ry="2.5" style="stroke:#181818;stroke-width:0.5;" width="182.7793" x="937.4004" y="50"/><text fill="#000000" font-family="sans-serif" font-size="14" lengthAdjust="spacing" textLength="168.7793" x="944.4004" y="69.9951">AircraftModelRepository</text></g><g class="participant participant-tail" data-entity-uid="part4" data-qualified-name="ModelRepo" id="part4-tail"><rect fill="#E2E2F0" height="30.2969" rx="2.5" ry="2.5" style="stroke:#181818;stroke-width:0.5;" width="182.7793" x="937.4004" y="773.6953"/><text fill="#000000" font-family="sans-serif" font-size="14" lengthAdjust="spacing" textLength="168.7793" x="944.4004" y="793.6904">AircraftModelRepository</text></g><g class="participant participant-head" data-entity-uid="part5" data-qualified-name="Repo" id="part5-head"><rect fill="#E2E2F0" height="30.2969" rx="2.5" ry="2.5" style="stroke:#181818;stroke-width:0.5;" width="245.4922" x="1130.1797" y="50"/><text fill="#000000" font-family="sans-serif" font-size="14" lengthAdjust="spacing" textLength="231.4922" x="1137.1797" y="69.9951">MaintenanceTemplateRepository</text></g><g class="participant participant-tail" data-entity-uid="part5" data-qualified-name="Repo" id="part5-tail"><rect fill="#E2E2F0" height="30.2969" rx="2.5" ry="2.5" style="stroke:#181818;stroke-width:0.5;" width="245.4922" x="1130.1797" y="773.6953"/><text fill="#000000" font-family="sans-serif" font-size="14" lengthAdjust="spacing" textLength="231.4922" x="1137.1797" y="793.6904">MaintenanceTemplateRepository</text></g><g class="participant participant-head" data-entity-uid="part6" data-qualified-name="DB" id="part6-head"><text fill="#000000" font-family="sans-serif" font-size="14" lengthAdjust="spacing" textLength="66.8008" x="1690.6304" y="77.9951">Database</text><path d="M1709.0308,29 C1709.0308,19 1727.0308,19 1727.0308,19 C1727.0308,19 1745.0308,19 1745.0308,29 L1745.0308,55 C1745.0308,65 1727.0308,65 1727.0308,65 C1727.0308,65 1709.0308,65 1709.0308,55 L1709.0308,29" fill="#E2E2F0" style="stroke:#181818;stroke-width:0.5;"/><path d="M1709.0308,29 C1709.0308,39 1727.0308,39 1727.0308,39 C1727.0308,39 1745.0308,39 1745.0308,29" fill="none" style="stroke:#181818;stroke-width:0.5;"/></g><g class="participant participant-tail" data-entity-uid="part6" data-qualified-name="DB" id="part6-tail"><text fill="#000000" font-family="sans-serif" font-size="14" lengthAdjust="spacing" textLength="66.8008" x="1690.6304" y="786.6904">Database</text><path d="M1709.0308,799.9922 C1709.0308,789.9922 1727.0308,789.9922 1727.0308,789.9922 C1727.0308,789.9922 1745.0308,789.9922 1745.0308,799.9922 L1745.0308,825.9922 C1745.0308,835.9922 1727.0308,835.9922 1727.0308,835.9922 C1727.0308,835.9922 1709.0308,835.9922 1709.0308,825.9922 L1709.0308,799.9922" fill="#E2E2F0" style="stroke:#181818;stroke-width:0.5;"/><path d="M1709.0308,799.9922 C1709.0308,809.9922 1727.0308,809.9922 1727.0308,809.9922 C1727.0308,809.9922 1745.0308,809.9922 1745.0308,799.9922" fill="none" style="stroke:#181818;stroke-width:0.5;"/></g><g><title>MaintenanceController</title><rect fill="#FFFFFF" height="644.2656" style="stroke:#181818;stroke-width:1;" width="10" x="393.4277" y="112.4297"/></g><g><title>CreateMaintenanceTemplateUseCase</title><rect fill="#FFFFFF" height="586" style="stroke:#181818;stroke-width:1;" width="10" x="628.9248" y="141.5625"/></g><g><title>AircraftModelRepository</title><rect fill="#FFFFFF" height="87.3984" style="stroke:#181818;stroke-width:1;" width="10" x="1023.79" y="194.8281"/></g><g><title>MaintenanceTemplateRepository</title><rect fill="#FFFFFF" height="87.3984" style="stroke:#181818;stroke-width:1;" width="10" x="1247.9258" y="399.4297"/></g><g><title>MaintenanceTemplateRepository</title><rect fill="#FFFFFF" height="87.3984" style="stroke:#181818;stroke-width:1;" width="10" x="1247.9258" y="597.0313"/></g><g><title>Database</title><rect fill="#FFFFFF" height="29.1328" style="stroke:#181818;stroke-width:1;" width="10" x="1722.0308" y="223.9609"/></g><g><title>Database</title><rect fill="#FFFFFF" height="29.1328" style="stroke:#181818;stroke-width:1;" width="10" x="1722.0308" y="428.5625"/></g><g><title>Database</title><rect fill="#FFFFFF" height="29.1328" style="stroke:#181818;stroke-width:1;" width="10" x="1722.0308" y="626.1641"/></g><g class="message" data-entity-1="part1" data-entity-2="part2" id="msg1"><polygon fill="#181818" points="381.4277,108.4297,391.4277,112.4297,381.4277,116.4297,385.4277,112.4297" style="stroke:#181818;stroke-width:1;"/><line style="stroke:#181818;stroke-width:1;" x1="93.0732" x2="387.4277" y1="112.4297" y2="112.4297"/><text fill="#000000" font-family="sans-serif" font-size="13" font-weight="bold" lengthAdjust="spacing" textLength="9.0454" x="100.0732" y="107.3638">1</text><text fill="#000000" font-family="sans-serif" font-size="13" lengthAdjust="spacing" textLength="268.3091" x="113.1187" y="107.3638">POST /api/maintenance/templates (JSON)</text></g><g class="message" data-entity-1="part2" data-entity-2="part3" id="msg2"><polygon fill="#181818" points="616.9248,137.5625,626.9248,141.5625,616.9248,145.5625,620.9248,141.5625" style="stroke:#181818;stroke-width:1;"/><line style="stroke:#181818;stroke-width:1;" x1="403.4277" x2="622.9248" y1="141.5625" y2="141.5625"/><text fill="#000000" font-family="sans-serif" font-size="13" font-weight="bold" lengthAdjust="spacing" textLength="9.0454" x="410.4277" y="136.4966">2</text><text fill="#000000" font-family="sans-serif" font-size="13" lengthAdjust="spacing" textLength="112.0171" x="423.4731" y="136.4966">execute(request)</text></g><path d="M485.0938,156.5625 L561.7178,156.5625 L561.7178,163.6953 L551.7178,173.6953 L485.0938,173.6953 L485.0938,156.5625" fill="#EEEEEE" style="stroke:#000000;stroke-width:1.5;"/><rect fill="none" height="133.6641" style="stroke:#000000;stroke-width:1.5;" width="1288.3374" x="485.0938" y="156.5625"/><text fill="#000000" font-family="sans-serif" font-size="13" font-weight="bold" lengthAdjust="spacing" textLength="31.624" x="500.0938" y="169.6294">loop</text><text fill="#000000" font-family="sans-serif" font-size="11" font-weight="bold" lengthAdjust="spacing" textLength="140.8462" x="576.7178" y="168.7729">[for each model name]</text><g class="message" data-entity-1="part3" data-entity-2="part4" id="msg3"><polygon fill="#181818" points="1011.79,190.8281,1021.79,194.8281,1011.79,198.8281,1015.79,194.8281" style="stroke:#181818;stroke-width:1;"/><line style="stroke:#181818;stroke-width:1;" x1="638.9248" x2="1017.79" y1="194.8281" y2="194.8281"/><text fill="#000000" font-family="sans-serif" font-size="13" font-weight="bold" lengthAdjust="spacing" textLength="9.0454" x="645.9248" y="189.7622">3</text><text fill="#000000" font-family="sans-serif" font-size="13" lengthAdjust="spacing" textLength="207.6509" x="658.9702" y="189.7622">findByModelName(modelName)</text></g><g class="message" data-entity-1="part4" data-entity-2="part6" id="msg4"><polygon fill="#181818" points="1710.0308,219.9609,1720.0308,223.9609,1710.0308,227.9609,1714.0308,223.9609" style="stroke:#181818;stroke-width:1;"/><line style="stroke:#181818;stroke-width:1;" x1="1033.79" x2="1716.0308" y1="223.9609" y2="223.9609"/><text fill="#000000" font-family="sans-serif" font-size="13" font-weight="bold" lengthAdjust="spacing" textLength="9.0454" x="1040.79" y="218.895">4</text><text fill="#000000" font-family="sans-serif" font-size="13" lengthAdjust="spacing" textLength="366.0884" x="1053.8354" y="218.895">SELECT * FROM aircraft_model WHERE model_name = ?</text></g><g class="message" data-entity-1="part6" data-entity-2="part4" id="msg5"><polygon fill="#181818" points="1044.79,249.0938,1034.79,253.0938,1044.79,257.0938,1040.79,253.0938" style="stroke:#181818;stroke-width:1;"/><line style="stroke:#181818;stroke-width:1;stroke-dasharray:2,2;" x1="1038.79" x2="1726.0308" y1="253.0938" y2="253.0938"/><text fill="#000000" font-family="sans-serif" font-size="13" font-weight="bold" lengthAdjust="spacing" textLength="9.0454" x="1050.79" y="248.0278">5</text><text fill="#000000" font-family="sans-serif" font-size="13" lengthAdjust="spacing" textLength="86.6519" x="1063.8354" y="248.0278">model record</text></g><g class="message" data-entity-1="part4" data-entity-2="part3" id="msg6"><polygon fill="#181818" points="649.9248,278.2266,639.9248,282.2266,649.9248,286.2266,645.9248,282.2266" style="stroke:#181818;stroke-width:1;"/><line style="stroke:#181818;stroke-width:1;stroke-dasharray:2,2;" x1="643.9248" x2="1027.79" y1="282.2266" y2="282.2266"/><text fill="#000000" font-family="sans-serif" font-size="13" font-weight="bold" lengthAdjust="spacing" textLength="9.0454" x="655.9248" y="277.1606">6</text><text fill="#000000" font-family="sans-serif" font-size="13" lengthAdjust="spacing" textLength="163.7632" x="668.9702" y="277.1606">Optional&lt;AircraftModel&gt;</text></g><path d="M475.0938,304.2266 L539.5366,304.2266 L539.5366,311.3594 L529.5366,321.3594 L475.0938,321.3594 L475.0938,304.2266" fill="#EEEEEE" style="stroke:#000000;stroke-width:1.5;"/><rect fill="none" height="395.2031" style="stroke:#000000;stroke-width:1.5;" width="1308.3374" x="475.0938" y="304.2266"/><text fill="#000000" font-family="sans-serif" font-size="13" font-weight="bold" lengthAdjust="spacing" textLength="19.4429" x="490.0938" y="317.2935">alt</text><text fill="#000000" font-family="sans-serif" font-size="11" font-weight="bold" lengthAdjust="spacing" textLength="198.1343" x="554.5366" y="316.437">[one or more models not found]</text><g class="message" data-entity-1="part3" data-entity-2="part3" id="msg7"><line style="stroke:#181818;stroke-width:1;" x1="638.9248" x2="680.9248" y1="342.4922" y2="342.4922"/><line style="stroke:#181818;stroke-width:1;" x1="680.9248" x2="680.9248" y1="342.4922" y2="355.4922"/><line style="stroke:#181818;stroke-width:1;" x1="639.9248" x2="680.9248" y1="355.4922" y2="355.4922"/><polygon fill="#181818" points="649.9248,351.4922,639.9248,355.4922,649.9248,359.4922,645.9248,355.4922" style="stroke:#181818;stroke-width:1;"/><text fill="#000000" font-family="sans-serif" font-size="13" font-weight="bold" lengthAdjust="spacing" textLength="9.0454" x="645.9248" y="337.4263">7</text><text fill="#000000" font-family="sans-serif" font-size="13" lengthAdjust="spacing" textLength="255.5566" x="658.9702" y="337.4263">throw AircraftModelNotFoundException</text></g><line style="stroke:#000000;stroke-width:1;stroke-dasharray:2,2;" x1="475.0938" x2="1783.4312" y1="364.4922" y2="364.4922"/><text fill="#000000" font-family="sans-serif" font-size="11" font-weight="bold" lengthAdjust="spacing" textLength="113.228" x="480.0938" y="374.7026">[all models found]</text><g class="message" data-entity-1="part3" data-entity-2="part5" id="msg8"><polygon fill="#181818" points="1235.9258,395.4297,1245.9258,399.4297,1235.9258,403.4297,1239.9258,399.4297" style="stroke:#181818;stroke-width:1;"/><line style="stroke:#181818;stroke-width:1;" x1="638.9248" x2="1241.9258" y1="399.4297" y2="399.4297"/><text fill="#000000" font-family="sans-serif" font-size="13" font-weight="bold" lengthAdjust="spacing" textLength="9.0454" x="645.9248" y="394.3638">8</text><text fill="#000000" font-family="sans-serif" font-size="13" lengthAdjust="spacing" textLength="193.7559" x="658.9702" y="394.3638">existsByName(request.name)</text></g><g class="message" data-entity-1="part5" data-entity-2="part6" id="msg9"><polygon fill="#181818" points="1710.0308,424.5625,1720.0308,428.5625,1710.0308,432.5625,1714.0308,428.5625" style="stroke:#181818;stroke-width:1;"/><line style="stroke:#181818;stroke-width:1;" x1="1257.9258" x2="1716.0308" y1="428.5625" y2="428.5625"/><text fill="#000000" font-family="sans-serif" font-size="13" font-weight="bold" lengthAdjust="spacing" textLength="9.0454" x="1264.9258" y="423.4966">9</text><text fill="#000000" font-family="sans-serif" font-size="13" lengthAdjust="spacing" textLength="432.0596" x="1277.9712" y="423.4966">SELECT COUNT(*) FROM maintenance_template WHERE name = ?</text></g><g class="message" data-entity-1="part6" data-entity-2="part5" id="msg10"><polygon fill="#181818" points="1268.9258,453.6953,1258.9258,457.6953,1268.9258,461.6953,1264.9258,457.6953" style="stroke:#181818;stroke-width:1;"/><line style="stroke:#181818;stroke-width:1;stroke-dasharray:2,2;" x1="1262.9258" x2="1726.0308" y1="457.6953" y2="457.6953"/><text fill="#000000" font-family="sans-serif" font-size="13" font-weight="bold" lengthAdjust="spacing" textLength="18.0908" x="1274.9258" y="452.6294">10</text><text fill="#000000" font-family="sans-serif" font-size="13" lengthAdjust="spacing" textLength="36.6768" x="1297.0166" y="452.6294">count</text></g><g class="message" data-entity-1="part5" data-entity-2="part3" id="msg11"><polygon fill="#181818" points="649.9248,482.8281,639.9248,486.8281,649.9248,490.8281,645.9248,486.8281" style="stroke:#181818;stroke-width:1;"/><line style="stroke:#181818;stroke-width:1;stroke-dasharray:2,2;" x1="643.9248" x2="1251.9258" y1="486.8281" y2="486.8281"/><text fill="#000000" font-family="sans-serif" font-size="13" font-weight="bold" lengthAdjust="spacing" textLength="18.0908" x="655.9248" y="481.7622">11</text><text fill="#000000" font-family="sans-serif" font-size="13" lengthAdjust="spacing" textLength="61.9849" x="678.0156" y="481.7622">true/false</text></g><path d="M485.0938,501.8281 L549.5366,501.8281 L549.5366,508.9609 L539.5366,518.9609 L485.0938,518.9609 L485.0938,501.8281" fill="#EEEEEE" style="stroke:#000000;stroke-width:1.5;"/><rect fill="none" height="190.6016" style="stroke:#000000;stroke-width:1.5;" width="1288.3374" x="485.0938" y="501.8281"/><text fill="#000000" font-family="sans-serif" font-size="13" font-weight="bold" lengthAdjust="spacing" textLength="19.4429" x="500.0938" y="514.895">alt</text><text fill="#000000" font-family="sans-serif" font-size="11" font-weight="bold" lengthAdjust="spacing" textLength="194.9116" x="564.5366" y="514.0386">[template name already exists]</text><g class="message" data-entity-1="part3" data-entity-2="part3" id="msg12"><line style="stroke:#181818;stroke-width:1;" x1="638.9248" x2="680.9248" y1="540.0938" y2="540.0938"/><line style="stroke:#181818;stroke-width:1;" x1="680.9248" x2="680.9248" y1="540.0938" y2="553.0938"/><line style="stroke:#181818;stroke-width:1;" x1="639.9248" x2="680.9248" y1="553.0938" y2="553.0938"/><polygon fill="#181818" points="649.9248,549.0938,639.9248,553.0938,649.9248,557.0938,645.9248,553.0938" style="stroke:#181818;stroke-width:1;"/><text fill="#000000" font-family="sans-serif" font-size="13" font-weight="bold" lengthAdjust="spacing" textLength="18.0908" x="645.9248" y="535.0278">12</text><text fill="#000000" font-family="sans-serif" font-size="13" lengthAdjust="spacing" textLength="338.7744" x="668.0156" y="535.0278">throw MaintenanceTemplateAlreadyExistsException</text></g><line style="stroke:#000000;stroke-width:1;stroke-dasharray:2,2;" x1="485.0938" x2="1773.4312" y1="562.0938" y2="562.0938"/><text fill="#000000" font-family="sans-serif" font-size="11" font-weight="bold" lengthAdjust="spacing" textLength="126.5967" x="490.0938" y="572.3042">[template is unique]</text><g class="message" data-entity-1="part3" data-entity-2="part5" id="msg13"><polygon fill="#181818" points="1235.9258,593.0313,1245.9258,597.0313,1235.9258,601.0313,1239.9258,597.0313" style="stroke:#181818;stroke-width:1;"/><line style="stroke:#181818;stroke-width:1;" x1="638.9248" x2="1241.9258" y1="597.0313" y2="597.0313"/><text fill="#000000" font-family="sans-serif" font-size="13" font-weight="bold" lengthAdjust="spacing" textLength="18.0908" x="645.9248" y="591.9653">13</text><text fill="#000000" font-family="sans-serif" font-size="13" lengthAdjust="spacing" textLength="99.2583" x="668.0156" y="591.9653">save(template)</text></g><g class="message" data-entity-1="part5" data-entity-2="part6" id="msg14"><polygon fill="#181818" points="1710.0308,622.1641,1720.0308,626.1641,1710.0308,630.1641,1714.0308,626.1641" style="stroke:#181818;stroke-width:1;"/><line style="stroke:#181818;stroke-width:1;" x1="1257.9258" x2="1716.0308" y1="626.1641" y2="626.1641"/><text fill="#000000" font-family="sans-serif" font-size="13" font-weight="bold" lengthAdjust="spacing" textLength="18.0908" x="1264.9258" y="621.0981">14</text><text fill="#000000" font-family="sans-serif" font-size="13" lengthAdjust="spacing" textLength="237.3452" x="1287.0166" y="621.0981">INSERT INTO maintenance_template</text></g><g class="message" data-entity-1="part6" data-entity-2="part5" id="msg15"><polygon fill="#181818" points="1268.9258,651.2969,1258.9258,655.2969,1268.9258,659.2969,1264.9258,655.2969" style="stroke:#181818;stroke-width:1;"/><line style="stroke:#181818;stroke-width:1;stroke-dasharray:2,2;" x1="1262.9258" x2="1726.0308" y1="655.2969" y2="655.2969"/><text fill="#000000" font-family="sans-serif" font-size="13" font-weight="bold" lengthAdjust="spacing" textLength="18.0908" x="1274.9258" y="650.231">15</text><text fill="#000000" font-family="sans-serif" font-size="13" lengthAdjust="spacing" textLength="144.6885" x="1297.0166" y="650.231">saved record (with ID)</text></g><g class="message" data-entity-1="part5" data-entity-2="part3" id="msg16"><polygon fill="#181818" points="649.9248,680.4297,639.9248,684.4297,649.9248,688.4297,645.9248,684.4297" style="stroke:#181818;stroke-width:1;"/><line style="stroke:#181818;stroke-width:1;stroke-dasharray:2,2;" x1="643.9248" x2="1251.9258" y1="684.4297" y2="684.4297"/><text fill="#000000" font-family="sans-serif" font-size="13" font-weight="bold" lengthAdjust="spacing" textLength="18.0908" x="655.9248" y="679.3638">16</text><text fill="#000000" font-family="sans-serif" font-size="13" lengthAdjust="spacing" textLength="100.2104" x="678.0156" y="679.3638">savedTemplate</text></g><g class="message" data-entity-1="part3" data-entity-2="part2" id="msg17"><polygon fill="#181818" points="414.4277,723.5625,404.4277,727.5625,414.4277,731.5625,410.4277,727.5625" style="stroke:#181818;stroke-width:1;"/><line style="stroke:#181818;stroke-width:1;stroke-dasharray:2,2;" x1="408.4277" x2="632.9248" y1="727.5625" y2="727.5625"/><text fill="#000000" font-family="sans-serif" font-size="13" font-weight="bold" lengthAdjust="spacing" textLength="18.0908" x="420.4277" y="722.4966">17</text><text fill="#000000" font-family="sans-serif" font-size="13" lengthAdjust="spacing" textLength="145.2471" x="442.5186" y="722.4966">MaintenanceTemplate</text></g><g class="message" data-entity-1="part2" data-entity-2="part1" id="msg18"><polygon fill="#181818" points="104.0732,752.6953,94.0732,756.6953,104.0732,760.6953,100.0732,756.6953" style="stroke:#181818;stroke-width:1;"/><line style="stroke:#181818;stroke-width:1;stroke-dasharray:2,2;" x1="98.0732" x2="397.4277" y1="756.6953" y2="756.6953"/><text fill="#000000" font-family="sans-serif" font-size="13" font-weight="bold" lengthAdjust="spacing" textLength="18.0908" x="110.0732" y="751.6294">18</text><text fill="#000000" font-family="sans-serif" font-size="13" lengthAdjust="spacing" textLength="126.9976" x="132.1641" y="751.6294">201 Created (JSON)</text></g><?plantuml-src ZLHTZzem47pFhrZn54wwqlQnQgywGawzgf0AZFg8VCaYB2LswZXtyE-xThu_JYeI8Z4pixEpjdbfb2op5zGUZutIiDXo8GrABcC4Xl55YbXmkG1Um9PvETU65d8kpG0QA6cqIbFK3XaOdGwnWKPkiCTWcEKfBHqB37Y1ZdOCXgH7eMFDpsQh4aptcAj2aCTRPQPPUzTJKs54T9o46_v2PM6ngP_SVvkrjsLm_-0QW2_mEpemMF5ShB9ETsLguGByduTejxJHYLTQgFfsND8u1gI0LunBWxx6loKMfeUbPbEbSZXJwiZZ2sIs8v0yGm_eGtGIQTiahREGoVhcLdQ4yhFcQUa8hN8NZLtk54XkioQTG_Wh31ZSmTC-sWAlGpvLzV_y2FTXvULalS0t-3wKfv3iEqdTZmnM2XfZfHE7IN3Cwhbf8efo8vJawTV1k1_60brNA1EFfmQKHA3mCgMnAbs0L8O2BMNIYz0LCHUjtc1GOQVCauM6rnYT1OyK47YQDcfZfRfDl8h25EkR6q8zs0zoEeTs17Ff1z5nn_oxPJM4tlOwDTkh7iN_3A4s5fDVyqxmmyoDBd5rvjJl6DwQjWctLfm9dj8XJcvr_muqc_BC6NoigA5ZTe5RkWkzBIGAAAMWI4VoTOS5VqM_0IzRpDJz9FRdtI7SC_fXqMpQKwqwk6dCraHIRtFmtuIvmFEcCpFDVfg_as3ZqdDZi9lTVcqCtSKq4x7NOzFTKjr2ze0omd_--0cgApXfBgqUt6B_0G00?></g></svg>