<svg xmlns="http://www.w3.org/2000/svg" xmlns:xlink="http://www.w3.org/1999/xlink" contentStyleType="text/css" data-diagram-type="SEQUENCE" height="764px" preserveAspectRatio="none" style="width:1769px;height:764px;background:#FFFFFF;" version="1.1" viewBox="0 0 1769 764" width="1769px" zoomAndPan="magnify"><defs/><g><g><title>AirportController</title><rect fill="#FFFFFF" height="553.5234" style="stroke:#181818;stroke-width:1;" width="10" x="466.6064" y="112.4297"/></g><g><title>AddAirportCertificationUseCase</title><rect fill="#FFFFFF" height="495.2578" style="stroke:#181818;stroke-width:1;" width="10" x="686.856" y="141.5625"/></g><g><title>AirportRepository</title><rect fill="#FFFFFF" height="87.3984" style="stroke:#181818;stroke-width:1;" width="10" x="929.6841" y="170.6953"/></g><g><title>AircraftModelRepository</title><rect fill="#FFFFFF" height="87.3984" style="stroke:#181818;stroke-width:1;" width="10" x="1099.5698" y="287.2266"/></g><g><title>AirplaneCertificationRepository</title><rect fill="#FFFFFF" height="87.3984" style="stroke:#181818;stroke-width:1;" width="10" x="1317.2456" y="403.7578"/></g><g><title>AirplaneCertificationRepository</title><rect fill="#FFFFFF" height="87.3984" style="stroke:#181818;stroke-width:1;" width="10" x="1317.2456" y="520.2891"/></g><g><title>Database</title><rect fill="#FFFFFF" height="29.1328" style="stroke:#181818;stroke-width:1;" width="10" x="1726.9917" y="199.8281"/></g><g><title>Database</title><rect fill="#FFFFFF" height="29.1328" style="stroke:#181818;stroke-width:1;" width="10" x="1726.9917" y="316.3594"/></g><g><title>Database</title><rect fill="#FFFFFF" height="29.1328" style="stroke:#181818;stroke-width:1;" width="10" x="1726.9917" y="432.8906"/></g><g><title>Database</title><rect fill="#FFFFFF" height="29.1328" style="stroke:#181818;stroke-width:1;" width="10" x="1726.9917" y="549.4219"/></g><g><title>Backoffice Operator . ATCC</title><rect fill="#000000" fill-opacity="0.00000" height="602.6563" width="8" x="99.5117" y="81.2969"/><line style="stroke:#181818;stroke-width:0.5;stroke-dasharray:5,5;" x1="103" x2="103" y1="81.2969" y2="683.9531"/></g><g><title>AirportController</title><rect fill="#000000" fill-opacity="0.00000" height="602.6563" width="8" x="467.6064" y="81.2969"/><line style="stroke:#181818;stroke-width:0.5;stroke-dasharray:5,5;" x1="471.0601" x2="471.0601" y1="81.2969" y2="683.9531"/></g><g><title>AddAirportCertificationUseCase</title><rect fill="#000000" fill-opacity="0.00000" height="602.6563" width="8" x="687.856" y="81.2969"/><line style="stroke:#181818;stroke-width:0.5;stroke-dasharray:5,5;" x1="691.2949" x2="691.2949" y1="81.2969" y2="683.9531"/></g><g><title>AirportRepository</title><rect fill="#000000" fill-opacity="0.00000" height="602.6563" width="8" x="930.6841" y="81.2969"/><line style="stroke:#181818;stroke-width:0.5;stroke-dasharray:5,5;" x1="934.188" x2="934.188" y1="81.2969" y2="683.9531"/></g><g><title>AircraftModelRepository</title><rect fill="#000000" fill-opacity="0.00000" height="602.6563" width="8" x="1100.5698" y="81.2969"/><line style="stroke:#181818;stroke-width:0.5;stroke-dasharray:5,5;" x1="1104.1802" x2="1104.1802" y1="81.2969" y2="683.9531"/></g><g><title>AirplaneCertificationRepository</title><rect fill="#000000" fill-opacity="0.00000" height="602.6563" width="8" x="1318.2456" y="81.2969"/><line style="stroke:#181818;stroke-width:0.5;stroke-dasharray:5,5;" x1="1321.9595" x2="1321.9595" y1="81.2969" y2="683.9531"/></g><g><title>Database</title><rect fill="#000000" fill-opacity="0.00000" height="602.6563" width="8" x="1727.9917" y="81.2969"/><line style="stroke:#181818;stroke-width:0.5;stroke-dasharray:5,5;" x1="1731.5913" x2="1731.5913" y1="81.2969" y2="683.9531"/></g><g class="participant participant-head" data-participant="Actor"><text fill="#000000" font-family="sans-serif" font-size="14" lengthAdjust="spacing" textLength="191.0234" x="5" y="77.9951">Backoffice Operator / ATCC</text><ellipse cx="103.5117" cy="13.5" fill="#E2E2F0" rx="8" ry="8" style="stroke:#181818;stroke-width:0.5;"/><path d="M103.5117,21.5 L103.5117,48.5 M90.5117,29.5 L116.5117,29.5 M103.5117,48.5 L90.5117,63.5 M103.5117,48.5 L116.5117,63.5" fill="none" style="stroke:#181818;stroke-width:0.5;"/></g><g class="participant participant-tail" data-participant="Actor"><text fill="#000000" font-family="sans-serif" font-size="14" lengthAdjust="spacing" textLength="191.0234" x="5" y="695.9482">Backoffice Operator / ATCC</text><ellipse cx="103.5117" cy="707.75" fill="#E2E2F0" rx="8" ry="8" style="stroke:#181818;stroke-width:0.5;"/><path d="M103.5117,715.75 L103.5117,742.75 M90.5117,723.75 L116.5117,723.75 M103.5117,742.75 L90.5117,757.75 M103.5117,742.75 L116.5117,757.75" fill="none" style="stroke:#181818;stroke-width:0.5;"/></g><g class="participant participant-head" data-participant="Ctrl"><rect fill="#E2E2F0" height="30.2969" rx="2.5" ry="2.5" style="stroke:#181818;stroke-width:0.5;" width="131.0928" x="406.0601" y="50"/><text fill="#000000" font-family="sans-serif" font-size="14" lengthAdjust="spacing" textLength="117.0928" x="413.0601" y="69.9951">AirportController</text></g><g class="participant participant-tail" data-participant="Ctrl"><rect fill="#E2E2F0" height="30.2969" rx="2.5" ry="2.5" style="stroke:#181818;stroke-width:0.5;" width="131.0928" x="406.0601" y="682.9531"/><text fill="#000000" font-family="sans-serif" font-size="14" lengthAdjust="spacing" textLength="117.0928" x="413.0601" y="702.9482">AirportController</text></g><g class="participant participant-head" data-participant="UC"><rect fill="#E2E2F0" height="30.2969" rx="2.5" ry="2.5" style="stroke:#181818;stroke-width:0.5;" width="235.1221" x="574.2949" y="50"/><text fill="#000000" font-family="sans-serif" font-size="14" lengthAdjust="spacing" textLength="221.1221" x="581.2949" y="69.9951">AddAirportCertificationUseCase</text></g><g class="participant participant-tail" data-participant="UC"><rect fill="#E2E2F0" height="30.2969" rx="2.5" ry="2.5" style="stroke:#181818;stroke-width:0.5;" width="235.1221" x="574.2949" y="682.9531"/><text fill="#000000" font-family="sans-serif" font-size="14" lengthAdjust="spacing" textLength="221.1221" x="581.2949" y="702.9482">AddAirportCertificationUseCase</text></g><g class="participant participant-head" data-participant="AirportRepo"><rect fill="#E2E2F0" height="30.2969" rx="2.5" ry="2.5" style="stroke:#181818;stroke-width:0.5;" width="136.9922" x="866.188" y="50"/><text fill="#000000" font-family="sans-serif" font-size="14" lengthAdjust="spacing" textLength="122.9922" x="873.188" y="69.9951">AirportRepository</text></g><g class="participant participant-tail" data-participant="AirportRepo"><rect fill="#E2E2F0" height="30.2969" rx="2.5" ry="2.5" style="stroke:#181818;stroke-width:0.5;" width="136.9922" x="866.188" y="682.9531"/><text fill="#000000" font-family="sans-serif" font-size="14" lengthAdjust="spacing" textLength="122.9922" x="873.188" y="702.9482">AirportRepository</text></g><g class="participant participant-head" data-participant="ModelRepo"><rect fill="#E2E2F0" height="30.2969" rx="2.5" ry="2.5" style="stroke:#181818;stroke-width:0.5;" width="182.7793" x="1013.1802" y="50"/><text fill="#000000" font-family="sans-serif" font-size="14" lengthAdjust="spacing" textLength="168.7793" x="1020.1802" y="69.9951">AircraftModelRepository</text></g><g class="participant participant-tail" data-participant="ModelRepo"><rect fill="#E2E2F0" height="30.2969" rx="2.5" ry="2.5" style="stroke:#181818;stroke-width:0.5;" width="182.7793" x="1013.1802" y="682.9531"/><text fill="#000000" font-family="sans-serif" font-size="14" lengthAdjust="spacing" textLength="168.7793" x="1020.1802" y="702.9482">AircraftModelRepository</text></g><g class="participant participant-head" data-participant="CertRepo"><rect fill="#E2E2F0" height="30.2969" rx="2.5" ry="2.5" style="stroke:#181818;stroke-width:0.5;" width="232.5723" x="1205.9595" y="50"/><text fill="#000000" font-family="sans-serif" font-size="14" lengthAdjust="spacing" textLength="218.5723" x="1212.9595" y="69.9951">AirplaneCertificationRepository</text></g><g class="participant participant-tail" data-participant="CertRepo"><rect fill="#E2E2F0" height="30.2969" rx="2.5" ry="2.5" style="stroke:#181818;stroke-width:0.5;" width="232.5723" x="1205.9595" y="682.9531"/><text fill="#000000" font-family="sans-serif" font-size="14" lengthAdjust="spacing" textLength="218.5723" x="1212.9595" y="702.9482">AirplaneCertificationRepository</text></g><g class="participant participant-head" data-participant="DB"><text fill="#000000" font-family="sans-serif" font-size="14" lengthAdjust="spacing" textLength="66.8008" x="1695.5913" y="77.9951">Database</text><path d="M1713.9917,29 C1713.9917,19 1731.9917,19 1731.9917,19 C1731.9917,19 1749.9917,19 1749.9917,29 L1749.9917,55 C1749.9917,65 1731.9917,65 1731.9917,65 C1731.9917,65 1713.9917,65 1713.9917,55 L1713.9917,29" fill="#E2E2F0" style="stroke:#181818;stroke-width:0.5;"/><path d="M1713.9917,29 C1713.9917,39 1731.9917,39 1731.9917,39 C1731.9917,39 1749.9917,39 1749.9917,29" fill="none" style="stroke:#181818;stroke-width:0.5;"/></g><g class="participant participant-tail" data-participant="DB"><text fill="#000000" font-family="sans-serif" font-size="14" lengthAdjust="spacing" textLength="66.8008" x="1695.5913" y="695.9482">Database</text><path d="M1713.9917,709.25 C1713.9917,699.25 1731.9917,699.25 1731.9917,699.25 C1731.9917,699.25 1749.9917,699.25 1749.9917,709.25 L1749.9917,735.25 C1749.9917,745.25 1731.9917,745.25 1731.9917,745.25 C1731.9917,745.25 1713.9917,745.25 1713.9917,735.25 L1713.9917,709.25" fill="#E2E2F0" style="stroke:#181818;stroke-width:0.5;"/><path d="M1713.9917,709.25 C1713.9917,719.25 1731.9917,719.25 1731.9917,719.25 C1731.9917,719.25 1749.9917,719.25 1749.9917,709.25" fill="none" style="stroke:#181818;stroke-width:0.5;"/></g><g><title>AirportController</title><rect fill="#FFFFFF" height="553.5234" style="stroke:#181818;stroke-width:1;" width="10" x="466.6064" y="112.4297"/></g><g><title>AddAirportCertificationUseCase</title><rect fill="#FFFFFF" height="495.2578" style="stroke:#181818;stroke-width:1;" width="10" x="686.856" y="141.5625"/></g><g><title>AirportRepository</title><rect fill="#FFFFFF" height="87.3984" style="stroke:#181818;stroke-width:1;" width="10" x="929.6841" y="170.6953"/></g><g><title>AircraftModelRepository</title><rect fill="#FFFFFF" height="87.3984" style="stroke:#181818;stroke-width:1;" width="10" x="1099.5698" y="287.2266"/></g><g><title>AirplaneCertificationRepository</title><rect fill="#FFFFFF" height="87.3984" style="stroke:#181818;stroke-width:1;" width="10" x="1317.2456" y="403.7578"/></g><g><title>AirplaneCertificationRepository</title><rect fill="#FFFFFF" height="87.3984" style="stroke:#181818;stroke-width:1;" width="10" x="1317.2456" y="520.2891"/></g><g><title>Database</title><rect fill="#FFFFFF" height="29.1328" style="stroke:#181818;stroke-width:1;" width="10" x="1726.9917" y="199.8281"/></g><g><title>Database</title><rect fill="#FFFFFF" height="29.1328" style="stroke:#181818;stroke-width:1;" width="10" x="1726.9917" y="316.3594"/></g><g><title>Database</title><rect fill="#FFFFFF" height="29.1328" style="stroke:#181818;stroke-width:1;" width="10" x="1726.9917" y="432.8906"/></g><g><title>Database</title><rect fill="#FFFFFF" height="29.1328" style="stroke:#181818;stroke-width:1;" width="10" x="1726.9917" y="549.4219"/></g><g class="message" data-participant-1="Actor" data-participant-2="Ctrl"><polygon fill="#181818" points="454.6064,108.4297,464.6064,112.4297,454.6064,116.4297,458.6064,112.4297" style="stroke:#181818;stroke-width:1;"/><line style="stroke:#181818;stroke-width:1;" x1="103.5117" x2="460.6064" y1="112.4297" y2="112.4297"/><text fill="#000000" font-family="sans-serif" font-size="13" font-weight="bold" lengthAdjust="spacing" textLength="9.0454" x="110.5117" y="107.3638">1</text><text fill="#000000" font-family="sans-serif" font-size="13" lengthAdjust="spacing" textLength="331.0493" x="123.5571" y="107.3638">POST /api/airports/{iataCode}/certifications (JSON)</text></g><g class="message" data-participant-1="Ctrl" data-participant-2="UC"><polygon fill="#181818" points="674.856,137.5625,684.856,141.5625,674.856,145.5625,678.856,141.5625" style="stroke:#181818;stroke-width:1;"/><line style="stroke:#181818;stroke-width:1;" x1="476.6064" x2="680.856" y1="141.5625" y2="141.5625"/><text fill="#000000" font-family="sans-serif" font-size="13" font-weight="bold" lengthAdjust="spacing" textLength="9.0454" x="483.6064" y="136.4966">2</text><text fill="#000000" font-family="sans-serif" font-size="13" lengthAdjust="spacing" textLength="178.2041" x="496.6519" y="136.4966">execute(iataCode, request)</text></g><g class="message" data-participant-1="UC" data-participant-2="AirportRepo"><polygon fill="#181818" points="917.6841,166.6953,927.6841,170.6953,917.6841,174.6953,921.6841,170.6953" style="stroke:#181818;stroke-width:1;"/><line style="stroke:#181818;stroke-width:1;" x1="696.856" x2="923.6841" y1="170.6953" y2="170.6953"/><text fill="#000000" font-family="sans-serif" font-size="13" font-weight="bold" lengthAdjust="spacing" textLength="9.0454" x="703.856" y="165.6294">3</text><text fill="#000000" font-family="sans-serif" font-size="13" lengthAdjust="spacing" textLength="200.7827" x="716.9014" y="165.6294">findByIataCodeCode(iataCode)</text></g><g class="message" data-participant-1="AirportRepo" data-participant-2="DB"><polygon fill="#181818" points="1714.9917,195.8281,1724.9917,199.8281,1714.9917,203.8281,1718.9917,199.8281" style="stroke:#181818;stroke-width:1;"/><line style="stroke:#181818;stroke-width:1;" x1="939.6841" x2="1720.9917" y1="199.8281" y2="199.8281"/><text fill="#000000" font-family="sans-serif" font-size="13" font-weight="bold" lengthAdjust="spacing" textLength="9.0454" x="946.6841" y="194.7622">4</text><text fill="#000000" font-family="sans-serif" font-size="13" lengthAdjust="spacing" textLength="252.4971" x="959.7295" y="194.7622">SELECT FROM airport WHERE code = ?</text></g><g class="message" data-participant-1="DB" data-participant-2="AirportRepo"><polygon fill="#181818" points="950.6841,224.9609,940.6841,228.9609,950.6841,232.9609,946.6841,228.9609" style="stroke:#181818;stroke-width:1;"/><line style="stroke:#181818;stroke-width:1;stroke-dasharray:2,2;" x1="944.6841" x2="1730.9917" y1="228.9609" y2="228.9609"/><text fill="#000000" font-family="sans-serif" font-size="13" font-weight="bold" lengthAdjust="spacing" textLength="9.0454" x="956.6841" y="223.895">5</text><text fill="#000000" font-family="sans-serif" font-size="13" lengthAdjust="spacing" textLength="89.7432" x="969.7295" y="223.895">airport record</text></g><g class="message" data-participant-1="AirportRepo" data-participant-2="UC"><polygon fill="#181818" points="707.856,254.0938,697.856,258.0938,707.856,262.0938,703.856,258.0938" style="stroke:#181818;stroke-width:1;"/><line style="stroke:#181818;stroke-width:1;stroke-dasharray:2,2;" x1="701.856" x2="933.6841" y1="258.0938" y2="258.0938"/><text fill="#000000" font-family="sans-serif" font-size="13" font-weight="bold" lengthAdjust="spacing" textLength="9.0454" x="713.856" y="253.0278">6</text><text fill="#000000" font-family="sans-serif" font-size="13" lengthAdjust="spacing" textLength="44.4971" x="726.9014" y="253.0278">Airport</text></g><g class="message" data-participant-1="UC" data-participant-2="ModelRepo"><polygon fill="#181818" points="1087.5698,283.2266,1097.5698,287.2266,1087.5698,291.2266,1091.5698,287.2266" style="stroke:#181818;stroke-width:1;"/><line style="stroke:#181818;stroke-width:1;" x1="696.856" x2="1093.5698" y1="287.2266" y2="287.2266"/><text fill="#000000" font-family="sans-serif" font-size="13" font-weight="bold" lengthAdjust="spacing" textLength="9.0454" x="703.856" y="282.1606">7</text><text fill="#000000" font-family="sans-serif" font-size="13" lengthAdjust="spacing" textLength="161.6938" x="716.9014" y="282.1606">findById(aircraftModelId)</text></g><g class="message" data-participant-1="ModelRepo" data-participant-2="DB"><polygon fill="#181818" points="1714.9917,312.3594,1724.9917,316.3594,1714.9917,320.3594,1718.9917,316.3594" style="stroke:#181818;stroke-width:1;"/><line style="stroke:#181818;stroke-width:1;" x1="1109.5698" x2="1720.9917" y1="316.3594" y2="316.3594"/><text fill="#000000" font-family="sans-serif" font-size="13" font-weight="bold" lengthAdjust="spacing" textLength="9.0454" x="1116.5698" y="311.2935">8</text><text fill="#000000" font-family="sans-serif" font-size="13" lengthAdjust="spacing" textLength="283.4736" x="1129.6152" y="311.2935">SELECT FROM aircraft_model WHERE id = ?</text></g><g class="message" data-participant-1="DB" data-participant-2="ModelRepo"><polygon fill="#181818" points="1120.5698,341.4922,1110.5698,345.4922,1120.5698,349.4922,1116.5698,345.4922" style="stroke:#181818;stroke-width:1;"/><line style="stroke:#181818;stroke-width:1;stroke-dasharray:2,2;" x1="1114.5698" x2="1730.9917" y1="345.4922" y2="345.4922"/><text fill="#000000" font-family="sans-serif" font-size="13" font-weight="bold" lengthAdjust="spacing" textLength="9.0454" x="1126.5698" y="340.4263">9</text><text fill="#000000" font-family="sans-serif" font-size="13" lengthAdjust="spacing" textLength="86.6519" x="1139.6152" y="340.4263">model record</text></g><g class="message" data-participant-1="ModelRepo" data-participant-2="UC"><polygon fill="#181818" points="707.856,370.625,697.856,374.625,707.856,378.625,703.856,374.625" style="stroke:#181818;stroke-width:1;"/><line style="stroke:#181818;stroke-width:1;stroke-dasharray:2,2;" x1="701.856" x2="1103.5698" y1="374.625" y2="374.625"/><text fill="#000000" font-family="sans-serif" font-size="13" font-weight="bold" lengthAdjust="spacing" textLength="18.0908" x="713.856" y="369.5591">10</text><text fill="#000000" font-family="sans-serif" font-size="13" lengthAdjust="spacing" textLength="87.0137" x="735.9468" y="369.5591">AircraftModel</text></g><g class="message" data-participant-1="UC" data-participant-2="CertRepo"><polygon fill="#181818" points="1305.2456,399.7578,1315.2456,403.7578,1305.2456,407.7578,1309.2456,403.7578" style="stroke:#181818;stroke-width:1;"/><line style="stroke:#181818;stroke-width:1;" x1="696.856" x2="1311.2456" y1="403.7578" y2="403.7578"/><text fill="#000000" font-family="sans-serif" font-size="13" font-weight="bold" lengthAdjust="spacing" textLength="18.0908" x="703.856" y="398.6919">11</text><text fill="#000000" font-family="sans-serif" font-size="13" lengthAdjust="spacing" textLength="338.0825" x="725.9468" y="398.6919">existsByAirportAndAircraftModelId(airport, modelId)</text></g><g class="message" data-participant-1="CertRepo" data-participant-2="DB"><polygon fill="#181818" points="1714.9917,428.8906,1724.9917,432.8906,1714.9917,436.8906,1718.9917,432.8906" style="stroke:#181818;stroke-width:1;"/><line style="stroke:#181818;stroke-width:1;" x1="1327.2456" x2="1720.9917" y1="432.8906" y2="432.8906"/><text fill="#000000" font-family="sans-serif" font-size="13" font-weight="bold" lengthAdjust="spacing" textLength="18.0908" x="1334.2456" y="427.8247">12</text><text fill="#000000" font-family="sans-serif" font-size="13" lengthAdjust="spacing" textLength="358.6553" x="1356.3364" y="427.8247">SELECT COUNT(*) FROM airport_certification WHERE ...</text></g><g class="message" data-participant-1="DB" data-participant-2="CertRepo"><polygon fill="#181818" points="1338.2456,458.0234,1328.2456,462.0234,1338.2456,466.0234,1334.2456,462.0234" style="stroke:#181818;stroke-width:1;"/><line style="stroke:#181818;stroke-width:1;stroke-dasharray:2,2;" x1="1332.2456" x2="1730.9917" y1="462.0234" y2="462.0234"/><text fill="#000000" font-family="sans-serif" font-size="13" font-weight="bold" lengthAdjust="spacing" textLength="18.0908" x="1344.2456" y="456.9575">13</text><text fill="#000000" font-family="sans-serif" font-size="13" lengthAdjust="spacing" textLength="8.271" x="1366.3364" y="456.9575">0</text></g><g class="message" data-participant-1="CertRepo" data-participant-2="UC"><polygon fill="#181818" points="707.856,487.1563,697.856,491.1563,707.856,495.1563,703.856,491.1563" style="stroke:#181818;stroke-width:1;"/><line style="stroke:#181818;stroke-width:1;stroke-dasharray:2,2;" x1="701.856" x2="1321.2456" y1="491.1563" y2="491.1563"/><text fill="#000000" font-family="sans-serif" font-size="13" font-weight="bold" lengthAdjust="spacing" textLength="18.0908" x="713.856" y="486.0903">14</text><text fill="#000000" font-family="sans-serif" font-size="13" lengthAdjust="spacing" textLength="30.9258" x="735.9468" y="486.0903">false</text></g><g class="message" data-participant-1="UC" data-participant-2="CertRepo"><polygon fill="#181818" points="1305.2456,516.2891,1315.2456,520.2891,1305.2456,524.2891,1309.2456,520.2891" style="stroke:#181818;stroke-width:1;"/><line style="stroke:#181818;stroke-width:1;" x1="696.856" x2="1311.2456" y1="520.2891" y2="520.2891"/><text fill="#000000" font-family="sans-serif" font-size="13" font-weight="bold" lengthAdjust="spacing" textLength="18.0908" x="703.856" y="515.2231">15</text><text fill="#000000" font-family="sans-serif" font-size="13" lengthAdjust="spacing" textLength="307.2837" x="725.9468" y="515.2231">save(new AirplaneCertification(airport, model))</text></g><g class="message" data-participant-1="CertRepo" data-participant-2="DB"><polygon fill="#181818" points="1714.9917,545.4219,1724.9917,549.4219,1714.9917,553.4219,1718.9917,549.4219" style="stroke:#181818;stroke-width:1;"/><line style="stroke:#181818;stroke-width:1;" x1="1327.2456" x2="1720.9917" y1="549.4219" y2="549.4219"/><text fill="#000000" font-family="sans-serif" font-size="13" font-weight="bold" lengthAdjust="spacing" textLength="18.0908" x="1334.2456" y="544.356">16</text><text fill="#000000" font-family="sans-serif" font-size="13" lengthAdjust="spacing" textLength="214.4683" x="1356.3364" y="544.356">INSERT INTO airport_certification</text></g><g class="message" data-participant-1="DB" data-participant-2="CertRepo"><polygon fill="#181818" points="1338.2456,574.5547,1328.2456,578.5547,1338.2456,582.5547,1334.2456,578.5547" style="stroke:#181818;stroke-width:1;"/><line style="stroke:#181818;stroke-width:1;stroke-dasharray:2,2;" x1="1332.2456" x2="1730.9917" y1="578.5547" y2="578.5547"/><text fill="#000000" font-family="sans-serif" font-size="13" font-weight="bold" lengthAdjust="spacing" textLength="18.0908" x="1344.2456" y="573.4888">17</text><text fill="#000000" font-family="sans-serif" font-size="13" lengthAdjust="spacing" textLength="144.6885" x="1366.3364" y="573.4888">saved record (with ID)</text></g><g class="message" data-participant-1="CertRepo" data-participant-2="UC"><polygon fill="#181818" points="707.856,603.6875,697.856,607.6875,707.856,611.6875,703.856,607.6875" style="stroke:#181818;stroke-width:1;"/><line style="stroke:#181818;stroke-width:1;stroke-dasharray:2,2;" x1="701.856" x2="1321.2456" y1="607.6875" y2="607.6875"/><text fill="#000000" font-family="sans-serif" font-size="13" font-weight="bold" lengthAdjust="spacing" textLength="18.0908" x="713.856" y="602.6216">18</text><text fill="#000000" font-family="sans-serif" font-size="13" lengthAdjust="spacing" textLength="118.0156" x="735.9468" y="602.6216">savedCertification</text></g><g class="message" data-participant-1="UC" data-participant-2="Ctrl"><polygon fill="#181818" points="487.6064,632.8203,477.6064,636.8203,487.6064,640.8203,483.6064,636.8203" style="stroke:#181818;stroke-width:1;"/><line style="stroke:#181818;stroke-width:1;stroke-dasharray:2,2;" x1="481.6064" x2="690.856" y1="636.8203" y2="636.8203"/><text fill="#000000" font-family="sans-serif" font-size="13" font-weight="bold" lengthAdjust="spacing" textLength="18.0908" x="493.6064" y="631.7544">19</text><text fill="#000000" font-family="sans-serif" font-size="13" lengthAdjust="spacing" textLength="118.0156" x="515.6973" y="631.7544">savedCertification</text></g><g class="message" data-participant-1="Ctrl" data-participant-2="Actor"><polygon fill="#181818" points="114.5117,661.9531,104.5117,665.9531,114.5117,669.9531,110.5117,665.9531" style="stroke:#181818;stroke-width:1;"/><line style="stroke:#181818;stroke-width:1;stroke-dasharray:2,2;" x1="108.5117" x2="470.6064" y1="665.9531" y2="665.9531"/><text fill="#000000" font-family="sans-serif" font-size="13" font-weight="bold" lengthAdjust="spacing" textLength="18.0908" x="120.5117" y="660.8872">20</text><text fill="#000000" font-family="sans-serif" font-size="13" lengthAdjust="spacing" textLength="126.9976" x="142.6025" y="660.8872">201 Created (JSON)</text></g><!--SRC=[ZLJHRfim57tdAwxoHAOsT7kij4xWC2tJ6gQ4Q8-LYo-QDGhCTjf5q_vznXWmXAnxG23xddFFERwO7bLL7fyUKNWqKvM0HKIp7rMUymmXgL7GPZ60C2La0LH2s5HvDHMAPxocfO95o4LT2KMgKecgA52OGg94CQbZh2j5lQnRKCMhyY2HK8a6T22pr3kiAybrurEhOLWzAyy4pTLznR2OWFgrymu5BN4aQG9jzWoIKKKVjLPOhEsNsLz7dcToWUixunjkuMkoJo6WDGzegrO6lxa64ItZJv2vtIJud_V9TjcS07-c2jliFCEa6Gz4y-4lp8uA_OxZ2WJ-FA9K3aodv-bY3N4IqjYSbomwRIooUNeQ1-scwk8rtJhIBFluIqnI-BXBxi5wWc-VubqCcIQ2z_1XuDA9QCprcP8E9p2h1FCOkeXHqywtNNHBNQ7MRt-uWrlcKtSQDionEip20BnWqp0yF3LbrYrdbxowAbh4h4-df-DoaEgM3qgjqsuMpKXmgMHqidc49Gl7ZdqRzrMhPXH1FzCzuIG0aXosgVzcEJhmXz7Wsa1MgzLS6exIcqa2GyykW9mM4jsgNj-vRqcVqI_n1MR_tOdfvNzvtcptyIxLhpIPj_gAmKOIiwSD_WjNts6pNhxgsi16wYz7C5mj_qOrbq1xSpH_dxcLRk7TpLiW0lK-wouRjv4k_mi0]--></g></svg>