<?plantuml 1.2026.1?><svg xmlns="http://www.w3.org/2000/svg" xmlns:xlink="http://www.w3.org/1999/xlink" contentStyleType="text/css" data-diagram-type="SEQUENCE" height="430px" preserveAspectRatio="none" style="width:1791px;height:430px;background:#FFFFFF;" version="1.1" viewBox="0 0 1791 430" width="1791px" zoomAndPan="magnify"><defs/><g><g><title>AirportController</title><rect fill="#FFFFFF" height="219.0625" style="stroke:#181818;stroke-width:1;" width="10" x="557.7329" y="112.4297"/></g><g><title>SearchAirportUseCase</title><rect fill="#FFFFFF" height="160.7969" style="stroke:#181818;stroke-width:1;" width="10" x="857.3154" y="141.5625"/></g><g><title>AirportRepository</title><rect fill="#FFFFFF" height="102.5313" style="stroke:#181818;stroke-width:1;" width="10" x="1199.4653" y="170.6953"/></g><g><title>Database</title><rect fill="#FFFFFF" height="29.1328" style="stroke:#181818;stroke-width:1;" width="10" x="1749.4565" y="214.9609"/></g><g class="participant-lifeline" data-entity-uid="part1" data-qualified-name="ATCC" id="part1-lifeline"><g><title>ATCC</title><rect fill="#000000" fill-opacity="0.00000" height="268.1953" width="8" x="22.8398" y="81.2969"/><line style="stroke:#181818;stroke-width:0.5;stroke-dasharray:5,5;" x1="26" x2="26" y1="81.2969" y2="349.4922"/></g></g><g class="participant-lifeline" data-entity-uid="part2" data-qualified-name="Ctrl" id="part2-lifeline"><g><title>AirportController</title><rect fill="#000000" fill-opacity="0.00000" height="268.1953" width="8" x="558.7329" y="81.2969"/><line style="stroke:#181818;stroke-width:0.5;stroke-dasharray:5,5;" x1="562.1865" x2="562.1865" y1="81.2969" y2="349.4922"/></g></g><g class="participant-lifeline" data-entity-uid="part3" data-qualified-name="UC" id="part3-lifeline"><g><title>SearchAirportUseCase</title><rect fill="#000000" fill-opacity="0.00000" height="268.1953" width="8" x="858.3154" y="81.2969"/><line style="stroke:#181818;stroke-width:0.5;stroke-dasharray:5,5;" x1="861.9448" x2="861.9448" y1="81.2969" y2="349.4922"/></g></g><g class="participant-lifeline" data-entity-uid="part4" data-qualified-name="Repo" id="part4-lifeline"><g><title>AirportRepository</title><rect fill="#000000" fill-opacity="0.00000" height="268.1953" width="8" x="1200.4653" y="81.2969"/><line style="stroke:#181818;stroke-width:0.5;stroke-dasharray:5,5;" x1="1203.9692" x2="1203.9692" y1="81.2969" y2="349.4922"/></g></g><g class="participant-lifeline" data-entity-uid="part5" data-qualified-name="DB" id="part5-lifeline"><g><title>Database</title><rect fill="#000000" fill-opacity="0.00000" height="268.1953" width="8" x="1750.4565" y="81.2969"/><line style="stroke:#181818;stroke-width:0.5;stroke-dasharray:5,5;" x1="1754.0562" x2="1754.0562" y1="81.2969" y2="349.4922"/></g></g><g class="participant participant-head" data-entity-uid="part1" data-qualified-name="ATCC" id="part1-head"><text fill="#000000" font-family="sans-serif" font-size="14" lengthAdjust="spacing" textLength="37.6797" x="5" y="77.9951">ATCC</text><ellipse cx="26.8398" cy="13.5" fill="#E2E2F0" rx="8" ry="8" style="stroke:#181818;stroke-width:0.5;"/><path d="M26.8398,21.5 L26.8398,48.5 M13.8398,29.5 L39.8398,29.5 M26.8398,48.5 L13.8398,63.5 M26.8398,48.5 L39.8398,63.5" fill="none" style="stroke:#181818;stroke-width:0.5;"/></g><g class="participant participant-tail" data-entity-uid="part1" data-qualified-name="ATCC" id="part1-tail"><text fill="#000000" font-family="sans-serif" font-size="14" lengthAdjust="spacing" textLength="37.6797" x="5" y="361.4873">ATCC</text><ellipse cx="26.8398" cy="373.2891" fill="#E2E2F0" rx="8" ry="8" style="stroke:#181818;stroke-width:0.5;"/><path d="M26.8398,381.2891 L26.8398,408.2891 M13.8398,389.2891 L39.8398,389.2891 M26.8398,408.2891 L13.8398,423.2891 M26.8398,408.2891 L39.8398,423.2891" fill="none" style="stroke:#181818;stroke-width:0.5;"/></g><g class="participant participant-head" data-entity-uid="part2" data-qualified-name="Ctrl" id="part2-head"><rect fill="#E2E2F0" height="30.2969" rx="2.5" ry="2.5" style="stroke:#181818;stroke-width:0.5;" width="131.0928" x="497.1865" y="50"/><text fill="#000000" font-family="sans-serif" font-size="14" lengthAdjust="spacing" textLength="117.0928" x="504.1865" y="69.9951">AirportController</text></g><g class="participant participant-tail" data-entity-uid="part2" data-qualified-name="Ctrl" id="part2-tail"><rect fill="#E2E2F0" height="30.2969" rx="2.5" ry="2.5" style="stroke:#181818;stroke-width:0.5;" width="131.0928" x="497.1865" y="348.4922"/><text fill="#000000" font-family="sans-serif" font-size="14" lengthAdjust="spacing" textLength="117.0928" x="504.1865" y="368.4873">AirportController</text></g><g class="participant participant-head" data-entity-uid="part3" data-qualified-name="UC" id="part3-head"><rect fill="#E2E2F0" height="30.2969" rx="2.5" ry="2.5" style="stroke:#181818;stroke-width:0.5;" width="170.7412" x="776.9448" y="50"/><text fill="#000000" font-family="sans-serif" font-size="14" lengthAdjust="spacing" textLength="156.7412" x="783.9448" y="69.9951">SearchAirportUseCase</text></g><g class="participant participant-tail" data-entity-uid="part3" data-qualified-name="UC" id="part3-tail"><rect fill="#E2E2F0" height="30.2969" rx="2.5" ry="2.5" style="stroke:#181818;stroke-width:0.5;" width="170.7412" x="776.9448" y="348.4922"/><text fill="#000000" font-family="sans-serif" font-size="14" lengthAdjust="spacing" textLength="156.7412" x="783.9448" y="368.4873">SearchAirportUseCase</text></g><g class="participant participant-head" data-entity-uid="part4" data-qualified-name="Repo" id="part4-head"><rect fill="#E2E2F0" height="30.2969" rx="2.5" ry="2.5" style="stroke:#181818;stroke-width:0.5;" width="136.9922" x="1135.9692" y="50"/><text fill="#000000" font-family="sans-serif" font-size="14" lengthAdjust="spacing" textLength="122.9922" x="1142.9692" y="69.9951">AirportRepository</text></g><g class="participant participant-tail" data-entity-uid="part4" data-qualified-name="Repo" id="part4-tail"><rect fill="#E2E2F0" height="30.2969" rx="2.5" ry="2.5" style="stroke:#181818;stroke-width:0.5;" width="136.9922" x="1135.9692" y="348.4922"/><text fill="#000000" font-family="sans-serif" font-size="14" lengthAdjust="spacing" textLength="122.9922" x="1142.9692" y="368.4873">AirportRepository</text></g><g class="participant participant-head" data-entity-uid="part5" data-qualified-name="DB" id="part5-head"><text fill="#000000" font-family="sans-serif" font-size="14" lengthAdjust="spacing" textLength="66.8008" x="1718.0562" y="77.9951">Database</text><path d="M1736.4565,29 C1736.4565,19 1754.4565,19 1754.4565,19 C1754.4565,19 1772.4565,19 1772.4565,29 L1772.4565,55 C1772.4565,65 1754.4565,65 1754.4565,65 C1754.4565,65 1736.4565,65 1736.4565,55 L1736.4565,29" fill="#E2E2F0" style="stroke:#181818;stroke-width:0.5;"/><path d="M1736.4565,29 C1736.4565,39 1754.4565,39 1754.4565,39 C1754.4565,39 1772.4565,39 1772.4565,29" fill="none" style="stroke:#181818;stroke-width:0.5;"/></g><g class="participant participant-tail" data-entity-uid="part5" data-qualified-name="DB" id="part5-tail"><text fill="#000000" font-family="sans-serif" font-size="14" lengthAdjust="spacing" textLength="66.8008" x="1718.0562" y="361.4873">Database</text><path d="M1736.4565,374.7891 C1736.4565,364.7891 1754.4565,364.7891 1754.4565,364.7891 C1754.4565,364.7891 1772.4565,364.7891 1772.4565,374.7891 L1772.4565,400.7891 C1772.4565,410.7891 1754.4565,410.7891 1754.4565,410.7891 C1754.4565,410.7891 1736.4565,410.7891 1736.4565,400.7891 L1736.4565,374.7891" fill="#E2E2F0" style="stroke:#181818;stroke-width:0.5;"/><path d="M1736.4565,374.7891 C1736.4565,384.7891 1754.4565,384.7891 1754.4565,384.7891 C1754.4565,384.7891 1772.4565,384.7891 1772.4565,374.7891" fill="none" style="stroke:#181818;stroke-width:0.5;"/></g><g><title>AirportController</title><rect fill="#FFFFFF" height="219.0625" style="stroke:#181818;stroke-width:1;" width="10" x="557.7329" y="112.4297"/></g><g><title>SearchAirportUseCase</title><rect fill="#FFFFFF" height="160.7969" style="stroke:#181818;stroke-width:1;" width="10" x="857.3154" y="141.5625"/></g><g><title>AirportRepository</title><rect fill="#FFFFFF" height="102.5313" style="stroke:#181818;stroke-width:1;" width="10" x="1199.4653" y="170.6953"/></g><g><title>Database</title><rect fill="#FFFFFF" height="29.1328" style="stroke:#181818;stroke-width:1;" width="10" x="1749.4565" y="214.9609"/></g><g class="message" data-entity-1="part1" data-entity-2="part2" id="msg1"><polygon fill="#181818" points="545.7329,108.4297,555.7329,112.4297,545.7329,116.4297,549.7329,112.4297" style="stroke:#181818;stroke-width:1;"/><line style="stroke:#181818;stroke-width:1;" x1="26.8398" x2="551.7329" y1="112.4297" y2="112.4297"/><text fill="#000000" font-family="sans-serif" font-size="13" font-weight="bold" lengthAdjust="spacing" textLength="9.0454" x="33.8398" y="107.3638">1</text><text fill="#000000" font-family="sans-serif" font-size="13" lengthAdjust="spacing" textLength="477.4263" x="46.8853" y="107.3638">GET /api/airports/search?name=X&amp;city=Y&amp;country=Z&amp;page=0&amp;size=20</text></g><g class="message" data-entity-1="part2" data-entity-2="part3" id="msg2"><polygon fill="#181818" points="845.3154,137.5625,855.3154,141.5625,845.3154,145.5625,849.3154,141.5625" style="stroke:#181818;stroke-width:1;"/><line style="stroke:#181818;stroke-width:1;" x1="567.7329" x2="851.3154" y1="141.5625" y2="141.5625"/><text fill="#000000" font-family="sans-serif" font-size="13" font-weight="bold" lengthAdjust="spacing" textLength="9.0454" x="574.7329" y="136.4966">2</text><text fill="#000000" font-family="sans-serif" font-size="13" lengthAdjust="spacing" textLength="257.5371" x="587.7783" y="136.4966">execute(name, city, country, pageable)</text></g><g class="message" data-entity-1="part3" data-entity-2="part4" id="msg3"><polygon fill="#181818" points="1187.4653,166.6953,1197.4653,170.6953,1187.4653,174.6953,1191.4653,170.6953" style="stroke:#181818;stroke-width:1;"/><line style="stroke:#181818;stroke-width:1;" x1="867.3154" x2="1193.4653" y1="170.6953" y2="170.6953"/><text fill="#000000" font-family="sans-serif" font-size="13" font-weight="bold" lengthAdjust="spacing" textLength="9.0454" x="874.3154" y="165.6294">3</text><text fill="#000000" font-family="sans-serif" font-size="13" lengthAdjust="spacing" textLength="300.1045" x="887.3608" y="165.6294">searchAirports(name, city, country, pageable)</text></g><g class="message" data-entity-1="part4" data-entity-2="part5" id="msg4"><polygon fill="#181818" points="1737.4565,210.9609,1747.4565,214.9609,1737.4565,218.9609,1741.4565,214.9609" style="stroke:#181818;stroke-width:1;"/><line style="stroke:#181818;stroke-width:1;" x1="1209.4653" x2="1743.4565" y1="214.9609" y2="214.9609"/><text fill="#000000" font-family="sans-serif" font-size="13" font-weight="bold" lengthAdjust="spacing" textLength="9.0454" x="1216.4653" y="202.3286">4</text><text fill="#000000" font-family="sans-serif" font-size="13" lengthAdjust="spacing" textLength="507.9458" x="1229.5107" y="194.7622">SELECT FROM airport WHERE name LIKE ? AND city LIKE ? AND country LIKE ?</text><text fill="#000000" font-family="sans-serif" font-size="13" lengthAdjust="spacing" textLength="235.0029" x="1229.5107" y="209.895">(Dynamic Query with LIMIT/OFFSET)</text></g><g class="message" data-entity-1="part5" data-entity-2="part4" id="msg5"><polygon fill="#181818" points="1220.4653,240.0938,1210.4653,244.0938,1220.4653,248.0938,1216.4653,244.0938" style="stroke:#181818;stroke-width:1;"/><line style="stroke:#181818;stroke-width:1;stroke-dasharray:2,2;" x1="1214.4653" x2="1753.4565" y1="244.0938" y2="244.0938"/><text fill="#000000" font-family="sans-serif" font-size="13" font-weight="bold" lengthAdjust="spacing" textLength="9.0454" x="1226.4653" y="239.0278">5</text><text fill="#000000" font-family="sans-serif" font-size="13" lengthAdjust="spacing" textLength="102.0767" x="1239.5107" y="239.0278">page of records</text></g><g class="message" data-entity-1="part4" data-entity-2="part3" id="msg6"><polygon fill="#181818" points="878.3154,269.2266,868.3154,273.2266,878.3154,277.2266,874.3154,273.2266" style="stroke:#181818;stroke-width:1;"/><line style="stroke:#181818;stroke-width:1;stroke-dasharray:2,2;" x1="872.3154" x2="1203.4653" y1="273.2266" y2="273.2266"/><text fill="#000000" font-family="sans-serif" font-size="13" font-weight="bold" lengthAdjust="spacing" textLength="9.0454" x="884.3154" y="268.1606">6</text><text fill="#000000" font-family="sans-serif" font-size="13" lengthAdjust="spacing" textLength="98.3379" x="897.3608" y="268.1606">Page&lt;Airport&gt;</text></g><g class="message" data-entity-1="part3" data-entity-2="part2" id="msg7"><polygon fill="#181818" points="578.7329,298.3594,568.7329,302.3594,578.7329,306.3594,574.7329,302.3594" style="stroke:#181818;stroke-width:1;"/><line style="stroke:#181818;stroke-width:1;stroke-dasharray:2,2;" x1="572.7329" x2="861.3154" y1="302.3594" y2="302.3594"/><text fill="#000000" font-family="sans-serif" font-size="13" font-weight="bold" lengthAdjust="spacing" textLength="9.0454" x="584.7329" y="297.2935">7</text><text fill="#000000" font-family="sans-serif" font-size="13" lengthAdjust="spacing" textLength="161.3574" x="597.7783" y="297.2935">Page&lt;AirportResponse&gt;</text></g><g class="message" data-entity-1="part2" data-entity-2="part1" id="msg8"><polygon fill="#181818" points="37.8398,327.4922,27.8398,331.4922,37.8398,335.4922,33.8398,331.4922" style="stroke:#181818;stroke-width:1;"/><line style="stroke:#181818;stroke-width:1;stroke-dasharray:2,2;" x1="31.8398" x2="561.7329" y1="331.4922" y2="331.4922"/><text fill="#000000" font-family="sans-serif" font-size="13" font-weight="bold" lengthAdjust="spacing" textLength="9.0454" x="43.8398" y="326.4263">8</text><text fill="#000000" font-family="sans-serif" font-size="13" lengthAdjust="spacing" textLength="493.8477" x="56.8853" y="326.4263">200 OK (JSON Page with content[], totalElements, totalPages, number, size)</text></g><?plantuml-src ZP9DRy8m38Rl_HKM1mGI2CGHhKFGbetnjK7HlWyXU2DIQQeatSP-_Poq4qNQOPSgJbu_zkkQvKQc-M6BocFSI0MrOHm4DM0QxC7Bc3A2YuobXfw4ogGoWKoDaac2oka2ev9ptHgPuljIlT4OC8rEklaRkC9CQa7LZqvbGs_73DjI7jJ2ykJUmf7dsSQWVUaAGn-keXWwB1CTLj1qHxlwWvGTq7-eSs6E_cETovpQFlfFzOozez-jQ_6DVgzhVOiFPh0muZagqJS1iV4BUMwmOL4ji2Jw5g0MM0xR9jWy8SYWjt7DMHC4qDLHw7zpt0WSWb3XY43hQ1O5COnNopcKHk7-Ebf5O9amcqmZ6C1m4JhwMLpKAQzUqaPuf1J1uIv7kluKPazlyqdSMOx7woYkj47JfkBjantRAiWtKCYbscblXrLjqV3lx6v9Ur4wlwmgdJatfjDFh8fNg3EPQZnBifCjVWqbkGteGw_RXUKK6ZVhvS8H2ZESzXDJy_pQ0YCDIw843nJhChH2EXTRtmAx1irg9Llb1m00?></g></svg>