<?plantuml 1.2026.1?><svg xmlns="http://www.w3.org/2000/svg" xmlns:xlink="http://www.w3.org/1999/xlink" contentStyleType="text/css" data-diagram-type="SEQUENCE" height="415px" preserveAspectRatio="none" style="width:1624px;height:415px;background:#FFFFFF;" version="1.1" viewBox="0 0 1624 415" width="1624px" zoomAndPan="magnify"><defs/><g><g><title>AirportController</title><rect fill="#FFFFFF" height="203.9297" style="stroke:#181818;stroke-width:1;" width="10" x="411.7642" y="112.4297"/></g><g><title>SearchAirportUseCase</title><rect fill="#FFFFFF" height="145.6641" style="stroke:#181818;stroke-width:1;" width="10" x="642.7856" y="141.5625"/></g><g><title>AirportRepository</title><rect fill="#FFFFFF" height="87.3984" style="stroke:#181818;stroke-width:1;" width="10" x="916.3745" y="170.6953"/></g><g><title>Database</title><rect fill="#FFFFFF" height="29.1328" style="stroke:#181818;stroke-width:1;" width="10" x="1581.6138" y="199.8281"/></g><g class="participant-lifeline" data-entity-uid="part1" data-qualified-name="ATCC" id="part1-lifeline"><g><title>ATCC</title><rect fill="#000000" fill-opacity="0.00000" height="253.0625" width="8" x="22.8398" y="81.2969"/><line style="stroke:#181818;stroke-width:0.5;stroke-dasharray:5,5;" x1="26" x2="26" y1="81.2969" y2="334.3594"/></g></g><g class="participant-lifeline" data-entity-uid="part2" data-qualified-name="Ctrl" id="part2-lifeline"><g><title>AirportController</title><rect fill="#000000" fill-opacity="0.00000" height="253.0625" width="8" x="412.7642" y="81.2969"/><line style="stroke:#181818;stroke-width:0.5;stroke-dasharray:5,5;" x1="416.2178" x2="416.2178" y1="81.2969" y2="334.3594"/></g></g><g class="participant-lifeline" data-entity-uid="part3" data-qualified-name="UC" id="part3-lifeline"><g><title>SearchAirportUseCase</title><rect fill="#000000" fill-opacity="0.00000" height="253.0625" width="8" x="643.7856" y="81.2969"/><line style="stroke:#181818;stroke-width:0.5;stroke-dasharray:5,5;" x1="647.415" x2="647.415" y1="81.2969" y2="334.3594"/></g></g><g class="participant-lifeline" data-entity-uid="part4" data-qualified-name="Repo" id="part4-lifeline"><g><title>AirportRepository</title><rect fill="#000000" fill-opacity="0.00000" height="253.0625" width="8" x="917.3745" y="81.2969"/><line style="stroke:#181818;stroke-width:0.5;stroke-dasharray:5,5;" x1="920.8784" x2="920.8784" y1="81.2969" y2="334.3594"/></g></g><g class="participant-lifeline" data-entity-uid="part5" data-qualified-name="DB" id="part5-lifeline"><g><title>Database</title><rect fill="#000000" fill-opacity="0.00000" height="253.0625" width="8" x="1582.6138" y="81.2969"/><line style="stroke:#181818;stroke-width:0.5;stroke-dasharray:5,5;" x1="1586.2134" x2="1586.2134" y1="81.2969" y2="334.3594"/></g></g><g class="participant participant-head" data-entity-uid="part1" data-qualified-name="ATCC" id="part1-head"><text fill="#000000" font-family="sans-serif" font-size="14" lengthAdjust="spacing" textLength="37.6797" x="5" y="77.9951">ATCC</text><ellipse cx="26.8398" cy="13.5" fill="#E2E2F0" rx="8" ry="8" style="stroke:#181818;stroke-width:0.5;"/><path d="M26.8398,21.5 L26.8398,48.5 M13.8398,29.5 L39.8398,29.5 M26.8398,48.5 L13.8398,63.5 M26.8398,48.5 L39.8398,63.5" fill="none" style="stroke:#181818;stroke-width:0.5;"/></g><g class="participant participant-tail" data-entity-uid="part1" data-qualified-name="ATCC" id="part1-tail"><text fill="#000000" font-family="sans-serif" font-size="14" lengthAdjust="spacing" textLength="37.6797" x="5" y="346.3545">ATCC</text><ellipse cx="26.8398" cy="358.1563" fill="#E2E2F0" rx="8" ry="8" style="stroke:#181818;stroke-width:0.5;"/><path d="M26.8398,366.1563 L26.8398,393.1563 M13.8398,374.1563 L39.8398,374.1563 M26.8398,393.1563 L13.8398,408.1563 M26.8398,393.1563 L39.8398,408.1563" fill="none" style="stroke:#181818;stroke-width:0.5;"/></g><g class="participant participant-head" data-entity-uid="part2" data-qualified-name="Ctrl" id="part2-head"><rect fill="#E2E2F0" height="30.2969" rx="2.5" ry="2.5" style="stroke:#181818;stroke-width:0.5;" width="131.0928" x="351.2178" y="50"/><text fill="#000000" font-family="sans-serif" font-size="14" lengthAdjust="spacing" textLength="117.0928" x="358.2178" y="69.9951">AirportController</text></g><g class="participant participant-tail" data-entity-uid="part2" data-qualified-name="Ctrl" id="part2-tail"><rect fill="#E2E2F0" height="30.2969" rx="2.5" ry="2.5" style="stroke:#181818;stroke-width:0.5;" width="131.0928" x="351.2178" y="333.3594"/><text fill="#000000" font-family="sans-serif" font-size="14" lengthAdjust="spacing" textLength="117.0928" x="358.2178" y="353.3545">AirportController</text></g><g class="participant participant-head" data-entity-uid="part3" data-qualified-name="UC" id="part3-head"><rect fill="#E2E2F0" height="30.2969" rx="2.5" ry="2.5" style="stroke:#181818;stroke-width:0.5;" width="170.7412" x="562.415" y="50"/><text fill="#000000" font-family="sans-serif" font-size="14" lengthAdjust="spacing" textLength="156.7412" x="569.415" y="69.9951">SearchAirportUseCase</text></g><g class="participant participant-tail" data-entity-uid="part3" data-qualified-name="UC" id="part3-tail"><rect fill="#E2E2F0" height="30.2969" rx="2.5" ry="2.5" style="stroke:#181818;stroke-width:0.5;" width="170.7412" x="562.415" y="333.3594"/><text fill="#000000" font-family="sans-serif" font-size="14" lengthAdjust="spacing" textLength="156.7412" x="569.415" y="353.3545">SearchAirportUseCase</text></g><g class="participant participant-head" data-entity-uid="part4" data-qualified-name="Repo" id="part4-head"><rect fill="#E2E2F0" height="30.2969" rx="2.5" ry="2.5" style="stroke:#181818;stroke-width:0.5;" width="136.9922" x="852.8784" y="50"/><text fill="#000000" font-family="sans-serif" font-size="14" lengthAdjust="spacing" textLength="122.9922" x="859.8784" y="69.9951">AirportRepository</text></g><g class="participant participant-tail" data-entity-uid="part4" data-qualified-name="Repo" id="part4-tail"><rect fill="#E2E2F0" height="30.2969" rx="2.5" ry="2.5" style="stroke:#181818;stroke-width:0.5;" width="136.9922" x="852.8784" y="333.3594"/><text fill="#000000" font-family="sans-serif" font-size="14" lengthAdjust="spacing" textLength="122.9922" x="859.8784" y="353.3545">AirportRepository</text></g><g class="participant participant-head" data-entity-uid="part5" data-qualified-name="DB" id="part5-head"><text fill="#000000" font-family="sans-serif" font-size="14" lengthAdjust="spacing" textLength="66.8008" x="1550.2134" y="77.9951">Database</text><path d="M1568.6138,29 C1568.6138,19 1586.6138,19 1586.6138,19 C1586.6138,19 1604.6138,19 1604.6138,29 L1604.6138,55 C1604.6138,65 1586.6138,65 1586.6138,65 C1586.6138,65 1568.6138,65 1568.6138,55 L1568.6138,29" fill="#E2E2F0" style="stroke:#181818;stroke-width:0.5;"/><path d="M1568.6138,29 C1568.6138,39 1586.6138,39 1586.6138,39 C1586.6138,39 1604.6138,39 1604.6138,29" fill="none" style="stroke:#181818;stroke-width:0.5;"/></g><g class="participant participant-tail" data-entity-uid="part5" data-qualified-name="DB" id="part5-tail"><text fill="#000000" font-family="sans-serif" font-size="14" lengthAdjust="spacing" textLength="66.8008" x="1550.2134" y="346.3545">Database</text><path d="M1568.6138,359.6563 C1568.6138,349.6563 1586.6138,349.6563 1586.6138,349.6563 C1586.6138,349.6563 1604.6138,349.6563 1604.6138,359.6563 L1604.6138,385.6563 C1604.6138,395.6563 1586.6138,395.6563 1586.6138,395.6563 C1586.6138,395.6563 1568.6138,395.6563 1568.6138,385.6563 L1568.6138,359.6563" fill="#E2E2F0" style="stroke:#181818;stroke-width:0.5;"/><path d="M1568.6138,359.6563 C1568.6138,369.6563 1586.6138,369.6563 1586.6138,369.6563 C1586.6138,369.6563 1604.6138,369.6563 1604.6138,359.6563" fill="none" style="stroke:#181818;stroke-width:0.5;"/></g><g><title>AirportController</title><rect fill="#FFFFFF" height="203.9297" style="stroke:#181818;stroke-width:1;" width="10" x="411.7642" y="112.4297"/></g><g><title>SearchAirportUseCase</title><rect fill="#FFFFFF" height="145.6641" style="stroke:#181818;stroke-width:1;" width="10" x="642.7856" y="141.5625"/></g><g><title>AirportRepository</title><rect fill="#FFFFFF" height="87.3984" style="stroke:#181818;stroke-width:1;" width="10" x="916.3745" y="170.6953"/></g><g><title>Database</title><rect fill="#FFFFFF" height="29.1328" style="stroke:#181818;stroke-width:1;" width="10" x="1581.6138" y="199.8281"/></g><g class="message" data-entity-1="part1" data-entity-2="part2" id="msg1"><polygon fill="#181818" points="399.7642,108.4297,409.7642,112.4297,399.7642,116.4297,403.7642,112.4297" style="stroke:#181818;stroke-width:1;"/><line style="stroke:#181818;stroke-width:1;" x1="26.8398" x2="405.7642" y1="112.4297" y2="112.4297"/><text fill="#000000" font-family="sans-serif" font-size="13" font-weight="bold" lengthAdjust="spacing" textLength="9.0454" x="33.8398" y="107.3638">1</text><text fill="#000000" font-family="sans-serif" font-size="13" lengthAdjust="spacing" textLength="352.8789" x="46.8853" y="107.3638">GET /api/airports/search?name=X&amp;city=Y&amp;country=Z</text></g><g class="message" data-entity-1="part2" data-entity-2="part3" id="msg2"><polygon fill="#181818" points="630.7856,137.5625,640.7856,141.5625,630.7856,145.5625,634.7856,141.5625" style="stroke:#181818;stroke-width:1;"/><line style="stroke:#181818;stroke-width:1;" x1="421.7642" x2="636.7856" y1="141.5625" y2="141.5625"/><text fill="#000000" font-family="sans-serif" font-size="13" font-weight="bold" lengthAdjust="spacing" textLength="9.0454" x="428.7642" y="136.4966">2</text><text fill="#000000" font-family="sans-serif" font-size="13" lengthAdjust="spacing" textLength="188.9761" x="441.8096" y="136.4966">execute(name, city, country)</text></g><g class="message" data-entity-1="part3" data-entity-2="part4" id="msg3"><polygon fill="#181818" points="904.3745,166.6953,914.3745,170.6953,904.3745,174.6953,908.3745,170.6953" style="stroke:#181818;stroke-width:1;"/><line style="stroke:#181818;stroke-width:1;" x1="652.7856" x2="910.3745" y1="170.6953" y2="170.6953"/><text fill="#000000" font-family="sans-serif" font-size="13" font-weight="bold" lengthAdjust="spacing" textLength="9.0454" x="659.7856" y="165.6294">3</text><text fill="#000000" font-family="sans-serif" font-size="13" lengthAdjust="spacing" textLength="231.5435" x="672.8311" y="165.6294">searchAirports(name, city, country)</text></g><g class="message" data-entity-1="part4" data-entity-2="part5" id="msg4"><polygon fill="#181818" points="1569.6138,195.8281,1579.6138,199.8281,1569.6138,203.8281,1573.6138,199.8281" style="stroke:#181818;stroke-width:1;"/><line style="stroke:#181818;stroke-width:1;" x1="926.3745" x2="1575.6138" y1="199.8281" y2="199.8281"/><text fill="#000000" font-family="sans-serif" font-size="13" font-weight="bold" lengthAdjust="spacing" textLength="9.0454" x="933.3745" y="194.7622">4</text><text fill="#000000" font-family="sans-serif" font-size="13" lengthAdjust="spacing" textLength="623.1938" x="946.4199" y="194.7622">SELECT FROM airport WHERE name LIKE ? AND city LIKE ? AND country LIKE ? (Dynamic Query)</text></g><g class="message" data-entity-1="part5" data-entity-2="part4" id="msg5"><polygon fill="#181818" points="937.3745,224.9609,927.3745,228.9609,937.3745,232.9609,933.3745,228.9609" style="stroke:#181818;stroke-width:1;"/><line style="stroke:#181818;stroke-width:1;stroke-dasharray:2,2;" x1="931.3745" x2="1585.6138" y1="228.9609" y2="228.9609"/><text fill="#000000" font-family="sans-serif" font-size="13" font-weight="bold" lengthAdjust="spacing" textLength="9.0454" x="943.3745" y="223.895">5</text><text fill="#000000" font-family="sans-serif" font-size="13" lengthAdjust="spacing" textLength="88.7021" x="956.4199" y="223.895">list of records</text></g><g class="message" data-entity-1="part4" data-entity-2="part3" id="msg6"><polygon fill="#181818" points="663.7856,254.0938,653.7856,258.0938,663.7856,262.0938,659.7856,258.0938" style="stroke:#181818;stroke-width:1;"/><line style="stroke:#181818;stroke-width:1;stroke-dasharray:2,2;" x1="657.7856" x2="920.3745" y1="258.0938" y2="258.0938"/><text fill="#000000" font-family="sans-serif" font-size="13" font-weight="bold" lengthAdjust="spacing" textLength="9.0454" x="669.7856" y="253.0278">6</text><text fill="#000000" font-family="sans-serif" font-size="13" lengthAdjust="spacing" textLength="89.0068" x="682.8311" y="253.0278">List&lt;Airport&gt;</text></g><g class="message" data-entity-1="part3" data-entity-2="part2" id="msg7"><polygon fill="#181818" points="432.7642,283.2266,422.7642,287.2266,432.7642,291.2266,428.7642,287.2266" style="stroke:#181818;stroke-width:1;"/><line style="stroke:#181818;stroke-width:1;stroke-dasharray:2,2;" x1="426.7642" x2="646.7856" y1="287.2266" y2="287.2266"/><text fill="#000000" font-family="sans-serif" font-size="13" font-weight="bold" lengthAdjust="spacing" textLength="9.0454" x="438.7642" y="282.1606">7</text><text fill="#000000" font-family="sans-serif" font-size="13" lengthAdjust="spacing" textLength="43.8369" x="451.8096" y="282.1606">results</text></g><g class="message" data-entity-1="part2" data-entity-2="part1" id="msg8"><polygon fill="#181818" points="37.8398,312.3594,27.8398,316.3594,37.8398,320.3594,33.8398,316.3594" style="stroke:#181818;stroke-width:1;"/><line style="stroke:#181818;stroke-width:1;stroke-dasharray:2,2;" x1="31.8398" x2="415.7642" y1="316.3594" y2="316.3594"/><text fill="#000000" font-family="sans-serif" font-size="13" font-weight="bold" lengthAdjust="spacing" textLength="9.0454" x="43.8398" y="311.2935">8</text><text fill="#000000" font-family="sans-serif" font-size="13" lengthAdjust="spacing" textLength="133.396" x="56.8853" y="311.2935">200 OK (JSON Array)</text></g><?plantuml-src XL5RQy8m57xFhpZu80ucoXvbAffsDvqoQzdbBSOp5gXDITAn_lkTf1LR6EmbvF9TJqJfT5wU3cYOa4uRw2tsdFT0MF0RLWZZb5I5o1qzALDeuxZEdT5PXYRWk3DP5vUWCFAhGQSMkR0OeEdVWZiij5NaNWMKFxAZSE90FEX5pIwyHKl6V30Ope8nJE0-tiD856eaQZKxii5_deiJJj_wKhbg-jwNkgJOrVJ35rNVmc6Td0KPaaivYU4FojBXm7ElmLDfhPbN5oBrO6d8uBCIpRORst_OeLyWaa2q97eIhsE-XxlTzXcQ5l3w4EzYy4gmVbp5C8V59WgQdNEjVhuQH1Knb8IN4ZkUD3To6buIPyewq9zWK6fpjEo8RMoTxZoKDM5lctApDZ8q2PEuV8T1MsQk8-Z7LK-POE7t9d0p7iDs1OEdPBk1XJ62qhOe7luB?></g></svg>