<?plantuml 1.2026.1?><svg xmlns="http://www.w3.org/2000/svg" xmlns:xlink="http://www.w3.org/1999/xlink" contentStyleType="text/css" data-diagram-type="SEQUENCE" height="538px" preserveAspectRatio="none" style="width:1338px;height:538px;background:#FFFFFF;" version="1.1" viewBox="0 0 1338 538" width="1338px" zoomAndPan="magnify"><defs/><g><g><title>AirportController</title><rect fill="#FFFFFF" height="327.5938" style="stroke:#181818;stroke-width:1;" width="10" x="273.5576" y="112.4297"/></g><g><title>RegisterAirportUseCase</title><rect fill="#FFFFFF" height="269.3281" style="stroke:#181818;stroke-width:1;" width="10" x="439.4067" y="141.5625"/></g><g><title>Airport</title><rect fill="#FFFFFF" height="94.5313" style="stroke:#181818;stroke-width:1;" width="10" x="994.4189" y="170.6953"/></g><g><title>AirportRepository</title><rect fill="#FFFFFF" height="87.3984" style="stroke:#181818;stroke-width:1;" width="10" x="1103.875" y="294.3594"/></g><g><title>Database</title><rect fill="#FFFFFF" height="29.1328" style="stroke:#181818;stroke-width:1;" width="10" x="1295.6089" y="323.4922"/></g><g class="participant-lifeline" data-entity-uid="part1" data-qualified-name="BO" id="part1-lifeline"><g><title>Backoffice Operator</title><rect fill="#000000" fill-opacity="0.00000" height="376.7266" width="8" x="73.8633" y="81.2969"/><line style="stroke:#181818;stroke-width:0.5;stroke-dasharray:5,5;" x1="77" x2="77" y1="81.2969" y2="458.0234"/></g></g><g class="participant-lifeline" data-entity-uid="part2" data-qualified-name="Ctrl" id="part2-lifeline"><g><title>AirportController</title><rect fill="#000000" fill-opacity="0.00000" height="376.7266" width="8" x="274.5576" y="81.2969"/><line style="stroke:#181818;stroke-width:0.5;stroke-dasharray:5,5;" x1="278.0112" x2="278.0112" y1="81.2969" y2="458.0234"/></g></g><g class="participant-lifeline" data-entity-uid="part3" data-qualified-name="UC" id="part3-lifeline"><g><title>RegisterAirportUseCase</title><rect fill="#000000" fill-opacity="0.00000" height="376.7266" width="8" x="440.4067" y="81.2969"/><line style="stroke:#181818;stroke-width:0.5;stroke-dasharray:5,5;" x1="444.104" x2="444.104" y1="81.2969" y2="458.0234"/></g></g><g class="participant-lifeline" data-entity-uid="part4" data-qualified-name="Entity" id="part4-lifeline"><g><title>Airport</title><rect fill="#000000" fill-opacity="0.00000" height="376.7266" width="8" x="995.4189" y="81.2969"/><line style="stroke:#181818;stroke-width:0.5;stroke-dasharray:5,5;" x1="998.459" x2="998.459" y1="81.2969" y2="458.0234"/></g></g><g class="participant-lifeline" data-entity-uid="part5" data-qualified-name="Repo" id="part5-lifeline"><g><title>AirportRepository</title><rect fill="#000000" fill-opacity="0.00000" height="376.7266" width="8" x="1104.875" y="81.2969"/><line style="stroke:#181818;stroke-width:0.5;stroke-dasharray:5,5;" x1="1108.3789" x2="1108.3789" y1="81.2969" y2="458.0234"/></g></g><g class="participant-lifeline" data-entity-uid="part6" data-qualified-name="DB" id="part6-lifeline"><g><title>Database</title><rect fill="#000000" fill-opacity="0.00000" height="376.7266" width="8" x="1296.6089" y="81.2969"/><line style="stroke:#181818;stroke-width:0.5;stroke-dasharray:5,5;" x1="1300.2085" x2="1300.2085" y1="81.2969" y2="458.0234"/></g></g><g class="participant participant-head" data-entity-uid="part1" data-qualified-name="BO" id="part1-head"><text fill="#000000" font-family="sans-serif" font-size="14" lengthAdjust="spacing" textLength="139.7266" x="5" y="77.9951">Backoffice Operator</text><ellipse cx="77.8633" cy="13.5" fill="#E2E2F0" rx="8" ry="8" style="stroke:#181818;stroke-width:0.5;"/><path d="M77.8633,21.5 L77.8633,48.5 M64.8633,29.5 L90.8633,29.5 M77.8633,48.5 L64.8633,63.5 M77.8633,48.5 L90.8633,63.5" fill="none" style="stroke:#181818;stroke-width:0.5;"/></g><g class="participant participant-tail" data-entity-uid="part1" data-qualified-name="BO" id="part1-tail"><text fill="#000000" font-family="sans-serif" font-size="14" lengthAdjust="spacing" textLength="139.7266" x="5" y="470.0186">Backoffice Operator</text><ellipse cx="77.8633" cy="481.8203" fill="#E2E2F0" rx="8" ry="8" style="stroke:#181818;stroke-width:0.5;"/><path d="M77.8633,489.8203 L77.8633,516.8203 M64.8633,497.8203 L90.8633,497.8203 M77.8633,516.8203 L64.8633,531.8203 M77.8633,516.8203 L90.8633,531.8203" fill="none" style="stroke:#181818;stroke-width:0.5;"/></g><g class="participant participant-head" data-entity-uid="part2" data-qualified-name="Ctrl" id="part2-head"><rect fill="#E2E2F0" height="30.2969" rx="2.5" ry="2.5" style="stroke:#181818;stroke-width:0.5;" width="131.0928" x="213.0112" y="50"/><text fill="#000000" font-family="sans-serif" font-size="14" lengthAdjust="spacing" textLength="117.0928" x="220.0112" y="69.9951">AirportController</text></g><g class="participant participant-tail" data-entity-uid="part2" data-qualified-name="Ctrl" id="part2-tail"><rect fill="#E2E2F0" height="30.2969" rx="2.5" ry="2.5" style="stroke:#181818;stroke-width:0.5;" width="131.0928" x="213.0112" y="457.0234"/><text fill="#000000" font-family="sans-serif" font-size="14" lengthAdjust="spacing" textLength="117.0928" x="220.0112" y="477.0186">AirportController</text></g><g class="participant participant-head" data-entity-uid="part3" data-qualified-name="UC" id="part3-head"><rect fill="#E2E2F0" height="30.2969" rx="2.5" ry="2.5" style="stroke:#181818;stroke-width:0.5;" width="180.6055" x="354.104" y="50"/><text fill="#000000" font-family="sans-serif" font-size="14" lengthAdjust="spacing" textLength="166.6055" x="361.104" y="69.9951">RegisterAirportUseCase</text></g><g class="participant participant-tail" data-entity-uid="part3" data-qualified-name="UC" id="part3-tail"><rect fill="#E2E2F0" height="30.2969" rx="2.5" ry="2.5" style="stroke:#181818;stroke-width:0.5;" width="180.6055" x="354.104" y="457.0234"/><text fill="#000000" font-family="sans-serif" font-size="14" lengthAdjust="spacing" textLength="166.6055" x="361.104" y="477.0186">RegisterAirportUseCase</text></g><g class="participant participant-head" data-entity-uid="part4" data-qualified-name="Entity" id="part4-head"><rect fill="#E2E2F0" height="30.2969" rx="2.5" ry="2.5" style="stroke:#181818;stroke-width:0.5;" width="61.9199" x="968.459" y="50"/><text fill="#000000" font-family="sans-serif" font-size="14" lengthAdjust="spacing" textLength="47.9199" x="975.459" y="69.9951">Airport</text></g><g class="participant participant-tail" data-entity-uid="part4" data-qualified-name="Entity" id="part4-tail"><rect fill="#E2E2F0" height="30.2969" rx="2.5" ry="2.5" style="stroke:#181818;stroke-width:0.5;" width="61.9199" x="968.459" y="457.0234"/><text fill="#000000" font-family="sans-serif" font-size="14" lengthAdjust="spacing" textLength="47.9199" x="975.459" y="477.0186">Airport</text></g><g class="participant participant-head" data-entity-uid="part5" data-qualified-name="Repo" id="part5-head"><rect fill="#E2E2F0" height="30.2969" rx="2.5" ry="2.5" style="stroke:#181818;stroke-width:0.5;" width="136.9922" x="1040.3789" y="50"/><text fill="#000000" font-family="sans-serif" font-size="14" lengthAdjust="spacing" textLength="122.9922" x="1047.3789" y="69.9951">AirportRepository</text></g><g class="participant participant-tail" data-entity-uid="part5" data-qualified-name="Repo" id="part5-tail"><rect fill="#E2E2F0" height="30.2969" rx="2.5" ry="2.5" style="stroke:#181818;stroke-width:0.5;" width="136.9922" x="1040.3789" y="457.0234"/><text fill="#000000" font-family="sans-serif" font-size="14" lengthAdjust="spacing" textLength="122.9922" x="1047.3789" y="477.0186">AirportRepository</text></g><g class="participant participant-head" data-entity-uid="part6" data-qualified-name="DB" id="part6-head"><text fill="#000000" font-family="sans-serif" font-size="14" lengthAdjust="spacing" textLength="66.8008" x="1264.2085" y="77.9951">Database</text><path d="M1282.6089,29 C1282.6089,19 1300.6089,19 1300.6089,19 C1300.6089,19 1318.6089,19 1318.6089,29 L1318.6089,55 C1318.6089,65 1300.6089,65 1300.6089,65 C1300.6089,65 1282.6089,65 1282.6089,55 L1282.6089,29" fill="#E2E2F0" style="stroke:#181818;stroke-width:0.5;"/><path d="M1282.6089,29 C1282.6089,39 1300.6089,39 1300.6089,39 C1300.6089,39 1318.6089,39 1318.6089,29" fill="none" style="stroke:#181818;stroke-width:0.5;"/></g><g class="participant participant-tail" data-entity-uid="part6" data-qualified-name="DB" id="part6-tail"><text fill="#000000" font-family="sans-serif" font-size="14" lengthAdjust="spacing" textLength="66.8008" x="1264.2085" y="470.0186">Database</text><path d="M1282.6089,483.3203 C1282.6089,473.3203 1300.6089,473.3203 1300.6089,473.3203 C1300.6089,473.3203 1318.6089,473.3203 1318.6089,483.3203 L1318.6089,509.3203 C1318.6089,519.3203 1300.6089,519.3203 1300.6089,519.3203 C1300.6089,519.3203 1282.6089,519.3203 1282.6089,509.3203 L1282.6089,483.3203" fill="#E2E2F0" style="stroke:#181818;stroke-width:0.5;"/><path d="M1282.6089,483.3203 C1282.6089,493.3203 1300.6089,493.3203 1300.6089,493.3203 C1300.6089,493.3203 1318.6089,493.3203 1318.6089,483.3203" fill="none" style="stroke:#181818;stroke-width:0.5;"/></g><g><title>AirportController</title><rect fill="#FFFFFF" height="327.5938" style="stroke:#181818;stroke-width:1;" width="10" x="273.5576" y="112.4297"/></g><g><title>RegisterAirportUseCase</title><rect fill="#FFFFFF" height="269.3281" style="stroke:#181818;stroke-width:1;" width="10" x="439.4067" y="141.5625"/></g><g><title>Airport</title><rect fill="#FFFFFF" height="94.5313" style="stroke:#181818;stroke-width:1;" width="10" x="994.4189" y="170.6953"/></g><g><title>AirportRepository</title><rect fill="#FFFFFF" height="87.3984" style="stroke:#181818;stroke-width:1;" width="10" x="1103.875" y="294.3594"/></g><g><title>Database</title><rect fill="#FFFFFF" height="29.1328" style="stroke:#181818;stroke-width:1;" width="10" x="1295.6089" y="323.4922"/></g><g class="message" data-entity-1="part1" data-entity-2="part2" id="msg1"><polygon fill="#181818" points="261.5576,108.4297,271.5576,112.4297,261.5576,116.4297,265.5576,112.4297" style="stroke:#181818;stroke-width:1;"/><line style="stroke:#181818;stroke-width:1;" x1="77.8633" x2="267.5576" y1="112.4297" y2="112.4297"/><text fill="#000000" font-family="sans-serif" font-size="13" font-weight="bold" lengthAdjust="spacing" textLength="9.0454" x="84.8633" y="107.3638">1</text><text fill="#000000" font-family="sans-serif" font-size="13" lengthAdjust="spacing" textLength="163.6489" x="97.9087" y="107.3638">POST /api/airports (JSON)</text></g><g class="message" data-entity-1="part2" data-entity-2="part3" id="msg2"><polygon fill="#181818" points="427.4067,137.5625,437.4067,141.5625,427.4067,145.5625,431.4067,141.5625" style="stroke:#181818;stroke-width:1;"/><line style="stroke:#181818;stroke-width:1;" x1="283.5576" x2="433.4067" y1="141.5625" y2="141.5625"/><text fill="#000000" font-family="sans-serif" font-size="13" font-weight="bold" lengthAdjust="spacing" textLength="9.0454" x="290.5576" y="136.4966">2</text><text fill="#000000" font-family="sans-serif" font-size="13" lengthAdjust="spacing" textLength="112.0171" x="303.603" y="136.4966">execute(request)</text></g><g class="message" data-entity-1="part3" data-entity-2="part4" id="msg3"><polygon fill="#181818" points="982.4189,166.6953,992.4189,170.6953,982.4189,174.6953,986.4189,170.6953" style="stroke:#181818;stroke-width:1;"/><line style="stroke:#181818;stroke-width:1;" x1="449.4067" x2="988.4189" y1="170.6953" y2="170.6953"/><text fill="#000000" font-family="sans-serif" font-size="13" font-weight="bold" lengthAdjust="spacing" textLength="9.0454" x="456.4067" y="165.6294">3</text><text fill="#000000" font-family="sans-serif" font-size="13" lengthAdjust="spacing" textLength="512.9668" x="469.4521" y="165.6294">new Airport(iataCode, name, city, country, region, timezone, lat, lon, runways)</text></g><path d="M1009,183.6953 L1009,238.6953 L1212,238.6953 L1212,193.6953 L1202,183.6953 L1009,183.6953" fill="#FEFFDD" style="stroke:#181818;stroke-width:0.5;"/><path d="M1202,183.6953 L1202,193.6953 L1212,193.6953 L1202,183.6953" fill="#FEFFDD" style="stroke:#181818;stroke-width:0.5;"/><text fill="#000000" font-family="sans-serif" font-size="13" lengthAdjust="spacing" textLength="145.7295" x="1015" y="200.7622">Validates IATA format,</text><text fill="#000000" font-family="sans-serif" font-size="13" lengthAdjust="spacing" textLength="181.5049" x="1015" y="215.895">non-blank fields, coordinate</text><text fill="#000000" font-family="sans-serif" font-size="13" lengthAdjust="spacing" textLength="182.0508" x="1015" y="231.0278">ranges, at least one runway</text><g class="message" data-entity-1="part4" data-entity-2="part3" id="msg4"><polygon fill="#181818" points="460.4067,261.2266,450.4067,265.2266,460.4067,269.2266,456.4067,265.2266" style="stroke:#181818;stroke-width:1;"/><line style="stroke:#181818;stroke-width:1;stroke-dasharray:2,2;" x1="454.4067" x2="998.4189" y1="265.2266" y2="265.2266"/><text fill="#000000" font-family="sans-serif" font-size="13" font-weight="bold" lengthAdjust="spacing" textLength="9.0454" x="466.4067" y="260.1606">4</text><text fill="#000000" font-family="sans-serif" font-size="13" lengthAdjust="spacing" textLength="43.5703" x="479.4521" y="260.1606">airport</text></g><g class="message" data-entity-1="part3" data-entity-2="part5" id="msg5"><polygon fill="#181818" points="1091.875,290.3594,1101.875,294.3594,1091.875,298.3594,1095.875,294.3594" style="stroke:#181818;stroke-width:1;"/><line style="stroke:#181818;stroke-width:1;" x1="449.4067" x2="1097.875" y1="294.3594" y2="294.3594"/><text fill="#000000" font-family="sans-serif" font-size="13" font-weight="bold" lengthAdjust="spacing" textLength="9.0454" x="456.4067" y="289.2935">5</text><text fill="#000000" font-family="sans-serif" font-size="13" lengthAdjust="spacing" textLength="84.1445" x="469.4521" y="289.2935">save(airport)</text></g><g class="message" data-entity-1="part5" data-entity-2="part6" id="msg6"><polygon fill="#181818" points="1283.6089,319.4922,1293.6089,323.4922,1283.6089,327.4922,1287.6089,323.4922" style="stroke:#181818;stroke-width:1;"/><line style="stroke:#181818;stroke-width:1;" x1="1113.875" x2="1289.6089" y1="323.4922" y2="323.4922"/><text fill="#000000" font-family="sans-serif" font-size="13" font-weight="bold" lengthAdjust="spacing" textLength="9.0454" x="1120.875" y="318.4263">6</text><text fill="#000000" font-family="sans-serif" font-size="13" lengthAdjust="spacing" textLength="130.5649" x="1133.9204" y="318.4263">INSERT INTO airport</text></g><g class="message" data-entity-1="part6" data-entity-2="part5" id="msg7"><polygon fill="#181818" points="1124.875,348.625,1114.875,352.625,1124.875,356.625,1120.875,352.625" style="stroke:#181818;stroke-width:1;"/><line style="stroke:#181818;stroke-width:1;stroke-dasharray:2,2;" x1="1118.875" x2="1299.6089" y1="352.625" y2="352.625"/><text fill="#000000" font-family="sans-serif" font-size="13" font-weight="bold" lengthAdjust="spacing" textLength="9.0454" x="1130.875" y="347.5591">7</text><text fill="#000000" font-family="sans-serif" font-size="13" lengthAdjust="spacing" textLength="144.6885" x="1143.9204" y="347.5591">saved record (with ID)</text></g><g class="message" data-entity-1="part5" data-entity-2="part3" id="msg8"><polygon fill="#181818" points="460.4067,377.7578,450.4067,381.7578,460.4067,385.7578,456.4067,381.7578" style="stroke:#181818;stroke-width:1;"/><line style="stroke:#181818;stroke-width:1;stroke-dasharray:2,2;" x1="454.4067" x2="1107.875" y1="381.7578" y2="381.7578"/><text fill="#000000" font-family="sans-serif" font-size="13" font-weight="bold" lengthAdjust="spacing" textLength="9.0454" x="466.4067" y="376.6919">8</text><text fill="#000000" font-family="sans-serif" font-size="13" lengthAdjust="spacing" textLength="83.1797" x="479.4521" y="376.6919">savedAirport</text></g><g class="message" data-entity-1="part3" data-entity-2="part2" id="msg9"><polygon fill="#181818" points="294.5576,406.8906,284.5576,410.8906,294.5576,414.8906,290.5576,410.8906" style="stroke:#181818;stroke-width:1;"/><line style="stroke:#181818;stroke-width:1;stroke-dasharray:2,2;" x1="288.5576" x2="443.4067" y1="410.8906" y2="410.8906"/><text fill="#000000" font-family="sans-serif" font-size="13" font-weight="bold" lengthAdjust="spacing" textLength="9.0454" x="300.5576" y="405.8247">9</text><text fill="#000000" font-family="sans-serif" font-size="13" lengthAdjust="spacing" textLength="83.1797" x="313.603" y="405.8247">savedAirport</text></g><g class="message" data-entity-1="part2" data-entity-2="part1" id="msg10"><polygon fill="#181818" points="88.8633,436.0234,78.8633,440.0234,88.8633,444.0234,84.8633,440.0234" style="stroke:#181818;stroke-width:1;"/><line style="stroke:#181818;stroke-width:1;stroke-dasharray:2,2;" x1="82.8633" x2="277.5576" y1="440.0234" y2="440.0234"/><text fill="#000000" font-family="sans-serif" font-size="13" font-weight="bold" lengthAdjust="spacing" textLength="18.0908" x="94.8633" y="434.9575">10</text><text fill="#000000" font-family="sans-serif" font-size="13" lengthAdjust="spacing" textLength="126.9976" x="116.9541" y="434.9575">201 Created (JSON)</text></g><?plantuml-src TP8zSzim38Pt_WgS9-KklZGTC_JEaZCuGzJpHwSii0GvlCYWIa9ntLzVYA8JfKqNYY8Vl7W907jnt1_tv0rMuZpCSgnUNDFOYg3ioACUpW03vANfq8kjR8SiC5jOtpalXMFnhcrff0hnxKTkJGSRX7pYTu4A31JXNV6fPBoxPx5o_lH-JPqBLdsT8pdycXe5zweBisNQnRjbRanUmlnRD0PtyBtSRE46Etk3erY0x65JFbuDpxUlA3G-mKHUutQ5Hj4lgdgXpDFFde9CO7s2KKJ1qR32J2T8JZEhPWfNqpKm7dMj5D7LzLeqtNYjZUDh47katuuLQ55q6SvypoSyXqckL19sklVsy2pWclUqFx2rMWKAi5fi5z0uVrIj9sR7ytsB_0ADfROEGthdQylAFh57Ff2UeK1B65IIAQKsINf-gKAgcAdfRqkf14Cdb0luIbc29_PZdoAYw39NSFMukLzlzRCjtyJVS6sTGlEFihMMh5Bta9siFCDgUJLreo6Z_iLn35dyQpjQYQRV9-D_xD3XSHYKrLcwWwzVRg7mf9VrPNWc_C3-0G00?></g></svg>