<?plantuml 1.2026.1?><svg xmlns="http://www.w3.org/2000/svg" xmlns:xlink="http://www.w3.org/1999/xlink" contentStyleType="text/css" data-diagram-type="SEQUENCE" height="802px" preserveAspectRatio="none" style="width:1505px;height:802px;background:#FFFFFF;" version="1.1" viewBox="0 0 1505 802" width="1505px" zoomAndPan="magnify"><defs/><g><g><title>AirportController</title><rect fill="#FFFFFF" height="599.4609" style="stroke:#181818;stroke-width:1;" width="10" x="420.9888" y="112.4297"/></g><g><title>UpdateAirportStatusUseCase</title><rect fill="#FFFFFF" height="344.5938" style="stroke:#181818;stroke-width:1;" width="10" x="631.4819" y="191.8281"/></g><g><title>Airport</title><rect fill="#FFFFFF" height="29.1328" style="stroke:#181818;stroke-width:1;" width="10" x="784.9097" y="337.4922"/></g><g><title>AirportRepository</title><rect fill="#FFFFFF" height="87.3984" style="stroke:#181818;stroke-width:1;" width="10" x="992.6133" y="220.9609"/></g><g><title>AirportRepository</title><rect fill="#FFFFFF" height="111.5313" style="stroke:#181818;stroke-width:1;" width="10" x="992.6133" y="395.7578"/></g><g><title>Database</title><rect fill="#FFFFFF" height="29.1328" style="stroke:#181818;stroke-width:1;" width="10" x="1447.3325" y="250.0938"/></g><g><title>Database</title><rect fill="#FFFFFF" height="53.2656" style="stroke:#181818;stroke-width:1;" width="10" x="1447.3325" y="424.8906"/></g><rect fill="none" height="265" style="stroke:#000000;stroke-width:1.5;" width="1488.7329" x="10" y="439.8906"/><g class="participant-lifeline" data-entity-uid="part1" data-qualified-name="BO" id="part1-lifeline"><g><title>Backoffice Operator</title><rect fill="#000000" fill-opacity="0.00000" height="640.5938" width="8" x="88.8633" y="81.2969"/><line style="stroke:#181818;stroke-width:0.5;stroke-dasharray:5,5;" x1="92" x2="92" y1="81.2969" y2="721.8906"/></g></g><g class="participant-lifeline" data-entity-uid="part2" data-qualified-name="Ctrl" id="part2-lifeline"><g><title>AirportController</title><rect fill="#000000" fill-opacity="0.00000" height="640.5938" width="8" x="421.9888" y="81.2969"/><line style="stroke:#181818;stroke-width:0.5;stroke-dasharray:5,5;" x1="425.4424" x2="425.4424" y1="81.2969" y2="721.8906"/></g></g><g class="participant-lifeline" data-entity-uid="part3" data-qualified-name="UC" id="part3-lifeline"><g><title>UpdateAirportStatusUseCase</title><rect fill="#000000" fill-opacity="0.00000" height="640.5938" width="8" x="632.4819" y="81.2969"/><line style="stroke:#181818;stroke-width:0.5;stroke-dasharray:5,5;" x1="635.6572" x2="635.6572" y1="81.2969" y2="721.8906"/></g></g><g class="participant-lifeline" data-entity-uid="part4" data-qualified-name="Entity" id="part4-lifeline"><g><title>Airport</title><rect fill="#000000" fill-opacity="0.00000" height="640.5938" width="8" x="785.9097" y="81.2969"/><line style="stroke:#181818;stroke-width:0.5;stroke-dasharray:5,5;" x1="788.9497" x2="788.9497" y1="81.2969" y2="721.8906"/></g></g><g class="participant-lifeline" data-entity-uid="part5" data-qualified-name="Repo" id="part5-lifeline"><g><title>AirportRepository</title><rect fill="#000000" fill-opacity="0.00000" height="640.5938" width="8" x="993.6133" y="81.2969"/><line style="stroke:#181818;stroke-width:0.5;stroke-dasharray:5,5;" x1="997.1172" x2="997.1172" y1="81.2969" y2="721.8906"/></g></g><g class="participant-lifeline" data-entity-uid="part6" data-qualified-name="DB" id="part6-lifeline"><g><title>Database</title><rect fill="#000000" fill-opacity="0.00000" height="640.5938" width="8" x="1448.3325" y="81.2969"/><line style="stroke:#181818;stroke-width:0.5;stroke-dasharray:5,5;" x1="1451.9321" x2="1451.9321" y1="81.2969" y2="721.8906"/></g></g><g class="participant participant-head" data-entity-uid="part1" data-qualified-name="BO" id="part1-head"><text fill="#000000" font-family="sans-serif" font-size="14" lengthAdjust="spacing" textLength="139.7266" x="20" y="77.9951">Backoffice Operator</text><ellipse cx="92.8633" cy="13.5" fill="#E2E2F0" rx="8" ry="8" style="stroke:#181818;stroke-width:0.5;"/><path d="M92.8633,21.5 L92.8633,48.5 M79.8633,29.5 L105.8633,29.5 M92.8633,48.5 L79.8633,63.5 M92.8633,48.5 L105.8633,63.5" fill="none" style="stroke:#181818;stroke-width:0.5;"/></g><g class="participant participant-tail" data-entity-uid="part1" data-qualified-name="BO" id="part1-tail"><text fill="#000000" font-family="sans-serif" font-size="14" lengthAdjust="spacing" textLength="139.7266" x="20" y="733.8857">Backoffice Operator</text><ellipse cx="92.8633" cy="745.6875" fill="#E2E2F0" rx="8" ry="8" style="stroke:#181818;stroke-width:0.5;"/><path d="M92.8633,753.6875 L92.8633,780.6875 M79.8633,761.6875 L105.8633,761.6875 M92.8633,780.6875 L79.8633,795.6875 M92.8633,780.6875 L105.8633,795.6875" fill="none" style="stroke:#181818;stroke-width:0.5;"/></g><g class="participant participant-head" data-entity-uid="part2" data-qualified-name="Ctrl" id="part2-head"><rect fill="#E2E2F0" height="30.2969" rx="2.5" ry="2.5" style="stroke:#181818;stroke-width:0.5;" width="131.0928" x="360.4424" y="50"/><text fill="#000000" font-family="sans-serif" font-size="14" lengthAdjust="spacing" textLength="117.0928" x="367.4424" y="69.9951">AirportController</text></g><g class="participant participant-tail" data-entity-uid="part2" data-qualified-name="Ctrl" id="part2-tail"><rect fill="#E2E2F0" height="30.2969" rx="2.5" ry="2.5" style="stroke:#181818;stroke-width:0.5;" width="131.0928" x="360.4424" y="720.8906"/><text fill="#000000" font-family="sans-serif" font-size="14" lengthAdjust="spacing" textLength="117.0928" x="367.4424" y="740.8857">AirportController</text></g><g class="participant participant-head" data-entity-uid="part3" data-qualified-name="UC" id="part3-head"><rect fill="#E2E2F0" height="30.2969" rx="2.5" ry="2.5" style="stroke:#181818;stroke-width:0.5;" width="217.6494" x="527.6572" y="50"/><text fill="#000000" font-family="sans-serif" font-size="14" lengthAdjust="spacing" textLength="203.6494" x="534.6572" y="69.9951">UpdateAirportStatusUseCase</text></g><g class="participant participant-tail" data-entity-uid="part3" data-qualified-name="UC" id="part3-tail"><rect fill="#E2E2F0" height="30.2969" rx="2.5" ry="2.5" style="stroke:#181818;stroke-width:0.5;" width="217.6494" x="527.6572" y="720.8906"/><text fill="#000000" font-family="sans-serif" font-size="14" lengthAdjust="spacing" textLength="203.6494" x="534.6572" y="740.8857">UpdateAirportStatusUseCase</text></g><g class="participant participant-head" data-entity-uid="part4" data-qualified-name="Entity" id="part4-head"><rect fill="#E2E2F0" height="30.2969" rx="2.5" ry="2.5" style="stroke:#181818;stroke-width:0.5;" width="61.9199" x="758.9497" y="50"/><text fill="#000000" font-family="sans-serif" font-size="14" lengthAdjust="spacing" textLength="47.9199" x="765.9497" y="69.9951">Airport</text></g><g class="participant participant-tail" data-entity-uid="part4" data-qualified-name="Entity" id="part4-tail"><rect fill="#E2E2F0" height="30.2969" rx="2.5" ry="2.5" style="stroke:#181818;stroke-width:0.5;" width="61.9199" x="758.9497" y="720.8906"/><text fill="#000000" font-family="sans-serif" font-size="14" lengthAdjust="spacing" textLength="47.9199" x="765.9497" y="740.8857">Airport</text></g><g class="participant participant-head" data-entity-uid="part5" data-qualified-name="Repo" id="part5-head"><rect fill="#E2E2F0" height="30.2969" rx="2.5" ry="2.5" style="stroke:#181818;stroke-width:0.5;" width="136.9922" x="929.1172" y="50"/><text fill="#000000" font-family="sans-serif" font-size="14" lengthAdjust="spacing" textLength="122.9922" x="936.1172" y="69.9951">AirportRepository</text></g><g class="participant participant-tail" data-entity-uid="part5" data-qualified-name="Repo" id="part5-tail"><rect fill="#E2E2F0" height="30.2969" rx="2.5" ry="2.5" style="stroke:#181818;stroke-width:0.5;" width="136.9922" x="929.1172" y="720.8906"/><text fill="#000000" font-family="sans-serif" font-size="14" lengthAdjust="spacing" textLength="122.9922" x="936.1172" y="740.8857">AirportRepository</text></g><g class="participant participant-head" data-entity-uid="part6" data-qualified-name="DB" id="part6-head"><text fill="#000000" font-family="sans-serif" font-size="14" lengthAdjust="spacing" textLength="66.8008" x="1415.9321" y="77.9951">Database</text><path d="M1434.3325,29 C1434.3325,19 1452.3325,19 1452.3325,19 C1452.3325,19 1470.3325,19 1470.3325,29 L1470.3325,55 C1470.3325,65 1452.3325,65 1452.3325,65 C1452.3325,65 1434.3325,65 1434.3325,55 L1434.3325,29" fill="#E2E2F0" style="stroke:#181818;stroke-width:0.5;"/><path d="M1434.3325,29 C1434.3325,39 1452.3325,39 1452.3325,39 C1452.3325,39 1470.3325,39 1470.3325,29" fill="none" style="stroke:#181818;stroke-width:0.5;"/></g><g class="participant participant-tail" data-entity-uid="part6" data-qualified-name="DB" id="part6-tail"><text fill="#000000" font-family="sans-serif" font-size="14" lengthAdjust="spacing" textLength="66.8008" x="1415.9321" y="733.8857">Database</text><path d="M1434.3325,747.1875 C1434.3325,737.1875 1452.3325,737.1875 1452.3325,737.1875 C1452.3325,737.1875 1470.3325,737.1875 1470.3325,747.1875 L1470.3325,773.1875 C1470.3325,783.1875 1452.3325,783.1875 1452.3325,783.1875 C1452.3325,783.1875 1434.3325,783.1875 1434.3325,773.1875 L1434.3325,747.1875" fill="#E2E2F0" style="stroke:#181818;stroke-width:0.5;"/><path d="M1434.3325,747.1875 C1434.3325,757.1875 1452.3325,757.1875 1452.3325,757.1875 C1452.3325,757.1875 1470.3325,757.1875 1470.3325,747.1875" fill="none" style="stroke:#181818;stroke-width:0.5;"/></g><g><title>AirportController</title><rect fill="#FFFFFF" height="599.4609" style="stroke:#181818;stroke-width:1;" width="10" x="420.9888" y="112.4297"/></g><g><title>UpdateAirportStatusUseCase</title><rect fill="#FFFFFF" height="344.5938" style="stroke:#181818;stroke-width:1;" width="10" x="631.4819" y="191.8281"/></g><g><title>Airport</title><rect fill="#FFFFFF" height="29.1328" style="stroke:#181818;stroke-width:1;" width="10" x="784.9097" y="337.4922"/></g><g><title>AirportRepository</title><rect fill="#FFFFFF" height="87.3984" style="stroke:#181818;stroke-width:1;" width="10" x="992.6133" y="220.9609"/></g><g><title>AirportRepository</title><rect fill="#FFFFFF" height="111.5313" style="stroke:#181818;stroke-width:1;" width="10" x="992.6133" y="395.7578"/></g><g><title>Database</title><rect fill="#FFFFFF" height="29.1328" style="stroke:#181818;stroke-width:1;" width="10" x="1447.3325" y="250.0938"/></g><g><title>Database</title><rect fill="#FFFFFF" height="53.2656" style="stroke:#181818;stroke-width:1;" width="10" x="1447.3325" y="424.8906"/></g><g class="message" data-entity-1="part1" data-entity-2="part2" id="msg1"><polygon fill="#181818" points="408.9888,108.4297,418.9888,112.4297,408.9888,116.4297,412.9888,112.4297" style="stroke:#181818;stroke-width:1;"/><line style="stroke:#181818;stroke-width:1;" x1="92.8633" x2="414.9888" y1="112.4297" y2="112.4297"/><text fill="#000000" font-family="sans-serif" font-size="13" font-weight="bold" lengthAdjust="spacing" textLength="9.0454" x="99.8633" y="107.3638">1</text><text fill="#000000" font-family="sans-serif" font-size="13" lengthAdjust="spacing" textLength="296.0801" x="112.9087" y="107.3638">PATCH /api/airports/{iataCode}/status (JSON)</text></g><path d="M435,125.4297 L435,165.4297 L564,165.4297 L564,135.4297 L554,125.4297 L435,125.4297" fill="#FEFFDD" style="stroke:#181818;stroke-width:0.5;"/><path d="M554,125.4297 L554,135.4297 L564,135.4297 L554,125.4297" fill="#FEFFDD" style="stroke:#181818;stroke-width:0.5;"/><text fill="#000000" font-family="sans-serif" font-size="13" lengthAdjust="spacing" textLength="108.437" x="441" y="142.4966">@Valid validates</text><text fill="#000000" font-family="sans-serif" font-size="13" lengthAdjust="spacing" textLength="107.7197" x="441" y="157.6294">status is not null</text><g class="message" data-entity-1="part2" data-entity-2="part3" id="msg2"><polygon fill="#181818" points="619.4819,187.8281,629.4819,191.8281,619.4819,195.8281,623.4819,191.8281" style="stroke:#181818;stroke-width:1;"/><line style="stroke:#181818;stroke-width:1;" x1="430.9888" x2="625.4819" y1="191.8281" y2="191.8281"/><text fill="#000000" font-family="sans-serif" font-size="13" font-weight="bold" lengthAdjust="spacing" textLength="9.0454" x="437.9888" y="186.7622">2</text><text fill="#000000" font-family="sans-serif" font-size="13" lengthAdjust="spacing" textLength="168.4478" x="451.0342" y="186.7622">execute(iataCode, status)</text></g><g class="message" data-entity-1="part3" data-entity-2="part5" id="msg3"><polygon fill="#181818" points="980.6133,216.9609,990.6133,220.9609,980.6133,224.9609,984.6133,220.9609" style="stroke:#181818;stroke-width:1;"/><line style="stroke:#181818;stroke-width:1;" x1="641.4819" x2="986.6133" y1="220.9609" y2="220.9609"/><text fill="#000000" font-family="sans-serif" font-size="13" font-weight="bold" lengthAdjust="spacing" textLength="9.0454" x="648.4819" y="215.895">3</text><text fill="#000000" font-family="sans-serif" font-size="13" lengthAdjust="spacing" textLength="200.7827" x="661.5273" y="215.895">findByIataCodeCode(iataCode)</text></g><g class="message" data-entity-1="part5" data-entity-2="part6" id="msg4"><polygon fill="#181818" points="1435.3325,246.0938,1445.3325,250.0938,1435.3325,254.0938,1439.3325,250.0938" style="stroke:#181818;stroke-width:1;"/><line style="stroke:#181818;stroke-width:1;" x1="1002.6133" x2="1441.3325" y1="250.0938" y2="250.0938"/><text fill="#000000" font-family="sans-serif" font-size="13" font-weight="bold" lengthAdjust="spacing" textLength="9.0454" x="1009.6133" y="245.0278">4</text><text fill="#000000" font-family="sans-serif" font-size="13" lengthAdjust="spacing" textLength="252.4971" x="1022.6587" y="245.0278">SELECT FROM airport WHERE code = ?</text></g><g class="message" data-entity-1="part6" data-entity-2="part5" id="msg5"><polygon fill="#181818" points="1013.6133,275.2266,1003.6133,279.2266,1013.6133,283.2266,1009.6133,279.2266" style="stroke:#181818;stroke-width:1;"/><line style="stroke:#181818;stroke-width:1;stroke-dasharray:2,2;" x1="1007.6133" x2="1451.3325" y1="279.2266" y2="279.2266"/><text fill="#000000" font-family="sans-serif" font-size="13" font-weight="bold" lengthAdjust="spacing" textLength="9.0454" x="1019.6133" y="274.1606">5</text><text fill="#000000" font-family="sans-serif" font-size="13" lengthAdjust="spacing" textLength="89.7432" x="1032.6587" y="274.1606">airport record</text></g><g class="message" data-entity-1="part5" data-entity-2="part3" id="msg6"><polygon fill="#181818" points="652.4819,304.3594,642.4819,308.3594,652.4819,312.3594,648.4819,308.3594" style="stroke:#181818;stroke-width:1;"/><line style="stroke:#181818;stroke-width:1;stroke-dasharray:2,2;" x1="646.4819" x2="996.6133" y1="308.3594" y2="308.3594"/><text fill="#000000" font-family="sans-serif" font-size="13" font-weight="bold" lengthAdjust="spacing" textLength="9.0454" x="658.4819" y="303.2935">6</text><text fill="#000000" font-family="sans-serif" font-size="13" lengthAdjust="spacing" textLength="44.4971" x="671.5273" y="303.2935">Airport</text></g><g class="message" data-entity-1="part3" data-entity-2="part4" id="msg7"><polygon fill="#181818" points="772.9097,333.4922,782.9097,337.4922,772.9097,341.4922,776.9097,337.4922" style="stroke:#181818;stroke-width:1;"/><line style="stroke:#181818;stroke-width:1;" x1="641.4819" x2="778.9097" y1="337.4922" y2="337.4922"/><text fill="#000000" font-family="sans-serif" font-size="13" font-weight="bold" lengthAdjust="spacing" textLength="9.0454" x="648.4819" y="332.4263">7</text><text fill="#000000" font-family="sans-serif" font-size="13" lengthAdjust="spacing" textLength="111.3823" x="661.5273" y="332.4263">setStatus(status)</text></g><g class="message" data-entity-1="part4" data-entity-2="part3" id="msg8"><polygon fill="#181818" points="652.4819,362.625,642.4819,366.625,652.4819,370.625,648.4819,366.625" style="stroke:#181818;stroke-width:1;"/><line style="stroke:#181818;stroke-width:1;stroke-dasharray:2,2;" x1="646.4819" x2="788.9097" y1="366.625" y2="366.625"/><text fill="#000000" font-family="sans-serif" font-size="13" font-weight="bold" lengthAdjust="spacing" textLength="9.0454" x="658.4819" y="361.5591">8</text><text fill="#000000" font-family="sans-serif" font-size="13" lengthAdjust="spacing" textLength="4.1323" x="671.5273" y="361.5591">&#160;</text></g><g class="message" data-entity-1="part3" data-entity-2="part5" id="msg9"><polygon fill="#181818" points="980.6133,391.7578,990.6133,395.7578,980.6133,399.7578,984.6133,395.7578" style="stroke:#181818;stroke-width:1;"/><line style="stroke:#181818;stroke-width:1;" x1="641.4819" x2="986.6133" y1="395.7578" y2="395.7578"/><text fill="#000000" font-family="sans-serif" font-size="13" font-weight="bold" lengthAdjust="spacing" textLength="9.0454" x="648.4819" y="390.6919">9</text><text fill="#000000" font-family="sans-serif" font-size="13" lengthAdjust="spacing" textLength="84.1445" x="661.5273" y="390.6919">save(airport)</text></g><g class="message" data-entity-1="part5" data-entity-2="part6" id="msg10"><polygon fill="#181818" points="1435.3325,420.8906,1445.3325,424.8906,1435.3325,428.8906,1439.3325,424.8906" style="stroke:#181818;stroke-width:1;"/><line style="stroke:#181818;stroke-width:1;" x1="1002.6133" x2="1441.3325" y1="424.8906" y2="424.8906"/><text fill="#000000" font-family="sans-serif" font-size="13" font-weight="bold" lengthAdjust="spacing" textLength="18.0908" x="1009.6133" y="419.8247">10</text><text fill="#000000" font-family="sans-serif" font-size="13" lengthAdjust="spacing" textLength="403.6284" x="1031.7041" y="419.8247">UPDATE airport SET status = ? WHERE id = ? AND version = ?</text></g><path d="M10,439.8906 L74.4429,439.8906 L74.4429,447.0234 L64.4429,457.0234 L10,457.0234 L10,439.8906" fill="#EEEEEE" style="stroke:#000000;stroke-width:1.5;"/><rect fill="none" height="265" style="stroke:#000000;stroke-width:1.5;" width="1488.7329" x="10" y="439.8906"/><text fill="#000000" font-family="sans-serif" font-size="13" font-weight="bold" lengthAdjust="spacing" textLength="19.4429" x="25" y="452.9575">alt</text><text fill="#000000" font-family="sans-serif" font-size="11" font-weight="bold" lengthAdjust="spacing" textLength="295.6948" x="89.4429" y="452.1011">[No concurrent modification (version matches)]</text><g class="message" data-entity-1="part6" data-entity-2="part5" id="msg11"><polygon fill="#181818" points="1013.6133,474.1563,1003.6133,478.1563,1013.6133,482.1563,1009.6133,478.1563" style="stroke:#181818;stroke-width:1;"/><line style="stroke:#181818;stroke-width:1;stroke-dasharray:2,2;" x1="1007.6133" x2="1451.3325" y1="478.1563" y2="478.1563"/><text fill="#000000" font-family="sans-serif" font-size="13" font-weight="bold" lengthAdjust="spacing" textLength="18.0908" x="1019.6133" y="473.0903">11</text><text fill="#000000" font-family="sans-serif" font-size="13" lengthAdjust="spacing" textLength="248.8408" x="1041.7041" y="473.0903">updated record (version incremented)</text></g><g class="message" data-entity-1="part5" data-entity-2="part3" id="msg12"><polygon fill="#181818" points="652.4819,503.2891,642.4819,507.2891,652.4819,511.2891,648.4819,507.2891" style="stroke:#181818;stroke-width:1;"/><line style="stroke:#181818;stroke-width:1;stroke-dasharray:2,2;" x1="646.4819" x2="996.6133" y1="507.2891" y2="507.2891"/><text fill="#000000" font-family="sans-serif" font-size="13" font-weight="bold" lengthAdjust="spacing" textLength="18.0908" x="658.4819" y="502.2231">12</text><text fill="#000000" font-family="sans-serif" font-size="13" lengthAdjust="spacing" textLength="98.5537" x="680.5728" y="502.2231">updatedAirport</text></g><g class="message" data-entity-1="part3" data-entity-2="part2" id="msg13"><polygon fill="#181818" points="441.9888,532.4219,431.9888,536.4219,441.9888,540.4219,437.9888,536.4219" style="stroke:#181818;stroke-width:1;"/><line style="stroke:#181818;stroke-width:1;stroke-dasharray:2,2;" x1="435.9888" x2="635.4819" y1="536.4219" y2="536.4219"/><text fill="#000000" font-family="sans-serif" font-size="13" font-weight="bold" lengthAdjust="spacing" textLength="18.0908" x="447.9888" y="531.356">13</text><text fill="#000000" font-family="sans-serif" font-size="13" lengthAdjust="spacing" textLength="107.5166" x="470.0796" y="531.356">AirportResponse</text></g><g class="message" data-entity-1="part2" data-entity-2="part1" id="msg14"><polygon fill="#181818" points="103.8633,561.5547,93.8633,565.5547,103.8633,569.5547,99.8633,565.5547" style="stroke:#181818;stroke-width:1;"/><line style="stroke:#181818;stroke-width:1;stroke-dasharray:2,2;" x1="97.8633" x2="419.9888" y1="565.5547" y2="565.5547"/><text fill="#000000" font-family="sans-serif" font-size="13" font-weight="bold" lengthAdjust="spacing" textLength="18.0908" x="109.8633" y="560.4888">14</text><text fill="#000000" font-family="sans-serif" font-size="13" lengthAdjust="spacing" textLength="166.1309" x="131.9541" y="560.4888">200 OK (JSON with _links)</text></g><line style="stroke:#000000;stroke-width:1;stroke-dasharray:2,2;" x1="10" x2="1498.7329" y1="574.5547" y2="574.5547"/><text fill="#000000" font-family="sans-serif" font-size="11" font-weight="bold" lengthAdjust="spacing" textLength="343.4224" x="15" y="584.7651">[Concurrent modification detected (version mismatch)]</text><g class="message" data-entity-1="part6" data-entity-2="part5" id="msg15"><polygon fill="#181818" points="1008.6133,605.4922,998.6133,609.4922,1008.6133,613.4922,1004.6133,609.4922" style="stroke:#181818;stroke-width:1;"/><line style="stroke:#181818;stroke-width:1;stroke-dasharray:2,2;" x1="1002.6133" x2="1451.3325" y1="609.4922" y2="609.4922"/><text fill="#000000" font-family="sans-serif" font-size="13" font-weight="bold" lengthAdjust="spacing" textLength="18.0908" x="1014.6133" y="604.4263">15</text><text fill="#000000" font-family="sans-serif" font-size="13" lengthAdjust="spacing" textLength="100.8516" x="1036.7041" y="604.4263">0 rows affected</text></g><g class="message" data-entity-1="part5" data-entity-2="part3" id="msg16"><polygon fill="#181818" points="647.4819,634.625,637.4819,638.625,647.4819,642.625,643.4819,638.625" style="stroke:#181818;stroke-width:1;"/><line style="stroke:#181818;stroke-width:1;stroke-dasharray:2,2;" x1="641.4819" x2="996.6133" y1="638.625" y2="638.625"/><text fill="#000000" font-family="sans-serif" font-size="13" font-weight="bold" lengthAdjust="spacing" textLength="18.0908" x="653.4819" y="633.5591">16</text><text fill="#000000" font-family="sans-serif" font-size="13" lengthAdjust="spacing" textLength="315.0405" x="675.5728" y="633.5591">throws ObjectOptimisticLockingFailureException</text></g><g class="message" data-entity-1="part3" data-entity-2="part2" id="msg17"><polygon fill="#181818" points="441.9888,663.7578,431.9888,667.7578,441.9888,671.7578,437.9888,667.7578" style="stroke:#181818;stroke-width:1;"/><line style="stroke:#181818;stroke-width:1;stroke-dasharray:2,2;" x1="435.9888" x2="635.4819" y1="667.7578" y2="667.7578"/><text fill="#000000" font-family="sans-serif" font-size="13" font-weight="bold" lengthAdjust="spacing" textLength="18.0908" x="447.9888" y="662.6919">17</text><text fill="#000000" font-family="sans-serif" font-size="13" lengthAdjust="spacing" textLength="141.978" x="470.0796" y="662.6919">exception propagates</text></g><g class="message" data-entity-1="part2" data-entity-2="part1" id="msg18"><polygon fill="#181818" points="103.8633,692.8906,93.8633,696.8906,103.8633,700.8906,99.8633,696.8906" style="stroke:#181818;stroke-width:1;"/><line style="stroke:#181818;stroke-width:1;stroke-dasharray:2,2;" x1="97.8633" x2="419.9888" y1="696.8906" y2="696.8906"/><text fill="#000000" font-family="sans-serif" font-size="13" font-weight="bold" lengthAdjust="spacing" textLength="18.0908" x="109.8633" y="691.8247">18</text><text fill="#000000" font-family="sans-serif" font-size="13" lengthAdjust="spacing" textLength="78.2603" x="131.9541" y="691.8247">409 Conflict</text></g><?plantuml-src VPHRZzem48NVyoj6F56f25JrfIlr0Y6hRRibAoxjIwNAE1Dm2NPaE-oYLVzxnuu3YRBj0oXXpZVsEVR0AgjaTToYZXYtIiDWnlX1vRdW26c9cj6F0s06PcbKCcq55oMJ5WPJeKkbRQoarQeei5R5LXTTtQRCcCMWNbbcAxCn63E37jZ4BxRrjKHQOSylrfTOAYDeRsUlTAyHhSEsr1S6y_3aQ_DP5CrI67tmcuCRU9YkupiOirACMTtDZ9y58R7AyC_O-3t2yCigNRnogOWJ6QYTHLBHenQxlGMLDmq_VMU5oE3alabgVihGGnWW06HL4Eh5j8jDJ0W-8Qyi3fjbNqEDj1QaP2BI4k7S4PCBcStEdmFXFXUyXVaeF47aV4RSAhbFuZNSBjDl40p3ZxjacG0d5Dx3nojDOH4pkYxQ01gvqbcKOLjQBzDu2aVJrlZD11VrQPBEOBW7mvxdSE91MdTkzmlrRYw6dN0OzldV83OFy-awkLXQ9UkGkiiWH4Bdw5wcYpcSK1kXP2-WY1KM5ehIaxpI6kbQ7bKcQ6IOTVfX0nwPvNiaVm3TK2i_4ra8zGe8oJKUgI5c3kg63T2DEpHfKk_8lNTmkj7rtbz6nvHA6kmIb3FKGaVGlDp0cya4qg_r8C2Zi7luLGXv83zOq9J5_x2VeKNkt5rp4CP7qGzY0bez6c1vxf6UHxltzNJxc-ffQGMrel-2UyKFGkvkcIWgZSaJnz8jtNECJGLAhKgsSyFPi_bsyivvoGl1ROGoYzeNpad_0W00?></g></svg>