<?plantuml 1.2026.1?><svg xmlns="http://www.w3.org/2000/svg" xmlns:xlink="http://www.w3.org/1999/xlink" contentStyleType="text/css" data-diagram-type="SEQUENCE" height="538px" preserveAspectRatio="none" style="width:1387px;height:538px;background:#FFFFFF;" version="1.1" viewBox="0 0 1387 538" width="1387px" zoomAndPan="magnify"><defs/><g><g><title>AirportController</title><rect fill="#FFFFFF" height="327.5938" style="stroke:#181818;stroke-width:1;" width="10" x="323.061" y="112.4297"/></g><g><title>RegisterAirportUseCase</title><rect fill="#FFFFFF" height="203.9297" style="stroke:#181818;stroke-width:1;" width="10" x="488.9102" y="206.9609"/></g><g><title>Airport</title><rect fill="#FFFFFF" height="29.1328" style="stroke:#181818;stroke-width:1;" width="10" x="1043.9224" y="236.0938"/></g><g><title>AirportRepository</title><rect fill="#FFFFFF" height="87.3984" style="stroke:#181818;stroke-width:1;" width="10" x="1153.3784" y="294.3594"/></g><g><title>Database</title><rect fill="#FFFFFF" height="29.1328" style="stroke:#181818;stroke-width:1;" width="10" x="1345.1123" y="323.4922"/></g><g class="participant-lifeline" data-entity-uid="part1" data-qualified-name="BO" id="part1-lifeline"><g><title>Backoffice Operator</title><rect fill="#000000" fill-opacity="0.00000" height="376.7266" width="8" x="73.8633" y="81.2969"/><line style="stroke:#181818;stroke-width:0.5;stroke-dasharray:5,5;" x1="77" x2="77" y1="81.2969" y2="458.0234"/></g></g><g class="participant-lifeline" data-entity-uid="part2" data-qualified-name="Ctrl" id="part2-lifeline"><g><title>AirportController</title><rect fill="#000000" fill-opacity="0.00000" height="376.7266" width="8" x="324.061" y="81.2969"/><line style="stroke:#181818;stroke-width:0.5;stroke-dasharray:5,5;" x1="327.5146" x2="327.5146" y1="81.2969" y2="458.0234"/></g></g><g class="participant-lifeline" data-entity-uid="part3" data-qualified-name="UC" id="part3-lifeline"><g><title>RegisterAirportUseCase</title><rect fill="#000000" fill-opacity="0.00000" height="376.7266" width="8" x="489.9102" y="81.2969"/><line style="stroke:#181818;stroke-width:0.5;stroke-dasharray:5,5;" x1="493.6074" x2="493.6074" y1="81.2969" y2="458.0234"/></g></g><g class="participant-lifeline" data-entity-uid="part4" data-qualified-name="Entity" id="part4-lifeline"><g><title>Airport</title><rect fill="#000000" fill-opacity="0.00000" height="376.7266" width="8" x="1044.9224" y="81.2969"/><line style="stroke:#181818;stroke-width:0.5;stroke-dasharray:5,5;" x1="1047.9624" x2="1047.9624" y1="81.2969" y2="458.0234"/></g></g><g class="participant-lifeline" data-entity-uid="part5" data-qualified-name="Repo" id="part5-lifeline"><g><title>AirportRepository</title><rect fill="#000000" fill-opacity="0.00000" height="376.7266" width="8" x="1154.3784" y="81.2969"/><line style="stroke:#181818;stroke-width:0.5;stroke-dasharray:5,5;" x1="1157.8823" x2="1157.8823" y1="81.2969" y2="458.0234"/></g></g><g class="participant-lifeline" data-entity-uid="part6" data-qualified-name="DB" id="part6-lifeline"><g><title>Database</title><rect fill="#000000" fill-opacity="0.00000" height="376.7266" width="8" x="1346.1123" y="81.2969"/><line style="stroke:#181818;stroke-width:0.5;stroke-dasharray:5,5;" x1="1349.7119" x2="1349.7119" y1="81.2969" y2="458.0234"/></g></g><g class="participant participant-head" data-entity-uid="part1" data-qualified-name="BO" id="part1-head"><text fill="#000000" font-family="sans-serif" font-size="14" lengthAdjust="spacing" textLength="139.7266" x="5" y="77.9951">Backoffice Operator</text><ellipse cx="77.8633" cy="13.5" fill="#E2E2F0" rx="8" ry="8" style="stroke:#181818;stroke-width:0.5;"/><path d="M77.8633,21.5 L77.8633,48.5 M64.8633,29.5 L90.8633,29.5 M77.8633,48.5 L64.8633,63.5 M77.8633,48.5 L90.8633,63.5" fill="none" style="stroke:#181818;stroke-width:0.5;"/></g><g class="participant participant-tail" data-entity-uid="part1" data-qualified-name="BO" id="part1-tail"><text fill="#000000" font-family="sans-serif" font-size="14" lengthAdjust="spacing" textLength="139.7266" x="5" y="470.0186">Backoffice Operator</text><ellipse cx="77.8633" cy="481.8203" fill="#E2E2F0" rx="8" ry="8" style="stroke:#181818;stroke-width:0.5;"/><path d="M77.8633,489.8203 L77.8633,516.8203 M64.8633,497.8203 L90.8633,497.8203 M77.8633,516.8203 L64.8633,531.8203 M77.8633,516.8203 L90.8633,531.8203" fill="none" style="stroke:#181818;stroke-width:0.5;"/></g><g class="participant participant-head" data-entity-uid="part2" data-qualified-name="Ctrl" id="part2-head"><rect fill="#E2E2F0" height="30.2969" rx="2.5" ry="2.5" style="stroke:#181818;stroke-width:0.5;" width="131.0928" x="262.5146" y="50"/><text fill="#000000" font-family="sans-serif" font-size="14" lengthAdjust="spacing" textLength="117.0928" x="269.5146" y="69.9951">AirportController</text></g><g class="participant participant-tail" data-entity-uid="part2" data-qualified-name="Ctrl" id="part2-tail"><rect fill="#E2E2F0" height="30.2969" rx="2.5" ry="2.5" style="stroke:#181818;stroke-width:0.5;" width="131.0928" x="262.5146" y="457.0234"/><text fill="#000000" font-family="sans-serif" font-size="14" lengthAdjust="spacing" textLength="117.0928" x="269.5146" y="477.0186">AirportController</text></g><g class="participant participant-head" data-entity-uid="part3" data-qualified-name="UC" id="part3-head"><rect fill="#E2E2F0" height="30.2969" rx="2.5" ry="2.5" style="stroke:#181818;stroke-width:0.5;" width="180.6055" x="403.6074" y="50"/><text fill="#000000" font-family="sans-serif" font-size="14" lengthAdjust="spacing" textLength="166.6055" x="410.6074" y="69.9951">RegisterAirportUseCase</text></g><g class="participant participant-tail" data-entity-uid="part3" data-qualified-name="UC" id="part3-tail"><rect fill="#E2E2F0" height="30.2969" rx="2.5" ry="2.5" style="stroke:#181818;stroke-width:0.5;" width="180.6055" x="403.6074" y="457.0234"/><text fill="#000000" font-family="sans-serif" font-size="14" lengthAdjust="spacing" textLength="166.6055" x="410.6074" y="477.0186">RegisterAirportUseCase</text></g><g class="participant participant-head" data-entity-uid="part4" data-qualified-name="Entity" id="part4-head"><rect fill="#E2E2F0" height="30.2969" rx="2.5" ry="2.5" style="stroke:#181818;stroke-width:0.5;" width="61.9199" x="1017.9624" y="50"/><text fill="#000000" font-family="sans-serif" font-size="14" lengthAdjust="spacing" textLength="47.9199" x="1024.9624" y="69.9951">Airport</text></g><g class="participant participant-tail" data-entity-uid="part4" data-qualified-name="Entity" id="part4-tail"><rect fill="#E2E2F0" height="30.2969" rx="2.5" ry="2.5" style="stroke:#181818;stroke-width:0.5;" width="61.9199" x="1017.9624" y="457.0234"/><text fill="#000000" font-family="sans-serif" font-size="14" lengthAdjust="spacing" textLength="47.9199" x="1024.9624" y="477.0186">Airport</text></g><g class="participant participant-head" data-entity-uid="part5" data-qualified-name="Repo" id="part5-head"><rect fill="#E2E2F0" height="30.2969" rx="2.5" ry="2.5" style="stroke:#181818;stroke-width:0.5;" width="136.9922" x="1089.8823" y="50"/><text fill="#000000" font-family="sans-serif" font-size="14" lengthAdjust="spacing" textLength="122.9922" x="1096.8823" y="69.9951">AirportRepository</text></g><g class="participant participant-tail" data-entity-uid="part5" data-qualified-name="Repo" id="part5-tail"><rect fill="#E2E2F0" height="30.2969" rx="2.5" ry="2.5" style="stroke:#181818;stroke-width:0.5;" width="136.9922" x="1089.8823" y="457.0234"/><text fill="#000000" font-family="sans-serif" font-size="14" lengthAdjust="spacing" textLength="122.9922" x="1096.8823" y="477.0186">AirportRepository</text></g><g class="participant participant-head" data-entity-uid="part6" data-qualified-name="DB" id="part6-head"><text fill="#000000" font-family="sans-serif" font-size="14" lengthAdjust="spacing" textLength="66.8008" x="1313.7119" y="77.9951">Database</text><path d="M1332.1123,29 C1332.1123,19 1350.1123,19 1350.1123,19 C1350.1123,19 1368.1123,19 1368.1123,29 L1368.1123,55 C1368.1123,65 1350.1123,65 1350.1123,65 C1350.1123,65 1332.1123,65 1332.1123,55 L1332.1123,29" fill="#E2E2F0" style="stroke:#181818;stroke-width:0.5;"/><path d="M1332.1123,29 C1332.1123,39 1350.1123,39 1350.1123,39 C1350.1123,39 1368.1123,39 1368.1123,29" fill="none" style="stroke:#181818;stroke-width:0.5;"/></g><g class="participant participant-tail" data-entity-uid="part6" data-qualified-name="DB" id="part6-tail"><text fill="#000000" font-family="sans-serif" font-size="14" lengthAdjust="spacing" textLength="66.8008" x="1313.7119" y="470.0186">Database</text><path d="M1332.1123,483.3203 C1332.1123,473.3203 1350.1123,473.3203 1350.1123,473.3203 C1350.1123,473.3203 1368.1123,473.3203 1368.1123,483.3203 L1368.1123,509.3203 C1368.1123,519.3203 1350.1123,519.3203 1350.1123,519.3203 C1350.1123,519.3203 1332.1123,519.3203 1332.1123,509.3203 L1332.1123,483.3203" fill="#E2E2F0" style="stroke:#181818;stroke-width:0.5;"/><path d="M1332.1123,483.3203 C1332.1123,493.3203 1350.1123,493.3203 1350.1123,493.3203 C1350.1123,493.3203 1368.1123,493.3203 1368.1123,483.3203" fill="none" style="stroke:#181818;stroke-width:0.5;"/></g><g><title>AirportController</title><rect fill="#FFFFFF" height="327.5938" style="stroke:#181818;stroke-width:1;" width="10" x="323.061" y="112.4297"/></g><g><title>RegisterAirportUseCase</title><rect fill="#FFFFFF" height="203.9297" style="stroke:#181818;stroke-width:1;" width="10" x="488.9102" y="206.9609"/></g><g><title>Airport</title><rect fill="#FFFFFF" height="29.1328" style="stroke:#181818;stroke-width:1;" width="10" x="1043.9224" y="236.0938"/></g><g><title>AirportRepository</title><rect fill="#FFFFFF" height="87.3984" style="stroke:#181818;stroke-width:1;" width="10" x="1153.3784" y="294.3594"/></g><g><title>Database</title><rect fill="#FFFFFF" height="29.1328" style="stroke:#181818;stroke-width:1;" width="10" x="1345.1123" y="323.4922"/></g><g class="message" data-entity-1="part1" data-entity-2="part2" id="msg1"><polygon fill="#181818" points="311.061,108.4297,321.061,112.4297,311.061,116.4297,315.061,112.4297" style="stroke:#181818;stroke-width:1;"/><line style="stroke:#181818;stroke-width:1;" x1="77.8633" x2="317.061" y1="112.4297" y2="112.4297"/><text fill="#000000" font-family="sans-serif" font-size="13" font-weight="bold" lengthAdjust="spacing" textLength="9.0454" x="84.8633" y="107.3638">1</text><text fill="#000000" font-family="sans-serif" font-size="13" lengthAdjust="spacing" textLength="163.6489" x="97.9087" y="107.3638">POST /api/airports (JSON)</text></g><path d="M338,125.4297 L338,180.4297 L552,180.4297 L552,135.4297 L542,125.4297 L338,125.4297" fill="#FEFFDD" style="stroke:#181818;stroke-width:0.5;"/><path d="M542,125.4297 L542,135.4297 L552,135.4297 L542,125.4297" fill="#FEFFDD" style="stroke:#181818;stroke-width:0.5;"/><text fill="#000000" font-family="sans-serif" font-size="13" lengthAdjust="spacing" textLength="193.9971" x="344" y="142.4966">@Valid validates IATA format,</text><text fill="#000000" font-family="sans-serif" font-size="13" lengthAdjust="spacing" textLength="181.5049" x="344" y="157.6294">non-blank fields, coordinate</text><text fill="#000000" font-family="sans-serif" font-size="13" lengthAdjust="spacing" textLength="182.0508" x="344" y="172.7622">ranges, at least one runway</text><g class="message" data-entity-1="part2" data-entity-2="part3" id="msg2"><polygon fill="#181818" points="476.9102,202.9609,486.9102,206.9609,476.9102,210.9609,480.9102,206.9609" style="stroke:#181818;stroke-width:1;"/><line style="stroke:#181818;stroke-width:1;" x1="333.061" x2="482.9102" y1="206.9609" y2="206.9609"/><text fill="#000000" font-family="sans-serif" font-size="13" font-weight="bold" lengthAdjust="spacing" textLength="9.0454" x="340.061" y="201.895">2</text><text fill="#000000" font-family="sans-serif" font-size="13" lengthAdjust="spacing" textLength="112.0171" x="353.1064" y="201.895">execute(request)</text></g><g class="message" data-entity-1="part3" data-entity-2="part4" id="msg3"><polygon fill="#181818" points="1031.9224,232.0938,1041.9224,236.0938,1031.9224,240.0938,1035.9224,236.0938" style="stroke:#181818;stroke-width:1;"/><line style="stroke:#181818;stroke-width:1;" x1="498.9102" x2="1037.9224" y1="236.0938" y2="236.0938"/><text fill="#000000" font-family="sans-serif" font-size="13" font-weight="bold" lengthAdjust="spacing" textLength="9.0454" x="505.9102" y="231.0278">3</text><text fill="#000000" font-family="sans-serif" font-size="13" lengthAdjust="spacing" textLength="512.9668" x="518.9556" y="231.0278">new Airport(iataCode, name, city, country, region, timezone, lat, lon, runways)</text></g><g class="message" data-entity-1="part4" data-entity-2="part3" id="msg4"><polygon fill="#181818" points="509.9102,261.2266,499.9102,265.2266,509.9102,269.2266,505.9102,265.2266" style="stroke:#181818;stroke-width:1;"/><line style="stroke:#181818;stroke-width:1;stroke-dasharray:2,2;" x1="503.9102" x2="1047.9224" y1="265.2266" y2="265.2266"/><text fill="#000000" font-family="sans-serif" font-size="13" font-weight="bold" lengthAdjust="spacing" textLength="9.0454" x="515.9102" y="260.1606">4</text><text fill="#000000" font-family="sans-serif" font-size="13" lengthAdjust="spacing" textLength="43.5703" x="528.9556" y="260.1606">airport</text></g><g class="message" data-entity-1="part3" data-entity-2="part5" id="msg5"><polygon fill="#181818" points="1141.3784,290.3594,1151.3784,294.3594,1141.3784,298.3594,1145.3784,294.3594" style="stroke:#181818;stroke-width:1;"/><line style="stroke:#181818;stroke-width:1;" x1="498.9102" x2="1147.3784" y1="294.3594" y2="294.3594"/><text fill="#000000" font-family="sans-serif" font-size="13" font-weight="bold" lengthAdjust="spacing" textLength="9.0454" x="505.9102" y="289.2935">5</text><text fill="#000000" font-family="sans-serif" font-size="13" lengthAdjust="spacing" textLength="84.1445" x="518.9556" y="289.2935">save(airport)</text></g><g class="message" data-entity-1="part5" data-entity-2="part6" id="msg6"><polygon fill="#181818" points="1333.1123,319.4922,1343.1123,323.4922,1333.1123,327.4922,1337.1123,323.4922" style="stroke:#181818;stroke-width:1;"/><line style="stroke:#181818;stroke-width:1;" x1="1163.3784" x2="1339.1123" y1="323.4922" y2="323.4922"/><text fill="#000000" font-family="sans-serif" font-size="13" font-weight="bold" lengthAdjust="spacing" textLength="9.0454" x="1170.3784" y="318.4263">6</text><text fill="#000000" font-family="sans-serif" font-size="13" lengthAdjust="spacing" textLength="130.5649" x="1183.4238" y="318.4263">INSERT INTO airport</text></g><g class="message" data-entity-1="part6" data-entity-2="part5" id="msg7"><polygon fill="#181818" points="1174.3784,348.625,1164.3784,352.625,1174.3784,356.625,1170.3784,352.625" style="stroke:#181818;stroke-width:1;"/><line style="stroke:#181818;stroke-width:1;stroke-dasharray:2,2;" x1="1168.3784" x2="1349.1123" y1="352.625" y2="352.625"/><text fill="#000000" font-family="sans-serif" font-size="13" font-weight="bold" lengthAdjust="spacing" textLength="9.0454" x="1180.3784" y="347.5591">7</text><text fill="#000000" font-family="sans-serif" font-size="13" lengthAdjust="spacing" textLength="144.6885" x="1193.4238" y="347.5591">saved record (with ID)</text></g><g class="message" data-entity-1="part5" data-entity-2="part3" id="msg8"><polygon fill="#181818" points="509.9102,377.7578,499.9102,381.7578,509.9102,385.7578,505.9102,381.7578" style="stroke:#181818;stroke-width:1;"/><line style="stroke:#181818;stroke-width:1;stroke-dasharray:2,2;" x1="503.9102" x2="1157.3784" y1="381.7578" y2="381.7578"/><text fill="#000000" font-family="sans-serif" font-size="13" font-weight="bold" lengthAdjust="spacing" textLength="9.0454" x="515.9102" y="376.6919">8</text><text fill="#000000" font-family="sans-serif" font-size="13" lengthAdjust="spacing" textLength="83.1797" x="528.9556" y="376.6919">savedAirport</text></g><g class="message" data-entity-1="part3" data-entity-2="part2" id="msg9"><polygon fill="#181818" points="344.061,406.8906,334.061,410.8906,344.061,414.8906,340.061,410.8906" style="stroke:#181818;stroke-width:1;"/><line style="stroke:#181818;stroke-width:1;stroke-dasharray:2,2;" x1="338.061" x2="492.9102" y1="410.8906" y2="410.8906"/><text fill="#000000" font-family="sans-serif" font-size="13" font-weight="bold" lengthAdjust="spacing" textLength="9.0454" x="350.061" y="405.8247">9</text><text fill="#000000" font-family="sans-serif" font-size="13" lengthAdjust="spacing" textLength="107.5166" x="363.1064" y="405.8247">AirportResponse</text></g><g class="message" data-entity-1="part2" data-entity-2="part1" id="msg10"><polygon fill="#181818" points="88.8633,436.0234,78.8633,440.0234,88.8633,444.0234,84.8633,440.0234" style="stroke:#181818;stroke-width:1;"/><line style="stroke:#181818;stroke-width:1;stroke-dasharray:2,2;" x1="82.8633" x2="327.061" y1="440.0234" y2="440.0234"/><text fill="#000000" font-family="sans-serif" font-size="13" font-weight="bold" lengthAdjust="spacing" textLength="18.0908" x="94.8633" y="434.9575">10</text><text fill="#000000" font-family="sans-serif" font-size="13" lengthAdjust="spacing" textLength="199.1069" x="116.9541" y="434.9575">201 Created (JSON with _links)</text></g><?plantuml-src RP9DRzim38Rl-XL4JYxWe5kFFGoBdHwoGrtaOwS20sFJgH15SYKwQVRhHyjEvcozoBBua7pvWIqxsnwsv1MMx3nCCYpthgvrIL0qv54U9u01ia8rw5cNka7BC9bftpZFkRFidJ7KKpbxSyijQQS3an_uJQ0S0qLuatyQCjgUB6i-VsfVKkE25btdI7Q_gaB6hSI5oNouHTiyKoehOFej2eD7U2bMQxZ7HjzZ7on0ycDLFDzrvUiZClKbAElawlNkZS7L5-_lFz7e2exTAMY0nMmzWzhv0tBwQgspqwr1kuTQawb22gLplj9Ms5VhqUv8tf3140Q9QoL3QqzuLYec49cRNDBG1vKjK-BflQN08stICIM8W7r_1BPqWg4nYPRQSrTH2XOFSfQ2T29QcP5Sl8p2sHHO7-YtP4_1Y6umtLil98no3HCO4aqlueQ-gOh-9GTbtJo42tYaP817KUEq8YBeF1DmyRnwMgxbiowkmQ-u352WwMtOIYeffR6Gd3I_mM9-DrOZBdtyY-BeCljVTfGIHV_TZ-kAXSRPG6Eywtq_9i5bgHxXuSjNo3s9iUgt2AAUNqRRVRZHrFdz0G00?></g></svg>