<?plantuml 1.2026.1?><svg xmlns="http://www.w3.org/2000/svg" xmlns:xlink="http://www.w3.org/1999/xlink" contentStyleType="text/css" data-diagram-type="SEQUENCE" height="764px" preserveAspectRatio="none" style="width:1766px;height:764px;background:#FFFFFF;" version="1.1" viewBox="0 0 1766 764" width="1766px" zoomAndPan="magnify"><defs/><g><g><title>AirportController</title><rect fill="#FFFFFF" height="553.5234" style="stroke:#181818;stroke-width:1;" width="10" x="466.6064" y="112.4297"/></g><g><title>AddAirportCertificationUseCase</title><rect fill="#FFFFFF" height="495.2578" style="stroke:#181818;stroke-width:1;" width="10" x="686.856" y="141.5625"/></g><g><title>AirportRepository</title><rect fill="#FFFFFF" height="87.3984" style="stroke:#181818;stroke-width:1;" width="10" x="929.6841" y="170.6953"/></g><g><title>AircraftModelRepository</title><rect fill="#FFFFFF" height="87.3984" style="stroke:#181818;stroke-width:1;" width="10" x="1099.5698" y="287.2266"/></g><g><title>AircraftCertificationRepository</title><rect fill="#FFFFFF" height="87.3984" style="stroke:#181818;stroke-width:1;" width="10" x="1314.0498" y="403.7578"/></g><g><title>AircraftCertificationRepository</title><rect fill="#FFFFFF" height="87.3984" style="stroke:#181818;stroke-width:1;" width="10" x="1314.0498" y="520.2891"/></g><g><title>Database</title><rect fill="#FFFFFF" height="29.1328" style="stroke:#181818;stroke-width:1;" width="10" x="1723.7959" y="199.8281"/></g><g><title>Database</title><rect fill="#FFFFFF" height="29.1328" style="stroke:#181818;stroke-width:1;" width="10" x="1723.7959" y="316.3594"/></g><g><title>Database</title><rect fill="#FFFFFF" height="29.1328" style="stroke:#181818;stroke-width:1;" width="10" x="1723.7959" y="432.8906"/></g><g><title>Database</title><rect fill="#FFFFFF" height="29.1328" style="stroke:#181818;stroke-width:1;" width="10" x="1723.7959" y="549.4219"/></g><g class="participant-lifeline" data-entity-uid="part1" data-qualified-name="Actor" id="part1-lifeline"><g><title>Backoffice Operator . ATCC</title><rect fill="#000000" fill-opacity="0.00000" height="602.6563" width="8" x="99.5117" y="81.2969"/><line style="stroke:#181818;stroke-width:0.5;stroke-dasharray:5,5;" x1="103" x2="103" y1="81.2969" y2="683.9531"/></g></g><g class="participant-lifeline" data-entity-uid="part2" data-qualified-name="Ctrl" id="part2-lifeline"><g><title>AirportController</title><rect fill="#000000" fill-opacity="0.00000" height="602.6563" width="8" x="467.6064" y="81.2969"/><line style="stroke:#181818;stroke-width:0.5;stroke-dasharray:5,5;" x1="471.0601" x2="471.0601" y1="81.2969" y2="683.9531"/></g></g><g class="participant-lifeline" data-entity-uid="part3" data-qualified-name="UC" id="part3-lifeline"><g><title>AddAirportCertificationUseCase</title><rect fill="#000000" fill-opacity="0.00000" height="602.6563" width="8" x="687.856" y="81.2969"/><line style="stroke:#181818;stroke-width:0.5;stroke-dasharray:5,5;" x1="691.2949" x2="691.2949" y1="81.2969" y2="683.9531"/></g></g><g class="participant-lifeline" data-entity-uid="part4" data-qualified-name="AirportRepo" id="part4-lifeline"><g><title>AirportRepository</title><rect fill="#000000" fill-opacity="0.00000" height="602.6563" width="8" x="930.6841" y="81.2969"/><line style="stroke:#181818;stroke-width:0.5;stroke-dasharray:5,5;" x1="934.188" x2="934.188" y1="81.2969" y2="683.9531"/></g></g><g class="participant-lifeline" data-entity-uid="part5" data-qualified-name="ModelRepo" id="part5-lifeline"><g><title>AircraftModelRepository</title><rect fill="#000000" fill-opacity="0.00000" height="602.6563" width="8" x="1100.5698" y="81.2969"/><line style="stroke:#181818;stroke-width:0.5;stroke-dasharray:5,5;" x1="1104.1802" x2="1104.1802" y1="81.2969" y2="683.9531"/></g></g><g class="participant-lifeline" data-entity-uid="part6" data-qualified-name="CertRepo" id="part6-lifeline"><g><title>AircraftCertificationRepository</title><rect fill="#000000" fill-opacity="0.00000" height="602.6563" width="8" x="1315.0498" y="81.2969"/><line style="stroke:#181818;stroke-width:0.5;stroke-dasharray:5,5;" x1="1318.9595" x2="1318.9595" y1="81.2969" y2="683.9531"/></g></g><g class="participant-lifeline" data-entity-uid="part7" data-qualified-name="DB" id="part7-lifeline"><g><title>Database</title><rect fill="#000000" fill-opacity="0.00000" height="602.6563" width="8" x="1724.7959" y="81.2969"/><line style="stroke:#181818;stroke-width:0.5;stroke-dasharray:5,5;" x1="1728.3955" x2="1728.3955" y1="81.2969" y2="683.9531"/></g></g><g class="participant participant-head" data-entity-uid="part1" data-qualified-name="Actor" id="part1-head"><text fill="#000000" font-family="sans-serif" font-size="14" lengthAdjust="spacing" textLength="191.0234" x="5" y="77.9951">Backoffice Operator / ATCC</text><ellipse cx="103.5117" cy="13.5" fill="#E2E2F0" rx="8" ry="8" style="stroke:#181818;stroke-width:0.5;"/><path d="M103.5117,21.5 L103.5117,48.5 M90.5117,29.5 L116.5117,29.5 M103.5117,48.5 L90.5117,63.5 M103.5117,48.5 L116.5117,63.5" fill="none" style="stroke:#181818;stroke-width:0.5;"/></g><g class="participant participant-tail" data-entity-uid="part1" data-qualified-name="Actor" id="part1-tail"><text fill="#000000" font-family="sans-serif" font-size="14" lengthAdjust="spacing" textLength="191.0234" x="5" y="695.9482">Backoffice Operator / ATCC</text><ellipse cx="103.5117" cy="707.75" fill="#E2E2F0" rx="8" ry="8" style="stroke:#181818;stroke-width:0.5;"/><path d="M103.5117,715.75 L103.5117,742.75 M90.5117,723.75 L116.5117,723.75 M103.5117,742.75 L90.5117,757.75 M103.5117,742.75 L116.5117,757.75" fill="none" style="stroke:#181818;stroke-width:0.5;"/></g><g class="participant participant-head" data-entity-uid="part2" data-qualified-name="Ctrl" id="part2-head"><rect fill="#E2E2F0" height="30.2969" rx="2.5" ry="2.5" style="stroke:#181818;stroke-width:0.5;" width="131.0928" x="406.0601" y="50"/><text fill="#000000" font-family="sans-serif" font-size="14" lengthAdjust="spacing" textLength="117.0928" x="413.0601" y="69.9951">AirportController</text></g><g class="participant participant-tail" data-entity-uid="part2" data-qualified-name="Ctrl" id="part2-tail"><rect fill="#E2E2F0" height="30.2969" rx="2.5" ry="2.5" style="stroke:#181818;stroke-width:0.5;" width="131.0928" x="406.0601" y="682.9531"/><text fill="#000000" font-family="sans-serif" font-size="14" lengthAdjust="spacing" textLength="117.0928" x="413.0601" y="702.9482">AirportController</text></g><g class="participant participant-head" data-entity-uid="part3" data-qualified-name="UC" id="part3-head"><rect fill="#E2E2F0" height="30.2969" rx="2.5" ry="2.5" style="stroke:#181818;stroke-width:0.5;" width="235.1221" x="574.2949" y="50"/><text fill="#000000" font-family="sans-serif" font-size="14" lengthAdjust="spacing" textLength="221.1221" x="581.2949" y="69.9951">AddAirportCertificationUseCase</text></g><g class="participant participant-tail" data-entity-uid="part3" data-qualified-name="UC" id="part3-tail"><rect fill="#E2E2F0" height="30.2969" rx="2.5" ry="2.5" style="stroke:#181818;stroke-width:0.5;" width="235.1221" x="574.2949" y="682.9531"/><text fill="#000000" font-family="sans-serif" font-size="14" lengthAdjust="spacing" textLength="221.1221" x="581.2949" y="702.9482">AddAirportCertificationUseCase</text></g><g class="participant participant-head" data-entity-uid="part4" data-qualified-name="AirportRepo" id="part4-head"><rect fill="#E2E2F0" height="30.2969" rx="2.5" ry="2.5" style="stroke:#181818;stroke-width:0.5;" width="136.9922" x="866.188" y="50"/><text fill="#000000" font-family="sans-serif" font-size="14" lengthAdjust="spacing" textLength="122.9922" x="873.188" y="69.9951">AirportRepository</text></g><g class="participant participant-tail" data-entity-uid="part4" data-qualified-name="AirportRepo" id="part4-tail"><rect fill="#E2E2F0" height="30.2969" rx="2.5" ry="2.5" style="stroke:#181818;stroke-width:0.5;" width="136.9922" x="866.188" y="682.9531"/><text fill="#000000" font-family="sans-serif" font-size="14" lengthAdjust="spacing" textLength="122.9922" x="873.188" y="702.9482">AirportRepository</text></g><g class="participant participant-head" data-entity-uid="part5" data-qualified-name="ModelRepo" id="part5-head"><rect fill="#E2E2F0" height="30.2969" rx="2.5" ry="2.5" style="stroke:#181818;stroke-width:0.5;" width="182.7793" x="1013.1802" y="50"/><text fill="#000000" font-family="sans-serif" font-size="14" lengthAdjust="spacing" textLength="168.7793" x="1020.1802" y="69.9951">AircraftModelRepository</text></g><g class="participant participant-tail" data-entity-uid="part5" data-qualified-name="ModelRepo" id="part5-tail"><rect fill="#E2E2F0" height="30.2969" rx="2.5" ry="2.5" style="stroke:#181818;stroke-width:0.5;" width="182.7793" x="1013.1802" y="682.9531"/><text fill="#000000" font-family="sans-serif" font-size="14" lengthAdjust="spacing" textLength="168.7793" x="1020.1802" y="702.9482">AircraftModelRepository</text></g><g class="participant participant-head" data-entity-uid="part6" data-qualified-name="CertRepo" id="part6-head"><rect fill="#E2E2F0" height="30.2969" rx="2.5" ry="2.5" style="stroke:#181818;stroke-width:0.5;" width="226.1807" x="1205.9595" y="50"/><text fill="#000000" font-family="sans-serif" font-size="14" lengthAdjust="spacing" textLength="212.1807" x="1212.9595" y="69.9951">AircraftCertificationRepository</text></g><g class="participant participant-tail" data-entity-uid="part6" data-qualified-name="CertRepo" id="part6-tail"><rect fill="#E2E2F0" height="30.2969" rx="2.5" ry="2.5" style="stroke:#181818;stroke-width:0.5;" width="226.1807" x="1205.9595" y="682.9531"/><text fill="#000000" font-family="sans-serif" font-size="14" lengthAdjust="spacing" textLength="212.1807" x="1212.9595" y="702.9482">AircraftCertificationRepository</text></g><g class="participant participant-head" data-entity-uid="part7" data-qualified-name="DB" id="part7-head"><text fill="#000000" font-family="sans-serif" font-size="14" lengthAdjust="spacing" textLength="66.8008" x="1692.3955" y="77.9951">Database</text><path d="M1710.7959,29 C1710.7959,19 1728.7959,19 1728.7959,19 C1728.7959,19 1746.7959,19 1746.7959,29 L1746.7959,55 C1746.7959,65 1728.7959,65 1728.7959,65 C1728.7959,65 1710.7959,65 1710.7959,55 L1710.7959,29" fill="#E2E2F0" style="stroke:#181818;stroke-width:0.5;"/><path d="M1710.7959,29 C1710.7959,39 1728.7959,39 1728.7959,39 C1728.7959,39 1746.7959,39 1746.7959,29" fill="none" style="stroke:#181818;stroke-width:0.5;"/></g><g class="participant participant-tail" data-entity-uid="part7" data-qualified-name="DB" id="part7-tail"><text fill="#000000" font-family="sans-serif" font-size="14" lengthAdjust="spacing" textLength="66.8008" x="1692.3955" y="695.9482">Database</text><path d="M1710.7959,709.25 C1710.7959,699.25 1728.7959,699.25 1728.7959,699.25 C1728.7959,699.25 1746.7959,699.25 1746.7959,709.25 L1746.7959,735.25 C1746.7959,745.25 1728.7959,745.25 1728.7959,745.25 C1728.7959,745.25 1710.7959,745.25 1710.7959,735.25 L1710.7959,709.25" fill="#E2E2F0" style="stroke:#181818;stroke-width:0.5;"/><path d="M1710.7959,709.25 C1710.7959,719.25 1728.7959,719.25 1728.7959,719.25 C1728.7959,719.25 1746.7959,719.25 1746.7959,709.25" fill="none" style="stroke:#181818;stroke-width:0.5;"/></g><g><title>AirportController</title><rect fill="#FFFFFF" height="553.5234" style="stroke:#181818;stroke-width:1;" width="10" x="466.6064" y="112.4297"/></g><g><title>AddAirportCertificationUseCase</title><rect fill="#FFFFFF" height="495.2578" style="stroke:#181818;stroke-width:1;" width="10" x="686.856" y="141.5625"/></g><g><title>AirportRepository</title><rect fill="#FFFFFF" height="87.3984" style="stroke:#181818;stroke-width:1;" width="10" x="929.6841" y="170.6953"/></g><g><title>AircraftModelRepository</title><rect fill="#FFFFFF" height="87.3984" style="stroke:#181818;stroke-width:1;" width="10" x="1099.5698" y="287.2266"/></g><g><title>AircraftCertificationRepository</title><rect fill="#FFFFFF" height="87.3984" style="stroke:#181818;stroke-width:1;" width="10" x="1314.0498" y="403.7578"/></g><g><title>AircraftCertificationRepository</title><rect fill="#FFFFFF" height="87.3984" style="stroke:#181818;stroke-width:1;" width="10" x="1314.0498" y="520.2891"/></g><g><title>Database</title><rect fill="#FFFFFF" height="29.1328" style="stroke:#181818;stroke-width:1;" width="10" x="1723.7959" y="199.8281"/></g><g><title>Database</title><rect fill="#FFFFFF" height="29.1328" style="stroke:#181818;stroke-width:1;" width="10" x="1723.7959" y="316.3594"/></g><g><title>Database</title><rect fill="#FFFFFF" height="29.1328" style="stroke:#181818;stroke-width:1;" width="10" x="1723.7959" y="432.8906"/></g><g><title>Database</title><rect fill="#FFFFFF" height="29.1328" style="stroke:#181818;stroke-width:1;" width="10" x="1723.7959" y="549.4219"/></g><g class="message" data-entity-1="part1" data-entity-2="part2" id="msg1"><polygon fill="#181818" points="454.6064,108.4297,464.6064,112.4297,454.6064,116.4297,458.6064,112.4297" style="stroke:#181818;stroke-width:1;"/><line style="stroke:#181818;stroke-width:1;" x1="103.5117" x2="460.6064" y1="112.4297" y2="112.4297"/><text fill="#000000" font-family="sans-serif" font-size="13" font-weight="bold" lengthAdjust="spacing" textLength="9.0454" x="110.5117" y="107.3638">1</text><text fill="#000000" font-family="sans-serif" font-size="13" lengthAdjust="spacing" textLength="331.0493" x="123.5571" y="107.3638">POST /api/airports/{iataCode}/certifications (JSON)</text></g><g class="message" data-entity-1="part2" data-entity-2="part3" id="msg2"><polygon fill="#181818" points="674.856,137.5625,684.856,141.5625,674.856,145.5625,678.856,141.5625" style="stroke:#181818;stroke-width:1;"/><line style="stroke:#181818;stroke-width:1;" x1="476.6064" x2="680.856" y1="141.5625" y2="141.5625"/><text fill="#000000" font-family="sans-serif" font-size="13" font-weight="bold" lengthAdjust="spacing" textLength="9.0454" x="483.6064" y="136.4966">2</text><text fill="#000000" font-family="sans-serif" font-size="13" lengthAdjust="spacing" textLength="178.2041" x="496.6519" y="136.4966">execute(iataCode, request)</text></g><g class="message" data-entity-1="part3" data-entity-2="part4" id="msg3"><polygon fill="#181818" points="917.6841,166.6953,927.6841,170.6953,917.6841,174.6953,921.6841,170.6953" style="stroke:#181818;stroke-width:1;"/><line style="stroke:#181818;stroke-width:1;" x1="696.856" x2="923.6841" y1="170.6953" y2="170.6953"/><text fill="#000000" font-family="sans-serif" font-size="13" font-weight="bold" lengthAdjust="spacing" textLength="9.0454" x="703.856" y="165.6294">3</text><text fill="#000000" font-family="sans-serif" font-size="13" lengthAdjust="spacing" textLength="200.7827" x="716.9014" y="165.6294">findByIataCodeCode(iataCode)</text></g><g class="message" data-entity-1="part4" data-entity-2="part7" id="msg4"><polygon fill="#181818" points="1711.7959,195.8281,1721.7959,199.8281,1711.7959,203.8281,1715.7959,199.8281" style="stroke:#181818;stroke-width:1;"/><line style="stroke:#181818;stroke-width:1;" x1="939.6841" x2="1717.7959" y1="199.8281" y2="199.8281"/><text fill="#000000" font-family="sans-serif" font-size="13" font-weight="bold" lengthAdjust="spacing" textLength="9.0454" x="946.6841" y="194.7622">4</text><text fill="#000000" font-family="sans-serif" font-size="13" lengthAdjust="spacing" textLength="252.4971" x="959.7295" y="194.7622">SELECT FROM airport WHERE code = ?</text></g><g class="message" data-entity-1="part7" data-entity-2="part4" id="msg5"><polygon fill="#181818" points="950.6841,224.9609,940.6841,228.9609,950.6841,232.9609,946.6841,228.9609" style="stroke:#181818;stroke-width:1;"/><line style="stroke:#181818;stroke-width:1;stroke-dasharray:2,2;" x1="944.6841" x2="1727.7959" y1="228.9609" y2="228.9609"/><text fill="#000000" font-family="sans-serif" font-size="13" font-weight="bold" lengthAdjust="spacing" textLength="9.0454" x="956.6841" y="223.895">5</text><text fill="#000000" font-family="sans-serif" font-size="13" lengthAdjust="spacing" textLength="89.7432" x="969.7295" y="223.895">airport record</text></g><g class="message" data-entity-1="part4" data-entity-2="part3" id="msg6"><polygon fill="#181818" points="707.856,254.0938,697.856,258.0938,707.856,262.0938,703.856,258.0938" style="stroke:#181818;stroke-width:1;"/><line style="stroke:#181818;stroke-width:1;stroke-dasharray:2,2;" x1="701.856" x2="933.6841" y1="258.0938" y2="258.0938"/><text fill="#000000" font-family="sans-serif" font-size="13" font-weight="bold" lengthAdjust="spacing" textLength="9.0454" x="713.856" y="253.0278">6</text><text fill="#000000" font-family="sans-serif" font-size="13" lengthAdjust="spacing" textLength="44.4971" x="726.9014" y="253.0278">Airport</text></g><g class="message" data-entity-1="part3" data-entity-2="part5" id="msg7"><polygon fill="#181818" points="1087.5698,283.2266,1097.5698,287.2266,1087.5698,291.2266,1091.5698,287.2266" style="stroke:#181818;stroke-width:1;"/><line style="stroke:#181818;stroke-width:1;" x1="696.856" x2="1093.5698" y1="287.2266" y2="287.2266"/><text fill="#000000" font-family="sans-serif" font-size="13" font-weight="bold" lengthAdjust="spacing" textLength="9.0454" x="703.856" y="282.1606">7</text><text fill="#000000" font-family="sans-serif" font-size="13" lengthAdjust="spacing" textLength="161.6938" x="716.9014" y="282.1606">findById(aircraftModelId)</text></g><g class="message" data-entity-1="part5" data-entity-2="part7" id="msg8"><polygon fill="#181818" points="1711.7959,312.3594,1721.7959,316.3594,1711.7959,320.3594,1715.7959,316.3594" style="stroke:#181818;stroke-width:1;"/><line style="stroke:#181818;stroke-width:1;" x1="1109.5698" x2="1717.7959" y1="316.3594" y2="316.3594"/><text fill="#000000" font-family="sans-serif" font-size="13" font-weight="bold" lengthAdjust="spacing" textLength="9.0454" x="1116.5698" y="311.2935">8</text><text fill="#000000" font-family="sans-serif" font-size="13" lengthAdjust="spacing" textLength="283.4736" x="1129.6152" y="311.2935">SELECT FROM aircraft_model WHERE id = ?</text></g><g class="message" data-entity-1="part7" data-entity-2="part5" id="msg9"><polygon fill="#181818" points="1120.5698,341.4922,1110.5698,345.4922,1120.5698,349.4922,1116.5698,345.4922" style="stroke:#181818;stroke-width:1;"/><line style="stroke:#181818;stroke-width:1;stroke-dasharray:2,2;" x1="1114.5698" x2="1727.7959" y1="345.4922" y2="345.4922"/><text fill="#000000" font-family="sans-serif" font-size="13" font-weight="bold" lengthAdjust="spacing" textLength="9.0454" x="1126.5698" y="340.4263">9</text><text fill="#000000" font-family="sans-serif" font-size="13" lengthAdjust="spacing" textLength="86.6519" x="1139.6152" y="340.4263">model record</text></g><g class="message" data-entity-1="part5" data-entity-2="part3" id="msg10"><polygon fill="#181818" points="707.856,370.625,697.856,374.625,707.856,378.625,703.856,374.625" style="stroke:#181818;stroke-width:1;"/><line style="stroke:#181818;stroke-width:1;stroke-dasharray:2,2;" x1="701.856" x2="1103.5698" y1="374.625" y2="374.625"/><text fill="#000000" font-family="sans-serif" font-size="13" font-weight="bold" lengthAdjust="spacing" textLength="18.0908" x="713.856" y="369.5591">10</text><text fill="#000000" font-family="sans-serif" font-size="13" lengthAdjust="spacing" textLength="87.0137" x="735.9468" y="369.5591">AircraftModel</text></g><g class="message" data-entity-1="part3" data-entity-2="part6" id="msg11"><polygon fill="#181818" points="1302.0498,399.7578,1312.0498,403.7578,1302.0498,407.7578,1306.0498,403.7578" style="stroke:#181818;stroke-width:1;"/><line style="stroke:#181818;stroke-width:1;" x1="696.856" x2="1308.0498" y1="403.7578" y2="403.7578"/><text fill="#000000" font-family="sans-serif" font-size="13" font-weight="bold" lengthAdjust="spacing" textLength="18.0908" x="703.856" y="398.6919">11</text><text fill="#000000" font-family="sans-serif" font-size="13" lengthAdjust="spacing" textLength="338.0825" x="725.9468" y="398.6919">existsByAirportAndAircraftModelId(airport, modelId)</text></g><g class="message" data-entity-1="part6" data-entity-2="part7" id="msg12"><polygon fill="#181818" points="1711.7959,428.8906,1721.7959,432.8906,1711.7959,436.8906,1715.7959,432.8906" style="stroke:#181818;stroke-width:1;"/><line style="stroke:#181818;stroke-width:1;" x1="1324.0498" x2="1717.7959" y1="432.8906" y2="432.8906"/><text fill="#000000" font-family="sans-serif" font-size="13" font-weight="bold" lengthAdjust="spacing" textLength="18.0908" x="1331.0498" y="427.8247">12</text><text fill="#000000" font-family="sans-serif" font-size="13" lengthAdjust="spacing" textLength="358.6553" x="1353.1406" y="427.8247">SELECT COUNT(*) FROM airport_certification WHERE ...</text></g><g class="message" data-entity-1="part7" data-entity-2="part6" id="msg13"><polygon fill="#181818" points="1335.0498,458.0234,1325.0498,462.0234,1335.0498,466.0234,1331.0498,462.0234" style="stroke:#181818;stroke-width:1;"/><line style="stroke:#181818;stroke-width:1;stroke-dasharray:2,2;" x1="1329.0498" x2="1727.7959" y1="462.0234" y2="462.0234"/><text fill="#000000" font-family="sans-serif" font-size="13" font-weight="bold" lengthAdjust="spacing" textLength="18.0908" x="1341.0498" y="456.9575">13</text><text fill="#000000" font-family="sans-serif" font-size="13" lengthAdjust="spacing" textLength="8.271" x="1363.1406" y="456.9575">0</text></g><g class="message" data-entity-1="part6" data-entity-2="part3" id="msg14"><polygon fill="#181818" points="707.856,487.1563,697.856,491.1563,707.856,495.1563,703.856,491.1563" style="stroke:#181818;stroke-width:1;"/><line style="stroke:#181818;stroke-width:1;stroke-dasharray:2,2;" x1="701.856" x2="1318.0498" y1="491.1563" y2="491.1563"/><text fill="#000000" font-family="sans-serif" font-size="13" font-weight="bold" lengthAdjust="spacing" textLength="18.0908" x="713.856" y="486.0903">14</text><text fill="#000000" font-family="sans-serif" font-size="13" lengthAdjust="spacing" textLength="30.9258" x="735.9468" y="486.0903">false</text></g><g class="message" data-entity-1="part3" data-entity-2="part6" id="msg15"><polygon fill="#181818" points="1302.0498,516.2891,1312.0498,520.2891,1302.0498,524.2891,1306.0498,520.2891" style="stroke:#181818;stroke-width:1;"/><line style="stroke:#181818;stroke-width:1;" x1="696.856" x2="1308.0498" y1="520.2891" y2="520.2891"/><text fill="#000000" font-family="sans-serif" font-size="13" font-weight="bold" lengthAdjust="spacing" textLength="18.0908" x="703.856" y="515.2231">15</text><text fill="#000000" font-family="sans-serif" font-size="13" lengthAdjust="spacing" textLength="301.3486" x="725.9468" y="515.2231">save(new AircraftCertification(airport, model))</text></g><g class="message" data-entity-1="part6" data-entity-2="part7" id="msg16"><polygon fill="#181818" points="1711.7959,545.4219,1721.7959,549.4219,1711.7959,553.4219,1715.7959,549.4219" style="stroke:#181818;stroke-width:1;"/><line style="stroke:#181818;stroke-width:1;" x1="1324.0498" x2="1717.7959" y1="549.4219" y2="549.4219"/><text fill="#000000" font-family="sans-serif" font-size="13" font-weight="bold" lengthAdjust="spacing" textLength="18.0908" x="1331.0498" y="544.356">16</text><text fill="#000000" font-family="sans-serif" font-size="13" lengthAdjust="spacing" textLength="214.4683" x="1353.1406" y="544.356">INSERT INTO airport_certification</text></g><g class="message" data-entity-1="part7" data-entity-2="part6" id="msg17"><polygon fill="#181818" points="1335.0498,574.5547,1325.0498,578.5547,1335.0498,582.5547,1331.0498,578.5547" style="stroke:#181818;stroke-width:1;"/><line style="stroke:#181818;stroke-width:1;stroke-dasharray:2,2;" x1="1329.0498" x2="1727.7959" y1="578.5547" y2="578.5547"/><text fill="#000000" font-family="sans-serif" font-size="13" font-weight="bold" lengthAdjust="spacing" textLength="18.0908" x="1341.0498" y="573.4888">17</text><text fill="#000000" font-family="sans-serif" font-size="13" lengthAdjust="spacing" textLength="144.6885" x="1363.1406" y="573.4888">saved record (with ID)</text></g><g class="message" data-entity-1="part6" data-entity-2="part3" id="msg18"><polygon fill="#181818" points="707.856,603.6875,697.856,607.6875,707.856,611.6875,703.856,607.6875" style="stroke:#181818;stroke-width:1;"/><line style="stroke:#181818;stroke-width:1;stroke-dasharray:2,2;" x1="701.856" x2="1318.0498" y1="607.6875" y2="607.6875"/><text fill="#000000" font-family="sans-serif" font-size="13" font-weight="bold" lengthAdjust="spacing" textLength="18.0908" x="713.856" y="602.6216">18</text><text fill="#000000" font-family="sans-serif" font-size="13" lengthAdjust="spacing" textLength="118.0156" x="735.9468" y="602.6216">savedCertification</text></g><g class="message" data-entity-1="part3" data-entity-2="part2" id="msg19"><polygon fill="#181818" points="487.6064,632.8203,477.6064,636.8203,487.6064,640.8203,483.6064,636.8203" style="stroke:#181818;stroke-width:1;"/><line style="stroke:#181818;stroke-width:1;stroke-dasharray:2,2;" x1="481.6064" x2="690.856" y1="636.8203" y2="636.8203"/><text fill="#000000" font-family="sans-serif" font-size="13" font-weight="bold" lengthAdjust="spacing" textLength="18.0908" x="493.6064" y="631.7544">19</text><text fill="#000000" font-family="sans-serif" font-size="13" lengthAdjust="spacing" textLength="118.0156" x="515.6973" y="631.7544">savedCertification</text></g><g class="message" data-entity-1="part2" data-entity-2="part1" id="msg20"><polygon fill="#181818" points="114.5117,661.9531,104.5117,665.9531,114.5117,669.9531,110.5117,665.9531" style="stroke:#181818;stroke-width:1;"/><line style="stroke:#181818;stroke-width:1;stroke-dasharray:2,2;" x1="108.5117" x2="470.6064" y1="665.9531" y2="665.9531"/><text fill="#000000" font-family="sans-serif" font-size="13" font-weight="bold" lengthAdjust="spacing" textLength="18.0908" x="120.5117" y="660.8872">20</text><text fill="#000000" font-family="sans-serif" font-size="13" lengthAdjust="spacing" textLength="126.9976" x="142.6025" y="660.8872">201 Created (JSON)</text></g><?plantuml-src ZLJHRfim57tdAwxoHAOsT7kij4xWC2tJ6gQ4Q8-LYo-QDGhCTjf5q_vznXWmXAnxG23xddFFERwO7bLL7fyUKNWqKvM0HKIp7rMUymmXgL7GPZ60C2La0LH2s5HvDHMAPxocfO95o4LT2KMgKecgA52OGg94CQbZh2j5lQnRKCMhyY2HK8a6T22pr3kiAybrurEhOLWzAyy4pTLznR2OWFgrUSX8qWJQx1aaeue-QgsmMDilix-EFC_a0jTtnZVSmjTadq90QnxGLgqCVdCD8bh6do1pkqdmF--JxR8v0VvC5RRPUOP9Cnw8viDVc1qL-Xt75GZyUKIf79XEpzF56k8afB4vBrbqsbXay_Gq3jfDrSLhkdMaMVRnbvYay76Nt8Fr1Dy-nRiOCaq4x-73mAKJqPZhCoKTJc1M2UOnT16Zffrlk-YMkaAjt_vm1xVCf-uqR9XZTPY50NZ1fc5uU6hAh5lEBdbrLRI8MPzEJyVb8DKj7vHQfzqicf7WKidePFC8InQE7VisxgjMpIY2VgPxmaa093biK__DSdJW3wF1jO6iLgkvD1obDvC4XfvT03aj9BfLlRvptv8-er_Y2yp-knFJo__olDdkursgNsaoR_KLWuqaPayR_1UkliDclNpLjO6Dr5-EOBXQ_ergBe7svcZ-FdChtSAxcxT01EfzrbqsRYDT_XS0?></g></svg>