<svg xmlns="http://www.w3.org/2000/svg" xmlns:xlink="http://www.w3.org/1999/xlink" contentStyleType="text/css" data-diagram-type="SEQUENCE" height="589px" preserveAspectRatio="none" style="width:1216px;height:589px;background:#FFFFFF;" version="1.1" viewBox="0 0 1216 589" width="1216px" zoomAndPan="magnify"><defs/><g><g><title>AirportController</title><rect fill="#FFFFFF" height="378.7266" style="stroke:#181818;stroke-width:1;" width="10" x="405.9888" y="112.4297"/></g><g><title>UpdateAirportStatusUseCase</title><rect fill="#FFFFFF" height="320.4609" style="stroke:#181818;stroke-width:1;" width="10" x="616.4819" y="141.5625"/></g><g><title>Airport</title><rect fill="#FFFFFF" height="29.1328" style="stroke:#181818;stroke-width:1;" width="10" x="769.9097" y="287.2266"/></g><g><title>AirportRepository</title><rect fill="#FFFFFF" height="87.3984" style="stroke:#181818;stroke-width:1;" width="10" x="879.3657" y="170.6953"/></g><g><title>AirportRepository</title><rect fill="#FFFFFF" height="87.3984" style="stroke:#181818;stroke-width:1;" width="10" x="879.3657" y="345.4922"/></g><g><title>Database</title><rect fill="#FFFFFF" height="29.1328" style="stroke:#181818;stroke-width:1;" width="10" x="1173.9082" y="199.8281"/></g><g><title>Database</title><rect fill="#FFFFFF" height="29.1328" style="stroke:#181818;stroke-width:1;" width="10" x="1173.9082" y="374.625"/></g><g><title>Backoffice Operator</title><rect fill="#000000" fill-opacity="0.00000" height="427.8594" width="8" x="73.8633" y="81.2969"/><line style="stroke:#181818;stroke-width:0.5;stroke-dasharray:5,5;" x1="77" x2="77" y1="81.2969" y2="509.1563"/></g><g><title>AirportController</title><rect fill="#000000" fill-opacity="0.00000" height="427.8594" width="8" x="406.9888" y="81.2969"/><line style="stroke:#181818;stroke-width:0.5;stroke-dasharray:5,5;" x1="410.4424" x2="410.4424" y1="81.2969" y2="509.1563"/></g><g><title>UpdateAirportStatusUseCase</title><rect fill="#000000" fill-opacity="0.00000" height="427.8594" width="8" x="617.4819" y="81.2969"/><line style="stroke:#181818;stroke-width:0.5;stroke-dasharray:5,5;" x1="620.6572" x2="620.6572" y1="81.2969" y2="509.1563"/></g><g><title>Airport</title><rect fill="#000000" fill-opacity="0.00000" height="427.8594" width="8" x="770.9097" y="81.2969"/><line style="stroke:#181818;stroke-width:0.5;stroke-dasharray:5,5;" x1="773.9497" x2="773.9497" y1="81.2969" y2="509.1563"/></g><g><title>AirportRepository</title><rect fill="#000000" fill-opacity="0.00000" height="427.8594" width="8" x="880.3657" y="81.2969"/><line style="stroke:#181818;stroke-width:0.5;stroke-dasharray:5,5;" x1="883.8696" x2="883.8696" y1="81.2969" y2="509.1563"/></g><g><title>Database</title><rect fill="#000000" fill-opacity="0.00000" height="427.8594" width="8" x="1174.9082" y="81.2969"/><line style="stroke:#181818;stroke-width:0.5;stroke-dasharray:5,5;" x1="1178.5078" x2="1178.5078" y1="81.2969" y2="509.1563"/></g><g class="participant participant-head" data-participant="BO"><text fill="#000000" font-family="sans-serif" font-size="14" lengthAdjust="spacing" textLength="139.7266" x="5" y="77.9951">Backoffice Operator</text><ellipse cx="77.8633" cy="13.5" fill="#E2E2F0" rx="8" ry="8" style="stroke:#181818;stroke-width:0.5;"/><path d="M77.8633,21.5 L77.8633,48.5 M64.8633,29.5 L90.8633,29.5 M77.8633,48.5 L64.8633,63.5 M77.8633,48.5 L90.8633,63.5" fill="none" style="stroke:#181818;stroke-width:0.5;"/></g><g class="participant participant-tail" data-participant="BO"><text fill="#000000" font-family="sans-serif" font-size="14" lengthAdjust="spacing" textLength="139.7266" x="5" y="521.1514">Backoffice Operator</text><ellipse cx="77.8633" cy="532.9531" fill="#E2E2F0" rx="8" ry="8" style="stroke:#181818;stroke-width:0.5;"/><path d="M77.8633,540.9531 L77.8633,567.9531 M64.8633,548.9531 L90.8633,548.9531 M77.8633,567.9531 L64.8633,582.9531 M77.8633,567.9531 L90.8633,582.9531" fill="none" style="stroke:#181818;stroke-width:0.5;"/></g><g class="participant participant-head" data-participant="Ctrl"><rect fill="#E2E2F0" height="30.2969" rx="2.5" ry="2.5" style="stroke:#181818;stroke-width:0.5;" width="131.0928" x="345.4424" y="50"/><text fill="#000000" font-family="sans-serif" font-size="14" lengthAdjust="spacing" textLength="117.0928" x="352.4424" y="69.9951">AirportController</text></g><g class="participant participant-tail" data-participant="Ctrl"><rect fill="#E2E2F0" height="30.2969" rx="2.5" ry="2.5" style="stroke:#181818;stroke-width:0.5;" width="131.0928" x="345.4424" y="508.1563"/><text fill="#000000" font-family="sans-serif" font-size="14" lengthAdjust="spacing" textLength="117.0928" x="352.4424" y="528.1514">AirportController</text></g><g class="participant participant-head" data-participant="UC"><rect fill="#E2E2F0" height="30.2969" rx="2.5" ry="2.5" style="stroke:#181818;stroke-width:0.5;" width="217.6494" x="512.6572" y="50"/><text fill="#000000" font-family="sans-serif" font-size="14" lengthAdjust="spacing" textLength="203.6494" x="519.6572" y="69.9951">UpdateAirportStatusUseCase</text></g><g class="participant participant-tail" data-participant="UC"><rect fill="#E2E2F0" height="30.2969" rx="2.5" ry="2.5" style="stroke:#181818;stroke-width:0.5;" width="217.6494" x="512.6572" y="508.1563"/><text fill="#000000" font-family="sans-serif" font-size="14" lengthAdjust="spacing" textLength="203.6494" x="519.6572" y="528.1514">UpdateAirportStatusUseCase</text></g><g class="participant participant-head" data-participant="Entity"><rect fill="#E2E2F0" height="30.2969" rx="2.5" ry="2.5" style="stroke:#181818;stroke-width:0.5;" width="61.9199" x="743.9497" y="50"/><text fill="#000000" font-family="sans-serif" font-size="14" lengthAdjust="spacing" textLength="47.9199" x="750.9497" y="69.9951">Airport</text></g><g class="participant participant-tail" data-participant="Entity"><rect fill="#E2E2F0" height="30.2969" rx="2.5" ry="2.5" style="stroke:#181818;stroke-width:0.5;" width="61.9199" x="743.9497" y="508.1563"/><text fill="#000000" font-family="sans-serif" font-size="14" lengthAdjust="spacing" textLength="47.9199" x="750.9497" y="528.1514">Airport</text></g><g class="participant participant-head" data-participant="Repo"><rect fill="#E2E2F0" height="30.2969" rx="2.5" ry="2.5" style="stroke:#181818;stroke-width:0.5;" width="136.9922" x="815.8696" y="50"/><text fill="#000000" font-family="sans-serif" font-size="14" lengthAdjust="spacing" textLength="122.9922" x="822.8696" y="69.9951">AirportRepository</text></g><g class="participant participant-tail" data-participant="Repo"><rect fill="#E2E2F0" height="30.2969" rx="2.5" ry="2.5" style="stroke:#181818;stroke-width:0.5;" width="136.9922" x="815.8696" y="508.1563"/><text fill="#000000" font-family="sans-serif" font-size="14" lengthAdjust="spacing" textLength="122.9922" x="822.8696" y="528.1514">AirportRepository</text></g><g class="participant participant-head" data-participant="DB"><text fill="#000000" font-family="sans-serif" font-size="14" lengthAdjust="spacing" textLength="66.8008" x="1142.5078" y="77.9951">Database</text><path d="M1160.9082,29 C1160.9082,19 1178.9082,19 1178.9082,19 C1178.9082,19 1196.9082,19 1196.9082,29 L1196.9082,55 C1196.9082,65 1178.9082,65 1178.9082,65 C1178.9082,65 1160.9082,65 1160.9082,55 L1160.9082,29" fill="#E2E2F0" style="stroke:#181818;stroke-width:0.5;"/><path d="M1160.9082,29 C1160.9082,39 1178.9082,39 1178.9082,39 C1178.9082,39 1196.9082,39 1196.9082,29" fill="none" style="stroke:#181818;stroke-width:0.5;"/></g><g class="participant participant-tail" data-participant="DB"><text fill="#000000" font-family="sans-serif" font-size="14" lengthAdjust="spacing" textLength="66.8008" x="1142.5078" y="521.1514">Database</text><path d="M1160.9082,534.4531 C1160.9082,524.4531 1178.9082,524.4531 1178.9082,524.4531 C1178.9082,524.4531 1196.9082,524.4531 1196.9082,534.4531 L1196.9082,560.4531 C1196.9082,570.4531 1178.9082,570.4531 1178.9082,570.4531 C1178.9082,570.4531 1160.9082,570.4531 1160.9082,560.4531 L1160.9082,534.4531" fill="#E2E2F0" style="stroke:#181818;stroke-width:0.5;"/><path d="M1160.9082,534.4531 C1160.9082,544.4531 1178.9082,544.4531 1178.9082,544.4531 C1178.9082,544.4531 1196.9082,544.4531 1196.9082,534.4531" fill="none" style="stroke:#181818;stroke-width:0.5;"/></g><g><title>AirportController</title><rect fill="#FFFFFF" height="378.7266" style="stroke:#181818;stroke-width:1;" width="10" x="405.9888" y="112.4297"/></g><g><title>UpdateAirportStatusUseCase</title><rect fill="#FFFFFF" height="320.4609" style="stroke:#181818;stroke-width:1;" width="10" x="616.4819" y="141.5625"/></g><g><title>Airport</title><rect fill="#FFFFFF" height="29.1328" style="stroke:#181818;stroke-width:1;" width="10" x="769.9097" y="287.2266"/></g><g><title>AirportRepository</title><rect fill="#FFFFFF" height="87.3984" style="stroke:#181818;stroke-width:1;" width="10" x="879.3657" y="170.6953"/></g><g><title>AirportRepository</title><rect fill="#FFFFFF" height="87.3984" style="stroke:#181818;stroke-width:1;" width="10" x="879.3657" y="345.4922"/></g><g><title>Database</title><rect fill="#FFFFFF" height="29.1328" style="stroke:#181818;stroke-width:1;" width="10" x="1173.9082" y="199.8281"/></g><g><title>Database</title><rect fill="#FFFFFF" height="29.1328" style="stroke:#181818;stroke-width:1;" width="10" x="1173.9082" y="374.625"/></g><g class="message" data-participant-1="BO" data-participant-2="Ctrl"><polygon fill="#181818" points="393.9888,108.4297,403.9888,112.4297,393.9888,116.4297,397.9888,112.4297" style="stroke:#181818;stroke-width:1;"/><line style="stroke:#181818;stroke-width:1;" x1="77.8633" x2="399.9888" y1="112.4297" y2="112.4297"/><text fill="#000000" font-family="sans-serif" font-size="13" font-weight="bold" lengthAdjust="spacing" textLength="9.0454" x="84.8633" y="107.3638">1</text><text fill="#000000" font-family="sans-serif" font-size="13" lengthAdjust="spacing" textLength="296.0801" x="97.9087" y="107.3638">PATCH /api/airports/{iataCode}/status (JSON)</text></g><g class="message" data-participant-1="Ctrl" data-participant-2="UC"><polygon fill="#181818" points="604.4819,137.5625,614.4819,141.5625,604.4819,145.5625,608.4819,141.5625" style="stroke:#181818;stroke-width:1;"/><line style="stroke:#181818;stroke-width:1;" x1="415.9888" x2="610.4819" y1="141.5625" y2="141.5625"/><text fill="#000000" font-family="sans-serif" font-size="13" font-weight="bold" lengthAdjust="spacing" textLength="9.0454" x="422.9888" y="136.4966">2</text><text fill="#000000" font-family="sans-serif" font-size="13" lengthAdjust="spacing" textLength="168.4478" x="436.0342" y="136.4966">execute(iataCode, status)</text></g><g class="message" data-participant-1="UC" data-participant-2="Repo"><polygon fill="#181818" points="867.3657,166.6953,877.3657,170.6953,867.3657,174.6953,871.3657,170.6953" style="stroke:#181818;stroke-width:1;"/><line style="stroke:#181818;stroke-width:1;" x1="626.4819" x2="873.3657" y1="170.6953" y2="170.6953"/><text fill="#000000" font-family="sans-serif" font-size="13" font-weight="bold" lengthAdjust="spacing" textLength="9.0454" x="633.4819" y="165.6294">3</text><text fill="#000000" font-family="sans-serif" font-size="13" lengthAdjust="spacing" textLength="200.7827" x="646.5273" y="165.6294">findByIataCodeCode(iataCode)</text></g><g class="message" data-participant-1="Repo" data-participant-2="DB"><polygon fill="#181818" points="1161.9082,195.8281,1171.9082,199.8281,1161.9082,203.8281,1165.9082,199.8281" style="stroke:#181818;stroke-width:1;"/><line style="stroke:#181818;stroke-width:1;" x1="889.3657" x2="1167.9082" y1="199.8281" y2="199.8281"/><text fill="#000000" font-family="sans-serif" font-size="13" font-weight="bold" lengthAdjust="spacing" textLength="9.0454" x="896.3657" y="194.7622">4</text><text fill="#000000" font-family="sans-serif" font-size="13" lengthAdjust="spacing" textLength="252.4971" x="909.4111" y="194.7622">SELECT FROM airport WHERE code = ?</text></g><g class="message" data-participant-1="DB" data-participant-2="Repo"><polygon fill="#181818" points="900.3657,224.9609,890.3657,228.9609,900.3657,232.9609,896.3657,228.9609" style="stroke:#181818;stroke-width:1;"/><line style="stroke:#181818;stroke-width:1;stroke-dasharray:2,2;" x1="894.3657" x2="1177.9082" y1="228.9609" y2="228.9609"/><text fill="#000000" font-family="sans-serif" font-size="13" font-weight="bold" lengthAdjust="spacing" textLength="9.0454" x="906.3657" y="223.895">5</text><text fill="#000000" font-family="sans-serif" font-size="13" lengthAdjust="spacing" textLength="89.7432" x="919.4111" y="223.895">airport record</text></g><g class="message" data-participant-1="Repo" data-participant-2="UC"><polygon fill="#181818" points="637.4819,254.0938,627.4819,258.0938,637.4819,262.0938,633.4819,258.0938" style="stroke:#181818;stroke-width:1;"/><line style="stroke:#181818;stroke-width:1;stroke-dasharray:2,2;" x1="631.4819" x2="883.3657" y1="258.0938" y2="258.0938"/><text fill="#000000" font-family="sans-serif" font-size="13" font-weight="bold" lengthAdjust="spacing" textLength="9.0454" x="643.4819" y="253.0278">6</text><text fill="#000000" font-family="sans-serif" font-size="13" lengthAdjust="spacing" textLength="44.4971" x="656.5273" y="253.0278">Airport</text></g><g class="message" data-participant-1="UC" data-participant-2="Entity"><polygon fill="#181818" points="757.9097,283.2266,767.9097,287.2266,757.9097,291.2266,761.9097,287.2266" style="stroke:#181818;stroke-width:1;"/><line style="stroke:#181818;stroke-width:1;" x1="626.4819" x2="763.9097" y1="287.2266" y2="287.2266"/><text fill="#000000" font-family="sans-serif" font-size="13" font-weight="bold" lengthAdjust="spacing" textLength="9.0454" x="633.4819" y="282.1606">7</text><text fill="#000000" font-family="sans-serif" font-size="13" lengthAdjust="spacing" textLength="111.3823" x="646.5273" y="282.1606">setStatus(status)</text></g><g class="message" data-participant-1="Entity" data-participant-2="UC"><polygon fill="#181818" points="637.4819,312.3594,627.4819,316.3594,637.4819,320.3594,633.4819,316.3594" style="stroke:#181818;stroke-width:1;"/><line style="stroke:#181818;stroke-width:1;stroke-dasharray:2,2;" x1="631.4819" x2="773.9097" y1="316.3594" y2="316.3594"/><text fill="#000000" font-family="sans-serif" font-size="13" font-weight="bold" lengthAdjust="spacing" textLength="9.0454" x="643.4819" y="311.2935">8</text><text fill="#000000" font-family="sans-serif" font-size="13" lengthAdjust="spacing" textLength="4.1323" x="656.5273" y="311.2935">&#160;</text></g><g class="message" data-participant-1="UC" data-participant-2="Repo"><polygon fill="#181818" points="867.3657,341.4922,877.3657,345.4922,867.3657,349.4922,871.3657,345.4922" style="stroke:#181818;stroke-width:1;"/><line style="stroke:#181818;stroke-width:1;" x1="626.4819" x2="873.3657" y1="345.4922" y2="345.4922"/><text fill="#000000" font-family="sans-serif" font-size="13" font-weight="bold" lengthAdjust="spacing" textLength="9.0454" x="633.4819" y="340.4263">9</text><text fill="#000000" font-family="sans-serif" font-size="13" lengthAdjust="spacing" textLength="84.1445" x="646.5273" y="340.4263">save(airport)</text></g><g class="message" data-participant-1="Repo" data-participant-2="DB"><polygon fill="#181818" points="1161.9082,370.625,1171.9082,374.625,1161.9082,378.625,1165.9082,374.625" style="stroke:#181818;stroke-width:1;"/><line style="stroke:#181818;stroke-width:1;" x1="889.3657" x2="1167.9082" y1="374.625" y2="374.625"/><text fill="#000000" font-family="sans-serif" font-size="13" font-weight="bold" lengthAdjust="spacing" textLength="18.0908" x="896.3657" y="369.5591">10</text><text fill="#000000" font-family="sans-serif" font-size="13" lengthAdjust="spacing" textLength="198.7896" x="918.4565" y="369.5591">UPDATE airport SET status = ?</text></g><g class="message" data-participant-1="DB" data-participant-2="Repo"><polygon fill="#181818" points="900.3657,399.7578,890.3657,403.7578,900.3657,407.7578,896.3657,403.7578" style="stroke:#181818;stroke-width:1;"/><line style="stroke:#181818;stroke-width:1;stroke-dasharray:2,2;" x1="894.3657" x2="1177.9082" y1="403.7578" y2="403.7578"/><text fill="#000000" font-family="sans-serif" font-size="13" font-weight="bold" lengthAdjust="spacing" textLength="18.0908" x="906.3657" y="398.6919">11</text><text fill="#000000" font-family="sans-serif" font-size="13" lengthAdjust="spacing" textLength="100.2295" x="928.4565" y="398.6919">updated record</text></g><g class="message" data-participant-1="Repo" data-participant-2="UC"><polygon fill="#181818" points="637.4819,428.8906,627.4819,432.8906,637.4819,436.8906,633.4819,432.8906" style="stroke:#181818;stroke-width:1;"/><line style="stroke:#181818;stroke-width:1;stroke-dasharray:2,2;" x1="631.4819" x2="883.3657" y1="432.8906" y2="432.8906"/><text fill="#000000" font-family="sans-serif" font-size="13" font-weight="bold" lengthAdjust="spacing" textLength="18.0908" x="643.4819" y="427.8247">12</text><text fill="#000000" font-family="sans-serif" font-size="13" lengthAdjust="spacing" textLength="98.5537" x="665.5728" y="427.8247">updatedAirport</text></g><g class="message" data-participant-1="UC" data-participant-2="Ctrl"><polygon fill="#181818" points="426.9888,458.0234,416.9888,462.0234,426.9888,466.0234,422.9888,462.0234" style="stroke:#181818;stroke-width:1;"/><line style="stroke:#181818;stroke-width:1;stroke-dasharray:2,2;" x1="420.9888" x2="620.4819" y1="462.0234" y2="462.0234"/><text fill="#000000" font-family="sans-serif" font-size="13" font-weight="bold" lengthAdjust="spacing" textLength="18.0908" x="432.9888" y="456.9575">13</text><text fill="#000000" font-family="sans-serif" font-size="13" lengthAdjust="spacing" textLength="98.5537" x="455.0796" y="456.9575">updatedAirport</text></g><g class="message" data-participant-1="Ctrl" data-participant-2="BO"><polygon fill="#181818" points="88.8633,487.1563,78.8633,491.1563,88.8633,495.1563,84.8633,491.1563" style="stroke:#181818;stroke-width:1;"/><line style="stroke:#181818;stroke-width:1;stroke-dasharray:2,2;" x1="82.8633" x2="409.9888" y1="491.1563" y2="491.1563"/><text fill="#000000" font-family="sans-serif" font-size="13" font-weight="bold" lengthAdjust="spacing" textLength="18.0908" x="94.8633" y="486.0903">14</text><text fill="#000000" font-family="sans-serif" font-size="13" lengthAdjust="spacing" textLength="94.0215" x="116.9541" y="486.0903">200 OK (JSON)</text></g><!--SRC=[ZP9VQuCm5CNVyoakFZbOiUoni8qQ7TrVIwliETKKmZeZIImhOzzzroIsbdNT7WJrdj_9FJUNjKRMxVkAAy9A8nK4CIlVv7ejIWvPmnN3dm4m3N566gQCA4N3QWF1LAX6AaDbRPJSRBXJKQCsnxgYgPZXNhqqpBIwq9mopIrGq9EsjfRMHfZToVg2Dr8Bx6rdbTqdmNFO2dqXIFoRhIKn8N46enlR74nWFitf32BMY8WvDnrz2aIehFXNf6sF43uiivUBRYfYYm5SCc8jqAgWQCG_UDaQ7lRi9JXsG64yWbeakXQHMOkwYdVtdkYUFJx0R1vB89d4o2tJfvJcSBV8di5t3Q-pT952YIXSm-s1niJ8Z0w7ze3YfLGLgVXGwexfC_dv3ZMs6P_2NGdgDFUN6Vx8xA_DIvtpqC_NZ-UYsPQ7li-pWoZcoJHFzv6MQUwd_iSCMhk7rNzcuALdHt5Ofz_LtUMxXK4rhk04hiPZo1xxtHf8Ezat]--></g></svg>