<?plantuml 1.2026.1?><svg xmlns="http://www.w3.org/2000/svg" xmlns:xlink="http://www.w3.org/1999/xlink" contentStyleType="text/css" data-diagram-type="SEQUENCE" height="519px" preserveAspectRatio="none" style="width:1185px;height:519px;background:#FFFFFF;" version="1.1" viewBox="0 0 1185 519" width="1185px" zoomAndPan="magnify"><defs/><g><g><title>AirportController</title><rect fill="#FFFFFF" height="316.1328" style="stroke:#181818;stroke-width:1;" width="10" x="338.6953" y="112.4297"/></g><g><title>ViewAirportDetailsUseCase</title><rect fill="#FFFFFF" height="287" style="stroke:#181818;stroke-width:1;" width="10" x="605.5537" y="141.5625"/></g><g><title>AirportRepository</title><rect fill="#FFFFFF" height="87.3984" style="stroke:#181818;stroke-width:1;" width="10" x="848.3818" y="170.6953"/></g><g><title>Database</title><rect fill="#FFFFFF" height="29.1328" style="stroke:#181818;stroke-width:1;" width="10" x="1142.9243" y="199.8281"/></g><rect fill="none" height="148.4688" style="stroke:#000000;stroke-width:1.5;" width="712.7544" x="10" y="273.0938"/><g class="participant-lifeline" data-entity-uid="part1" data-qualified-name="Actor" id="part1-lifeline"><g><title>Backoffice Operator . ATCC</title><rect fill="#000000" fill-opacity="0.00000" height="357.2656" width="8" x="114.5117" y="81.2969"/><line style="stroke:#181818;stroke-width:0.5;stroke-dasharray:5,5;" x1="118" x2="118" y1="81.2969" y2="438.5625"/></g></g><g class="participant-lifeline" data-entity-uid="part2" data-qualified-name="Ctrl" id="part2-lifeline"><g><title>AirportController</title><rect fill="#000000" fill-opacity="0.00000" height="357.2656" width="8" x="339.6953" y="81.2969"/><line style="stroke:#181818;stroke-width:0.5;stroke-dasharray:5,5;" x1="343.1489" x2="343.1489" y1="81.2969" y2="438.5625"/></g></g><g class="participant-lifeline" data-entity-uid="part3" data-qualified-name="UC" id="part3-lifeline"><g><title>ViewAirportDetailsUseCase</title><rect fill="#000000" fill-opacity="0.00000" height="357.2656" width="8" x="606.5537" y="81.2969"/><line style="stroke:#181818;stroke-width:0.5;stroke-dasharray:5,5;" x1="610.353" x2="610.353" y1="81.2969" y2="438.5625"/></g></g><g class="participant-lifeline" data-entity-uid="part4" data-qualified-name="Repo" id="part4-lifeline"><g><title>AirportRepository</title><rect fill="#000000" fill-opacity="0.00000" height="357.2656" width="8" x="849.3818" y="81.2969"/><line style="stroke:#181818;stroke-width:0.5;stroke-dasharray:5,5;" x1="852.8857" x2="852.8857" y1="81.2969" y2="438.5625"/></g></g><g class="participant-lifeline" data-entity-uid="part5" data-qualified-name="DB" id="part5-lifeline"><g><title>Database</title><rect fill="#000000" fill-opacity="0.00000" height="357.2656" width="8" x="1143.9243" y="81.2969"/><line style="stroke:#181818;stroke-width:0.5;stroke-dasharray:5,5;" x1="1147.5239" x2="1147.5239" y1="81.2969" y2="438.5625"/></g></g><g class="participant participant-head" data-entity-uid="part1" data-qualified-name="Actor" id="part1-head"><text fill="#000000" font-family="sans-serif" font-size="14" lengthAdjust="spacing" textLength="191.0234" x="20" y="77.9951">Backoffice Operator / ATCC</text><ellipse cx="118.5117" cy="13.5" fill="#E2E2F0" rx="8" ry="8" style="stroke:#181818;stroke-width:0.5;"/><path d="M118.5117,21.5 L118.5117,48.5 M105.5117,29.5 L131.5117,29.5 M118.5117,48.5 L105.5117,63.5 M118.5117,48.5 L131.5117,63.5" fill="none" style="stroke:#181818;stroke-width:0.5;"/></g><g class="participant participant-tail" data-entity-uid="part1" data-qualified-name="Actor" id="part1-tail"><text fill="#000000" font-family="sans-serif" font-size="14" lengthAdjust="spacing" textLength="191.0234" x="20" y="450.5576">Backoffice Operator / ATCC</text><ellipse cx="118.5117" cy="462.3594" fill="#E2E2F0" rx="8" ry="8" style="stroke:#181818;stroke-width:0.5;"/><path d="M118.5117,470.3594 L118.5117,497.3594 M105.5117,478.3594 L131.5117,478.3594 M118.5117,497.3594 L105.5117,512.3594 M118.5117,497.3594 L131.5117,512.3594" fill="none" style="stroke:#181818;stroke-width:0.5;"/></g><g class="participant participant-head" data-entity-uid="part2" data-qualified-name="Ctrl" id="part2-head"><rect fill="#E2E2F0" height="30.2969" rx="2.5" ry="2.5" style="stroke:#181818;stroke-width:0.5;" width="131.0928" x="278.1489" y="50"/><text fill="#000000" font-family="sans-serif" font-size="14" lengthAdjust="spacing" textLength="117.0928" x="285.1489" y="69.9951">AirportController</text></g><g class="participant participant-tail" data-entity-uid="part2" data-qualified-name="Ctrl" id="part2-tail"><rect fill="#E2E2F0" height="30.2969" rx="2.5" ry="2.5" style="stroke:#181818;stroke-width:0.5;" width="131.0928" x="278.1489" y="437.5625"/><text fill="#000000" font-family="sans-serif" font-size="14" lengthAdjust="spacing" textLength="117.0928" x="285.1489" y="457.5576">AirportController</text></g><g class="participant participant-head" data-entity-uid="part3" data-qualified-name="UC" id="part3-head"><rect fill="#E2E2F0" height="30.2969" rx="2.5" ry="2.5" style="stroke:#181818;stroke-width:0.5;" width="204.4014" x="508.353" y="50"/><text fill="#000000" font-family="sans-serif" font-size="14" lengthAdjust="spacing" textLength="190.4014" x="515.353" y="69.9951">ViewAirportDetailsUseCase</text></g><g class="participant participant-tail" data-entity-uid="part3" data-qualified-name="UC" id="part3-tail"><rect fill="#E2E2F0" height="30.2969" rx="2.5" ry="2.5" style="stroke:#181818;stroke-width:0.5;" width="204.4014" x="508.353" y="437.5625"/><text fill="#000000" font-family="sans-serif" font-size="14" lengthAdjust="spacing" textLength="190.4014" x="515.353" y="457.5576">ViewAirportDetailsUseCase</text></g><g class="participant participant-head" data-entity-uid="part4" data-qualified-name="Repo" id="part4-head"><rect fill="#E2E2F0" height="30.2969" rx="2.5" ry="2.5" style="stroke:#181818;stroke-width:0.5;" width="136.9922" x="784.8857" y="50"/><text fill="#000000" font-family="sans-serif" font-size="14" lengthAdjust="spacing" textLength="122.9922" x="791.8857" y="69.9951">AirportRepository</text></g><g class="participant participant-tail" data-entity-uid="part4" data-qualified-name="Repo" id="part4-tail"><rect fill="#E2E2F0" height="30.2969" rx="2.5" ry="2.5" style="stroke:#181818;stroke-width:0.5;" width="136.9922" x="784.8857" y="437.5625"/><text fill="#000000" font-family="sans-serif" font-size="14" lengthAdjust="spacing" textLength="122.9922" x="791.8857" y="457.5576">AirportRepository</text></g><g class="participant participant-head" data-entity-uid="part5" data-qualified-name="DB" id="part5-head"><text fill="#000000" font-family="sans-serif" font-size="14" lengthAdjust="spacing" textLength="66.8008" x="1111.5239" y="77.9951">Database</text><path d="M1129.9243,29 C1129.9243,19 1147.9243,19 1147.9243,19 C1147.9243,19 1165.9243,19 1165.9243,29 L1165.9243,55 C1165.9243,65 1147.9243,65 1147.9243,65 C1147.9243,65 1129.9243,65 1129.9243,55 L1129.9243,29" fill="#E2E2F0" style="stroke:#181818;stroke-width:0.5;"/><path d="M1129.9243,29 C1129.9243,39 1147.9243,39 1147.9243,39 C1147.9243,39 1165.9243,39 1165.9243,29" fill="none" style="stroke:#181818;stroke-width:0.5;"/></g><g class="participant participant-tail" data-entity-uid="part5" data-qualified-name="DB" id="part5-tail"><text fill="#000000" font-family="sans-serif" font-size="14" lengthAdjust="spacing" textLength="66.8008" x="1111.5239" y="450.5576">Database</text><path d="M1129.9243,463.8594 C1129.9243,453.8594 1147.9243,453.8594 1147.9243,453.8594 C1147.9243,453.8594 1165.9243,453.8594 1165.9243,463.8594 L1165.9243,489.8594 C1165.9243,499.8594 1147.9243,499.8594 1147.9243,499.8594 C1147.9243,499.8594 1129.9243,499.8594 1129.9243,489.8594 L1129.9243,463.8594" fill="#E2E2F0" style="stroke:#181818;stroke-width:0.5;"/><path d="M1129.9243,463.8594 C1129.9243,473.8594 1147.9243,473.8594 1147.9243,473.8594 C1147.9243,473.8594 1165.9243,473.8594 1165.9243,463.8594" fill="none" style="stroke:#181818;stroke-width:0.5;"/></g><g><title>AirportController</title><rect fill="#FFFFFF" height="316.1328" style="stroke:#181818;stroke-width:1;" width="10" x="338.6953" y="112.4297"/></g><g><title>ViewAirportDetailsUseCase</title><rect fill="#FFFFFF" height="287" style="stroke:#181818;stroke-width:1;" width="10" x="605.5537" y="141.5625"/></g><g><title>AirportRepository</title><rect fill="#FFFFFF" height="87.3984" style="stroke:#181818;stroke-width:1;" width="10" x="848.3818" y="170.6953"/></g><g><title>Database</title><rect fill="#FFFFFF" height="29.1328" style="stroke:#181818;stroke-width:1;" width="10" x="1142.9243" y="199.8281"/></g><g class="message" data-entity-1="part1" data-entity-2="part2" id="msg1"><polygon fill="#181818" points="326.6953,108.4297,336.6953,112.4297,326.6953,116.4297,330.6953,112.4297" style="stroke:#181818;stroke-width:1;"/><line style="stroke:#181818;stroke-width:1;" x1="118.5117" x2="332.6953" y1="112.4297" y2="112.4297"/><text fill="#000000" font-family="sans-serif" font-size="13" font-weight="bold" lengthAdjust="spacing" textLength="9.0454" x="125.5117" y="107.3638">1</text><text fill="#000000" font-family="sans-serif" font-size="13" lengthAdjust="spacing" textLength="188.1382" x="138.5571" y="107.3638">GET /api/airports/{iataCode}</text></g><g class="message" data-entity-1="part2" data-entity-2="part3" id="msg2"><polygon fill="#181818" points="593.5537,137.5625,603.5537,141.5625,593.5537,145.5625,597.5537,141.5625" style="stroke:#181818;stroke-width:1;"/><line style="stroke:#181818;stroke-width:1;" x1="348.6953" x2="599.5537" y1="141.5625" y2="141.5625"/><text fill="#000000" font-family="sans-serif" font-size="13" font-weight="bold" lengthAdjust="spacing" textLength="9.0454" x="355.6953" y="136.4966">2</text><text fill="#000000" font-family="sans-serif" font-size="13" lengthAdjust="spacing" textLength="120.2373" x="368.7407" y="136.4966">execute(iataCode)</text></g><g class="message" data-entity-1="part3" data-entity-2="part4" id="msg3"><polygon fill="#181818" points="836.3818,166.6953,846.3818,170.6953,836.3818,174.6953,840.3818,170.6953" style="stroke:#181818;stroke-width:1;"/><line style="stroke:#181818;stroke-width:1;" x1="615.5537" x2="842.3818" y1="170.6953" y2="170.6953"/><text fill="#000000" font-family="sans-serif" font-size="13" font-weight="bold" lengthAdjust="spacing" textLength="9.0454" x="622.5537" y="165.6294">3</text><text fill="#000000" font-family="sans-serif" font-size="13" lengthAdjust="spacing" textLength="200.7827" x="635.5991" y="165.6294">findByIataCodeCode(iataCode)</text></g><g class="message" data-entity-1="part4" data-entity-2="part5" id="msg4"><polygon fill="#181818" points="1130.9243,195.8281,1140.9243,199.8281,1130.9243,203.8281,1134.9243,199.8281" style="stroke:#181818;stroke-width:1;"/><line style="stroke:#181818;stroke-width:1;" x1="858.3818" x2="1136.9243" y1="199.8281" y2="199.8281"/><text fill="#000000" font-family="sans-serif" font-size="13" font-weight="bold" lengthAdjust="spacing" textLength="9.0454" x="865.3818" y="194.7622">4</text><text fill="#000000" font-family="sans-serif" font-size="13" lengthAdjust="spacing" textLength="252.4971" x="878.4272" y="194.7622">SELECT FROM airport WHERE code = ?</text></g><g class="message" data-entity-1="part5" data-entity-2="part4" id="msg5"><polygon fill="#181818" points="869.3818,224.9609,859.3818,228.9609,869.3818,232.9609,865.3818,228.9609" style="stroke:#181818;stroke-width:1;"/><line style="stroke:#181818;stroke-width:1;stroke-dasharray:2,2;" x1="863.3818" x2="1146.9243" y1="228.9609" y2="228.9609"/><text fill="#000000" font-family="sans-serif" font-size="13" font-weight="bold" lengthAdjust="spacing" textLength="9.0454" x="875.3818" y="223.895">5</text><text fill="#000000" font-family="sans-serif" font-size="13" lengthAdjust="spacing" textLength="89.7432" x="888.4272" y="223.895">airport record</text></g><g class="message" data-entity-1="part4" data-entity-2="part3" id="msg6"><polygon fill="#181818" points="626.5537,254.0938,616.5537,258.0938,626.5537,262.0938,622.5537,258.0938" style="stroke:#181818;stroke-width:1;"/><line style="stroke:#181818;stroke-width:1;stroke-dasharray:2,2;" x1="620.5537" x2="852.3818" y1="258.0938" y2="258.0938"/><text fill="#000000" font-family="sans-serif" font-size="13" font-weight="bold" lengthAdjust="spacing" textLength="9.0454" x="632.5537" y="253.0278">6</text><text fill="#000000" font-family="sans-serif" font-size="13" lengthAdjust="spacing" textLength="121.2466" x="645.5991" y="253.0278">Optional&lt;Airport&gt;</text></g><path d="M10,273.0938 L74.4429,273.0938 L74.4429,280.2266 L64.4429,290.2266 L10,290.2266 L10,273.0938" fill="#EEEEEE" style="stroke:#000000;stroke-width:1.5;"/><rect fill="none" height="148.4688" style="stroke:#000000;stroke-width:1.5;" width="712.7544" x="10" y="273.0938"/><text fill="#000000" font-family="sans-serif" font-size="13" font-weight="bold" lengthAdjust="spacing" textLength="19.4429" x="25" y="286.1606">alt</text><text fill="#000000" font-family="sans-serif" font-size="11" font-weight="bold" lengthAdjust="spacing" textLength="93.5859" x="89.4429" y="285.3042">[Airport found]</text><g class="message" data-entity-1="part3" data-entity-2="part2" id="msg7"><polygon fill="#181818" points="359.6953,307.3594,349.6953,311.3594,359.6953,315.3594,355.6953,311.3594" style="stroke:#181818;stroke-width:1;"/><line style="stroke:#181818;stroke-width:1;stroke-dasharray:2,2;" x1="353.6953" x2="604.5537" y1="311.3594" y2="311.3594"/><text fill="#000000" font-family="sans-serif" font-size="13" font-weight="bold" lengthAdjust="spacing" textLength="9.0454" x="365.6953" y="306.2935">7</text><text fill="#000000" font-family="sans-serif" font-size="13" lengthAdjust="spacing" textLength="44.4971" x="378.7407" y="306.2935">Airport</text></g><g class="message" data-entity-1="part2" data-entity-2="part1" id="msg8"><polygon fill="#181818" points="129.5117,336.4922,119.5117,340.4922,129.5117,344.4922,125.5117,340.4922" style="stroke:#181818;stroke-width:1;"/><line style="stroke:#181818;stroke-width:1;stroke-dasharray:2,2;" x1="123.5117" x2="337.6953" y1="340.4922" y2="340.4922"/><text fill="#000000" font-family="sans-serif" font-size="13" font-weight="bold" lengthAdjust="spacing" textLength="9.0454" x="135.5117" y="335.4263">8</text><text fill="#000000" font-family="sans-serif" font-size="13" lengthAdjust="spacing" textLength="94.0215" x="148.5571" y="335.4263">200 OK (JSON)</text></g><line style="stroke:#000000;stroke-width:1;stroke-dasharray:2,2;" x1="10" x2="722.7544" y1="349.4922" y2="349.4922"/><text fill="#000000" font-family="sans-serif" font-size="11" font-weight="bold" lengthAdjust="spacing" textLength="118.062" x="15" y="359.7026">[Airport not found]</text><g class="message" data-entity-1="part3" data-entity-2="part2" id="msg9"><polygon fill="#181818" points="359.6953,380.4297,349.6953,384.4297,359.6953,388.4297,355.6953,384.4297" style="stroke:#181818;stroke-width:1;"/><line style="stroke:#181818;stroke-width:1;stroke-dasharray:2,2;" x1="353.6953" x2="604.5537" y1="384.4297" y2="384.4297"/><text fill="#000000" font-family="sans-serif" font-size="13" font-weight="bold" lengthAdjust="spacing" textLength="9.0454" x="365.6953" y="379.3638">9</text><text fill="#000000" font-family="sans-serif" font-size="13" lengthAdjust="spacing" textLength="219.813" x="378.7407" y="379.3638">throws AirportNotFoundException</text></g><g class="message" data-entity-1="part2" data-entity-2="part1" id="msg10"><polygon fill="#181818" points="129.5117,409.5625,119.5117,413.5625,129.5117,417.5625,125.5117,413.5625" style="stroke:#181818;stroke-width:1;"/><line style="stroke:#181818;stroke-width:1;stroke-dasharray:2,2;" x1="123.5117" x2="337.6953" y1="413.5625" y2="413.5625"/><text fill="#000000" font-family="sans-serif" font-size="13" font-weight="bold" lengthAdjust="spacing" textLength="18.0908" x="135.5117" y="408.4966">10</text><text fill="#000000" font-family="sans-serif" font-size="13" lengthAdjust="spacing" textLength="96.0146" x="157.6025" y="408.4966">404 Not Found</text></g><?plantuml-src TP79ReCm443l_eeHf-GG4LKvHMsgO4Zt86LfpmuCgbMAaJ5Degh_th41GQNqO0ayxyrcKHjLr9y7r4maHcdm0f5yg2oJ2K9SeXRsqeVbZdCFH0LBIx5IQ2CJMOh2WBUKkbJQS5KOhV8SjGEvqVbVxbNYiML3D4BcrRv2BYfq_9vVpBh1KbMIQfuTPNzPAemua0TUs7wvM1Wmvjg3oSALXpdSHJlmHIbzqQIh_6z93bSf_jY9vPSmsFJAd4BgdfE89qngWwEE7lSqTSg88T9sGsmcYpGuFxIaFPSqrxepo0m3yhRHSyHtiDh4Bz3s1s_tqIQ2X5IuWTlUfk78cVH5Eq5ZedJAKXoYJPbkbhWqKXKYlsvtkXZIhYqcSWDj539L5oa3wqxwJRPHkc_sH95csNEucauXVeBHupPUZndcz39ThaBzby-yQtMiEd2jpCfYqIb1r-sbEhFf30W4HpAaCno4dcNmP-LV?></g></svg>