<svg xmlns="http://www.w3.org/2000/svg" xmlns:xlink="http://www.w3.org/1999/xlink" contentStyleType="text/css" data-diagram-type="SEQUENCE" height="240px" preserveAspectRatio="none" style="width:334px;height:240px;background:#FFFFFF;" version="1.1" viewBox="0 0 334 240" width="334px" zoomAndPan="magnify"><defs/><g><g><title>System</title><rect fill="#FFFFFF" height="29.1328" style="stroke:#181818;stroke-width:1;" width="10" x="290.4287" y="112.4297"/></g><g><title>ATCC</title><rect fill="#000000" fill-opacity="0.00000" height="78.2656" width="8" x="22.8398" y="81.2969"/><line style="stroke:#181818;stroke-width:0.5;stroke-dasharray:5,5;" x1="26" x2="26" y1="81.2969" y2="159.5625"/></g><g><title>System</title><rect fill="#000000" fill-opacity="0.00000" height="78.2656" width="8" x="291.4287" y="81.2969"/><line style="stroke:#181818;stroke-width:0.5;stroke-dasharray:5,5;" x1="295.3257" x2="295.3257" y1="81.2969" y2="159.5625"/></g><g class="participant participant-head" data-participant="ATCC"><text fill="#000000" font-family="sans-serif" font-size="14" lengthAdjust="spacing" textLength="37.6797" x="5" y="77.9951">ATCC</text><ellipse cx="26.8398" cy="13.5" fill="#E2E2F0" rx="8" ry="8" style="stroke:#181818;stroke-width:0.5;"/><path d="M26.8398,21.5 L26.8398,48.5 M13.8398,29.5 L39.8398,29.5 M26.8398,48.5 L13.8398,63.5 M26.8398,48.5 L39.8398,63.5" fill="none" style="stroke:#181818;stroke-width:0.5;"/></g><g class="participant participant-tail" data-participant="ATCC"><text fill="#000000" font-family="sans-serif" font-size="14" lengthAdjust="spacing" textLength="37.6797" x="5" y="171.5576">ATCC</text><ellipse cx="26.8398" cy="183.3594" fill="#E2E2F0" rx="8" ry="8" style="stroke:#181818;stroke-width:0.5;"/><path d="M26.8398,191.3594 L26.8398,218.3594 M13.8398,199.3594 L39.8398,199.3594 M26.8398,218.3594 L13.8398,233.3594 M26.8398,218.3594 L39.8398,233.3594" fill="none" style="stroke:#181818;stroke-width:0.5;"/></g><g class="participant participant-head" data-participant="Sys"><rect fill="#E2E2F0" height="30.2969" rx="2.5" ry="2.5" style="stroke:#181818;stroke-width:0.5;" width="66.2061" x="262.3257" y="50"/><text fill="#000000" font-family="sans-serif" font-size="14" lengthAdjust="spacing" textLength="52.2061" x="269.3257" y="69.9951">System</text></g><g class="participant participant-tail" data-participant="Sys"><rect fill="#E2E2F0" height="30.2969" rx="2.5" ry="2.5" style="stroke:#181818;stroke-width:0.5;" width="66.2061" x="262.3257" y="158.5625"/><text fill="#000000" font-family="sans-serif" font-size="14" lengthAdjust="spacing" textLength="52.2061" x="269.3257" y="178.5576">System</text></g><g><title>System</title><rect fill="#FFFFFF" height="29.1328" style="stroke:#181818;stroke-width:1;" width="10" x="290.4287" y="112.4297"/></g><g class="message" data-participant-1="ATCC" data-participant-2="Sys"><polygon fill="#181818" points="278.4287,108.4297,288.4287,112.4297,278.4287,116.4297,282.4287,112.4297" style="stroke:#181818;stroke-width:1;"/><line style="stroke:#181818;stroke-width:1;" x1="26.8398" x2="284.4287" y1="112.4297" y2="112.4297"/><text fill="#000000" font-family="sans-serif" font-size="13" font-weight="bold" lengthAdjust="spacing" textLength="9.0454" x="33.8398" y="107.3638">1</text><text fill="#000000" font-family="sans-serif" font-size="13" lengthAdjust="spacing" textLength="231.5435" x="46.8853" y="107.3638">searchAirports(name, city, country)</text></g><g class="message" data-participant-1="Sys" data-participant-2="ATCC"><polygon fill="#181818" points="37.8398,137.5625,27.8398,141.5625,37.8398,145.5625,33.8398,141.5625" style="stroke:#181818;stroke-width:1;"/><line style="stroke:#181818;stroke-width:1;stroke-dasharray:2,2;" x1="31.8398" x2="294.4287" y1="141.5625" y2="141.5625"/><text fill="#000000" font-family="sans-serif" font-size="13" font-weight="bold" lengthAdjust="spacing" textLength="9.0454" x="43.8398" y="136.4966">2</text><text fill="#000000" font-family="sans-serif" font-size="13" lengthAdjust="spacing" textLength="207.6763" x="56.8853" y="136.4966">returns list of matching Airports</text></g><!--SRC=[JOrT2i8m48JVSugXJmhs0dqGIe-W5rZZQXVC3vjDeRStAGY-3BFCVZDKBSKQ7goEl2N5CD-NPG0LTECogOcNJD4mtFPY78wmMUVw1yPhFp2XCAbVPz6SrCefKk0BlDZUDDLekf_xXcnaVF0T6nj-r4nGjggnu2F5a5u8P7wL-CQlqZtvd_y2]--></g></svg>