<svg xmlns="http://www.w3.org/2000/svg" xmlns:xlink="http://www.w3.org/1999/xlink" contentStyleType="text/css" data-diagram-type="SEQUENCE" height="240px" preserveAspectRatio="none" style="width:402px;height:240px;background:#FFFFFF;" version="1.1" viewBox="0 0 402 240" width="402px" zoomAndPan="magnify"><defs/><g><g><title>System</title><rect fill="#FFFFFF" height="29.1328" style="stroke:#181818;stroke-width:1;" width="10" x="357.9116" y="112.4297"/></g><g><title>Backoffice Operator</title><rect fill="#000000" fill-opacity="0.00000" height="78.2656" width="8" x="73.8633" y="81.2969"/><line style="stroke:#181818;stroke-width:0.5;stroke-dasharray:5,5;" x1="77" x2="77" y1="81.2969" y2="159.5625"/></g><g><title>System</title><rect fill="#000000" fill-opacity="0.00000" height="78.2656" width="8" x="358.9116" y="81.2969"/><line style="stroke:#181818;stroke-width:0.5;stroke-dasharray:5,5;" x1="362.8086" x2="362.8086" y1="81.2969" y2="159.5625"/></g><g class="participant participant-head" data-participant="BO"><text fill="#000000" font-family="sans-serif" font-size="14" lengthAdjust="spacing" textLength="139.7266" x="5" y="77.9951">Backoffice Operator</text><ellipse cx="77.8633" cy="13.5" fill="#E2E2F0" rx="8" ry="8" style="stroke:#181818;stroke-width:0.5;"/><path d="M77.8633,21.5 L77.8633,48.5 M64.8633,29.5 L90.8633,29.5 M77.8633,48.5 L64.8633,63.5 M77.8633,48.5 L90.8633,63.5" fill="none" style="stroke:#181818;stroke-width:0.5;"/></g><g class="participant participant-tail" data-participant="BO"><text fill="#000000" font-family="sans-serif" font-size="14" lengthAdjust="spacing" textLength="139.7266" x="5" y="171.5576">Backoffice Operator</text><ellipse cx="77.8633" cy="183.3594" fill="#E2E2F0" rx="8" ry="8" style="stroke:#181818;stroke-width:0.5;"/><path d="M77.8633,191.3594 L77.8633,218.3594 M64.8633,199.3594 L90.8633,199.3594 M77.8633,218.3594 L64.8633,233.3594 M77.8633,218.3594 L90.8633,233.3594" fill="none" style="stroke:#181818;stroke-width:0.5;"/></g><g class="participant participant-head" data-participant="Sys"><rect fill="#E2E2F0" height="30.2969" rx="2.5" ry="2.5" style="stroke:#181818;stroke-width:0.5;" width="66.2061" x="329.8086" y="50"/><text fill="#000000" font-family="sans-serif" font-size="14" lengthAdjust="spacing" textLength="52.2061" x="336.8086" y="69.9951">System</text></g><g class="participant participant-tail" data-participant="Sys"><rect fill="#E2E2F0" height="30.2969" rx="2.5" ry="2.5" style="stroke:#181818;stroke-width:0.5;" width="66.2061" x="329.8086" y="158.5625"/><text fill="#000000" font-family="sans-serif" font-size="14" lengthAdjust="spacing" textLength="52.2061" x="336.8086" y="178.5576">System</text></g><g><title>System</title><rect fill="#FFFFFF" height="29.1328" style="stroke:#181818;stroke-width:1;" width="10" x="357.9116" y="112.4297"/></g><g class="message" data-participant-1="BO" data-participant-2="Sys"><polygon fill="#181818" points="345.9116,108.4297,355.9116,112.4297,345.9116,116.4297,349.9116,112.4297" style="stroke:#181818;stroke-width:1;"/><line style="stroke:#181818;stroke-width:1;" x1="77.8633" x2="351.9116" y1="112.4297" y2="112.4297"/><text fill="#000000" font-family="sans-serif" font-size="13" font-weight="bold" lengthAdjust="spacing" textLength="9.0454" x="84.8633" y="107.3638">1</text><text fill="#000000" font-family="sans-serif" font-size="13" lengthAdjust="spacing" textLength="248.0029" x="97.9087" y="107.3638">updateAirportStatus(iataCode, status)</text></g><g class="message" data-participant-1="Sys" data-participant-2="BO"><polygon fill="#181818" points="88.8633,137.5625,78.8633,141.5625,88.8633,145.5625,84.8633,141.5625" style="stroke:#181818;stroke-width:1;"/><line style="stroke:#181818;stroke-width:1;stroke-dasharray:2,2;" x1="82.8633" x2="361.9116" y1="141.5625" y2="141.5625"/><text fill="#000000" font-family="sans-serif" font-size="13" font-weight="bold" lengthAdjust="spacing" textLength="9.0454" x="94.8633" y="136.4966">2</text><text fill="#000000" font-family="sans-serif" font-size="13" lengthAdjust="spacing" textLength="201.2969" x="107.9087" y="136.4966">returns updated Airport details</text></g><!--SRC=[JOqn2iCm34Ltdq9uQg6vG8P2tGDuo0bKMm7HnZQo7EZjwvWCtJvV_prXqvpQzY8n63GBM8VXdTUL0u4l9DXB2rZ1ULDGb0CNJ0fs-LQbRPnwDCPvcEv7X1bQYQZqO2bPT57KLY-CYiySwGPr5DVZ8UzzD_W3dBgWQsOGqYQfdfu8fmaYAVAdcaZ_x0y0]--></g></svg>