<svg xmlns="http://www.w3.org/2000/svg" xmlns:xlink="http://www.w3.org/1999/xlink" contentStyleType="text/css" data-diagram-type="SEQUENCE" height="240px" preserveAspectRatio="none" style="width:511px;height:240px;background:#FFFFFF;" version="1.1" viewBox="0 0 511 240" width="511px" zoomAndPan="magnify"><defs/><g><g><title>System</title><rect fill="#FFFFFF" height="29.1328" style="stroke:#181818;stroke-width:1;" width="10" x="467.7808" y="112.4297"/></g><g><title>Backoffice Operator . ATCC</title><rect fill="#000000" fill-opacity="0.00000" height="78.2656" width="8" x="99.5117" y="81.2969"/><line style="stroke:#181818;stroke-width:0.5;stroke-dasharray:5,5;" x1="103" x2="103" y1="81.2969" y2="159.5625"/></g><g><title>System</title><rect fill="#000000" fill-opacity="0.00000" height="78.2656" width="8" x="468.7808" y="81.2969"/><line style="stroke:#181818;stroke-width:0.5;stroke-dasharray:5,5;" x1="472.6777" x2="472.6777" y1="81.2969" y2="159.5625"/></g><g class="participant participant-head" data-participant="Actor"><text fill="#000000" font-family="sans-serif" font-size="14" lengthAdjust="spacing" textLength="191.0234" x="5" y="77.9951">Backoffice Operator / ATCC</text><ellipse cx="103.5117" cy="13.5" fill="#E2E2F0" rx="8" ry="8" style="stroke:#181818;stroke-width:0.5;"/><path d="M103.5117,21.5 L103.5117,48.5 M90.5117,29.5 L116.5117,29.5 M103.5117,48.5 L90.5117,63.5 M103.5117,48.5 L116.5117,63.5" fill="none" style="stroke:#181818;stroke-width:0.5;"/></g><g class="participant participant-tail" data-participant="Actor"><text fill="#000000" font-family="sans-serif" font-size="14" lengthAdjust="spacing" textLength="191.0234" x="5" y="171.5576">Backoffice Operator / ATCC</text><ellipse cx="103.5117" cy="183.3594" fill="#E2E2F0" rx="8" ry="8" style="stroke:#181818;stroke-width:0.5;"/><path d="M103.5117,191.3594 L103.5117,218.3594 M90.5117,199.3594 L116.5117,199.3594 M103.5117,218.3594 L90.5117,233.3594 M103.5117,218.3594 L116.5117,233.3594" fill="none" style="stroke:#181818;stroke-width:0.5;"/></g><g class="participant participant-head" data-participant="Sys"><rect fill="#E2E2F0" height="30.2969" rx="2.5" ry="2.5" style="stroke:#181818;stroke-width:0.5;" width="66.2061" x="439.6777" y="50"/><text fill="#000000" font-family="sans-serif" font-size="14" lengthAdjust="spacing" textLength="52.2061" x="446.6777" y="69.9951">System</text></g><g class="participant participant-tail" data-participant="Sys"><rect fill="#E2E2F0" height="30.2969" rx="2.5" ry="2.5" style="stroke:#181818;stroke-width:0.5;" width="66.2061" x="439.6777" y="158.5625"/><text fill="#000000" font-family="sans-serif" font-size="14" lengthAdjust="spacing" textLength="52.2061" x="446.6777" y="178.5576">System</text></g><g><title>System</title><rect fill="#FFFFFF" height="29.1328" style="stroke:#181818;stroke-width:1;" width="10" x="467.7808" y="112.4297"/></g><g class="message" data-participant-1="Actor" data-participant-2="Sys"><polygon fill="#181818" points="455.7808,108.4297,465.7808,112.4297,455.7808,116.4297,459.7808,112.4297" style="stroke:#181818;stroke-width:1;"/><line style="stroke:#181818;stroke-width:1;" x1="103.5117" x2="461.7808" y1="112.4297" y2="112.4297"/><text fill="#000000" font-family="sans-serif" font-size="13" font-weight="bold" lengthAdjust="spacing" textLength="9.0454" x="110.5117" y="107.3638">1</text><text fill="#000000" font-family="sans-serif" font-size="13" lengthAdjust="spacing" textLength="332.2236" x="123.5571" y="107.3638">addAirplaneCertification(iataCode, aircraftModelId)</text></g><g class="message" data-participant-1="Sys" data-participant-2="Actor"><polygon fill="#181818" points="114.5117,137.5625,104.5117,141.5625,114.5117,145.5625,110.5117,141.5625" style="stroke:#181818;stroke-width:1;"/><line style="stroke:#181818;stroke-width:1;stroke-dasharray:2,2;" x1="108.5117" x2="471.7808" y1="141.5625" y2="141.5625"/><text fill="#000000" font-family="sans-serif" font-size="13" font-weight="bold" lengthAdjust="spacing" textLength="9.0454" x="120.5117" y="136.4966">2</text><text fill="#000000" font-family="sans-serif" font-size="13" lengthAdjust="spacing" textLength="285.7969" x="133.5571" y="136.4966">returns created AirplaneCertification details</text></g><!--SRC=[RSuz3i8m30NWFQUmEe44Ok-0L38n80Qum2Dn9OisgLmNYTkJb8M1pJ_Fdup5Sbh61wj3iApKd12UkUybC5qdLjJXWRgxzmrXfgwct0Gr2J8X6JMtzsmyhjjIEhT6Q7-i7RM463lHQK1Yp-Miq339QICm-1nvHn0DYjukfHlESLj_aHUCLx0o-y9ztPQKRT4qKr0kaKX_TOfia65saN-n3m00]--></g></svg>