<svg xmlns="http://www.w3.org/2000/svg" xmlns:xlink="http://www.w3.org/1999/xlink" contentStyleType="text/css" data-diagram-type="DESCRIPTION" height="529px" preserveAspectRatio="none" style="width:486px;height:529px;background:#FFFFFF;" version="1.1" viewBox="0 0 486 529" width="486px" zoomAndPan="magnify"><title>Use Case Diagram (UCD) - ATCC Operations</title><defs/><g><g class="title" data-source-line="1"><text fill="#000000" font-family="sans-serif" font-size="14" font-weight="bold" lengthAdjust="spacing" textLength="295.6133" x="88.1934" y="25.1074">Use Case Diagram (UCD) - ATCC Operations</text></g><!--cluster Flight & Route Management System--><g class="cluster" data-entity="Flight . Route Management System" data-source-line="8" data-uid="ent0003" id="cluster_Flight . Route Management System"><rect fill="none" height="477" rx="2.5" ry="2.5" style="stroke:#181818;stroke-width:1;" width="297" x="183" y="46.6211"/><text fill="#000000" font-family="sans-serif" font-size="14" font-weight="bold" lengthAdjust="spacing" textLength="238.8066" x="212.0967" y="63.7285">Flight &amp; Route Management System</text></g><!--entity UC212--><g class="entity" data-entity="UC212" data-source-line="10" data-uid="ent0004" id="entity_UC212"><ellipse cx="331.6773" cy="112.5566" fill="#F1F1F1" rx="132.6773" ry="28.9355" style="stroke:#181818;stroke-width:0.5;"/><text fill="#000000" font-family="sans-serif" font-size="14" lengthAdjust="spacing" textLength="197.6475" x="232.8536" y="110.8847">US212: Assign Aircraft to Route</text><text fill="#000000" font-family="sans-serif" font-size="14" lengthAdjust="spacing" textLength="159.5234" x="251.9156" y="129.5058">(Create Scheduled Flight)</text></g><!--entity UC213--><g class="entity" data-entity="UC213" data-source-line="11" data-uid="ent0005" id="entity_UC213"><ellipse cx="331.4721" cy="203.5155" fill="#F1F1F1" rx="122.4721" ry="26.8944" style="stroke:#181818;stroke-width:0.5;"/><text fill="#000000" font-family="sans-serif" font-size="14" lengthAdjust="spacing" textLength="192.2197" x="235.3622" y="204.443">US213: View Scheduled Flighs</text><text fill="#000000" font-family="sans-serif" font-size="14" lengthAdjust="spacing" textLength="63.0137" x="299.9653" y="223.0641">by Aircraft</text></g><!--entity UC214--><g class="entity" data-entity="UC214" data-source-line="12" data-uid="ent0006" id="entity_UC214"><ellipse cx="331.3363" cy="294.7338" fill="#F1F1F1" rx="129.8363" ry="28.6127" style="stroke:#181818;stroke-width:0.5;"/><text fill="#000000" font-family="sans-serif" font-size="14" lengthAdjust="spacing" textLength="162.6338" x="250.0195" y="290.1986">US214: List Active Routes</text><text fill="#000000" font-family="sans-serif" font-size="14" lengthAdjust="spacing" textLength="184.4268" x="239.123" y="308.8197">Sorted by Popularity/Distance</text></g><!--entity UC215--><g class="entity" data-entity="UC215" data-source-line="13" data-uid="ent0007" id="entity_UC215"><ellipse cx="331.61" cy="386.6131" fill="#F1F1F1" rx="99.61" ry="27.992" style="stroke:#181818;stroke-width:0.5;"/><text fill="#000000" font-family="sans-serif" font-size="14" lengthAdjust="spacing" textLength="143.9648" x="259.6276" y="385.0652">US215: Calculate Total</text><text fill="#000000" font-family="sans-serif" font-size="14" lengthAdjust="spacing" textLength="109.7031" x="276.7585" y="403.6863">Network Distance</text></g><!--entity UC216--><g class="entity" data-entity="UC216" data-source-line="14" data-uid="ent0008" id="entity_UC216"><ellipse cx="331.5364" cy="478.6284" fill="#F1F1F1" rx="130.5364" ry="28.5073" style="stroke:#181818;stroke-width:0.5;"/><text fill="#000000" font-family="sans-serif" font-size="14" lengthAdjust="spacing" textLength="213.2266" x="224.9231" y="479.7507">US216: Search Alternative Routes</text><text fill="#000000" font-family="sans-serif" font-size="14" lengthAdjust="spacing" textLength="105.0547" x="279.009" y="498.3718">between Airports</text></g><!--entity ATCC--><g class="entity" data-entity="ATCC" data-source-line="6" data-uid="ent0002" id="entity_ATCC"><ellipse cx="72.5239" cy="254.6211" fill="#F1F1F1" rx="8" ry="8" style="stroke:#181818;stroke-width:0.5;"/><path d="M72.5239,262.6211 L72.5239,289.6211 M59.5239,270.6211 L85.5239,270.6211 M72.5239,289.6211 L59.5239,304.6211 M72.5239,289.6211 L85.5239,304.6211" fill="none" style="stroke:#181818;stroke-width:0.5;"/><text fill="#000000" font-family="sans-serif" font-size="14" lengthAdjust="spacing" textLength="38.1104" x="6" y="321.2285">ATCC</text><text fill="#000000" font-family="sans-serif" font-size="14" lengthAdjust="spacing" textLength="133.0479" x="6" y="339.8496">(Backoffice Operator)</text></g><!--link ATCC to UC212--><g class="link" data-entity-1="ATCC" data-entity-2="UC212" data-source-line="18" data-uid="lnk9" id="link_ATCC_UC212"><path d="M99.01,246.1211 C116.71,216.8611 142.85,181.0211 175,158.6211 C191.75,146.9511 205.787,140.0959 225.467,133.5459" fill="none" id="ATCC-to-UC212" style="stroke:#181818;stroke-width:1;"/><polygon fill="#181818" points="231.16,131.6511,221.3574,130.6979,226.4159,133.2301,223.8837,138.2885,231.16,131.6511" style="stroke:#181818;stroke-width:1;"/></g><!--link ATCC to UC213--><g class="link" data-entity-1="ATCC" data-entity-2="UC213" data-source-line="19" data-uid="lnk10" id="link_ATCC_UC213"><path d="M139.26,263.1611 C151.04,258.0011 163.29,252.9411 175,248.6211 C199.52,239.5711 220.9799,232.806 245.7099,225.756" fill="none" id="ATCC-to-UC213" style="stroke:#181818;stroke-width:1;"/><polygon fill="#181818" points="251.48,224.1111,241.7282,222.7318,246.6716,225.4819,243.9215,230.4252,251.48,224.1111" style="stroke:#181818;stroke-width:1;"/></g><!--link ATCC to UC214--><g class="link" data-entity-1="ATCC" data-entity-2="UC214" data-source-line="20" data-uid="lnk11" id="link_ATCC_UC214"><path d="M139.02,294.6211 C158.13,294.6211 173.71,294.6211 195.31,294.6211" fill="none" id="ATCC-to-UC214" style="stroke:#181818;stroke-width:1;"/><polygon fill="#181818" points="201.31,294.6211,192.31,290.6211,196.31,294.6211,192.31,298.6211,201.31,294.6211" style="stroke:#181818;stroke-width:1;"/></g><!--link ATCC to UC215--><g class="link" data-entity-1="ATCC" data-entity-2="UC215" data-source-line="21" data-uid="lnk12" id="link_ATCC_UC215"><path d="M139.01,325.9011 C150.87,331.1011 163.22,336.2311 175,340.6211 C201.78,350.5911 226.0029,358.2356 252.4429,365.8256" fill="none" id="ATCC-to-UC215" style="stroke:#181818;stroke-width:1;"/><polygon fill="#181818" points="258.21,367.4811,250.6631,361.1531,253.4041,366.1015,248.4557,368.8425,258.21,367.4811" style="stroke:#181818;stroke-width:1;"/></g><!--link ATCC to UC216--><g class="link" data-entity-1="ATCC" data-entity-2="UC216" data-source-line="22" data-uid="lnk13" id="link_ATCC_UC216"><path d="M98.98,343.4111 C116.67,372.8711 142.81,408.9611 175,431.6211 C192.41,443.8811 207.3821,451.1113 227.8721,457.8713" fill="none" id="ATCC-to-UC216" style="stroke:#181818;stroke-width:1;"/><polygon fill="#181818" points="233.57,459.7511,226.2764,453.1327,228.8217,458.1846,223.7699,460.7299,233.57,459.7511" style="stroke:#181818;stroke-width:1;"/></g><!--SRC=[PP8zQyCm48Pt_Oh3Gqc6K9glmKF1TUZKB-gaKvQBSd545Cb8buPG-jzxTeB1xY8ufETvJoUnOKkmYWGvoh8mM0Oymc2LBuOmWcoPv_1UKK0staMbBEqOs4CmvPvXQmBfUaV5Wt4LrcY5-e0b5NmHSRsDhhIa56hs0PBQk7Q39pdbTpkZwQRtOPW0nYPHgPQ3vDasKNVmwKzCy8fEx4To3CKbCXqJ-54Au1H9rpT8LiNuOPn25gCf7MGcw83NdXk1PEU1K4o5tjFsP6aBruXh_YeNlE-RfF1bwDn7ujfjBcr4Yq_w-3I55nCPCfdLDrtx4BRmWKKbYWzVdIm6mvVxXHn4fwcrJVksMIflPRK0SecbPxHhzqPyzk40_-XPdvwdK106lOVCCWM7dPOsuY5gnbP9Tx7rp9NwLQhv3gFHusrAdNBIBQVTSjOjv-eF]--></g></svg>