<svg xmlns="http://www.w3.org/2000/svg" xmlns:xlink="http://www.w3.org/1999/xlink" contentStyleType="text/css" data-diagram-type="SEQUENCE" height="711px" preserveAspectRatio="none" style="width:1977px;height:711px;background:#FFFFFF;" version="1.1" viewBox="0 0 1977 711" width="1977px" zoomAndPan="magnify"><defs/><g><g><title>RouteController</title><rect fill="#FFFFFF" height="508.3281" style="stroke:#181818;stroke-width:1;" width="10" x="459.4082" y="112.4297"/></g><g><title>ViewRouteHistoryUseCase</title><rect fill="#FFFFFF" height="404.7969" style="stroke:#181818;stroke-width:1;" width="10" x="826.5723" y="141.5625"/></g><g><title>RouteRepository</title><rect fill="#FFFFFF" height="87.3984" style="stroke:#181818;stroke-width:1;" width="10" x="1190.7104" y="170.6953"/></g><g><title>RouteHistoryRepository</title><rect fill="#FFFFFF" height="87.3984" style="stroke:#181818;stroke-width:1;" width="10" x="1355.9546" y="399.5625"/></g><g><title>Database</title><rect fill="#FFFFFF" height="29.1328" style="stroke:#181818;stroke-width:1;" width="10" x="1918.9712" y="199.8281"/></g><g><title>Database</title><rect fill="#FFFFFF" height="29.1328" style="stroke:#181818;stroke-width:1;" width="10" x="1918.9712" y="428.6953"/></g><rect fill="none" height="340.6641" style="stroke:#000000;stroke-width:1.5;" width="1960.3716" x="10" y="273.0938"/><g><title>ATCC</title><rect fill="#000000" fill-opacity="0.00000" height="549.4609" width="8" x="37.8398" y="81.2969"/><line style="stroke:#181818;stroke-width:0.5;stroke-dasharray:5,5;" x1="41" x2="41" y1="81.2969" y2="630.7578"/></g><g><title>RouteController</title><rect fill="#000000" fill-opacity="0.00000" height="549.4609" width="8" x="460.4082" y="81.2969"/><line style="stroke:#181818;stroke-width:0.5;stroke-dasharray:5,5;" x1="464.1875" x2="464.1875" y1="81.2969" y2="630.7578"/></g><g><title>ViewRouteHistoryUseCase</title><rect fill="#000000" fill-opacity="0.00000" height="549.4609" width="8" x="827.5723" y="81.2969"/><line style="stroke:#181818;stroke-width:0.5;stroke-dasharray:5,5;" x1="831.0615" x2="831.0615" y1="81.2969" y2="630.7578"/></g><g><title>RouteRepository</title><rect fill="#000000" fill-opacity="0.00000" height="549.4609" width="8" x="1191.7104" y="81.2969"/><line style="stroke:#181818;stroke-width:0.5;stroke-dasharray:5,5;" x1="1195.54" x2="1195.54" y1="81.2969" y2="630.7578"/></g><g><title>RouteHistoryRepository</title><rect fill="#000000" fill-opacity="0.00000" height="549.4609" width="8" x="1356.9546" y="81.2969"/><line style="stroke:#181818;stroke-width:0.5;stroke-dasharray:5,5;" x1="1360.8809" x2="1360.8809" y1="81.2969" y2="630.7578"/></g><g><title>Database</title><rect fill="#000000" fill-opacity="0.00000" height="549.4609" width="8" x="1919.9712" y="81.2969"/><line style="stroke:#181818;stroke-width:0.5;stroke-dasharray:5,5;" x1="1923.5708" x2="1923.5708" y1="81.2969" y2="630.7578"/></g><g class="participant participant-head" data-participant="Actor"><text fill="#000000" font-family="sans-serif" font-size="14" lengthAdjust="spacing" textLength="37.6797" x="20" y="77.9951">ATCC</text><ellipse cx="41.8398" cy="13.5" fill="#E2E2F0" rx="8" ry="8" style="stroke:#181818;stroke-width:0.5;"/><path d="M41.8398,21.5 L41.8398,48.5 M28.8398,29.5 L54.8398,29.5 M41.8398,48.5 L28.8398,63.5 M41.8398,48.5 L54.8398,63.5" fill="none" style="stroke:#181818;stroke-width:0.5;"/></g><g class="participant participant-tail" data-participant="Actor"><text fill="#000000" font-family="sans-serif" font-size="14" lengthAdjust="spacing" textLength="37.6797" x="20" y="642.7529">ATCC</text><ellipse cx="41.8398" cy="654.5547" fill="#E2E2F0" rx="8" ry="8" style="stroke:#181818;stroke-width:0.5;"/><path d="M41.8398,662.5547 L41.8398,689.5547 M28.8398,670.5547 L54.8398,670.5547 M41.8398,689.5547 L28.8398,704.5547 M41.8398,689.5547 L54.8398,704.5547" fill="none" style="stroke:#181818;stroke-width:0.5;"/></g><g class="participant participant-head" data-participant="Ctrl"><rect fill="#E2E2F0" height="30.2969" rx="2.5" ry="2.5" style="stroke:#181818;stroke-width:0.5;" width="124.4414" x="402.1875" y="50"/><text fill="#000000" font-family="sans-serif" font-size="14" lengthAdjust="spacing" textLength="110.4414" x="409.1875" y="69.9951">RouteController</text></g><g class="participant participant-tail" data-participant="Ctrl"><rect fill="#E2E2F0" height="30.2969" rx="2.5" ry="2.5" style="stroke:#181818;stroke-width:0.5;" width="124.4414" x="402.1875" y="629.7578"/><text fill="#000000" font-family="sans-serif" font-size="14" lengthAdjust="spacing" textLength="110.4414" x="409.1875" y="649.7529">RouteController</text></g><g class="participant participant-head" data-participant="UC"><rect fill="#E2E2F0" height="30.2969" rx="2.5" ry="2.5" style="stroke:#181818;stroke-width:0.5;" width="199.0215" x="732.0615" y="50"/><text fill="#000000" font-family="sans-serif" font-size="14" lengthAdjust="spacing" textLength="185.0215" x="739.0615" y="69.9951">ViewRouteHistoryUseCase</text></g><g class="participant participant-tail" data-participant="UC"><rect fill="#E2E2F0" height="30.2969" rx="2.5" ry="2.5" style="stroke:#181818;stroke-width:0.5;" width="199.0215" x="732.0615" y="629.7578"/><text fill="#000000" font-family="sans-serif" font-size="14" lengthAdjust="spacing" textLength="185.0215" x="739.0615" y="649.7529">ViewRouteHistoryUseCase</text></g><g class="participant participant-head" data-participant="RouteRepo"><rect fill="#E2E2F0" height="30.2969" rx="2.5" ry="2.5" style="stroke:#181818;stroke-width:0.5;" width="130.3408" x="1130.54" y="50"/><text fill="#000000" font-family="sans-serif" font-size="14" lengthAdjust="spacing" textLength="116.3408" x="1137.54" y="69.9951">RouteRepository</text></g><g class="participant participant-tail" data-participant="RouteRepo"><rect fill="#E2E2F0" height="30.2969" rx="2.5" ry="2.5" style="stroke:#181818;stroke-width:0.5;" width="130.3408" x="1130.54" y="629.7578"/><text fill="#000000" font-family="sans-serif" font-size="14" lengthAdjust="spacing" textLength="116.3408" x="1137.54" y="649.7529">RouteRepository</text></g><g class="participant participant-head" data-participant="HistoryRepo"><rect fill="#E2E2F0" height="30.2969" rx="2.5" ry="2.5" style="stroke:#181818;stroke-width:0.5;" width="180.1475" x="1270.8809" y="50"/><text fill="#000000" font-family="sans-serif" font-size="14" lengthAdjust="spacing" textLength="166.1475" x="1277.8809" y="69.9951">RouteHistoryRepository</text></g><g class="participant participant-tail" data-participant="HistoryRepo"><rect fill="#E2E2F0" height="30.2969" rx="2.5" ry="2.5" style="stroke:#181818;stroke-width:0.5;" width="180.1475" x="1270.8809" y="629.7578"/><text fill="#000000" font-family="sans-serif" font-size="14" lengthAdjust="spacing" textLength="166.1475" x="1277.8809" y="649.7529">RouteHistoryRepository</text></g><g class="participant participant-head" data-participant="DB"><text fill="#000000" font-family="sans-serif" font-size="14" lengthAdjust="spacing" textLength="66.8008" x="1887.5708" y="77.9951">Database</text><path d="M1905.9712,29 C1905.9712,19 1923.9712,19 1923.9712,19 C1923.9712,19 1941.9712,19 1941.9712,29 L1941.9712,55 C1941.9712,65 1923.9712,65 1923.9712,65 C1923.9712,65 1905.9712,65 1905.9712,55 L1905.9712,29" fill="#E2E2F0" style="stroke:#181818;stroke-width:0.5;"/><path d="M1905.9712,29 C1905.9712,39 1923.9712,39 1923.9712,39 C1923.9712,39 1941.9712,39 1941.9712,29" fill="none" style="stroke:#181818;stroke-width:0.5;"/></g><g class="participant participant-tail" data-participant="DB"><text fill="#000000" font-family="sans-serif" font-size="14" lengthAdjust="spacing" textLength="66.8008" x="1887.5708" y="642.7529">Database</text><path d="M1905.9712,656.0547 C1905.9712,646.0547 1923.9712,646.0547 1923.9712,646.0547 C1923.9712,646.0547 1941.9712,646.0547 1941.9712,656.0547 L1941.9712,682.0547 C1941.9712,692.0547 1923.9712,692.0547 1923.9712,692.0547 C1923.9712,692.0547 1905.9712,692.0547 1905.9712,682.0547 L1905.9712,656.0547" fill="#E2E2F0" style="stroke:#181818;stroke-width:0.5;"/><path d="M1905.9712,656.0547 C1905.9712,666.0547 1923.9712,666.0547 1923.9712,666.0547 C1923.9712,666.0547 1941.9712,666.0547 1941.9712,656.0547" fill="none" style="stroke:#181818;stroke-width:0.5;"/></g><g><title>RouteController</title><rect fill="#FFFFFF" height="508.3281" style="stroke:#181818;stroke-width:1;" width="10" x="459.4082" y="112.4297"/></g><g><title>ViewRouteHistoryUseCase</title><rect fill="#FFFFFF" height="404.7969" style="stroke:#181818;stroke-width:1;" width="10" x="826.5723" y="141.5625"/></g><g><title>RouteRepository</title><rect fill="#FFFFFF" height="87.3984" style="stroke:#181818;stroke-width:1;" width="10" x="1190.7104" y="170.6953"/></g><g><title>RouteHistoryRepository</title><rect fill="#FFFFFF" height="87.3984" style="stroke:#181818;stroke-width:1;" width="10" x="1355.9546" y="399.5625"/></g><g><title>Database</title><rect fill="#FFFFFF" height="29.1328" style="stroke:#181818;stroke-width:1;" width="10" x="1918.9712" y="199.8281"/></g><g><title>Database</title><rect fill="#FFFFFF" height="29.1328" style="stroke:#181818;stroke-width:1;" width="10" x="1918.9712" y="428.6953"/></g><g class="message" data-participant-1="Actor" data-participant-2="Ctrl"><polygon fill="#181818" points="447.4082,108.4297,457.4082,112.4297,447.4082,116.4297,451.4082,112.4297" style="stroke:#181818;stroke-width:1;"/><line style="stroke:#181818;stroke-width:1;" x1="41.8398" x2="453.4082" y1="112.4297" y2="112.4297"/><text fill="#000000" font-family="sans-serif" font-size="13" font-weight="bold" lengthAdjust="spacing" textLength="9.0454" x="48.8398" y="107.3638">1</text><text fill="#000000" font-family="sans-serif" font-size="13" lengthAdjust="spacing" textLength="301.1455" x="61.8853" y="107.3638">GET /api/routes/{origin}/{destination}/history</text></g><g class="message" data-participant-1="Ctrl" data-participant-2="UC"><polygon fill="#181818" points="814.5723,137.5625,824.5723,141.5625,814.5723,145.5625,818.5723,141.5625" style="stroke:#181818;stroke-width:1;"/><line style="stroke:#181818;stroke-width:1;" x1="469.4082" x2="820.5723" y1="141.5625" y2="141.5625"/><text fill="#000000" font-family="sans-serif" font-size="13" font-weight="bold" lengthAdjust="spacing" textLength="9.0454" x="476.4082" y="136.4966">2</text><text fill="#000000" font-family="sans-serif" font-size="13" lengthAdjust="spacing" textLength="275.0503" x="489.4536" y="136.4966">execute(origin: String, destination: String)</text></g><g class="message" data-participant-1="UC" data-participant-2="RouteRepo"><polygon fill="#181818" points="1178.7104,166.6953,1188.7104,170.6953,1178.7104,174.6953,1182.7104,170.6953" style="stroke:#181818;stroke-width:1;"/><line style="stroke:#181818;stroke-width:1;" x1="836.5723" x2="1184.7104" y1="170.6953" y2="170.6953"/><text fill="#000000" font-family="sans-serif" font-size="13" font-weight="bold" lengthAdjust="spacing" textLength="9.0454" x="843.5723" y="165.6294">3</text><text fill="#000000" font-family="sans-serif" font-size="13" lengthAdjust="spacing" textLength="322.0928" x="856.6177" y="165.6294">existsByOriginAndDestination(origin, destination)</text></g><g class="message" data-participant-1="RouteRepo" data-participant-2="DB"><polygon fill="#181818" points="1906.9712,195.8281,1916.9712,199.8281,1906.9712,203.8281,1910.9712,199.8281" style="stroke:#181818;stroke-width:1;"/><line style="stroke:#181818;stroke-width:1;" x1="1200.7104" x2="1912.9712" y1="199.8281" y2="199.8281"/><text fill="#000000" font-family="sans-serif" font-size="13" font-weight="bold" lengthAdjust="spacing" textLength="9.0454" x="1207.7104" y="194.7622">4</text><text fill="#000000" font-family="sans-serif" font-size="13" lengthAdjust="spacing" textLength="516.2549" x="1220.7559" y="194.7622">SELECT EXISTS(FROM route WHERE origin_code = ? AND destination_code = ?)</text></g><g class="message" data-participant-1="DB" data-participant-2="RouteRepo"><polygon fill="#181818" points="1211.7104,224.9609,1201.7104,228.9609,1211.7104,232.9609,1207.7104,228.9609" style="stroke:#181818;stroke-width:1;"/><line style="stroke:#181818;stroke-width:1;stroke-dasharray:2,2;" x1="1205.7104" x2="1922.9712" y1="228.9609" y2="228.9609"/><text fill="#000000" font-family="sans-serif" font-size="13" font-weight="bold" lengthAdjust="spacing" textLength="9.0454" x="1217.7104" y="223.895">5</text><text fill="#000000" font-family="sans-serif" font-size="13" lengthAdjust="spacing" textLength="51.9746" x="1230.7559" y="223.895">boolean</text></g><g class="message" data-participant-1="RouteRepo" data-participant-2="UC"><polygon fill="#181818" points="847.5723,254.0938,837.5723,258.0938,847.5723,262.0938,843.5723,258.0938" style="stroke:#181818;stroke-width:1;"/><line style="stroke:#181818;stroke-width:1;stroke-dasharray:2,2;" x1="841.5723" x2="1194.7104" y1="258.0938" y2="258.0938"/><text fill="#000000" font-family="sans-serif" font-size="13" font-weight="bold" lengthAdjust="spacing" textLength="9.0454" x="853.5723" y="253.0278">6</text><text fill="#000000" font-family="sans-serif" font-size="13" lengthAdjust="spacing" textLength="51.9746" x="866.6177" y="253.0278">boolean</text></g><path d="M10,273.0938 L74.4429,273.0938 L74.4429,280.2266 L64.4429,290.2266 L10,290.2266 L10,273.0938" fill="#EEEEEE" style="stroke:#000000;stroke-width:1.5;"/><rect fill="none" height="340.6641" style="stroke:#000000;stroke-width:1.5;" width="1960.3716" x="10" y="273.0938"/><text fill="#000000" font-family="sans-serif" font-size="13" font-weight="bold" lengthAdjust="spacing" textLength="19.4429" x="25" y="286.1606">alt</text><text fill="#000000" font-family="sans-serif" font-size="11" font-weight="bold" lengthAdjust="spacing" textLength="107.771" x="89.4429" y="285.3042">[route not found]</text><g class="message" data-participant-1="UC" data-participant-2="Ctrl"><polygon fill="#181818" points="480.4082,307.3594,470.4082,311.3594,480.4082,315.3594,476.4082,311.3594" style="stroke:#181818;stroke-width:1;"/><line style="stroke:#181818;stroke-width:1;stroke-dasharray:2,2;" x1="474.4082" x2="825.5723" y1="311.3594" y2="311.3594"/><text fill="#000000" font-family="sans-serif" font-size="13" font-weight="bold" lengthAdjust="spacing" textLength="9.0454" x="486.4082" y="306.2935">7</text><text fill="#000000" font-family="sans-serif" font-size="13" lengthAdjust="spacing" textLength="213.6367" x="499.4536" y="306.2935">throws RouteNotFoundException</text></g><g class="message" data-participant-1="Ctrl" data-participant-2="Actor"><polygon fill="#181818" points="52.8398,351.625,42.8398,355.625,52.8398,359.625,48.8398,355.625" style="stroke:#181818;stroke-width:1;"/><line style="stroke:#181818;stroke-width:1;stroke-dasharray:2,2;" x1="46.8398" x2="458.4082" y1="355.625" y2="355.625"/><text fill="#000000" font-family="sans-serif" font-size="13" font-weight="bold" lengthAdjust="spacing" textLength="9.0454" x="58.8398" y="342.9927">8</text><text fill="#000000" font-family="sans-serif" font-size="13" lengthAdjust="spacing" textLength="96.0146" x="71.8853" y="335.4263">404 Not Found</text><text fill="#000000" font-family="sans-serif" font-size="13" lengthAdjust="spacing" textLength="259.9365" x="71.8853" y="350.5591">{ message: "Route '...&#8594;...' not found." }</text></g><line style="stroke:#000000;stroke-width:1;stroke-dasharray:2,2;" x1="10" x2="1970.3716" y1="364.625" y2="364.625"/><text fill="#000000" font-family="sans-serif" font-size="11" font-weight="bold" lengthAdjust="spacing" textLength="83.2949" x="15" y="374.8354">[route found]</text><g class="message" data-participant-1="UC" data-participant-2="HistoryRepo"><polygon fill="#181818" points="1343.9546,395.5625,1353.9546,399.5625,1343.9546,403.5625,1347.9546,399.5625" style="stroke:#181818;stroke-width:1;"/><line style="stroke:#181818;stroke-width:1;" x1="836.5723" x2="1349.9546" y1="399.5625" y2="399.5625"/><text fill="#000000" font-family="sans-serif" font-size="13" font-weight="bold" lengthAdjust="spacing" textLength="9.0454" x="843.5723" y="394.4966">9</text><text fill="#000000" font-family="sans-serif" font-size="13" lengthAdjust="spacing" textLength="223.9897" x="856.6177" y="394.4966">findAllByRoute(origin, destination)</text></g><g class="message" data-participant-1="HistoryRepo" data-participant-2="DB"><polygon fill="#181818" points="1906.9712,424.6953,1916.9712,428.6953,1906.9712,432.6953,1910.9712,428.6953" style="stroke:#181818;stroke-width:1;"/><line style="stroke:#181818;stroke-width:1;" x1="1365.9546" x2="1912.9712" y1="428.6953" y2="428.6953"/><text fill="#000000" font-family="sans-serif" font-size="13" font-weight="bold" lengthAdjust="spacing" textLength="18.0908" x="1372.9546" y="423.6294">10</text><text fill="#000000" font-family="sans-serif" font-size="13" lengthAdjust="spacing" textLength="511.9258" x="1395.0454" y="423.6294">SELECT FROM route_history WHERE origin_code = ? AND destination_code = ?</text></g><g class="message" data-participant-1="DB" data-participant-2="HistoryRepo"><polygon fill="#181818" points="1376.9546,453.8281,1366.9546,457.8281,1376.9546,461.8281,1372.9546,457.8281" style="stroke:#181818;stroke-width:1;"/><line style="stroke:#181818;stroke-width:1;stroke-dasharray:2,2;" x1="1370.9546" x2="1922.9712" y1="457.8281" y2="457.8281"/><text fill="#000000" font-family="sans-serif" font-size="13" font-weight="bold" lengthAdjust="spacing" textLength="18.0908" x="1382.9546" y="452.7622">11</text><text fill="#000000" font-family="sans-serif" font-size="13" lengthAdjust="spacing" textLength="97.6587" x="1405.0454" y="452.7622">history records</text></g><g class="message" data-participant-1="HistoryRepo" data-participant-2="UC"><polygon fill="#181818" points="847.5723,482.9609,837.5723,486.9609,847.5723,490.9609,843.5723,486.9609" style="stroke:#181818;stroke-width:1;"/><line style="stroke:#181818;stroke-width:1;stroke-dasharray:2,2;" x1="841.5723" x2="1359.9546" y1="486.9609" y2="486.9609"/><text fill="#000000" font-family="sans-serif" font-size="13" font-weight="bold" lengthAdjust="spacing" textLength="18.0908" x="853.5723" y="481.895">12</text><text fill="#000000" font-family="sans-serif" font-size="13" lengthAdjust="spacing" textLength="129.0796" x="875.6631" y="481.895">List&lt;RouteHistory&gt;</text></g><g class="message" data-participant-1="UC" data-participant-2="Ctrl"><polygon fill="#181818" points="480.4082,542.3594,470.4082,546.3594,480.4082,550.3594,476.4082,546.3594" style="stroke:#181818;stroke-width:1;"/><line style="stroke:#181818;stroke-width:1;stroke-dasharray:2,2;" x1="474.4082" x2="830.5723" y1="546.3594" y2="546.3594"/><text fill="#000000" font-family="sans-serif" font-size="13" font-weight="bold" lengthAdjust="spacing" textLength="18.0908" x="486.4082" y="526.1606">13</text><text fill="#000000" font-family="sans-serif" font-size="13" lengthAdjust="spacing" textLength="192.0991" x="508.499" y="511.0278">List&lt;RouteHistoryResponse&gt;</text><text fill="#000000" font-family="sans-serif" font-size="13" lengthAdjust="spacing" textLength="206.2861" x="508.499" y="526.1606">[{ originCode, destinationCode,</text><text fill="#000000" font-family="sans-serif" font-size="13" lengthAdjust="spacing" textLength="298.6763" x="520.896" y="541.2935">changeDescription, changedAt, changedBy }]</text></g><g class="message" data-participant-1="Ctrl" data-participant-2="Actor"><polygon fill="#181818" points="52.8398,601.7578,42.8398,605.7578,52.8398,609.7578,48.8398,605.7578" style="stroke:#181818;stroke-width:1;"/><line style="stroke:#181818;stroke-width:1;stroke-dasharray:2,2;" x1="46.8398" x2="458.4082" y1="605.7578" y2="605.7578"/><text fill="#000000" font-family="sans-serif" font-size="13" font-weight="bold" lengthAdjust="spacing" textLength="18.0908" x="58.8398" y="585.5591">14</text><text fill="#000000" font-family="sans-serif" font-size="13" lengthAdjust="spacing" textLength="47.7026" x="80.9307" y="570.4263">200 OK</text><text fill="#000000" font-family="sans-serif" font-size="13" lengthAdjust="spacing" textLength="371.4775" x="80.9307" y="585.5591">CollectionModel&lt;EntityModel&lt;RouteHistoryResponse&gt;&gt;</text><text fill="#000000" font-family="sans-serif" font-size="13" lengthAdjust="spacing" textLength="148.1099" x="80.9307" y="600.6919">with _links (self, route)</text></g><!--SRC=[bPJVRjem5CRlynH7t9HAvO-cNg6EAOHqdTOMYJ_Rf34Xanp0Mcf7jXb5YDizm1vnJx8J9n27vcOto36VV-Sx_ax2jaQAxSiIbSSY8nKq_6aGD81fyBDdBsNAy8YdJ1XeZENMO225KJ99K5bPO5HILNtXkBFA1wu9iPzf39X6gvu5DSGnfbBpJ6ervxqQQO6yEE7iUZ4pR4dbe34iLbOo77YUxGXQVUiPUl0nd4A7fRoZChJk7AJYQowEdKECsd3139VqjCdfsGNnNynWth9d8GIR1OJ2Luo8qSm9FPWOnSNw1XpGQVEw1D5jU7IS8EUUBOiAwi5-P5c-Y8Sbf2XG0Jl0ykfA8D670y9EmiSmc4BuxTDaEcdUZqTFOFk6hm_XE8GSl8XaZF0UFe3_F7IBdFzmgj6T4hbrONyfPO9CU36wGiVFwSvgXAL_ZoMcy2UaWPNSYjY3x62h3D1ibDmL0_CipNqc2byZJ3F7fCuZ8dsUV0zkkxT0Gh3AkJZ02shDrjWhnWkksktstzz_wFUghDjkmD73X6OgD-IQwRl3HnLMNCH-aWpsbbSV5y2vONToeOAwYAtCQr7Cut_cvbQbF02AwAhsJso5aLIn9barnWkFfoWVQVFEVK7xrPDkcszIV7DuZ3gLGcD_BhuVYWO3QgDoZNPZBW0WsZ2nHdf98iLjyZV5LkoRytAmX-EFgYbw-sf6v5st2wFFS-BJ9oxAS4zKARaBXU5cdwzhpPBR7JSRM2HS_DJGr9YiRlB8hZsaWN47FIlx3m00]--></g></svg>