<?plantuml 1.2026.1?><svg xmlns="http://www.w3.org/2000/svg" xmlns:xlink="http://www.w3.org/1999/xlink" contentStyleType="text/css" data-diagram-type="SEQUENCE" height="635px" preserveAspectRatio="none" style="width:1282px;height:635px;background:#FFFFFF;" version="1.1" viewBox="0 0 1282 635" width="1282px" zoomAndPan="magnify"><defs/><g><g><title>RouteController</title><rect fill="#FFFFFF" height="432.6641" style="stroke:#181818;stroke-width:1;" width="10" x="256.1201" y="112.4297"/></g><g><title>ViewRouteHistoryUseCase</title><rect fill="#FFFFFF" height="403.5313" style="stroke:#181818;stroke-width:1;" width="10" x="525.8477" y="141.5625"/></g><g><title>RouteRepository</title><rect fill="#FFFFFF" height="87.3984" style="stroke:#181818;stroke-width:1;" width="10" x="700.5288" y="170.6953"/></g><g><title>RouteHistoryRepository</title><rect fill="#FFFFFF" height="87.3984" style="stroke:#181818;stroke-width:1;" width="10" x="865.7729" y="311.3594"/></g><g><title>Database</title><rect fill="#FFFFFF" height="29.1328" style="stroke:#181818;stroke-width:1;" width="10" x="1224.2363" y="199.8281"/></g><g><title>Database</title><rect fill="#FFFFFF" height="29.1328" style="stroke:#181818;stroke-width:1;" width="10" x="1224.2363" y="340.4922"/></g><rect fill="none" height="265" style="stroke:#000000;stroke-width:1.5;" width="1265.6367" x="10" y="273.0938"/><g class="participant-lifeline" data-entity-uid="part1" data-qualified-name="Actor" id="part1-lifeline"><g><title>ATCC</title><rect fill="#000000" fill-opacity="0.00000" height="473.7969" width="8" x="37.8398" y="81.2969"/><line style="stroke:#181818;stroke-width:0.5;stroke-dasharray:5,5;" x1="41" x2="41" y1="81.2969" y2="555.0938"/></g></g><g class="participant-lifeline" data-entity-uid="part2" data-qualified-name="Ctrl" id="part2-lifeline"><g><title>RouteController</title><rect fill="#000000" fill-opacity="0.00000" height="473.7969" width="8" x="257.1201" y="81.2969"/><line style="stroke:#181818;stroke-width:0.5;stroke-dasharray:5,5;" x1="260.8994" x2="260.8994" y1="81.2969" y2="555.0938"/></g></g><g class="participant-lifeline" data-entity-uid="part3" data-qualified-name="UC" id="part3-lifeline"><g><title>ViewRouteHistoryUseCase</title><rect fill="#000000" fill-opacity="0.00000" height="473.7969" width="8" x="526.8477" y="81.2969"/><line style="stroke:#181818;stroke-width:0.5;stroke-dasharray:5,5;" x1="530.3369" x2="530.3369" y1="81.2969" y2="555.0938"/></g></g><g class="participant-lifeline" data-entity-uid="part4" data-qualified-name="RouteRepo" id="part4-lifeline"><g><title>RouteRepository</title><rect fill="#000000" fill-opacity="0.00000" height="473.7969" width="8" x="701.5288" y="81.2969"/><line style="stroke:#181818;stroke-width:0.5;stroke-dasharray:5,5;" x1="705.3584" x2="705.3584" y1="81.2969" y2="555.0938"/></g></g><g class="participant-lifeline" data-entity-uid="part5" data-qualified-name="HistoryRepo" id="part5-lifeline"><g><title>RouteHistoryRepository</title><rect fill="#000000" fill-opacity="0.00000" height="473.7969" width="8" x="866.7729" y="81.2969"/><line style="stroke:#181818;stroke-width:0.5;stroke-dasharray:5,5;" x1="870.6992" x2="870.6992" y1="81.2969" y2="555.0938"/></g></g><g class="participant-lifeline" data-entity-uid="part6" data-qualified-name="DB" id="part6-lifeline"><g><title>Database</title><rect fill="#000000" fill-opacity="0.00000" height="473.7969" width="8" x="1225.2363" y="81.2969"/><line style="stroke:#181818;stroke-width:0.5;stroke-dasharray:5,5;" x1="1228.8359" x2="1228.8359" y1="81.2969" y2="555.0938"/></g></g><g class="participant participant-head" data-entity-uid="part1" data-qualified-name="Actor" id="part1-head"><text fill="#000000" font-family="sans-serif" font-size="14" lengthAdjust="spacing" textLength="37.6797" x="20" y="77.9951">ATCC</text><ellipse cx="41.8398" cy="13.5" fill="#E2E2F0" rx="8" ry="8" style="stroke:#181818;stroke-width:0.5;"/><path d="M41.8398,21.5 L41.8398,48.5 M28.8398,29.5 L54.8398,29.5 M41.8398,48.5 L28.8398,63.5 M41.8398,48.5 L54.8398,63.5" fill="none" style="stroke:#181818;stroke-width:0.5;"/></g><g class="participant participant-tail" data-entity-uid="part1" data-qualified-name="Actor" id="part1-tail"><text fill="#000000" font-family="sans-serif" font-size="14" lengthAdjust="spacing" textLength="37.6797" x="20" y="567.0889">ATCC</text><ellipse cx="41.8398" cy="578.8906" fill="#E2E2F0" rx="8" ry="8" style="stroke:#181818;stroke-width:0.5;"/><path d="M41.8398,586.8906 L41.8398,613.8906 M28.8398,594.8906 L54.8398,594.8906 M41.8398,613.8906 L28.8398,628.8906 M41.8398,613.8906 L54.8398,628.8906" fill="none" style="stroke:#181818;stroke-width:0.5;"/></g><g class="participant participant-head" data-entity-uid="part2" data-qualified-name="Ctrl" id="part2-head"><rect fill="#E2E2F0" height="30.2969" rx="2.5" ry="2.5" style="stroke:#181818;stroke-width:0.5;" width="124.4414" x="198.8994" y="50"/><text fill="#000000" font-family="sans-serif" font-size="14" lengthAdjust="spacing" textLength="110.4414" x="205.8994" y="69.9951">RouteController</text></g><g class="participant participant-tail" data-entity-uid="part2" data-qualified-name="Ctrl" id="part2-tail"><rect fill="#E2E2F0" height="30.2969" rx="2.5" ry="2.5" style="stroke:#181818;stroke-width:0.5;" width="124.4414" x="198.8994" y="554.0938"/><text fill="#000000" font-family="sans-serif" font-size="14" lengthAdjust="spacing" textLength="110.4414" x="205.8994" y="574.0889">RouteController</text></g><g class="participant participant-head" data-entity-uid="part3" data-qualified-name="UC" id="part3-head"><rect fill="#E2E2F0" height="30.2969" rx="2.5" ry="2.5" style="stroke:#181818;stroke-width:0.5;" width="199.0215" x="431.3369" y="50"/><text fill="#000000" font-family="sans-serif" font-size="14" lengthAdjust="spacing" textLength="185.0215" x="438.3369" y="69.9951">ViewRouteHistoryUseCase</text></g><g class="participant participant-tail" data-entity-uid="part3" data-qualified-name="UC" id="part3-tail"><rect fill="#E2E2F0" height="30.2969" rx="2.5" ry="2.5" style="stroke:#181818;stroke-width:0.5;" width="199.0215" x="431.3369" y="554.0938"/><text fill="#000000" font-family="sans-serif" font-size="14" lengthAdjust="spacing" textLength="185.0215" x="438.3369" y="574.0889">ViewRouteHistoryUseCase</text></g><g class="participant participant-head" data-entity-uid="part4" data-qualified-name="RouteRepo" id="part4-head"><rect fill="#E2E2F0" height="30.2969" rx="2.5" ry="2.5" style="stroke:#181818;stroke-width:0.5;" width="130.3408" x="640.3584" y="50"/><text fill="#000000" font-family="sans-serif" font-size="14" lengthAdjust="spacing" textLength="116.3408" x="647.3584" y="69.9951">RouteRepository</text></g><g class="participant participant-tail" data-entity-uid="part4" data-qualified-name="RouteRepo" id="part4-tail"><rect fill="#E2E2F0" height="30.2969" rx="2.5" ry="2.5" style="stroke:#181818;stroke-width:0.5;" width="130.3408" x="640.3584" y="554.0938"/><text fill="#000000" font-family="sans-serif" font-size="14" lengthAdjust="spacing" textLength="116.3408" x="647.3584" y="574.0889">RouteRepository</text></g><g class="participant participant-head" data-entity-uid="part5" data-qualified-name="HistoryRepo" id="part5-head"><rect fill="#E2E2F0" height="30.2969" rx="2.5" ry="2.5" style="stroke:#181818;stroke-width:0.5;" width="180.1475" x="780.6992" y="50"/><text fill="#000000" font-family="sans-serif" font-size="14" lengthAdjust="spacing" textLength="166.1475" x="787.6992" y="69.9951">RouteHistoryRepository</text></g><g class="participant participant-tail" data-entity-uid="part5" data-qualified-name="HistoryRepo" id="part5-tail"><rect fill="#E2E2F0" height="30.2969" rx="2.5" ry="2.5" style="stroke:#181818;stroke-width:0.5;" width="180.1475" x="780.6992" y="554.0938"/><text fill="#000000" font-family="sans-serif" font-size="14" lengthAdjust="spacing" textLength="166.1475" x="787.6992" y="574.0889">RouteHistoryRepository</text></g><g class="participant participant-head" data-entity-uid="part6" data-qualified-name="DB" id="part6-head"><text fill="#000000" font-family="sans-serif" font-size="14" lengthAdjust="spacing" textLength="66.8008" x="1192.8359" y="77.9951">Database</text><path d="M1211.2363,29 C1211.2363,19 1229.2363,19 1229.2363,19 C1229.2363,19 1247.2363,19 1247.2363,29 L1247.2363,55 C1247.2363,65 1229.2363,65 1229.2363,65 C1229.2363,65 1211.2363,65 1211.2363,55 L1211.2363,29" fill="#E2E2F0" style="stroke:#181818;stroke-width:0.5;"/><path d="M1211.2363,29 C1211.2363,39 1229.2363,39 1229.2363,39 C1229.2363,39 1247.2363,39 1247.2363,29" fill="none" style="stroke:#181818;stroke-width:0.5;"/></g><g class="participant participant-tail" data-entity-uid="part6" data-qualified-name="DB" id="part6-tail"><text fill="#000000" font-family="sans-serif" font-size="14" lengthAdjust="spacing" textLength="66.8008" x="1192.8359" y="567.0889">Database</text><path d="M1211.2363,580.3906 C1211.2363,570.3906 1229.2363,570.3906 1229.2363,570.3906 C1229.2363,570.3906 1247.2363,570.3906 1247.2363,580.3906 L1247.2363,606.3906 C1247.2363,616.3906 1229.2363,616.3906 1229.2363,616.3906 C1229.2363,616.3906 1211.2363,616.3906 1211.2363,606.3906 L1211.2363,580.3906" fill="#E2E2F0" style="stroke:#181818;stroke-width:0.5;"/><path d="M1211.2363,580.3906 C1211.2363,590.3906 1229.2363,590.3906 1229.2363,590.3906 C1229.2363,590.3906 1247.2363,590.3906 1247.2363,580.3906" fill="none" style="stroke:#181818;stroke-width:0.5;"/></g><g><title>RouteController</title><rect fill="#FFFFFF" height="432.6641" style="stroke:#181818;stroke-width:1;" width="10" x="256.1201" y="112.4297"/></g><g><title>ViewRouteHistoryUseCase</title><rect fill="#FFFFFF" height="403.5313" style="stroke:#181818;stroke-width:1;" width="10" x="525.8477" y="141.5625"/></g><g><title>RouteRepository</title><rect fill="#FFFFFF" height="87.3984" style="stroke:#181818;stroke-width:1;" width="10" x="700.5288" y="170.6953"/></g><g><title>RouteHistoryRepository</title><rect fill="#FFFFFF" height="87.3984" style="stroke:#181818;stroke-width:1;" width="10" x="865.7729" y="311.3594"/></g><g><title>Database</title><rect fill="#FFFFFF" height="29.1328" style="stroke:#181818;stroke-width:1;" width="10" x="1224.2363" y="199.8281"/></g><g><title>Database</title><rect fill="#FFFFFF" height="29.1328" style="stroke:#181818;stroke-width:1;" width="10" x="1224.2363" y="340.4922"/></g><g class="message" data-entity-1="part1" data-entity-2="part2" id="msg1"><polygon fill="#181818" points="244.1201,108.4297,254.1201,112.4297,244.1201,116.4297,248.1201,112.4297" style="stroke:#181818;stroke-width:1;"/><line style="stroke:#181818;stroke-width:1;" x1="41.8398" x2="250.1201" y1="112.4297" y2="112.4297"/><text fill="#000000" font-family="sans-serif" font-size="13" font-weight="bold" lengthAdjust="spacing" textLength="9.0454" x="48.8398" y="107.3638">1</text><text fill="#000000" font-family="sans-serif" font-size="13" lengthAdjust="spacing" textLength="182.2349" x="61.8853" y="107.3638">GET /api/routes/{id}/history</text></g><g class="message" data-entity-1="part2" data-entity-2="part3" id="msg2"><polygon fill="#181818" points="513.8477,137.5625,523.8477,141.5625,513.8477,145.5625,517.8477,141.5625" style="stroke:#181818;stroke-width:1;"/><line style="stroke:#181818;stroke-width:1;" x1="266.1201" x2="519.8477" y1="141.5625" y2="141.5625"/><text fill="#000000" font-family="sans-serif" font-size="13" font-weight="bold" lengthAdjust="spacing" textLength="9.0454" x="273.1201" y="136.4966">2</text><text fill="#000000" font-family="sans-serif" font-size="13" lengthAdjust="spacing" textLength="109.0337" x="286.1655" y="136.4966">execute(routeId)</text></g><g class="message" data-entity-1="part3" data-entity-2="part4" id="msg3"><polygon fill="#181818" points="688.5288,166.6953,698.5288,170.6953,688.5288,174.6953,692.5288,170.6953" style="stroke:#181818;stroke-width:1;"/><line style="stroke:#181818;stroke-width:1;" x1="535.8477" x2="694.5288" y1="170.6953" y2="170.6953"/><text fill="#000000" font-family="sans-serif" font-size="13" font-weight="bold" lengthAdjust="spacing" textLength="9.0454" x="542.8477" y="165.6294">3</text><text fill="#000000" font-family="sans-serif" font-size="13" lengthAdjust="spacing" textLength="110.2397" x="555.8931" y="165.6294">findById(routeId)</text></g><g class="message" data-entity-1="part4" data-entity-2="part6" id="msg4"><polygon fill="#181818" points="1212.2363,195.8281,1222.2363,199.8281,1212.2363,203.8281,1216.2363,199.8281" style="stroke:#181818;stroke-width:1;"/><line style="stroke:#181818;stroke-width:1;" x1="710.5288" x2="1218.2363" y1="199.8281" y2="199.8281"/><text fill="#000000" font-family="sans-serif" font-size="13" font-weight="bold" lengthAdjust="spacing" textLength="9.0454" x="717.5288" y="194.7622">4</text><text fill="#000000" font-family="sans-serif" font-size="13" lengthAdjust="spacing" textLength="224.0723" x="730.5742" y="194.7622">SELECT FROM route WHERE id = ?</text></g><g class="message" data-entity-1="part6" data-entity-2="part4" id="msg5"><polygon fill="#181818" points="721.5288,224.9609,711.5288,228.9609,721.5288,232.9609,717.5288,228.9609" style="stroke:#181818;stroke-width:1;"/><line style="stroke:#181818;stroke-width:1;stroke-dasharray:2,2;" x1="715.5288" x2="1228.2363" y1="228.9609" y2="228.9609"/><text fill="#000000" font-family="sans-serif" font-size="13" font-weight="bold" lengthAdjust="spacing" textLength="9.0454" x="727.5288" y="223.895">5</text><text fill="#000000" font-family="sans-serif" font-size="13" lengthAdjust="spacing" textLength="135.1543" x="740.5742" y="223.895">route record / empty</text></g><g class="message" data-entity-1="part4" data-entity-2="part3" id="msg6"><polygon fill="#181818" points="546.8477,254.0938,536.8477,258.0938,546.8477,262.0938,542.8477,258.0938" style="stroke:#181818;stroke-width:1;"/><line style="stroke:#181818;stroke-width:1;stroke-dasharray:2,2;" x1="540.8477" x2="704.5288" y1="258.0938" y2="258.0938"/><text fill="#000000" font-family="sans-serif" font-size="13" font-weight="bold" lengthAdjust="spacing" textLength="9.0454" x="552.8477" y="253.0278">6</text><text fill="#000000" font-family="sans-serif" font-size="13" lengthAdjust="spacing" textLength="115.0703" x="565.8931" y="253.0278">Optional&lt;Route&gt;</text></g><path d="M10,273.0938 L74.4429,273.0938 L74.4429,280.2266 L64.4429,290.2266 L10,290.2266 L10,273.0938" fill="#EEEEEE" style="stroke:#000000;stroke-width:1.5;"/><rect fill="none" height="265" style="stroke:#000000;stroke-width:1.5;" width="1265.6367" x="10" y="273.0938"/><text fill="#000000" font-family="sans-serif" font-size="13" font-weight="bold" lengthAdjust="spacing" textLength="19.4429" x="25" y="286.1606">alt</text><text fill="#000000" font-family="sans-serif" font-size="11" font-weight="bold" lengthAdjust="spacing" textLength="86.3403" x="89.4429" y="285.3042">[Route found]</text><g class="message" data-entity-1="part3" data-entity-2="part5" id="msg7"><polygon fill="#181818" points="853.7729,307.3594,863.7729,311.3594,853.7729,315.3594,857.7729,311.3594" style="stroke:#181818;stroke-width:1;"/><line style="stroke:#181818;stroke-width:1;" x1="535.8477" x2="859.7729" y1="311.3594" y2="311.3594"/><text fill="#000000" font-family="sans-serif" font-size="13" font-weight="bold" lengthAdjust="spacing" textLength="9.0454" x="542.8477" y="306.2935">7</text><text fill="#000000" font-family="sans-serif" font-size="13" lengthAdjust="spacing" textLength="164.6772" x="555.8931" y="306.2935">findAllByRouteId(routeId)</text></g><g class="message" data-entity-1="part5" data-entity-2="part6" id="msg8"><polygon fill="#181818" points="1212.2363,336.4922,1222.2363,340.4922,1212.2363,344.4922,1216.2363,340.4922" style="stroke:#181818;stroke-width:1;"/><line style="stroke:#181818;stroke-width:1;" x1="875.7729" x2="1218.2363" y1="340.4922" y2="340.4922"/><text fill="#000000" font-family="sans-serif" font-size="13" font-weight="bold" lengthAdjust="spacing" textLength="9.0454" x="882.7729" y="335.4263">8</text><text fill="#000000" font-family="sans-serif" font-size="13" lengthAdjust="spacing" textLength="316.418" x="895.8184" y="335.4263">SELECT FROM route_history WHERE route_id = ?</text></g><g class="message" data-entity-1="part6" data-entity-2="part5" id="msg9"><polygon fill="#181818" points="886.7729,365.625,876.7729,369.625,886.7729,373.625,882.7729,369.625" style="stroke:#181818;stroke-width:1;"/><line style="stroke:#181818;stroke-width:1;stroke-dasharray:2,2;" x1="880.7729" x2="1228.2363" y1="369.625" y2="369.625"/><text fill="#000000" font-family="sans-serif" font-size="13" font-weight="bold" lengthAdjust="spacing" textLength="9.0454" x="892.7729" y="364.5591">9</text><text fill="#000000" font-family="sans-serif" font-size="13" lengthAdjust="spacing" textLength="97.6587" x="905.8184" y="364.5591">history records</text></g><g class="message" data-entity-1="part5" data-entity-2="part3" id="msg10"><polygon fill="#181818" points="546.8477,394.7578,536.8477,398.7578,546.8477,402.7578,542.8477,398.7578" style="stroke:#181818;stroke-width:1;"/><line style="stroke:#181818;stroke-width:1;stroke-dasharray:2,2;" x1="540.8477" x2="869.7729" y1="398.7578" y2="398.7578"/><text fill="#000000" font-family="sans-serif" font-size="13" font-weight="bold" lengthAdjust="spacing" textLength="18.0908" x="552.8477" y="393.6919">10</text><text fill="#000000" font-family="sans-serif" font-size="13" lengthAdjust="spacing" textLength="129.0796" x="574.9385" y="393.6919">List&lt;RouteHistory&gt;</text></g><g class="message" data-entity-1="part3" data-entity-2="part2" id="msg11"><polygon fill="#181818" points="277.1201,423.8906,267.1201,427.8906,277.1201,431.8906,273.1201,427.8906" style="stroke:#181818;stroke-width:1;"/><line style="stroke:#181818;stroke-width:1;stroke-dasharray:2,2;" x1="271.1201" x2="524.8477" y1="427.8906" y2="427.8906"/><text fill="#000000" font-family="sans-serif" font-size="13" font-weight="bold" lengthAdjust="spacing" textLength="18.0908" x="283.1201" y="422.8247">11</text><text fill="#000000" font-family="sans-serif" font-size="13" lengthAdjust="spacing" textLength="129.0796" x="305.2109" y="422.8247">List&lt;RouteHistory&gt;</text></g><g class="message" data-entity-1="part2" data-entity-2="part1" id="msg12"><polygon fill="#181818" points="52.8398,453.0234,42.8398,457.0234,52.8398,461.0234,48.8398,457.0234" style="stroke:#181818;stroke-width:1;"/><line style="stroke:#181818;stroke-width:1;stroke-dasharray:2,2;" x1="46.8398" x2="255.1201" y1="457.0234" y2="457.0234"/><text fill="#000000" font-family="sans-serif" font-size="13" font-weight="bold" lengthAdjust="spacing" textLength="18.0908" x="58.8398" y="451.9575">12</text><text fill="#000000" font-family="sans-serif" font-size="13" lengthAdjust="spacing" textLength="94.0215" x="80.9307" y="451.9575">200 OK (JSON)</text></g><line style="stroke:#000000;stroke-width:1;stroke-dasharray:2,2;" x1="10" x2="1275.6367" y1="466.0234" y2="466.0234"/><text fill="#000000" font-family="sans-serif" font-size="11" font-weight="bold" lengthAdjust="spacing" textLength="110.8164" x="15" y="476.2339">[Route not found]</text><g class="message" data-entity-1="part3" data-entity-2="part2" id="msg13"><polygon fill="#181818" points="277.1201,496.9609,267.1201,500.9609,277.1201,504.9609,273.1201,500.9609" style="stroke:#181818;stroke-width:1;"/><line style="stroke:#181818;stroke-width:1;stroke-dasharray:2,2;" x1="271.1201" x2="524.8477" y1="500.9609" y2="500.9609"/><text fill="#000000" font-family="sans-serif" font-size="13" font-weight="bold" lengthAdjust="spacing" textLength="18.0908" x="283.1201" y="495.895">13</text><text fill="#000000" font-family="sans-serif" font-size="13" lengthAdjust="spacing" textLength="213.6367" x="305.2109" y="495.895">throws RouteNotFoundException</text></g><g class="message" data-entity-1="part2" data-entity-2="part1" id="msg14"><polygon fill="#181818" points="52.8398,526.0938,42.8398,530.0938,52.8398,534.0938,48.8398,530.0938" style="stroke:#181818;stroke-width:1;"/><line style="stroke:#181818;stroke-width:1;stroke-dasharray:2,2;" x1="46.8398" x2="255.1201" y1="530.0938" y2="530.0938"/><text fill="#000000" font-family="sans-serif" font-size="13" font-weight="bold" lengthAdjust="spacing" textLength="18.0908" x="58.8398" y="525.0278">14</text><text fill="#000000" font-family="sans-serif" font-size="13" lengthAdjust="spacing" textLength="96.0146" x="80.9307" y="525.0278">404 Not Found</text></g><?plantuml-src TLFBRi8m4BpxArQSsaCLL752BHK9eVI9b49xh4niXAKGHuufeAh_tlK3Ob8QALBMdXbxPZTqesMvMI-u8ZJNKa5dE4kI3j0QXgOc5LLQvAAYfOPE9ZUQ9xBKIXO5LnQMQ5MSeju5trhaHDGeiP_NFA4rj-XvSaOnuvMiXO5Qp77j3DHBjXZ1Ac5KqmKU1vsH_xAGKKo8TGHN0tjdwCDzEeE8LY9IHhgElWNxYLPEoyGXlgZcpY2n5AJE4oJo7S-HSM5v3-oo0QC_WX047bqWVYbA5kyVs1b2OxOX87iK8-qjVKwJ6OopwGjO9dnCqYm5mU0MxXeDz8RugzQXZg5uBXM32FYwqdl2UCWAZZnOcrPQo98MDtPl41AQgn9QQ5V2KcvAHW0VPpjeXJS-B8fudpdZJG26SLGE-sSsGf5_m_ZqdVAXk3KVpOaw6ZMrZ-ZqWWSD5rDjWQSP_RdF8QbdNBm9XtBGPhTjcOIQwVk7xmODOMvQ-t3TxSBq2IuUtwQlbuGNjUy4b5Atuc_4zKh9hV-LNgKU6rYwoxdjxlbpUjqU81Gibd1ym-RZO0UL8Vy2?></g></svg>