<?plantuml 1.2026.1?><svg xmlns="http://www.w3.org/2000/svg" xmlns:xlink="http://www.w3.org/1999/xlink" contentStyleType="text/css" data-diagram-type="SEQUENCE" height="711px" preserveAspectRatio="none" style="width:1499px;height:711px;background:#FFFFFF;" version="1.1" viewBox="0 0 1499 711" width="1499px" zoomAndPan="magnify"><defs/><g><g><title>RouteController</title><rect fill="#FFFFFF" height="508.3281" style="stroke:#181818;stroke-width:1;" width="10" x="459.4082" y="112.4297"/></g><g><title>ViewRouteHistoryUseCase</title><rect fill="#FFFFFF" height="404.7969" style="stroke:#181818;stroke-width:1;" width="10" x="734.0996" y="141.5625"/></g><g><title>RouteRepository</title><rect fill="#FFFFFF" height="87.3984" style="stroke:#181818;stroke-width:1;" width="10" x="908.7808" y="170.6953"/></g><g><title>RouteHistoryRepository</title><rect fill="#FFFFFF" height="87.3984" style="stroke:#181818;stroke-width:1;" width="10" x="1074.0249" y="399.5625"/></g><g><title>Database</title><rect fill="#FFFFFF" height="29.1328" style="stroke:#181818;stroke-width:1;" width="10" x="1441.5337" y="199.8281"/></g><g><title>Database</title><rect fill="#FFFFFF" height="29.1328" style="stroke:#181818;stroke-width:1;" width="10" x="1441.5337" y="428.6953"/></g><rect fill="none" height="340.6641" style="stroke:#000000;stroke-width:1.5;" width="1482.9341" x="10" y="273.0938"/><g class="participant-lifeline" data-entity-uid="part1" data-qualified-name="Actor" id="part1-lifeline"><g><title>ATCC</title><rect fill="#000000" fill-opacity="0.00000" height="549.4609" width="8" x="37.8398" y="81.2969"/><line style="stroke:#181818;stroke-width:0.5;stroke-dasharray:5,5;" x1="41" x2="41" y1="81.2969" y2="630.7578"/></g></g><g class="participant-lifeline" data-entity-uid="part2" data-qualified-name="Ctrl" id="part2-lifeline"><g><title>RouteController</title><rect fill="#000000" fill-opacity="0.00000" height="549.4609" width="8" x="460.4082" y="81.2969"/><line style="stroke:#181818;stroke-width:0.5;stroke-dasharray:5,5;" x1="464.1875" x2="464.1875" y1="81.2969" y2="630.7578"/></g></g><g class="participant-lifeline" data-entity-uid="part3" data-qualified-name="UC" id="part3-lifeline"><g><title>ViewRouteHistoryUseCase</title><rect fill="#000000" fill-opacity="0.00000" height="549.4609" width="8" x="735.0996" y="81.2969"/><line style="stroke:#181818;stroke-width:0.5;stroke-dasharray:5,5;" x1="738.5889" x2="738.5889" y1="81.2969" y2="630.7578"/></g></g><g class="participant-lifeline" data-entity-uid="part4" data-qualified-name="RouteRepo" id="part4-lifeline"><g><title>RouteRepository</title><rect fill="#000000" fill-opacity="0.00000" height="549.4609" width="8" x="909.7808" y="81.2969"/><line style="stroke:#181818;stroke-width:0.5;stroke-dasharray:5,5;" x1="913.6104" x2="913.6104" y1="81.2969" y2="630.7578"/></g></g><g class="participant-lifeline" data-entity-uid="part5" data-qualified-name="HistoryRepo" id="part5-lifeline"><g><title>RouteHistoryRepository</title><rect fill="#000000" fill-opacity="0.00000" height="549.4609" width="8" x="1075.0249" y="81.2969"/><line style="stroke:#181818;stroke-width:0.5;stroke-dasharray:5,5;" x1="1078.9512" x2="1078.9512" y1="81.2969" y2="630.7578"/></g></g><g class="participant-lifeline" data-entity-uid="part6" data-qualified-name="DB" id="part6-lifeline"><g><title>Database</title><rect fill="#000000" fill-opacity="0.00000" height="549.4609" width="8" x="1442.5337" y="81.2969"/><line style="stroke:#181818;stroke-width:0.5;stroke-dasharray:5,5;" x1="1446.1333" x2="1446.1333" y1="81.2969" y2="630.7578"/></g></g><g class="participant participant-head" data-entity-uid="part1" data-qualified-name="Actor" id="part1-head"><text fill="#000000" font-family="sans-serif" font-size="14" lengthAdjust="spacing" textLength="37.6797" x="20" y="77.9951">ATCC</text><ellipse cx="41.8398" cy="13.5" fill="#E2E2F0" rx="8" ry="8" style="stroke:#181818;stroke-width:0.5;"/><path d="M41.8398,21.5 L41.8398,48.5 M28.8398,29.5 L54.8398,29.5 M41.8398,48.5 L28.8398,63.5 M41.8398,48.5 L54.8398,63.5" fill="none" style="stroke:#181818;stroke-width:0.5;"/></g><g class="participant participant-tail" data-entity-uid="part1" data-qualified-name="Actor" id="part1-tail"><text fill="#000000" font-family="sans-serif" font-size="14" lengthAdjust="spacing" textLength="37.6797" x="20" y="642.7529">ATCC</text><ellipse cx="41.8398" cy="654.5547" fill="#E2E2F0" rx="8" ry="8" style="stroke:#181818;stroke-width:0.5;"/><path d="M41.8398,662.5547 L41.8398,689.5547 M28.8398,670.5547 L54.8398,670.5547 M41.8398,689.5547 L28.8398,704.5547 M41.8398,689.5547 L54.8398,704.5547" fill="none" style="stroke:#181818;stroke-width:0.5;"/></g><g class="participant participant-head" data-entity-uid="part2" data-qualified-name="Ctrl" id="part2-head"><rect fill="#E2E2F0" height="30.2969" rx="2.5" ry="2.5" style="stroke:#181818;stroke-width:0.5;" width="124.4414" x="402.1875" y="50"/><text fill="#000000" font-family="sans-serif" font-size="14" lengthAdjust="spacing" textLength="110.4414" x="409.1875" y="69.9951">RouteController</text></g><g class="participant participant-tail" data-entity-uid="part2" data-qualified-name="Ctrl" id="part2-tail"><rect fill="#E2E2F0" height="30.2969" rx="2.5" ry="2.5" style="stroke:#181818;stroke-width:0.5;" width="124.4414" x="402.1875" y="629.7578"/><text fill="#000000" font-family="sans-serif" font-size="14" lengthAdjust="spacing" textLength="110.4414" x="409.1875" y="649.7529">RouteController</text></g><g class="participant participant-head" data-entity-uid="part3" data-qualified-name="UC" id="part3-head"><rect fill="#E2E2F0" height="30.2969" rx="2.5" ry="2.5" style="stroke:#181818;stroke-width:0.5;" width="199.0215" x="639.5889" y="50"/><text fill="#000000" font-family="sans-serif" font-size="14" lengthAdjust="spacing" textLength="185.0215" x="646.5889" y="69.9951">ViewRouteHistoryUseCase</text></g><g class="participant participant-tail" data-entity-uid="part3" data-qualified-name="UC" id="part3-tail"><rect fill="#E2E2F0" height="30.2969" rx="2.5" ry="2.5" style="stroke:#181818;stroke-width:0.5;" width="199.0215" x="639.5889" y="629.7578"/><text fill="#000000" font-family="sans-serif" font-size="14" lengthAdjust="spacing" textLength="185.0215" x="646.5889" y="649.7529">ViewRouteHistoryUseCase</text></g><g class="participant participant-head" data-entity-uid="part4" data-qualified-name="RouteRepo" id="part4-head"><rect fill="#E2E2F0" height="30.2969" rx="2.5" ry="2.5" style="stroke:#181818;stroke-width:0.5;" width="130.3408" x="848.6104" y="50"/><text fill="#000000" font-family="sans-serif" font-size="14" lengthAdjust="spacing" textLength="116.3408" x="855.6104" y="69.9951">RouteRepository</text></g><g class="participant participant-tail" data-entity-uid="part4" data-qualified-name="RouteRepo" id="part4-tail"><rect fill="#E2E2F0" height="30.2969" rx="2.5" ry="2.5" style="stroke:#181818;stroke-width:0.5;" width="130.3408" x="848.6104" y="629.7578"/><text fill="#000000" font-family="sans-serif" font-size="14" lengthAdjust="spacing" textLength="116.3408" x="855.6104" y="649.7529">RouteRepository</text></g><g class="participant participant-head" data-entity-uid="part5" data-qualified-name="HistoryRepo" id="part5-head"><rect fill="#E2E2F0" height="30.2969" rx="2.5" ry="2.5" style="stroke:#181818;stroke-width:0.5;" width="180.1475" x="988.9512" y="50"/><text fill="#000000" font-family="sans-serif" font-size="14" lengthAdjust="spacing" textLength="166.1475" x="995.9512" y="69.9951">RouteHistoryRepository</text></g><g class="participant participant-tail" data-entity-uid="part5" data-qualified-name="HistoryRepo" id="part5-tail"><rect fill="#E2E2F0" height="30.2969" rx="2.5" ry="2.5" style="stroke:#181818;stroke-width:0.5;" width="180.1475" x="988.9512" y="629.7578"/><text fill="#000000" font-family="sans-serif" font-size="14" lengthAdjust="spacing" textLength="166.1475" x="995.9512" y="649.7529">RouteHistoryRepository</text></g><g class="participant participant-head" data-entity-uid="part6" data-qualified-name="DB" id="part6-head"><text fill="#000000" font-family="sans-serif" font-size="14" lengthAdjust="spacing" textLength="66.8008" x="1410.1333" y="77.9951">Database</text><path d="M1428.5337,29 C1428.5337,19 1446.5337,19 1446.5337,19 C1446.5337,19 1464.5337,19 1464.5337,29 L1464.5337,55 C1464.5337,65 1446.5337,65 1446.5337,65 C1446.5337,65 1428.5337,65 1428.5337,55 L1428.5337,29" fill="#E2E2F0" style="stroke:#181818;stroke-width:0.5;"/><path d="M1428.5337,29 C1428.5337,39 1446.5337,39 1446.5337,39 C1446.5337,39 1464.5337,39 1464.5337,29" fill="none" style="stroke:#181818;stroke-width:0.5;"/></g><g class="participant participant-tail" data-entity-uid="part6" data-qualified-name="DB" id="part6-tail"><text fill="#000000" font-family="sans-serif" font-size="14" lengthAdjust="spacing" textLength="66.8008" x="1410.1333" y="642.7529">Database</text><path d="M1428.5337,656.0547 C1428.5337,646.0547 1446.5337,646.0547 1446.5337,646.0547 C1446.5337,646.0547 1464.5337,646.0547 1464.5337,656.0547 L1464.5337,682.0547 C1464.5337,692.0547 1446.5337,692.0547 1446.5337,692.0547 C1446.5337,692.0547 1428.5337,692.0547 1428.5337,682.0547 L1428.5337,656.0547" fill="#E2E2F0" style="stroke:#181818;stroke-width:0.5;"/><path d="M1428.5337,656.0547 C1428.5337,666.0547 1446.5337,666.0547 1446.5337,666.0547 C1446.5337,666.0547 1464.5337,666.0547 1464.5337,656.0547" fill="none" style="stroke:#181818;stroke-width:0.5;"/></g><g><title>RouteController</title><rect fill="#FFFFFF" height="508.3281" style="stroke:#181818;stroke-width:1;" width="10" x="459.4082" y="112.4297"/></g><g><title>ViewRouteHistoryUseCase</title><rect fill="#FFFFFF" height="404.7969" style="stroke:#181818;stroke-width:1;" width="10" x="734.0996" y="141.5625"/></g><g><title>RouteRepository</title><rect fill="#FFFFFF" height="87.3984" style="stroke:#181818;stroke-width:1;" width="10" x="908.7808" y="170.6953"/></g><g><title>RouteHistoryRepository</title><rect fill="#FFFFFF" height="87.3984" style="stroke:#181818;stroke-width:1;" width="10" x="1074.0249" y="399.5625"/></g><g><title>Database</title><rect fill="#FFFFFF" height="29.1328" style="stroke:#181818;stroke-width:1;" width="10" x="1441.5337" y="199.8281"/></g><g><title>Database</title><rect fill="#FFFFFF" height="29.1328" style="stroke:#181818;stroke-width:1;" width="10" x="1441.5337" y="428.6953"/></g><g class="message" data-entity-1="part1" data-entity-2="part2" id="msg1"><polygon fill="#181818" points="447.4082,108.4297,457.4082,112.4297,447.4082,116.4297,451.4082,112.4297" style="stroke:#181818;stroke-width:1;"/><line style="stroke:#181818;stroke-width:1;" x1="41.8398" x2="453.4082" y1="112.4297" y2="112.4297"/><text fill="#000000" font-family="sans-serif" font-size="13" font-weight="bold" lengthAdjust="spacing" textLength="9.0454" x="48.8398" y="107.3638">1</text><text fill="#000000" font-family="sans-serif" font-size="13" lengthAdjust="spacing" textLength="182.2349" x="61.8853" y="107.3638">GET /api/routes/{id}/history</text></g><g class="message" data-entity-1="part2" data-entity-2="part3" id="msg2"><polygon fill="#181818" points="722.0996,137.5625,732.0996,141.5625,722.0996,145.5625,726.0996,141.5625" style="stroke:#181818;stroke-width:1;"/><line style="stroke:#181818;stroke-width:1;" x1="469.4082" x2="728.0996" y1="141.5625" y2="141.5625"/><text fill="#000000" font-family="sans-serif" font-size="13" font-weight="bold" lengthAdjust="spacing" textLength="9.0454" x="476.4082" y="136.4966">2</text><text fill="#000000" font-family="sans-serif" font-size="13" lengthAdjust="spacing" textLength="149.2334" x="489.4536" y="136.4966">execute(routeId: Long)</text></g><g class="message" data-entity-1="part3" data-entity-2="part4" id="msg3"><polygon fill="#181818" points="896.7808,166.6953,906.7808,170.6953,896.7808,174.6953,900.7808,170.6953" style="stroke:#181818;stroke-width:1;"/><line style="stroke:#181818;stroke-width:1;" x1="744.0996" x2="902.7808" y1="170.6953" y2="170.6953"/><text fill="#000000" font-family="sans-serif" font-size="13" font-weight="bold" lengthAdjust="spacing" textLength="9.0454" x="751.0996" y="165.6294">3</text><text fill="#000000" font-family="sans-serif" font-size="13" lengthAdjust="spacing" textLength="110.2397" x="764.145" y="165.6294">findById(routeId)</text></g><g class="message" data-entity-1="part4" data-entity-2="part6" id="msg4"><polygon fill="#181818" points="1429.5337,195.8281,1439.5337,199.8281,1429.5337,203.8281,1433.5337,199.8281" style="stroke:#181818;stroke-width:1;"/><line style="stroke:#181818;stroke-width:1;" x1="918.7808" x2="1435.5337" y1="199.8281" y2="199.8281"/><text fill="#000000" font-family="sans-serif" font-size="13" font-weight="bold" lengthAdjust="spacing" textLength="9.0454" x="925.7808" y="194.7622">4</text><text fill="#000000" font-family="sans-serif" font-size="13" lengthAdjust="spacing" textLength="224.0723" x="938.8262" y="194.7622">SELECT FROM route WHERE id = ?</text></g><g class="message" data-entity-1="part6" data-entity-2="part4" id="msg5"><polygon fill="#181818" points="929.7808,224.9609,919.7808,228.9609,929.7808,232.9609,925.7808,228.9609" style="stroke:#181818;stroke-width:1;"/><line style="stroke:#181818;stroke-width:1;stroke-dasharray:2,2;" x1="923.7808" x2="1445.5337" y1="228.9609" y2="228.9609"/><text fill="#000000" font-family="sans-serif" font-size="13" font-weight="bold" lengthAdjust="spacing" textLength="9.0454" x="935.7808" y="223.895">5</text><text fill="#000000" font-family="sans-serif" font-size="13" lengthAdjust="spacing" textLength="80.8057" x="948.8262" y="223.895">route record</text></g><g class="message" data-entity-1="part4" data-entity-2="part3" id="msg6"><polygon fill="#181818" points="755.0996,254.0938,745.0996,258.0938,755.0996,262.0938,751.0996,258.0938" style="stroke:#181818;stroke-width:1;"/><line style="stroke:#181818;stroke-width:1;stroke-dasharray:2,2;" x1="749.0996" x2="912.7808" y1="258.0938" y2="258.0938"/><text fill="#000000" font-family="sans-serif" font-size="13" font-weight="bold" lengthAdjust="spacing" textLength="9.0454" x="761.0996" y="253.0278">6</text><text fill="#000000" font-family="sans-serif" font-size="13" lengthAdjust="spacing" textLength="115.0703" x="774.145" y="253.0278">Optional&lt;Route&gt;</text></g><path d="M10,273.0938 L74.4429,273.0938 L74.4429,280.2266 L64.4429,290.2266 L10,290.2266 L10,273.0938" fill="#EEEEEE" style="stroke:#000000;stroke-width:1.5;"/><rect fill="none" height="340.6641" style="stroke:#000000;stroke-width:1.5;" width="1482.9341" x="10" y="273.0938"/><text fill="#000000" font-family="sans-serif" font-size="13" font-weight="bold" lengthAdjust="spacing" textLength="19.4429" x="25" y="286.1606">alt</text><text fill="#000000" font-family="sans-serif" font-size="11" font-weight="bold" lengthAdjust="spacing" textLength="107.771" x="89.4429" y="285.3042">[route not found]</text><g class="message" data-entity-1="part3" data-entity-2="part2" id="msg7"><polygon fill="#181818" points="480.4082,307.3594,470.4082,311.3594,480.4082,315.3594,476.4082,311.3594" style="stroke:#181818;stroke-width:1;"/><line style="stroke:#181818;stroke-width:1;stroke-dasharray:2,2;" x1="474.4082" x2="733.0996" y1="311.3594" y2="311.3594"/><text fill="#000000" font-family="sans-serif" font-size="13" font-weight="bold" lengthAdjust="spacing" textLength="9.0454" x="486.4082" y="306.2935">7</text><text fill="#000000" font-family="sans-serif" font-size="13" lengthAdjust="spacing" textLength="213.6367" x="499.4536" y="306.2935">throws RouteNotFoundException</text></g><g class="message" data-entity-1="part2" data-entity-2="part1" id="msg8"><polygon fill="#181818" points="52.8398,351.625,42.8398,355.625,52.8398,359.625,48.8398,355.625" style="stroke:#181818;stroke-width:1;"/><line style="stroke:#181818;stroke-width:1;stroke-dasharray:2,2;" x1="46.8398" x2="458.4082" y1="355.625" y2="355.625"/><text fill="#000000" font-family="sans-serif" font-size="13" font-weight="bold" lengthAdjust="spacing" textLength="9.0454" x="58.8398" y="342.9927">8</text><text fill="#000000" font-family="sans-serif" font-size="13" lengthAdjust="spacing" textLength="96.0146" x="71.8853" y="335.4263">404 Not Found</text><text fill="#000000" font-family="sans-serif" font-size="13" lengthAdjust="spacing" textLength="284.356" x="71.8853" y="350.5591">{ message: "Route with id '...' not found." }</text></g><line style="stroke:#000000;stroke-width:1;stroke-dasharray:2,2;" x1="10" x2="1492.9341" y1="364.625" y2="364.625"/><text fill="#000000" font-family="sans-serif" font-size="11" font-weight="bold" lengthAdjust="spacing" textLength="83.2949" x="15" y="374.8354">[route found]</text><g class="message" data-entity-1="part3" data-entity-2="part5" id="msg9"><polygon fill="#181818" points="1062.0249,395.5625,1072.0249,399.5625,1062.0249,403.5625,1066.0249,399.5625" style="stroke:#181818;stroke-width:1;"/><line style="stroke:#181818;stroke-width:1;" x1="744.0996" x2="1068.0249" y1="399.5625" y2="399.5625"/><text fill="#000000" font-family="sans-serif" font-size="13" font-weight="bold" lengthAdjust="spacing" textLength="9.0454" x="751.0996" y="394.4966">9</text><text fill="#000000" font-family="sans-serif" font-size="13" lengthAdjust="spacing" textLength="164.6772" x="764.145" y="394.4966">findAllByRouteId(routeId)</text></g><g class="message" data-entity-1="part5" data-entity-2="part6" id="msg10"><polygon fill="#181818" points="1429.5337,424.6953,1439.5337,428.6953,1429.5337,432.6953,1433.5337,428.6953" style="stroke:#181818;stroke-width:1;"/><line style="stroke:#181818;stroke-width:1;" x1="1084.0249" x2="1435.5337" y1="428.6953" y2="428.6953"/><text fill="#000000" font-family="sans-serif" font-size="13" font-weight="bold" lengthAdjust="spacing" textLength="18.0908" x="1091.0249" y="423.6294">10</text><text fill="#000000" font-family="sans-serif" font-size="13" lengthAdjust="spacing" textLength="316.418" x="1113.1157" y="423.6294">SELECT FROM route_history WHERE route_id = ?</text></g><g class="message" data-entity-1="part6" data-entity-2="part5" id="msg11"><polygon fill="#181818" points="1095.0249,453.8281,1085.0249,457.8281,1095.0249,461.8281,1091.0249,457.8281" style="stroke:#181818;stroke-width:1;"/><line style="stroke:#181818;stroke-width:1;stroke-dasharray:2,2;" x1="1089.0249" x2="1445.5337" y1="457.8281" y2="457.8281"/><text fill="#000000" font-family="sans-serif" font-size="13" font-weight="bold" lengthAdjust="spacing" textLength="18.0908" x="1101.0249" y="452.7622">11</text><text fill="#000000" font-family="sans-serif" font-size="13" lengthAdjust="spacing" textLength="97.6587" x="1123.1157" y="452.7622">history records</text></g><g class="message" data-entity-1="part5" data-entity-2="part3" id="msg12"><polygon fill="#181818" points="755.0996,482.9609,745.0996,486.9609,755.0996,490.9609,751.0996,486.9609" style="stroke:#181818;stroke-width:1;"/><line style="stroke:#181818;stroke-width:1;stroke-dasharray:2,2;" x1="749.0996" x2="1078.0249" y1="486.9609" y2="486.9609"/><text fill="#000000" font-family="sans-serif" font-size="13" font-weight="bold" lengthAdjust="spacing" textLength="18.0908" x="761.0996" y="481.895">12</text><text fill="#000000" font-family="sans-serif" font-size="13" lengthAdjust="spacing" textLength="129.0796" x="783.1904" y="481.895">List&lt;RouteHistory&gt;</text></g><g class="message" data-entity-1="part3" data-entity-2="part2" id="msg13"><polygon fill="#181818" points="480.4082,542.3594,470.4082,546.3594,480.4082,550.3594,476.4082,546.3594" style="stroke:#181818;stroke-width:1;"/><line style="stroke:#181818;stroke-width:1;stroke-dasharray:2,2;" x1="474.4082" x2="738.0996" y1="546.3594" y2="546.3594"/><text fill="#000000" font-family="sans-serif" font-size="13" font-weight="bold" lengthAdjust="spacing" textLength="18.0908" x="486.4082" y="526.1606">13</text><text fill="#000000" font-family="sans-serif" font-size="13" lengthAdjust="spacing" textLength="192.0991" x="508.499" y="511.0278">List&lt;RouteHistoryResponse&gt;</text><text fill="#000000" font-family="sans-serif" font-size="13" lengthAdjust="spacing" textLength="218.6006" x="508.499" y="526.1606">[{ id, routeId, changeDescription,</text><text fill="#000000" font-family="sans-serif" font-size="13" lengthAdjust="spacing" textLength="168.5303" x="520.896" y="541.2935">changedAt, changedBy }]</text></g><g class="message" data-entity-1="part2" data-entity-2="part1" id="msg14"><polygon fill="#181818" points="52.8398,601.7578,42.8398,605.7578,52.8398,609.7578,48.8398,605.7578" style="stroke:#181818;stroke-width:1;"/><line style="stroke:#181818;stroke-width:1;stroke-dasharray:2,2;" x1="46.8398" x2="458.4082" y1="605.7578" y2="605.7578"/><text fill="#000000" font-family="sans-serif" font-size="13" font-weight="bold" lengthAdjust="spacing" textLength="18.0908" x="58.8398" y="585.5591">14</text><text fill="#000000" font-family="sans-serif" font-size="13" lengthAdjust="spacing" textLength="47.7026" x="80.9307" y="570.4263">200 OK</text><text fill="#000000" font-family="sans-serif" font-size="13" lengthAdjust="spacing" textLength="371.4775" x="80.9307" y="585.5591">CollectionModel&lt;EntityModel&lt;RouteHistoryResponse&gt;&gt;</text><text fill="#000000" font-family="sans-serif" font-size="13" lengthAdjust="spacing" textLength="148.1099" x="80.9307" y="600.6919">with _links (self, route)</text></g><?plantuml-src TLHTRzf047o_Nx7Y9Od4bwey8K84nccYaYAva3wKAhhO2vpgt5c-emGX_dlNvmEV2NqpwvdPsPqrV6EKtBo_OSvuR5GEZU4i21h0DGoBtopZkH6noBWqq8ZKnc2WfCbLcc9kOO79qphgHU3M8X-59edTN6F0DLhqFBYW666cj2YW5dEgNO0woJE6LsK9D_oDsa5Zx9uiP3nYp4u4hO7r33tu6iwWmpFHoGjftTcBvD1Pbrh5EiHVRh0Sa5aAKUS14V43Os9SMzvJqeE9agkRYa9JCW8I_3GBiPP29gFTKtAaUOHgv8f0xF68Q3_2IHZCu26QFeDbmi_7C0f19707zvK6JKZurbdJaf5ZhFA49UYZlLR7mQQP4Khoj6_V3Nn2PP7nr3XTgGmirKOc30g1LhLRiyxLrcNvNPc70XH-n6WR4BhS9-7BK7fmsxq50e95BkGUtb5hliAUInwsmgoBeQ_QxVPLrRdTW0F3b08lBVbs1lvbk0I6QJhQHMK2LH80fq7zOuAQm7yJUNL7uv8fQouVJvbs3k0ogXixyikSDC7gKPtvECOreMBV_ou6TQO_ogU4Ff4Zr9cI6WSB-MjFcsw2MqyJuZMNAnoZZdDX4smk980h9qDpHD1zm-5ttGHz31VY_jBjmlJRGWR5FqbSI3wh1DD-A8qmk_BveZboPo_XDHNoZuPhZUdIERrXID7xHrkq_GS0?></g></svg>