<?plantuml 1.2026.1?><svg xmlns="http://www.w3.org/2000/svg" xmlns:xlink="http://www.w3.org/1999/xlink" contentStyleType="text/css" data-diagram-type="SEQUENCE" height="671px" preserveAspectRatio="none" style="width:1460px;height:671px;background:#FFFFFF;" version="1.1" viewBox="0 0 1460 671" width="1460px" zoomAndPan="magnify"><defs/><g><g><title>AirportController</title><rect fill="#FFFFFF" height="445.2578" style="stroke:#181818;stroke-width:1;" width="10" x="537.8994" y="127.5625"/></g><g><title>UpdateAirportStatusUseCase</title><rect fill="#FFFFFF" height="306.4609" style="stroke:#181818;stroke-width:1;" width="10" x="791.6392" y="222.0938"/></g><g><title>Airport</title><rect fill="#FFFFFF" height="29.1328" style="stroke:#181818;stroke-width:1;" width="10" x="945.0669" y="367.7578"/></g><g><title>AirportRepository</title><rect fill="#FFFFFF" height="87.3984" style="stroke:#181818;stroke-width:1;" width="10" x="1054.5229" y="251.2266"/></g><g><title>AirportRepository</title><rect fill="#FFFFFF" height="58.2656" style="stroke:#181818;stroke-width:1;" width="10" x="1054.5229" y="426.0234"/></g><g><title>Database</title><rect fill="#FFFFFF" height="29.1328" style="stroke:#181818;stroke-width:1;" width="10" x="1418.166" y="280.3594"/></g><g><title>Database</title><rect fill="#FFFFFF" height="29.1328" style="stroke:#181818;stroke-width:1;" width="10" x="1418.166" y="455.1563"/></g><g class="participant-lifeline" data-entity-uid="part1" data-qualified-name="BO" id="part1-lifeline"><g><title>Backoffice Operator</title><rect fill="#000000" fill-opacity="0.00000" height="509.5234" width="8" x="73.8633" y="81.2969"/><line style="stroke:#181818;stroke-width:0.5;stroke-dasharray:5,5;" x1="77" x2="77" y1="81.2969" y2="590.8203"/></g></g><g class="participant-lifeline" data-entity-uid="part2" data-qualified-name="Ctrl" id="part2-lifeline"><g><title>AirportController</title><rect fill="#000000" fill-opacity="0.00000" height="509.5234" width="8" x="538.8994" y="81.2969"/><line style="stroke:#181818;stroke-width:0.5;stroke-dasharray:5,5;" x1="542.353" x2="542.353" y1="81.2969" y2="590.8203"/></g></g><g class="participant-lifeline" data-entity-uid="part3" data-qualified-name="UC" id="part3-lifeline"><g><title>UpdateAirportStatusUseCase</title><rect fill="#000000" fill-opacity="0.00000" height="509.5234" width="8" x="792.6392" y="81.2969"/><line style="stroke:#181818;stroke-width:0.5;stroke-dasharray:5,5;" x1="795.8145" x2="795.8145" y1="81.2969" y2="590.8203"/></g></g><g class="participant-lifeline" data-entity-uid="part4" data-qualified-name="Entity" id="part4-lifeline"><g><title>Airport</title><rect fill="#000000" fill-opacity="0.00000" height="509.5234" width="8" x="946.0669" y="81.2969"/><line style="stroke:#181818;stroke-width:0.5;stroke-dasharray:5,5;" x1="949.1069" x2="949.1069" y1="81.2969" y2="590.8203"/></g></g><g class="participant-lifeline" data-entity-uid="part5" data-qualified-name="Repo" id="part5-lifeline"><g><title>AirportRepository</title><rect fill="#000000" fill-opacity="0.00000" height="509.5234" width="8" x="1055.5229" y="81.2969"/><line style="stroke:#181818;stroke-width:0.5;stroke-dasharray:5,5;" x1="1059.0269" x2="1059.0269" y1="81.2969" y2="590.8203"/></g></g><g class="participant-lifeline" data-entity-uid="part6" data-qualified-name="DB" id="part6-lifeline"><g><title>Database</title><rect fill="#000000" fill-opacity="0.00000" height="509.5234" width="8" x="1419.166" y="81.2969"/><line style="stroke:#181818;stroke-width:0.5;stroke-dasharray:5,5;" x1="1422.7656" x2="1422.7656" y1="81.2969" y2="590.8203"/></g></g><g class="participant participant-head" data-entity-uid="part1" data-qualified-name="BO" id="part1-head"><text fill="#000000" font-family="sans-serif" font-size="14" lengthAdjust="spacing" textLength="139.7266" x="5" y="77.9951">Backoffice Operator</text><ellipse cx="77.8633" cy="13.5" fill="#E2E2F0" rx="8" ry="8" style="stroke:#181818;stroke-width:0.5;"/><path d="M77.8633,21.5 L77.8633,48.5 M64.8633,29.5 L90.8633,29.5 M77.8633,48.5 L64.8633,63.5 M77.8633,48.5 L90.8633,63.5" fill="none" style="stroke:#181818;stroke-width:0.5;"/></g><g class="participant participant-tail" data-entity-uid="part1" data-qualified-name="BO" id="part1-tail"><text fill="#000000" font-family="sans-serif" font-size="14" lengthAdjust="spacing" textLength="139.7266" x="5" y="602.8154">Backoffice Operator</text><ellipse cx="77.8633" cy="614.6172" fill="#E2E2F0" rx="8" ry="8" style="stroke:#181818;stroke-width:0.5;"/><path d="M77.8633,622.6172 L77.8633,649.6172 M64.8633,630.6172 L90.8633,630.6172 M77.8633,649.6172 L64.8633,664.6172 M77.8633,649.6172 L90.8633,664.6172" fill="none" style="stroke:#181818;stroke-width:0.5;"/></g><g class="participant participant-head" data-entity-uid="part2" data-qualified-name="Ctrl" id="part2-head"><rect fill="#E2E2F0" height="30.2969" rx="2.5" ry="2.5" style="stroke:#181818;stroke-width:0.5;" width="131.0928" x="477.353" y="50"/><text fill="#000000" font-family="sans-serif" font-size="14" lengthAdjust="spacing" textLength="117.0928" x="484.353" y="69.9951">AirportController</text></g><g class="participant participant-tail" data-entity-uid="part2" data-qualified-name="Ctrl" id="part2-tail"><rect fill="#E2E2F0" height="30.2969" rx="2.5" ry="2.5" style="stroke:#181818;stroke-width:0.5;" width="131.0928" x="477.353" y="589.8203"/><text fill="#000000" font-family="sans-serif" font-size="14" lengthAdjust="spacing" textLength="117.0928" x="484.353" y="609.8154">AirportController</text></g><g class="participant participant-head" data-entity-uid="part3" data-qualified-name="UC" id="part3-head"><rect fill="#E2E2F0" height="30.2969" rx="2.5" ry="2.5" style="stroke:#181818;stroke-width:0.5;" width="217.6494" x="687.8145" y="50"/><text fill="#000000" font-family="sans-serif" font-size="14" lengthAdjust="spacing" textLength="203.6494" x="694.8145" y="69.9951">UpdateAirportStatusUseCase</text></g><g class="participant participant-tail" data-entity-uid="part3" data-qualified-name="UC" id="part3-tail"><rect fill="#E2E2F0" height="30.2969" rx="2.5" ry="2.5" style="stroke:#181818;stroke-width:0.5;" width="217.6494" x="687.8145" y="589.8203"/><text fill="#000000" font-family="sans-serif" font-size="14" lengthAdjust="spacing" textLength="203.6494" x="694.8145" y="609.8154">UpdateAirportStatusUseCase</text></g><g class="participant participant-head" data-entity-uid="part4" data-qualified-name="Entity" id="part4-head"><rect fill="#E2E2F0" height="30.2969" rx="2.5" ry="2.5" style="stroke:#181818;stroke-width:0.5;" width="61.9199" x="919.1069" y="50"/><text fill="#000000" font-family="sans-serif" font-size="14" lengthAdjust="spacing" textLength="47.9199" x="926.1069" y="69.9951">Airport</text></g><g class="participant participant-tail" data-entity-uid="part4" data-qualified-name="Entity" id="part4-tail"><rect fill="#E2E2F0" height="30.2969" rx="2.5" ry="2.5" style="stroke:#181818;stroke-width:0.5;" width="61.9199" x="919.1069" y="589.8203"/><text fill="#000000" font-family="sans-serif" font-size="14" lengthAdjust="spacing" textLength="47.9199" x="926.1069" y="609.8154">Airport</text></g><g class="participant participant-head" data-entity-uid="part5" data-qualified-name="Repo" id="part5-head"><rect fill="#E2E2F0" height="30.2969" rx="2.5" ry="2.5" style="stroke:#181818;stroke-width:0.5;" width="136.9922" x="991.0269" y="50"/><text fill="#000000" font-family="sans-serif" font-size="14" lengthAdjust="spacing" textLength="122.9922" x="998.0269" y="69.9951">AirportRepository</text></g><g class="participant participant-tail" data-entity-uid="part5" data-qualified-name="Repo" id="part5-tail"><rect fill="#E2E2F0" height="30.2969" rx="2.5" ry="2.5" style="stroke:#181818;stroke-width:0.5;" width="136.9922" x="991.0269" y="589.8203"/><text fill="#000000" font-family="sans-serif" font-size="14" lengthAdjust="spacing" textLength="122.9922" x="998.0269" y="609.8154">AirportRepository</text></g><g class="participant participant-head" data-entity-uid="part6" data-qualified-name="DB" id="part6-head"><text fill="#000000" font-family="sans-serif" font-size="14" lengthAdjust="spacing" textLength="66.8008" x="1386.7656" y="77.9951">Database</text><path d="M1405.166,29 C1405.166,19 1423.166,19 1423.166,19 C1423.166,19 1441.166,19 1441.166,29 L1441.166,55 C1441.166,65 1423.166,65 1423.166,65 C1423.166,65 1405.166,65 1405.166,55 L1405.166,29" fill="#E2E2F0" style="stroke:#181818;stroke-width:0.5;"/><path d="M1405.166,29 C1405.166,39 1423.166,39 1423.166,39 C1423.166,39 1441.166,39 1441.166,29" fill="none" style="stroke:#181818;stroke-width:0.5;"/></g><g class="participant participant-tail" data-entity-uid="part6" data-qualified-name="DB" id="part6-tail"><text fill="#000000" font-family="sans-serif" font-size="14" lengthAdjust="spacing" textLength="66.8008" x="1386.7656" y="602.8154">Database</text><path d="M1405.166,616.1172 C1405.166,606.1172 1423.166,606.1172 1423.166,606.1172 C1423.166,606.1172 1441.166,606.1172 1441.166,616.1172 L1441.166,642.1172 C1441.166,652.1172 1423.166,652.1172 1423.166,652.1172 C1423.166,652.1172 1405.166,652.1172 1405.166,642.1172 L1405.166,616.1172" fill="#E2E2F0" style="stroke:#181818;stroke-width:0.5;"/><path d="M1405.166,616.1172 C1405.166,626.1172 1423.166,626.1172 1423.166,626.1172 C1423.166,626.1172 1441.166,626.1172 1441.166,616.1172" fill="none" style="stroke:#181818;stroke-width:0.5;"/></g><g><title>AirportController</title><rect fill="#FFFFFF" height="445.2578" style="stroke:#181818;stroke-width:1;" width="10" x="537.8994" y="127.5625"/></g><g><title>UpdateAirportStatusUseCase</title><rect fill="#FFFFFF" height="306.4609" style="stroke:#181818;stroke-width:1;" width="10" x="791.6392" y="222.0938"/></g><g><title>Airport</title><rect fill="#FFFFFF" height="29.1328" style="stroke:#181818;stroke-width:1;" width="10" x="945.0669" y="367.7578"/></g><g><title>AirportRepository</title><rect fill="#FFFFFF" height="87.3984" style="stroke:#181818;stroke-width:1;" width="10" x="1054.5229" y="251.2266"/></g><g><title>AirportRepository</title><rect fill="#FFFFFF" height="58.2656" style="stroke:#181818;stroke-width:1;" width="10" x="1054.5229" y="426.0234"/></g><g><title>Database</title><rect fill="#FFFFFF" height="29.1328" style="stroke:#181818;stroke-width:1;" width="10" x="1418.166" y="280.3594"/></g><g><title>Database</title><rect fill="#FFFFFF" height="29.1328" style="stroke:#181818;stroke-width:1;" width="10" x="1418.166" y="455.1563"/></g><g class="message" data-entity-1="part1" data-entity-2="part2" id="msg1"><polygon fill="#181818" points="525.8994,123.5625,535.8994,127.5625,525.8994,131.5625,529.8994,127.5625" style="stroke:#181818;stroke-width:1;"/><line style="stroke:#181818;stroke-width:1;" x1="77.8633" x2="531.8994" y1="127.5625" y2="127.5625"/><text fill="#000000" font-family="sans-serif" font-size="13" font-weight="bold" lengthAdjust="spacing" textLength="9.0454" x="84.8633" y="114.9302">1</text><text fill="#000000" font-family="sans-serif" font-size="13" lengthAdjust="spacing" textLength="249.7612" x="97.9087" y="107.3638">PATCH /api/airports/{iataCode}/status</text><text fill="#000000" font-family="sans-serif" font-size="13" lengthAdjust="spacing" textLength="427.9907" x="97.9087" y="122.4966">{ status: "OPERATIONAL" | "CLOSED" | "UNDER_MAINTENANCE" }</text></g><path d="M552,140.5625 L552,180.5625 L857,180.5625 L857,150.5625 L847,140.5625 L552,140.5625" fill="#FEFFDD" style="stroke:#181818;stroke-width:0.5;"/><path d="M847,140.5625 L847,150.5625 L857,150.5625 L847,140.5625" fill="#FEFFDD" style="stroke:#181818;stroke-width:0.5;"/><text fill="#000000" font-family="sans-serif" font-size="13" lengthAdjust="spacing" textLength="260.5649" x="558" y="157.6294">@Valid on UpdateAirportStatusRequest:</text><text fill="#000000" font-family="sans-serif" font-size="13" lengthAdjust="spacing" textLength="284.0068" x="558" y="172.7622">- status: not null, must be valid enum value</text><g class="message" data-entity-1="part2" data-entity-2="part3" id="msg2"><polygon fill="#181818" points="779.6392,218.0938,789.6392,222.0938,779.6392,226.0938,783.6392,222.0938" style="stroke:#181818;stroke-width:1;"/><line style="stroke:#181818;stroke-width:1;" x1="547.8994" x2="785.6392" y1="222.0938" y2="222.0938"/><text fill="#000000" font-family="sans-serif" font-size="13" font-weight="bold" lengthAdjust="spacing" textLength="9.0454" x="554.8994" y="209.4614">2</text><text fill="#000000" font-family="sans-serif" font-size="13" lengthAdjust="spacing" textLength="166.6069" x="567.9448" y="201.895">execute(iataCode: String,</text><text fill="#000000" font-family="sans-serif" font-size="13" lengthAdjust="spacing" textLength="203.4297" x="576.2095" y="217.0278">request.status(): AirportStatus)</text></g><g class="message" data-entity-1="part3" data-entity-2="part5" id="msg3"><polygon fill="#181818" points="1042.5229,247.2266,1052.5229,251.2266,1042.5229,255.2266,1046.5229,251.2266" style="stroke:#181818;stroke-width:1;"/><line style="stroke:#181818;stroke-width:1;" x1="801.6392" x2="1048.5229" y1="251.2266" y2="251.2266"/><text fill="#000000" font-family="sans-serif" font-size="13" font-weight="bold" lengthAdjust="spacing" textLength="9.0454" x="808.6392" y="246.1606">3</text><text fill="#000000" font-family="sans-serif" font-size="13" lengthAdjust="spacing" textLength="200.7827" x="821.6846" y="246.1606">findByIataCodeCode(iataCode)</text></g><g class="message" data-entity-1="part5" data-entity-2="part6" id="msg4"><polygon fill="#181818" points="1406.166,276.3594,1416.166,280.3594,1406.166,284.3594,1410.166,280.3594" style="stroke:#181818;stroke-width:1;"/><line style="stroke:#181818;stroke-width:1;" x1="1064.5229" x2="1412.166" y1="280.3594" y2="280.3594"/><text fill="#000000" font-family="sans-serif" font-size="13" font-weight="bold" lengthAdjust="spacing" textLength="9.0454" x="1071.5229" y="275.2935">4</text><text fill="#000000" font-family="sans-serif" font-size="13" lengthAdjust="spacing" textLength="252.4971" x="1084.5684" y="275.2935">SELECT FROM airport WHERE code = ?</text></g><g class="message" data-entity-1="part6" data-entity-2="part5" id="msg5"><polygon fill="#181818" points="1075.5229,305.4922,1065.5229,309.4922,1075.5229,313.4922,1071.5229,309.4922" style="stroke:#181818;stroke-width:1;"/><line style="stroke:#181818;stroke-width:1;stroke-dasharray:2,2;" x1="1069.5229" x2="1422.166" y1="309.4922" y2="309.4922"/><text fill="#000000" font-family="sans-serif" font-size="13" font-weight="bold" lengthAdjust="spacing" textLength="9.0454" x="1081.5229" y="304.4263">5</text><text fill="#000000" font-family="sans-serif" font-size="13" lengthAdjust="spacing" textLength="89.7432" x="1094.5684" y="304.4263">airport record</text></g><g class="message" data-entity-1="part5" data-entity-2="part3" id="msg6"><polygon fill="#181818" points="812.6392,334.625,802.6392,338.625,812.6392,342.625,808.6392,338.625" style="stroke:#181818;stroke-width:1;"/><line style="stroke:#181818;stroke-width:1;stroke-dasharray:2,2;" x1="806.6392" x2="1058.5229" y1="338.625" y2="338.625"/><text fill="#000000" font-family="sans-serif" font-size="13" font-weight="bold" lengthAdjust="spacing" textLength="9.0454" x="818.6392" y="333.5591">6</text><text fill="#000000" font-family="sans-serif" font-size="13" lengthAdjust="spacing" textLength="44.4971" x="831.6846" y="333.5591">Airport</text></g><g class="message" data-entity-1="part3" data-entity-2="part4" id="msg7"><polygon fill="#181818" points="933.0669,363.7578,943.0669,367.7578,933.0669,371.7578,937.0669,367.7578" style="stroke:#181818;stroke-width:1;"/><line style="stroke:#181818;stroke-width:1;" x1="801.6392" x2="939.0669" y1="367.7578" y2="367.7578"/><text fill="#000000" font-family="sans-serif" font-size="13" font-weight="bold" lengthAdjust="spacing" textLength="9.0454" x="808.6392" y="362.6919">7</text><text fill="#000000" font-family="sans-serif" font-size="13" lengthAdjust="spacing" textLength="111.3823" x="821.6846" y="362.6919">setStatus(status)</text></g><g class="message" data-entity-1="part4" data-entity-2="part3" id="msg8"><polygon fill="#181818" points="812.6392,392.8906,802.6392,396.8906,812.6392,400.8906,808.6392,396.8906" style="stroke:#181818;stroke-width:1;"/><line style="stroke:#181818;stroke-width:1;stroke-dasharray:2,2;" x1="806.6392" x2="949.0669" y1="396.8906" y2="396.8906"/><text fill="#000000" font-family="sans-serif" font-size="13" font-weight="bold" lengthAdjust="spacing" textLength="9.0454" x="818.6392" y="391.8247">8</text><text fill="#000000" font-family="sans-serif" font-size="13" lengthAdjust="spacing" textLength="4.1323" x="831.6846" y="391.8247">&#160;</text></g><g class="message" data-entity-1="part3" data-entity-2="part5" id="msg9"><polygon fill="#181818" points="1042.5229,422.0234,1052.5229,426.0234,1042.5229,430.0234,1046.5229,426.0234" style="stroke:#181818;stroke-width:1;"/><line style="stroke:#181818;stroke-width:1;" x1="801.6392" x2="1048.5229" y1="426.0234" y2="426.0234"/><text fill="#000000" font-family="sans-serif" font-size="13" font-weight="bold" lengthAdjust="spacing" textLength="9.0454" x="808.6392" y="420.9575">9</text><text fill="#000000" font-family="sans-serif" font-size="13" lengthAdjust="spacing" textLength="84.1445" x="821.6846" y="420.9575">save(airport)</text></g><g class="message" data-entity-1="part5" data-entity-2="part6" id="msg10"><polygon fill="#181818" points="1406.166,451.1563,1416.166,455.1563,1406.166,459.1563,1410.166,455.1563" style="stroke:#181818;stroke-width:1;"/><line style="stroke:#181818;stroke-width:1;" x1="1064.5229" x2="1412.166" y1="455.1563" y2="455.1563"/><text fill="#000000" font-family="sans-serif" font-size="13" font-weight="bold" lengthAdjust="spacing" textLength="18.0908" x="1071.5229" y="450.0903">10</text><text fill="#000000" font-family="sans-serif" font-size="13" lengthAdjust="spacing" textLength="312.5522" x="1093.6138" y="450.0903">UPDATE airport SET status = ? WHERE code = ?</text></g><g class="message" data-entity-1="part6" data-entity-2="part5" id="msg11"><polygon fill="#181818" points="1070.5229,480.2891,1060.5229,484.2891,1070.5229,488.2891,1066.5229,484.2891" style="stroke:#181818;stroke-width:1;"/><line style="stroke:#181818;stroke-width:1;stroke-dasharray:2,2;" x1="1064.5229" x2="1422.166" y1="484.2891" y2="484.2891"/><text fill="#000000" font-family="sans-serif" font-size="13" font-weight="bold" lengthAdjust="spacing" textLength="18.0908" x="1076.5229" y="479.2231">11</text><text fill="#000000" font-family="sans-serif" font-size="13" lengthAdjust="spacing" textLength="4.1323" x="1098.6138" y="479.2231">&#160;</text></g><g class="message" data-entity-1="part3" data-entity-2="part2" id="msg12"><polygon fill="#181818" points="558.8994,524.5547,548.8994,528.5547,558.8994,532.5547,554.8994,528.5547" style="stroke:#181818;stroke-width:1;"/><line style="stroke:#181818;stroke-width:1;stroke-dasharray:2,2;" x1="552.8994" x2="795.6392" y1="528.5547" y2="528.5547"/><text fill="#000000" font-family="sans-serif" font-size="13" font-weight="bold" lengthAdjust="spacing" textLength="18.0908" x="564.8994" y="515.9224">12</text><text fill="#000000" font-family="sans-serif" font-size="13" lengthAdjust="spacing" textLength="195.9014" x="586.9902" y="508.356">AirportResponse.from(airport)</text><text fill="#000000" font-family="sans-serif" font-size="13" lengthAdjust="spacing" textLength="196.7329" x="586.9902" y="523.4888">{ iataCode, name, status, ... }</text></g><g class="message" data-entity-1="part2" data-entity-2="part1" id="msg13"><polygon fill="#181818" points="88.8633,568.8203,78.8633,572.8203,88.8633,576.8203,84.8633,572.8203" style="stroke:#181818;stroke-width:1;"/><line style="stroke:#181818;stroke-width:1;stroke-dasharray:2,2;" x1="82.8633" x2="541.8994" y1="572.8203" y2="572.8203"/><text fill="#000000" font-family="sans-serif" font-size="13" font-weight="bold" lengthAdjust="spacing" textLength="18.0908" x="94.8633" y="560.188">13</text><text fill="#000000" font-family="sans-serif" font-size="13" lengthAdjust="spacing" textLength="47.7026" x="116.9541" y="552.6216">200 OK</text><text fill="#000000" font-family="sans-serif" font-size="13" lengthAdjust="spacing" textLength="278.3955" x="116.9541" y="567.7544">EntityModel&lt;AirportResponse&gt; with _links</text></g><?plantuml-src ZLDDZzem4BtdLunoOYK-LZr6xRRvgXOL20f9Uq5QcSJiMXlir7PeqNR_UoTsW81GrGF8YTzxC-_DX3HQy6QteT8XXHOIt80KhsAxPGM5fAQIu4iNY88WSMeYDIjOJRW6rsUo5bA7WcifgefQLAXbTOdBwv9esg5NckX6vOg6H553oCERikOkvfhfmytxbDP2CUpjO93jeuDro0PrmOswaxcB0iS94XWzcER0WwMVXOym8JMR4Akc9cyCAQ4ewVj4cHxN_0tioGCtMSQfdqsJXJzpuG-uuInPnP4vveieJf_c_dIHnGj_4SOklBTHiZswjd4uNE1HikSN3M9htm5y-KugLeBWS2EXbFvigD8UuaQdDb06U5DLGzWrIiE6mjv8K1nWUsoeGtdPmgZZ6A_eEG_HCVrDYqRJmT6a1oij6NyUhZc0jBN6jipWpeEBLkxERd1M3kgXQfitwcuPBuF3j5DjVwSIFPePZc4WCmgGjufdSPZ1rpIPGpS2-F4Ofp4KI8LFyFdCnl4XPtGkUYH8MWXPEYNjGssPe-_EI1zZckbSsFr2dAATsO6wzjpjO0Urodszxluo5qNsTD3r-SyWycNaP_79qYhEkcct6Vnd95S9tFHwNlxJzwDgmHKTRwNOdLfjb_uum25miiD_syyGnkCnRdPFlTq6ksMeZX-O1n_kxo7vjkOsapcAL1-lwZt0BwPVuAbY_5NrrLgblm00?></g></svg>