<?plantuml 1.2026.1?><svg xmlns="http://www.w3.org/2000/svg" xmlns:xlink="http://www.w3.org/1999/xlink" contentStyleType="text/css" data-diagram-type="SEQUENCE" height="878px" preserveAspectRatio="none" style="width:1700px;height:878px;background:#FFFFFF;" version="1.1" viewBox="0 0 1700 878" width="1700px" zoomAndPan="magnify"><defs/><g><g><title>AirportController</title><rect fill="#FFFFFF" height="659.9922" style="stroke:#181818;stroke-width:1;" width="10" x="552.8994" y="127.5625"/></g><g><title>UpdateAirportStatusUseCase</title><rect fill="#FFFFFF" height="359.7266" style="stroke:#181818;stroke-width:1;" width="10" x="825.8516" y="222.0938"/></g><g><title>Airport</title><rect fill="#FFFFFF" height="29.1328" style="stroke:#181818;stroke-width:1;" width="10" x="979.2793" y="367.7578"/></g><g><title>AirportRepository</title><rect fill="#FFFFFF" height="87.3984" style="stroke:#181818;stroke-width:1;" width="10" x="1186.9829" y="251.2266"/></g><g><title>AirportRepository</title><rect fill="#FFFFFF" height="111.5313" style="stroke:#181818;stroke-width:1;" width="10" x="1186.9829" y="426.0234"/></g><g><title>Database</title><rect fill="#FFFFFF" height="29.1328" style="stroke:#181818;stroke-width:1;" width="10" x="1641.7021" y="280.3594"/></g><g><title>Database</title><rect fill="#FFFFFF" height="53.2656" style="stroke:#181818;stroke-width:1;" width="10" x="1641.7021" y="455.1563"/></g><rect fill="none" height="310.3984" style="stroke:#000000;stroke-width:1.5;" width="1683.1025" x="10" y="470.1563"/><g class="participant-lifeline" data-entity-uid="part1" data-qualified-name="BO" id="part1-lifeline"><g><title>Backoffice Operator</title><rect fill="#000000" fill-opacity="0.00000" height="716.2578" width="8" x="88.8633" y="81.2969"/><line style="stroke:#181818;stroke-width:0.5;stroke-dasharray:5,5;" x1="92" x2="92" y1="81.2969" y2="797.5547"/></g></g><g class="participant-lifeline" data-entity-uid="part2" data-qualified-name="Ctrl" id="part2-lifeline"><g><title>AirportController</title><rect fill="#000000" fill-opacity="0.00000" height="716.2578" width="8" x="553.8994" y="81.2969"/><line style="stroke:#181818;stroke-width:0.5;stroke-dasharray:5,5;" x1="557.353" x2="557.353" y1="81.2969" y2="797.5547"/></g></g><g class="participant-lifeline" data-entity-uid="part3" data-qualified-name="UC" id="part3-lifeline"><g><title>UpdateAirportStatusUseCase</title><rect fill="#000000" fill-opacity="0.00000" height="716.2578" width="8" x="826.8516" y="81.2969"/><line style="stroke:#181818;stroke-width:0.5;stroke-dasharray:5,5;" x1="830.0269" x2="830.0269" y1="81.2969" y2="797.5547"/></g></g><g class="participant-lifeline" data-entity-uid="part4" data-qualified-name="Entity" id="part4-lifeline"><g><title>Airport</title><rect fill="#000000" fill-opacity="0.00000" height="716.2578" width="8" x="980.2793" y="81.2969"/><line style="stroke:#181818;stroke-width:0.5;stroke-dasharray:5,5;" x1="983.3193" x2="983.3193" y1="81.2969" y2="797.5547"/></g></g><g class="participant-lifeline" data-entity-uid="part5" data-qualified-name="Repo" id="part5-lifeline"><g><title>AirportRepository</title><rect fill="#000000" fill-opacity="0.00000" height="716.2578" width="8" x="1187.9829" y="81.2969"/><line style="stroke:#181818;stroke-width:0.5;stroke-dasharray:5,5;" x1="1191.4868" x2="1191.4868" y1="81.2969" y2="797.5547"/></g></g><g class="participant-lifeline" data-entity-uid="part6" data-qualified-name="DB" id="part6-lifeline"><g><title>Database</title><rect fill="#000000" fill-opacity="0.00000" height="716.2578" width="8" x="1642.7021" y="81.2969"/><line style="stroke:#181818;stroke-width:0.5;stroke-dasharray:5,5;" x1="1646.3018" x2="1646.3018" y1="81.2969" y2="797.5547"/></g></g><g class="participant participant-head" data-entity-uid="part1" data-qualified-name="BO" id="part1-head"><text fill="#000000" font-family="sans-serif" font-size="14" lengthAdjust="spacing" textLength="139.7266" x="20" y="77.9951">Backoffice Operator</text><ellipse cx="92.8633" cy="13.5" fill="#E2E2F0" rx="8" ry="8" style="stroke:#181818;stroke-width:0.5;"/><path d="M92.8633,21.5 L92.8633,48.5 M79.8633,29.5 L105.8633,29.5 M92.8633,48.5 L79.8633,63.5 M92.8633,48.5 L105.8633,63.5" fill="none" style="stroke:#181818;stroke-width:0.5;"/></g><g class="participant participant-tail" data-entity-uid="part1" data-qualified-name="BO" id="part1-tail"><text fill="#000000" font-family="sans-serif" font-size="14" lengthAdjust="spacing" textLength="139.7266" x="20" y="809.5498">Backoffice Operator</text><ellipse cx="92.8633" cy="821.3516" fill="#E2E2F0" rx="8" ry="8" style="stroke:#181818;stroke-width:0.5;"/><path d="M92.8633,829.3516 L92.8633,856.3516 M79.8633,837.3516 L105.8633,837.3516 M92.8633,856.3516 L79.8633,871.3516 M92.8633,856.3516 L105.8633,871.3516" fill="none" style="stroke:#181818;stroke-width:0.5;"/></g><g class="participant participant-head" data-entity-uid="part2" data-qualified-name="Ctrl" id="part2-head"><rect fill="#E2E2F0" height="30.2969" rx="2.5" ry="2.5" style="stroke:#181818;stroke-width:0.5;" width="131.0928" x="492.353" y="50"/><text fill="#000000" font-family="sans-serif" font-size="14" lengthAdjust="spacing" textLength="117.0928" x="499.353" y="69.9951">AirportController</text></g><g class="participant participant-tail" data-entity-uid="part2" data-qualified-name="Ctrl" id="part2-tail"><rect fill="#E2E2F0" height="30.2969" rx="2.5" ry="2.5" style="stroke:#181818;stroke-width:0.5;" width="131.0928" x="492.353" y="796.5547"/><text fill="#000000" font-family="sans-serif" font-size="14" lengthAdjust="spacing" textLength="117.0928" x="499.353" y="816.5498">AirportController</text></g><g class="participant participant-head" data-entity-uid="part3" data-qualified-name="UC" id="part3-head"><rect fill="#E2E2F0" height="30.2969" rx="2.5" ry="2.5" style="stroke:#181818;stroke-width:0.5;" width="217.6494" x="722.0269" y="50"/><text fill="#000000" font-family="sans-serif" font-size="14" lengthAdjust="spacing" textLength="203.6494" x="729.0269" y="69.9951">UpdateAirportStatusUseCase</text></g><g class="participant participant-tail" data-entity-uid="part3" data-qualified-name="UC" id="part3-tail"><rect fill="#E2E2F0" height="30.2969" rx="2.5" ry="2.5" style="stroke:#181818;stroke-width:0.5;" width="217.6494" x="722.0269" y="796.5547"/><text fill="#000000" font-family="sans-serif" font-size="14" lengthAdjust="spacing" textLength="203.6494" x="729.0269" y="816.5498">UpdateAirportStatusUseCase</text></g><g class="participant participant-head" data-entity-uid="part4" data-qualified-name="Entity" id="part4-head"><rect fill="#E2E2F0" height="30.2969" rx="2.5" ry="2.5" style="stroke:#181818;stroke-width:0.5;" width="61.9199" x="953.3193" y="50"/><text fill="#000000" font-family="sans-serif" font-size="14" lengthAdjust="spacing" textLength="47.9199" x="960.3193" y="69.9951">Airport</text></g><g class="participant participant-tail" data-entity-uid="part4" data-qualified-name="Entity" id="part4-tail"><rect fill="#E2E2F0" height="30.2969" rx="2.5" ry="2.5" style="stroke:#181818;stroke-width:0.5;" width="61.9199" x="953.3193" y="796.5547"/><text fill="#000000" font-family="sans-serif" font-size="14" lengthAdjust="spacing" textLength="47.9199" x="960.3193" y="816.5498">Airport</text></g><g class="participant participant-head" data-entity-uid="part5" data-qualified-name="Repo" id="part5-head"><rect fill="#E2E2F0" height="30.2969" rx="2.5" ry="2.5" style="stroke:#181818;stroke-width:0.5;" width="136.9922" x="1123.4868" y="50"/><text fill="#000000" font-family="sans-serif" font-size="14" lengthAdjust="spacing" textLength="122.9922" x="1130.4868" y="69.9951">AirportRepository</text></g><g class="participant participant-tail" data-entity-uid="part5" data-qualified-name="Repo" id="part5-tail"><rect fill="#E2E2F0" height="30.2969" rx="2.5" ry="2.5" style="stroke:#181818;stroke-width:0.5;" width="136.9922" x="1123.4868" y="796.5547"/><text fill="#000000" font-family="sans-serif" font-size="14" lengthAdjust="spacing" textLength="122.9922" x="1130.4868" y="816.5498">AirportRepository</text></g><g class="participant participant-head" data-entity-uid="part6" data-qualified-name="DB" id="part6-head"><text fill="#000000" font-family="sans-serif" font-size="14" lengthAdjust="spacing" textLength="66.8008" x="1610.3018" y="77.9951">Database</text><path d="M1628.7021,29 C1628.7021,19 1646.7021,19 1646.7021,19 C1646.7021,19 1664.7021,19 1664.7021,29 L1664.7021,55 C1664.7021,65 1646.7021,65 1646.7021,65 C1646.7021,65 1628.7021,65 1628.7021,55 L1628.7021,29" fill="#E2E2F0" style="stroke:#181818;stroke-width:0.5;"/><path d="M1628.7021,29 C1628.7021,39 1646.7021,39 1646.7021,39 C1646.7021,39 1664.7021,39 1664.7021,29" fill="none" style="stroke:#181818;stroke-width:0.5;"/></g><g class="participant participant-tail" data-entity-uid="part6" data-qualified-name="DB" id="part6-tail"><text fill="#000000" font-family="sans-serif" font-size="14" lengthAdjust="spacing" textLength="66.8008" x="1610.3018" y="809.5498">Database</text><path d="M1628.7021,822.8516 C1628.7021,812.8516 1646.7021,812.8516 1646.7021,812.8516 C1646.7021,812.8516 1664.7021,812.8516 1664.7021,822.8516 L1664.7021,848.8516 C1664.7021,858.8516 1646.7021,858.8516 1646.7021,858.8516 C1646.7021,858.8516 1628.7021,858.8516 1628.7021,848.8516 L1628.7021,822.8516" fill="#E2E2F0" style="stroke:#181818;stroke-width:0.5;"/><path d="M1628.7021,822.8516 C1628.7021,832.8516 1646.7021,832.8516 1646.7021,832.8516 C1646.7021,832.8516 1664.7021,832.8516 1664.7021,822.8516" fill="none" style="stroke:#181818;stroke-width:0.5;"/></g><g><title>AirportController</title><rect fill="#FFFFFF" height="659.9922" style="stroke:#181818;stroke-width:1;" width="10" x="552.8994" y="127.5625"/></g><g><title>UpdateAirportStatusUseCase</title><rect fill="#FFFFFF" height="359.7266" style="stroke:#181818;stroke-width:1;" width="10" x="825.8516" y="222.0938"/></g><g><title>Airport</title><rect fill="#FFFFFF" height="29.1328" style="stroke:#181818;stroke-width:1;" width="10" x="979.2793" y="367.7578"/></g><g><title>AirportRepository</title><rect fill="#FFFFFF" height="87.3984" style="stroke:#181818;stroke-width:1;" width="10" x="1186.9829" y="251.2266"/></g><g><title>AirportRepository</title><rect fill="#FFFFFF" height="111.5313" style="stroke:#181818;stroke-width:1;" width="10" x="1186.9829" y="426.0234"/></g><g><title>Database</title><rect fill="#FFFFFF" height="29.1328" style="stroke:#181818;stroke-width:1;" width="10" x="1641.7021" y="280.3594"/></g><g><title>Database</title><rect fill="#FFFFFF" height="53.2656" style="stroke:#181818;stroke-width:1;" width="10" x="1641.7021" y="455.1563"/></g><g class="message" data-entity-1="part1" data-entity-2="part2" id="msg1"><polygon fill="#181818" points="540.8994,123.5625,550.8994,127.5625,540.8994,131.5625,544.8994,127.5625" style="stroke:#181818;stroke-width:1;"/><line style="stroke:#181818;stroke-width:1;" x1="92.8633" x2="546.8994" y1="127.5625" y2="127.5625"/><text fill="#000000" font-family="sans-serif" font-size="13" font-weight="bold" lengthAdjust="spacing" textLength="9.0454" x="99.8633" y="114.9302">1</text><text fill="#000000" font-family="sans-serif" font-size="13" lengthAdjust="spacing" textLength="249.7612" x="112.9087" y="107.3638">PATCH /api/airports/{iataCode}/status</text><text fill="#000000" font-family="sans-serif" font-size="13" lengthAdjust="spacing" textLength="427.9907" x="112.9087" y="122.4966">{ status: "OPERATIONAL" | "CLOSED" | "UNDER_MAINTENANCE" }</text></g><path d="M567,140.5625 L567,180.5625 L872,180.5625 L872,150.5625 L862,140.5625 L567,140.5625" fill="#FEFFDD" style="stroke:#181818;stroke-width:0.5;"/><path d="M862,140.5625 L862,150.5625 L872,150.5625 L862,140.5625" fill="#FEFFDD" style="stroke:#181818;stroke-width:0.5;"/><text fill="#000000" font-family="sans-serif" font-size="13" lengthAdjust="spacing" textLength="260.5649" x="573" y="157.6294">@Valid on UpdateAirportStatusRequest:</text><text fill="#000000" font-family="sans-serif" font-size="13" lengthAdjust="spacing" textLength="284.0068" x="573" y="172.7622">- status: not null, must be valid enum value</text><g class="message" data-entity-1="part2" data-entity-2="part3" id="msg2"><polygon fill="#181818" points="813.8516,218.0938,823.8516,222.0938,813.8516,226.0938,817.8516,222.0938" style="stroke:#181818;stroke-width:1;"/><line style="stroke:#181818;stroke-width:1;" x1="562.8994" x2="819.8516" y1="222.0938" y2="222.0938"/><text fill="#000000" font-family="sans-serif" font-size="13" font-weight="bold" lengthAdjust="spacing" textLength="9.0454" x="569.8994" y="209.4614">2</text><text fill="#000000" font-family="sans-serif" font-size="13" lengthAdjust="spacing" textLength="166.6069" x="582.9448" y="201.895">execute(iataCode: String,</text><text fill="#000000" font-family="sans-serif" font-size="13" lengthAdjust="spacing" textLength="203.4297" x="591.2095" y="217.0278">request.status(): AirportStatus)</text></g><g class="message" data-entity-1="part3" data-entity-2="part5" id="msg3"><polygon fill="#181818" points="1174.9829,247.2266,1184.9829,251.2266,1174.9829,255.2266,1178.9829,251.2266" style="stroke:#181818;stroke-width:1;"/><line style="stroke:#181818;stroke-width:1;" x1="835.8516" x2="1180.9829" y1="251.2266" y2="251.2266"/><text fill="#000000" font-family="sans-serif" font-size="13" font-weight="bold" lengthAdjust="spacing" textLength="9.0454" x="842.8516" y="246.1606">3</text><text fill="#000000" font-family="sans-serif" font-size="13" lengthAdjust="spacing" textLength="200.7827" x="855.897" y="246.1606">findByIataCodeCode(iataCode)</text></g><g class="message" data-entity-1="part5" data-entity-2="part6" id="msg4"><polygon fill="#181818" points="1629.7021,276.3594,1639.7021,280.3594,1629.7021,284.3594,1633.7021,280.3594" style="stroke:#181818;stroke-width:1;"/><line style="stroke:#181818;stroke-width:1;" x1="1196.9829" x2="1635.7021" y1="280.3594" y2="280.3594"/><text fill="#000000" font-family="sans-serif" font-size="13" font-weight="bold" lengthAdjust="spacing" textLength="9.0454" x="1203.9829" y="275.2935">4</text><text fill="#000000" font-family="sans-serif" font-size="13" lengthAdjust="spacing" textLength="252.4971" x="1217.0283" y="275.2935">SELECT FROM airport WHERE code = ?</text></g><g class="message" data-entity-1="part6" data-entity-2="part5" id="msg5"><polygon fill="#181818" points="1207.9829,305.4922,1197.9829,309.4922,1207.9829,313.4922,1203.9829,309.4922" style="stroke:#181818;stroke-width:1;"/><line style="stroke:#181818;stroke-width:1;stroke-dasharray:2,2;" x1="1201.9829" x2="1645.7021" y1="309.4922" y2="309.4922"/><text fill="#000000" font-family="sans-serif" font-size="13" font-weight="bold" lengthAdjust="spacing" textLength="9.0454" x="1213.9829" y="304.4263">5</text><text fill="#000000" font-family="sans-serif" font-size="13" lengthAdjust="spacing" textLength="89.7432" x="1227.0283" y="304.4263">airport record</text></g><g class="message" data-entity-1="part5" data-entity-2="part3" id="msg6"><polygon fill="#181818" points="846.8516,334.625,836.8516,338.625,846.8516,342.625,842.8516,338.625" style="stroke:#181818;stroke-width:1;"/><line style="stroke:#181818;stroke-width:1;stroke-dasharray:2,2;" x1="840.8516" x2="1190.9829" y1="338.625" y2="338.625"/><text fill="#000000" font-family="sans-serif" font-size="13" font-weight="bold" lengthAdjust="spacing" textLength="9.0454" x="852.8516" y="333.5591">6</text><text fill="#000000" font-family="sans-serif" font-size="13" lengthAdjust="spacing" textLength="44.4971" x="865.897" y="333.5591">Airport</text></g><g class="message" data-entity-1="part3" data-entity-2="part4" id="msg7"><polygon fill="#181818" points="967.2793,363.7578,977.2793,367.7578,967.2793,371.7578,971.2793,367.7578" style="stroke:#181818;stroke-width:1;"/><line style="stroke:#181818;stroke-width:1;" x1="835.8516" x2="973.2793" y1="367.7578" y2="367.7578"/><text fill="#000000" font-family="sans-serif" font-size="13" font-weight="bold" lengthAdjust="spacing" textLength="9.0454" x="842.8516" y="362.6919">7</text><text fill="#000000" font-family="sans-serif" font-size="13" lengthAdjust="spacing" textLength="111.3823" x="855.897" y="362.6919">setStatus(status)</text></g><g class="message" data-entity-1="part4" data-entity-2="part3" id="msg8"><polygon fill="#181818" points="846.8516,392.8906,836.8516,396.8906,846.8516,400.8906,842.8516,396.8906" style="stroke:#181818;stroke-width:1;"/><line style="stroke:#181818;stroke-width:1;stroke-dasharray:2,2;" x1="840.8516" x2="983.2793" y1="396.8906" y2="396.8906"/><text fill="#000000" font-family="sans-serif" font-size="13" font-weight="bold" lengthAdjust="spacing" textLength="9.0454" x="852.8516" y="391.8247">8</text><text fill="#000000" font-family="sans-serif" font-size="13" lengthAdjust="spacing" textLength="4.1323" x="865.897" y="391.8247">&#160;</text></g><g class="message" data-entity-1="part3" data-entity-2="part5" id="msg9"><polygon fill="#181818" points="1174.9829,422.0234,1184.9829,426.0234,1174.9829,430.0234,1178.9829,426.0234" style="stroke:#181818;stroke-width:1;"/><line style="stroke:#181818;stroke-width:1;" x1="835.8516" x2="1180.9829" y1="426.0234" y2="426.0234"/><text fill="#000000" font-family="sans-serif" font-size="13" font-weight="bold" lengthAdjust="spacing" textLength="9.0454" x="842.8516" y="420.9575">9</text><text fill="#000000" font-family="sans-serif" font-size="13" lengthAdjust="spacing" textLength="84.1445" x="855.897" y="420.9575">save(airport)</text></g><g class="message" data-entity-1="part5" data-entity-2="part6" id="msg10"><polygon fill="#181818" points="1629.7021,451.1563,1639.7021,455.1563,1629.7021,459.1563,1633.7021,455.1563" style="stroke:#181818;stroke-width:1;"/><line style="stroke:#181818;stroke-width:1;" x1="1196.9829" x2="1635.7021" y1="455.1563" y2="455.1563"/><text fill="#000000" font-family="sans-serif" font-size="13" font-weight="bold" lengthAdjust="spacing" textLength="18.0908" x="1203.9829" y="450.0903">10</text><text fill="#000000" font-family="sans-serif" font-size="13" lengthAdjust="spacing" textLength="403.6284" x="1226.0737" y="450.0903">UPDATE airport SET status = ? WHERE id = ? AND version = ?</text></g><path d="M10,470.1563 L74.4429,470.1563 L74.4429,477.2891 L64.4429,487.2891 L10,487.2891 L10,470.1563" fill="#EEEEEE" style="stroke:#000000;stroke-width:1.5;"/><rect fill="none" height="310.3984" style="stroke:#000000;stroke-width:1.5;" width="1683.1025" x="10" y="470.1563"/><text fill="#000000" font-family="sans-serif" font-size="13" font-weight="bold" lengthAdjust="spacing" textLength="19.4429" x="25" y="483.2231">alt</text><text fill="#000000" font-family="sans-serif" font-size="11" font-weight="bold" lengthAdjust="spacing" textLength="295.6948" x="89.4429" y="482.3667">[No concurrent modification (version matches)]</text><g class="message" data-entity-1="part6" data-entity-2="part5" id="msg11"><polygon fill="#181818" points="1207.9829,504.4219,1197.9829,508.4219,1207.9829,512.4219,1203.9829,508.4219" style="stroke:#181818;stroke-width:1;"/><line style="stroke:#181818;stroke-width:1;stroke-dasharray:2,2;" x1="1201.9829" x2="1645.7021" y1="508.4219" y2="508.4219"/><text fill="#000000" font-family="sans-serif" font-size="13" font-weight="bold" lengthAdjust="spacing" textLength="18.0908" x="1213.9829" y="503.356">11</text><text fill="#000000" font-family="sans-serif" font-size="13" lengthAdjust="spacing" textLength="248.8408" x="1236.0737" y="503.356">updated record (version incremented)</text></g><g class="message" data-entity-1="part5" data-entity-2="part3" id="msg12"><polygon fill="#181818" points="846.8516,533.5547,836.8516,537.5547,846.8516,541.5547,842.8516,537.5547" style="stroke:#181818;stroke-width:1;"/><line style="stroke:#181818;stroke-width:1;stroke-dasharray:2,2;" x1="840.8516" x2="1190.9829" y1="537.5547" y2="537.5547"/><text fill="#000000" font-family="sans-serif" font-size="13" font-weight="bold" lengthAdjust="spacing" textLength="18.0908" x="852.8516" y="532.4888">12</text><text fill="#000000" font-family="sans-serif" font-size="13" lengthAdjust="spacing" textLength="44.4971" x="874.9424" y="532.4888">Airport</text></g><g class="message" data-entity-1="part3" data-entity-2="part2" id="msg13"><polygon fill="#181818" points="573.8994,577.8203,563.8994,581.8203,573.8994,585.8203,569.8994,581.8203" style="stroke:#181818;stroke-width:1;"/><line style="stroke:#181818;stroke-width:1;stroke-dasharray:2,2;" x1="567.8994" x2="829.8516" y1="581.8203" y2="581.8203"/><text fill="#000000" font-family="sans-serif" font-size="13" font-weight="bold" lengthAdjust="spacing" textLength="18.0908" x="579.8994" y="569.188">13</text><text fill="#000000" font-family="sans-serif" font-size="13" lengthAdjust="spacing" textLength="195.9014" x="601.9902" y="561.6216">AirportResponse.from(airport)</text><text fill="#000000" font-family="sans-serif" font-size="13" lengthAdjust="spacing" textLength="216.8613" x="601.9902" y="576.7544">{ id, iataCode, name, status, ... }</text></g><g class="message" data-entity-1="part2" data-entity-2="part1" id="msg14"><polygon fill="#181818" points="103.8633,622.0859,93.8633,626.0859,103.8633,630.0859,99.8633,626.0859" style="stroke:#181818;stroke-width:1;"/><line style="stroke:#181818;stroke-width:1;stroke-dasharray:2,2;" x1="97.8633" x2="551.8994" y1="626.0859" y2="626.0859"/><text fill="#000000" font-family="sans-serif" font-size="13" font-weight="bold" lengthAdjust="spacing" textLength="18.0908" x="109.8633" y="613.4536">14</text><text fill="#000000" font-family="sans-serif" font-size="13" lengthAdjust="spacing" textLength="47.7026" x="131.9541" y="605.8872">200 OK</text><text fill="#000000" font-family="sans-serif" font-size="13" lengthAdjust="spacing" textLength="278.3955" x="131.9541" y="621.02">EntityModel&lt;AirportResponse&gt; with _links</text></g><line style="stroke:#000000;stroke-width:1;stroke-dasharray:2,2;" x1="10" x2="1693.1025" y1="635.0859" y2="635.0859"/><text fill="#000000" font-family="sans-serif" font-size="11" font-weight="bold" lengthAdjust="spacing" textLength="284.4263" x="15" y="645.2964">[Concurrent modification (version mismatch)]</text><g class="message" data-entity-1="part6" data-entity-2="part5" id="msg15"><polygon fill="#181818" points="1202.9829,666.0234,1192.9829,670.0234,1202.9829,674.0234,1198.9829,670.0234" style="stroke:#181818;stroke-width:1;"/><line style="stroke:#181818;stroke-width:1;stroke-dasharray:2,2;" x1="1196.9829" x2="1645.7021" y1="670.0234" y2="670.0234"/><text fill="#000000" font-family="sans-serif" font-size="13" font-weight="bold" lengthAdjust="spacing" textLength="18.0908" x="1208.9829" y="664.9575">15</text><text fill="#000000" font-family="sans-serif" font-size="13" lengthAdjust="spacing" textLength="100.8516" x="1231.0737" y="664.9575">0 rows affected</text></g><g class="message" data-entity-1="part5" data-entity-2="part3" id="msg16"><polygon fill="#181818" points="841.8516,695.1563,831.8516,699.1563,841.8516,703.1563,837.8516,699.1563" style="stroke:#181818;stroke-width:1;"/><line style="stroke:#181818;stroke-width:1;stroke-dasharray:2,2;" x1="835.8516" x2="1190.9829" y1="699.1563" y2="699.1563"/><text fill="#000000" font-family="sans-serif" font-size="13" font-weight="bold" lengthAdjust="spacing" textLength="18.0908" x="847.8516" y="694.0903">16</text><text fill="#000000" font-family="sans-serif" font-size="13" lengthAdjust="spacing" textLength="315.0405" x="869.9424" y="694.0903">throws ObjectOptimisticLockingFailureException</text></g><g class="message" data-entity-1="part3" data-entity-2="part2" id="msg17"><polygon fill="#181818" points="573.8994,724.2891,563.8994,728.2891,573.8994,732.2891,569.8994,728.2891" style="stroke:#181818;stroke-width:1;"/><line style="stroke:#181818;stroke-width:1;stroke-dasharray:2,2;" x1="567.8994" x2="829.8516" y1="728.2891" y2="728.2891"/><text fill="#000000" font-family="sans-serif" font-size="13" font-weight="bold" lengthAdjust="spacing" textLength="18.0908" x="579.8994" y="723.2231">17</text><text fill="#000000" font-family="sans-serif" font-size="13" lengthAdjust="spacing" textLength="141.978" x="601.9902" y="723.2231">exception propagates</text></g><g class="message" data-entity-1="part2" data-entity-2="part1" id="msg18"><polygon fill="#181818" points="103.8633,768.5547,93.8633,772.5547,103.8633,776.5547,99.8633,772.5547" style="stroke:#181818;stroke-width:1;"/><line style="stroke:#181818;stroke-width:1;stroke-dasharray:2,2;" x1="97.8633" x2="551.8994" y1="772.5547" y2="772.5547"/><text fill="#000000" font-family="sans-serif" font-size="13" font-weight="bold" lengthAdjust="spacing" textLength="18.0908" x="109.8633" y="759.9224">18</text><text fill="#000000" font-family="sans-serif" font-size="13" lengthAdjust="spacing" textLength="78.2603" x="131.9541" y="752.356">409 Conflict</text><text fill="#000000" font-family="sans-serif" font-size="13" lengthAdjust="spacing" textLength="377.311" x="131.9541" y="767.4888">{ message: "Concurrent update conflict &#8212; please retry" }</text></g><?plantuml-src XLJ9Rjim4BthAmOwEO0t5BtKQDFAie86TQp0Iti94D3Io6OZaIf9PK4Qe1_HB-oNT4Z9Msoq1nkqvysRUMyuP9MHeYgMg3oM6Ad07xBaJcOPJn3Y4XMZFtrW6eQnLp9bUC9B9Wpu0LUbL2QKmYYPvrYZGgFoGzoYJ9d11Zqpp5HweJ5a6bt28Zn9wsAHCDmydOnFiPIQKszF3cb_UbI7BOaN_55pSh7HqFE6CNJENNCmWEjW7dw67YjvZzLiklVCAIMKARxqjElnHZn3VHg07rz7qs1-6K-2iGy_mG_7yImQkUDYCegcjrV1vMGUJO996FdmOgtazwIwjiCJaewAhzO6P5R_1_3fAyjv2bB02OUc-AD2RGQ4wspR81eGLPwteQYqWIN2lQD06g0zLkYXI2qCFSzf9SsBa1JZ8oQLmTP6v01cHd6nQjy805NNwjPbMcS3E6ZbRAU6PkKH7x5Qluatuo8TFbqshFQpBR6NveRZCYXpDAIyMJIEmZbSJEChQ4O0tpv7qmWIIeKFy76NJUEZdCwkw2P1OI9LwgMu3wtBR7GtGlOnhfb6HNs_2AUn4TlIhpKtTx21ripxV4tyq1VDxh7LzFbF8nRNes0URINDedapRUj1OmbDsFu89YEuHwKvtPZN1daiDp2Hv9v8AgMG5gMGAQSbPiRYMvl4WfbaZQGFuD3Kojt1j35rby15eh0WGanjqg7P0AVjFi0vqM01dTqARhTObr9ex6PA5bl3xEhnj0sRgzG6mGhwhfrfGxVRfHqxA48pWPhR5g5j7y2RVX_YBpUY7j0LyUJlNvKzXmTkrd2RSt6dFSpfwGZ_wo3NpiHZ2_kWv8C6bcMOa5r7xfYrYyVBxnIFIyE9YjwriKpkQ1Kl6CyhXT5ZWgMjU6GPRY9GAbco5SdMHwBVzjzP2LdE4sDjB51hjg9zz_U4rREsbyNXuC-ltr3cQ5zEXSQ-g2_s8V7shxajynS0?></g></svg>