<svg xmlns="http://www.w3.org/2000/svg" xmlns:xlink="http://www.w3.org/1999/xlink" contentStyleType="text/css" data-diagram-type="SEQUENCE" height="514px" preserveAspectRatio="none" style="width:1097px;height:514px;background:#FFFFFF;" version="1.1" viewBox="0 0 1097 514" width="1097px" zoomAndPan="magnify"><defs/><g><g><title>AircraftController</title><rect fill="#FFFFFF" height="296.6191" style="stroke:#181818;stroke-width:1;" width="10" x="250.9741" y="116.9121"/></g><g><title>ViewAircraftDetailsUseCase</title><rect fill="#FFFFFF" height="234.0371" style="stroke:#181818;stroke-width:1;" width="10" x="415.0151" y="148.2031"/></g><g><title>AircraftRepository</title><rect fill="#FFFFFF" height="93.873" style="stroke:#181818;stroke-width:1;" width="10" x="679.9458" y="179.4941"/></g><g><title>Database</title><rect fill="#FFFFFF" height="31.291" style="stroke:#181818;stroke-width:1;" width="10" x="1057.9155" y="210.7852"/></g><rect fill="none" height="63.582" style="stroke:#000000;stroke-width:1.5;" width="340.5107" x="315.4878" y="288.3672"/><g><title>BO . ATCC</title><rect fill="#000000" fill-opacity="0.00000" height="347.9102" width="8" x="39.0034" y="83.6211"/><line style="stroke:#181818;stroke-width:0.5;stroke-dasharray:5,5;" x1="43" x2="43" y1="83.6211" y2="431.5313"/></g><g><title>AircraftController</title><rect fill="#000000" fill-opacity="0.00000" height="347.9102" width="8" x="251.9741" y="83.6211"/><line style="stroke:#181818;stroke-width:0.5;stroke-dasharray:5,5;" x1="255.4604" x2="255.4604" y1="83.6211" y2="431.5313"/></g><g><title>ViewAircraftDetailsUseCase</title><rect fill="#000000" fill-opacity="0.00000" height="347.9102" width="8" x="416.0151" y="83.6211"/><line style="stroke:#181818;stroke-width:0.5;stroke-dasharray:5,5;" x1="419.4878" x2="419.4878" y1="83.6211" y2="431.5313"/></g><g><title>AircraftRepository</title><rect fill="#000000" fill-opacity="0.00000" height="347.9102" width="8" x="680.9458" y="83.6211"/><line style="stroke:#181818;stroke-width:0.5;stroke-dasharray:5,5;" x1="684.3184" x2="684.3184" y1="83.6211" y2="431.5313"/></g><g><title>Database</title><rect fill="#000000" fill-opacity="0.00000" height="347.9102" width="8" x="1058.9155" y="83.6211"/><line style="stroke:#181818;stroke-width:0.5;stroke-dasharray:5,5;" x1="1061.9502" x2="1061.9502" y1="83.6211" y2="431.5313"/></g><g class="participant participant-head" data-participant="Actor"><text fill="#000000" font-family="sans-serif" font-size="14" lengthAdjust="spacing" textLength="70.0068" x="5" y="80.1074">BO / ATCC</text><ellipse cx="43.0034" cy="13.5" fill="#E2E2F0" rx="8" ry="8" style="stroke:#181818;stroke-width:0.5;"/><path d="M43.0034,21.5 L43.0034,48.5 M30.0034,29.5 L56.0034,29.5 M43.0034,48.5 L30.0034,63.5 M43.0034,48.5 L56.0034,63.5" fill="none" style="stroke:#181818;stroke-width:0.5;"/></g><g class="participant participant-tail" data-participant="Actor"><text fill="#000000" font-family="sans-serif" font-size="14" lengthAdjust="spacing" textLength="70.0068" x="5" y="445.6387">BO / ATCC</text><ellipse cx="43.0034" cy="457.6523" fill="#E2E2F0" rx="8" ry="8" style="stroke:#181818;stroke-width:0.5;"/><path d="M43.0034,465.6523 L43.0034,492.6523 M30.0034,473.6523 L56.0034,473.6523 M43.0034,492.6523 L30.0034,507.6523 M43.0034,492.6523 L56.0034,507.6523" fill="none" style="stroke:#181818;stroke-width:0.5;"/></g><g class="participant participant-head" data-participant="Ctrl"><rect fill="#E2E2F0" height="32.6211" rx="2.5" ry="2.5" style="stroke:#181818;stroke-width:0.5;" width="119.0273" x="196.4604" y="50"/><text fill="#000000" font-family="sans-serif" font-size="14" lengthAdjust="spacing" textLength="105.0273" x="203.4604" y="72.1074">AircraftController</text></g><g class="participant participant-tail" data-participant="Ctrl"><rect fill="#E2E2F0" height="32.6211" rx="2.5" ry="2.5" style="stroke:#181818;stroke-width:0.5;" width="119.0273" x="196.4604" y="430.5313"/><text fill="#000000" font-family="sans-serif" font-size="14" lengthAdjust="spacing" textLength="105.0273" x="203.4604" y="452.6387">AircraftController</text></g><g class="participant participant-head" data-participant="UC"><rect fill="#E2E2F0" height="32.6211" rx="2.5" ry="2.5" style="stroke:#181818;stroke-width:0.5;" width="189.0547" x="325.4878" y="50"/><text fill="#000000" font-family="sans-serif" font-size="14" lengthAdjust="spacing" textLength="175.0547" x="332.4878" y="72.1074">ViewAircraftDetailsUseCase</text></g><g class="participant participant-tail" data-participant="UC"><rect fill="#E2E2F0" height="32.6211" rx="2.5" ry="2.5" style="stroke:#181818;stroke-width:0.5;" width="189.0547" x="325.4878" y="430.5313"/><text fill="#000000" font-family="sans-serif" font-size="14" lengthAdjust="spacing" textLength="175.0547" x="332.4878" y="452.6387">ViewAircraftDetailsUseCase</text></g><g class="participant participant-head" data-participant="Repo"><rect fill="#E2E2F0" height="32.6211" rx="2.5" ry="2.5" style="stroke:#181818;stroke-width:0.5;" width="125.2549" x="622.3184" y="50"/><text fill="#000000" font-family="sans-serif" font-size="14" lengthAdjust="spacing" textLength="111.2549" x="629.3184" y="72.1074">AircraftRepository</text></g><g class="participant participant-tail" data-participant="Repo"><rect fill="#E2E2F0" height="32.6211" rx="2.5" ry="2.5" style="stroke:#181818;stroke-width:0.5;" width="125.2549" x="622.3184" y="430.5313"/><text fill="#000000" font-family="sans-serif" font-size="14" lengthAdjust="spacing" textLength="111.2549" x="629.3184" y="452.6387">AircraftRepository</text></g><g class="participant participant-head" data-participant="DB"><text fill="#000000" font-family="sans-serif" font-size="14" lengthAdjust="spacing" textLength="59.9307" x="1029.9502" y="80.1074">Database</text><path d="M1044.9155,29 C1044.9155,19 1062.9155,19 1062.9155,19 C1062.9155,19 1080.9155,19 1080.9155,29 L1080.9155,55 C1080.9155,65 1062.9155,65 1062.9155,65 C1062.9155,65 1044.9155,65 1044.9155,55 L1044.9155,29" fill="#E2E2F0" style="stroke:#181818;stroke-width:0.5;"/><path d="M1044.9155,29 C1044.9155,39 1062.9155,39 1062.9155,39 C1062.9155,39 1080.9155,39 1080.9155,29" fill="none" style="stroke:#181818;stroke-width:0.5;"/></g><g class="participant participant-tail" data-participant="DB"><text fill="#000000" font-family="sans-serif" font-size="14" lengthAdjust="spacing" textLength="59.9307" x="1029.9502" y="445.6387">Database</text><path d="M1044.9155,459.1523 C1044.9155,449.1523 1062.9155,449.1523 1062.9155,449.1523 C1062.9155,449.1523 1080.9155,449.1523 1080.9155,459.1523 L1080.9155,485.1523 C1080.9155,495.1523 1062.9155,495.1523 1062.9155,495.1523 C1062.9155,495.1523 1044.9155,495.1523 1044.9155,485.1523 L1044.9155,459.1523" fill="#E2E2F0" style="stroke:#181818;stroke-width:0.5;"/><path d="M1044.9155,459.1523 C1044.9155,469.1523 1062.9155,469.1523 1062.9155,469.1523 C1062.9155,469.1523 1080.9155,469.1523 1080.9155,459.1523" fill="none" style="stroke:#181818;stroke-width:0.5;"/></g><g><title>AircraftController</title><rect fill="#FFFFFF" height="296.6191" style="stroke:#181818;stroke-width:1;" width="10" x="250.9741" y="116.9121"/></g><g><title>ViewAircraftDetailsUseCase</title><rect fill="#FFFFFF" height="234.0371" style="stroke:#181818;stroke-width:1;" width="10" x="415.0151" y="148.2031"/></g><g><title>AircraftRepository</title><rect fill="#FFFFFF" height="93.873" style="stroke:#181818;stroke-width:1;" width="10" x="679.9458" y="179.4941"/></g><g><title>Database</title><rect fill="#FFFFFF" height="31.291" style="stroke:#181818;stroke-width:1;" width="10" x="1057.9155" y="210.7852"/></g><g class="message" data-participant-1="Actor" data-participant-2="Ctrl"><polygon fill="#181818" points="238.9741,112.9121,248.9741,116.9121,238.9741,120.9121,242.9741,116.9121" style="stroke:#181818;stroke-width:1;"/><line style="stroke:#181818;stroke-width:1;" x1="43.0034" x2="244.9741" y1="116.9121" y2="116.9121"/><text fill="#000000" font-family="sans-serif" font-size="13" font-weight="bold" lengthAdjust="spacing" textLength="7.23" x="50.0034" y="111.6494">1</text><text fill="#000000" font-family="sans-serif" font-size="13" lengthAdjust="spacing" textLength="177.7407" x="61.2334" y="111.6494">GET /api/aircrafts/{registration}</text></g><g class="message" data-participant-1="Ctrl" data-participant-2="UC"><polygon fill="#181818" points="403.0151,144.2031,413.0151,148.2031,403.0151,152.2031,407.0151,148.2031" style="stroke:#181818;stroke-width:1;"/><line style="stroke:#181818;stroke-width:1;" x1="260.9741" x2="409.0151" y1="148.2031" y2="148.2031"/><text fill="#000000" font-family="sans-serif" font-size="13" font-weight="bold" lengthAdjust="spacing" textLength="7.23" x="267.9741" y="142.9404">2</text><text fill="#000000" font-family="sans-serif" font-size="13" lengthAdjust="spacing" textLength="118.498" x="279.2041" y="142.9404">execute(registration)</text></g><g class="message" data-participant-1="UC" data-participant-2="Repo"><polygon fill="#181818" points="667.9458,175.4941,677.9458,179.4941,667.9458,183.4941,671.9458,179.4941" style="stroke:#181818;stroke-width:1;"/><line style="stroke:#181818;stroke-width:1;" x1="425.0151" x2="673.9458" y1="179.4941" y2="179.4941"/><text fill="#000000" font-family="sans-serif" font-size="13" font-weight="bold" lengthAdjust="spacing" textLength="7.23" x="432.0151" y="174.2314">3</text><text fill="#000000" font-family="sans-serif" font-size="13" lengthAdjust="spacing" textLength="224.7007" x="443.2451" y="174.2314">findByRegistrationNumber(registration)</text></g><g class="message" data-participant-1="Repo" data-participant-2="DB"><polygon fill="#181818" points="1045.9155,206.7852,1055.9155,210.7852,1045.9155,214.7852,1049.9155,210.7852" style="stroke:#181818;stroke-width:1;"/><line style="stroke:#181818;stroke-width:1;" x1="689.9458" x2="1051.9155" y1="210.7852" y2="210.7852"/><text fill="#000000" font-family="sans-serif" font-size="13" font-weight="bold" lengthAdjust="spacing" textLength="7.23" x="696.9458" y="205.5225">4</text><text fill="#000000" font-family="sans-serif" font-size="13" lengthAdjust="spacing" textLength="337.7397" x="708.1758" y="205.5225">SELECT * FROM aircraft WHERE registration_number = ?</text></g><g class="message" data-participant-1="DB" data-participant-2="Repo"><polygon fill="#181818" points="700.9458,238.0762,690.9458,242.0762,700.9458,246.0762,696.9458,242.0762" style="stroke:#181818;stroke-width:1;"/><line style="stroke:#181818;stroke-width:1;stroke-dasharray:2,2;" x1="694.9458" x2="1061.9155" y1="242.0762" y2="242.0762"/><text fill="#000000" font-family="sans-serif" font-size="13" font-weight="bold" lengthAdjust="spacing" textLength="7.23" x="706.9458" y="236.8135">5</text><text fill="#000000" font-family="sans-serif" font-size="13" lengthAdjust="spacing" textLength="65.7617" x="718.1758" y="236.8135">record data</text></g><g class="message" data-participant-1="Repo" data-participant-2="UC"><polygon fill="#181818" points="436.0151,269.3672,426.0151,273.3672,436.0151,277.3672,432.0151,273.3672" style="stroke:#181818;stroke-width:1;"/><line style="stroke:#181818;stroke-width:1;stroke-dasharray:2,2;" x1="430.0151" x2="683.9458" y1="273.3672" y2="273.3672"/><text fill="#000000" font-family="sans-serif" font-size="13" font-weight="bold" lengthAdjust="spacing" textLength="7.23" x="442.0151" y="268.1045">6</text><text fill="#000000" font-family="sans-serif" font-size="13" lengthAdjust="spacing" textLength="104.7744" x="453.2451" y="268.1045">Optional&lt;Aircraft&gt;</text></g><path d="M315.4878,288.3672 L375.6587,288.3672 L375.6587,297.6582 L365.6587,307.6582 L315.4878,307.6582 L315.4878,288.3672" fill="#EEEEEE" style="stroke:#000000;stroke-width:1.5;"/><rect fill="none" height="63.582" style="stroke:#000000;stroke-width:1.5;" width="340.5107" x="315.4878" y="288.3672"/><text fill="#000000" font-family="sans-serif" font-size="13" font-weight="bold" lengthAdjust="spacing" textLength="15.1709" x="330.4878" y="303.3955">alt</text><text fill="#000000" font-family="sans-serif" font-size="11" font-weight="bold" lengthAdjust="spacing" textLength="108.1523" x="390.6587" y="302.2373">[if aircraft not found]</text><g class="message" data-participant-1="UC" data-participant-2="UC"><line style="stroke:#181818;stroke-width:1;" x1="425.0151" x2="467.0151" y1="330.9492" y2="330.9492"/><line style="stroke:#181818;stroke-width:1;" x1="467.0151" x2="467.0151" y1="330.9492" y2="343.9492"/><line style="stroke:#181818;stroke-width:1;" x1="426.0151" x2="467.0151" y1="343.9492" y2="343.9492"/><polygon fill="#181818" points="436.0151,339.9492,426.0151,343.9492,436.0151,347.9492,432.0151,343.9492" style="stroke:#181818;stroke-width:1;"/><text fill="#000000" font-family="sans-serif" font-size="13" font-weight="bold" lengthAdjust="spacing" textLength="7.23" x="432.0151" y="325.6865">7</text><text fill="#000000" font-family="sans-serif" font-size="13" lengthAdjust="spacing" textLength="190.7534" x="443.2451" y="325.6865">throw AircraftNotFoundException</text></g><g class="message" data-participant-1="UC" data-participant-2="Ctrl"><polygon fill="#181818" points="271.9741,378.2402,261.9741,382.2402,271.9741,386.2402,267.9741,382.2402" style="stroke:#181818;stroke-width:1;"/><line style="stroke:#181818;stroke-width:1;stroke-dasharray:2,2;" x1="265.9741" x2="419.0151" y1="382.2402" y2="382.2402"/><text fill="#000000" font-family="sans-serif" font-size="13" font-weight="bold" lengthAdjust="spacing" textLength="7.23" x="277.9741" y="376.9775">8</text><text fill="#000000" font-family="sans-serif" font-size="13" lengthAdjust="spacing" textLength="39.73" x="289.2041" y="376.9775">aircraft</text></g><g class="message" data-participant-1="Ctrl" data-participant-2="Actor"><polygon fill="#181818" points="54.0034,409.5313,44.0034,413.5313,54.0034,417.5313,50.0034,413.5313" style="stroke:#181818;stroke-width:1;"/><line style="stroke:#181818;stroke-width:1;stroke-dasharray:2,2;" x1="48.0034" x2="254.9741" y1="413.5313" y2="413.5313"/><text fill="#000000" font-family="sans-serif" font-size="13" font-weight="bold" lengthAdjust="spacing" textLength="7.23" x="60.0034" y="408.2686">9</text><text fill="#000000" font-family="sans-serif" font-size="13" lengthAdjust="spacing" textLength="91.0254" x="71.2334" y="408.2686">200 OK (JSON)</text></g><!--SRC=[TP5RJuD048NVzrTCU6fD6XeV6wqfbsgybAGNVJHJ67GJPCaos3R6_-xkKW8coXCitpbpzWmshChcOqzQOCfAWnSauCDY6uOUO0qBUoWgr2nJMM79u2saJZNc7AgIjIeAqeuCMHU_mMT9XmwEY54MzQwc46joWbtuj- -QAbLBC_RaCFifCcJS6o5uqVdD_Oi28Ln2cCnT09Z1RRm57olfuzclzhyqlScQDR9KvRUzgFn4fZQoS3gZtuL6JKTA6wRHK37k5IQpC9oXRIp3vxBCWjDwGAzSc_yPkDiuhV680kEmYH_ZS0iNi5mdJz25XfUxU1t3qEMrtHDSmqtlPnemBfC-aAPKwGniOIAZ8TTExIwQLDOJYwkkzlaGTp455WmoxpELYY5NJPa9C4_RWpFZTwqEq3cj52yj5HzJSbC46OdhhLzJPpgSQjjjjs6uTgypk9nE8Nc0qVqcMOs7j2L_0000]--></g></svg>