<?plantuml 1.2026.1?><svg xmlns="http://www.w3.org/2000/svg" xmlns:xlink="http://www.w3.org/1999/xlink" contentStyleType="text/css" data-diagram-type="SEQUENCE" height="488px" preserveAspectRatio="none" style="width:1218px;height:488px;background:#FFFFFF;" version="1.1" viewBox="0 0 1218 488" width="1218px" zoomAndPan="magnify"><defs/><g><g><title>AircraftController</title><rect fill="#FFFFFF" height="277.1953" style="stroke:#181818;stroke-width:1;" width="10" x="284.9961" y="112.4297"/></g><g><title>ViewAircraftDetailsUseCase</title><rect fill="#FFFFFF" height="218.9297" style="stroke:#181818;stroke-width:1;" width="10" x="466.4961" y="141.5625"/></g><g><title>AircraftRepository</title><rect fill="#FFFFFF" height="87.3984" style="stroke:#181818;stroke-width:1;" width="10" x="766.4658" y="170.6953"/></g><g><title>Database</title><rect fill="#FFFFFF" height="29.1328" style="stroke:#181818;stroke-width:1;" width="10" x="1176.3008" y="199.8281"/></g><rect fill="none" height="59.2656" style="stroke:#000000;stroke-width:1.5;" width="377.6475" x="357.4189" y="273.0938"/><g class="participant-lifeline" data-entity-uid="part1" data-qualified-name="Actor" id="part1-lifeline"><g><title>BO . ATCC</title><rect fill="#000000" fill-opacity="0.00000" height="326.3281" width="8" x="39.9604" y="81.2969"/><line style="stroke:#181818;stroke-width:0.5;stroke-dasharray:5,5;" x1="43" x2="43" y1="81.2969" y2="407.625"/></g></g><g class="participant-lifeline" data-entity-uid="part2" data-qualified-name="Ctrl" id="part2-lifeline"><g><title>AircraftController</title><rect fill="#000000" fill-opacity="0.00000" height="326.3281" width="8" x="285.9961" y="81.2969"/><line style="stroke:#181818;stroke-width:0.5;stroke-dasharray:5,5;" x1="289.5732" x2="289.5732" y1="81.2969" y2="407.625"/></g></g><g class="participant-lifeline" data-entity-uid="part3" data-qualified-name="UC" id="part3-lifeline"><g><title>ViewAircraftDetailsUseCase</title><rect fill="#000000" fill-opacity="0.00000" height="326.3281" width="8" x="467.4961" y="81.2969"/><line style="stroke:#181818;stroke-width:0.5;stroke-dasharray:5,5;" x1="471.4189" x2="471.4189" y1="81.2969" y2="407.625"/></g></g><g class="participant-lifeline" data-entity-uid="part4" data-qualified-name="Repo" id="part4-lifeline"><g><title>AircraftRepository</title><rect fill="#000000" fill-opacity="0.00000" height="326.3281" width="8" x="767.4658" y="81.2969"/><line style="stroke:#181818;stroke-width:0.5;stroke-dasharray:5,5;" x1="771.0933" x2="771.0933" y1="81.2969" y2="407.625"/></g></g><g class="participant-lifeline" data-entity-uid="part5" data-qualified-name="DB" id="part5-lifeline"><g><title>Database</title><rect fill="#000000" fill-opacity="0.00000" height="326.3281" width="8" x="1177.3008" y="81.2969"/><line style="stroke:#181818;stroke-width:0.5;stroke-dasharray:5,5;" x1="1180.9004" x2="1180.9004" y1="81.2969" y2="407.625"/></g></g><g class="participant participant-head" data-entity-uid="part1" data-qualified-name="Actor" id="part1-head"><text fill="#000000" font-family="sans-serif" font-size="14" lengthAdjust="spacing" textLength="71.9209" x="5" y="77.9951">BO / ATCC</text><ellipse cx="43.9604" cy="13.5" fill="#E2E2F0" rx="8" ry="8" style="stroke:#181818;stroke-width:0.5;"/><path d="M43.9604,21.5 L43.9604,48.5 M30.9604,29.5 L56.9604,29.5 M43.9604,48.5 L30.9604,63.5 M43.9604,48.5 L56.9604,63.5" fill="none" style="stroke:#181818;stroke-width:0.5;"/></g><g class="participant participant-tail" data-entity-uid="part1" data-qualified-name="Actor" id="part1-tail"><text fill="#000000" font-family="sans-serif" font-size="14" lengthAdjust="spacing" textLength="71.9209" x="5" y="419.6201">BO / ATCC</text><ellipse cx="43.9604" cy="431.4219" fill="#E2E2F0" rx="8" ry="8" style="stroke:#181818;stroke-width:0.5;"/><path d="M43.9604,439.4219 L43.9604,466.4219 M30.9604,447.4219 L56.9604,447.4219 M43.9604,466.4219 L30.9604,481.4219 M43.9604,466.4219 L56.9604,481.4219" fill="none" style="stroke:#181818;stroke-width:0.5;"/></g><g class="participant participant-head" data-entity-uid="part2" data-qualified-name="Ctrl" id="part2-head"><rect fill="#E2E2F0" height="30.2969" rx="2.5" ry="2.5" style="stroke:#181818;stroke-width:0.5;" width="134.8457" x="222.5732" y="50"/><text fill="#000000" font-family="sans-serif" font-size="14" lengthAdjust="spacing" textLength="120.8457" x="229.5732" y="69.9951">AircraftController</text></g><g class="participant participant-tail" data-entity-uid="part2" data-qualified-name="Ctrl" id="part2-tail"><rect fill="#E2E2F0" height="30.2969" rx="2.5" ry="2.5" style="stroke:#181818;stroke-width:0.5;" width="134.8457" x="222.5732" y="406.625"/><text fill="#000000" font-family="sans-serif" font-size="14" lengthAdjust="spacing" textLength="120.8457" x="229.5732" y="426.6201">AircraftController</text></g><g class="participant participant-head" data-entity-uid="part3" data-qualified-name="UC" id="part3-head"><rect fill="#E2E2F0" height="30.2969" rx="2.5" ry="2.5" style="stroke:#181818;stroke-width:0.5;" width="208.1543" x="367.4189" y="50"/><text fill="#000000" font-family="sans-serif" font-size="14" lengthAdjust="spacing" textLength="194.1543" x="374.4189" y="69.9951">ViewAircraftDetailsUseCase</text></g><g class="participant participant-tail" data-entity-uid="part3" data-qualified-name="UC" id="part3-tail"><rect fill="#E2E2F0" height="30.2969" rx="2.5" ry="2.5" style="stroke:#181818;stroke-width:0.5;" width="208.1543" x="367.4189" y="406.625"/><text fill="#000000" font-family="sans-serif" font-size="14" lengthAdjust="spacing" textLength="194.1543" x="374.4189" y="426.6201">ViewAircraftDetailsUseCase</text></g><g class="participant participant-head" data-entity-uid="part4" data-qualified-name="Repo" id="part4-head"><rect fill="#E2E2F0" height="30.2969" rx="2.5" ry="2.5" style="stroke:#181818;stroke-width:0.5;" width="140.7451" x="701.0933" y="50"/><text fill="#000000" font-family="sans-serif" font-size="14" lengthAdjust="spacing" textLength="126.7451" x="708.0933" y="69.9951">AircraftRepository</text></g><g class="participant participant-tail" data-entity-uid="part4" data-qualified-name="Repo" id="part4-tail"><rect fill="#E2E2F0" height="30.2969" rx="2.5" ry="2.5" style="stroke:#181818;stroke-width:0.5;" width="140.7451" x="701.0933" y="406.625"/><text fill="#000000" font-family="sans-serif" font-size="14" lengthAdjust="spacing" textLength="126.7451" x="708.0933" y="426.6201">AircraftRepository</text></g><g class="participant participant-head" data-entity-uid="part5" data-qualified-name="DB" id="part5-head"><text fill="#000000" font-family="sans-serif" font-size="14" lengthAdjust="spacing" textLength="66.8008" x="1144.9004" y="77.9951">Database</text><path d="M1163.3008,29 C1163.3008,19 1181.3008,19 1181.3008,19 C1181.3008,19 1199.3008,19 1199.3008,29 L1199.3008,55 C1199.3008,65 1181.3008,65 1181.3008,65 C1181.3008,65 1163.3008,65 1163.3008,55 L1163.3008,29" fill="#E2E2F0" style="stroke:#181818;stroke-width:0.5;"/><path d="M1163.3008,29 C1163.3008,39 1181.3008,39 1181.3008,39 C1181.3008,39 1199.3008,39 1199.3008,29" fill="none" style="stroke:#181818;stroke-width:0.5;"/></g><g class="participant participant-tail" data-entity-uid="part5" data-qualified-name="DB" id="part5-tail"><text fill="#000000" font-family="sans-serif" font-size="14" lengthAdjust="spacing" textLength="66.8008" x="1144.9004" y="419.6201">Database</text><path d="M1163.3008,432.9219 C1163.3008,422.9219 1181.3008,422.9219 1181.3008,422.9219 C1181.3008,422.9219 1199.3008,422.9219 1199.3008,432.9219 L1199.3008,458.9219 C1199.3008,468.9219 1181.3008,468.9219 1181.3008,468.9219 C1181.3008,468.9219 1163.3008,468.9219 1163.3008,458.9219 L1163.3008,432.9219" fill="#E2E2F0" style="stroke:#181818;stroke-width:0.5;"/><path d="M1163.3008,432.9219 C1163.3008,442.9219 1181.3008,442.9219 1181.3008,442.9219 C1181.3008,442.9219 1199.3008,442.9219 1199.3008,432.9219" fill="none" style="stroke:#181818;stroke-width:0.5;"/></g><g><title>AircraftController</title><rect fill="#FFFFFF" height="277.1953" style="stroke:#181818;stroke-width:1;" width="10" x="284.9961" y="112.4297"/></g><g><title>ViewAircraftDetailsUseCase</title><rect fill="#FFFFFF" height="218.9297" style="stroke:#181818;stroke-width:1;" width="10" x="466.4961" y="141.5625"/></g><g><title>AircraftRepository</title><rect fill="#FFFFFF" height="87.3984" style="stroke:#181818;stroke-width:1;" width="10" x="766.4658" y="170.6953"/></g><g><title>Database</title><rect fill="#FFFFFF" height="29.1328" style="stroke:#181818;stroke-width:1;" width="10" x="1176.3008" y="199.8281"/></g><g class="message" data-entity-1="part1" data-entity-2="part2" id="msg1"><polygon fill="#181818" points="272.9961,108.4297,282.9961,112.4297,272.9961,116.4297,276.9961,112.4297" style="stroke:#181818;stroke-width:1;"/><line style="stroke:#181818;stroke-width:1;" x1="43.9604" x2="278.9961" y1="112.4297" y2="112.4297"/><text fill="#000000" font-family="sans-serif" font-size="13" font-weight="bold" lengthAdjust="spacing" textLength="9.0454" x="50.9604" y="107.3638">1</text><text fill="#000000" font-family="sans-serif" font-size="13" lengthAdjust="spacing" textLength="208.9902" x="64.0059" y="107.3638">GET /api/aircrafts/{registration}</text></g><g class="message" data-entity-1="part2" data-entity-2="part3" id="msg2"><polygon fill="#181818" points="454.4961,137.5625,464.4961,141.5625,454.4961,145.5625,458.4961,141.5625" style="stroke:#181818;stroke-width:1;"/><line style="stroke:#181818;stroke-width:1;" x1="294.9961" x2="460.4961" y1="141.5625" y2="141.5625"/><text fill="#000000" font-family="sans-serif" font-size="13" font-weight="bold" lengthAdjust="spacing" textLength="9.0454" x="301.9961" y="136.4966">2</text><text fill="#000000" font-family="sans-serif" font-size="13" lengthAdjust="spacing" textLength="137.6045" x="315.0415" y="136.4966">execute(registration)</text></g><g class="message" data-entity-1="part3" data-entity-2="part4" id="msg3"><polygon fill="#181818" points="754.4658,166.6953,764.4658,170.6953,754.4658,174.6953,758.4658,170.6953" style="stroke:#181818;stroke-width:1;"/><line style="stroke:#181818;stroke-width:1;" x1="476.4961" x2="760.4658" y1="170.6953" y2="170.6953"/><text fill="#000000" font-family="sans-serif" font-size="13" font-weight="bold" lengthAdjust="spacing" textLength="9.0454" x="483.4961" y="165.6294">3</text><text fill="#000000" font-family="sans-serif" font-size="13" lengthAdjust="spacing" textLength="257.9243" x="496.5415" y="165.6294">findByRegistrationNumber(registration)</text></g><g class="message" data-entity-1="part4" data-entity-2="part5" id="msg4"><polygon fill="#181818" points="1164.3008,195.8281,1174.3008,199.8281,1164.3008,203.8281,1168.3008,199.8281" style="stroke:#181818;stroke-width:1;"/><line style="stroke:#181818;stroke-width:1;" x1="776.4658" x2="1170.3008" y1="199.8281" y2="199.8281"/><text fill="#000000" font-family="sans-serif" font-size="13" font-weight="bold" lengthAdjust="spacing" textLength="9.0454" x="783.4658" y="194.7622">4</text><text fill="#000000" font-family="sans-serif" font-size="13" lengthAdjust="spacing" textLength="367.7896" x="796.5112" y="194.7622">SELECT * FROM aircraft WHERE registration_number = ?</text></g><g class="message" data-entity-1="part5" data-entity-2="part4" id="msg5"><polygon fill="#181818" points="787.4658,224.9609,777.4658,228.9609,787.4658,232.9609,783.4658,228.9609" style="stroke:#181818;stroke-width:1;"/><line style="stroke:#181818;stroke-width:1;stroke-dasharray:2,2;" x1="781.4658" x2="1180.3008" y1="228.9609" y2="228.9609"/><text fill="#000000" font-family="sans-serif" font-size="13" font-weight="bold" lengthAdjust="spacing" textLength="9.0454" x="793.4658" y="223.895">5</text><text fill="#000000" font-family="sans-serif" font-size="13" lengthAdjust="spacing" textLength="75.4546" x="806.5112" y="223.895">record data</text></g><g class="message" data-entity-1="part4" data-entity-2="part3" id="msg6"><polygon fill="#181818" points="487.4961,254.0938,477.4961,258.0938,487.4961,262.0938,483.4961,258.0938" style="stroke:#181818;stroke-width:1;"/><line style="stroke:#181818;stroke-width:1;stroke-dasharray:2,2;" x1="481.4961" x2="770.4658" y1="258.0938" y2="258.0938"/><text fill="#000000" font-family="sans-serif" font-size="13" font-weight="bold" lengthAdjust="spacing" textLength="9.0454" x="493.4961" y="253.0278">6</text><text fill="#000000" font-family="sans-serif" font-size="13" lengthAdjust="spacing" textLength="124.7314" x="506.5415" y="253.0278">Optional&lt;Aircraft&gt;</text></g><path d="M357.4189,273.0938 L421.8618,273.0938 L421.8618,280.2266 L411.8618,290.2266 L357.4189,290.2266 L357.4189,273.0938" fill="#EEEEEE" style="stroke:#000000;stroke-width:1.5;"/><rect fill="none" height="59.2656" style="stroke:#000000;stroke-width:1.5;" width="377.6475" x="357.4189" y="273.0938"/><text fill="#000000" font-family="sans-serif" font-size="13" font-weight="bold" lengthAdjust="spacing" textLength="19.4429" x="372.4189" y="286.1606">alt</text><text fill="#000000" font-family="sans-serif" font-size="11" font-weight="bold" lengthAdjust="spacing" textLength="132.6553" x="436.8618" y="285.3042">[if aircraft not found]</text><g class="message" data-entity-1="part3" data-entity-2="part3" id="msg7"><line style="stroke:#181818;stroke-width:1;" x1="476.4961" x2="518.4961" y1="311.3594" y2="311.3594"/><line style="stroke:#181818;stroke-width:1;" x1="518.4961" x2="518.4961" y1="311.3594" y2="324.3594"/><line style="stroke:#181818;stroke-width:1;" x1="477.4961" x2="518.4961" y1="324.3594" y2="324.3594"/><polygon fill="#181818" points="487.4961,320.3594,477.4961,324.3594,487.4961,328.3594,483.4961,324.3594" style="stroke:#181818;stroke-width:1;"/><text fill="#000000" font-family="sans-serif" font-size="13" font-weight="bold" lengthAdjust="spacing" textLength="9.0454" x="483.4961" y="306.2935">7</text><text fill="#000000" font-family="sans-serif" font-size="13" lengthAdjust="spacing" textLength="216.5249" x="496.5415" y="306.2935">throw AircraftNotFoundException</text></g><g class="message" data-entity-1="part3" data-entity-2="part2" id="msg8"><polygon fill="#181818" points="305.9961,356.4922,295.9961,360.4922,305.9961,364.4922,301.9961,360.4922" style="stroke:#181818;stroke-width:1;"/><line style="stroke:#181818;stroke-width:1;stroke-dasharray:2,2;" x1="299.9961" x2="470.4961" y1="360.4922" y2="360.4922"/><text fill="#000000" font-family="sans-serif" font-size="13" font-weight="bold" lengthAdjust="spacing" textLength="9.0454" x="311.9961" y="355.4263">8</text><text fill="#000000" font-family="sans-serif" font-size="13" lengthAdjust="spacing" textLength="47.0552" x="325.0415" y="355.4263">aircraft</text></g><g class="message" data-entity-1="part2" data-entity-2="part1" id="msg9"><polygon fill="#181818" points="54.9604,385.625,44.9604,389.625,54.9604,393.625,50.9604,389.625" style="stroke:#181818;stroke-width:1;"/><line style="stroke:#181818;stroke-width:1;stroke-dasharray:2,2;" x1="48.9604" x2="288.9961" y1="389.625" y2="389.625"/><text fill="#000000" font-family="sans-serif" font-size="13" font-weight="bold" lengthAdjust="spacing" textLength="9.0454" x="60.9604" y="384.5591">9</text><text fill="#000000" font-family="sans-serif" font-size="13" lengthAdjust="spacing" textLength="94.0215" x="74.0059" y="384.5591">200 OK (JSON)</text></g><?plantuml-src TP5RJuD048NVzrTCU6fD6XeV6wqfbsgybAGNVJHJ67GJPCaos3R6_-xkKW8coXCitpbpzWmshChcOqzQOCfAWnSauCDY6uOUO0qBUoWgr2nJMM79u2saJZNc7AgIjIeAqeuCMHU_mMT9XmwEY54MzQwc46joWbtuj--QAbLBC_RaCFifCcJS6o5uqVdD_Oi28Ln2cCnT09Z1RRm57olfuzclzhyqlScQDR9KvRUzgFn4fZQoS3gZtuL6JKTA6wRHK37k5IQpC9oXRIp3vxBCWjDwGAzSc_yPkDiuhV680kEmYH_ZS0iNi5mdJz25XfUxU1t3qEMrtHDSmqtlPnemBfC-aAPKwGniOIAZ8TTExIwQLDOJYwkkzlaGTp455WmoxpELYY5NJPa9C4_RWpFZTwqEq3cj52yj5HzJSbC46OdhhLzJPpgSQjjjjs6uTgypk9nE8Nc0qVqcMOs7j2L_0000?></g></svg>