<svg xmlns="http://www.w3.org/2000/svg" xmlns:xlink="http://www.w3.org/1999/xlink" contentStyleType="text/css" data-diagram-type="SEQUENCE" height="536px" preserveAspectRatio="none" style="width:1033px;height:536px;background:#FFFFFF;" version="1.1" viewBox="0 0 1033 536" width="1033px" zoomAndPan="magnify"><defs/><g><g><title>AircraftModelController</title><rect fill="#FFFFFF" height="318.9102" style="stroke:#181818;stroke-width:1;" width="10" x="292.248" y="116.9121"/></g><g><title>RegisterAircraftModelUseCase</title><rect fill="#FFFFFF" height="256.3281" style="stroke:#181818;stroke-width:1;" width="10" x="483.9165" y="148.2031"/></g><g><title>AircraftModel</title><rect fill="#FFFFFF" height="31.291" style="stroke:#181818;stroke-width:1;" width="10" x="645.2402" y="179.4941"/></g><g><title>AircraftModelRepository</title><rect fill="#FFFFFF" height="93.873" style="stroke:#181818;stroke-width:1;" width="10" x="785.1675" y="279.3672"/></g><g><title>Database</title><rect fill="#FFFFFF" height="31.291" style="stroke:#181818;stroke-width:1;" width="10" x="993.7119" y="310.6582"/></g><g><title>Backoffice Operator</title><rect fill="#000000" fill-opacity="0.00000" height="370.2012" width="8" x="65.8618" y="83.6211"/><line style="stroke:#181818;stroke-width:0.5;stroke-dasharray:5,5;" x1="69" x2="69" y1="83.6211" y2="453.8223"/></g><g><title>AircraftModelController</title><rect fill="#000000" fill-opacity="0.00000" height="370.2012" width="8" x="293.248" y="83.6211"/><line style="stroke:#181818;stroke-width:0.5;stroke-dasharray:5,5;" x1="296.6689" x2="296.6689" y1="83.6211" y2="453.8223"/></g><g><title>RegisterAircraftModelUseCase</title><rect fill="#000000" fill-opacity="0.00000" height="370.2012" width="8" x="484.9165" y="83.6211"/><line style="stroke:#181818;stroke-width:0.5;stroke-dasharray:5,5;" x1="488.8271" x2="488.8271" y1="83.6211" y2="453.8223"/></g><g><title>AircraftModel</title><rect fill="#000000" fill-opacity="0.00000" height="370.2012" width="8" x="646.2402" y="83.6211"/><line style="stroke:#181818;stroke-width:0.5;stroke-dasharray:5,5;" x1="650.0059" x2="650.0059" y1="83.6211" y2="453.8223"/></g><g><title>AircraftModelRepository</title><rect fill="#000000" fill-opacity="0.00000" height="370.2012" width="8" x="786.1675" y="83.6211"/><line style="stroke:#181818;stroke-width:0.5;stroke-dasharray:5,5;" x1="789.4746" x2="789.4746" y1="83.6211" y2="453.8223"/></g><g><title>Database</title><rect fill="#000000" fill-opacity="0.00000" height="370.2012" width="8" x="994.7119" y="83.6211"/><line style="stroke:#181818;stroke-width:0.5;stroke-dasharray:5,5;" x1="997.7466" x2="997.7466" y1="83.6211" y2="453.8223"/></g><g class="participant participant-head" data-participant="BO"><text fill="#000000" font-family="sans-serif" font-size="14" lengthAdjust="spacing" textLength="123.7236" x="5" y="80.1074">Backoffice Operator</text><ellipse cx="69.8618" cy="13.5" fill="#E2E2F0" rx="8" ry="8" style="stroke:#181818;stroke-width:0.5;"/><path d="M69.8618,21.5 L69.8618,48.5 M56.8618,29.5 L82.8618,29.5 M69.8618,48.5 L56.8618,63.5 M69.8618,48.5 L82.8618,63.5" fill="none" style="stroke:#181818;stroke-width:0.5;"/></g><g class="participant participant-tail" data-participant="BO"><text fill="#000000" font-family="sans-serif" font-size="14" lengthAdjust="spacing" textLength="123.7236" x="5" y="467.9297">Backoffice Operator</text><ellipse cx="69.8618" cy="479.9434" fill="#E2E2F0" rx="8" ry="8" style="stroke:#181818;stroke-width:0.5;"/><path d="M69.8618,487.9434 L69.8618,514.9434 M56.8618,495.9434 L82.8618,495.9434 M69.8618,514.9434 L56.8618,529.9434 M69.8618,514.9434 L82.8618,529.9434" fill="none" style="stroke:#181818;stroke-width:0.5;"/></g><g class="participant participant-head" data-participant="Ctrl"><rect fill="#E2E2F0" height="32.6211" rx="2.5" ry="2.5" style="stroke:#181818;stroke-width:0.5;" width="157.1582" x="218.6689" y="50"/><text fill="#000000" font-family="sans-serif" font-size="14" lengthAdjust="spacing" textLength="143.1582" x="225.6689" y="72.1074">AircraftModelController</text></g><g class="participant participant-tail" data-participant="Ctrl"><rect fill="#E2E2F0" height="32.6211" rx="2.5" ry="2.5" style="stroke:#181818;stroke-width:0.5;" width="157.1582" x="218.6689" y="452.8223"/><text fill="#000000" font-family="sans-serif" font-size="14" lengthAdjust="spacing" textLength="143.1582" x="225.6689" y="474.9297">AircraftModelController</text></g><g class="participant participant-head" data-participant="UC"><rect fill="#E2E2F0" height="32.6211" rx="2.5" ry="2.5" style="stroke:#181818;stroke-width:0.5;" width="206.1787" x="385.8271" y="50"/><text fill="#000000" font-family="sans-serif" font-size="14" lengthAdjust="spacing" textLength="192.1787" x="392.8271" y="72.1074">RegisterAircraftModelUseCase</text></g><g class="participant participant-tail" data-participant="UC"><rect fill="#E2E2F0" height="32.6211" rx="2.5" ry="2.5" style="stroke:#181818;stroke-width:0.5;" width="206.1787" x="385.8271" y="452.8223"/><text fill="#000000" font-family="sans-serif" font-size="14" lengthAdjust="spacing" textLength="192.1787" x="392.8271" y="474.9297">RegisterAircraftModelUseCase</text></g><g class="participant participant-head" data-participant="Entity"><rect fill="#E2E2F0" height="32.6211" rx="2.5" ry="2.5" style="stroke:#181818;stroke-width:0.5;" width="96.4688" x="602.0059" y="50"/><text fill="#000000" font-family="sans-serif" font-size="14" lengthAdjust="spacing" textLength="82.4688" x="609.0059" y="72.1074">AircraftModel</text></g><g class="participant participant-tail" data-participant="Entity"><rect fill="#E2E2F0" height="32.6211" rx="2.5" ry="2.5" style="stroke:#181818;stroke-width:0.5;" width="96.4688" x="602.0059" y="452.8223"/><text fill="#000000" font-family="sans-serif" font-size="14" lengthAdjust="spacing" textLength="82.4688" x="609.0059" y="474.9297">AircraftModel</text></g><g class="participant participant-head" data-participant="Repo"><rect fill="#E2E2F0" height="32.6211" rx="2.5" ry="2.5" style="stroke:#181818;stroke-width:0.5;" width="163.3857" x="708.4746" y="50"/><text fill="#000000" font-family="sans-serif" font-size="14" lengthAdjust="spacing" textLength="149.3857" x="715.4746" y="72.1074">AircraftModelRepository</text></g><g class="participant participant-tail" data-participant="Repo"><rect fill="#E2E2F0" height="32.6211" rx="2.5" ry="2.5" style="stroke:#181818;stroke-width:0.5;" width="163.3857" x="708.4746" y="452.8223"/><text fill="#000000" font-family="sans-serif" font-size="14" lengthAdjust="spacing" textLength="149.3857" x="715.4746" y="474.9297">AircraftModelRepository</text></g><g class="participant participant-head" data-participant="DB"><text fill="#000000" font-family="sans-serif" font-size="14" lengthAdjust="spacing" textLength="59.9307" x="965.7466" y="80.1074">Database</text><path d="M980.7119,29 C980.7119,19 998.7119,19 998.7119,19 C998.7119,19 1016.7119,19 1016.7119,29 L1016.7119,55 C1016.7119,65 998.7119,65 998.7119,65 C998.7119,65 980.7119,65 980.7119,55 L980.7119,29" fill="#E2E2F0" style="stroke:#181818;stroke-width:0.5;"/><path d="M980.7119,29 C980.7119,39 998.7119,39 998.7119,39 C998.7119,39 1016.7119,39 1016.7119,29" fill="none" style="stroke:#181818;stroke-width:0.5;"/></g><g class="participant participant-tail" data-participant="DB"><text fill="#000000" font-family="sans-serif" font-size="14" lengthAdjust="spacing" textLength="59.9307" x="965.7466" y="467.9297">Database</text><path d="M980.7119,481.4434 C980.7119,471.4434 998.7119,471.4434 998.7119,471.4434 C998.7119,471.4434 1016.7119,471.4434 1016.7119,481.4434 L1016.7119,507.4434 C1016.7119,517.4434 998.7119,517.4434 998.7119,517.4434 C998.7119,517.4434 980.7119,517.4434 980.7119,507.4434 L980.7119,481.4434" fill="#E2E2F0" style="stroke:#181818;stroke-width:0.5;"/><path d="M980.7119,481.4434 C980.7119,491.4434 998.7119,491.4434 998.7119,491.4434 C998.7119,491.4434 1016.7119,491.4434 1016.7119,481.4434" fill="none" style="stroke:#181818;stroke-width:0.5;"/></g><g><title>AircraftModelController</title><rect fill="#FFFFFF" height="318.9102" style="stroke:#181818;stroke-width:1;" width="10" x="292.248" y="116.9121"/></g><g><title>RegisterAircraftModelUseCase</title><rect fill="#FFFFFF" height="256.3281" style="stroke:#181818;stroke-width:1;" width="10" x="483.9165" y="148.2031"/></g><g><title>AircraftModel</title><rect fill="#FFFFFF" height="31.291" style="stroke:#181818;stroke-width:1;" width="10" x="645.2402" y="179.4941"/></g><g><title>AircraftModelRepository</title><rect fill="#FFFFFF" height="93.873" style="stroke:#181818;stroke-width:1;" width="10" x="785.1675" y="279.3672"/></g><g><title>Database</title><rect fill="#FFFFFF" height="31.291" style="stroke:#181818;stroke-width:1;" width="10" x="993.7119" y="310.6582"/></g><g class="message" data-participant-1="BO" data-participant-2="Ctrl"><polygon fill="#181818" points="280.248,112.9121,290.248,116.9121,280.248,120.9121,284.248,116.9121" style="stroke:#181818;stroke-width:1;"/><line style="stroke:#181818;stroke-width:1;" x1="69.8618" x2="286.248" y1="116.9121" y2="116.9121"/><text fill="#000000" font-family="sans-serif" font-size="13" font-weight="bold" lengthAdjust="spacing" textLength="7.23" x="76.8618" y="111.6494">1</text><text fill="#000000" font-family="sans-serif" font-size="13" lengthAdjust="spacing" textLength="192.1563" x="88.0918" y="111.6494">POST /api/aircraftModels (JSON)</text></g><g class="message" data-participant-1="Ctrl" data-participant-2="UC"><polygon fill="#181818" points="471.9165,144.2031,481.9165,148.2031,471.9165,152.2031,475.9165,148.2031" style="stroke:#181818;stroke-width:1;"/><line style="stroke:#181818;stroke-width:1;" x1="302.248" x2="477.9165" y1="148.2031" y2="148.2031"/><text fill="#000000" font-family="sans-serif" font-size="13" font-weight="bold" lengthAdjust="spacing" textLength="7.23" x="309.248" y="142.9404">2</text><text fill="#000000" font-family="sans-serif" font-size="13" lengthAdjust="spacing" textLength="89.5972" x="320.478" y="142.9404">execute(model)</text></g><g class="message" data-participant-1="UC" data-participant-2="Entity"><polygon fill="#181818" points="633.2402,175.4941,643.2402,179.4941,633.2402,183.4941,637.2402,179.4941" style="stroke:#181818;stroke-width:1;"/><line style="stroke:#181818;stroke-width:1;" x1="493.9165" x2="639.2402" y1="179.4941" y2="179.4941"/><text fill="#000000" font-family="sans-serif" font-size="13" font-weight="bold" lengthAdjust="spacing" textLength="7.23" x="500.9165" y="174.2314">3</text><text fill="#000000" font-family="sans-serif" font-size="13" lengthAdjust="spacing" textLength="89.5972" x="512.1465" y="174.2314">getMaxRange()</text></g><g class="message" data-participant-1="Entity" data-participant-2="UC"><polygon fill="#181818" points="504.9165,206.7852,494.9165,210.7852,504.9165,214.7852,500.9165,210.7852" style="stroke:#181818;stroke-width:1;"/><line style="stroke:#181818;stroke-width:1;stroke-dasharray:2,2;" x1="498.9165" x2="649.2402" y1="210.7852" y2="210.7852"/><text fill="#000000" font-family="sans-serif" font-size="13" font-weight="bold" lengthAdjust="spacing" textLength="7.23" x="510.9165" y="205.5225">4</text><text fill="#000000" font-family="sans-serif" font-size="13" lengthAdjust="spacing" textLength="33.249" x="522.1465" y="205.5225">range</text></g><path d="M498,223.7852 L498,250.7852 L641,250.7852 L641,233.7852 L631,223.7852 L498,223.7852" fill="#FEFFDD" style="stroke:#181818;stroke-width:0.5;"/><path d="M631,223.7852 L631,233.7852 L641,233.7852 L631,223.7852" fill="#FEFFDD" style="stroke:#181818;stroke-width:0.5;"/><text fill="#000000" font-family="sans-serif" font-size="13" lengthAdjust="spacing" textLength="122.4971" x="504" y="242.8135">Validates if range &gt; 0</text><g class="message" data-participant-1="UC" data-participant-2="Repo"><polygon fill="#181818" points="773.1675,275.3672,783.1675,279.3672,773.1675,283.3672,777.1675,279.3672" style="stroke:#181818;stroke-width:1;"/><line style="stroke:#181818;stroke-width:1;" x1="493.9165" x2="779.1675" y1="279.3672" y2="279.3672"/><text fill="#000000" font-family="sans-serif" font-size="13" font-weight="bold" lengthAdjust="spacing" textLength="7.23" x="500.9165" y="274.1045">5</text><text fill="#000000" font-family="sans-serif" font-size="13" lengthAdjust="spacing" textLength="71.5254" x="512.1465" y="274.1045">save(model)</text></g><g class="message" data-participant-1="Repo" data-participant-2="DB"><polygon fill="#181818" points="981.7119,306.6582,991.7119,310.6582,981.7119,314.6582,985.7119,310.6582" style="stroke:#181818;stroke-width:1;"/><line style="stroke:#181818;stroke-width:1;" x1="795.1675" x2="987.7119" y1="310.6582" y2="310.6582"/><text fill="#000000" font-family="sans-serif" font-size="13" font-weight="bold" lengthAdjust="spacing" textLength="7.23" x="802.1675" y="305.3955">6</text><text fill="#000000" font-family="sans-serif" font-size="13" lengthAdjust="spacing" textLength="168.3145" x="813.3975" y="305.3955">INSERT INTO aircraft_model</text></g><g class="message" data-participant-1="DB" data-participant-2="Repo"><polygon fill="#181818" points="806.1675,337.9492,796.1675,341.9492,806.1675,345.9492,802.1675,341.9492" style="stroke:#181818;stroke-width:1;"/><line style="stroke:#181818;stroke-width:1;stroke-dasharray:2,2;" x1="800.1675" x2="997.7119" y1="341.9492" y2="341.9492"/><text fill="#000000" font-family="sans-serif" font-size="13" font-weight="bold" lengthAdjust="spacing" textLength="7.23" x="812.1675" y="336.6865">7</text><text fill="#000000" font-family="sans-serif" font-size="13" lengthAdjust="spacing" textLength="127.1499" x="823.3975" y="336.6865">saved record (with ID)</text></g><g class="message" data-participant-1="Repo" data-participant-2="UC"><polygon fill="#181818" points="504.9165,369.2402,494.9165,373.2402,504.9165,377.2402,500.9165,373.2402" style="stroke:#181818;stroke-width:1;"/><line style="stroke:#181818;stroke-width:1;stroke-dasharray:2,2;" x1="498.9165" x2="789.1675" y1="373.2402" y2="373.2402"/><text fill="#000000" font-family="sans-serif" font-size="13" font-weight="bold" lengthAdjust="spacing" textLength="7.23" x="510.9165" y="367.9775">8</text><text fill="#000000" font-family="sans-serif" font-size="13" lengthAdjust="spacing" textLength="70.0972" x="522.1465" y="367.9775">savedModel</text></g><g class="message" data-participant-1="UC" data-participant-2="Ctrl"><polygon fill="#181818" points="313.248,400.5313,303.248,404.5313,313.248,408.5313,309.248,404.5313" style="stroke:#181818;stroke-width:1;"/><line style="stroke:#181818;stroke-width:1;stroke-dasharray:2,2;" x1="307.248" x2="487.9165" y1="404.5313" y2="404.5313"/><text fill="#000000" font-family="sans-serif" font-size="13" font-weight="bold" lengthAdjust="spacing" textLength="7.23" x="319.248" y="399.2686">9</text><text fill="#000000" font-family="sans-serif" font-size="13" lengthAdjust="spacing" textLength="70.0972" x="330.478" y="399.2686">savedModel</text></g><g class="message" data-participant-1="Ctrl" data-participant-2="BO"><polygon fill="#181818" points="80.8618,431.8223,70.8618,435.8223,80.8618,439.8223,76.8618,435.8223" style="stroke:#181818;stroke-width:1;"/><line style="stroke:#181818;stroke-width:1;stroke-dasharray:2,2;" x1="74.8618" x2="296.248" y1="435.8223" y2="435.8223"/><text fill="#000000" font-family="sans-serif" font-size="13" font-weight="bold" lengthAdjust="spacing" textLength="14.46" x="86.8618" y="430.5596">10</text><text fill="#000000" font-family="sans-serif" font-size="13" lengthAdjust="spacing" textLength="118.4917" x="105.3218" y="430.5596">201 Created (JSON)</text></g><!--SRC=[VP51Ru9048Nl-oicdF1WQdlqO5B0WqsK1hNNPeG1DqMMBAFLVzzXaOXjumbsztipRzxWaKrrFEp8AapPMF02JBzCdkkK8Ax9ebnwW0q4iQhHiavrZHM3zwfjQZ7dfSce34t5rfGbTMp8jhod4ofqmsJlLDk6Gcp8IRRXW_AEc5Ui-VA0IgWsZHQ_5yUtHvKXuqvwW1TT_znR52WLn32UEQimXVTulO4dhFKJ3aisuB-juzMe3KUVaAaRJJcLgBUXQEbCwP79FxIA0IeZAG44wwmBMX0lyPnWLP0_8A-ZNR5nNzYsdCheDwSg8mUhYps3oOMTmWUMMcQb1dJUwM06axv_6uNKQ_3qrwMBoG42He5WYzLwdcpaiucXJ-FJoMug2L3OyNtj32obncRWVslUmo8Q3SsBf6lJZ-SaBkOXvlmutxVj_4-s-NQB45AsEOMNoJE4bkGnwnStu5ls1m00]--></g></svg>