<?plantuml 1.2026.1?><svg xmlns="http://www.w3.org/2000/svg" xmlns:xlink="http://www.w3.org/1999/xlink" contentStyleType="text/css" data-diagram-type="SEQUENCE" height="508px" preserveAspectRatio="none" style="width:1125px;height:508px;background:#FFFFFF;" version="1.1" viewBox="0 0 1125 508" width="1125px" zoomAndPan="magnify"><defs/><g><g><title>AircraftModelController</title><rect fill="#FFFFFF" height="297.3281" style="stroke:#181818;stroke-width:1;" width="10" x="316.0742" y="112.4297"/></g><g><title>RegisterAircraftModelUseCase</title><rect fill="#FFFFFF" height="239.0625" style="stroke:#181818;stroke-width:1;" width="10" x="527.7104" y="141.5625"/></g><g><title>AircraftModel</title><rect fill="#FFFFFF" height="29.1328" style="stroke:#181818;stroke-width:1;" width="10" x="704.7603" y="170.6953"/></g><g><title>AircraftModelRepository</title><rect fill="#FFFFFF" height="87.3984" style="stroke:#181818;stroke-width:1;" width="10" x="860.0034" y="264.0938"/></g><g><title>Database</title><rect fill="#FFFFFF" height="29.1328" style="stroke:#181818;stroke-width:1;" width="10" x="1083.0776" y="293.2266"/></g><g class="participant-lifeline" data-entity-uid="part1" data-qualified-name="BO" id="part1-lifeline"><g><title>Backoffice Operator</title><rect fill="#000000" fill-opacity="0.00000" height="346.4609" width="8" x="73.8633" y="81.2969"/><line style="stroke:#181818;stroke-width:0.5;stroke-dasharray:5,5;" x1="77" x2="77" y1="81.2969" y2="427.7578"/></g></g><g class="participant-lifeline" data-entity-uid="part2" data-qualified-name="Ctrl" id="part2-lifeline"><g><title>AircraftModelController</title><rect fill="#000000" fill-opacity="0.00000" height="346.4609" width="8" x="317.0742" y="81.2969"/><line style="stroke:#181818;stroke-width:0.5;stroke-dasharray:5,5;" x1="320.6343" x2="320.6343" y1="81.2969" y2="427.7578"/></g></g><g class="participant-lifeline" data-entity-uid="part3" data-qualified-name="UC" id="part3-lifeline"><g><title>RegisterAircraftModelUseCase</title><rect fill="#000000" fill-opacity="0.00000" height="346.4609" width="8" x="528.7104" y="81.2969"/><line style="stroke:#181818;stroke-width:0.5;stroke-dasharray:5,5;" x1="532.5142" x2="532.5142" y1="81.2969" y2="427.7578"/></g></g><g class="participant-lifeline" data-entity-uid="part4" data-qualified-name="Entity" id="part4-lifeline"><g><title>AircraftModel</title><rect fill="#000000" fill-opacity="0.00000" height="346.4609" width="8" x="705.7603" y="81.2969"/><line style="stroke:#181818;stroke-width:0.5;stroke-dasharray:5,5;" x1="708.9067" x2="708.9067" y1="81.2969" y2="427.7578"/></g></g><g class="participant-lifeline" data-entity-uid="part5" data-qualified-name="Repo" id="part5-lifeline"><g><title>AircraftModelRepository</title><rect fill="#000000" fill-opacity="0.00000" height="346.4609" width="8" x="861.0034" y="81.2969"/><line style="stroke:#181818;stroke-width:0.5;stroke-dasharray:5,5;" x1="864.6138" x2="864.6138" y1="81.2969" y2="427.7578"/></g></g><g class="participant-lifeline" data-entity-uid="part6" data-qualified-name="DB" id="part6-lifeline"><g><title>Database</title><rect fill="#000000" fill-opacity="0.00000" height="346.4609" width="8" x="1084.0776" y="81.2969"/><line style="stroke:#181818;stroke-width:0.5;stroke-dasharray:5,5;" x1="1087.6772" x2="1087.6772" y1="81.2969" y2="427.7578"/></g></g><g class="participant participant-head" data-entity-uid="part1" data-qualified-name="BO" id="part1-head"><text fill="#000000" font-family="sans-serif" font-size="14" lengthAdjust="spacing" textLength="139.7266" x="5" y="77.9951">Backoffice Operator</text><ellipse cx="77.8633" cy="13.5" fill="#E2E2F0" rx="8" ry="8" style="stroke:#181818;stroke-width:0.5;"/><path d="M77.8633,21.5 L77.8633,48.5 M64.8633,29.5 L90.8633,29.5 M77.8633,48.5 L64.8633,63.5 M77.8633,48.5 L90.8633,63.5" fill="none" style="stroke:#181818;stroke-width:0.5;"/></g><g class="participant participant-tail" data-entity-uid="part1" data-qualified-name="BO" id="part1-tail"><text fill="#000000" font-family="sans-serif" font-size="14" lengthAdjust="spacing" textLength="139.7266" x="5" y="439.7529">Backoffice Operator</text><ellipse cx="77.8633" cy="451.5547" fill="#E2E2F0" rx="8" ry="8" style="stroke:#181818;stroke-width:0.5;"/><path d="M77.8633,459.5547 L77.8633,486.5547 M64.8633,467.5547 L90.8633,467.5547 M77.8633,486.5547 L64.8633,501.5547 M77.8633,486.5547 L90.8633,501.5547" fill="none" style="stroke:#181818;stroke-width:0.5;"/></g><g class="participant participant-head" data-entity-uid="part2" data-qualified-name="Ctrl" id="part2-head"><rect fill="#E2E2F0" height="30.2969" rx="2.5" ry="2.5" style="stroke:#181818;stroke-width:0.5;" width="176.8799" x="232.6343" y="50"/><text fill="#000000" font-family="sans-serif" font-size="14" lengthAdjust="spacing" textLength="162.8799" x="239.6343" y="69.9951">AircraftModelController</text></g><g class="participant participant-tail" data-entity-uid="part2" data-qualified-name="Ctrl" id="part2-tail"><rect fill="#E2E2F0" height="30.2969" rx="2.5" ry="2.5" style="stroke:#181818;stroke-width:0.5;" width="176.8799" x="232.6343" y="426.7578"/><text fill="#000000" font-family="sans-serif" font-size="14" lengthAdjust="spacing" textLength="162.8799" x="239.6343" y="446.7529">AircraftModelController</text></g><g class="participant participant-head" data-entity-uid="part3" data-qualified-name="UC" id="part3-head"><rect fill="#E2E2F0" height="30.2969" rx="2.5" ry="2.5" style="stroke:#181818;stroke-width:0.5;" width="226.3926" x="419.5142" y="50"/><text fill="#000000" font-family="sans-serif" font-size="14" lengthAdjust="spacing" textLength="212.3926" x="426.5142" y="69.9951">RegisterAircraftModelUseCase</text></g><g class="participant participant-tail" data-entity-uid="part3" data-qualified-name="UC" id="part3-tail"><rect fill="#E2E2F0" height="30.2969" rx="2.5" ry="2.5" style="stroke:#181818;stroke-width:0.5;" width="226.3926" x="419.5142" y="426.7578"/><text fill="#000000" font-family="sans-serif" font-size="14" lengthAdjust="spacing" textLength="212.3926" x="426.5142" y="446.7529">RegisterAircraftModelUseCase</text></g><g class="participant participant-head" data-entity-uid="part4" data-qualified-name="Entity" id="part4-head"><rect fill="#E2E2F0" height="30.2969" rx="2.5" ry="2.5" style="stroke:#181818;stroke-width:0.5;" width="107.707" x="655.9067" y="50"/><text fill="#000000" font-family="sans-serif" font-size="14" lengthAdjust="spacing" textLength="93.707" x="662.9067" y="69.9951">AircraftModel</text></g><g class="participant participant-tail" data-entity-uid="part4" data-qualified-name="Entity" id="part4-tail"><rect fill="#E2E2F0" height="30.2969" rx="2.5" ry="2.5" style="stroke:#181818;stroke-width:0.5;" width="107.707" x="655.9067" y="426.7578"/><text fill="#000000" font-family="sans-serif" font-size="14" lengthAdjust="spacing" textLength="93.707" x="662.9067" y="446.7529">AircraftModel</text></g><g class="participant participant-head" data-entity-uid="part5" data-qualified-name="Repo" id="part5-head"><rect fill="#E2E2F0" height="30.2969" rx="2.5" ry="2.5" style="stroke:#181818;stroke-width:0.5;" width="182.7793" x="773.6138" y="50"/><text fill="#000000" font-family="sans-serif" font-size="14" lengthAdjust="spacing" textLength="168.7793" x="780.6138" y="69.9951">AircraftModelRepository</text></g><g class="participant participant-tail" data-entity-uid="part5" data-qualified-name="Repo" id="part5-tail"><rect fill="#E2E2F0" height="30.2969" rx="2.5" ry="2.5" style="stroke:#181818;stroke-width:0.5;" width="182.7793" x="773.6138" y="426.7578"/><text fill="#000000" font-family="sans-serif" font-size="14" lengthAdjust="spacing" textLength="168.7793" x="780.6138" y="446.7529">AircraftModelRepository</text></g><g class="participant participant-head" data-entity-uid="part6" data-qualified-name="DB" id="part6-head"><text fill="#000000" font-family="sans-serif" font-size="14" lengthAdjust="spacing" textLength="66.8008" x="1051.6772" y="77.9951">Database</text><path d="M1070.0776,29 C1070.0776,19 1088.0776,19 1088.0776,19 C1088.0776,19 1106.0776,19 1106.0776,29 L1106.0776,55 C1106.0776,65 1088.0776,65 1088.0776,65 C1088.0776,65 1070.0776,65 1070.0776,55 L1070.0776,29" fill="#E2E2F0" style="stroke:#181818;stroke-width:0.5;"/><path d="M1070.0776,29 C1070.0776,39 1088.0776,39 1088.0776,39 C1088.0776,39 1106.0776,39 1106.0776,29" fill="none" style="stroke:#181818;stroke-width:0.5;"/></g><g class="participant participant-tail" data-entity-uid="part6" data-qualified-name="DB" id="part6-tail"><text fill="#000000" font-family="sans-serif" font-size="14" lengthAdjust="spacing" textLength="66.8008" x="1051.6772" y="439.7529">Database</text><path d="M1070.0776,453.0547 C1070.0776,443.0547 1088.0776,443.0547 1088.0776,443.0547 C1088.0776,443.0547 1106.0776,443.0547 1106.0776,453.0547 L1106.0776,479.0547 C1106.0776,489.0547 1088.0776,489.0547 1088.0776,489.0547 C1088.0776,489.0547 1070.0776,489.0547 1070.0776,479.0547 L1070.0776,453.0547" fill="#E2E2F0" style="stroke:#181818;stroke-width:0.5;"/><path d="M1070.0776,453.0547 C1070.0776,463.0547 1088.0776,463.0547 1088.0776,463.0547 C1088.0776,463.0547 1106.0776,463.0547 1106.0776,453.0547" fill="none" style="stroke:#181818;stroke-width:0.5;"/></g><g><title>AircraftModelController</title><rect fill="#FFFFFF" height="297.3281" style="stroke:#181818;stroke-width:1;" width="10" x="316.0742" y="112.4297"/></g><g><title>RegisterAircraftModelUseCase</title><rect fill="#FFFFFF" height="239.0625" style="stroke:#181818;stroke-width:1;" width="10" x="527.7104" y="141.5625"/></g><g><title>AircraftModel</title><rect fill="#FFFFFF" height="29.1328" style="stroke:#181818;stroke-width:1;" width="10" x="704.7603" y="170.6953"/></g><g><title>AircraftModelRepository</title><rect fill="#FFFFFF" height="87.3984" style="stroke:#181818;stroke-width:1;" width="10" x="860.0034" y="264.0938"/></g><g><title>Database</title><rect fill="#FFFFFF" height="29.1328" style="stroke:#181818;stroke-width:1;" width="10" x="1083.0776" y="293.2266"/></g><g class="message" data-entity-1="part1" data-entity-2="part2" id="msg1"><polygon fill="#181818" points="304.0742,108.4297,314.0742,112.4297,304.0742,116.4297,308.0742,112.4297" style="stroke:#181818;stroke-width:1;"/><line style="stroke:#181818;stroke-width:1;" x1="77.8633" x2="310.0742" y1="112.4297" y2="112.4297"/><text fill="#000000" font-family="sans-serif" font-size="13" font-weight="bold" lengthAdjust="spacing" textLength="9.0454" x="84.8633" y="107.3638">1</text><text fill="#000000" font-family="sans-serif" font-size="13" lengthAdjust="spacing" textLength="206.1655" x="97.9087" y="107.3638">POST /api/aircraftModels (JSON)</text></g><g class="message" data-entity-1="part2" data-entity-2="part3" id="msg2"><polygon fill="#181818" points="515.7104,137.5625,525.7104,141.5625,515.7104,145.5625,519.7104,141.5625" style="stroke:#181818;stroke-width:1;"/><line style="stroke:#181818;stroke-width:1;" x1="326.0742" x2="521.7104" y1="141.5625" y2="141.5625"/><text fill="#000000" font-family="sans-serif" font-size="13" font-weight="bold" lengthAdjust="spacing" textLength="9.0454" x="333.0742" y="136.4966">2</text><text fill="#000000" font-family="sans-serif" font-size="13" lengthAdjust="spacing" textLength="102.7939" x="346.1196" y="136.4966">execute(model)</text></g><g class="message" data-entity-1="part3" data-entity-2="part4" id="msg3"><polygon fill="#181818" points="692.7603,166.6953,702.7603,170.6953,692.7603,174.6953,696.7603,170.6953" style="stroke:#181818;stroke-width:1;"/><line style="stroke:#181818;stroke-width:1;" x1="537.7104" x2="698.7603" y1="170.6953" y2="170.6953"/><text fill="#000000" font-family="sans-serif" font-size="13" font-weight="bold" lengthAdjust="spacing" textLength="9.0454" x="544.7104" y="165.6294">3</text><text fill="#000000" font-family="sans-serif" font-size="13" lengthAdjust="spacing" textLength="99.855" x="557.7559" y="165.6294">getMaxRange()</text></g><g class="message" data-entity-1="part4" data-entity-2="part3" id="msg4"><polygon fill="#181818" points="548.7104,195.8281,538.7104,199.8281,548.7104,203.8281,544.7104,199.8281" style="stroke:#181818;stroke-width:1;"/><line style="stroke:#181818;stroke-width:1;stroke-dasharray:2,2;" x1="542.7104" x2="708.7603" y1="199.8281" y2="199.8281"/><text fill="#000000" font-family="sans-serif" font-size="13" font-weight="bold" lengthAdjust="spacing" textLength="9.0454" x="554.7104" y="194.7622">4</text><text fill="#000000" font-family="sans-serif" font-size="13" lengthAdjust="spacing" textLength="37.8003" x="567.7559" y="194.7622">range</text></g><path d="M542,212.8281 L542,237.8281 L704,237.8281 L704,222.8281 L694,212.8281 L542,212.8281" fill="#FEFFDD" style="stroke:#181818;stroke-width:0.5;"/><path d="M694,212.8281 L694,222.8281 L704,222.8281 L694,212.8281" fill="#FEFFDD" style="stroke:#181818;stroke-width:0.5;"/><text fill="#000000" font-family="sans-serif" font-size="13" lengthAdjust="spacing" textLength="141.8511" x="548" y="229.895">Validates if range &gt; 0</text><g class="message" data-entity-1="part3" data-entity-2="part5" id="msg5"><polygon fill="#181818" points="848.0034,260.0938,858.0034,264.0938,848.0034,268.0938,852.0034,264.0938" style="stroke:#181818;stroke-width:1;"/><line style="stroke:#181818;stroke-width:1;" x1="537.7104" x2="854.0034" y1="264.0938" y2="264.0938"/><text fill="#000000" font-family="sans-serif" font-size="13" font-weight="bold" lengthAdjust="spacing" textLength="9.0454" x="544.7104" y="259.0278">5</text><text fill="#000000" font-family="sans-serif" font-size="13" lengthAdjust="spacing" textLength="81.0532" x="557.7559" y="259.0278">save(model)</text></g><g class="message" data-entity-1="part5" data-entity-2="part6" id="msg6"><polygon fill="#181818" points="1071.0776,289.2266,1081.0776,293.2266,1071.0776,297.2266,1075.0776,293.2266" style="stroke:#181818;stroke-width:1;"/><line style="stroke:#181818;stroke-width:1;" x1="870.0034" x2="1077.0776" y1="293.2266" y2="293.2266"/><text fill="#000000" font-family="sans-serif" font-size="13" font-weight="bold" lengthAdjust="spacing" textLength="9.0454" x="877.0034" y="288.1606">6</text><text fill="#000000" font-family="sans-serif" font-size="13" lengthAdjust="spacing" textLength="181.0288" x="890.0488" y="288.1606">INSERT INTO aircraft_model</text></g><g class="message" data-entity-1="part6" data-entity-2="part5" id="msg7"><polygon fill="#181818" points="881.0034,318.3594,871.0034,322.3594,881.0034,326.3594,877.0034,322.3594" style="stroke:#181818;stroke-width:1;"/><line style="stroke:#181818;stroke-width:1;stroke-dasharray:2,2;" x1="875.0034" x2="1087.0776" y1="322.3594" y2="322.3594"/><text fill="#000000" font-family="sans-serif" font-size="13" font-weight="bold" lengthAdjust="spacing" textLength="9.0454" x="887.0034" y="317.2935">7</text><text fill="#000000" font-family="sans-serif" font-size="13" lengthAdjust="spacing" textLength="144.6885" x="900.0488" y="317.2935">saved record (with ID)</text></g><g class="message" data-entity-1="part5" data-entity-2="part3" id="msg8"><polygon fill="#181818" points="548.7104,347.4922,538.7104,351.4922,548.7104,355.4922,544.7104,351.4922" style="stroke:#181818;stroke-width:1;"/><line style="stroke:#181818;stroke-width:1;stroke-dasharray:2,2;" x1="542.7104" x2="864.0034" y1="351.4922" y2="351.4922"/><text fill="#000000" font-family="sans-serif" font-size="13" font-weight="bold" lengthAdjust="spacing" textLength="9.0454" x="554.7104" y="346.4263">8</text><text fill="#000000" font-family="sans-serif" font-size="13" lengthAdjust="spacing" textLength="77.7144" x="567.7559" y="346.4263">savedModel</text></g><g class="message" data-entity-1="part3" data-entity-2="part2" id="msg9"><polygon fill="#181818" points="337.0742,376.625,327.0742,380.625,337.0742,384.625,333.0742,380.625" style="stroke:#181818;stroke-width:1;"/><line style="stroke:#181818;stroke-width:1;stroke-dasharray:2,2;" x1="331.0742" x2="531.7104" y1="380.625" y2="380.625"/><text fill="#000000" font-family="sans-serif" font-size="13" font-weight="bold" lengthAdjust="spacing" textLength="9.0454" x="343.0742" y="375.5591">9</text><text fill="#000000" font-family="sans-serif" font-size="13" lengthAdjust="spacing" textLength="77.7144" x="356.1196" y="375.5591">savedModel</text></g><g class="message" data-entity-1="part2" data-entity-2="part1" id="msg10"><polygon fill="#181818" points="88.8633,405.7578,78.8633,409.7578,88.8633,413.7578,84.8633,409.7578" style="stroke:#181818;stroke-width:1;"/><line style="stroke:#181818;stroke-width:1;stroke-dasharray:2,2;" x1="82.8633" x2="320.0742" y1="409.7578" y2="409.7578"/><text fill="#000000" font-family="sans-serif" font-size="13" font-weight="bold" lengthAdjust="spacing" textLength="18.0908" x="94.8633" y="404.6919">10</text><text fill="#000000" font-family="sans-serif" font-size="13" lengthAdjust="spacing" textLength="126.9976" x="116.9541" y="404.6919">201 Created (JSON)</text></g><?plantuml-src VP51Ru9048Nl-oicdF1WQdlqO5B0WqsK1hNNPeG1DqMMBAFLVzzXaOXjumbsztipRzxWaKrrFEp8AapPMF02JBzCdkkK8Ax9ebnwW0q4iQhHiavrZHM3zwfjQZ7dfSce34t5rfGbTMp8jhod4ofqmsJlLDk6Gcp8IRRXW_AEc5Ui-VA0IgWsZHQ_5yUtHvKXuqvwW1TT_znR52WLn32UEQimXVTulO4dhFKJ3aisuB-juzMe3KUVaAaRJJcLgBUXQEbCwP79FxIA0IeZAG44wwmBMX0lyPnWLP0_8A-ZNR5nNzYsdCheDwSg8mUhYps3oOMTmWUMMcQb1dJUwM06axv_6uNKQ_3qrwMBoG42He5WYzLwdcpaiucXJ-FJoMug2L3OyNtj32obncRWVslUmo8Q3SsBf6lJZ-SaBkOXvlmutxVj_4-s-NQB45AsEOMNoJE4bkGnwnStu5ls1m00?></g></svg>