<svg xmlns="http://www.w3.org/2000/svg" xmlns:xlink="http://www.w3.org/1999/xlink" contentStyleType="text/css" data-diagram-type="SEQUENCE" height="437px" preserveAspectRatio="none" style="width:1244px;height:437px;background:#FFFFFF;" version="1.1" viewBox="0 0 1244 437" width="1244px" zoomAndPan="magnify"><defs/><g><g><title>AircraftController</title><rect fill="#FFFFFF" height="219.0371" style="stroke:#181818;stroke-width:1;" width="10" x="379.9048" y="116.9121"/></g><g><title>SearchAircraftUseCase</title><rect fill="#FFFFFF" height="156.4551" style="stroke:#181818;stroke-width:1;" width="10" x="594.9937" y="148.2031"/></g><g><title>AircraftRepository</title><rect fill="#FFFFFF" height="93.873" style="stroke:#181818;stroke-width:1;" width="10" x="851.2407" y="179.4941"/></g><g><title>Database</title><rect fill="#FFFFFF" height="31.291" style="stroke:#181818;stroke-width:1;" width="10" x="1204.2324" y="210.7852"/></g><g><title>ATCC</title><rect fill="#000000" fill-opacity="0.00000" height="270.3281" width="8" x="23.0552" y="83.6211"/><line style="stroke:#181818;stroke-width:0.5;stroke-dasharray:5,5;" x1="27" x2="27" y1="83.6211" y2="353.9492"/></g><g><title>AircraftController</title><rect fill="#000000" fill-opacity="0.00000" height="270.3281" width="8" x="380.9048" y="83.6211"/><line style="stroke:#181818;stroke-width:0.5;stroke-dasharray:5,5;" x1="384.3911" x2="384.3911" y1="83.6211" y2="353.9492"/></g><g><title>SearchAircraftUseCase</title><rect fill="#000000" fill-opacity="0.00000" height="270.3281" width="8" x="595.9937" y="83.6211"/><line style="stroke:#181818;stroke-width:0.5;stroke-dasharray:5,5;" x1="599.856" x2="599.856" y1="83.6211" y2="353.9492"/></g><g><title>AircraftRepository</title><rect fill="#000000" fill-opacity="0.00000" height="270.3281" width="8" x="852.2407" y="83.6211"/><line style="stroke:#181818;stroke-width:0.5;stroke-dasharray:5,5;" x1="855.6133" x2="855.6133" y1="83.6211" y2="353.9492"/></g><g><title>Database</title><rect fill="#000000" fill-opacity="0.00000" height="270.3281" width="8" x="1205.2324" y="83.6211"/><line style="stroke:#181818;stroke-width:0.5;stroke-dasharray:5,5;" x1="1208.2671" x2="1208.2671" y1="83.6211" y2="353.9492"/></g><g class="participant participant-head" data-participant="ATCC"><text fill="#000000" font-family="sans-serif" font-size="14" lengthAdjust="spacing" textLength="38.1104" x="5" y="80.1074">ATCC</text><ellipse cx="27.0552" cy="13.5" fill="#E2E2F0" rx="8" ry="8" style="stroke:#181818;stroke-width:0.5;"/><path d="M27.0552,21.5 L27.0552,48.5 M14.0552,29.5 L40.0552,29.5 M27.0552,48.5 L14.0552,63.5 M27.0552,48.5 L40.0552,63.5" fill="none" style="stroke:#181818;stroke-width:0.5;"/></g><g class="participant participant-tail" data-participant="ATCC"><text fill="#000000" font-family="sans-serif" font-size="14" lengthAdjust="spacing" textLength="38.1104" x="5" y="368.0566">ATCC</text><ellipse cx="27.0552" cy="380.0703" fill="#E2E2F0" rx="8" ry="8" style="stroke:#181818;stroke-width:0.5;"/><path d="M27.0552,388.0703 L27.0552,415.0703 M14.0552,396.0703 L40.0552,396.0703 M27.0552,415.0703 L14.0552,430.0703 M27.0552,415.0703 L40.0552,430.0703" fill="none" style="stroke:#181818;stroke-width:0.5;"/></g><g class="participant participant-head" data-participant="Ctrl"><rect fill="#E2E2F0" height="32.6211" rx="2.5" ry="2.5" style="stroke:#181818;stroke-width:0.5;" width="119.0273" x="325.3911" y="50"/><text fill="#000000" font-family="sans-serif" font-size="14" lengthAdjust="spacing" textLength="105.0273" x="332.3911" y="72.1074">AircraftController</text></g><g class="participant participant-tail" data-participant="Ctrl"><rect fill="#E2E2F0" height="32.6211" rx="2.5" ry="2.5" style="stroke:#181818;stroke-width:0.5;" width="119.0273" x="325.3911" y="352.9492"/><text fill="#000000" font-family="sans-serif" font-size="14" lengthAdjust="spacing" textLength="105.0273" x="332.3911" y="375.0566">AircraftController</text></g><g class="participant participant-head" data-participant="UC"><rect fill="#E2E2F0" height="32.6211" rx="2.5" ry="2.5" style="stroke:#181818;stroke-width:0.5;" width="160.2754" x="519.856" y="50"/><text fill="#000000" font-family="sans-serif" font-size="14" lengthAdjust="spacing" textLength="146.2754" x="526.856" y="72.1074">SearchAircraftUseCase</text></g><g class="participant participant-tail" data-participant="UC"><rect fill="#E2E2F0" height="32.6211" rx="2.5" ry="2.5" style="stroke:#181818;stroke-width:0.5;" width="160.2754" x="519.856" y="352.9492"/><text fill="#000000" font-family="sans-serif" font-size="14" lengthAdjust="spacing" textLength="146.2754" x="526.856" y="375.0566">SearchAircraftUseCase</text></g><g class="participant participant-head" data-participant="Repo"><rect fill="#E2E2F0" height="32.6211" rx="2.5" ry="2.5" style="stroke:#181818;stroke-width:0.5;" width="125.2549" x="793.6133" y="50"/><text fill="#000000" font-family="sans-serif" font-size="14" lengthAdjust="spacing" textLength="111.2549" x="800.6133" y="72.1074">AircraftRepository</text></g><g class="participant participant-tail" data-participant="Repo"><rect fill="#E2E2F0" height="32.6211" rx="2.5" ry="2.5" style="stroke:#181818;stroke-width:0.5;" width="125.2549" x="793.6133" y="352.9492"/><text fill="#000000" font-family="sans-serif" font-size="14" lengthAdjust="spacing" textLength="111.2549" x="800.6133" y="375.0566">AircraftRepository</text></g><g class="participant participant-head" data-participant="DB"><text fill="#000000" font-family="sans-serif" font-size="14" lengthAdjust="spacing" textLength="59.9307" x="1176.2671" y="80.1074">Database</text><path d="M1191.2324,29 C1191.2324,19 1209.2324,19 1209.2324,19 C1209.2324,19 1227.2324,19 1227.2324,29 L1227.2324,55 C1227.2324,65 1209.2324,65 1209.2324,65 C1209.2324,65 1191.2324,65 1191.2324,55 L1191.2324,29" fill="#E2E2F0" style="stroke:#181818;stroke-width:0.5;"/><path d="M1191.2324,29 C1191.2324,39 1209.2324,39 1209.2324,39 C1209.2324,39 1227.2324,39 1227.2324,29" fill="none" style="stroke:#181818;stroke-width:0.5;"/></g><g class="participant participant-tail" data-participant="DB"><text fill="#000000" font-family="sans-serif" font-size="14" lengthAdjust="spacing" textLength="59.9307" x="1176.2671" y="368.0566">Database</text><path d="M1191.2324,381.5703 C1191.2324,371.5703 1209.2324,371.5703 1209.2324,371.5703 C1209.2324,371.5703 1227.2324,371.5703 1227.2324,381.5703 L1227.2324,407.5703 C1227.2324,417.5703 1209.2324,417.5703 1209.2324,417.5703 C1209.2324,417.5703 1191.2324,417.5703 1191.2324,407.5703 L1191.2324,381.5703" fill="#E2E2F0" style="stroke:#181818;stroke-width:0.5;"/><path d="M1191.2324,381.5703 C1191.2324,391.5703 1209.2324,391.5703 1209.2324,391.5703 C1209.2324,391.5703 1227.2324,391.5703 1227.2324,381.5703" fill="none" style="stroke:#181818;stroke-width:0.5;"/></g><g><title>AircraftController</title><rect fill="#FFFFFF" height="219.0371" style="stroke:#181818;stroke-width:1;" width="10" x="379.9048" y="116.9121"/></g><g><title>SearchAircraftUseCase</title><rect fill="#FFFFFF" height="156.4551" style="stroke:#181818;stroke-width:1;" width="10" x="594.9937" y="148.2031"/></g><g><title>AircraftRepository</title><rect fill="#FFFFFF" height="93.873" style="stroke:#181818;stroke-width:1;" width="10" x="851.2407" y="179.4941"/></g><g><title>Database</title><rect fill="#FFFFFF" height="31.291" style="stroke:#181818;stroke-width:1;" width="10" x="1204.2324" y="210.7852"/></g><g class="message" data-participant-1="ATCC" data-participant-2="Ctrl"><polygon fill="#181818" points="367.9048,112.9121,377.9048,116.9121,367.9048,120.9121,371.9048,116.9121" style="stroke:#181818;stroke-width:1;"/><line style="stroke:#181818;stroke-width:1;" x1="27.0552" x2="373.9048" y1="116.9121" y2="116.9121"/><text fill="#000000" font-family="sans-serif" font-size="13" font-weight="bold" lengthAdjust="spacing" textLength="7.23" x="34.0552" y="111.6494">1</text><text fill="#000000" font-family="sans-serif" font-size="13" lengthAdjust="spacing" textLength="322.6196" x="45.2852" y="111.6494">GET /api/aircrafts/search?modelId=X&amp;status=Y&amp;year=Z</text></g><g class="message" data-participant-1="Ctrl" data-participant-2="UC"><polygon fill="#181818" points="582.9937,144.2031,592.9937,148.2031,582.9937,152.2031,586.9937,148.2031" style="stroke:#181818;stroke-width:1;"/><line style="stroke:#181818;stroke-width:1;" x1="389.9048" x2="588.9937" y1="148.2031" y2="148.2031"/><text fill="#000000" font-family="sans-serif" font-size="13" font-weight="bold" lengthAdjust="spacing" textLength="7.23" x="396.9048" y="142.9404">2</text><text fill="#000000" font-family="sans-serif" font-size="13" lengthAdjust="spacing" textLength="174.8589" x="408.1348" y="142.9404">execute(modelId, status, year)</text></g><g class="message" data-participant-1="UC" data-participant-2="Repo"><polygon fill="#181818" points="839.2407,175.4941,849.2407,179.4941,839.2407,183.4941,843.2407,179.4941" style="stroke:#181818;stroke-width:1;"/><line style="stroke:#181818;stroke-width:1;" x1="604.9937" x2="845.2407" y1="179.4941" y2="179.4941"/><text fill="#000000" font-family="sans-serif" font-size="13" font-weight="bold" lengthAdjust="spacing" textLength="7.23" x="611.9937" y="174.2314">3</text><text fill="#000000" font-family="sans-serif" font-size="13" lengthAdjust="spacing" textLength="216.0171" x="623.2236" y="174.2314">searchAircrafts(modelId, status, year)</text></g><g class="message" data-participant-1="Repo" data-participant-2="DB"><polygon fill="#181818" points="1192.2324,206.7852,1202.2324,210.7852,1192.2324,214.7852,1196.2324,210.7852" style="stroke:#181818;stroke-width:1;"/><line style="stroke:#181818;stroke-width:1;" x1="861.2407" x2="1198.2324" y1="210.7852" y2="210.7852"/><text fill="#000000" font-family="sans-serif" font-size="13" font-weight="bold" lengthAdjust="spacing" textLength="7.23" x="868.2407" y="205.5225">4</text><text fill="#000000" font-family="sans-serif" font-size="13" lengthAdjust="spacing" textLength="312.7617" x="879.4707" y="205.5225">SELECT * FROM aircraft WHERE ... (Dynamic Query)</text></g><g class="message" data-participant-1="DB" data-participant-2="Repo"><polygon fill="#181818" points="872.2407,238.0762,862.2407,242.0762,872.2407,246.0762,868.2407,242.0762" style="stroke:#181818;stroke-width:1;"/><line style="stroke:#181818;stroke-width:1;stroke-dasharray:2,2;" x1="866.2407" x2="1208.2324" y1="242.0762" y2="242.0762"/><text fill="#000000" font-family="sans-serif" font-size="13" font-weight="bold" lengthAdjust="spacing" textLength="7.23" x="878.2407" y="236.8135">5</text><text fill="#000000" font-family="sans-serif" font-size="13" lengthAdjust="spacing" textLength="77.3018" x="889.4707" y="236.8135">list of records</text></g><g class="message" data-participant-1="Repo" data-participant-2="UC"><polygon fill="#181818" points="615.9937,269.3672,605.9937,273.3672,615.9937,277.3672,611.9937,273.3672" style="stroke:#181818;stroke-width:1;"/><line style="stroke:#181818;stroke-width:1;stroke-dasharray:2,2;" x1="609.9937" x2="855.2407" y1="273.3672" y2="273.3672"/><text fill="#000000" font-family="sans-serif" font-size="13" font-weight="bold" lengthAdjust="spacing" textLength="7.23" x="621.9937" y="268.1045">6</text><text fill="#000000" font-family="sans-serif" font-size="13" lengthAdjust="spacing" textLength="76.5845" x="633.2236" y="268.1045">List&lt;Aircraft&gt;</text></g><g class="message" data-participant-1="UC" data-participant-2="Ctrl"><polygon fill="#181818" points="400.9048,300.6582,390.9048,304.6582,400.9048,308.6582,396.9048,304.6582" style="stroke:#181818;stroke-width:1;"/><line style="stroke:#181818;stroke-width:1;stroke-dasharray:2,2;" x1="394.9048" x2="598.9937" y1="304.6582" y2="304.6582"/><text fill="#000000" font-family="sans-serif" font-size="13" font-weight="bold" lengthAdjust="spacing" textLength="7.23" x="406.9048" y="299.3955">7</text><text fill="#000000" font-family="sans-serif" font-size="13" lengthAdjust="spacing" textLength="38.2891" x="418.1348" y="299.3955">results</text></g><g class="message" data-participant-1="Ctrl" data-participant-2="ATCC"><polygon fill="#181818" points="38.0552,331.9492,28.0552,335.9492,38.0552,339.9492,34.0552,335.9492" style="stroke:#181818;stroke-width:1;"/><line style="stroke:#181818;stroke-width:1;stroke-dasharray:2,2;" x1="32.0552" x2="383.9048" y1="335.9492" y2="335.9492"/><text fill="#000000" font-family="sans-serif" font-size="13" font-weight="bold" lengthAdjust="spacing" textLength="7.23" x="44.0552" y="330.6865">8</text><text fill="#000000" font-family="sans-serif" font-size="13" lengthAdjust="spacing" textLength="125.6963" x="55.2852" y="330.6865">200 OK (JSON Array)</text></g><!--SRC=[XP5BRy8m48Jl_XKh3eXMlDGZAbIGf4zQL23guxOaHhKKucZjLCs_xzeX8XogtcpjpEUPDPPMv-LX9qbWOZL1PxuDWWwW0NSG1P9LYIemjpnIb13kRQ1pIphB97bXO2ax5suaKlBLo6CZ0pJIQ-C_a6jPQACuGELbxYfIjBXZ8tJ2uydFmeKGBXiCPlvfcC1Tj8KH5cg4HvmP6H_Xvg1JcJsaq_UkiMXBC_teLZoPVhgwwXkjhECBJs9Y731F_iYajB9tTFUXDlV1UIzELcuZOX_41MQZEIjk_WNudjxBZ731X4sqZ88jNCBjUlKCJHzuku_M4Go7G-Y5LOu7bS1hAQbgiNWlJ1YSmcJAMD1x89beIer8PLjRlzeqNhBskiazQqjzHD_oj6-Ifipi6T6jejuXo_ptJE1gF8RL4_GUDwiNc1CXnsrPdFmN]--></g></svg>