<?plantuml 1.2026.1?><svg xmlns="http://www.w3.org/2000/svg" xmlns:xlink="http://www.w3.org/1999/xlink" contentStyleType="text/css" data-diagram-type="SEQUENCE" height="589px" preserveAspectRatio="none" style="width:1066px;height:589px;background:#FFFFFF;" version="1.1" viewBox="0 0 1066 589" width="1066px" zoomAndPan="magnify"><defs/><g><g><title>AircraftController</title><rect fill="#FFFFFF" height="378.7266" style="stroke:#181818;stroke-width:1;" width="10" x="322.1226" y="112.4297"/></g><g><title>UpdateAircraftStatusUseCase</title><rect fill="#FFFFFF" height="320.4609" style="stroke:#181818;stroke-width:1;" width="10" x="524.6367" y="141.5625"/></g><g><title>AircraftRepository</title><rect fill="#FFFFFF" height="87.3984" style="stroke:#181818;stroke-width:1;" width="10" x="770.9116" y="170.6953"/></g><g><title>AircraftRepository</title><rect fill="#FFFFFF" height="87.3984" style="stroke:#181818;stroke-width:1;" width="10" x="770.9116" y="345.4922"/></g><g><title>Aircraft</title><rect fill="#FFFFFF" height="29.1328" style="stroke:#181818;stroke-width:1;" width="10" x="884.1206" y="287.2266"/></g><g><title>Database</title><rect fill="#FFFFFF" height="29.1328" style="stroke:#181818;stroke-width:1;" width="10" x="1024.2769" y="199.8281"/></g><g><title>Database</title><rect fill="#FFFFFF" height="29.1328" style="stroke:#181818;stroke-width:1;" width="10" x="1024.2769" y="374.625"/></g><g class="participant-lifeline" data-entity-uid="part1" data-qualified-name="ATCC" id="part1-lifeline"><g><title>ATCC</title><rect fill="#000000" fill-opacity="0.00000" height="427.8594" width="8" x="22.8398" y="81.2969"/><line style="stroke:#181818;stroke-width:0.5;stroke-dasharray:5,5;" x1="26" x2="26" y1="81.2969" y2="509.1563"/></g></g><g class="participant-lifeline" data-entity-uid="part2" data-qualified-name="Ctrl" id="part2-lifeline"><g><title>AircraftController</title><rect fill="#000000" fill-opacity="0.00000" height="427.8594" width="8" x="323.1226" y="81.2969"/><line style="stroke:#181818;stroke-width:0.5;stroke-dasharray:5,5;" x1="326.6997" x2="326.6997" y1="81.2969" y2="509.1563"/></g></g><g class="participant-lifeline" data-entity-uid="part3" data-qualified-name="UC" id="part3-lifeline"><g><title>UpdateAircraftStatusUseCase</title><rect fill="#000000" fill-opacity="0.00000" height="427.8594" width="8" x="525.6367" y="81.2969"/><line style="stroke:#181818;stroke-width:0.5;stroke-dasharray:5,5;" x1="528.9355" x2="528.9355" y1="81.2969" y2="509.1563"/></g></g><g class="participant-lifeline" data-entity-uid="part4" data-qualified-name="Repo" id="part4-lifeline"><g><title>AircraftRepository</title><rect fill="#000000" fill-opacity="0.00000" height="427.8594" width="8" x="771.9116" y="81.2969"/><line style="stroke:#181818;stroke-width:0.5;stroke-dasharray:5,5;" x1="775.5391" x2="775.5391" y1="81.2969" y2="509.1563"/></g></g><g class="participant-lifeline" data-entity-uid="part5" data-qualified-name="Entity" id="part5-lifeline"><g><title>Aircraft</title><rect fill="#000000" fill-opacity="0.00000" height="427.8594" width="8" x="885.1206" y="81.2969"/><line style="stroke:#181818;stroke-width:0.5;stroke-dasharray:5,5;" x1="888.2842" x2="888.2842" y1="81.2969" y2="509.1563"/></g></g><g class="participant-lifeline" data-entity-uid="part6" data-qualified-name="DB" id="part6-lifeline"><g><title>Database</title><rect fill="#000000" fill-opacity="0.00000" height="427.8594" width="8" x="1025.2769" y="81.2969"/><line style="stroke:#181818;stroke-width:0.5;stroke-dasharray:5,5;" x1="1028.8765" x2="1028.8765" y1="81.2969" y2="509.1563"/></g></g><g class="participant participant-head" data-entity-uid="part1" data-qualified-name="ATCC" id="part1-head"><text fill="#000000" font-family="sans-serif" font-size="14" lengthAdjust="spacing" textLength="37.6797" x="5" y="77.9951">ATCC</text><ellipse cx="26.8398" cy="13.5" fill="#E2E2F0" rx="8" ry="8" style="stroke:#181818;stroke-width:0.5;"/><path d="M26.8398,21.5 L26.8398,48.5 M13.8398,29.5 L39.8398,29.5 M26.8398,48.5 L13.8398,63.5 M26.8398,48.5 L39.8398,63.5" fill="none" style="stroke:#181818;stroke-width:0.5;"/></g><g class="participant participant-tail" data-entity-uid="part1" data-qualified-name="ATCC" id="part1-tail"><text fill="#000000" font-family="sans-serif" font-size="14" lengthAdjust="spacing" textLength="37.6797" x="5" y="521.1514">ATCC</text><ellipse cx="26.8398" cy="532.9531" fill="#E2E2F0" rx="8" ry="8" style="stroke:#181818;stroke-width:0.5;"/><path d="M26.8398,540.9531 L26.8398,567.9531 M13.8398,548.9531 L39.8398,548.9531 M26.8398,567.9531 L13.8398,582.9531 M26.8398,567.9531 L39.8398,582.9531" fill="none" style="stroke:#181818;stroke-width:0.5;"/></g><g class="participant participant-head" data-entity-uid="part2" data-qualified-name="Ctrl" id="part2-head"><rect fill="#E2E2F0" height="30.2969" rx="2.5" ry="2.5" style="stroke:#181818;stroke-width:0.5;" width="134.8457" x="259.6997" y="50"/><text fill="#000000" font-family="sans-serif" font-size="14" lengthAdjust="spacing" textLength="120.8457" x="266.6997" y="69.9951">AircraftController</text></g><g class="participant participant-tail" data-entity-uid="part2" data-qualified-name="Ctrl" id="part2-tail"><rect fill="#E2E2F0" height="30.2969" rx="2.5" ry="2.5" style="stroke:#181818;stroke-width:0.5;" width="134.8457" x="259.6997" y="508.1563"/><text fill="#000000" font-family="sans-serif" font-size="14" lengthAdjust="spacing" textLength="120.8457" x="266.6997" y="528.1514">AircraftController</text></g><g class="participant participant-head" data-entity-uid="part3" data-qualified-name="UC" id="part3-head"><rect fill="#E2E2F0" height="30.2969" rx="2.5" ry="2.5" style="stroke:#181818;stroke-width:0.5;" width="221.4023" x="418.9355" y="50"/><text fill="#000000" font-family="sans-serif" font-size="14" lengthAdjust="spacing" textLength="207.4023" x="425.9355" y="69.9951">UpdateAircraftStatusUseCase</text></g><g class="participant participant-tail" data-entity-uid="part3" data-qualified-name="UC" id="part3-tail"><rect fill="#E2E2F0" height="30.2969" rx="2.5" ry="2.5" style="stroke:#181818;stroke-width:0.5;" width="221.4023" x="418.9355" y="508.1563"/><text fill="#000000" font-family="sans-serif" font-size="14" lengthAdjust="spacing" textLength="207.4023" x="425.9355" y="528.1514">UpdateAircraftStatusUseCase</text></g><g class="participant participant-head" data-entity-uid="part4" data-qualified-name="Repo" id="part4-head"><rect fill="#E2E2F0" height="30.2969" rx="2.5" ry="2.5" style="stroke:#181818;stroke-width:0.5;" width="140.7451" x="705.5391" y="50"/><text fill="#000000" font-family="sans-serif" font-size="14" lengthAdjust="spacing" textLength="126.7451" x="712.5391" y="69.9951">AircraftRepository</text></g><g class="participant participant-tail" data-entity-uid="part4" data-qualified-name="Repo" id="part4-tail"><rect fill="#E2E2F0" height="30.2969" rx="2.5" ry="2.5" style="stroke:#181818;stroke-width:0.5;" width="140.7451" x="705.5391" y="508.1563"/><text fill="#000000" font-family="sans-serif" font-size="14" lengthAdjust="spacing" textLength="126.7451" x="712.5391" y="528.1514">AircraftRepository</text></g><g class="participant participant-head" data-entity-uid="part5" data-qualified-name="Entity" id="part5-head"><rect fill="#E2E2F0" height="30.2969" rx="2.5" ry="2.5" style="stroke:#181818;stroke-width:0.5;" width="65.6729" x="856.2842" y="50"/><text fill="#000000" font-family="sans-serif" font-size="14" lengthAdjust="spacing" textLength="51.6729" x="863.2842" y="69.9951">Aircraft</text></g><g class="participant participant-tail" data-entity-uid="part5" data-qualified-name="Entity" id="part5-tail"><rect fill="#E2E2F0" height="30.2969" rx="2.5" ry="2.5" style="stroke:#181818;stroke-width:0.5;" width="65.6729" x="856.2842" y="508.1563"/><text fill="#000000" font-family="sans-serif" font-size="14" lengthAdjust="spacing" textLength="51.6729" x="863.2842" y="528.1514">Aircraft</text></g><g class="participant participant-head" data-entity-uid="part6" data-qualified-name="DB" id="part6-head"><text fill="#000000" font-family="sans-serif" font-size="14" lengthAdjust="spacing" textLength="66.8008" x="992.8765" y="77.9951">Database</text><path d="M1011.2769,29 C1011.2769,19 1029.2769,19 1029.2769,19 C1029.2769,19 1047.2769,19 1047.2769,29 L1047.2769,55 C1047.2769,65 1029.2769,65 1029.2769,65 C1029.2769,65 1011.2769,65 1011.2769,55 L1011.2769,29" fill="#E2E2F0" style="stroke:#181818;stroke-width:0.5;"/><path d="M1011.2769,29 C1011.2769,39 1029.2769,39 1029.2769,39 C1029.2769,39 1047.2769,39 1047.2769,29" fill="none" style="stroke:#181818;stroke-width:0.5;"/></g><g class="participant participant-tail" data-entity-uid="part6" data-qualified-name="DB" id="part6-tail"><text fill="#000000" font-family="sans-serif" font-size="14" lengthAdjust="spacing" textLength="66.8008" x="992.8765" y="521.1514">Database</text><path d="M1011.2769,534.4531 C1011.2769,524.4531 1029.2769,524.4531 1029.2769,524.4531 C1029.2769,524.4531 1047.2769,524.4531 1047.2769,534.4531 L1047.2769,560.4531 C1047.2769,570.4531 1029.2769,570.4531 1029.2769,570.4531 C1029.2769,570.4531 1011.2769,570.4531 1011.2769,560.4531 L1011.2769,534.4531" fill="#E2E2F0" style="stroke:#181818;stroke-width:0.5;"/><path d="M1011.2769,534.4531 C1011.2769,544.4531 1029.2769,544.4531 1029.2769,544.4531 C1029.2769,544.4531 1047.2769,544.4531 1047.2769,534.4531" fill="none" style="stroke:#181818;stroke-width:0.5;"/></g><g><title>AircraftController</title><rect fill="#FFFFFF" height="378.7266" style="stroke:#181818;stroke-width:1;" width="10" x="322.1226" y="112.4297"/></g><g><title>UpdateAircraftStatusUseCase</title><rect fill="#FFFFFF" height="320.4609" style="stroke:#181818;stroke-width:1;" width="10" x="524.6367" y="141.5625"/></g><g><title>AircraftRepository</title><rect fill="#FFFFFF" height="87.3984" style="stroke:#181818;stroke-width:1;" width="10" x="770.9116" y="170.6953"/></g><g><title>AircraftRepository</title><rect fill="#FFFFFF" height="87.3984" style="stroke:#181818;stroke-width:1;" width="10" x="770.9116" y="345.4922"/></g><g><title>Aircraft</title><rect fill="#FFFFFF" height="29.1328" style="stroke:#181818;stroke-width:1;" width="10" x="884.1206" y="287.2266"/></g><g><title>Database</title><rect fill="#FFFFFF" height="29.1328" style="stroke:#181818;stroke-width:1;" width="10" x="1024.2769" y="199.8281"/></g><g><title>Database</title><rect fill="#FFFFFF" height="29.1328" style="stroke:#181818;stroke-width:1;" width="10" x="1024.2769" y="374.625"/></g><g class="message" data-entity-1="part1" data-entity-2="part2" id="msg1"><polygon fill="#181818" points="310.1226,108.4297,320.1226,112.4297,310.1226,116.4297,314.1226,112.4297" style="stroke:#181818;stroke-width:1;"/><line style="stroke:#181818;stroke-width:1;" x1="26.8398" x2="316.1226" y1="112.4297" y2="112.4297"/><text fill="#000000" font-family="sans-serif" font-size="13" font-weight="bold" lengthAdjust="spacing" textLength="9.0454" x="33.8398" y="107.3638">1</text><text fill="#000000" font-family="sans-serif" font-size="13" lengthAdjust="spacing" textLength="263.2373" x="46.8853" y="107.3638">PATCH /api/aircrafts/{reg}/status (JSON)</text></g><g class="message" data-entity-1="part2" data-entity-2="part3" id="msg2"><polygon fill="#181818" points="512.6367,137.5625,522.6367,141.5625,512.6367,145.5625,516.6367,141.5625" style="stroke:#181818;stroke-width:1;"/><line style="stroke:#181818;stroke-width:1;" x1="332.1226" x2="518.6367" y1="141.5625" y2="141.5625"/><text fill="#000000" font-family="sans-serif" font-size="13" font-weight="bold" lengthAdjust="spacing" textLength="9.0454" x="339.1226" y="136.4966">2</text><text fill="#000000" font-family="sans-serif" font-size="13" lengthAdjust="spacing" textLength="160.4688" x="352.168" y="136.4966">execute(reg, newStatus)</text></g><g class="message" data-entity-1="part3" data-entity-2="part4" id="msg3"><polygon fill="#181818" points="758.9116,166.6953,768.9116,170.6953,758.9116,174.6953,762.9116,170.6953" style="stroke:#181818;stroke-width:1;"/><line style="stroke:#181818;stroke-width:1;" x1="534.6367" x2="764.9116" y1="170.6953" y2="170.6953"/><text fill="#000000" font-family="sans-serif" font-size="13" font-weight="bold" lengthAdjust="spacing" textLength="9.0454" x="541.6367" y="165.6294">3</text><text fill="#000000" font-family="sans-serif" font-size="13" lengthAdjust="spacing" textLength="204.2295" x="554.6821" y="165.6294">findByRegistrationNumber(reg)</text></g><g class="message" data-entity-1="part4" data-entity-2="part6" id="msg4"><polygon fill="#181818" points="1012.2769,195.8281,1022.2769,199.8281,1012.2769,203.8281,1016.2769,199.8281" style="stroke:#181818;stroke-width:1;"/><line style="stroke:#181818;stroke-width:1;" x1="780.9116" x2="1018.2769" y1="199.8281" y2="199.8281"/><text fill="#000000" font-family="sans-serif" font-size="13" font-weight="bold" lengthAdjust="spacing" textLength="9.0454" x="787.9116" y="194.7622">4</text><text fill="#000000" font-family="sans-serif" font-size="13" lengthAdjust="spacing" textLength="152.8516" x="800.957" y="194.7622">SELECT * FROM aircraft</text></g><g class="message" data-entity-1="part6" data-entity-2="part4" id="msg5"><polygon fill="#181818" points="791.9116,224.9609,781.9116,228.9609,791.9116,232.9609,787.9116,228.9609" style="stroke:#181818;stroke-width:1;"/><line style="stroke:#181818;stroke-width:1;stroke-dasharray:2,2;" x1="785.9116" x2="1028.2769" y1="228.9609" y2="228.9609"/><text fill="#000000" font-family="sans-serif" font-size="13" font-weight="bold" lengthAdjust="spacing" textLength="9.0454" x="797.9116" y="223.895">5</text><text fill="#000000" font-family="sans-serif" font-size="13" lengthAdjust="spacing" textLength="75.4546" x="810.957" y="223.895">record data</text></g><g class="message" data-entity-1="part4" data-entity-2="part3" id="msg6"><polygon fill="#181818" points="545.6367,254.0938,535.6367,258.0938,545.6367,262.0938,541.6367,258.0938" style="stroke:#181818;stroke-width:1;"/><line style="stroke:#181818;stroke-width:1;stroke-dasharray:2,2;" x1="539.6367" x2="774.9116" y1="258.0938" y2="258.0938"/><text fill="#000000" font-family="sans-serif" font-size="13" font-weight="bold" lengthAdjust="spacing" textLength="9.0454" x="551.6367" y="253.0278">6</text><text fill="#000000" font-family="sans-serif" font-size="13" lengthAdjust="spacing" textLength="124.7314" x="564.6821" y="253.0278">Optional&lt;Aircraft&gt;</text></g><g class="message" data-entity-1="part3" data-entity-2="part5" id="msg7"><polygon fill="#181818" points="872.1206,283.2266,882.1206,287.2266,872.1206,291.2266,876.1206,287.2266" style="stroke:#181818;stroke-width:1;"/><line style="stroke:#181818;stroke-width:1;" x1="534.6367" x2="878.1206" y1="287.2266" y2="287.2266"/><text fill="#000000" font-family="sans-serif" font-size="13" font-weight="bold" lengthAdjust="spacing" textLength="9.0454" x="541.6367" y="282.1606">7</text><text fill="#000000" font-family="sans-serif" font-size="13" lengthAdjust="spacing" textLength="139.731" x="554.6821" y="282.1606">setStatus(newStatus)</text></g><g class="message" data-entity-1="part5" data-entity-2="part3" id="msg8"><polygon fill="#181818" points="545.6367,312.3594,535.6367,316.3594,545.6367,320.3594,541.6367,316.3594" style="stroke:#181818;stroke-width:1;"/><line style="stroke:#181818;stroke-width:1;stroke-dasharray:2,2;" x1="539.6367" x2="888.1206" y1="316.3594" y2="316.3594"/><text fill="#000000" font-family="sans-serif" font-size="13" font-weight="bold" lengthAdjust="spacing" textLength="9.0454" x="551.6367" y="311.2935">8</text><text fill="#000000" font-family="sans-serif" font-size="13" lengthAdjust="spacing" textLength="4.1323" x="564.6821" y="311.2935">&#160;</text></g><g class="message" data-entity-1="part3" data-entity-2="part4" id="msg9"><polygon fill="#181818" points="758.9116,341.4922,768.9116,345.4922,758.9116,349.4922,762.9116,345.4922" style="stroke:#181818;stroke-width:1;"/><line style="stroke:#181818;stroke-width:1;" x1="534.6367" x2="764.9116" y1="345.4922" y2="345.4922"/><text fill="#000000" font-family="sans-serif" font-size="13" font-weight="bold" lengthAdjust="spacing" textLength="9.0454" x="541.6367" y="340.4263">9</text><text fill="#000000" font-family="sans-serif" font-size="13" lengthAdjust="spacing" textLength="87.6294" x="554.6821" y="340.4263">save(aircraft)</text></g><g class="message" data-entity-1="part4" data-entity-2="part6" id="msg10"><polygon fill="#181818" points="1012.2769,370.625,1022.2769,374.625,1012.2769,378.625,1016.2769,374.625" style="stroke:#181818;stroke-width:1;"/><line style="stroke:#181818;stroke-width:1;" x1="780.9116" x2="1018.2769" y1="374.625" y2="374.625"/><text fill="#000000" font-family="sans-serif" font-size="13" font-weight="bold" lengthAdjust="spacing" textLength="18.0908" x="787.9116" y="369.5591">10</text><text fill="#000000" font-family="sans-serif" font-size="13" lengthAdjust="spacing" textLength="202.2744" x="810.0024" y="369.5591">UPDATE aircraft SET status = ?</text></g><g class="message" data-entity-1="part6" data-entity-2="part4" id="msg11"><polygon fill="#181818" points="791.9116,399.7578,781.9116,403.7578,791.9116,407.7578,787.9116,403.7578" style="stroke:#181818;stroke-width:1;"/><line style="stroke:#181818;stroke-width:1;stroke-dasharray:2,2;" x1="785.9116" x2="1028.2769" y1="403.7578" y2="403.7578"/><text fill="#000000" font-family="sans-serif" font-size="13" font-weight="bold" lengthAdjust="spacing" textLength="18.0908" x="797.9116" y="398.6919">11</text><text fill="#000000" font-family="sans-serif" font-size="13" lengthAdjust="spacing" textLength="50.8511" x="820.0024" y="398.6919">success</text></g><g class="message" data-entity-1="part4" data-entity-2="part3" id="msg12"><polygon fill="#181818" points="545.6367,428.8906,535.6367,432.8906,545.6367,436.8906,541.6367,432.8906" style="stroke:#181818;stroke-width:1;"/><line style="stroke:#181818;stroke-width:1;stroke-dasharray:2,2;" x1="539.6367" x2="774.9116" y1="432.8906" y2="432.8906"/><text fill="#000000" font-family="sans-serif" font-size="13" font-weight="bold" lengthAdjust="spacing" textLength="18.0908" x="551.6367" y="427.8247">12</text><text fill="#000000" font-family="sans-serif" font-size="13" lengthAdjust="spacing" textLength="102.0386" x="573.7275" y="427.8247">updatedAircraft</text></g><g class="message" data-entity-1="part3" data-entity-2="part2" id="msg13"><polygon fill="#181818" points="343.1226,458.0234,333.1226,462.0234,343.1226,466.0234,339.1226,462.0234" style="stroke:#181818;stroke-width:1;"/><line style="stroke:#181818;stroke-width:1;stroke-dasharray:2,2;" x1="337.1226" x2="528.6367" y1="462.0234" y2="462.0234"/><text fill="#000000" font-family="sans-serif" font-size="13" font-weight="bold" lengthAdjust="spacing" textLength="18.0908" x="349.1226" y="456.9575">13</text><text fill="#000000" font-family="sans-serif" font-size="13" lengthAdjust="spacing" textLength="102.0386" x="371.2134" y="456.9575">updatedAircraft</text></g><g class="message" data-entity-1="part2" data-entity-2="part1" id="msg14"><polygon fill="#181818" points="37.8398,487.1563,27.8398,491.1563,37.8398,495.1563,33.8398,491.1563" style="stroke:#181818;stroke-width:1;"/><line style="stroke:#181818;stroke-width:1;stroke-dasharray:2,2;" x1="31.8398" x2="326.1226" y1="491.1563" y2="491.1563"/><text fill="#000000" font-family="sans-serif" font-size="13" font-weight="bold" lengthAdjust="spacing" textLength="18.0908" x="43.8398" y="486.0903">14</text><text fill="#000000" font-family="sans-serif" font-size="13" lengthAdjust="spacing" textLength="94.0215" x="65.9307" y="486.0903">200 OK (JSON)</text></g><?plantuml-src VLBBRi8m4BpxArQSqgeeg4VKKa6Igkg384W-m2GBifGcaUtGegh_thNZG91eRhPsPdPdTdcZgxBvtA9aFDELXD4y2O8HS0NcmMekjSX4pKjD9I4poNSwg4ejgw90QO61biKbCArphh63RpJNZKeL1boXPQJ_2A-nhfIWCOuMPhxNWROSbLhe8wDMV4lAC0hTorR31MF60endTaAOmeh-B-3pMlZS2Id_H-B-rrTsHl1UD_7onaGX3kIWjSOidMJIW4Jm6xD6eqUqEoZngtNNuv0vbjgsPdvYx4IPBuvht0kb9TUYAfSsSIFHurctbaBKS474JVGU1GdSmlCw_e1kv3E3B19kVEuaCQja3YOHbcCVr-fs7kBQJC6BXoxFMHzk1t4Mseo9ej3jqRlcsQt2eTi-VKbNlyn5yGDwdQl18D9LE4-YKm8KJ09kOu_mD128Qh8CbHeCex77cdTHN4_YV4G3SBFvzbO8Rczl2lUJ2SHltM7rm0Ru1m00?></g></svg>