<svg xmlns="http://www.w3.org/2000/svg" xmlns:xlink="http://www.w3.org/1999/xlink" contentStyleType="text/css" data-diagram-type="SEQUENCE" height="624px" preserveAspectRatio="none" style="width:965px;height:624px;background:#FFFFFF;" version="1.1" viewBox="0 0 965 624" width="965px" zoomAndPan="magnify"><defs/><g><g><title>AircraftController</title><rect fill="#FFFFFF" height="406.7832" style="stroke:#181818;stroke-width:1;" width="10" x="292.0786" y="116.9121"/></g><g><title>UpdateAircraftStatusUseCase</title><rect fill="#FFFFFF" height="344.2012" style="stroke:#181818;stroke-width:1;" width="10" x="473.2139" y="148.2031"/></g><g><title>AircraftRepository</title><rect fill="#FFFFFF" height="93.873" style="stroke:#181818;stroke-width:1;" width="10" x="692.6255" y="179.4941"/></g><g><title>AircraftRepository</title><rect fill="#FFFFFF" height="93.873" style="stroke:#181818;stroke-width:1;" width="10" x="692.6255" y="367.2402"/></g><g><title>Aircraft</title><rect fill="#FFFFFF" height="31.291" style="stroke:#181818;stroke-width:1;" width="10" x="794.4219" y="304.6582"/></g><g><title>Database</title><rect fill="#FFFFFF" height="31.291" style="stroke:#181818;stroke-width:1;" width="10" x="925.3926" y="210.7852"/></g><g><title>Database</title><rect fill="#FFFFFF" height="31.291" style="stroke:#181818;stroke-width:1;" width="10" x="925.3926" y="398.5313"/></g><g><title>ATCC</title><rect fill="#000000" fill-opacity="0.00000" height="458.0742" width="8" x="23.0552" y="83.6211"/><line style="stroke:#181818;stroke-width:0.5;stroke-dasharray:5,5;" x1="27" x2="27" y1="83.6211" y2="541.6953"/></g><g><title>AircraftController</title><rect fill="#000000" fill-opacity="0.00000" height="458.0742" width="8" x="293.0786" y="83.6211"/><line style="stroke:#181818;stroke-width:0.5;stroke-dasharray:5,5;" x1="296.5649" x2="296.5649" y1="83.6211" y2="541.6953"/></g><g><title>UpdateAircraftStatusUseCase</title><rect fill="#000000" fill-opacity="0.00000" height="458.0742" width="8" x="474.2139" y="83.6211"/><line style="stroke:#181818;stroke-width:0.5;stroke-dasharray:5,5;" x1="477.8384" x2="477.8384" y1="83.6211" y2="541.6953"/></g><g><title>AircraftRepository</title><rect fill="#000000" fill-opacity="0.00000" height="458.0742" width="8" x="693.6255" y="83.6211"/><line style="stroke:#181818;stroke-width:0.5;stroke-dasharray:5,5;" x1="696.998" x2="696.998" y1="83.6211" y2="541.6953"/></g><g><title>Aircraft</title><rect fill="#000000" fill-opacity="0.00000" height="458.0742" width="8" x="795.4219" y="83.6211"/><line style="stroke:#181818;stroke-width:0.5;stroke-dasharray:5,5;" x1="799.2529" x2="799.2529" y1="83.6211" y2="541.6953"/></g><g><title>Database</title><rect fill="#000000" fill-opacity="0.00000" height="458.0742" width="8" x="926.3926" y="83.6211"/><line style="stroke:#181818;stroke-width:0.5;stroke-dasharray:5,5;" x1="929.4272" x2="929.4272" y1="83.6211" y2="541.6953"/></g><g class="participant participant-head" data-participant="ATCC"><text fill="#000000" font-family="sans-serif" font-size="14" lengthAdjust="spacing" textLength="38.1104" x="5" y="80.1074">ATCC</text><ellipse cx="27.0552" cy="13.5" fill="#E2E2F0" rx="8" ry="8" style="stroke:#181818;stroke-width:0.5;"/><path d="M27.0552,21.5 L27.0552,48.5 M14.0552,29.5 L40.0552,29.5 M27.0552,48.5 L14.0552,63.5 M27.0552,48.5 L40.0552,63.5" fill="none" style="stroke:#181818;stroke-width:0.5;"/></g><g class="participant participant-tail" data-participant="ATCC"><text fill="#000000" font-family="sans-serif" font-size="14" lengthAdjust="spacing" textLength="38.1104" x="5" y="555.8027">ATCC</text><ellipse cx="27.0552" cy="567.8164" fill="#E2E2F0" rx="8" ry="8" style="stroke:#181818;stroke-width:0.5;"/><path d="M27.0552,575.8164 L27.0552,602.8164 M14.0552,583.8164 L40.0552,583.8164 M27.0552,602.8164 L14.0552,617.8164 M27.0552,602.8164 L40.0552,617.8164" fill="none" style="stroke:#181818;stroke-width:0.5;"/></g><g class="participant participant-head" data-participant="Ctrl"><rect fill="#E2E2F0" height="32.6211" rx="2.5" ry="2.5" style="stroke:#181818;stroke-width:0.5;" width="119.0273" x="237.5649" y="50"/><text fill="#000000" font-family="sans-serif" font-size="14" lengthAdjust="spacing" textLength="105.0273" x="244.5649" y="72.1074">AircraftController</text></g><g class="participant participant-tail" data-participant="Ctrl"><rect fill="#E2E2F0" height="32.6211" rx="2.5" ry="2.5" style="stroke:#181818;stroke-width:0.5;" width="119.0273" x="237.5649" y="540.6953"/><text fill="#000000" font-family="sans-serif" font-size="14" lengthAdjust="spacing" textLength="105.0273" x="244.5649" y="562.8027">AircraftController</text></g><g class="participant participant-head" data-participant="UC"><rect fill="#E2E2F0" height="32.6211" rx="2.5" ry="2.5" style="stroke:#181818;stroke-width:0.5;" width="200.751" x="377.8384" y="50"/><text fill="#000000" font-family="sans-serif" font-size="14" lengthAdjust="spacing" textLength="186.751" x="384.8384" y="72.1074">UpdateAircraftStatusUseCase</text></g><g class="participant participant-tail" data-participant="UC"><rect fill="#E2E2F0" height="32.6211" rx="2.5" ry="2.5" style="stroke:#181818;stroke-width:0.5;" width="200.751" x="377.8384" y="540.6953"/><text fill="#000000" font-family="sans-serif" font-size="14" lengthAdjust="spacing" textLength="186.751" x="384.8384" y="562.8027">UpdateAircraftStatusUseCase</text></g><g class="participant participant-head" data-participant="Repo"><rect fill="#E2E2F0" height="32.6211" rx="2.5" ry="2.5" style="stroke:#181818;stroke-width:0.5;" width="125.2549" x="634.998" y="50"/><text fill="#000000" font-family="sans-serif" font-size="14" lengthAdjust="spacing" textLength="111.2549" x="641.998" y="72.1074">AircraftRepository</text></g><g class="participant participant-tail" data-participant="Repo"><rect fill="#E2E2F0" height="32.6211" rx="2.5" ry="2.5" style="stroke:#181818;stroke-width:0.5;" width="125.2549" x="634.998" y="540.6953"/><text fill="#000000" font-family="sans-serif" font-size="14" lengthAdjust="spacing" textLength="111.2549" x="641.998" y="562.8027">AircraftRepository</text></g><g class="participant participant-head" data-participant="Entity"><rect fill="#E2E2F0" height="32.6211" rx="2.5" ry="2.5" style="stroke:#181818;stroke-width:0.5;" width="58.3379" x="770.2529" y="50"/><text fill="#000000" font-family="sans-serif" font-size="14" lengthAdjust="spacing" textLength="44.3379" x="777.2529" y="72.1074">Aircraft</text></g><g class="participant participant-tail" data-participant="Entity"><rect fill="#E2E2F0" height="32.6211" rx="2.5" ry="2.5" style="stroke:#181818;stroke-width:0.5;" width="58.3379" x="770.2529" y="540.6953"/><text fill="#000000" font-family="sans-serif" font-size="14" lengthAdjust="spacing" textLength="44.3379" x="777.2529" y="562.8027">Aircraft</text></g><g class="participant participant-head" data-participant="DB"><text fill="#000000" font-family="sans-serif" font-size="14" lengthAdjust="spacing" textLength="59.9307" x="897.4272" y="80.1074">Database</text><path d="M912.3926,29 C912.3926,19 930.3926,19 930.3926,19 C930.3926,19 948.3926,19 948.3926,29 L948.3926,55 C948.3926,65 930.3926,65 930.3926,65 C930.3926,65 912.3926,65 912.3926,55 L912.3926,29" fill="#E2E2F0" style="stroke:#181818;stroke-width:0.5;"/><path d="M912.3926,29 C912.3926,39 930.3926,39 930.3926,39 C930.3926,39 948.3926,39 948.3926,29" fill="none" style="stroke:#181818;stroke-width:0.5;"/></g><g class="participant participant-tail" data-participant="DB"><text fill="#000000" font-family="sans-serif" font-size="14" lengthAdjust="spacing" textLength="59.9307" x="897.4272" y="555.8027">Database</text><path d="M912.3926,569.3164 C912.3926,559.3164 930.3926,559.3164 930.3926,559.3164 C930.3926,559.3164 948.3926,559.3164 948.3926,569.3164 L948.3926,595.3164 C948.3926,605.3164 930.3926,605.3164 930.3926,605.3164 C930.3926,605.3164 912.3926,605.3164 912.3926,595.3164 L912.3926,569.3164" fill="#E2E2F0" style="stroke:#181818;stroke-width:0.5;"/><path d="M912.3926,569.3164 C912.3926,579.3164 930.3926,579.3164 930.3926,579.3164 C930.3926,579.3164 948.3926,579.3164 948.3926,569.3164" fill="none" style="stroke:#181818;stroke-width:0.5;"/></g><g><title>AircraftController</title><rect fill="#FFFFFF" height="406.7832" style="stroke:#181818;stroke-width:1;" width="10" x="292.0786" y="116.9121"/></g><g><title>UpdateAircraftStatusUseCase</title><rect fill="#FFFFFF" height="344.2012" style="stroke:#181818;stroke-width:1;" width="10" x="473.2139" y="148.2031"/></g><g><title>AircraftRepository</title><rect fill="#FFFFFF" height="93.873" style="stroke:#181818;stroke-width:1;" width="10" x="692.6255" y="179.4941"/></g><g><title>AircraftRepository</title><rect fill="#FFFFFF" height="93.873" style="stroke:#181818;stroke-width:1;" width="10" x="692.6255" y="367.2402"/></g><g><title>Aircraft</title><rect fill="#FFFFFF" height="31.291" style="stroke:#181818;stroke-width:1;" width="10" x="794.4219" y="304.6582"/></g><g><title>Database</title><rect fill="#FFFFFF" height="31.291" style="stroke:#181818;stroke-width:1;" width="10" x="925.3926" y="210.7852"/></g><g><title>Database</title><rect fill="#FFFFFF" height="31.291" style="stroke:#181818;stroke-width:1;" width="10" x="925.3926" y="398.5313"/></g><g class="message" data-participant-1="ATCC" data-participant-2="Ctrl"><polygon fill="#181818" points="280.0786,112.9121,290.0786,116.9121,280.0786,120.9121,284.0786,116.9121" style="stroke:#181818;stroke-width:1;"/><line style="stroke:#181818;stroke-width:1;" x1="27.0552" x2="286.0786" y1="116.9121" y2="116.9121"/><text fill="#000000" font-family="sans-serif" font-size="13" font-weight="bold" lengthAdjust="spacing" textLength="7.23" x="34.0552" y="111.6494">1</text><text fill="#000000" font-family="sans-serif" font-size="13" lengthAdjust="spacing" textLength="234.7935" x="45.2852" y="111.6494">PATCH /api/aircrafts/{reg}/status (JSON)</text></g><g class="message" data-participant-1="Ctrl" data-participant-2="UC"><polygon fill="#181818" points="461.2139,144.2031,471.2139,148.2031,461.2139,152.2031,465.2139,148.2031" style="stroke:#181818;stroke-width:1;"/><line style="stroke:#181818;stroke-width:1;" x1="302.0786" x2="467.2139" y1="148.2031" y2="148.2031"/><text fill="#000000" font-family="sans-serif" font-size="13" font-weight="bold" lengthAdjust="spacing" textLength="7.23" x="309.0786" y="142.9404">2</text><text fill="#000000" font-family="sans-serif" font-size="13" lengthAdjust="spacing" textLength="140.9053" x="320.3086" y="142.9404">execute(reg, newStatus)</text></g><g class="message" data-participant-1="UC" data-participant-2="Repo"><polygon fill="#181818" points="680.6255,175.4941,690.6255,179.4941,680.6255,183.4941,684.6255,179.4941" style="stroke:#181818;stroke-width:1;"/><line style="stroke:#181818;stroke-width:1;" x1="483.2139" x2="686.6255" y1="179.4941" y2="179.4941"/><text fill="#000000" font-family="sans-serif" font-size="13" font-weight="bold" lengthAdjust="spacing" textLength="7.23" x="490.2139" y="174.2314">3</text><text fill="#000000" font-family="sans-serif" font-size="13" lengthAdjust="spacing" textLength="179.1816" x="501.4438" y="174.2314">findByRegistrationNumber(reg)</text></g><g class="message" data-participant-1="Repo" data-participant-2="DB"><polygon fill="#181818" points="913.3926,206.7852,923.3926,210.7852,913.3926,214.7852,917.3926,210.7852" style="stroke:#181818;stroke-width:1;"/><line style="stroke:#181818;stroke-width:1;" x1="702.6255" x2="919.3926" y1="210.7852" y2="210.7852"/><text fill="#000000" font-family="sans-serif" font-size="13" font-weight="bold" lengthAdjust="spacing" textLength="7.23" x="709.6255" y="205.5225">4</text><text fill="#000000" font-family="sans-serif" font-size="13" lengthAdjust="spacing" textLength="144.4663" x="720.8555" y="205.5225">SELECT * FROM aircraft</text></g><g class="message" data-participant-1="DB" data-participant-2="Repo"><polygon fill="#181818" points="713.6255,238.0762,703.6255,242.0762,713.6255,246.0762,709.6255,242.0762" style="stroke:#181818;stroke-width:1;"/><line style="stroke:#181818;stroke-width:1;stroke-dasharray:2,2;" x1="707.6255" x2="929.3926" y1="242.0762" y2="242.0762"/><text fill="#000000" font-family="sans-serif" font-size="13" font-weight="bold" lengthAdjust="spacing" textLength="7.23" x="719.6255" y="236.8135">5</text><text fill="#000000" font-family="sans-serif" font-size="13" lengthAdjust="spacing" textLength="65.7617" x="730.8555" y="236.8135">record data</text></g><g class="message" data-participant-1="Repo" data-participant-2="UC"><polygon fill="#181818" points="494.2139,269.3672,484.2139,273.3672,494.2139,277.3672,490.2139,273.3672" style="stroke:#181818;stroke-width:1;"/><line style="stroke:#181818;stroke-width:1;stroke-dasharray:2,2;" x1="488.2139" x2="696.6255" y1="273.3672" y2="273.3672"/><text fill="#000000" font-family="sans-serif" font-size="13" font-weight="bold" lengthAdjust="spacing" textLength="7.23" x="500.2139" y="268.1045">6</text><text fill="#000000" font-family="sans-serif" font-size="13" lengthAdjust="spacing" textLength="104.7744" x="511.4438" y="268.1045">Optional&lt;Aircraft&gt;</text></g><g class="message" data-participant-1="UC" data-participant-2="Entity"><polygon fill="#181818" points="782.4219,300.6582,792.4219,304.6582,782.4219,308.6582,786.4219,304.6582" style="stroke:#181818;stroke-width:1;"/><line style="stroke:#181818;stroke-width:1;" x1="483.2139" x2="788.4219" y1="304.6582" y2="304.6582"/><text fill="#000000" font-family="sans-serif" font-size="13" font-weight="bold" lengthAdjust="spacing" textLength="7.23" x="490.2139" y="299.3955">7</text><text fill="#000000" font-family="sans-serif" font-size="13" lengthAdjust="spacing" textLength="123.5571" x="501.4438" y="299.3955">setStatus(newStatus)</text></g><g class="message" data-participant-1="Entity" data-participant-2="UC"><polygon fill="#181818" points="494.2139,331.9492,484.2139,335.9492,494.2139,339.9492,490.2139,335.9492" style="stroke:#181818;stroke-width:1;"/><line style="stroke:#181818;stroke-width:1;stroke-dasharray:2,2;" x1="488.2139" x2="798.4219" y1="335.9492" y2="335.9492"/><text fill="#000000" font-family="sans-serif" font-size="13" font-weight="bold" lengthAdjust="spacing" textLength="7.23" x="500.2139" y="330.6865">8</text><text fill="#000000" font-family="sans-serif" font-size="13" lengthAdjust="spacing" textLength="3.6118" x="511.4438" y="330.6865">&#160;</text></g><g class="message" data-participant-1="UC" data-participant-2="Repo"><polygon fill="#181818" points="680.6255,363.2402,690.6255,367.2402,680.6255,371.2402,684.6255,367.2402" style="stroke:#181818;stroke-width:1;"/><line style="stroke:#181818;stroke-width:1;" x1="483.2139" x2="686.6255" y1="367.2402" y2="367.2402"/><text fill="#000000" font-family="sans-serif" font-size="13" font-weight="bold" lengthAdjust="spacing" textLength="7.23" x="490.2139" y="361.9775">9</text><text fill="#000000" font-family="sans-serif" font-size="13" lengthAdjust="spacing" textLength="75.8481" x="501.4438" y="361.9775">save(aircraft)</text></g><g class="message" data-participant-1="Repo" data-participant-2="DB"><polygon fill="#181818" points="913.3926,394.5313,923.3926,398.5313,913.3926,402.5313,917.3926,398.5313" style="stroke:#181818;stroke-width:1;"/><line style="stroke:#181818;stroke-width:1;" x1="702.6255" x2="919.3926" y1="398.5313" y2="398.5313"/><text fill="#000000" font-family="sans-serif" font-size="13" font-weight="bold" lengthAdjust="spacing" textLength="14.46" x="709.6255" y="393.2686">10</text><text fill="#000000" font-family="sans-serif" font-size="13" lengthAdjust="spacing" textLength="185.3071" x="728.0854" y="393.2686">UPDATE aircraft SET status = ?</text></g><g class="message" data-participant-1="DB" data-participant-2="Repo"><polygon fill="#181818" points="713.6255,425.8223,703.6255,429.8223,713.6255,433.8223,709.6255,429.8223" style="stroke:#181818;stroke-width:1;"/><line style="stroke:#181818;stroke-width:1;stroke-dasharray:2,2;" x1="707.6255" x2="929.3926" y1="429.8223" y2="429.8223"/><text fill="#000000" font-family="sans-serif" font-size="13" font-weight="bold" lengthAdjust="spacing" textLength="14.46" x="719.6255" y="424.5596">11</text><text fill="#000000" font-family="sans-serif" font-size="13" lengthAdjust="spacing" textLength="46.96" x="738.0854" y="424.5596">success</text></g><g class="message" data-participant-1="Repo" data-participant-2="UC"><polygon fill="#181818" points="494.2139,457.1133,484.2139,461.1133,494.2139,465.1133,490.2139,461.1133" style="stroke:#181818;stroke-width:1;"/><line style="stroke:#181818;stroke-width:1;stroke-dasharray:2,2;" x1="488.2139" x2="696.6255" y1="461.1133" y2="461.1133"/><text fill="#000000" font-family="sans-serif" font-size="13" font-weight="bold" lengthAdjust="spacing" textLength="14.46" x="500.2139" y="455.8506">12</text><text fill="#000000" font-family="sans-serif" font-size="13" lengthAdjust="spacing" textLength="88.1626" x="518.6738" y="455.8506">updatedAircraft</text></g><g class="message" data-participant-1="UC" data-participant-2="Ctrl"><polygon fill="#181818" points="313.0786,488.4043,303.0786,492.4043,313.0786,496.4043,309.0786,492.4043" style="stroke:#181818;stroke-width:1;"/><line style="stroke:#181818;stroke-width:1;stroke-dasharray:2,2;" x1="307.0786" x2="477.2139" y1="492.4043" y2="492.4043"/><text fill="#000000" font-family="sans-serif" font-size="13" font-weight="bold" lengthAdjust="spacing" textLength="14.46" x="319.0786" y="487.1416">13</text><text fill="#000000" font-family="sans-serif" font-size="13" lengthAdjust="spacing" textLength="88.1626" x="337.5386" y="487.1416">updatedAircraft</text></g><g class="message" data-participant-1="Ctrl" data-participant-2="ATCC"><polygon fill="#181818" points="38.0552,519.6953,28.0552,523.6953,38.0552,527.6953,34.0552,523.6953" style="stroke:#181818;stroke-width:1;"/><line style="stroke:#181818;stroke-width:1;stroke-dasharray:2,2;" x1="32.0552" x2="296.0786" y1="523.6953" y2="523.6953"/><text fill="#000000" font-family="sans-serif" font-size="13" font-weight="bold" lengthAdjust="spacing" textLength="14.46" x="44.0552" y="518.4326">14</text><text fill="#000000" font-family="sans-serif" font-size="13" lengthAdjust="spacing" textLength="91.0254" x="62.5151" y="518.4326">200 OK (JSON)</text></g><!--SRC=[VLBBRi8m4BpxArQSqgeeg4VKKa6Igkg384W-m2GBifGcaUtGegh_thNZG91eRhPsPdPdTdcZgxBvtA9aFDELXD4y2O8HS0NcmMekjSX4pKjD9I4poNSwg4ejgw90QO61biKbCArphh63RpJNZKeL1boXPQJ_2A-nhfIWCOuMPhxNWROSbLhe8wDMV4lAC0hTorR31MF60endTaAOmeh-B-3pMlZS2Id_H-B-rrTsHl1UD_7onaGX3kIWjSOidMJIW4Jm6xD6eqUqEoZngtNNuv0vbjgsPdvYx4IPBuvht0kb9TUYAfSsSIFHurctbaBKS474JVGU1GdSmlCw_e1kv3E3B19kVEuaCQja3YOHbcCVr-fs7kBQJC6BXoxFMHzk1t4Mseo9ej3jqRlcsQt2eTi-VKbNlyn5yGDwdQl18D9LE4-YKm8KJ09kOu_mD128Qh8CbHeCex77cdTHN4_YV4G3SBFvzbO8Rczl2lUJ2SHltM7rm0Ru1m00]--></g></svg>