<?plantuml 1.2026.1?><svg xmlns="http://www.w3.org/2000/svg" xmlns:xlink="http://www.w3.org/1999/xlink" contentStyleType="text/css" data-diagram-type="SEQUENCE" height="415px" preserveAspectRatio="none" style="width:1378px;height:415px;background:#FFFFFF;" version="1.1" viewBox="0 0 1378 415" width="1378px" zoomAndPan="magnify"><defs/><g><g><title>AircraftController</title><rect fill="#FFFFFF" height="203.9297" style="stroke:#181818;stroke-width:1;" width="10" x="426.6304" y="112.4297"/></g><g><title>SearchAircraftUseCase</title><rect fill="#FFFFFF" height="145.6641" style="stroke:#181818;stroke-width:1;" width="10" x="669.0332" y="141.5625"/></g><g><title>AircraftRepository</title><rect fill="#FFFFFF" height="87.3984" style="stroke:#181818;stroke-width:1;" width="10" x="957.4883" y="170.6953"/></g><g><title>Database</title><rect fill="#FFFFFF" height="29.1328" style="stroke:#181818;stroke-width:1;" width="10" x="1336.3848" y="199.8281"/></g><g class="participant-lifeline" data-entity-uid="part1" data-qualified-name="ATCC" id="part1-lifeline"><g><title>ATCC</title><rect fill="#000000" fill-opacity="0.00000" height="253.0625" width="8" x="22.8398" y="81.2969"/><line style="stroke:#181818;stroke-width:0.5;stroke-dasharray:5,5;" x1="26" x2="26" y1="81.2969" y2="334.3594"/></g></g><g class="participant-lifeline" data-entity-uid="part2" data-qualified-name="Ctrl" id="part2-lifeline"><g><title>AircraftController</title><rect fill="#000000" fill-opacity="0.00000" height="253.0625" width="8" x="427.6304" y="81.2969"/><line style="stroke:#181818;stroke-width:0.5;stroke-dasharray:5,5;" x1="431.2075" x2="431.2075" y1="81.2969" y2="334.3594"/></g></g><g class="participant-lifeline" data-entity-uid="part3" data-qualified-name="UC" id="part3-lifeline"><g><title>SearchAircraftUseCase</title><rect fill="#000000" fill-opacity="0.00000" height="253.0625" width="8" x="670.0332" y="81.2969"/><line style="stroke:#181818;stroke-width:0.5;stroke-dasharray:5,5;" x1="673.7861" x2="673.7861" y1="81.2969" y2="334.3594"/></g></g><g class="participant-lifeline" data-entity-uid="part4" data-qualified-name="Repo" id="part4-lifeline"><g><title>AircraftRepository</title><rect fill="#000000" fill-opacity="0.00000" height="253.0625" width="8" x="958.4883" y="81.2969"/><line style="stroke:#181818;stroke-width:0.5;stroke-dasharray:5,5;" x1="962.1157" x2="962.1157" y1="81.2969" y2="334.3594"/></g></g><g class="participant-lifeline" data-entity-uid="part5" data-qualified-name="DB" id="part5-lifeline"><g><title>Database</title><rect fill="#000000" fill-opacity="0.00000" height="253.0625" width="8" x="1337.3848" y="81.2969"/><line style="stroke:#181818;stroke-width:0.5;stroke-dasharray:5,5;" x1="1340.9844" x2="1340.9844" y1="81.2969" y2="334.3594"/></g></g><g class="participant participant-head" data-entity-uid="part1" data-qualified-name="ATCC" id="part1-head"><text fill="#000000" font-family="sans-serif" font-size="14" lengthAdjust="spacing" textLength="37.6797" x="5" y="77.9951">ATCC</text><ellipse cx="26.8398" cy="13.5" fill="#E2E2F0" rx="8" ry="8" style="stroke:#181818;stroke-width:0.5;"/><path d="M26.8398,21.5 L26.8398,48.5 M13.8398,29.5 L39.8398,29.5 M26.8398,48.5 L13.8398,63.5 M26.8398,48.5 L39.8398,63.5" fill="none" style="stroke:#181818;stroke-width:0.5;"/></g><g class="participant participant-tail" data-entity-uid="part1" data-qualified-name="ATCC" id="part1-tail"><text fill="#000000" font-family="sans-serif" font-size="14" lengthAdjust="spacing" textLength="37.6797" x="5" y="346.3545">ATCC</text><ellipse cx="26.8398" cy="358.1563" fill="#E2E2F0" rx="8" ry="8" style="stroke:#181818;stroke-width:0.5;"/><path d="M26.8398,366.1563 L26.8398,393.1563 M13.8398,374.1563 L39.8398,374.1563 M26.8398,393.1563 L13.8398,408.1563 M26.8398,393.1563 L39.8398,408.1563" fill="none" style="stroke:#181818;stroke-width:0.5;"/></g><g class="participant participant-head" data-entity-uid="part2" data-qualified-name="Ctrl" id="part2-head"><rect fill="#E2E2F0" height="30.2969" rx="2.5" ry="2.5" style="stroke:#181818;stroke-width:0.5;" width="134.8457" x="364.2075" y="50"/><text fill="#000000" font-family="sans-serif" font-size="14" lengthAdjust="spacing" textLength="120.8457" x="371.2075" y="69.9951">AircraftController</text></g><g class="participant participant-tail" data-entity-uid="part2" data-qualified-name="Ctrl" id="part2-tail"><rect fill="#E2E2F0" height="30.2969" rx="2.5" ry="2.5" style="stroke:#181818;stroke-width:0.5;" width="134.8457" x="364.2075" y="333.3594"/><text fill="#000000" font-family="sans-serif" font-size="14" lengthAdjust="spacing" textLength="120.8457" x="371.2075" y="353.3545">AircraftController</text></g><g class="participant participant-head" data-entity-uid="part3" data-qualified-name="UC" id="part3-head"><rect fill="#E2E2F0" height="30.2969" rx="2.5" ry="2.5" style="stroke:#181818;stroke-width:0.5;" width="174.4941" x="586.7861" y="50"/><text fill="#000000" font-family="sans-serif" font-size="14" lengthAdjust="spacing" textLength="160.4941" x="593.7861" y="69.9951">SearchAircraftUseCase</text></g><g class="participant participant-tail" data-entity-uid="part3" data-qualified-name="UC" id="part3-tail"><rect fill="#E2E2F0" height="30.2969" rx="2.5" ry="2.5" style="stroke:#181818;stroke-width:0.5;" width="174.4941" x="586.7861" y="333.3594"/><text fill="#000000" font-family="sans-serif" font-size="14" lengthAdjust="spacing" textLength="160.4941" x="593.7861" y="353.3545">SearchAircraftUseCase</text></g><g class="participant participant-head" data-entity-uid="part4" data-qualified-name="Repo" id="part4-head"><rect fill="#E2E2F0" height="30.2969" rx="2.5" ry="2.5" style="stroke:#181818;stroke-width:0.5;" width="140.7451" x="892.1157" y="50"/><text fill="#000000" font-family="sans-serif" font-size="14" lengthAdjust="spacing" textLength="126.7451" x="899.1157" y="69.9951">AircraftRepository</text></g><g class="participant participant-tail" data-entity-uid="part4" data-qualified-name="Repo" id="part4-tail"><rect fill="#E2E2F0" height="30.2969" rx="2.5" ry="2.5" style="stroke:#181818;stroke-width:0.5;" width="140.7451" x="892.1157" y="333.3594"/><text fill="#000000" font-family="sans-serif" font-size="14" lengthAdjust="spacing" textLength="126.7451" x="899.1157" y="353.3545">AircraftRepository</text></g><g class="participant participant-head" data-entity-uid="part5" data-qualified-name="DB" id="part5-head"><text fill="#000000" font-family="sans-serif" font-size="14" lengthAdjust="spacing" textLength="66.8008" x="1304.9844" y="77.9951">Database</text><path d="M1323.3848,29 C1323.3848,19 1341.3848,19 1341.3848,19 C1341.3848,19 1359.3848,19 1359.3848,29 L1359.3848,55 C1359.3848,65 1341.3848,65 1341.3848,65 C1341.3848,65 1323.3848,65 1323.3848,55 L1323.3848,29" fill="#E2E2F0" style="stroke:#181818;stroke-width:0.5;"/><path d="M1323.3848,29 C1323.3848,39 1341.3848,39 1341.3848,39 C1341.3848,39 1359.3848,39 1359.3848,29" fill="none" style="stroke:#181818;stroke-width:0.5;"/></g><g class="participant participant-tail" data-entity-uid="part5" data-qualified-name="DB" id="part5-tail"><text fill="#000000" font-family="sans-serif" font-size="14" lengthAdjust="spacing" textLength="66.8008" x="1304.9844" y="346.3545">Database</text><path d="M1323.3848,359.6563 C1323.3848,349.6563 1341.3848,349.6563 1341.3848,349.6563 C1341.3848,349.6563 1359.3848,349.6563 1359.3848,359.6563 L1359.3848,385.6563 C1359.3848,395.6563 1341.3848,395.6563 1341.3848,395.6563 C1341.3848,395.6563 1323.3848,395.6563 1323.3848,385.6563 L1323.3848,359.6563" fill="#E2E2F0" style="stroke:#181818;stroke-width:0.5;"/><path d="M1323.3848,359.6563 C1323.3848,369.6563 1341.3848,369.6563 1341.3848,369.6563 C1341.3848,369.6563 1359.3848,369.6563 1359.3848,359.6563" fill="none" style="stroke:#181818;stroke-width:0.5;"/></g><g><title>AircraftController</title><rect fill="#FFFFFF" height="203.9297" style="stroke:#181818;stroke-width:1;" width="10" x="426.6304" y="112.4297"/></g><g><title>SearchAircraftUseCase</title><rect fill="#FFFFFF" height="145.6641" style="stroke:#181818;stroke-width:1;" width="10" x="669.0332" y="141.5625"/></g><g><title>AircraftRepository</title><rect fill="#FFFFFF" height="87.3984" style="stroke:#181818;stroke-width:1;" width="10" x="957.4883" y="170.6953"/></g><g><title>Database</title><rect fill="#FFFFFF" height="29.1328" style="stroke:#181818;stroke-width:1;" width="10" x="1336.3848" y="199.8281"/></g><g class="message" data-entity-1="part1" data-entity-2="part2" id="msg1"><polygon fill="#181818" points="414.6304,108.4297,424.6304,112.4297,414.6304,116.4297,418.6304,112.4297" style="stroke:#181818;stroke-width:1;"/><line style="stroke:#181818;stroke-width:1;" x1="26.8398" x2="420.6304" y1="112.4297" y2="112.4297"/><text fill="#000000" font-family="sans-serif" font-size="13" font-weight="bold" lengthAdjust="spacing" textLength="9.0454" x="33.8398" y="107.3638">1</text><text fill="#000000" font-family="sans-serif" font-size="13" lengthAdjust="spacing" textLength="367.7451" x="46.8853" y="107.3638">GET /api/aircrafts/search?modelId=X&amp;status=Y&amp;year=Z</text></g><g class="message" data-entity-1="part2" data-entity-2="part3" id="msg2"><polygon fill="#181818" points="657.0332,137.5625,667.0332,141.5625,657.0332,145.5625,661.0332,141.5625" style="stroke:#181818;stroke-width:1;"/><line style="stroke:#181818;stroke-width:1;" x1="436.6304" x2="663.0332" y1="141.5625" y2="141.5625"/><text fill="#000000" font-family="sans-serif" font-size="13" font-weight="bold" lengthAdjust="spacing" textLength="9.0454" x="443.6304" y="136.4966">2</text><text fill="#000000" font-family="sans-serif" font-size="13" lengthAdjust="spacing" textLength="200.3574" x="456.6758" y="136.4966">execute(modelId, status, year)</text></g><g class="message" data-entity-1="part3" data-entity-2="part4" id="msg3"><polygon fill="#181818" points="945.4883,166.6953,955.4883,170.6953,945.4883,174.6953,949.4883,170.6953" style="stroke:#181818;stroke-width:1;"/><line style="stroke:#181818;stroke-width:1;" x1="679.0332" x2="951.4883" y1="170.6953" y2="170.6953"/><text fill="#000000" font-family="sans-serif" font-size="13" font-weight="bold" lengthAdjust="spacing" textLength="9.0454" x="686.0332" y="165.6294">3</text><text fill="#000000" font-family="sans-serif" font-size="13" lengthAdjust="spacing" textLength="246.4097" x="699.0786" y="165.6294">searchAircrafts(modelId, status, year)</text></g><g class="message" data-entity-1="part4" data-entity-2="part5" id="msg4"><polygon fill="#181818" points="1324.3848,195.8281,1334.3848,199.8281,1324.3848,203.8281,1328.3848,199.8281" style="stroke:#181818;stroke-width:1;"/><line style="stroke:#181818;stroke-width:1;" x1="967.4883" x2="1330.3848" y1="199.8281" y2="199.8281"/><text fill="#000000" font-family="sans-serif" font-size="13" font-weight="bold" lengthAdjust="spacing" textLength="9.0454" x="974.4883" y="194.7622">4</text><text fill="#000000" font-family="sans-serif" font-size="13" lengthAdjust="spacing" textLength="336.8511" x="987.5337" y="194.7622">SELECT * FROM aircraft WHERE ... (Dynamic Query)</text></g><g class="message" data-entity-1="part5" data-entity-2="part4" id="msg5"><polygon fill="#181818" points="978.4883,224.9609,968.4883,228.9609,978.4883,232.9609,974.4883,228.9609" style="stroke:#181818;stroke-width:1;"/><line style="stroke:#181818;stroke-width:1;stroke-dasharray:2,2;" x1="972.4883" x2="1340.3848" y1="228.9609" y2="228.9609"/><text fill="#000000" font-family="sans-serif" font-size="13" font-weight="bold" lengthAdjust="spacing" textLength="9.0454" x="984.4883" y="223.895">5</text><text fill="#000000" font-family="sans-serif" font-size="13" lengthAdjust="spacing" textLength="88.7021" x="997.5337" y="223.895">list of records</text></g><g class="message" data-entity-1="part4" data-entity-2="part3" id="msg6"><polygon fill="#181818" points="690.0332,254.0938,680.0332,258.0938,690.0332,262.0938,686.0332,258.0938" style="stroke:#181818;stroke-width:1;"/><line style="stroke:#181818;stroke-width:1;stroke-dasharray:2,2;" x1="684.0332" x2="961.4883" y1="258.0938" y2="258.0938"/><text fill="#000000" font-family="sans-serif" font-size="13" font-weight="bold" lengthAdjust="spacing" textLength="9.0454" x="696.0332" y="253.0278">6</text><text fill="#000000" font-family="sans-serif" font-size="13" lengthAdjust="spacing" textLength="92.4917" x="709.0786" y="253.0278">List&lt;Aircraft&gt;</text></g><g class="message" data-entity-1="part3" data-entity-2="part2" id="msg7"><polygon fill="#181818" points="447.6304,283.2266,437.6304,287.2266,447.6304,291.2266,443.6304,287.2266" style="stroke:#181818;stroke-width:1;"/><line style="stroke:#181818;stroke-width:1;stroke-dasharray:2,2;" x1="441.6304" x2="673.0332" y1="287.2266" y2="287.2266"/><text fill="#000000" font-family="sans-serif" font-size="13" font-weight="bold" lengthAdjust="spacing" textLength="9.0454" x="453.6304" y="282.1606">7</text><text fill="#000000" font-family="sans-serif" font-size="13" lengthAdjust="spacing" textLength="43.8369" x="466.6758" y="282.1606">results</text></g><g class="message" data-entity-1="part2" data-entity-2="part1" id="msg8"><polygon fill="#181818" points="37.8398,312.3594,27.8398,316.3594,37.8398,320.3594,33.8398,316.3594" style="stroke:#181818;stroke-width:1;"/><line style="stroke:#181818;stroke-width:1;stroke-dasharray:2,2;" x1="31.8398" x2="430.6304" y1="316.3594" y2="316.3594"/><text fill="#000000" font-family="sans-serif" font-size="13" font-weight="bold" lengthAdjust="spacing" textLength="9.0454" x="43.8398" y="311.2935">8</text><text fill="#000000" font-family="sans-serif" font-size="13" lengthAdjust="spacing" textLength="133.396" x="56.8853" y="311.2935">200 OK (JSON Array)</text></g><?plantuml-src XP5BRy8m48Jl_XKh3eXMlDGZAbIGf4zQL23guxOaHhKKucZjLCs_xzeX8XogtcpjpEUPDPPMv-LX9qbWOZL1PxuDWWwW0NSG1P9LYIemjpnIb13kRQ1pIphB97bXO2ax5suaKlBLo6CZ0pJIQ-C_a6jPQACuGELbxYfIjBXZ8tJ2uydFmeKGBXiCPlvfcC1Tj8KH5cg4HvmP6H_Xvg1JcJsaq_UkiMXBC_teLZoPVhgwwXkjhECBJs9Y731F_iYajB9tTFUXDlV1UIzELcuZOX_41MQZEIjk_WNudjxBZ731X4sqZ88jNCBjUlKCJHzuku_M4Go7G-Y5LOu7bS1hAQbgiNWlJ1YSmcJAMD1x89beIer8PLjRlzeqNhBskiazQqjzHD_oj6-Ifipi6T6jejuXo_ptJE1gF8RL4_GUDwiNc1CXnsrPdFmN?></g></svg>