<?plantuml 1.2026.1?><svg xmlns="http://www.w3.org/2000/svg" xmlns:xlink="http://www.w3.org/1999/xlink" contentStyleType="text/css" data-diagram-type="SEQUENCE" height="910px" preserveAspectRatio="none" style="width:2139px;height:910px;background:#FFFFFF;" version="1.1" viewBox="0 0 2139 910" width="2139px" zoomAndPan="magnify"><defs/><g><g><title>AircraftController</title><rect fill="#FFFFFF" height="706.7969" style="stroke:#181818;stroke-width:1;" width="10" x="690.584" y="112.4297"/></g><g><title>CalculateFuelEfficiencyUseCase</title><rect fill="#FFFFFF" height="618.3984" style="stroke:#181818;stroke-width:1;" width="10" x="1114.001" y="141.5625"/></g><g><title>AircraftRepository</title><rect fill="#FFFFFF" height="87.3984" style="stroke:#181818;stroke-width:1;" width="10" x="1413.9707" y="170.6953"/></g><g><title>RouteRepository</title><rect fill="#FFFFFF" height="87.3984" style="stroke:#181818;stroke-width:1;" width="10" x="1559.5137" y="466.8281"/></g><g><title>Aircraft</title><rect fill="#FFFFFF" height="29.1328" style="stroke:#181818;stroke-width:1;" width="10" x="1667.5205" y="384.4297"/></g><g><title>Database</title><rect fill="#FFFFFF" height="29.1328" style="stroke:#181818;stroke-width:1;" width="10" x="2071.3174" y="199.8281"/></g><g><title>Database</title><rect fill="#FFFFFF" height="29.1328" style="stroke:#181818;stroke-width:1;" width="10" x="2071.3174" y="495.9609"/></g><rect fill="none" height="539.1328" style="stroke:#000000;stroke-width:1.5;" width="2122.7178" x="10" y="273.0938"/><rect fill="none" height="273" style="stroke:#000000;stroke-width:1.5;" width="2102.7178" x="20" y="428.5625"/><rect fill="none" height="125.3359" style="stroke:#000000;stroke-width:1.5;" width="1521.0854" x="30" y="569.2266"/><g class="participant-lifeline" data-entity-uid="part1" data-qualified-name="ATCC" id="part1-lifeline"><g><title>ATCC</title><rect fill="#000000" fill-opacity="0.00000" height="747.9297" width="8" x="57.8398" y="81.2969"/><line style="stroke:#181818;stroke-width:0.5;stroke-dasharray:5,5;" x1="61" x2="61" y1="81.2969" y2="829.2266"/></g></g><g class="participant-lifeline" data-entity-uid="part2" data-qualified-name="Ctrl" id="part2-lifeline"><g><title>AircraftController</title><rect fill="#000000" fill-opacity="0.00000" height="747.9297" width="8" x="691.584" y="81.2969"/><line style="stroke:#181818;stroke-width:0.5;stroke-dasharray:5,5;" x1="695.1611" x2="695.1611" y1="81.2969" y2="829.2266"/></g></g><g class="participant-lifeline" data-entity-uid="part3" data-qualified-name="UC" id="part3-lifeline"><g><title>CalculateFuelEfficiencyUseCase</title><rect fill="#000000" fill-opacity="0.00000" height="747.9297" width="8" x="1115.001" y="81.2969"/><line style="stroke:#181818;stroke-width:0.5;stroke-dasharray:5,5;" x1="1118.5615" x2="1118.5615" y1="81.2969" y2="829.2266"/></g></g><g class="participant-lifeline" data-entity-uid="part4" data-qualified-name="Repo" id="part4-lifeline"><g><title>AircraftRepository</title><rect fill="#000000" fill-opacity="0.00000" height="747.9297" width="8" x="1414.9707" y="81.2969"/><line style="stroke:#181818;stroke-width:0.5;stroke-dasharray:5,5;" x1="1418.5981" x2="1418.5981" y1="81.2969" y2="829.2266"/></g></g><g class="participant-lifeline" data-entity-uid="part5" data-qualified-name="RouteRepo" id="part5-lifeline"><g><title>RouteRepository</title><rect fill="#000000" fill-opacity="0.00000" height="747.9297" width="8" x="1560.5137" y="81.2969"/><line style="stroke:#181818;stroke-width:0.5;stroke-dasharray:5,5;" x1="1564.3433" x2="1564.3433" y1="81.2969" y2="829.2266"/></g></g><g class="participant-lifeline" data-entity-uid="part6" data-qualified-name="Aircraft" id="part6-lifeline"><g><title>Aircraft</title><rect fill="#000000" fill-opacity="0.00000" height="747.9297" width="8" x="1668.5205" y="81.2969"/><line style="stroke:#181818;stroke-width:0.5;stroke-dasharray:5,5;" x1="1671.6841" x2="1671.6841" y1="81.2969" y2="829.2266"/></g></g><g class="participant-lifeline" data-entity-uid="part7" data-qualified-name="DB" id="part7-lifeline"><g><title>Database</title><rect fill="#000000" fill-opacity="0.00000" height="747.9297" width="8" x="2072.3174" y="81.2969"/><line style="stroke:#181818;stroke-width:0.5;stroke-dasharray:5,5;" x1="2075.917" x2="2075.917" y1="81.2969" y2="829.2266"/></g></g><g class="participant participant-head" data-entity-uid="part1" data-qualified-name="ATCC" id="part1-head"><text fill="#000000" font-family="sans-serif" font-size="14" lengthAdjust="spacing" textLength="37.6797" x="40" y="77.9951">ATCC</text><ellipse cx="61.8398" cy="13.5" fill="#E2E2F0" rx="8" ry="8" style="stroke:#181818;stroke-width:0.5;"/><path d="M61.8398,21.5 L61.8398,48.5 M48.8398,29.5 L74.8398,29.5 M61.8398,48.5 L48.8398,63.5 M61.8398,48.5 L74.8398,63.5" fill="none" style="stroke:#181818;stroke-width:0.5;"/></g><g class="participant participant-tail" data-entity-uid="part1" data-qualified-name="ATCC" id="part1-tail"><text fill="#000000" font-family="sans-serif" font-size="14" lengthAdjust="spacing" textLength="37.6797" x="40" y="841.2217">ATCC</text><ellipse cx="61.8398" cy="853.0234" fill="#E2E2F0" rx="8" ry="8" style="stroke:#181818;stroke-width:0.5;"/><path d="M61.8398,861.0234 L61.8398,888.0234 M48.8398,869.0234 L74.8398,869.0234 M61.8398,888.0234 L48.8398,903.0234 M61.8398,888.0234 L74.8398,903.0234" fill="none" style="stroke:#181818;stroke-width:0.5;"/></g><g class="participant participant-head" data-entity-uid="part2" data-qualified-name="Ctrl" id="part2-head"><rect fill="#E2E2F0" height="30.2969" rx="2.5" ry="2.5" style="stroke:#181818;stroke-width:0.5;" width="134.8457" x="628.1611" y="50"/><text fill="#000000" font-family="sans-serif" font-size="14" lengthAdjust="spacing" textLength="120.8457" x="635.1611" y="69.9951">AircraftController</text></g><g class="participant participant-tail" data-entity-uid="part2" data-qualified-name="Ctrl" id="part2-tail"><rect fill="#E2E2F0" height="30.2969" rx="2.5" ry="2.5" style="stroke:#181818;stroke-width:0.5;" width="134.8457" x="628.1611" y="828.2266"/><text fill="#000000" font-family="sans-serif" font-size="14" lengthAdjust="spacing" textLength="120.8457" x="635.1611" y="848.2217">AircraftController</text></g><g class="participant participant-head" data-entity-uid="part3" data-qualified-name="UC" id="part3-head"><rect fill="#E2E2F0" height="30.2969" rx="2.5" ry="2.5" style="stroke:#181818;stroke-width:0.5;" width="236.8789" x="1000.5615" y="50"/><text fill="#000000" font-family="sans-serif" font-size="14" lengthAdjust="spacing" textLength="222.8789" x="1007.5615" y="69.9951">CalculateFuelEfficiencyUseCase</text></g><g class="participant participant-tail" data-entity-uid="part3" data-qualified-name="UC" id="part3-tail"><rect fill="#E2E2F0" height="30.2969" rx="2.5" ry="2.5" style="stroke:#181818;stroke-width:0.5;" width="236.8789" x="1000.5615" y="828.2266"/><text fill="#000000" font-family="sans-serif" font-size="14" lengthAdjust="spacing" textLength="222.8789" x="1007.5615" y="848.2217">CalculateFuelEfficiencyUseCase</text></g><g class="participant participant-head" data-entity-uid="part4" data-qualified-name="Repo" id="part4-head"><rect fill="#E2E2F0" height="30.2969" rx="2.5" ry="2.5" style="stroke:#181818;stroke-width:0.5;" width="140.7451" x="1348.5981" y="50"/><text fill="#000000" font-family="sans-serif" font-size="14" lengthAdjust="spacing" textLength="126.7451" x="1355.5981" y="69.9951">AircraftRepository</text></g><g class="participant participant-tail" data-entity-uid="part4" data-qualified-name="Repo" id="part4-tail"><rect fill="#E2E2F0" height="30.2969" rx="2.5" ry="2.5" style="stroke:#181818;stroke-width:0.5;" width="140.7451" x="1348.5981" y="828.2266"/><text fill="#000000" font-family="sans-serif" font-size="14" lengthAdjust="spacing" textLength="126.7451" x="1355.5981" y="848.2217">AircraftRepository</text></g><g class="participant participant-head" data-entity-uid="part5" data-qualified-name="RouteRepo" id="part5-head"><rect fill="#E2E2F0" height="30.2969" rx="2.5" ry="2.5" style="stroke:#181818;stroke-width:0.5;" width="130.3408" x="1499.3433" y="50"/><text fill="#000000" font-family="sans-serif" font-size="14" lengthAdjust="spacing" textLength="116.3408" x="1506.3433" y="69.9951">RouteRepository</text></g><g class="participant participant-tail" data-entity-uid="part5" data-qualified-name="RouteRepo" id="part5-tail"><rect fill="#E2E2F0" height="30.2969" rx="2.5" ry="2.5" style="stroke:#181818;stroke-width:0.5;" width="130.3408" x="1499.3433" y="828.2266"/><text fill="#000000" font-family="sans-serif" font-size="14" lengthAdjust="spacing" textLength="116.3408" x="1506.3433" y="848.2217">RouteRepository</text></g><g class="participant participant-head" data-entity-uid="part6" data-qualified-name="Aircraft" id="part6-head"><rect fill="#E2E2F0" height="30.2969" rx="2.5" ry="2.5" style="stroke:#181818;stroke-width:0.5;" width="65.6729" x="1639.6841" y="50"/><text fill="#000000" font-family="sans-serif" font-size="14" lengthAdjust="spacing" textLength="51.6729" x="1646.6841" y="69.9951">Aircraft</text></g><g class="participant participant-tail" data-entity-uid="part6" data-qualified-name="Aircraft" id="part6-tail"><rect fill="#E2E2F0" height="30.2969" rx="2.5" ry="2.5" style="stroke:#181818;stroke-width:0.5;" width="65.6729" x="1639.6841" y="828.2266"/><text fill="#000000" font-family="sans-serif" font-size="14" lengthAdjust="spacing" textLength="51.6729" x="1646.6841" y="848.2217">Aircraft</text></g><g class="participant participant-head" data-entity-uid="part7" data-qualified-name="DB" id="part7-head"><text fill="#000000" font-family="sans-serif" font-size="14" lengthAdjust="spacing" textLength="66.8008" x="2039.917" y="77.9951">Database</text><path d="M2058.3174,29 C2058.3174,19 2076.3174,19 2076.3174,19 C2076.3174,19 2094.3174,19 2094.3174,29 L2094.3174,55 C2094.3174,65 2076.3174,65 2076.3174,65 C2076.3174,65 2058.3174,65 2058.3174,55 L2058.3174,29" fill="#E2E2F0" style="stroke:#181818;stroke-width:0.5;"/><path d="M2058.3174,29 C2058.3174,39 2076.3174,39 2076.3174,39 C2076.3174,39 2094.3174,39 2094.3174,29" fill="none" style="stroke:#181818;stroke-width:0.5;"/></g><g class="participant participant-tail" data-entity-uid="part7" data-qualified-name="DB" id="part7-tail"><text fill="#000000" font-family="sans-serif" font-size="14" lengthAdjust="spacing" textLength="66.8008" x="2039.917" y="841.2217">Database</text><path d="M2058.3174,854.5234 C2058.3174,844.5234 2076.3174,844.5234 2076.3174,844.5234 C2076.3174,844.5234 2094.3174,844.5234 2094.3174,854.5234 L2094.3174,880.5234 C2094.3174,890.5234 2076.3174,890.5234 2076.3174,890.5234 C2076.3174,890.5234 2058.3174,890.5234 2058.3174,880.5234 L2058.3174,854.5234" fill="#E2E2F0" style="stroke:#181818;stroke-width:0.5;"/><path d="M2058.3174,854.5234 C2058.3174,864.5234 2076.3174,864.5234 2076.3174,864.5234 C2076.3174,864.5234 2094.3174,864.5234 2094.3174,854.5234" fill="none" style="stroke:#181818;stroke-width:0.5;"/></g><g><title>AircraftController</title><rect fill="#FFFFFF" height="706.7969" style="stroke:#181818;stroke-width:1;" width="10" x="690.584" y="112.4297"/></g><g><title>CalculateFuelEfficiencyUseCase</title><rect fill="#FFFFFF" height="618.3984" style="stroke:#181818;stroke-width:1;" width="10" x="1114.001" y="141.5625"/></g><g><title>AircraftRepository</title><rect fill="#FFFFFF" height="87.3984" style="stroke:#181818;stroke-width:1;" width="10" x="1413.9707" y="170.6953"/></g><g><title>RouteRepository</title><rect fill="#FFFFFF" height="87.3984" style="stroke:#181818;stroke-width:1;" width="10" x="1559.5137" y="466.8281"/></g><g><title>Aircraft</title><rect fill="#FFFFFF" height="29.1328" style="stroke:#181818;stroke-width:1;" width="10" x="1667.5205" y="384.4297"/></g><g><title>Database</title><rect fill="#FFFFFF" height="29.1328" style="stroke:#181818;stroke-width:1;" width="10" x="2071.3174" y="199.8281"/></g><g><title>Database</title><rect fill="#FFFFFF" height="29.1328" style="stroke:#181818;stroke-width:1;" width="10" x="2071.3174" y="495.9609"/></g><g class="message" data-entity-1="part1" data-entity-2="part2" id="msg1"><polygon fill="#181818" points="678.584,108.4297,688.584,112.4297,678.584,116.4297,682.584,112.4297" style="stroke:#181818;stroke-width:1;"/><line style="stroke:#181818;stroke-width:1;" x1="61.8398" x2="684.584" y1="112.4297" y2="112.4297"/><text fill="#000000" font-family="sans-serif" font-size="13" font-weight="bold" lengthAdjust="spacing" textLength="9.0454" x="68.8398" y="107.3638">1</text><text fill="#000000" font-family="sans-serif" font-size="13" lengthAdjust="spacing" textLength="596.6987" x="81.8853" y="107.3638">GET /api/aircrafts/{registration}/fuel-efficiency?origin={origin}&amp;destination={destination}</text></g><g class="message" data-entity-1="part2" data-entity-2="part3" id="msg2"><polygon fill="#181818" points="1102.001,137.5625,1112.001,141.5625,1102.001,145.5625,1106.001,141.5625" style="stroke:#181818;stroke-width:1;"/><line style="stroke:#181818;stroke-width:1;" x1="700.584" x2="1108.001" y1="141.5625" y2="141.5625"/><text fill="#000000" font-family="sans-serif" font-size="13" font-weight="bold" lengthAdjust="spacing" textLength="9.0454" x="707.584" y="136.4966">2</text><text fill="#000000" font-family="sans-serif" font-size="13" lengthAdjust="spacing" textLength="263.9863" x="720.6294" y="136.4966">execute(registration, origin, destination)</text></g><g class="message" data-entity-1="part3" data-entity-2="part4" id="msg3"><polygon fill="#181818" points="1401.9707,166.6953,1411.9707,170.6953,1401.9707,174.6953,1405.9707,170.6953" style="stroke:#181818;stroke-width:1;"/><line style="stroke:#181818;stroke-width:1;" x1="1124.001" x2="1407.9707" y1="170.6953" y2="170.6953"/><text fill="#000000" font-family="sans-serif" font-size="13" font-weight="bold" lengthAdjust="spacing" textLength="9.0454" x="1131.001" y="165.6294">3</text><text fill="#000000" font-family="sans-serif" font-size="13" lengthAdjust="spacing" textLength="257.9243" x="1144.0464" y="165.6294">findByRegistrationNumber(registration)</text></g><g class="message" data-entity-1="part4" data-entity-2="part7" id="msg4"><polygon fill="#181818" points="2059.3174,195.8281,2069.3174,199.8281,2059.3174,203.8281,2063.3174,199.8281" style="stroke:#181818;stroke-width:1;"/><line style="stroke:#181818;stroke-width:1;" x1="1423.9707" x2="2065.3174" y1="199.8281" y2="199.8281"/><text fill="#000000" font-family="sans-serif" font-size="13" font-weight="bold" lengthAdjust="spacing" textLength="9.0454" x="1430.9707" y="194.7622">4</text><text fill="#000000" font-family="sans-serif" font-size="13" lengthAdjust="spacing" textLength="357.1572" x="1444.0161" y="194.7622">SELECT FROM aircraft WHERE registration_number = ?</text></g><g class="message" data-entity-1="part7" data-entity-2="part4" id="msg5"><polygon fill="#181818" points="1434.9707,224.9609,1424.9707,228.9609,1434.9707,232.9609,1430.9707,228.9609" style="stroke:#181818;stroke-width:1;"/><line style="stroke:#181818;stroke-width:1;stroke-dasharray:2,2;" x1="1428.9707" x2="2075.3174" y1="228.9609" y2="228.9609"/><text fill="#000000" font-family="sans-serif" font-size="13" font-weight="bold" lengthAdjust="spacing" textLength="9.0454" x="1440.9707" y="223.895">5</text><text fill="#000000" font-family="sans-serif" font-size="13" lengthAdjust="spacing" textLength="93.228" x="1454.0161" y="223.895">aircraft record</text></g><g class="message" data-entity-1="part4" data-entity-2="part3" id="msg6"><polygon fill="#181818" points="1135.001,254.0938,1125.001,258.0938,1135.001,262.0938,1131.001,258.0938" style="stroke:#181818;stroke-width:1;"/><line style="stroke:#181818;stroke-width:1;stroke-dasharray:2,2;" x1="1129.001" x2="1417.9707" y1="258.0938" y2="258.0938"/><text fill="#000000" font-family="sans-serif" font-size="13" font-weight="bold" lengthAdjust="spacing" textLength="9.0454" x="1141.001" y="253.0278">6</text><text fill="#000000" font-family="sans-serif" font-size="13" lengthAdjust="spacing" textLength="124.7314" x="1154.0464" y="253.0278">Optional&lt;Aircraft&gt;</text></g><path d="M10,273.0938 L74.4429,273.0938 L74.4429,280.2266 L64.4429,290.2266 L10,290.2266 L10,273.0938" fill="#EEEEEE" style="stroke:#000000;stroke-width:1.5;"/><rect fill="none" height="539.1328" style="stroke:#000000;stroke-width:1.5;" width="2122.7178" x="10" y="273.0938"/><text fill="#000000" font-family="sans-serif" font-size="13" font-weight="bold" lengthAdjust="spacing" textLength="19.4429" x="25" y="286.1606">alt</text><text fill="#000000" font-family="sans-serif" font-size="11" font-weight="bold" lengthAdjust="spacing" textLength="120.2695" x="89.4429" y="285.3042">[aircraft not found]</text><g class="message" data-entity-1="part3" data-entity-2="part2" id="msg7"><polygon fill="#181818" points="711.584,307.3594,701.584,311.3594,711.584,315.3594,707.584,311.3594" style="stroke:#181818;stroke-width:1;"/><line style="stroke:#181818;stroke-width:1;stroke-dasharray:2,2;" x1="705.584" x2="1113.001" y1="311.3594" y2="311.3594"/><text fill="#000000" font-family="sans-serif" font-size="13" font-weight="bold" lengthAdjust="spacing" textLength="9.0454" x="717.584" y="306.2935">7</text><text fill="#000000" font-family="sans-serif" font-size="13" lengthAdjust="spacing" textLength="223.2979" x="730.6294" y="306.2935">throws AircraftNotFoundException</text></g><g class="message" data-entity-1="part2" data-entity-2="part1" id="msg8"><polygon fill="#181818" points="72.8398,336.4922,62.8398,340.4922,72.8398,344.4922,68.8398,340.4922" style="stroke:#181818;stroke-width:1;"/><line style="stroke:#181818;stroke-width:1;stroke-dasharray:2,2;" x1="66.8398" x2="689.584" y1="340.4922" y2="340.4922"/><text fill="#000000" font-family="sans-serif" font-size="13" font-weight="bold" lengthAdjust="spacing" textLength="9.0454" x="78.8398" y="335.4263">8</text><text fill="#000000" font-family="sans-serif" font-size="13" lengthAdjust="spacing" textLength="96.0146" x="91.8853" y="335.4263">404 Not Found</text></g><line style="stroke:#000000;stroke-width:1;stroke-dasharray:2,2;" x1="10" x2="2132.7178" y1="349.4922" y2="349.4922"/><text fill="#000000" font-family="sans-serif" font-size="11" font-weight="bold" lengthAdjust="spacing" textLength="95.7935" x="15" y="359.7026">[aircraft found]</text><g class="message" data-entity-1="part3" data-entity-2="part6" id="msg9"><polygon fill="#181818" points="1655.5205,380.4297,1665.5205,384.4297,1655.5205,388.4297,1659.5205,384.4297" style="stroke:#181818;stroke-width:1;"/><line style="stroke:#181818;stroke-width:1;" x1="1124.001" x2="1661.5205" y1="384.4297" y2="384.4297"/><text fill="#000000" font-family="sans-serif" font-size="13" font-weight="bold" lengthAdjust="spacing" textLength="9.0454" x="1131.001" y="379.3638">9</text><text fill="#000000" font-family="sans-serif" font-size="13" lengthAdjust="spacing" textLength="249.4058" x="1144.0464" y="379.3638">getFuelConsumptionPerDistanceUnit()</text></g><g class="message" data-entity-1="part6" data-entity-2="part3" id="msg10"><polygon fill="#181818" points="1135.001,409.5625,1125.001,413.5625,1135.001,417.5625,1131.001,413.5625" style="stroke:#181818;stroke-width:1;"/><line style="stroke:#181818;stroke-width:1;stroke-dasharray:2,2;" x1="1129.001" x2="1671.5205" y1="413.5625" y2="413.5625"/><text fill="#000000" font-family="sans-serif" font-size="13" font-weight="bold" lengthAdjust="spacing" textLength="18.0908" x="1141.001" y="408.4966">10</text><text fill="#000000" font-family="sans-serif" font-size="13" lengthAdjust="spacing" textLength="110.5254" x="1163.0918" y="408.4966">fuelConsumption</text></g><path d="M20,428.5625 L84.4429,428.5625 L84.4429,435.6953 L74.4429,445.6953 L20,445.6953 L20,428.5625" fill="#EEEEEE" style="stroke:#000000;stroke-width:1.5;"/><rect fill="none" height="273" style="stroke:#000000;stroke-width:1.5;" width="2102.7178" x="20" y="428.5625"/><text fill="#000000" font-family="sans-serif" font-size="13" font-weight="bold" lengthAdjust="spacing" textLength="19.4429" x="35" y="441.6294">alt</text><text fill="#000000" font-family="sans-serif" font-size="11" font-weight="bold" lengthAdjust="spacing" textLength="206.4863" x="99.4429" y="440.7729">[origin and destination provided]</text><g class="message" data-entity-1="part3" data-entity-2="part5" id="msg11"><polygon fill="#181818" points="1547.5137,462.8281,1557.5137,466.8281,1547.5137,470.8281,1551.5137,466.8281" style="stroke:#181818;stroke-width:1;"/><line style="stroke:#181818;stroke-width:1;" x1="1124.001" x2="1553.5137" y1="466.8281" y2="466.8281"/><text fill="#000000" font-family="sans-serif" font-size="13" font-weight="bold" lengthAdjust="spacing" textLength="18.0908" x="1131.001" y="461.7622">11</text><text fill="#000000" font-family="sans-serif" font-size="13" lengthAdjust="spacing" textLength="308.8262" x="1153.0918" y="461.7622">findByOriginAndDestination(origin, destination)</text></g><g class="message" data-entity-1="part5" data-entity-2="part7" id="msg12"><polygon fill="#181818" points="2059.3174,491.9609,2069.3174,495.9609,2059.3174,499.9609,2063.3174,495.9609" style="stroke:#181818;stroke-width:1;"/><line style="stroke:#181818;stroke-width:1;" x1="1569.5137" x2="2065.3174" y1="495.9609" y2="495.9609"/><text fill="#000000" font-family="sans-serif" font-size="13" font-weight="bold" lengthAdjust="spacing" textLength="18.0908" x="1576.5137" y="490.895">12</text><text fill="#000000" font-family="sans-serif" font-size="13" lengthAdjust="spacing" textLength="460.7129" x="1598.6045" y="490.895">SELECT FROM route WHERE origin_code = ? AND destination_code = ?</text></g><g class="message" data-entity-1="part7" data-entity-2="part5" id="msg13"><polygon fill="#181818" points="1580.5137,521.0938,1570.5137,525.0938,1580.5137,529.0938,1576.5137,525.0938" style="stroke:#181818;stroke-width:1;"/><line style="stroke:#181818;stroke-width:1;stroke-dasharray:2,2;" x1="1574.5137" x2="2075.3174" y1="525.0938" y2="525.0938"/><text fill="#000000" font-family="sans-serif" font-size="13" font-weight="bold" lengthAdjust="spacing" textLength="18.0908" x="1586.5137" y="520.0278">13</text><text fill="#000000" font-family="sans-serif" font-size="13" lengthAdjust="spacing" textLength="80.8057" x="1608.6045" y="520.0278">route record</text></g><g class="message" data-entity-1="part5" data-entity-2="part3" id="msg14"><polygon fill="#181818" points="1135.001,550.2266,1125.001,554.2266,1135.001,558.2266,1131.001,554.2266" style="stroke:#181818;stroke-width:1;"/><line style="stroke:#181818;stroke-width:1;stroke-dasharray:2,2;" x1="1129.001" x2="1563.5137" y1="554.2266" y2="554.2266"/><text fill="#000000" font-family="sans-serif" font-size="13" font-weight="bold" lengthAdjust="spacing" textLength="18.0908" x="1141.001" y="549.1606">14</text><text fill="#000000" font-family="sans-serif" font-size="13" lengthAdjust="spacing" textLength="115.0703" x="1163.0918" y="549.1606">Optional&lt;Route&gt;</text></g><path d="M30,569.2266 L94.4429,569.2266 L94.4429,576.3594 L84.4429,586.3594 L30,586.3594 L30,569.2266" fill="#EEEEEE" style="stroke:#000000;stroke-width:1.5;"/><rect fill="none" height="125.3359" style="stroke:#000000;stroke-width:1.5;" width="1521.0854" x="30" y="569.2266"/><text fill="#000000" font-family="sans-serif" font-size="13" font-weight="bold" lengthAdjust="spacing" textLength="19.4429" x="45" y="582.2935">alt</text><text fill="#000000" font-family="sans-serif" font-size="11" font-weight="bold" lengthAdjust="spacing" textLength="107.771" x="109.4429" y="581.437">[route not found]</text><g class="message" data-entity-1="part3" data-entity-2="part2" id="msg15"><polygon fill="#181818" points="711.584,603.4922,701.584,607.4922,711.584,611.4922,707.584,607.4922" style="stroke:#181818;stroke-width:1;"/><line style="stroke:#181818;stroke-width:1;stroke-dasharray:2,2;" x1="705.584" x2="1113.001" y1="607.4922" y2="607.4922"/><text fill="#000000" font-family="sans-serif" font-size="13" font-weight="bold" lengthAdjust="spacing" textLength="18.0908" x="717.584" y="602.4263">15</text><text fill="#000000" font-family="sans-serif" font-size="13" lengthAdjust="spacing" textLength="215.9917" x="739.6748" y="602.4263">throws IllegalArgumentException</text></g><g class="message" data-entity-1="part2" data-entity-2="part1" id="msg16"><polygon fill="#181818" points="72.8398,632.625,62.8398,636.625,72.8398,640.625,68.8398,636.625" style="stroke:#181818;stroke-width:1;"/><line style="stroke:#181818;stroke-width:1;stroke-dasharray:2,2;" x1="66.8398" x2="689.584" y1="636.625" y2="636.625"/><text fill="#000000" font-family="sans-serif" font-size="13" font-weight="bold" lengthAdjust="spacing" textLength="18.0908" x="78.8398" y="631.5591">16</text><text fill="#000000" font-family="sans-serif" font-size="13" lengthAdjust="spacing" textLength="111.6045" x="100.9307" y="631.5591">400 Bad Request</text></g><line style="stroke:#000000;stroke-width:1;stroke-dasharray:2,2;" x1="30" x2="1551.0854" y1="645.625" y2="645.625"/><text fill="#000000" font-family="sans-serif" font-size="11" font-weight="bold" lengthAdjust="spacing" textLength="83.2949" x="35" y="655.8354">[route found]</text><path d="M1129,664.4297 L1129,689.4297 L1541,689.4297 L1541,674.4297 L1531,664.4297 L1129,664.4297" fill="#FEFFDD" style="stroke:#181818;stroke-width:0.5;"/><path d="M1531,664.4297 L1531,674.4297 L1541,674.4297 L1531,664.4297" fill="#FEFFDD" style="stroke:#181818;stroke-width:0.5;"/><text fill="#000000" font-family="sans-serif" font-size="13" lengthAdjust="spacing" textLength="391.0854" x="1135" y="681.4966">fuelNeeded = fuelConsumption * route.getMinimumRange()</text><g class="message" data-entity-1="part3" data-entity-2="part2" id="msg17"><polygon fill="#181818" points="711.584,755.9609,701.584,759.9609,711.584,763.9609,707.584,759.9609" style="stroke:#181818;stroke-width:1;"/><line style="stroke:#181818;stroke-width:1;stroke-dasharray:2,2;" x1="705.584" x2="1118.001" y1="759.9609" y2="759.9609"/><text fill="#000000" font-family="sans-serif" font-size="13" font-weight="bold" lengthAdjust="spacing" textLength="18.0908" x="717.584" y="739.7622">17</text><text fill="#000000" font-family="sans-serif" font-size="13" lengthAdjust="spacing" textLength="153.1626" x="739.6748" y="724.6294">FuelEfficiencyResponse</text><text fill="#000000" font-family="sans-serif" font-size="13" lengthAdjust="spacing" textLength="367.3262" x="739.6748" y="739.7622">{ registrationNumber, fuelConsumptionPerDistanceUnit,</text><text fill="#000000" font-family="sans-serif" font-size="13" lengthAdjust="spacing" textLength="345.833" x="747.9395" y="754.895">routeOrigin, routeDestination, fuelNeededForRoute }</text></g><g class="message" data-entity-1="part2" data-entity-2="part1" id="msg18"><polygon fill="#181818" points="72.8398,800.2266,62.8398,804.2266,72.8398,808.2266,68.8398,804.2266" style="stroke:#181818;stroke-width:1;"/><line style="stroke:#181818;stroke-width:1;stroke-dasharray:2,2;" x1="66.8398" x2="689.584" y1="804.2266" y2="804.2266"/><text fill="#000000" font-family="sans-serif" font-size="13" font-weight="bold" lengthAdjust="spacing" textLength="18.0908" x="78.8398" y="791.5942">18</text><text fill="#000000" font-family="sans-serif" font-size="13" lengthAdjust="spacing" textLength="47.7026" x="100.9307" y="784.0278">200 OK</text><text fill="#000000" font-family="sans-serif" font-size="13" lengthAdjust="spacing" textLength="153.1626" x="100.9307" y="799.1606">FuelEfficiencyResponse</text></g><?plantuml-src TLLHRvim47xdLvpwCALJkbHJdwerLKB8DcrD9jPeBvKg5mvgYTYPCLshAF-zPpk08OmNOkxk--u-VtPOfQMeja-e0fPegU1iTX-6Py1AC3-27LEQ9tp7XAOGLubYcGwbq4eM1IgR66fLT1D3LYHLmJGkAooYBAC0YkHjKsB8IhH5c_zWnxYJ9QTEtcoQMNOJOrbfx6VLtuOntJZ7HP0opPwe3JXR77_P-68U16Pak9ZQYU0QlaRtC64xFc77sdAoLvZpKYkckHI7IKRpNM0puArKFEVYPk_UXmyfbfeBctopznO7epP_8OMSUe5b9EPDIBpuYWaDDFAvnk0mn-31dBSmf6UmiSqR7GWauoATlyKUnChkSmVL0x3osLh2MCm9uNVqCmhlOHclxw1M0FvyY-88V8n7vn-uWTiMZTGaZ8ksdGP0OI9L6gJevphUUlxrpk2ouakzPrC_tJOQi4Atc49go6GbqW3eCJAqcwYVbVpNRlzAwgN9Z5uJj3IsnCbFHTO1rt1rUGMK2JOrm8BSqf1rYQODCfNbg8tZwNoKrTQY_qAr8AMOI70Zk1wTsy9cbiQKvci3r0YHTS5ibgT4K-r0IH7d4M0YzMq2EoLVU8gkwxRpvjWqTbdR-fb85strQD1uDLAxBSqPh4Cj_92Zb8aUxUGO7XEPeh4Hp5OBdwq9dBAIT-fljT-yeHp7qN5rNjTv0ysUsD36faC0xT1jQxGDZhVhIb_w4tT-fyiqPyLCvTKMXUwQitvEJNe9SvRIWVXRaLXDhhMhQ-6KdfgY8C-VoIoPkJMWznZFhH39BQHupu3mqU5-8gFVSS6trJPc8iVHUGS6oNw69_0-1FLxu8Xs_oLYB7T4YGzYtxbdtFKrxlVKEs7Z1m6koVNHjdRX-NdiZRYKocuX7FfdwwXCN_FFfFdwnuCORZcm0teeflmT?></g></svg>