<?plantuml 1.2026.1?><svg xmlns="http://www.w3.org/2000/svg" xmlns:xlink="http://www.w3.org/1999/xlink" contentStyleType="text/css" data-diagram-type="SEQUENCE" height="672px" preserveAspectRatio="none" style="width:1311px;height:672px;background:#FFFFFF;" version="1.1" viewBox="0 0 1311 672" width="1311px" zoomAndPan="magnify"><defs/><g><g><title>AirportController</title><rect fill="#FFFFFF" height="461.5234" style="stroke:#181818;stroke-width:1;" width="10" x="514.7856" y="112.4297"/></g><g><title>AirportStatisticsUseCase</title><rect fill="#FFFFFF" height="372.9922" style="stroke:#181818;stroke-width:1;" width="10" x="782.3296" y="141.5625"/></g><g><title>AirportRepository</title><rect fill="#FFFFFF" height="87.3984" style="stroke:#181818;stroke-width:1;" width="10" x="953.9927" y="170.6953"/></g><g><title>RouteRepository</title><rect fill="#FFFFFF" height="87.3984" style="stroke:#181818;stroke-width:1;" width="10" x="1097.6592" y="287.2266"/></g><g><title>Database</title><rect fill="#FFFFFF" height="29.1328" style="stroke:#181818;stroke-width:1;" width="10" x="1269.5015" y="199.8281"/></g><g><title>Database</title><rect fill="#FFFFFF" height="29.1328" style="stroke:#181818;stroke-width:1;" width="10" x="1269.5015" y="316.3594"/></g><g class="participant-lifeline" data-entity-uid="part1" data-qualified-name="BO" id="part1-lifeline"><g><title>Backoffice Operator</title><rect fill="#000000" fill-opacity="0.00000" height="510.6563" width="8" x="73.8633" y="81.2969"/><line style="stroke:#181818;stroke-width:0.5;stroke-dasharray:5,5;" x1="77" x2="77" y1="81.2969" y2="591.9531"/></g></g><g class="participant-lifeline" data-entity-uid="part2" data-qualified-name="Ctrl" id="part2-lifeline"><g><title>AirportController</title><rect fill="#000000" fill-opacity="0.00000" height="510.6563" width="8" x="515.7856" y="81.2969"/><line style="stroke:#181818;stroke-width:0.5;stroke-dasharray:5,5;" x1="519.2393" x2="519.2393" y1="81.2969" y2="591.9531"/></g></g><g class="participant-lifeline" data-entity-uid="part3" data-qualified-name="UC" id="part3-lifeline"><g><title>AirportStatisticsUseCase</title><rect fill="#000000" fill-opacity="0.00000" height="510.6563" width="8" x="783.3296" y="81.2969"/><line style="stroke:#181818;stroke-width:0.5;stroke-dasharray:5,5;" x1="787.1626" x2="787.1626" y1="81.2969" y2="591.9531"/></g></g><g class="participant-lifeline" data-entity-uid="part4" data-qualified-name="AirportRepo" id="part4-lifeline"><g><title>AirportRepository</title><rect fill="#000000" fill-opacity="0.00000" height="510.6563" width="8" x="954.9927" y="81.2969"/><line style="stroke:#181818;stroke-width:0.5;stroke-dasharray:5,5;" x1="958.4966" x2="958.4966" y1="81.2969" y2="591.9531"/></g></g><g class="participant-lifeline" data-entity-uid="part5" data-qualified-name="RouteRepo" id="part5-lifeline"><g><title>RouteRepository</title><rect fill="#000000" fill-opacity="0.00000" height="510.6563" width="8" x="1098.6592" y="81.2969"/><line style="stroke:#181818;stroke-width:0.5;stroke-dasharray:5,5;" x1="1102.4888" x2="1102.4888" y1="81.2969" y2="591.9531"/></g></g><g class="participant-lifeline" data-entity-uid="part6" data-qualified-name="DB" id="part6-lifeline"><g><title>Database</title><rect fill="#000000" fill-opacity="0.00000" height="510.6563" width="8" x="1270.5015" y="81.2969"/><line style="stroke:#181818;stroke-width:0.5;stroke-dasharray:5,5;" x1="1274.1011" x2="1274.1011" y1="81.2969" y2="591.9531"/></g></g><g class="participant participant-head" data-entity-uid="part1" data-qualified-name="BO" id="part1-head"><text fill="#000000" font-family="sans-serif" font-size="14" lengthAdjust="spacing" textLength="139.7266" x="5" y="77.9951">Backoffice Operator</text><ellipse cx="77.8633" cy="13.5" fill="#E2E2F0" rx="8" ry="8" style="stroke:#181818;stroke-width:0.5;"/><path d="M77.8633,21.5 L77.8633,48.5 M64.8633,29.5 L90.8633,29.5 M77.8633,48.5 L64.8633,63.5 M77.8633,48.5 L90.8633,63.5" fill="none" style="stroke:#181818;stroke-width:0.5;"/></g><g class="participant participant-tail" data-entity-uid="part1" data-qualified-name="BO" id="part1-tail"><text fill="#000000" font-family="sans-serif" font-size="14" lengthAdjust="spacing" textLength="139.7266" x="5" y="603.9482">Backoffice Operator</text><ellipse cx="77.8633" cy="615.75" fill="#E2E2F0" rx="8" ry="8" style="stroke:#181818;stroke-width:0.5;"/><path d="M77.8633,623.75 L77.8633,650.75 M64.8633,631.75 L90.8633,631.75 M77.8633,650.75 L64.8633,665.75 M77.8633,650.75 L90.8633,665.75" fill="none" style="stroke:#181818;stroke-width:0.5;"/></g><g class="participant participant-head" data-entity-uid="part2" data-qualified-name="Ctrl" id="part2-head"><rect fill="#E2E2F0" height="30.2969" rx="2.5" ry="2.5" style="stroke:#181818;stroke-width:0.5;" width="131.0928" x="454.2393" y="50"/><text fill="#000000" font-family="sans-serif" font-size="14" lengthAdjust="spacing" textLength="117.0928" x="461.2393" y="69.9951">AirportController</text></g><g class="participant participant-tail" data-entity-uid="part2" data-qualified-name="Ctrl" id="part2-tail"><rect fill="#E2E2F0" height="30.2969" rx="2.5" ry="2.5" style="stroke:#181818;stroke-width:0.5;" width="131.0928" x="454.2393" y="590.9531"/><text fill="#000000" font-family="sans-serif" font-size="14" lengthAdjust="spacing" textLength="117.0928" x="461.2393" y="610.9482">AirportController</text></g><g class="participant participant-head" data-entity-uid="part3" data-qualified-name="UC" id="part3-head"><rect fill="#E2E2F0" height="30.2969" rx="2.5" ry="2.5" style="stroke:#181818;stroke-width:0.5;" width="186.334" x="694.1626" y="50"/><text fill="#000000" font-family="sans-serif" font-size="14" lengthAdjust="spacing" textLength="172.334" x="701.1626" y="69.9951">AirportStatisticsUseCase</text></g><g class="participant participant-tail" data-entity-uid="part3" data-qualified-name="UC" id="part3-tail"><rect fill="#E2E2F0" height="30.2969" rx="2.5" ry="2.5" style="stroke:#181818;stroke-width:0.5;" width="186.334" x="694.1626" y="590.9531"/><text fill="#000000" font-family="sans-serif" font-size="14" lengthAdjust="spacing" textLength="172.334" x="701.1626" y="610.9482">AirportStatisticsUseCase</text></g><g class="participant participant-head" data-entity-uid="part4" data-qualified-name="AirportRepo" id="part4-head"><rect fill="#E2E2F0" height="30.2969" rx="2.5" ry="2.5" style="stroke:#181818;stroke-width:0.5;" width="136.9922" x="890.4966" y="50"/><text fill="#000000" font-family="sans-serif" font-size="14" lengthAdjust="spacing" textLength="122.9922" x="897.4966" y="69.9951">AirportRepository</text></g><g class="participant participant-tail" data-entity-uid="part4" data-qualified-name="AirportRepo" id="part4-tail"><rect fill="#E2E2F0" height="30.2969" rx="2.5" ry="2.5" style="stroke:#181818;stroke-width:0.5;" width="136.9922" x="890.4966" y="590.9531"/><text fill="#000000" font-family="sans-serif" font-size="14" lengthAdjust="spacing" textLength="122.9922" x="897.4966" y="610.9482">AirportRepository</text></g><g class="participant participant-head" data-entity-uid="part5" data-qualified-name="RouteRepo" id="part5-head"><rect fill="#E2E2F0" height="30.2969" rx="2.5" ry="2.5" style="stroke:#181818;stroke-width:0.5;" width="130.3408" x="1037.4888" y="50"/><text fill="#000000" font-family="sans-serif" font-size="14" lengthAdjust="spacing" textLength="116.3408" x="1044.4888" y="69.9951">RouteRepository</text></g><g class="participant participant-tail" data-entity-uid="part5" data-qualified-name="RouteRepo" id="part5-tail"><rect fill="#E2E2F0" height="30.2969" rx="2.5" ry="2.5" style="stroke:#181818;stroke-width:0.5;" width="130.3408" x="1037.4888" y="590.9531"/><text fill="#000000" font-family="sans-serif" font-size="14" lengthAdjust="spacing" textLength="116.3408" x="1044.4888" y="610.9482">RouteRepository</text></g><g class="participant participant-head" data-entity-uid="part6" data-qualified-name="DB" id="part6-head"><text fill="#000000" font-family="sans-serif" font-size="14" lengthAdjust="spacing" textLength="66.8008" x="1238.1011" y="77.9951">Database</text><path d="M1256.5015,29 C1256.5015,19 1274.5015,19 1274.5015,19 C1274.5015,19 1292.5015,19 1292.5015,29 L1292.5015,55 C1292.5015,65 1274.5015,65 1274.5015,65 C1274.5015,65 1256.5015,65 1256.5015,55 L1256.5015,29" fill="#E2E2F0" style="stroke:#181818;stroke-width:0.5;"/><path d="M1256.5015,29 C1256.5015,39 1274.5015,39 1274.5015,39 C1274.5015,39 1292.5015,39 1292.5015,29" fill="none" style="stroke:#181818;stroke-width:0.5;"/></g><g class="participant participant-tail" data-entity-uid="part6" data-qualified-name="DB" id="part6-tail"><text fill="#000000" font-family="sans-serif" font-size="14" lengthAdjust="spacing" textLength="66.8008" x="1238.1011" y="603.9482">Database</text><path d="M1256.5015,617.25 C1256.5015,607.25 1274.5015,607.25 1274.5015,607.25 C1274.5015,607.25 1292.5015,607.25 1292.5015,617.25 L1292.5015,643.25 C1292.5015,653.25 1274.5015,653.25 1274.5015,653.25 C1274.5015,653.25 1256.5015,653.25 1256.5015,643.25 L1256.5015,617.25" fill="#E2E2F0" style="stroke:#181818;stroke-width:0.5;"/><path d="M1256.5015,617.25 C1256.5015,627.25 1274.5015,627.25 1274.5015,627.25 C1274.5015,627.25 1292.5015,627.25 1292.5015,617.25" fill="none" style="stroke:#181818;stroke-width:0.5;"/></g><g><title>AirportController</title><rect fill="#FFFFFF" height="461.5234" style="stroke:#181818;stroke-width:1;" width="10" x="514.7856" y="112.4297"/></g><g><title>AirportStatisticsUseCase</title><rect fill="#FFFFFF" height="372.9922" style="stroke:#181818;stroke-width:1;" width="10" x="782.3296" y="141.5625"/></g><g><title>AirportRepository</title><rect fill="#FFFFFF" height="87.3984" style="stroke:#181818;stroke-width:1;" width="10" x="953.9927" y="170.6953"/></g><g><title>RouteRepository</title><rect fill="#FFFFFF" height="87.3984" style="stroke:#181818;stroke-width:1;" width="10" x="1097.6592" y="287.2266"/></g><g><title>Database</title><rect fill="#FFFFFF" height="29.1328" style="stroke:#181818;stroke-width:1;" width="10" x="1269.5015" y="199.8281"/></g><g><title>Database</title><rect fill="#FFFFFF" height="29.1328" style="stroke:#181818;stroke-width:1;" width="10" x="1269.5015" y="316.3594"/></g><g class="message" data-entity-1="part1" data-entity-2="part2" id="msg1"><polygon fill="#181818" points="502.7856,108.4297,512.7856,112.4297,502.7856,116.4297,506.7856,112.4297" style="stroke:#181818;stroke-width:1;"/><line style="stroke:#181818;stroke-width:1;" x1="77.8633" x2="508.7856" y1="112.4297" y2="112.4297"/><text fill="#000000" font-family="sans-serif" font-size="13" font-weight="bold" lengthAdjust="spacing" textLength="9.0454" x="84.8633" y="107.3638">1</text><text fill="#000000" font-family="sans-serif" font-size="13" lengthAdjust="spacing" textLength="222.7456" x="97.9087" y="107.3638">GET /api/airports/statistics/busiest</text></g><g class="message" data-entity-1="part2" data-entity-2="part3" id="msg2"><polygon fill="#181818" points="770.3296,137.5625,780.3296,141.5625,770.3296,145.5625,774.3296,141.5625" style="stroke:#181818;stroke-width:1;"/><line style="stroke:#181818;stroke-width:1;" x1="524.7856" x2="776.3296" y1="141.5625" y2="141.5625"/><text fill="#000000" font-family="sans-serif" font-size="13" font-weight="bold" lengthAdjust="spacing" textLength="9.0454" x="531.7856" y="136.4966">2</text><text fill="#000000" font-family="sans-serif" font-size="13" lengthAdjust="spacing" textLength="62.3149" x="544.8311" y="136.4966">execute()</text></g><g class="message" data-entity-1="part3" data-entity-2="part4" id="msg3"><polygon fill="#181818" points="941.9927,166.6953,951.9927,170.6953,941.9927,174.6953,945.9927,170.6953" style="stroke:#181818;stroke-width:1;"/><line style="stroke:#181818;stroke-width:1;" x1="792.3296" x2="947.9927" y1="170.6953" y2="170.6953"/><text fill="#000000" font-family="sans-serif" font-size="13" font-weight="bold" lengthAdjust="spacing" textLength="9.0454" x="799.3296" y="165.6294">3</text><text fill="#000000" font-family="sans-serif" font-size="13" lengthAdjust="spacing" textLength="50.9399" x="812.375" y="165.6294">findAll()</text></g><g class="message" data-entity-1="part4" data-entity-2="part6" id="msg4"><polygon fill="#181818" points="1257.5015,195.8281,1267.5015,199.8281,1257.5015,203.8281,1261.5015,199.8281" style="stroke:#181818;stroke-width:1;"/><line style="stroke:#181818;stroke-width:1;" x1="963.9927" x2="1263.5015" y1="199.8281" y2="199.8281"/><text fill="#000000" font-family="sans-serif" font-size="13" font-weight="bold" lengthAdjust="spacing" textLength="9.0454" x="970.9927" y="194.7622">4</text><text fill="#000000" font-family="sans-serif" font-size="13" lengthAdjust="spacing" textLength="138.7344" x="984.0381" y="194.7622">SELECT FROM airport</text></g><g class="message" data-entity-1="part6" data-entity-2="part4" id="msg5"><polygon fill="#181818" points="974.9927,224.9609,964.9927,228.9609,974.9927,232.9609,970.9927,228.9609" style="stroke:#181818;stroke-width:1;"/><line style="stroke:#181818;stroke-width:1;stroke-dasharray:2,2;" x1="968.9927" x2="1273.5015" y1="228.9609" y2="228.9609"/><text fill="#000000" font-family="sans-serif" font-size="13" font-weight="bold" lengthAdjust="spacing" textLength="9.0454" x="980.9927" y="223.895">5</text><text fill="#000000" font-family="sans-serif" font-size="13" lengthAdjust="spacing" textLength="69.6655" x="994.0381" y="223.895">all airports</text></g><g class="message" data-entity-1="part4" data-entity-2="part3" id="msg6"><polygon fill="#181818" points="803.3296,254.0938,793.3296,258.0938,803.3296,262.0938,799.3296,258.0938" style="stroke:#181818;stroke-width:1;"/><line style="stroke:#181818;stroke-width:1;stroke-dasharray:2,2;" x1="797.3296" x2="957.9927" y1="258.0938" y2="258.0938"/><text fill="#000000" font-family="sans-serif" font-size="13" font-weight="bold" lengthAdjust="spacing" textLength="9.0454" x="809.3296" y="253.0278">6</text><text fill="#000000" font-family="sans-serif" font-size="13" lengthAdjust="spacing" textLength="89.0068" x="822.375" y="253.0278">List&lt;Airport&gt;</text></g><g class="message" data-entity-1="part3" data-entity-2="part5" id="msg7"><polygon fill="#181818" points="1085.6592,283.2266,1095.6592,287.2266,1085.6592,291.2266,1089.6592,287.2266" style="stroke:#181818;stroke-width:1;"/><line style="stroke:#181818;stroke-width:1;" x1="792.3296" x2="1091.6592" y1="287.2266" y2="287.2266"/><text fill="#000000" font-family="sans-serif" font-size="13" font-weight="bold" lengthAdjust="spacing" textLength="9.0454" x="799.3296" y="282.1606">7</text><text fill="#000000" font-family="sans-serif" font-size="13" lengthAdjust="spacing" textLength="50.9399" x="812.375" y="282.1606">findAll()</text></g><g class="message" data-entity-1="part5" data-entity-2="part6" id="msg8"><polygon fill="#181818" points="1257.5015,312.3594,1267.5015,316.3594,1257.5015,320.3594,1261.5015,316.3594" style="stroke:#181818;stroke-width:1;"/><line style="stroke:#181818;stroke-width:1;" x1="1107.6592" x2="1263.5015" y1="316.3594" y2="316.3594"/><text fill="#000000" font-family="sans-serif" font-size="13" font-weight="bold" lengthAdjust="spacing" textLength="9.0454" x="1114.6592" y="311.2935">8</text><text fill="#000000" font-family="sans-serif" font-size="13" lengthAdjust="spacing" textLength="129.7969" x="1127.7046" y="311.2935">SELECT FROM route</text></g><g class="message" data-entity-1="part6" data-entity-2="part5" id="msg9"><polygon fill="#181818" points="1118.6592,341.4922,1108.6592,345.4922,1118.6592,349.4922,1114.6592,345.4922" style="stroke:#181818;stroke-width:1;"/><line style="stroke:#181818;stroke-width:1;stroke-dasharray:2,2;" x1="1112.6592" x2="1273.5015" y1="345.4922" y2="345.4922"/><text fill="#000000" font-family="sans-serif" font-size="13" font-weight="bold" lengthAdjust="spacing" textLength="9.0454" x="1124.6592" y="340.4263">9</text><text fill="#000000" font-family="sans-serif" font-size="13" lengthAdjust="spacing" textLength="60.728" x="1137.7046" y="340.4263">all routes</text></g><g class="message" data-entity-1="part5" data-entity-2="part3" id="msg10"><polygon fill="#181818" points="803.3296,370.625,793.3296,374.625,803.3296,378.625,799.3296,374.625" style="stroke:#181818;stroke-width:1;"/><line style="stroke:#181818;stroke-width:1;stroke-dasharray:2,2;" x1="797.3296" x2="1101.6592" y1="374.625" y2="374.625"/><text fill="#000000" font-family="sans-serif" font-size="13" font-weight="bold" lengthAdjust="spacing" textLength="18.0908" x="809.3296" y="369.5591">10</text><text fill="#000000" font-family="sans-serif" font-size="13" lengthAdjust="spacing" textLength="82.8306" x="831.4204" y="369.5591">List&lt;Route&gt;</text></g><path d="M797,387.625 L797,457.625 L1059,457.625 L1059,397.625 L1049,387.625 L797,387.625" fill="#FEFFDD" style="stroke:#181818;stroke-width:0.5;"/><path d="M1049,387.625 L1049,397.625 L1059,397.625 L1049,387.625" fill="#FEFFDD" style="stroke:#181818;stroke-width:0.5;"/><text fill="#000000" font-family="sans-serif" font-size="13" lengthAdjust="spacing" textLength="109.2686" x="803" y="404.6919">For each Airport:</text><text fill="#000000" font-family="sans-serif" font-size="13" lengthAdjust="spacing" textLength="197.8755" x="803" y="419.8247">counts routes where origin OR</text><text fill="#000000" font-family="sans-serif" font-size="13" lengthAdjust="spacing" textLength="199.0435" x="803" y="434.9575">destination matches iataCode,</text><text fill="#000000" font-family="sans-serif" font-size="13" lengthAdjust="spacing" textLength="241.9917" x="803" y="450.0903">then sorts descending by routeCount</text><g class="message" data-entity-1="part3" data-entity-2="part2" id="msg11"><polygon fill="#181818" points="535.7856,510.5547,525.7856,514.5547,535.7856,518.5547,531.7856,514.5547" style="stroke:#181818;stroke-width:1;"/><line style="stroke:#181818;stroke-width:1;stroke-dasharray:2,2;" x1="529.7856" x2="786.3296" y1="514.5547" y2="514.5547"/><text fill="#000000" font-family="sans-serif" font-size="13" font-weight="bold" lengthAdjust="spacing" textLength="18.0908" x="541.7856" y="494.356">11</text><text fill="#000000" font-family="sans-serif" font-size="13" lengthAdjust="spacing" textLength="211.4531" x="563.8765" y="479.2231">List&lt;AirportStatisticsResponse&gt;</text><text fill="#000000" font-family="sans-serif" font-size="13" lengthAdjust="spacing" textLength="156.4761" x="563.8765" y="494.356">[{ iataCode, name, city,</text><text fill="#000000" font-family="sans-serif" font-size="13" lengthAdjust="spacing" textLength="148.6938" x="572.1411" y="509.4888">country, routeCount }]</text></g><g class="message" data-entity-1="part2" data-entity-2="part1" id="msg12"><polygon fill="#181818" points="88.8633,569.9531,78.8633,573.9531,88.8633,577.9531,84.8633,573.9531" style="stroke:#181818;stroke-width:1;"/><line style="stroke:#181818;stroke-width:1;stroke-dasharray:2,2;" x1="82.8633" x2="518.7856" y1="573.9531" y2="573.9531"/><text fill="#000000" font-family="sans-serif" font-size="13" font-weight="bold" lengthAdjust="spacing" textLength="18.0908" x="94.8633" y="553.7544">12</text><text fill="#000000" font-family="sans-serif" font-size="13" lengthAdjust="spacing" textLength="47.7026" x="116.9541" y="538.6216">200 OK</text><text fill="#000000" font-family="sans-serif" font-size="13" lengthAdjust="spacing" textLength="390.8315" x="116.9541" y="553.7544">CollectionModel&lt;EntityModel&lt;AirportStatisticsResponse&gt;&gt;</text><text fill="#000000" font-family="sans-serif" font-size="13" lengthAdjust="spacing" textLength="207.105" x="116.9541" y="568.8872">with _links (airport ref per item)</text></g><?plantuml-src TLJ1Rjim3BthAuYSMY15YXs38a3jf3kiXG6tEIr3eSXqBTIH38bU5mpxzr6s4okTTp5iyf7lFOgoRCcQzh179wGYws2MIFLkor8hXAn19pau0-aXoKGZ7Mcb6sa8PlVQDTPHQWqvMzVOer9ozIJkcIHfps6_zPXAZnrycqw2Ssoirynyx51Hz1AUsvRm4_WS4uKakMSccAs7jmwmJeH8ChXPTM9X2LytBx2GZLx8diSl_5diOjzwZPx2TFHFITWx55qfjzYct01_eMBIg-iHnSO4vnWHYMTegKrnNzSnD7ONWxbsdN39y-Pnaxx0GvuzmQ1mB6Op3BhvXqVMzGdiHO4n_eBZPE6HxTuDcLLS4AiR79qdFErdF80HEEN5XUoKaxX_yD41Fxk8UbzuwE8N3aOzmbZ-Tlgj8h1bE2E01zvvnbOdeqkEATiQyWClV5Je42oNQGDPplc25q8RNX5hu219LOpIl6AfBN3EUQhGW0-Z3r25fj3c3VR7lcCQkWiEGf3J3tLSnlWWnZkJes-iyRZQcU-_Houmyi1FfUautvb1k3lE8oBuyoCUHjZBVdUPac_14hxStaBsRMVIS8bLyFJ4hUkxZI5ksx__NmyB-j1KmMkjpRk7gs7dm649_FS0JNYuZWK4yhy0?></g></svg>