<svg xmlns="http://www.w3.org/2000/svg" xmlns:xlink="http://www.w3.org/1999/xlink" contentStyleType="text/css" data-diagram-type="SEQUENCE" height="619px" preserveAspectRatio="none" style="width:1033px;height:619px;background:#FFFFFF;" version="1.1" viewBox="0 0 1033 619" width="1033px" zoomAndPan="magnify"><?plantuml 1.2026.4?><defs/><g><g><title>AirportController</title><rect fill="#FFFFFF" height="402.9219" style="stroke:#181818;stroke-width:1;" width="10" x="296.6025" y="114.9609"/></g><g><title>AirportStatisticsUseCase</title><rect fill="#FFFFFF" height="342.2188" style="stroke:#181818;stroke-width:1;" width="10" x="533.3159" y="145.3125"/></g><g><title>AirportRepository</title><rect fill="#FFFFFF" height="91.0547" style="stroke:#181818;stroke-width:1;" width="10" x="688.8052" y="175.6641"/></g><g><title>RouteRepository</title><rect fill="#FFFFFF" height="91.0547" style="stroke:#181818;stroke-width:1;" width="10" x="819.0186" y="297.0703"/></g><g><title>Database</title><rect fill="#FFFFFF" height="30.3516" style="stroke:#181818;stroke-width:1;" width="10" x="984.9448" y="206.0156"/></g><g><title>Database</title><rect fill="#FFFFFF" height="30.3516" style="stroke:#181818;stroke-width:1;" width="10" x="984.9448" y="327.4219"/></g><g class="participant-lifeline" data-entity-uid="part1" data-qualified-name="BO" data-source-line="2" id="part1-lifeline"><g><title>Backoffice Operator</title><rect fill="#000000" fill-opacity="0.00000" height="453.2734" width="8" x="65.8618" y="82.6094"/><line style="stroke:#181818;stroke-width:0.5;stroke-dasharray:5,5;" x1="69" x2="69" y1="82.6094" y2="535.8828"/></g></g><g class="participant-lifeline" data-entity-uid="part2" data-qualified-name="Ctrl" data-source-line="3" id="part2-lifeline"><g><title>AirportController</title><rect fill="#000000" fill-opacity="0.00000" height="453.2734" width="8" x="297.6025" y="82.6094"/><line style="stroke:#181818;stroke-width:0.5;stroke-dasharray:5,5;" x1="300.6406" x2="300.6406" y1="82.6094" y2="535.8828"/></g></g><g class="participant-lifeline" data-entity-uid="part3" data-qualified-name="UC" data-source-line="4" id="part3-lifeline"><g><title>AirportStatisticsUseCase</title><rect fill="#000000" fill-opacity="0.00000" height="453.2734" width="8" x="534.3159" y="82.6094"/><line style="stroke:#181818;stroke-width:0.5;stroke-dasharray:5,5;" x1="537.9023" x2="537.9023" y1="82.6094" y2="535.8828"/></g></g><g class="participant-lifeline" data-entity-uid="part4" data-qualified-name="AirportRepo" data-source-line="5" id="part4-lifeline"><g><title>AirportRepository</title><rect fill="#000000" fill-opacity="0.00000" height="453.2734" width="8" x="689.8052" y="82.6094"/><line style="stroke:#181818;stroke-width:0.5;stroke-dasharray:5,5;" x1="693.7295" x2="693.7295" y1="82.6094" y2="535.8828"/></g></g><g class="participant-lifeline" data-entity-uid="part5" data-qualified-name="RouteRepo" data-source-line="6" id="part5-lifeline"><g><title>RouteRepository</title><rect fill="#000000" fill-opacity="0.00000" height="453.2734" width="8" x="820.0186" y="82.6094"/><line style="stroke:#181818;stroke-width:0.5;stroke-dasharray:5,5;" x1="823.8809" x2="823.8809" y1="82.6094" y2="535.8828"/></g></g><g class="participant-lifeline" data-entity-uid="part6" data-qualified-name="DB" data-source-line="7" id="part6-lifeline"><g><title>Database</title><rect fill="#000000" fill-opacity="0.00000" height="453.2734" width="8" x="985.9448" y="82.6094"/><line style="stroke:#181818;stroke-width:0.5;stroke-dasharray:5,5;" x1="988.9795" x2="988.9795" y1="82.6094" y2="535.8828"/></g></g><g class="participant participant-head" data-entity-uid="part1" data-qualified-name="BO" data-source-line="2" id="part1-head"><text fill="#000000" font-family="sans-serif" font-size="14" lengthAdjust="spacing" textLength="123.7236" x="5" y="79.5332">Backoffice Operator</text><ellipse cx="69.8618" cy="13.5" fill="#E2E2F0" rx="8" ry="8" style="stroke:#181818;stroke-width:0.5;"/><path d="M69.8618,21.5 L69.8618,48.5 M56.8618,29.5 L82.8618,29.5 M69.8618,48.5 L56.8618,63.5 M69.8618,48.5 L82.8618,63.5" fill="none" style="stroke:#181818;stroke-width:0.5;"/></g><g class="participant participant-tail" data-entity-uid="part1" data-qualified-name="BO" data-source-line="2" id="part1-tail"><text fill="#000000" font-family="sans-serif" font-size="14" lengthAdjust="spacing" textLength="123.7236" x="5" y="549.416">Backoffice Operator</text><ellipse cx="69.8618" cy="560.9922" fill="#E2E2F0" rx="8" ry="8" style="stroke:#181818;stroke-width:0.5;"/><path d="M69.8618,568.9922 L69.8618,595.9922 M56.8618,576.9922 L82.8618,576.9922 M69.8618,595.9922 L56.8618,610.9922 M69.8618,595.9922 L82.8618,610.9922" fill="none" style="stroke:#181818;stroke-width:0.5;"/></g><g class="participant participant-head" data-entity-uid="part2" data-qualified-name="Ctrl" data-source-line="3" id="part2-head"><rect fill="#E2E2F0" height="31.6094" rx="2.5" ry="2.5" style="stroke:#181818;stroke-width:0.5;" width="115.9238" x="243.6406" y="50"/><text fill="#000000" font-family="sans-serif" font-size="14" lengthAdjust="spacing" textLength="101.9238" x="250.6406" y="71.5332">AirportController</text></g><g class="participant participant-tail" data-entity-uid="part2" data-qualified-name="Ctrl" data-source-line="3" id="part2-tail"><rect fill="#E2E2F0" height="31.6094" rx="2.5" ry="2.5" style="stroke:#181818;stroke-width:0.5;" width="115.9238" x="243.6406" y="534.8828"/><text fill="#000000" font-family="sans-serif" font-size="14" lengthAdjust="spacing" textLength="101.9238" x="250.6406" y="556.416">AirportController</text></g><g class="participant participant-head" data-entity-uid="part3" data-qualified-name="UC" data-source-line="4" id="part3-head"><rect fill="#E2E2F0" height="31.6094" rx="2.5" ry="2.5" style="stroke:#181818;stroke-width:0.5;" width="168.8271" x="453.9023" y="50"/><text fill="#000000" font-family="sans-serif" font-size="14" lengthAdjust="spacing" textLength="154.8271" x="460.9023" y="71.5332">AirportStatisticsUseCase</text></g><g class="participant participant-tail" data-entity-uid="part3" data-qualified-name="UC" data-source-line="4" id="part3-tail"><rect fill="#E2E2F0" height="31.6094" rx="2.5" ry="2.5" style="stroke:#181818;stroke-width:0.5;" width="168.8271" x="453.9023" y="534.8828"/><text fill="#000000" font-family="sans-serif" font-size="14" lengthAdjust="spacing" textLength="154.8271" x="460.9023" y="556.416">AirportStatisticsUseCase</text></g><g class="participant participant-head" data-entity-uid="part4" data-qualified-name="AirportRepo" data-source-line="5" id="part4-head"><rect fill="#E2E2F0" height="31.6094" rx="2.5" ry="2.5" style="stroke:#181818;stroke-width:0.5;" width="122.1514" x="632.7295" y="50"/><text fill="#000000" font-family="sans-serif" font-size="14" lengthAdjust="spacing" textLength="108.1514" x="639.7295" y="71.5332">AirportRepository</text></g><g class="participant participant-tail" data-entity-uid="part4" data-qualified-name="AirportRepo" data-source-line="5" id="part4-tail"><rect fill="#E2E2F0" height="31.6094" rx="2.5" ry="2.5" style="stroke:#181818;stroke-width:0.5;" width="122.1514" x="632.7295" y="534.8828"/><text fill="#000000" font-family="sans-serif" font-size="14" lengthAdjust="spacing" textLength="108.1514" x="639.7295" y="556.416">AirportRepository</text></g><g class="participant participant-head" data-entity-uid="part5" data-qualified-name="RouteRepo" data-source-line="6" id="part5-head"><rect fill="#E2E2F0" height="31.6094" rx="2.5" ry="2.5" style="stroke:#181818;stroke-width:0.5;" width="118.2754" x="764.8809" y="50"/><text fill="#000000" font-family="sans-serif" font-size="14" lengthAdjust="spacing" textLength="104.2754" x="771.8809" y="71.5332">RouteRepository</text></g><g class="participant participant-tail" data-entity-uid="part5" data-qualified-name="RouteRepo" data-source-line="6" id="part5-tail"><rect fill="#E2E2F0" height="31.6094" rx="2.5" ry="2.5" style="stroke:#181818;stroke-width:0.5;" width="118.2754" x="764.8809" y="534.8828"/><text fill="#000000" font-family="sans-serif" font-size="14" lengthAdjust="spacing" textLength="104.2754" x="771.8809" y="556.416">RouteRepository</text></g><g class="participant participant-head" data-entity-uid="part6" data-qualified-name="DB" data-source-line="7" id="part6-head"><text fill="#000000" font-family="sans-serif" font-size="14" lengthAdjust="spacing" textLength="59.9307" x="956.9795" y="79.5332">Database</text><path d="M971.9448,29 C971.9448,19 989.9448,19 989.9448,19 C989.9448,19 1007.9448,19 1007.9448,29 L1007.9448,55 C1007.9448,65 989.9448,65 989.9448,65 C989.9448,65 971.9448,65 971.9448,55 L971.9448,29" fill="#E2E2F0" style="stroke:#181818;stroke-width:0.5;"/><path d="M971.9448,29 C971.9448,39 989.9448,39 989.9448,39 C989.9448,39 1007.9448,39 1007.9448,29" fill="none" style="stroke:#181818;stroke-width:0.5;"/></g><g class="participant participant-tail" data-entity-uid="part6" data-qualified-name="DB" data-source-line="7" id="part6-tail"><text fill="#000000" font-family="sans-serif" font-size="14" lengthAdjust="spacing" textLength="59.9307" x="956.9795" y="549.416">Database</text><path d="M971.9448,562.4922 C971.9448,552.4922 989.9448,552.4922 989.9448,552.4922 C989.9448,552.4922 1007.9448,552.4922 1007.9448,562.4922 L1007.9448,588.4922 C1007.9448,598.4922 989.9448,598.4922 989.9448,598.4922 C989.9448,598.4922 971.9448,598.4922 971.9448,588.4922 L971.9448,562.4922" fill="#E2E2F0" style="stroke:#181818;stroke-width:0.5;"/><path d="M971.9448,562.4922 C971.9448,572.4922 989.9448,572.4922 989.9448,572.4922 C989.9448,572.4922 1007.9448,572.4922 1007.9448,562.4922" fill="none" style="stroke:#181818;stroke-width:0.5;"/></g><g><title>AirportController</title><rect fill="#FFFFFF" height="402.9219" style="stroke:#181818;stroke-width:1;" width="10" x="296.6025" y="114.9609"/></g><g><title>AirportStatisticsUseCase</title><rect fill="#FFFFFF" height="342.2188" style="stroke:#181818;stroke-width:1;" width="10" x="533.3159" y="145.3125"/></g><g><title>AirportRepository</title><rect fill="#FFFFFF" height="91.0547" style="stroke:#181818;stroke-width:1;" width="10" x="688.8052" y="175.6641"/></g><g><title>RouteRepository</title><rect fill="#FFFFFF" height="91.0547" style="stroke:#181818;stroke-width:1;" width="10" x="819.0186" y="297.0703"/></g><g><title>Database</title><rect fill="#FFFFFF" height="30.3516" style="stroke:#181818;stroke-width:1;" width="10" x="984.9448" y="206.0156"/></g><g><title>Database</title><rect fill="#FFFFFF" height="30.3516" style="stroke:#181818;stroke-width:1;" width="10" x="984.9448" y="327.4219"/></g><g class="message" data-entity-1="part1" data-entity-2="part2" data-source-line="9" id="msg1"><polygon fill="#181818" points="284.6025,110.9609,294.6025,114.9609,284.6025,118.9609,288.6025,114.9609" style="stroke:#181818;stroke-width:1;stroke-linejoin:miter;stroke-miterlimit:10;"/><line style="stroke:#181818;stroke-width:1;" x1="69.8618" x2="290.6025" y1="114.9609" y2="114.9609"/><text fill="#000000" font-family="sans-serif" font-size="13" font-weight="700" lengthAdjust="spacing" textLength="7.23" x="76.8618" y="110.1045">1</text><text fill="#000000" font-family="sans-serif" font-size="13" lengthAdjust="spacing" textLength="196.5107" x="88.0918" y="110.1045">GET /api/airports/statistics/busiest</text></g><g class="message" data-entity-1="part2" data-entity-2="part3" data-source-line="12" id="msg2"><polygon fill="#181818" points="521.3159,141.3125,531.3159,145.3125,521.3159,149.3125,525.3159,145.3125" style="stroke:#181818;stroke-width:1;stroke-linejoin:miter;stroke-miterlimit:10;"/><line style="stroke:#181818;stroke-width:1;" x1="306.6025" x2="527.3159" y1="145.3125" y2="145.3125"/><text fill="#000000" font-family="sans-serif" font-size="13" font-weight="700" lengthAdjust="spacing" textLength="7.23" x="313.6025" y="140.4561">2</text><text fill="#000000" font-family="sans-serif" font-size="13" lengthAdjust="spacing" textLength="54.1899" x="324.8325" y="140.4561">execute()</text></g><g class="message" data-entity-1="part3" data-entity-2="part4" data-source-line="15" id="msg3"><polygon fill="#181818" points="676.8052,171.6641,686.8052,175.6641,676.8052,179.6641,680.8052,175.6641" style="stroke:#181818;stroke-width:1;stroke-linejoin:miter;stroke-miterlimit:10;"/><line style="stroke:#181818;stroke-width:1;" x1="543.3159" x2="682.8052" y1="175.6641" y2="175.6641"/><text fill="#000000" font-family="sans-serif" font-size="13" font-weight="700" lengthAdjust="spacing" textLength="7.23" x="550.3159" y="170.8076">3</text><text fill="#000000" font-family="sans-serif" font-size="13" lengthAdjust="spacing" textLength="44.0654" x="561.5459" y="170.8076">findAll()</text></g><g class="message" data-entity-1="part4" data-entity-2="part6" data-source-line="17" id="msg4"><polygon fill="#181818" points="972.9448,202.0156,982.9448,206.0156,972.9448,210.0156,976.9448,206.0156" style="stroke:#181818;stroke-width:1;stroke-linejoin:miter;stroke-miterlimit:10;"/><line style="stroke:#181818;stroke-width:1;" x1="698.8052" x2="978.9448" y1="206.0156" y2="206.0156"/><text fill="#000000" font-family="sans-serif" font-size="13" font-weight="700" lengthAdjust="spacing" textLength="7.23" x="705.8052" y="201.1592">4</text><text fill="#000000" font-family="sans-serif" font-size="13" lengthAdjust="spacing" textLength="132.9136" x="717.0352" y="201.1592">SELECT FROM airport</text></g><g class="message" data-entity-1="part6" data-entity-2="part4" data-source-line="19" id="msg5"><polygon fill="#181818" points="709.8052,232.3672,699.8052,236.3672,709.8052,240.3672,705.8052,236.3672" style="stroke:#181818;stroke-width:1;stroke-linejoin:miter;stroke-miterlimit:10;"/><line style="stroke:#181818;stroke-width:1;stroke-dasharray:2,2;" x1="703.8052" x2="988.9448" y1="236.3672" y2="236.3672"/><text fill="#000000" font-family="sans-serif" font-size="13" font-weight="700" lengthAdjust="spacing" textLength="7.23" x="715.8052" y="231.5107">5</text><text fill="#000000" font-family="sans-serif" font-size="13" lengthAdjust="spacing" textLength="59.9663" x="727.0352" y="231.5107">all airports</text></g><g class="message" data-entity-1="part4" data-entity-2="part3" data-source-line="21" id="msg6"><polygon fill="#181818" points="554.3159,262.7188,544.3159,266.7188,554.3159,270.7188,550.3159,266.7188" style="stroke:#181818;stroke-width:1;stroke-linejoin:miter;stroke-miterlimit:10;"/><line style="stroke:#181818;stroke-width:1;stroke-dasharray:2,2;" x1="548.3159" x2="692.8052" y1="266.7188" y2="266.7188"/><text fill="#000000" font-family="sans-serif" font-size="13" font-weight="700" lengthAdjust="spacing" textLength="7.23" x="560.3159" y="261.8623">6</text><text fill="#000000" font-family="sans-serif" font-size="13" lengthAdjust="spacing" textLength="73.7026" x="571.5459" y="261.8623">List&lt;Airport&gt;</text></g><g class="message" data-entity-1="part3" data-entity-2="part5" data-source-line="24" id="msg7"><polygon fill="#181818" points="807.0186,293.0703,817.0186,297.0703,807.0186,301.0703,811.0186,297.0703" style="stroke:#181818;stroke-width:1;stroke-linejoin:miter;stroke-miterlimit:10;"/><line style="stroke:#181818;stroke-width:1;" x1="543.3159" x2="813.0186" y1="297.0703" y2="297.0703"/><text fill="#000000" font-family="sans-serif" font-size="13" font-weight="700" lengthAdjust="spacing" textLength="7.23" x="550.3159" y="292.2139">7</text><text fill="#000000" font-family="sans-serif" font-size="13" lengthAdjust="spacing" textLength="44.0654" x="561.5459" y="292.2139">findAll()</text></g><g class="message" data-entity-1="part5" data-entity-2="part6" data-source-line="26" id="msg8"><polygon fill="#181818" points="972.9448,323.4219,982.9448,327.4219,972.9448,331.4219,976.9448,327.4219" style="stroke:#181818;stroke-width:1;stroke-linejoin:miter;stroke-miterlimit:10;"/><line style="stroke:#181818;stroke-width:1;" x1="829.0186" x2="978.9448" y1="327.4219" y2="327.4219"/><text fill="#000000" font-family="sans-serif" font-size="13" font-weight="700" lengthAdjust="spacing" textLength="7.23" x="836.0186" y="322.5654">8</text><text fill="#000000" font-family="sans-serif" font-size="13" lengthAdjust="spacing" textLength="125.6963" x="847.2485" y="322.5654">SELECT FROM route</text></g><g class="message" data-entity-1="part6" data-entity-2="part5" data-source-line="28" id="msg9"><polygon fill="#181818" points="840.0186,353.7734,830.0186,357.7734,840.0186,361.7734,836.0186,357.7734" style="stroke:#181818;stroke-width:1;stroke-linejoin:miter;stroke-miterlimit:10;"/><line style="stroke:#181818;stroke-width:1;stroke-dasharray:2,2;" x1="834.0186" x2="988.9448" y1="357.7734" y2="357.7734"/><text fill="#000000" font-family="sans-serif" font-size="13" font-weight="700" lengthAdjust="spacing" textLength="7.23" x="846.0186" y="352.917">9</text><text fill="#000000" font-family="sans-serif" font-size="13" lengthAdjust="spacing" textLength="52.749" x="857.2485" y="352.917">all routes</text></g><g class="message" data-entity-1="part5" data-entity-2="part3" data-source-line="30" id="msg10"><polygon fill="#181818" points="554.3159,384.125,544.3159,388.125,554.3159,392.125,550.3159,388.125" style="stroke:#181818;stroke-width:1;stroke-linejoin:miter;stroke-miterlimit:10;"/><line style="stroke:#181818;stroke-width:1;stroke-dasharray:2,2;" x1="548.3159" x2="823.0186" y1="388.125" y2="388.125"/><text fill="#000000" font-family="sans-serif" font-size="13" font-weight="700" lengthAdjust="spacing" textLength="14.46" x="560.3159" y="383.2686">10</text><text fill="#000000" font-family="sans-serif" font-size="13" lengthAdjust="spacing" textLength="70.1035" x="578.7759" y="383.2686">List&lt;Route&gt;</text></g><path d="M548,401.125 L548,460.125 L712,460.125 L712,411.125 L702,401.125 L548,401.125" fill="#FEFFDD" style="stroke:#181818;stroke-width:0.5;"/><path d="M702,401.125 L702,411.125 L712,411.125 L702,401.125" fill="#FEFFDD" style="stroke:#181818;stroke-width:0.5;"/><text fill="#000000" font-family="sans-serif" font-size="13" lengthAdjust="spacing" textLength="143.7935" x="554" y="419.6201">Counts routes per airport</text><text fill="#000000" font-family="sans-serif" font-size="13" lengthAdjust="spacing" textLength="133.6689" x="554" y="435.9717">(origin OR destination),</text><text fill="#000000" font-family="sans-serif" font-size="13" lengthAdjust="spacing" textLength="127.1943" x="554" y="452.3232">then sorts descending</text><g class="message" data-entity-1="part3" data-entity-2="part2" data-source-line="35" id="msg11"><polygon fill="#181818" points="317.6025,483.5313,307.6025,487.5313,317.6025,491.5313,313.6025,487.5313" style="stroke:#181818;stroke-width:1;stroke-linejoin:miter;stroke-miterlimit:10;"/><line style="stroke:#181818;stroke-width:1;stroke-dasharray:2,2;" x1="311.6025" x2="537.3159" y1="487.5313" y2="487.5313"/><text fill="#000000" font-family="sans-serif" font-size="13" font-weight="700" lengthAdjust="spacing" textLength="14.46" x="323.6025" y="482.6748">11</text><text fill="#000000" font-family="sans-serif" font-size="13" lengthAdjust="spacing" textLength="184.2534" x="342.0625" y="482.6748">List&lt;AirportStatisticsResponse&gt;</text></g><g class="message" data-entity-1="part2" data-entity-2="part1" data-source-line="38" id="msg12"><polygon fill="#181818" points="80.8618,513.8828,70.8618,517.8828,80.8618,521.8828,76.8618,517.8828" style="stroke:#181818;stroke-width:1;stroke-linejoin:miter;stroke-miterlimit:10;"/><line style="stroke:#181818;stroke-width:1;stroke-dasharray:2,2;" x1="74.8618" x2="300.6025" y1="517.8828" y2="517.8828"/><text fill="#000000" font-family="sans-serif" font-size="13" font-weight="700" lengthAdjust="spacing" textLength="14.46" x="86.8618" y="513.0264">12</text><text fill="#000000" font-family="sans-serif" font-size="13" lengthAdjust="spacing" textLength="125.6963" x="105.3218" y="513.0264">200 OK (JSON Array)</text></g><?plantuml-src RP9FRy8m3CNl-HGM9v0s5Us89YHQsAIDhLA16nVJ1eZM9LNYJkFRp_q3JLblrFwzsCyyBCdeyliWhS2KZ8LHYEcNEHvLAY4kf4KkZW0TXB4eq99ALO6QOBHGjZ2M8gF9cZoN3HMHpGUv3I4fnsMtSp929sjy5mt2YIoCKppvKbDUjOydfYHv1zzg8aF20q-2qRBzLGFBK8WmXiTvlIpCu7MrXG0B5M0pnmNkjcnmA9sIZghhg1yasJWKjPIVs4NyWFoLAGyTJpgAZGdkCU4jp-XHwMoHvpxgk_DXrYv3bcnMwrMqXPSa_e1smqxCPXXw_3S7y_mAEv59d-_Dk5fOiztdjZFt1VvshQFRXOVzT7z01mvviLLto8d_VkMZ1kzTU6_tFDJrdeDk7w4DVrjrEXEOOoEAJAd9jJE00tyzsrwF3QDAGvn0nX5GcaDXzEHXh-aiDRZgjbKdbJfJ-jISfukLVz8k_ObqXT6klsALbYPHBETipk1fEeNu7SPlc_WJ5jRYPU8BAlWF?></g></svg>