<svg xmlns="http://www.w3.org/2000/svg" xmlns:xlink="http://www.w3.org/1999/xlink" contentStyleType="text/css" data-diagram-type="SEQUENCE" height="249px" preserveAspectRatio="none" style="width:350px;height:249px;background:#FFFFFF;" version="1.1" viewBox="0 0 350 249" width="350px" zoomAndPan="magnify"><defs/><g><g><title>System</title><rect fill="#FFFFFF" height="31.291" style="stroke:#181818;stroke-width:1;" width="10" x="308.9253" y="116.9121"/></g><g><title>Operator . ATCC</title><rect fill="#000000" fill-opacity="0.00000" height="82.582" width="8" x="56.5137" y="83.6211"/><line style="stroke:#181818;stroke-width:0.5;stroke-dasharray:5,5;" x1="60" x2="60" y1="83.6211" y2="166.2031"/></g><g><title>System</title><rect fill="#000000" fill-opacity="0.00000" height="82.582" width="8" x="309.9253" y="83.6211"/><line style="stroke:#181818;stroke-width:0.5;stroke-dasharray:5,5;" x1="313.5874" x2="313.5874" y1="83.6211" y2="166.2031"/></g><g class="participant participant-head" data-participant="Actor"><text fill="#000000" font-family="sans-serif" font-size="14" lengthAdjust="spacing" textLength="105.0273" x="5" y="80.1074">Operator / ATCC</text><ellipse cx="60.5137" cy="13.5" fill="#E2E2F0" rx="8" ry="8" style="stroke:#181818;stroke-width:0.5;"/><path d="M60.5137,21.5 L60.5137,48.5 M47.5137,29.5 L73.5137,29.5 M60.5137,48.5 L47.5137,63.5 M60.5137,48.5 L73.5137,63.5" fill="none" style="stroke:#181818;stroke-width:0.5;"/></g><g class="participant participant-tail" data-participant="Actor"><text fill="#000000" font-family="sans-serif" font-size="14" lengthAdjust="spacing" textLength="105.0273" x="5" y="180.3105">Operator / ATCC</text><ellipse cx="60.5137" cy="192.3242" fill="#E2E2F0" rx="8" ry="8" style="stroke:#181818;stroke-width:0.5;"/><path d="M60.5137,200.3242 L60.5137,227.3242 M47.5137,208.3242 L73.5137,208.3242 M60.5137,227.3242 L47.5137,242.3242 M60.5137,227.3242 L73.5137,242.3242" fill="none" style="stroke:#181818;stroke-width:0.5;"/></g><g class="participant participant-head" data-participant="Sys"><rect fill="#E2E2F0" height="32.6211" rx="2.5" ry="2.5" style="stroke:#181818;stroke-width:0.5;" width="60.6758" x="283.5874" y="50"/><text fill="#000000" font-family="sans-serif" font-size="14" lengthAdjust="spacing" textLength="46.6758" x="290.5874" y="72.1074">System</text></g><g class="participant participant-tail" data-participant="Sys"><rect fill="#E2E2F0" height="32.6211" rx="2.5" ry="2.5" style="stroke:#181818;stroke-width:0.5;" width="60.6758" x="283.5874" y="165.2031"/><text fill="#000000" font-family="sans-serif" font-size="14" lengthAdjust="spacing" textLength="46.6758" x="290.5874" y="187.3105">System</text></g><g><title>System</title><rect fill="#FFFFFF" height="31.291" style="stroke:#181818;stroke-width:1;" width="10" x="308.9253" y="116.9121"/></g><g class="message" data-participant-1="Actor" data-participant-2="Sys"><polygon fill="#181818" points="296.9253,112.9121,306.9253,116.9121,296.9253,120.9121,300.9253,116.9121" style="stroke:#181818;stroke-width:1;"/><line style="stroke:#181818;stroke-width:1;" x1="60.5137" x2="302.9253" y1="116.9121" y2="116.9121"/><text fill="#000000" font-family="sans-serif" font-size="13" font-weight="bold" lengthAdjust="spacing" textLength="7.23" x="67.5137" y="111.6494">1</text><text fill="#000000" font-family="sans-serif" font-size="13" lengthAdjust="spacing" textLength="218.1816" x="78.7437" y="111.6494">getAircraftDetails(registrationNumber)</text></g><g class="message" data-participant-1="Sys" data-participant-2="Actor"><polygon fill="#181818" points="71.5137,144.2031,61.5137,148.2031,71.5137,152.2031,67.5137,148.2031" style="stroke:#181818;stroke-width:1;"/><line style="stroke:#181818;stroke-width:1;stroke-dasharray:2,2;" x1="65.5137" x2="312.9253" y1="148.2031" y2="148.2031"/><text fill="#000000" font-family="sans-serif" font-size="13" font-weight="bold" lengthAdjust="spacing" textLength="7.23" x="77.5137" y="142.9404">2</text><text fill="#000000" font-family="sans-serif" font-size="13" lengthAdjust="spacing" textLength="146.6626" x="88.7437" y="142.9404">returns Aircraft full details</text></g><!--SRC=[JOqn3i8m34NtdCBA14F5tW6fAZCCz0AcTIjBQH8v3XAt9qaPsBxr_T_3hC7d_KLYSDOWO1-H16kwm32DemLCCDJAH1JbcIDw1Vly9AMzjIKQqrwWkzOBUjX81vPPSDKRAR9B9w6DanOs1tzlodDryXkL6gCkkq8uK3q8QHPVx3yGhDavM0wSMUX__0K0]--></g></svg>