<svg xmlns="http://www.w3.org/2000/svg" xmlns:xlink="http://www.w3.org/1999/xlink" contentStyleType="text/css" data-diagram-type="SEQUENCE" height="672px" preserveAspectRatio="none" style="width:1605px;height:672px;background:#FFFFFF;" version="1.1" viewBox="0 0 1605 672" width="1605px" zoomAndPan="magnify"><?plantuml 1.2026.4?><defs/><g><g><title>AirportController</title><rect fill="#FFFFFF" height="455.625" style="stroke:#181818;stroke-width:1;" width="10" x="549.4868" y="114.9609"/></g><g><title>RegisterAirportUseCase</title><rect fill="#FFFFFF" height="325.8672" style="stroke:#181818;stroke-width:1;" width="10" x="699.9209" y="214.3672"/></g><g><title>Airport</title><rect fill="#FFFFFF" height="30.3516" style="stroke:#181818;stroke-width:1;" width="10" x="1187.4067" y="244.7188"/></g><g><title>Airport</title><rect fill="#FFFFFF" height="83.0547" style="stroke:#181818;stroke-width:1;" width="10" x="1187.4067" y="305.4219"/></g><g><title>AirportRepository</title><rect fill="#FFFFFF" height="91.0547" style="stroke:#181818;stroke-width:1;" width="10" x="1286.0996" y="418.8281"/></g><g><title>Database</title><rect fill="#FFFFFF" height="30.3516" style="stroke:#181818;stroke-width:1;" width="10" x="1556.4385" y="449.1797"/></g><g class="participant-lifeline" data-entity-uid="part1" data-qualified-name="BO" data-source-line="2" id="part1-lifeline"><g><title>Backoffice Operator</title><rect fill="#000000" fill-opacity="0.00000" height="505.9766" width="8" x="65.8618" y="82.6094"/><line style="stroke:#181818;stroke-width:0.5;stroke-dasharray:5,5;" x1="69" x2="69" y1="82.6094" y2="588.5859"/></g></g><g class="participant-lifeline" data-entity-uid="part2" data-qualified-name="Ctrl" data-source-line="3" id="part2-lifeline"><g><title>AirportController</title><rect fill="#000000" fill-opacity="0.00000" height="505.9766" width="8" x="550.4868" y="82.6094"/><line style="stroke:#181818;stroke-width:0.5;stroke-dasharray:5,5;" x1="553.5249" x2="553.5249" y1="82.6094" y2="588.5859"/></g></g><g class="participant-lifeline" data-entity-uid="part3" data-qualified-name="UC" data-source-line="4" id="part3-lifeline"><g><title>RegisterAirportUseCase</title><rect fill="#000000" fill-opacity="0.00000" height="505.9766" width="8" x="700.9209" y="82.6094"/><line style="stroke:#181818;stroke-width:0.5;stroke-dasharray:5,5;" x1="704.4487" x2="704.4487" y1="82.6094" y2="588.5859"/></g></g><g class="participant-lifeline" data-entity-uid="part4" data-qualified-name="Entity" data-source-line="5" id="part4-lifeline"><g><title>Airport</title><rect fill="#000000" fill-opacity="0.00000" height="505.9766" width="8" x="1188.4067" y="82.6094"/><line style="stroke:#181818;stroke-width:0.5;stroke-dasharray:5,5;" x1="1191.7896" x2="1191.7896" y1="82.6094" y2="588.5859"/></g></g><g class="participant-lifeline" data-entity-uid="part5" data-qualified-name="Repo" data-source-line="6" id="part5-lifeline"><g><title>AirportRepository</title><rect fill="#000000" fill-opacity="0.00000" height="505.9766" width="8" x="1287.0996" y="82.6094"/><line style="stroke:#181818;stroke-width:0.5;stroke-dasharray:5,5;" x1="1291.0239" x2="1291.0239" y1="82.6094" y2="588.5859"/></g></g><g class="participant-lifeline" data-entity-uid="part6" data-qualified-name="DB" data-source-line="7" id="part6-lifeline"><g><title>Database</title><rect fill="#000000" fill-opacity="0.00000" height="505.9766" width="8" x="1557.4385" y="82.6094"/><line style="stroke:#181818;stroke-width:0.5;stroke-dasharray:5,5;" x1="1560.4731" x2="1560.4731" y1="82.6094" y2="588.5859"/></g></g><g class="participant participant-head" data-entity-uid="part1" data-qualified-name="BO" data-source-line="2" id="part1-head"><text fill="#000000" font-family="sans-serif" font-size="14" lengthAdjust="spacing" textLength="123.7236" x="5" y="79.5332">Backoffice Operator</text><ellipse cx="69.8618" cy="13.5" fill="#E2E2F0" rx="8" ry="8" style="stroke:#181818;stroke-width:0.5;"/><path d="M69.8618,21.5 L69.8618,48.5 M56.8618,29.5 L82.8618,29.5 M69.8618,48.5 L56.8618,63.5 M69.8618,48.5 L82.8618,63.5" fill="none" style="stroke:#181818;stroke-width:0.5;"/></g><g class="participant participant-tail" data-entity-uid="part1" data-qualified-name="BO" data-source-line="2" id="part1-tail"><text fill="#000000" font-family="sans-serif" font-size="14" lengthAdjust="spacing" textLength="123.7236" x="5" y="602.1191">Backoffice Operator</text><ellipse cx="69.8618" cy="613.6953" fill="#E2E2F0" rx="8" ry="8" style="stroke:#181818;stroke-width:0.5;"/><path d="M69.8618,621.6953 L69.8618,648.6953 M56.8618,629.6953 L82.8618,629.6953 M69.8618,648.6953 L56.8618,663.6953 M69.8618,648.6953 L82.8618,663.6953" fill="none" style="stroke:#181818;stroke-width:0.5;"/></g><g class="participant participant-head" data-entity-uid="part2" data-qualified-name="Ctrl" data-source-line="3" id="part2-head"><rect fill="#E2E2F0" height="31.6094" rx="2.5" ry="2.5" style="stroke:#181818;stroke-width:0.5;" width="115.9238" x="496.5249" y="50"/><text fill="#000000" font-family="sans-serif" font-size="14" lengthAdjust="spacing" textLength="101.9238" x="503.5249" y="71.5332">AirportController</text></g><g class="participant participant-tail" data-entity-uid="part2" data-qualified-name="Ctrl" data-source-line="3" id="part2-tail"><rect fill="#E2E2F0" height="31.6094" rx="2.5" ry="2.5" style="stroke:#181818;stroke-width:0.5;" width="115.9238" x="496.5249" y="587.5859"/><text fill="#000000" font-family="sans-serif" font-size="14" lengthAdjust="spacing" textLength="101.9238" x="503.5249" y="609.1191">AirportController</text></g><g class="participant participant-head" data-entity-uid="part3" data-qualified-name="UC" data-source-line="4" id="part3-head"><rect fill="#E2E2F0" height="31.6094" rx="2.5" ry="2.5" style="stroke:#181818;stroke-width:0.5;" width="164.9443" x="622.4487" y="50"/><text fill="#000000" font-family="sans-serif" font-size="14" lengthAdjust="spacing" textLength="150.9443" x="629.4487" y="71.5332">RegisterAirportUseCase</text></g><g class="participant participant-tail" data-entity-uid="part3" data-qualified-name="UC" data-source-line="4" id="part3-tail"><rect fill="#E2E2F0" height="31.6094" rx="2.5" ry="2.5" style="stroke:#181818;stroke-width:0.5;" width="164.9443" x="622.4487" y="587.5859"/><text fill="#000000" font-family="sans-serif" font-size="14" lengthAdjust="spacing" textLength="150.9443" x="629.4487" y="609.1191">RegisterAirportUseCase</text></g><g class="participant participant-head" data-entity-uid="part4" data-qualified-name="Entity" data-source-line="5" id="part4-head"><rect fill="#E2E2F0" height="31.6094" rx="2.5" ry="2.5" style="stroke:#181818;stroke-width:0.5;" width="55.2344" x="1164.7896" y="50"/><text fill="#000000" font-family="sans-serif" font-size="14" lengthAdjust="spacing" textLength="41.2344" x="1171.7896" y="71.5332">Airport</text></g><g class="participant participant-tail" data-entity-uid="part4" data-qualified-name="Entity" data-source-line="5" id="part4-tail"><rect fill="#E2E2F0" height="31.6094" rx="2.5" ry="2.5" style="stroke:#181818;stroke-width:0.5;" width="55.2344" x="1164.7896" y="587.5859"/><text fill="#000000" font-family="sans-serif" font-size="14" lengthAdjust="spacing" textLength="41.2344" x="1171.7896" y="609.1191">Airport</text></g><g class="participant participant-head" data-entity-uid="part5" data-qualified-name="Repo" data-source-line="6" id="part5-head"><rect fill="#E2E2F0" height="31.6094" rx="2.5" ry="2.5" style="stroke:#181818;stroke-width:0.5;" width="122.1514" x="1230.0239" y="50"/><text fill="#000000" font-family="sans-serif" font-size="14" lengthAdjust="spacing" textLength="108.1514" x="1237.0239" y="71.5332">AirportRepository</text></g><g class="participant participant-tail" data-entity-uid="part5" data-qualified-name="Repo" data-source-line="6" id="part5-tail"><rect fill="#E2E2F0" height="31.6094" rx="2.5" ry="2.5" style="stroke:#181818;stroke-width:0.5;" width="122.1514" x="1230.0239" y="587.5859"/><text fill="#000000" font-family="sans-serif" font-size="14" lengthAdjust="spacing" textLength="108.1514" x="1237.0239" y="609.1191">AirportRepository</text></g><g class="participant participant-head" data-entity-uid="part6" data-qualified-name="DB" data-source-line="7" id="part6-head"><text fill="#000000" font-family="sans-serif" font-size="14" lengthAdjust="spacing" textLength="59.9307" x="1528.4731" y="79.5332">Database</text><path d="M1543.4385,29 C1543.4385,19 1561.4385,19 1561.4385,19 C1561.4385,19 1579.4385,19 1579.4385,29 L1579.4385,55 C1579.4385,65 1561.4385,65 1561.4385,65 C1561.4385,65 1543.4385,65 1543.4385,55 L1543.4385,29" fill="#E2E2F0" style="stroke:#181818;stroke-width:0.5;"/><path d="M1543.4385,29 C1543.4385,39 1561.4385,39 1561.4385,39 C1561.4385,39 1579.4385,39 1579.4385,29" fill="none" style="stroke:#181818;stroke-width:0.5;"/></g><g class="participant participant-tail" data-entity-uid="part6" data-qualified-name="DB" data-source-line="7" id="part6-tail"><text fill="#000000" font-family="sans-serif" font-size="14" lengthAdjust="spacing" textLength="59.9307" x="1528.4731" y="602.1191">Database</text><path d="M1543.4385,615.1953 C1543.4385,605.1953 1561.4385,605.1953 1561.4385,605.1953 C1561.4385,605.1953 1579.4385,605.1953 1579.4385,615.1953 L1579.4385,641.1953 C1579.4385,651.1953 1561.4385,651.1953 1561.4385,651.1953 C1561.4385,651.1953 1543.4385,651.1953 1543.4385,641.1953 L1543.4385,615.1953" fill="#E2E2F0" style="stroke:#181818;stroke-width:0.5;"/><path d="M1543.4385,615.1953 C1543.4385,625.1953 1561.4385,625.1953 1561.4385,625.1953 C1561.4385,625.1953 1579.4385,625.1953 1579.4385,615.1953" fill="none" style="stroke:#181818;stroke-width:0.5;"/></g><g><title>AirportController</title><rect fill="#FFFFFF" height="455.625" style="stroke:#181818;stroke-width:1;" width="10" x="549.4868" y="114.9609"/></g><g><title>RegisterAirportUseCase</title><rect fill="#FFFFFF" height="325.8672" style="stroke:#181818;stroke-width:1;" width="10" x="699.9209" y="214.3672"/></g><g><title>Airport</title><rect fill="#FFFFFF" height="30.3516" style="stroke:#181818;stroke-width:1;" width="10" x="1187.4067" y="244.7188"/></g><g><title>Airport</title><rect fill="#FFFFFF" height="83.0547" style="stroke:#181818;stroke-width:1;" width="10" x="1187.4067" y="305.4219"/></g><g><title>AirportRepository</title><rect fill="#FFFFFF" height="91.0547" style="stroke:#181818;stroke-width:1;" width="10" x="1286.0996" y="418.8281"/></g><g><title>Database</title><rect fill="#FFFFFF" height="30.3516" style="stroke:#181818;stroke-width:1;" width="10" x="1556.4385" y="449.1797"/></g><g class="message" data-entity-1="part1" data-entity-2="part2" data-source-line="9" id="msg1"><polygon fill="#181818" points="537.4868,110.9609,547.4868,114.9609,537.4868,118.9609,541.4868,114.9609" style="stroke:#181818;stroke-width:1;stroke-linejoin:miter;stroke-miterlimit:10;"/><line style="stroke:#181818;stroke-width:1;" x1="69.8618" x2="543.4868" y1="114.9609" y2="114.9609"/><text fill="#000000" font-family="sans-serif" font-size="13" font-weight="700" lengthAdjust="spacing" textLength="7.23" x="76.8618" y="110.1045">1</text><text fill="#000000" font-family="sans-serif" font-size="13" lengthAdjust="spacing" textLength="449.395" x="88.0918" y="110.1045">POST /api/airports (JSON with optional imagePath, services, terminals, gates)</text></g><path d="M564,127.9609 L564,186.9609 L790,186.9609 L790,137.9609 L780,127.9609 L564,127.9609" fill="#FEFFDD" style="stroke:#181818;stroke-width:0.5;"/><path d="M780,127.9609 L780,137.9609 L790,137.9609 L780,127.9609" fill="#FEFFDD" style="stroke:#181818;stroke-width:0.5;"/><text fill="#000000" font-family="sans-serif" font-size="13" lengthAdjust="spacing" textLength="173.5957" x="570" y="146.4561">@Valid validates IATA format,</text><text fill="#000000" font-family="sans-serif" font-size="13" lengthAdjust="spacing" textLength="205.9624" x="570" y="162.8076">non-blank fields, coordinate ranges,</text><text fill="#000000" font-family="sans-serif" font-size="13" lengthAdjust="spacing" textLength="112.7344" x="570" y="179.1592">at least one runway</text><g class="message" data-entity-1="part2" data-entity-2="part3" data-source-line="14" id="msg2"><polygon fill="#181818" points="687.9209,210.3672,697.9209,214.3672,687.9209,218.3672,691.9209,214.3672" style="stroke:#181818;stroke-width:1;stroke-linejoin:miter;stroke-miterlimit:10;"/><line style="stroke:#181818;stroke-width:1;" x1="559.4868" x2="693.9209" y1="214.3672" y2="214.3672"/><text fill="#000000" font-family="sans-serif" font-size="13" font-weight="700" lengthAdjust="spacing" textLength="7.23" x="566.4868" y="209.5107">2</text><text fill="#000000" font-family="sans-serif" font-size="13" lengthAdjust="spacing" textLength="97.5508" x="577.7168" y="209.5107">execute(request)</text></g><g class="message" data-entity-1="part3" data-entity-2="part4" data-source-line="17" id="msg3"><polygon fill="#181818" points="1175.4067,240.7188,1185.4067,244.7188,1175.4067,248.7188,1179.4067,244.7188" style="stroke:#181818;stroke-width:1;stroke-linejoin:miter;stroke-miterlimit:10;"/><line style="stroke:#181818;stroke-width:1;" x1="709.9209" x2="1181.4067" y1="244.7188" y2="244.7188"/><text fill="#000000" font-family="sans-serif" font-size="13" font-weight="700" lengthAdjust="spacing" textLength="7.23" x="716.9209" y="239.8623">3</text><text fill="#000000" font-family="sans-serif" font-size="13" lengthAdjust="spacing" textLength="447.2559" x="728.1509" y="239.8623">new Airport(iataCode, name, city, country, region, timezone, lat, lon, runways)</text></g><g class="message" data-entity-1="part4" data-entity-2="part3" data-source-line="19" id="msg4"><polygon fill="#181818" points="720.9209,271.0703,710.9209,275.0703,720.9209,279.0703,716.9209,275.0703" style="stroke:#181818;stroke-width:1;stroke-linejoin:miter;stroke-miterlimit:10;"/><line style="stroke:#181818;stroke-width:1;stroke-dasharray:2,2;" x1="714.9209" x2="1191.4067" y1="275.0703" y2="275.0703"/><text fill="#000000" font-family="sans-serif" font-size="13" font-weight="700" lengthAdjust="spacing" textLength="7.23" x="726.9209" y="270.2139">4</text><text fill="#000000" font-family="sans-serif" font-size="13" lengthAdjust="spacing" textLength="36.8481" x="738.1509" y="270.2139">airport</text></g><g class="message" data-entity-1="part3" data-entity-2="part4" data-source-line="22" id="msg5"><polygon fill="#181818" points="1175.4067,301.4219,1185.4067,305.4219,1175.4067,309.4219,1179.4067,305.4219" style="stroke:#181818;stroke-width:1;stroke-linejoin:miter;stroke-miterlimit:10;"/><line style="stroke:#181818;stroke-width:1;" x1="709.9209" x2="1181.4067" y1="305.4219" y2="305.4219"/><text fill="#000000" font-family="sans-serif" font-size="13" font-weight="700" lengthAdjust="spacing" textLength="7.23" x="716.9209" y="300.5654">5</text><text fill="#000000" font-family="sans-serif" font-size="13" lengthAdjust="spacing" textLength="437.8804" x="728.1509" y="300.5654">updateDetails(operationalHours, null, imagePath, services, terminals, gates)</text></g><path d="M1202,318.4219 L1202,360.4219 L1378,360.4219 L1378,328.4219 L1368,318.4219 L1202,318.4219" fill="#FEFFDD" style="stroke:#181818;stroke-width:0.5;"/><path d="M1368,318.4219 L1368,328.4219 L1378,328.4219 L1368,318.4219" fill="#FEFFDD" style="stroke:#181818;stroke-width:0.5;"/><text fill="#000000" font-family="sans-serif" font-size="13" lengthAdjust="spacing" textLength="126.4517" x="1208" y="336.917">Optional fields &#8212; only</text><text fill="#000000" font-family="sans-serif" font-size="13" lengthAdjust="spacing" textLength="155.3843" x="1208" y="353.2686">non-null values are applied</text><g class="message" data-entity-1="part4" data-entity-2="part3" data-source-line="25" id="msg6"><polygon fill="#181818" points="720.9209,384.4766,710.9209,388.4766,720.9209,392.4766,716.9209,388.4766" style="stroke:#181818;stroke-width:1;stroke-linejoin:miter;stroke-miterlimit:10;"/><line style="stroke:#181818;stroke-width:1;stroke-dasharray:2,2;" x1="714.9209" x2="1191.4067" y1="388.4766" y2="388.4766"/><text fill="#000000" font-family="sans-serif" font-size="13" font-weight="700" lengthAdjust="spacing" textLength="7.23" x="726.9209" y="383.6201">6</text><text fill="#000000" font-family="sans-serif" font-size="13" lengthAdjust="spacing" textLength="3.6118" x="738.1509" y="383.6201">&#160;</text></g><g class="message" data-entity-1="part3" data-entity-2="part5" data-source-line="28" id="msg7"><polygon fill="#181818" points="1274.0996,414.8281,1284.0996,418.8281,1274.0996,422.8281,1278.0996,418.8281" style="stroke:#181818;stroke-width:1;stroke-linejoin:miter;stroke-miterlimit:10;"/><line style="stroke:#181818;stroke-width:1;" x1="709.9209" x2="1280.0996" y1="418.8281" y2="418.8281"/><text fill="#000000" font-family="sans-serif" font-size="13" font-weight="700" lengthAdjust="spacing" textLength="7.23" x="716.9209" y="413.9717">7</text><text fill="#000000" font-family="sans-serif" font-size="13" lengthAdjust="spacing" textLength="72.9663" x="728.1509" y="413.9717">save(airport)</text></g><g class="message" data-entity-1="part5" data-entity-2="part6" data-source-line="30" id="msg8"><polygon fill="#181818" points="1544.4385,445.1797,1554.4385,449.1797,1544.4385,453.1797,1548.4385,449.1797" style="stroke:#181818;stroke-width:1;stroke-linejoin:miter;stroke-miterlimit:10;"/><line style="stroke:#181818;stroke-width:1;" x1="1296.0996" x2="1550.4385" y1="449.1797" y2="449.1797"/><text fill="#000000" font-family="sans-serif" font-size="13" font-weight="700" lengthAdjust="spacing" textLength="7.23" x="1303.0996" y="444.3232">8</text><text fill="#000000" font-family="sans-serif" font-size="13" lengthAdjust="spacing" textLength="230.1089" x="1314.3296" y="444.3232">INSERT INTO airport + collection tables</text></g><g class="message" data-entity-1="part6" data-entity-2="part5" data-source-line="32" id="msg9"><polygon fill="#181818" points="1307.0996,475.5313,1297.0996,479.5313,1307.0996,483.5313,1303.0996,479.5313" style="stroke:#181818;stroke-width:1;stroke-linejoin:miter;stroke-miterlimit:10;"/><line style="stroke:#181818;stroke-width:1;stroke-dasharray:2,2;" x1="1301.0996" x2="1560.4385" y1="479.5313" y2="479.5313"/><text fill="#000000" font-family="sans-serif" font-size="13" font-weight="700" lengthAdjust="spacing" textLength="7.23" x="1313.0996" y="474.6748">9</text><text fill="#000000" font-family="sans-serif" font-size="13" lengthAdjust="spacing" textLength="127.1499" x="1324.3296" y="474.6748">saved record (with ID)</text></g><g class="message" data-entity-1="part5" data-entity-2="part3" data-source-line="34" id="msg10"><polygon fill="#181818" points="720.9209,505.8828,710.9209,509.8828,720.9209,513.8828,716.9209,509.8828" style="stroke:#181818;stroke-width:1;stroke-linejoin:miter;stroke-miterlimit:10;"/><line style="stroke:#181818;stroke-width:1;stroke-dasharray:2,2;" x1="714.9209" x2="1290.0996" y1="509.8828" y2="509.8828"/><text fill="#000000" font-family="sans-serif" font-size="13" font-weight="700" lengthAdjust="spacing" textLength="14.46" x="726.9209" y="505.0264">10</text><text fill="#000000" font-family="sans-serif" font-size="13" lengthAdjust="spacing" textLength="72.979" x="745.3809" y="505.0264">savedAirport</text></g><g class="message" data-entity-1="part3" data-entity-2="part2" data-source-line="37" id="msg11"><polygon fill="#181818" points="570.4868,536.2344,560.4868,540.2344,570.4868,544.2344,566.4868,540.2344" style="stroke:#181818;stroke-width:1;stroke-linejoin:miter;stroke-miterlimit:10;"/><line style="stroke:#181818;stroke-width:1;stroke-dasharray:2,2;" x1="564.4868" x2="703.9209" y1="540.2344" y2="540.2344"/><text fill="#000000" font-family="sans-serif" font-size="13" font-weight="700" lengthAdjust="spacing" textLength="14.46" x="576.4868" y="535.3779">11</text><text fill="#000000" font-family="sans-serif" font-size="13" lengthAdjust="spacing" textLength="96.8271" x="594.9468" y="535.3779">AirportResponse</text></g><g class="message" data-entity-1="part2" data-entity-2="part1" data-source-line="40" id="msg12"><polygon fill="#181818" points="80.8618,566.5859,70.8618,570.5859,80.8618,574.5859,76.8618,570.5859" style="stroke:#181818;stroke-width:1;stroke-linejoin:miter;stroke-miterlimit:10;"/><line style="stroke:#181818;stroke-width:1;stroke-dasharray:2,2;" x1="74.8618" x2="553.4868" y1="570.5859" y2="570.5859"/><text fill="#000000" font-family="sans-serif" font-size="13" font-weight="700" lengthAdjust="spacing" textLength="14.46" x="86.8618" y="565.7295">12</text><text fill="#000000" font-family="sans-serif" font-size="13" lengthAdjust="spacing" textLength="182.0698" x="105.3218" y="565.7295">201 Created (JSON with _links)</text></g><?plantuml-src bLF1Sjem5BpxAzvm8bEOj3tcq2cOp9GUuWoGdZBJUTWFq20aLvAXzDIFw1VsIxgIJG9fUkZ5bgtLstsxJzm4QvhTKbp6PR2EUcCkjtQrKgLGKOjZ_EmHUneNMSqkg5BLR0BrHihLreNSck2irjAYyk3q9MucQ-M3k0x_u2LdBmdyaBzQCktTcg32yTNzcTJMA-Ww9cJyp2eEl4HTwaswLTgRZBDiND3mGn96DtHVp1TqpRMwvhQOf_xdUN571nKsPEkWh65DQiThkUUm6P0NjuSPVa1eOgUmY-MQW_YhQ9dQOzcsdHcBfLFhJI2xEZ5-_C9QLRIFptYAfgF5Y5RMxJWC7esnPhZKRBQqKg8hr2wjTHLuOYqsQp0_ueEqi4TTWx-DEV0non81Mdl8GIFVfMo2z9ryQyI7CsrmEGC4mDPJW8qSg3Eph-1NRYiPaE4TdYKWKKI3NB5mYCyQDAzsyWFi0zBGJJh-QuMS-z2brX4DJ-8whxDANY9VAclgQD940Ylj-pODO8haasqSp36DreF_ZgSZkypdYRCufTucGBz__eBF-jY64nbZUd2Ls0bnNMibrMMF_-uiJYSuFE-btzbm9YpDRe80EXa3EBsRtyuMU2sAastq1d7WXfLH9c6wjVZd4XXn71nUKbN8hSGOKJ_DzNHoTQuGHrhEKpxfoEZla9AyrCZp3NgwXBwsniivF4vQEvI0uzhTqFktxoXtWitg_9vzrSfi_OMcUEuF?></g></svg>