<?plantuml 1.2026.1?><svg xmlns="http://www.w3.org/2000/svg" xmlns:xlink="http://www.w3.org/1999/xlink" contentStyleType="text/css" data-diagram-type="SEQUENCE" height="606px" preserveAspectRatio="none" style="width:997px;height:606px;background:#FFFFFF;" version="1.1" viewBox="0 0 997 606" width="997px" zoomAndPan="magnify"><defs/><g><g><title>AirportController</title><rect fill="#FFFFFF" height="395.2578" style="stroke:#181818;stroke-width:1;" width="10" x="336.3838" y="112.4297"/></g><g><title>ListAirportsByRegionUseCase</title><rect fill="#FFFFFF" height="256.4609" style="stroke:#181818;stroke-width:1;" width="10" x="585.6846" y="191.8281"/></g><g><title>AirportRepository</title><rect fill="#FFFFFF" height="87.3984" style="stroke:#181818;stroke-width:1;" width="10" x="774.4546" y="220.9609"/></g><g><title>Database</title><rect fill="#FFFFFF" height="29.1328" style="stroke:#181818;stroke-width:1;" width="10" x="955.2344" y="250.0938"/></g><g class="participant-lifeline" data-entity-uid="part1" data-qualified-name="ATCC" id="part1-lifeline"><g><title>ATCC</title><rect fill="#000000" fill-opacity="0.00000" height="444.3906" width="8" x="22.8398" y="81.2969"/><line style="stroke:#181818;stroke-width:0.5;stroke-dasharray:5,5;" x1="26" x2="26" y1="81.2969" y2="525.6875"/></g></g><g class="participant-lifeline" data-entity-uid="part2" data-qualified-name="Ctrl" id="part2-lifeline"><g><title>AirportController</title><rect fill="#000000" fill-opacity="0.00000" height="444.3906" width="8" x="337.3838" y="81.2969"/><line style="stroke:#181818;stroke-width:0.5;stroke-dasharray:5,5;" x1="340.8374" x2="340.8374" y1="81.2969" y2="525.6875"/></g></g><g class="participant-lifeline" data-entity-uid="part3" data-qualified-name="UC" id="part3-lifeline"><g><title>ListAirportsByRegionUseCase</title><rect fill="#000000" fill-opacity="0.00000" height="444.3906" width="8" x="586.6846" y="81.2969"/><line style="stroke:#181818;stroke-width:0.5;stroke-dasharray:5,5;" x1="590.4106" x2="590.4106" y1="81.2969" y2="525.6875"/></g></g><g class="participant-lifeline" data-entity-uid="part4" data-qualified-name="Repo" id="part4-lifeline"><g><title>AirportRepository</title><rect fill="#000000" fill-opacity="0.00000" height="444.3906" width="8" x="775.4546" y="81.2969"/><line style="stroke:#181818;stroke-width:0.5;stroke-dasharray:5,5;" x1="778.9585" x2="778.9585" y1="81.2969" y2="525.6875"/></g></g><g class="participant-lifeline" data-entity-uid="part5" data-qualified-name="DB" id="part5-lifeline"><g><title>Database</title><rect fill="#000000" fill-opacity="0.00000" height="444.3906" width="8" x="956.2344" y="81.2969"/><line style="stroke:#181818;stroke-width:0.5;stroke-dasharray:5,5;" x1="959.834" x2="959.834" y1="81.2969" y2="525.6875"/></g></g><g class="participant participant-head" data-entity-uid="part1" data-qualified-name="ATCC" id="part1-head"><text fill="#000000" font-family="sans-serif" font-size="14" lengthAdjust="spacing" textLength="37.6797" x="5" y="77.9951">ATCC</text><ellipse cx="26.8398" cy="13.5" fill="#E2E2F0" rx="8" ry="8" style="stroke:#181818;stroke-width:0.5;"/><path d="M26.8398,21.5 L26.8398,48.5 M13.8398,29.5 L39.8398,29.5 M26.8398,48.5 L13.8398,63.5 M26.8398,48.5 L39.8398,63.5" fill="none" style="stroke:#181818;stroke-width:0.5;"/></g><g class="participant participant-tail" data-entity-uid="part1" data-qualified-name="ATCC" id="part1-tail"><text fill="#000000" font-family="sans-serif" font-size="14" lengthAdjust="spacing" textLength="37.6797" x="5" y="537.6826">ATCC</text><ellipse cx="26.8398" cy="549.4844" fill="#E2E2F0" rx="8" ry="8" style="stroke:#181818;stroke-width:0.5;"/><path d="M26.8398,557.4844 L26.8398,584.4844 M13.8398,565.4844 L39.8398,565.4844 M26.8398,584.4844 L13.8398,599.4844 M26.8398,584.4844 L39.8398,599.4844" fill="none" style="stroke:#181818;stroke-width:0.5;"/></g><g class="participant participant-head" data-entity-uid="part2" data-qualified-name="Ctrl" id="part2-head"><rect fill="#E2E2F0" height="30.2969" rx="2.5" ry="2.5" style="stroke:#181818;stroke-width:0.5;" width="131.0928" x="275.8374" y="50"/><text fill="#000000" font-family="sans-serif" font-size="14" lengthAdjust="spacing" textLength="117.0928" x="282.8374" y="69.9951">AirportController</text></g><g class="participant participant-tail" data-entity-uid="part2" data-qualified-name="Ctrl" id="part2-tail"><rect fill="#E2E2F0" height="30.2969" rx="2.5" ry="2.5" style="stroke:#181818;stroke-width:0.5;" width="131.0928" x="275.8374" y="524.6875"/><text fill="#000000" font-family="sans-serif" font-size="14" lengthAdjust="spacing" textLength="117.0928" x="282.8374" y="544.6826">AirportController</text></g><g class="participant participant-head" data-entity-uid="part3" data-qualified-name="UC" id="part3-head"><rect fill="#E2E2F0" height="30.2969" rx="2.5" ry="2.5" style="stroke:#181818;stroke-width:0.5;" width="220.5479" x="480.4106" y="50"/><text fill="#000000" font-family="sans-serif" font-size="14" lengthAdjust="spacing" textLength="206.5479" x="487.4106" y="69.9951">ListAirportsByRegionUseCase</text></g><g class="participant participant-tail" data-entity-uid="part3" data-qualified-name="UC" id="part3-tail"><rect fill="#E2E2F0" height="30.2969" rx="2.5" ry="2.5" style="stroke:#181818;stroke-width:0.5;" width="220.5479" x="480.4106" y="524.6875"/><text fill="#000000" font-family="sans-serif" font-size="14" lengthAdjust="spacing" textLength="206.5479" x="487.4106" y="544.6826">ListAirportsByRegionUseCase</text></g><g class="participant participant-head" data-entity-uid="part4" data-qualified-name="Repo" id="part4-head"><rect fill="#E2E2F0" height="30.2969" rx="2.5" ry="2.5" style="stroke:#181818;stroke-width:0.5;" width="136.9922" x="710.9585" y="50"/><text fill="#000000" font-family="sans-serif" font-size="14" lengthAdjust="spacing" textLength="122.9922" x="717.9585" y="69.9951">AirportRepository</text></g><g class="participant participant-tail" data-entity-uid="part4" data-qualified-name="Repo" id="part4-tail"><rect fill="#E2E2F0" height="30.2969" rx="2.5" ry="2.5" style="stroke:#181818;stroke-width:0.5;" width="136.9922" x="710.9585" y="524.6875"/><text fill="#000000" font-family="sans-serif" font-size="14" lengthAdjust="spacing" textLength="122.9922" x="717.9585" y="544.6826">AirportRepository</text></g><g class="participant participant-head" data-entity-uid="part5" data-qualified-name="DB" id="part5-head"><text fill="#000000" font-family="sans-serif" font-size="14" lengthAdjust="spacing" textLength="66.8008" x="923.834" y="77.9951">Database</text><path d="M942.2344,29 C942.2344,19 960.2344,19 960.2344,19 C960.2344,19 978.2344,19 978.2344,29 L978.2344,55 C978.2344,65 960.2344,65 960.2344,65 C960.2344,65 942.2344,65 942.2344,55 L942.2344,29" fill="#E2E2F0" style="stroke:#181818;stroke-width:0.5;"/><path d="M942.2344,29 C942.2344,39 960.2344,39 960.2344,39 C960.2344,39 978.2344,39 978.2344,29" fill="none" style="stroke:#181818;stroke-width:0.5;"/></g><g class="participant participant-tail" data-entity-uid="part5" data-qualified-name="DB" id="part5-tail"><text fill="#000000" font-family="sans-serif" font-size="14" lengthAdjust="spacing" textLength="66.8008" x="923.834" y="537.6826">Database</text><path d="M942.2344,550.9844 C942.2344,540.9844 960.2344,540.9844 960.2344,540.9844 C960.2344,540.9844 978.2344,540.9844 978.2344,550.9844 L978.2344,576.9844 C978.2344,586.9844 960.2344,586.9844 960.2344,586.9844 C960.2344,586.9844 942.2344,586.9844 942.2344,576.9844 L942.2344,550.9844" fill="#E2E2F0" style="stroke:#181818;stroke-width:0.5;"/><path d="M942.2344,550.9844 C942.2344,560.9844 960.2344,560.9844 960.2344,560.9844 C960.2344,560.9844 978.2344,560.9844 978.2344,550.9844" fill="none" style="stroke:#181818;stroke-width:0.5;"/></g><g><title>AirportController</title><rect fill="#FFFFFF" height="395.2578" style="stroke:#181818;stroke-width:1;" width="10" x="336.3838" y="112.4297"/></g><g><title>ListAirportsByRegionUseCase</title><rect fill="#FFFFFF" height="256.4609" style="stroke:#181818;stroke-width:1;" width="10" x="585.6846" y="191.8281"/></g><g><title>AirportRepository</title><rect fill="#FFFFFF" height="87.3984" style="stroke:#181818;stroke-width:1;" width="10" x="774.4546" y="220.9609"/></g><g><title>Database</title><rect fill="#FFFFFF" height="29.1328" style="stroke:#181818;stroke-width:1;" width="10" x="955.2344" y="250.0938"/></g><g class="message" data-entity-1="part1" data-entity-2="part2" id="msg1"><polygon fill="#181818" points="324.3838,108.4297,334.3838,112.4297,324.3838,116.4297,328.3838,112.4297" style="stroke:#181818;stroke-width:1;"/><line style="stroke:#181818;stroke-width:1;" x1="26.8398" x2="330.3838" y1="112.4297" y2="112.4297"/><text fill="#000000" font-family="sans-serif" font-size="13" font-weight="bold" lengthAdjust="spacing" textLength="9.0454" x="33.8398" y="107.3638">1</text><text fill="#000000" font-family="sans-serif" font-size="13" lengthAdjust="spacing" textLength="243.1025" x="46.8853" y="107.3638">GET /api/airports/grouped?by=region</text></g><path d="M351,125.4297 L351,165.4297 L592,165.4297 L592,135.4297 L582,125.4297 L351,125.4297" fill="#FEFFDD" style="stroke:#181818;stroke-width:0.5;"/><path d="M582,125.4297 L582,135.4297 L592,135.4297 L582,125.4297" fill="#FEFFDD" style="stroke:#181818;stroke-width:0.5;"/><text fill="#000000" font-family="sans-serif" font-size="13" lengthAdjust="spacing" textLength="90.2129" x="357" y="142.4966">Query param:</text><text fill="#000000" font-family="sans-serif" font-size="13" lengthAdjust="spacing" textLength="220.9746" x="357" y="157.6294">- by: "region" (default) | "country"</text><g class="message" data-entity-1="part2" data-entity-2="part3" id="msg2"><polygon fill="#181818" points="573.6846,187.8281,583.6846,191.8281,573.6846,195.8281,577.6846,191.8281" style="stroke:#181818;stroke-width:1;"/><line style="stroke:#181818;stroke-width:1;" x1="346.3838" x2="579.6846" y1="191.8281" y2="191.8281"/><text fill="#000000" font-family="sans-serif" font-size="13" font-weight="bold" lengthAdjust="spacing" textLength="9.0454" x="353.3838" y="186.7622">2</text><text fill="#000000" font-family="sans-serif" font-size="13" lengthAdjust="spacing" textLength="125.5693" x="366.4292" y="186.7622">execute(by: String)</text></g><g class="message" data-entity-1="part3" data-entity-2="part4" id="msg3"><polygon fill="#181818" points="762.4546,216.9609,772.4546,220.9609,762.4546,224.9609,766.4546,220.9609" style="stroke:#181818;stroke-width:1;"/><line style="stroke:#181818;stroke-width:1;" x1="595.6846" x2="768.4546" y1="220.9609" y2="220.9609"/><text fill="#000000" font-family="sans-serif" font-size="13" font-weight="bold" lengthAdjust="spacing" textLength="9.0454" x="602.6846" y="215.895">3</text><text fill="#000000" font-family="sans-serif" font-size="13" lengthAdjust="spacing" textLength="50.9399" x="615.73" y="215.895">findAll()</text></g><g class="message" data-entity-1="part4" data-entity-2="part5" id="msg4"><polygon fill="#181818" points="943.2344,246.0938,953.2344,250.0938,943.2344,254.0938,947.2344,250.0938" style="stroke:#181818;stroke-width:1;"/><line style="stroke:#181818;stroke-width:1;" x1="784.4546" x2="949.2344" y1="250.0938" y2="250.0938"/><text fill="#000000" font-family="sans-serif" font-size="13" font-weight="bold" lengthAdjust="spacing" textLength="9.0454" x="791.4546" y="245.0278">4</text><text fill="#000000" font-family="sans-serif" font-size="13" lengthAdjust="spacing" textLength="138.7344" x="804.5" y="245.0278">SELECT FROM airport</text></g><g class="message" data-entity-1="part5" data-entity-2="part4" id="msg5"><polygon fill="#181818" points="795.4546,275.2266,785.4546,279.2266,795.4546,283.2266,791.4546,279.2266" style="stroke:#181818;stroke-width:1;"/><line style="stroke:#181818;stroke-width:1;stroke-dasharray:2,2;" x1="789.4546" x2="959.2344" y1="279.2266" y2="279.2266"/><text fill="#000000" font-family="sans-serif" font-size="13" font-weight="bold" lengthAdjust="spacing" textLength="9.0454" x="801.4546" y="274.1606">5</text><text fill="#000000" font-family="sans-serif" font-size="13" lengthAdjust="spacing" textLength="69.6655" x="814.5" y="274.1606">all airports</text></g><g class="message" data-entity-1="part4" data-entity-2="part3" id="msg6"><polygon fill="#181818" points="606.6846,304.3594,596.6846,308.3594,606.6846,312.3594,602.6846,308.3594" style="stroke:#181818;stroke-width:1;"/><line style="stroke:#181818;stroke-width:1;stroke-dasharray:2,2;" x1="600.6846" x2="778.4546" y1="308.3594" y2="308.3594"/><text fill="#000000" font-family="sans-serif" font-size="13" font-weight="bold" lengthAdjust="spacing" textLength="9.0454" x="612.6846" y="303.2935">6</text><text fill="#000000" font-family="sans-serif" font-size="13" lengthAdjust="spacing" textLength="89.0068" x="625.73" y="303.2935">List&lt;Airport&gt;</text></g><path d="M600,321.3594 L600,391.3594 L907,391.3594 L907,331.3594 L897,321.3594 L600,321.3594" fill="#FEFFDD" style="stroke:#181818;stroke-width:0.5;"/><path d="M897,321.3594 L897,331.3594 L907,331.3594 L897,321.3594" fill="#FEFFDD" style="stroke:#181818;stroke-width:0.5;"/><text fill="#000000" font-family="sans-serif" font-size="13" lengthAdjust="spacing" textLength="237.999" x="606" y="338.4263">Groups airports by region or country</text><text fill="#000000" font-family="sans-serif" font-size="13" lengthAdjust="spacing" textLength="177.2456" x="606" y="353.5591">(depending on 'by' param),</text><text fill="#000000" font-family="sans-serif" font-size="13" lengthAdjust="spacing" textLength="213.8843" x="606" y="368.6919">then sorts groups alphabetically.</text><text fill="#000000" font-family="sans-serif" font-size="13" lengthAdjust="spacing" textLength="286.3555" x="606" y="383.8247">Each group maps to AirportGroupResponse.</text><g class="message" data-entity-1="part3" data-entity-2="part2" id="msg7"><polygon fill="#181818" points="357.3838,444.2891,347.3838,448.2891,357.3838,452.2891,353.3838,448.2891" style="stroke:#181818;stroke-width:1;"/><line style="stroke:#181818;stroke-width:1;stroke-dasharray:2,2;" x1="351.3838" x2="589.6846" y1="448.2891" y2="448.2891"/><text fill="#000000" font-family="sans-serif" font-size="13" font-weight="bold" lengthAdjust="spacing" textLength="9.0454" x="363.3838" y="428.0903">7</text><text fill="#000000" font-family="sans-serif" font-size="13" lengthAdjust="spacing" textLength="191.8896" x="376.4292" y="412.9575">List&lt;AirportGroupResponse&gt;</text><text fill="#000000" font-family="sans-serif" font-size="13" lengthAdjust="spacing" textLength="145.3105" x="376.4292" y="428.0903">[{ groupName: String,</text><text fill="#000000" font-family="sans-serif" font-size="13" lengthAdjust="spacing" textLength="193.9907" x="384.6938" y="443.2231">airports: [AirportResponse] }]</text></g><g class="message" data-entity-1="part2" data-entity-2="part1" id="msg8"><polygon fill="#181818" points="37.8398,503.6875,27.8398,507.6875,37.8398,511.6875,33.8398,507.6875" style="stroke:#181818;stroke-width:1;"/><line style="stroke:#181818;stroke-width:1;stroke-dasharray:2,2;" x1="31.8398" x2="340.3838" y1="507.6875" y2="507.6875"/><text fill="#000000" font-family="sans-serif" font-size="13" font-weight="bold" lengthAdjust="spacing" textLength="9.0454" x="43.8398" y="487.4888">8</text><text fill="#000000" font-family="sans-serif" font-size="13" lengthAdjust="spacing" textLength="47.7026" x="56.8853" y="472.356">200 OK</text><text fill="#000000" font-family="sans-serif" font-size="13" lengthAdjust="spacing" textLength="272.4985" x="56.8853" y="487.4888">CollectionModel&lt;AirportGroupResponse&gt;</text><text fill="#000000" font-family="sans-serif" font-size="13" lengthAdjust="spacing" textLength="105.2124" x="56.8853" y="502.6216">with _links (self)</text></g><?plantuml-src TPD1Rzim38Nl-XM4Bqs0fYbsDBOCZPFrq7R5qkJK58LiCxPGHJ8akPsnxR-Fafp47RgR77vwUdnaUEkqQlSv6iOBfmqaL-iiIu1Ry0VMSED48Hgk79M4QRHncLREQ2dH12vpHhxdReLrFMldtGeheTN6OiOjXXkRZtLNs6Who4GNAF_9IkvuJlSWMVIdK5lC6VF-O38BxqCAryirJ7aZfhn_ULePtJPOVisxBoPuy2sAL-umUcPAqz68gdQWT_4tW1yjcWx87z-dz3c1l4iXYG89Z4hSyLQwCVo6fD0j9T4b35K9NeonO8PCRJAoX3-nQ1sElCA3Cq9LuvC52e5jGWE-KQ9tGfLNKeu6J8WWb0bRp0bwMDukipLyMztVGT_e2QTK29gS9BcK1ygo4eTWL3quzHFxt8zXDYI3Wt-28kS0rpvSUrIdb21c1BH4VJ24KLuDfKEj0vNEykuiHZi-fwAhKO4DrwjUJZOrpv5MWwnt5yGiUL77Akmv4Kv3xpCuMA5jjB9uCPY1J_Mq5yFMtbsPRTNZhoZzdU_nCABphO9ZMoay7fSptdg2Fq_3WFmOuz3foR2IANowl8JxcwtA_9-4GAtkT8doVoxUXAlXMGhrOc5aKUx6mmUy-5y0?></g></svg>