<?plantuml 1.2026.1?><svg xmlns="http://www.w3.org/2000/svg" xmlns:xlink="http://www.w3.org/1999/xlink" contentStyleType="text/css" data-diagram-type="SEQUENCE" height="480px" preserveAspectRatio="none" style="width:952px;height:480px;background:#FFFFFF;" version="1.1" viewBox="0 0 952 480" width="952px" zoomAndPan="magnify"><defs/><g><g><title>AirportController</title><rect fill="#FFFFFF" height="269.3281" style="stroke:#181818;stroke-width:1;" width="10" x="301.9878" y="112.4297"/></g><g><title>ListAirportsByRegionUseCase</title><rect fill="#FFFFFF" height="211.0625" style="stroke:#181818;stroke-width:1;" width="10" x="540.9229" y="141.5625"/></g><g><title>AirportRepository</title><rect fill="#FFFFFF" height="87.3984" style="stroke:#181818;stroke-width:1;" width="10" x="729.6929" y="170.6953"/></g><g><title>Database</title><rect fill="#FFFFFF" height="29.1328" style="stroke:#181818;stroke-width:1;" width="10" x="910.4727" y="199.8281"/></g><g class="participant-lifeline" data-entity-uid="part1" data-qualified-name="ATCC" id="part1-lifeline"><g><title>ATCC</title><rect fill="#000000" fill-opacity="0.00000" height="318.4609" width="8" x="22.8398" y="81.2969"/><line style="stroke:#181818;stroke-width:0.5;stroke-dasharray:5,5;" x1="26" x2="26" y1="81.2969" y2="399.7578"/></g></g><g class="participant-lifeline" data-entity-uid="part2" data-qualified-name="Ctrl" id="part2-lifeline"><g><title>AirportController</title><rect fill="#000000" fill-opacity="0.00000" height="318.4609" width="8" x="302.9878" y="81.2969"/><line style="stroke:#181818;stroke-width:0.5;stroke-dasharray:5,5;" x1="306.4414" x2="306.4414" y1="81.2969" y2="399.7578"/></g></g><g class="participant-lifeline" data-entity-uid="part3" data-qualified-name="UC" id="part3-lifeline"><g><title>ListAirportsByRegionUseCase</title><rect fill="#000000" fill-opacity="0.00000" height="318.4609" width="8" x="541.9229" y="81.2969"/><line style="stroke:#181818;stroke-width:0.5;stroke-dasharray:5,5;" x1="545.6489" x2="545.6489" y1="81.2969" y2="399.7578"/></g></g><g class="participant-lifeline" data-entity-uid="part4" data-qualified-name="Repo" id="part4-lifeline"><g><title>AirportRepository</title><rect fill="#000000" fill-opacity="0.00000" height="318.4609" width="8" x="730.6929" y="81.2969"/><line style="stroke:#181818;stroke-width:0.5;stroke-dasharray:5,5;" x1="734.1968" x2="734.1968" y1="81.2969" y2="399.7578"/></g></g><g class="participant-lifeline" data-entity-uid="part5" data-qualified-name="DB" id="part5-lifeline"><g><title>Database</title><rect fill="#000000" fill-opacity="0.00000" height="318.4609" width="8" x="911.4727" y="81.2969"/><line style="stroke:#181818;stroke-width:0.5;stroke-dasharray:5,5;" x1="915.0723" x2="915.0723" y1="81.2969" y2="399.7578"/></g></g><g class="participant participant-head" data-entity-uid="part1" data-qualified-name="ATCC" id="part1-head"><text fill="#000000" font-family="sans-serif" font-size="14" lengthAdjust="spacing" textLength="37.6797" x="5" y="77.9951">ATCC</text><ellipse cx="26.8398" cy="13.5" fill="#E2E2F0" rx="8" ry="8" style="stroke:#181818;stroke-width:0.5;"/><path d="M26.8398,21.5 L26.8398,48.5 M13.8398,29.5 L39.8398,29.5 M26.8398,48.5 L13.8398,63.5 M26.8398,48.5 L39.8398,63.5" fill="none" style="stroke:#181818;stroke-width:0.5;"/></g><g class="participant participant-tail" data-entity-uid="part1" data-qualified-name="ATCC" id="part1-tail"><text fill="#000000" font-family="sans-serif" font-size="14" lengthAdjust="spacing" textLength="37.6797" x="5" y="411.7529">ATCC</text><ellipse cx="26.8398" cy="423.5547" fill="#E2E2F0" rx="8" ry="8" style="stroke:#181818;stroke-width:0.5;"/><path d="M26.8398,431.5547 L26.8398,458.5547 M13.8398,439.5547 L39.8398,439.5547 M26.8398,458.5547 L13.8398,473.5547 M26.8398,458.5547 L39.8398,473.5547" fill="none" style="stroke:#181818;stroke-width:0.5;"/></g><g class="participant participant-head" data-entity-uid="part2" data-qualified-name="Ctrl" id="part2-head"><rect fill="#E2E2F0" height="30.2969" rx="2.5" ry="2.5" style="stroke:#181818;stroke-width:0.5;" width="131.0928" x="241.4414" y="50"/><text fill="#000000" font-family="sans-serif" font-size="14" lengthAdjust="spacing" textLength="117.0928" x="248.4414" y="69.9951">AirportController</text></g><g class="participant participant-tail" data-entity-uid="part2" data-qualified-name="Ctrl" id="part2-tail"><rect fill="#E2E2F0" height="30.2969" rx="2.5" ry="2.5" style="stroke:#181818;stroke-width:0.5;" width="131.0928" x="241.4414" y="398.7578"/><text fill="#000000" font-family="sans-serif" font-size="14" lengthAdjust="spacing" textLength="117.0928" x="248.4414" y="418.7529">AirportController</text></g><g class="participant participant-head" data-entity-uid="part3" data-qualified-name="UC" id="part3-head"><rect fill="#E2E2F0" height="30.2969" rx="2.5" ry="2.5" style="stroke:#181818;stroke-width:0.5;" width="220.5479" x="435.6489" y="50"/><text fill="#000000" font-family="sans-serif" font-size="14" lengthAdjust="spacing" textLength="206.5479" x="442.6489" y="69.9951">ListAirportsByRegionUseCase</text></g><g class="participant participant-tail" data-entity-uid="part3" data-qualified-name="UC" id="part3-tail"><rect fill="#E2E2F0" height="30.2969" rx="2.5" ry="2.5" style="stroke:#181818;stroke-width:0.5;" width="220.5479" x="435.6489" y="398.7578"/><text fill="#000000" font-family="sans-serif" font-size="14" lengthAdjust="spacing" textLength="206.5479" x="442.6489" y="418.7529">ListAirportsByRegionUseCase</text></g><g class="participant participant-head" data-entity-uid="part4" data-qualified-name="Repo" id="part4-head"><rect fill="#E2E2F0" height="30.2969" rx="2.5" ry="2.5" style="stroke:#181818;stroke-width:0.5;" width="136.9922" x="666.1968" y="50"/><text fill="#000000" font-family="sans-serif" font-size="14" lengthAdjust="spacing" textLength="122.9922" x="673.1968" y="69.9951">AirportRepository</text></g><g class="participant participant-tail" data-entity-uid="part4" data-qualified-name="Repo" id="part4-tail"><rect fill="#E2E2F0" height="30.2969" rx="2.5" ry="2.5" style="stroke:#181818;stroke-width:0.5;" width="136.9922" x="666.1968" y="398.7578"/><text fill="#000000" font-family="sans-serif" font-size="14" lengthAdjust="spacing" textLength="122.9922" x="673.1968" y="418.7529">AirportRepository</text></g><g class="participant participant-head" data-entity-uid="part5" data-qualified-name="DB" id="part5-head"><text fill="#000000" font-family="sans-serif" font-size="14" lengthAdjust="spacing" textLength="66.8008" x="879.0723" y="77.9951">Database</text><path d="M897.4727,29 C897.4727,19 915.4727,19 915.4727,19 C915.4727,19 933.4727,19 933.4727,29 L933.4727,55 C933.4727,65 915.4727,65 915.4727,65 C915.4727,65 897.4727,65 897.4727,55 L897.4727,29" fill="#E2E2F0" style="stroke:#181818;stroke-width:0.5;"/><path d="M897.4727,29 C897.4727,39 915.4727,39 915.4727,39 C915.4727,39 933.4727,39 933.4727,29" fill="none" style="stroke:#181818;stroke-width:0.5;"/></g><g class="participant participant-tail" data-entity-uid="part5" data-qualified-name="DB" id="part5-tail"><text fill="#000000" font-family="sans-serif" font-size="14" lengthAdjust="spacing" textLength="66.8008" x="879.0723" y="411.7529">Database</text><path d="M897.4727,425.0547 C897.4727,415.0547 915.4727,415.0547 915.4727,415.0547 C915.4727,415.0547 933.4727,415.0547 933.4727,425.0547 L933.4727,451.0547 C933.4727,461.0547 915.4727,461.0547 915.4727,461.0547 C915.4727,461.0547 897.4727,461.0547 897.4727,451.0547 L897.4727,425.0547" fill="#E2E2F0" style="stroke:#181818;stroke-width:0.5;"/><path d="M897.4727,425.0547 C897.4727,435.0547 915.4727,435.0547 915.4727,435.0547 C915.4727,435.0547 933.4727,435.0547 933.4727,425.0547" fill="none" style="stroke:#181818;stroke-width:0.5;"/></g><g><title>AirportController</title><rect fill="#FFFFFF" height="269.3281" style="stroke:#181818;stroke-width:1;" width="10" x="301.9878" y="112.4297"/></g><g><title>ListAirportsByRegionUseCase</title><rect fill="#FFFFFF" height="211.0625" style="stroke:#181818;stroke-width:1;" width="10" x="540.9229" y="141.5625"/></g><g><title>AirportRepository</title><rect fill="#FFFFFF" height="87.3984" style="stroke:#181818;stroke-width:1;" width="10" x="729.6929" y="170.6953"/></g><g><title>Database</title><rect fill="#FFFFFF" height="29.1328" style="stroke:#181818;stroke-width:1;" width="10" x="910.4727" y="199.8281"/></g><g class="message" data-entity-1="part1" data-entity-2="part2" id="msg1"><polygon fill="#181818" points="289.9878,108.4297,299.9878,112.4297,289.9878,116.4297,293.9878,112.4297" style="stroke:#181818;stroke-width:1;"/><line style="stroke:#181818;stroke-width:1;" x1="26.8398" x2="295.9878" y1="112.4297" y2="112.4297"/><text fill="#000000" font-family="sans-serif" font-size="13" font-weight="bold" lengthAdjust="spacing" textLength="9.0454" x="33.8398" y="107.3638">1</text><text fill="#000000" font-family="sans-serif" font-size="13" lengthAdjust="spacing" textLength="243.1025" x="46.8853" y="107.3638">GET /api/airports/grouped?by=region</text></g><g class="message" data-entity-1="part2" data-entity-2="part3" id="msg2"><polygon fill="#181818" points="528.9229,137.5625,538.9229,141.5625,528.9229,145.5625,532.9229,141.5625" style="stroke:#181818;stroke-width:1;"/><line style="stroke:#181818;stroke-width:1;" x1="311.9878" x2="534.9229" y1="141.5625" y2="141.5625"/><text fill="#000000" font-family="sans-serif" font-size="13" font-weight="bold" lengthAdjust="spacing" textLength="9.0454" x="318.9878" y="136.4966">2</text><text fill="#000000" font-family="sans-serif" font-size="13" lengthAdjust="spacing" textLength="78.2603" x="332.0332" y="136.4966">execute(by)</text></g><g class="message" data-entity-1="part3" data-entity-2="part4" id="msg3"><polygon fill="#181818" points="717.6929,166.6953,727.6929,170.6953,717.6929,174.6953,721.6929,170.6953" style="stroke:#181818;stroke-width:1;"/><line style="stroke:#181818;stroke-width:1;" x1="550.9229" x2="723.6929" y1="170.6953" y2="170.6953"/><text fill="#000000" font-family="sans-serif" font-size="13" font-weight="bold" lengthAdjust="spacing" textLength="9.0454" x="557.9229" y="165.6294">3</text><text fill="#000000" font-family="sans-serif" font-size="13" lengthAdjust="spacing" textLength="50.9399" x="570.9683" y="165.6294">findAll()</text></g><g class="message" data-entity-1="part4" data-entity-2="part5" id="msg4"><polygon fill="#181818" points="898.4727,195.8281,908.4727,199.8281,898.4727,203.8281,902.4727,199.8281" style="stroke:#181818;stroke-width:1;"/><line style="stroke:#181818;stroke-width:1;" x1="739.6929" x2="904.4727" y1="199.8281" y2="199.8281"/><text fill="#000000" font-family="sans-serif" font-size="13" font-weight="bold" lengthAdjust="spacing" textLength="9.0454" x="746.6929" y="194.7622">4</text><text fill="#000000" font-family="sans-serif" font-size="13" lengthAdjust="spacing" textLength="138.7344" x="759.7383" y="194.7622">SELECT FROM airport</text></g><g class="message" data-entity-1="part5" data-entity-2="part4" id="msg5"><polygon fill="#181818" points="750.6929,224.9609,740.6929,228.9609,750.6929,232.9609,746.6929,228.9609" style="stroke:#181818;stroke-width:1;"/><line style="stroke:#181818;stroke-width:1;stroke-dasharray:2,2;" x1="744.6929" x2="914.4727" y1="228.9609" y2="228.9609"/><text fill="#000000" font-family="sans-serif" font-size="13" font-weight="bold" lengthAdjust="spacing" textLength="9.0454" x="756.6929" y="223.895">5</text><text fill="#000000" font-family="sans-serif" font-size="13" lengthAdjust="spacing" textLength="69.6655" x="769.7383" y="223.895">all airports</text></g><g class="message" data-entity-1="part4" data-entity-2="part3" id="msg6"><polygon fill="#181818" points="561.9229,254.0938,551.9229,258.0938,561.9229,262.0938,557.9229,258.0938" style="stroke:#181818;stroke-width:1;"/><line style="stroke:#181818;stroke-width:1;stroke-dasharray:2,2;" x1="555.9229" x2="733.6929" y1="258.0938" y2="258.0938"/><text fill="#000000" font-family="sans-serif" font-size="13" font-weight="bold" lengthAdjust="spacing" textLength="9.0454" x="567.9229" y="253.0278">6</text><text fill="#000000" font-family="sans-serif" font-size="13" lengthAdjust="spacing" textLength="89.0068" x="580.9683" y="253.0278">List&lt;Airport&gt;</text></g><path d="M555,271.0938 L555,326.0938 L785,326.0938 L785,281.0938 L775,271.0938 L555,271.0938" fill="#FEFFDD" style="stroke:#181818;stroke-width:0.5;"/><path d="M775,271.0938 L775,281.0938 L785,281.0938 L775,271.0938" fill="#FEFFDD" style="stroke:#181818;stroke-width:0.5;"/><text fill="#000000" font-family="sans-serif" font-size="13" lengthAdjust="spacing" textLength="166.7212" x="561" y="288.1606">Groups airports by region</text><text fill="#000000" font-family="sans-serif" font-size="13" lengthAdjust="spacing" textLength="174.4272" x="561" y="303.2935">(or country if by=country),</text><text fill="#000000" font-family="sans-serif" font-size="13" lengthAdjust="spacing" textLength="209.752" x="561" y="318.4263">then sorts groups alphabetically</text><g class="message" data-entity-1="part3" data-entity-2="part2" id="msg7"><polygon fill="#181818" points="322.9878,348.625,312.9878,352.625,322.9878,356.625,318.9878,352.625" style="stroke:#181818;stroke-width:1;"/><line style="stroke:#181818;stroke-width:1;stroke-dasharray:2,2;" x1="316.9878" x2="544.9229" y1="352.625" y2="352.625"/><text fill="#000000" font-family="sans-serif" font-size="13" font-weight="bold" lengthAdjust="spacing" textLength="9.0454" x="328.9878" y="347.5591">7</text><text fill="#000000" font-family="sans-serif" font-size="13" lengthAdjust="spacing" textLength="191.8896" x="342.0332" y="347.5591">List&lt;AirportGroupResponse&gt;</text></g><g class="message" data-entity-1="part2" data-entity-2="part1" id="msg8"><polygon fill="#181818" points="37.8398,377.7578,27.8398,381.7578,37.8398,385.7578,33.8398,381.7578" style="stroke:#181818;stroke-width:1;"/><line style="stroke:#181818;stroke-width:1;stroke-dasharray:2,2;" x1="31.8398" x2="305.9878" y1="381.7578" y2="381.7578"/><text fill="#000000" font-family="sans-serif" font-size="13" font-weight="bold" lengthAdjust="spacing" textLength="9.0454" x="43.8398" y="376.6919">8</text><text fill="#000000" font-family="sans-serif" font-size="13" lengthAdjust="spacing" textLength="133.396" x="56.8853" y="376.6919">200 OK (JSON Array)</text></g><?plantuml-src RP51Ry8m38Nl-HKMfo9j0ks81XCKXhIn8G6zSKbRKo9bIPIaq_hlvwHbBT9kZlmz--MPrrwh-Yj7otZXjONHyfIc8-0EGi4CjruKmd3bgIMiqTQdMdchfKGRkTHRUS_jXFCTwrRD0IkXLUOmvGwZ8lj_xW6DTe9CD94AJrPoptFImMZTLR6tNZ4M_C7Z8kw76Mmt9vXm8oQyspofhAuDbYzvCxVHG_YY-EOUMyyiAcb2bf8UVx2eFIPvC-uvSigok2Mu8UeYLBcKCXamqMTi4xPU4NJSx3Rf2LuF-m_etFGuMIVeiH_9fRnHZfKu1DkfDuSXrkSkgyMGZ0wOqbHQKLqzw4khs8O4tDzqo1jeapYhX6vTw9eksO2uK6VUlSOFP-MlgC15ITMDaERASwIRaTsc3QNFVkWixZoWCrevlBCPmcmZ9sMytWoUfbFOlqFoTjn_mj9QJkaF907_1G00?></g></svg>