<svg xmlns="http://www.w3.org/2000/svg" xmlns:xlink="http://www.w3.org/1999/xlink" contentStyleType="text/css" data-diagram-type="SEQUENCE" height="498px" preserveAspectRatio="none" style="width:879px;height:498px;background:#FFFFFF;" version="1.1" viewBox="0 0 879 498" width="879px" zoomAndPan="magnify"><?plantuml 1.2026.4?><defs/><g><g><title>AirportController</title><rect fill="#FFFFFF" height="281.5156" style="stroke:#181818;stroke-width:1;" width="10" x="271.5503" y="114.9609"/></g><g><title>ListAirportsByRegionUseCase</title><rect fill="#FFFFFF" height="220.8125" style="stroke:#181818;stroke-width:1;" width="10" x="485.1519" y="145.3125"/></g><g><title>AirportRepository</title><rect fill="#FFFFFF" height="91.0547" style="stroke:#181818;stroke-width:1;" width="10" x="657.3789" y="175.6641"/></g><g><title>Database</title><rect fill="#FFFFFF" height="30.3516" style="stroke:#181818;stroke-width:1;" width="10" x="830.5225" y="206.0156"/></g><g class="participant-lifeline" data-entity-uid="part1" data-qualified-name="ATCC" data-source-line="2" id="part1-lifeline"><g><title>ATCC</title><rect fill="#000000" fill-opacity="0.00000" height="331.8672" width="8" x="23.0552" y="82.6094"/><line style="stroke:#181818;stroke-width:0.5;stroke-dasharray:5,5;" x1="27" x2="27" y1="82.6094" y2="414.4766"/></g></g><g class="participant-lifeline" data-entity-uid="part2" data-qualified-name="Ctrl" data-source-line="3" id="part2-lifeline"><g><title>AirportController</title><rect fill="#000000" fill-opacity="0.00000" height="331.8672" width="8" x="272.5503" y="82.6094"/><line style="stroke:#181818;stroke-width:0.5;stroke-dasharray:5,5;" x1="275.5884" x2="275.5884" y1="82.6094" y2="414.4766"/></g></g><g class="participant-lifeline" data-entity-uid="part3" data-qualified-name="UC" data-source-line="4" id="part3-lifeline"><g><title>ListAirportsByRegionUseCase</title><rect fill="#000000" fill-opacity="0.00000" height="331.8672" width="8" x="486.1519" y="82.6094"/><line style="stroke:#181818;stroke-width:0.5;stroke-dasharray:5,5;" x1="490.0005" x2="490.0005" y1="82.6094" y2="414.4766"/></g></g><g class="participant-lifeline" data-entity-uid="part4" data-qualified-name="Repo" data-source-line="5" id="part4-lifeline"><g><title>AirportRepository</title><rect fill="#000000" fill-opacity="0.00000" height="331.8672" width="8" x="658.3789" y="82.6094"/><line style="stroke:#181818;stroke-width:0.5;stroke-dasharray:5,5;" x1="662.3032" x2="662.3032" y1="82.6094" y2="414.4766"/></g></g><g class="participant-lifeline" data-entity-uid="part5" data-qualified-name="DB" data-source-line="6" id="part5-lifeline"><g><title>Database</title><rect fill="#000000" fill-opacity="0.00000" height="331.8672" width="8" x="831.5225" y="82.6094"/><line style="stroke:#181818;stroke-width:0.5;stroke-dasharray:5,5;" x1="834.5571" x2="834.5571" y1="82.6094" y2="414.4766"/></g></g><g class="participant participant-head" data-entity-uid="part1" data-qualified-name="ATCC" data-source-line="2" id="part1-head"><text fill="#000000" font-family="sans-serif" font-size="14" lengthAdjust="spacing" textLength="38.1104" x="5" y="79.5332">ATCC</text><ellipse cx="27.0552" cy="13.5" fill="#E2E2F0" rx="8" ry="8" style="stroke:#181818;stroke-width:0.5;"/><path d="M27.0552,21.5 L27.0552,48.5 M14.0552,29.5 L40.0552,29.5 M27.0552,48.5 L14.0552,63.5 M27.0552,48.5 L40.0552,63.5" fill="none" style="stroke:#181818;stroke-width:0.5;"/></g><g class="participant participant-tail" data-entity-uid="part1" data-qualified-name="ATCC" data-source-line="2" id="part1-tail"><text fill="#000000" font-family="sans-serif" font-size="14" lengthAdjust="spacing" textLength="38.1104" x="5" y="428.0098">ATCC</text><ellipse cx="27.0552" cy="439.5859" fill="#E2E2F0" rx="8" ry="8" style="stroke:#181818;stroke-width:0.5;"/><path d="M27.0552,447.5859 L27.0552,474.5859 M14.0552,455.5859 L40.0552,455.5859 M27.0552,474.5859 L14.0552,489.5859 M27.0552,474.5859 L40.0552,489.5859" fill="none" style="stroke:#181818;stroke-width:0.5;"/></g><g class="participant participant-head" data-entity-uid="part2" data-qualified-name="Ctrl" data-source-line="3" id="part2-head"><rect fill="#E2E2F0" height="31.6094" rx="2.5" ry="2.5" style="stroke:#181818;stroke-width:0.5;" width="115.9238" x="218.5884" y="50"/><text fill="#000000" font-family="sans-serif" font-size="14" lengthAdjust="spacing" textLength="101.9238" x="225.5884" y="71.5332">AirportController</text></g><g class="participant participant-tail" data-entity-uid="part2" data-qualified-name="Ctrl" data-source-line="3" id="part2-tail"><rect fill="#E2E2F0" height="31.6094" rx="2.5" ry="2.5" style="stroke:#181818;stroke-width:0.5;" width="115.9238" x="218.5884" y="413.4766"/><text fill="#000000" font-family="sans-serif" font-size="14" lengthAdjust="spacing" textLength="101.9238" x="225.5884" y="435.0098">AirportController</text></g><g class="participant participant-head" data-entity-uid="part3" data-qualified-name="UC" data-source-line="4" id="part3-head"><rect fill="#E2E2F0" height="31.6094" rx="2.5" ry="2.5" style="stroke:#181818;stroke-width:0.5;" width="202.3027" x="389.0005" y="50"/><text fill="#000000" font-family="sans-serif" font-size="14" lengthAdjust="spacing" textLength="188.3027" x="396.0005" y="71.5332">ListAirportsByRegionUseCase</text></g><g class="participant participant-tail" data-entity-uid="part3" data-qualified-name="UC" data-source-line="4" id="part3-tail"><rect fill="#E2E2F0" height="31.6094" rx="2.5" ry="2.5" style="stroke:#181818;stroke-width:0.5;" width="202.3027" x="389.0005" y="413.4766"/><text fill="#000000" font-family="sans-serif" font-size="14" lengthAdjust="spacing" textLength="188.3027" x="396.0005" y="435.0098">ListAirportsByRegionUseCase</text></g><g class="participant participant-head" data-entity-uid="part4" data-qualified-name="Repo" data-source-line="5" id="part4-head"><rect fill="#E2E2F0" height="31.6094" rx="2.5" ry="2.5" style="stroke:#181818;stroke-width:0.5;" width="122.1514" x="601.3032" y="50"/><text fill="#000000" font-family="sans-serif" font-size="14" lengthAdjust="spacing" textLength="108.1514" x="608.3032" y="71.5332">AirportRepository</text></g><g class="participant participant-tail" data-entity-uid="part4" data-qualified-name="Repo" data-source-line="5" id="part4-tail"><rect fill="#E2E2F0" height="31.6094" rx="2.5" ry="2.5" style="stroke:#181818;stroke-width:0.5;" width="122.1514" x="601.3032" y="413.4766"/><text fill="#000000" font-family="sans-serif" font-size="14" lengthAdjust="spacing" textLength="108.1514" x="608.3032" y="435.0098">AirportRepository</text></g><g class="participant participant-head" data-entity-uid="part5" data-qualified-name="DB" data-source-line="6" id="part5-head"><text fill="#000000" font-family="sans-serif" font-size="14" lengthAdjust="spacing" textLength="59.9307" x="802.5571" y="79.5332">Database</text><path d="M817.5225,29 C817.5225,19 835.5225,19 835.5225,19 C835.5225,19 853.5225,19 853.5225,29 L853.5225,55 C853.5225,65 835.5225,65 835.5225,65 C835.5225,65 817.5225,65 817.5225,55 L817.5225,29" fill="#E2E2F0" style="stroke:#181818;stroke-width:0.5;"/><path d="M817.5225,29 C817.5225,39 835.5225,39 835.5225,39 C835.5225,39 853.5225,39 853.5225,29" fill="none" style="stroke:#181818;stroke-width:0.5;"/></g><g class="participant participant-tail" data-entity-uid="part5" data-qualified-name="DB" data-source-line="6" id="part5-tail"><text fill="#000000" font-family="sans-serif" font-size="14" lengthAdjust="spacing" textLength="59.9307" x="802.5571" y="428.0098">Database</text><path d="M817.5225,441.0859 C817.5225,431.0859 835.5225,431.0859 835.5225,431.0859 C835.5225,431.0859 853.5225,431.0859 853.5225,441.0859 L853.5225,467.0859 C853.5225,477.0859 835.5225,477.0859 835.5225,477.0859 C835.5225,477.0859 817.5225,477.0859 817.5225,467.0859 L817.5225,441.0859" fill="#E2E2F0" style="stroke:#181818;stroke-width:0.5;"/><path d="M817.5225,441.0859 C817.5225,451.0859 835.5225,451.0859 835.5225,451.0859 C835.5225,451.0859 853.5225,451.0859 853.5225,441.0859" fill="none" style="stroke:#181818;stroke-width:0.5;"/></g><g><title>AirportController</title><rect fill="#FFFFFF" height="281.5156" style="stroke:#181818;stroke-width:1;" width="10" x="271.5503" y="114.9609"/></g><g><title>ListAirportsByRegionUseCase</title><rect fill="#FFFFFF" height="220.8125" style="stroke:#181818;stroke-width:1;" width="10" x="485.1519" y="145.3125"/></g><g><title>AirportRepository</title><rect fill="#FFFFFF" height="91.0547" style="stroke:#181818;stroke-width:1;" width="10" x="657.3789" y="175.6641"/></g><g><title>Database</title><rect fill="#FFFFFF" height="30.3516" style="stroke:#181818;stroke-width:1;" width="10" x="830.5225" y="206.0156"/></g><g class="message" data-entity-1="part1" data-entity-2="part2" data-source-line="8" id="msg1"><polygon fill="#181818" points="259.5503,110.9609,269.5503,114.9609,259.5503,118.9609,263.5503,114.9609" style="stroke:#181818;stroke-width:1;stroke-linejoin:miter;stroke-miterlimit:10;"/><line style="stroke:#181818;stroke-width:1;" x1="27.0552" x2="265.5503" y1="114.9609" y2="114.9609"/><text fill="#000000" font-family="sans-serif" font-size="13" font-weight="700" lengthAdjust="spacing" textLength="7.23" x="34.0552" y="110.1045">1</text><text fill="#000000" font-family="sans-serif" font-size="13" lengthAdjust="spacing" textLength="214.2651" x="45.2852" y="110.1045">GET /api/airports/grouped?by=region</text></g><g class="message" data-entity-1="part2" data-entity-2="part3" data-source-line="11" id="msg2"><polygon fill="#181818" points="473.1519,141.3125,483.1519,145.3125,473.1519,149.3125,477.1519,145.3125" style="stroke:#181818;stroke-width:1;stroke-linejoin:miter;stroke-miterlimit:10;"/><line style="stroke:#181818;stroke-width:1;" x1="281.5503" x2="479.1519" y1="145.3125" y2="145.3125"/><text fill="#000000" font-family="sans-serif" font-size="13" font-weight="700" lengthAdjust="spacing" textLength="7.23" x="288.5503" y="140.4561">2</text><text fill="#000000" font-family="sans-serif" font-size="13" lengthAdjust="spacing" textLength="67.9199" x="299.7803" y="140.4561">execute(by)</text></g><g class="message" data-entity-1="part3" data-entity-2="part4" data-source-line="14" id="msg3"><polygon fill="#181818" points="645.3789,171.6641,655.3789,175.6641,645.3789,179.6641,649.3789,175.6641" style="stroke:#181818;stroke-width:1;stroke-linejoin:miter;stroke-miterlimit:10;"/><line style="stroke:#181818;stroke-width:1;" x1="495.1519" x2="651.3789" y1="175.6641" y2="175.6641"/><text fill="#000000" font-family="sans-serif" font-size="13" font-weight="700" lengthAdjust="spacing" textLength="7.23" x="502.1519" y="170.8076">3</text><text fill="#000000" font-family="sans-serif" font-size="13" lengthAdjust="spacing" textLength="44.0654" x="513.3818" y="170.8076">findAll()</text></g><g class="message" data-entity-1="part4" data-entity-2="part5" data-source-line="16" id="msg4"><polygon fill="#181818" points="818.5225,202.0156,828.5225,206.0156,818.5225,210.0156,822.5225,206.0156" style="stroke:#181818;stroke-width:1;stroke-linejoin:miter;stroke-miterlimit:10;"/><line style="stroke:#181818;stroke-width:1;" x1="667.3789" x2="824.5225" y1="206.0156" y2="206.0156"/><text fill="#000000" font-family="sans-serif" font-size="13" font-weight="700" lengthAdjust="spacing" textLength="7.23" x="674.3789" y="201.1592">4</text><text fill="#000000" font-family="sans-serif" font-size="13" lengthAdjust="spacing" textLength="132.9136" x="685.6089" y="201.1592">SELECT FROM airport</text></g><g class="message" data-entity-1="part5" data-entity-2="part4" data-source-line="18" id="msg5"><polygon fill="#181818" points="678.3789,232.3672,668.3789,236.3672,678.3789,240.3672,674.3789,236.3672" style="stroke:#181818;stroke-width:1;stroke-linejoin:miter;stroke-miterlimit:10;"/><line style="stroke:#181818;stroke-width:1;stroke-dasharray:2,2;" x1="672.3789" x2="834.5225" y1="236.3672" y2="236.3672"/><text fill="#000000" font-family="sans-serif" font-size="13" font-weight="700" lengthAdjust="spacing" textLength="7.23" x="684.3789" y="231.5107">5</text><text fill="#000000" font-family="sans-serif" font-size="13" lengthAdjust="spacing" textLength="59.9663" x="695.6089" y="231.5107">all airports</text></g><g class="message" data-entity-1="part4" data-entity-2="part3" data-source-line="20" id="msg6"><polygon fill="#181818" points="506.1519,262.7188,496.1519,266.7188,506.1519,270.7188,502.1519,266.7188" style="stroke:#181818;stroke-width:1;stroke-linejoin:miter;stroke-miterlimit:10;"/><line style="stroke:#181818;stroke-width:1;stroke-dasharray:2,2;" x1="500.1519" x2="661.3789" y1="266.7188" y2="266.7188"/><text fill="#000000" font-family="sans-serif" font-size="13" font-weight="700" lengthAdjust="spacing" textLength="7.23" x="512.1519" y="261.8623">6</text><text fill="#000000" font-family="sans-serif" font-size="13" lengthAdjust="spacing" textLength="73.7026" x="523.3818" y="261.8623">List&lt;Airport&gt;</text></g><path d="M500,279.7188 L500,338.7188 L703,338.7188 L703,289.7188 L693,279.7188 L500,279.7188" fill="#FEFFDD" style="stroke:#181818;stroke-width:0.5;"/><path d="M693,279.7188 L693,289.7188 L703,289.7188 L693,279.7188" fill="#FEFFDD" style="stroke:#181818;stroke-width:0.5;"/><text fill="#000000" font-family="sans-serif" font-size="13" lengthAdjust="spacing" textLength="146.6816" x="506" y="298.2139">Groups airports by region</text><text fill="#000000" font-family="sans-serif" font-size="13" lengthAdjust="spacing" textLength="147.748" x="506" y="314.5654">(or country if by=country),</text><text fill="#000000" font-family="sans-serif" font-size="13" lengthAdjust="spacing" textLength="182.8315" x="506" y="330.917">then sorts groups alphabetically</text><g class="message" data-entity-1="part3" data-entity-2="part2" data-source-line="25" id="msg7"><polygon fill="#181818" points="292.5503,362.125,282.5503,366.125,292.5503,370.125,288.5503,366.125" style="stroke:#181818;stroke-width:1;stroke-linejoin:miter;stroke-miterlimit:10;"/><line style="stroke:#181818;stroke-width:1;stroke-dasharray:2,2;" x1="286.5503" x2="489.1519" y1="366.125" y2="366.125"/><text fill="#000000" font-family="sans-serif" font-size="13" font-weight="700" lengthAdjust="spacing" textLength="7.23" x="298.5503" y="361.2686">7</text><text fill="#000000" font-family="sans-serif" font-size="13" lengthAdjust="spacing" textLength="168.3716" x="309.7803" y="361.2686">List&lt;AirportGroupResponse&gt;</text></g><g class="message" data-entity-1="part2" data-entity-2="part1" data-source-line="28" id="msg8"><polygon fill="#181818" points="38.0552,392.4766,28.0552,396.4766,38.0552,400.4766,34.0552,396.4766" style="stroke:#181818;stroke-width:1;stroke-linejoin:miter;stroke-miterlimit:10;"/><line style="stroke:#181818;stroke-width:1;stroke-dasharray:2,2;" x1="32.0552" x2="275.5503" y1="396.4766" y2="396.4766"/><text fill="#000000" font-family="sans-serif" font-size="13" font-weight="700" lengthAdjust="spacing" textLength="7.23" x="44.0552" y="391.6201">8</text><text fill="#000000" font-family="sans-serif" font-size="13" lengthAdjust="spacing" textLength="125.6963" x="55.2852" y="391.6201">200 OK (JSON Array)</text></g><?plantuml-src RP51Ry8m38Nl-HKMfo9j0ks81XCKXhIn8G6zSKbRKo9bIPIaq_hlvwHbBT9kZlmz--MPrrwh-Yj7otZXjONHyfIc8-0EGi4CjruKmd3bgIMiqTQdMdchfKGRkTHRUS_jXFCTwrRD0IkXLUOmvGwZ8lj_xW6DTe9CD94AJrPoptFImMZTLR6tNZ4M_C7Z8kw76Mmt9vXm8oQyspofhAuDbYzvCxVHG_YY-EOUMyyiAcb2bf8UVx2eFIPvC-uvSigok2Mu8UeYLBcKCXamqMTi4xPU4NJSx3Rf2LuF-m_etFGuMIVeiH_9fRnHZfKu1DkfDuSXrkSkgyMGZ0wOqbHQKLqzw4khs8O4tDzqo1jeapYhX6vTw9eksO2uK6VUlSOFP-MlgC15ITMDaERASwIRaTsc3QNFVkWixZoWCrevlBCPmcmZ9sMytWoUfbFOlqFoTjn_mj9QJkaF907_1G00?></g></svg>