<svg xmlns="http://www.w3.org/2000/svg" xmlns:xlink="http://www.w3.org/1999/xlink" contentStyleType="text/css" data-diagram-type="SEQUENCE" height="632px" preserveAspectRatio="none" style="width:915px;height:632px;background:#FFFFFF;" version="1.1" viewBox="0 0 915 632" width="915px" zoomAndPan="magnify"><?plantuml 1.2026.4?><defs/><g><g><title>AirportController</title><rect fill="#FFFFFF" height="415.9766" style="stroke:#181818;stroke-width:1;" width="10" x="302.9185" y="114.9609"/></g><g><title>ListAirportsByRegionUseCase</title><rect fill="#FFFFFF" height="269.8672" style="stroke:#181818;stroke-width:1;" width="10" x="521.5601" y="198.0156"/></g><g><title>AirportRepository</title><rect fill="#FFFFFF" height="91.0547" style="stroke:#181818;stroke-width:1;" width="10" x="693.7871" y="228.3672"/></g><g><title>Database</title><rect fill="#FFFFFF" height="30.3516" style="stroke:#181818;stroke-width:1;" width="10" x="866.9307" y="258.7188"/></g><g class="participant-lifeline" data-entity-uid="part1" data-qualified-name="ATCC" data-source-line="2" id="part1-lifeline"><g><title>ATCC</title><rect fill="#000000" fill-opacity="0.00000" height="466.3281" width="8" x="23.0552" y="82.6094"/><line style="stroke:#181818;stroke-width:0.5;stroke-dasharray:5,5;" x1="27" x2="27" y1="82.6094" y2="548.9375"/></g></g><g class="participant-lifeline" data-entity-uid="part2" data-qualified-name="Ctrl" data-source-line="3" id="part2-lifeline"><g><title>AirportController</title><rect fill="#000000" fill-opacity="0.00000" height="466.3281" width="8" x="303.9185" y="82.6094"/><line style="stroke:#181818;stroke-width:0.5;stroke-dasharray:5,5;" x1="306.9565" x2="306.9565" y1="82.6094" y2="548.9375"/></g></g><g class="participant-lifeline" data-entity-uid="part3" data-qualified-name="UC" data-source-line="4" id="part3-lifeline"><g><title>ListAirportsByRegionUseCase</title><rect fill="#000000" fill-opacity="0.00000" height="466.3281" width="8" x="522.5601" y="82.6094"/><line style="stroke:#181818;stroke-width:0.5;stroke-dasharray:5,5;" x1="526.4087" x2="526.4087" y1="82.6094" y2="548.9375"/></g></g><g class="participant-lifeline" data-entity-uid="part4" data-qualified-name="Repo" data-source-line="5" id="part4-lifeline"><g><title>AirportRepository</title><rect fill="#000000" fill-opacity="0.00000" height="466.3281" width="8" x="694.7871" y="82.6094"/><line style="stroke:#181818;stroke-width:0.5;stroke-dasharray:5,5;" x1="698.7114" x2="698.7114" y1="82.6094" y2="548.9375"/></g></g><g class="participant-lifeline" data-entity-uid="part5" data-qualified-name="DB" data-source-line="6" id="part5-lifeline"><g><title>Database</title><rect fill="#000000" fill-opacity="0.00000" height="466.3281" width="8" x="867.9307" y="82.6094"/><line style="stroke:#181818;stroke-width:0.5;stroke-dasharray:5,5;" x1="870.9653" x2="870.9653" y1="82.6094" y2="548.9375"/></g></g><g class="participant participant-head" data-entity-uid="part1" data-qualified-name="ATCC" data-source-line="2" id="part1-head"><text fill="#000000" font-family="sans-serif" font-size="14" lengthAdjust="spacing" textLength="38.1104" x="5" y="79.5332">ATCC</text><ellipse cx="27.0552" cy="13.5" fill="#E2E2F0" rx="8" ry="8" style="stroke:#181818;stroke-width:0.5;"/><path d="M27.0552,21.5 L27.0552,48.5 M14.0552,29.5 L40.0552,29.5 M27.0552,48.5 L14.0552,63.5 M27.0552,48.5 L40.0552,63.5" fill="none" style="stroke:#181818;stroke-width:0.5;"/></g><g class="participant participant-tail" data-entity-uid="part1" data-qualified-name="ATCC" data-source-line="2" id="part1-tail"><text fill="#000000" font-family="sans-serif" font-size="14" lengthAdjust="spacing" textLength="38.1104" x="5" y="562.4707">ATCC</text><ellipse cx="27.0552" cy="574.0469" fill="#E2E2F0" rx="8" ry="8" style="stroke:#181818;stroke-width:0.5;"/><path d="M27.0552,582.0469 L27.0552,609.0469 M14.0552,590.0469 L40.0552,590.0469 M27.0552,609.0469 L14.0552,624.0469 M27.0552,609.0469 L40.0552,624.0469" fill="none" style="stroke:#181818;stroke-width:0.5;"/></g><g class="participant participant-head" data-entity-uid="part2" data-qualified-name="Ctrl" data-source-line="3" id="part2-head"><rect fill="#E2E2F0" height="31.6094" rx="2.5" ry="2.5" style="stroke:#181818;stroke-width:0.5;" width="115.9238" x="249.9565" y="50"/><text fill="#000000" font-family="sans-serif" font-size="14" lengthAdjust="spacing" textLength="101.9238" x="256.9565" y="71.5332">AirportController</text></g><g class="participant participant-tail" data-entity-uid="part2" data-qualified-name="Ctrl" data-source-line="3" id="part2-tail"><rect fill="#E2E2F0" height="31.6094" rx="2.5" ry="2.5" style="stroke:#181818;stroke-width:0.5;" width="115.9238" x="249.9565" y="547.9375"/><text fill="#000000" font-family="sans-serif" font-size="14" lengthAdjust="spacing" textLength="101.9238" x="256.9565" y="569.4707">AirportController</text></g><g class="participant participant-head" data-entity-uid="part3" data-qualified-name="UC" data-source-line="4" id="part3-head"><rect fill="#E2E2F0" height="31.6094" rx="2.5" ry="2.5" style="stroke:#181818;stroke-width:0.5;" width="202.3027" x="425.4087" y="50"/><text fill="#000000" font-family="sans-serif" font-size="14" lengthAdjust="spacing" textLength="188.3027" x="432.4087" y="71.5332">ListAirportsByRegionUseCase</text></g><g class="participant participant-tail" data-entity-uid="part3" data-qualified-name="UC" data-source-line="4" id="part3-tail"><rect fill="#E2E2F0" height="31.6094" rx="2.5" ry="2.5" style="stroke:#181818;stroke-width:0.5;" width="202.3027" x="425.4087" y="547.9375"/><text fill="#000000" font-family="sans-serif" font-size="14" lengthAdjust="spacing" textLength="188.3027" x="432.4087" y="569.4707">ListAirportsByRegionUseCase</text></g><g class="participant participant-head" data-entity-uid="part4" data-qualified-name="Repo" data-source-line="5" id="part4-head"><rect fill="#E2E2F0" height="31.6094" rx="2.5" ry="2.5" style="stroke:#181818;stroke-width:0.5;" width="122.1514" x="637.7114" y="50"/><text fill="#000000" font-family="sans-serif" font-size="14" lengthAdjust="spacing" textLength="108.1514" x="644.7114" y="71.5332">AirportRepository</text></g><g class="participant participant-tail" data-entity-uid="part4" data-qualified-name="Repo" data-source-line="5" id="part4-tail"><rect fill="#E2E2F0" height="31.6094" rx="2.5" ry="2.5" style="stroke:#181818;stroke-width:0.5;" width="122.1514" x="637.7114" y="547.9375"/><text fill="#000000" font-family="sans-serif" font-size="14" lengthAdjust="spacing" textLength="108.1514" x="644.7114" y="569.4707">AirportRepository</text></g><g class="participant participant-head" data-entity-uid="part5" data-qualified-name="DB" data-source-line="6" id="part5-head"><text fill="#000000" font-family="sans-serif" font-size="14" lengthAdjust="spacing" textLength="59.9307" x="838.9653" y="79.5332">Database</text><path d="M853.9307,29 C853.9307,19 871.9307,19 871.9307,19 C871.9307,19 889.9307,19 889.9307,29 L889.9307,55 C889.9307,65 871.9307,65 871.9307,65 C871.9307,65 853.9307,65 853.9307,55 L853.9307,29" fill="#E2E2F0" style="stroke:#181818;stroke-width:0.5;"/><path d="M853.9307,29 C853.9307,39 871.9307,39 871.9307,39 C871.9307,39 889.9307,39 889.9307,29" fill="none" style="stroke:#181818;stroke-width:0.5;"/></g><g class="participant participant-tail" data-entity-uid="part5" data-qualified-name="DB" data-source-line="6" id="part5-tail"><text fill="#000000" font-family="sans-serif" font-size="14" lengthAdjust="spacing" textLength="59.9307" x="838.9653" y="562.4707">Database</text><path d="M853.9307,575.5469 C853.9307,565.5469 871.9307,565.5469 871.9307,565.5469 C871.9307,565.5469 889.9307,565.5469 889.9307,575.5469 L889.9307,601.5469 C889.9307,611.5469 871.9307,611.5469 871.9307,611.5469 C871.9307,611.5469 853.9307,611.5469 853.9307,601.5469 L853.9307,575.5469" fill="#E2E2F0" style="stroke:#181818;stroke-width:0.5;"/><path d="M853.9307,575.5469 C853.9307,585.5469 871.9307,585.5469 871.9307,585.5469 C871.9307,585.5469 889.9307,585.5469 889.9307,575.5469" fill="none" style="stroke:#181818;stroke-width:0.5;"/></g><g><title>AirportController</title><rect fill="#FFFFFF" height="415.9766" style="stroke:#181818;stroke-width:1;" width="10" x="302.9185" y="114.9609"/></g><g><title>ListAirportsByRegionUseCase</title><rect fill="#FFFFFF" height="269.8672" style="stroke:#181818;stroke-width:1;" width="10" x="521.5601" y="198.0156"/></g><g><title>AirportRepository</title><rect fill="#FFFFFF" height="91.0547" style="stroke:#181818;stroke-width:1;" width="10" x="693.7871" y="228.3672"/></g><g><title>Database</title><rect fill="#FFFFFF" height="30.3516" style="stroke:#181818;stroke-width:1;" width="10" x="866.9307" y="258.7188"/></g><g class="message" data-entity-1="part1" data-entity-2="part2" data-source-line="8" id="msg1"><polygon fill="#181818" points="290.9185,110.9609,300.9185,114.9609,290.9185,118.9609,294.9185,114.9609" style="stroke:#181818;stroke-width:1;stroke-linejoin:miter;stroke-miterlimit:10;"/><line style="stroke:#181818;stroke-width:1;" x1="27.0552" x2="296.9185" y1="114.9609" y2="114.9609"/><text fill="#000000" font-family="sans-serif" font-size="13" font-weight="700" lengthAdjust="spacing" textLength="7.23" x="34.0552" y="110.1045">1</text><text fill="#000000" font-family="sans-serif" font-size="13" lengthAdjust="spacing" textLength="214.2651" x="45.2852" y="110.1045">GET /api/airports/grouped?by=region</text></g><path d="M317,127.9609 L317,169.9609 L526,169.9609 L526,137.9609 L516,127.9609 L317,127.9609" fill="#FEFFDD" style="stroke:#181818;stroke-width:0.5;"/><path d="M516,127.9609 L516,137.9609 L526,137.9609 L516,127.9609" fill="#FEFFDD" style="stroke:#181818;stroke-width:0.5;"/><text fill="#000000" font-family="sans-serif" font-size="13" lengthAdjust="spacing" textLength="79.4727" x="323" y="146.4561">Query param:</text><text fill="#000000" font-family="sans-serif" font-size="13" lengthAdjust="spacing" textLength="188.0239" x="323" y="162.8076">- by: "region" (default) | "country"</text><g class="message" data-entity-1="part2" data-entity-2="part3" data-source-line="16" id="msg2"><polygon fill="#181818" points="509.5601,194.0156,519.5601,198.0156,509.5601,202.0156,513.5601,198.0156" style="stroke:#181818;stroke-width:1;stroke-linejoin:miter;stroke-miterlimit:10;"/><line style="stroke:#181818;stroke-width:1;" x1="312.9185" x2="515.5601" y1="198.0156" y2="198.0156"/><text fill="#000000" font-family="sans-serif" font-size="13" font-weight="700" lengthAdjust="spacing" textLength="7.23" x="319.9185" y="193.1592">2</text><text fill="#000000" font-family="sans-serif" font-size="13" lengthAdjust="spacing" textLength="109.1035" x="331.1484" y="193.1592">execute(by: String)</text></g><g class="message" data-entity-1="part3" data-entity-2="part4" data-source-line="19" id="msg3"><polygon fill="#181818" points="681.7871,224.3672,691.7871,228.3672,681.7871,232.3672,685.7871,228.3672" style="stroke:#181818;stroke-width:1;stroke-linejoin:miter;stroke-miterlimit:10;"/><line style="stroke:#181818;stroke-width:1;" x1="531.5601" x2="687.7871" y1="228.3672" y2="228.3672"/><text fill="#000000" font-family="sans-serif" font-size="13" font-weight="700" lengthAdjust="spacing" textLength="7.23" x="538.5601" y="223.5107">3</text><text fill="#000000" font-family="sans-serif" font-size="13" lengthAdjust="spacing" textLength="44.0654" x="549.79" y="223.5107">findAll()</text></g><g class="message" data-entity-1="part4" data-entity-2="part5" data-source-line="21" id="msg4"><polygon fill="#181818" points="854.9307,254.7188,864.9307,258.7188,854.9307,262.7188,858.9307,258.7188" style="stroke:#181818;stroke-width:1;stroke-linejoin:miter;stroke-miterlimit:10;"/><line style="stroke:#181818;stroke-width:1;" x1="703.7871" x2="860.9307" y1="258.7188" y2="258.7188"/><text fill="#000000" font-family="sans-serif" font-size="13" font-weight="700" lengthAdjust="spacing" textLength="7.23" x="710.7871" y="253.8623">4</text><text fill="#000000" font-family="sans-serif" font-size="13" lengthAdjust="spacing" textLength="132.9136" x="722.0171" y="253.8623">SELECT FROM airport</text></g><g class="message" data-entity-1="part5" data-entity-2="part4" data-source-line="23" id="msg5"><polygon fill="#181818" points="714.7871,285.0703,704.7871,289.0703,714.7871,293.0703,710.7871,289.0703" style="stroke:#181818;stroke-width:1;stroke-linejoin:miter;stroke-miterlimit:10;"/><line style="stroke:#181818;stroke-width:1;stroke-dasharray:2,2;" x1="708.7871" x2="870.9307" y1="289.0703" y2="289.0703"/><text fill="#000000" font-family="sans-serif" font-size="13" font-weight="700" lengthAdjust="spacing" textLength="7.23" x="720.7871" y="284.2139">5</text><text fill="#000000" font-family="sans-serif" font-size="13" lengthAdjust="spacing" textLength="59.9663" x="732.0171" y="284.2139">all airports</text></g><g class="message" data-entity-1="part4" data-entity-2="part3" data-source-line="25" id="msg6"><polygon fill="#181818" points="542.5601,315.4219,532.5601,319.4219,542.5601,323.4219,538.5601,319.4219" style="stroke:#181818;stroke-width:1;stroke-linejoin:miter;stroke-miterlimit:10;"/><line style="stroke:#181818;stroke-width:1;stroke-dasharray:2,2;" x1="536.5601" x2="697.7871" y1="319.4219" y2="319.4219"/><text fill="#000000" font-family="sans-serif" font-size="13" font-weight="700" lengthAdjust="spacing" textLength="7.23" x="548.5601" y="314.5654">6</text><text fill="#000000" font-family="sans-serif" font-size="13" lengthAdjust="spacing" textLength="73.7026" x="559.79" y="314.5654">List&lt;Airport&gt;</text></g><path d="M536,332.4219 L536,407.4219 L813,407.4219 L813,342.4219 L803,332.4219 L536,332.4219" fill="#FEFFDD" style="stroke:#181818;stroke-width:0.5;"/><path d="M803,332.4219 L803,342.4219 L813,342.4219 L803,332.4219" fill="#FEFFDD" style="stroke:#181818;stroke-width:0.5;"/><text fill="#000000" font-family="sans-serif" font-size="13" lengthAdjust="spacing" textLength="208.0952" x="542" y="350.917">Groups airports by region or country</text><text fill="#000000" font-family="sans-serif" font-size="13" lengthAdjust="spacing" textLength="153.8354" x="542" y="367.2686">(depending on 'by' param),</text><text fill="#000000" font-family="sans-serif" font-size="13" lengthAdjust="spacing" textLength="186.4434" x="542" y="383.6201">then sorts groups alphabetically.</text><text fill="#000000" font-family="sans-serif" font-size="13" lengthAdjust="spacing" textLength="256.5278" x="542" y="399.9717">Each group maps to AirportGroupResponse.</text><g class="message" data-entity-1="part3" data-entity-2="part2" data-source-line="35" id="msg7"><polygon fill="#181818" points="323.9185,463.8828,313.9185,467.8828,323.9185,471.8828,319.9185,467.8828" style="stroke:#181818;stroke-width:1;stroke-linejoin:miter;stroke-miterlimit:10;"/><line style="stroke:#181818;stroke-width:1;stroke-dasharray:2,2;" x1="317.9185" x2="525.5601" y1="467.8828" y2="467.8828"/><text fill="#000000" font-family="sans-serif" font-size="13" font-weight="700" lengthAdjust="spacing" textLength="7.23" x="329.9185" y="446.6748">7</text><text fill="#000000" font-family="sans-serif" font-size="13" lengthAdjust="spacing" textLength="168.3716" x="341.1484" y="430.3232">List&lt;AirportGroupResponse&gt;</text><text fill="#000000" font-family="sans-serif" font-size="13" lengthAdjust="spacing" textLength="124.2871" x="341.1484" y="446.6748">[{ groupName: String,</text><text fill="#000000" font-family="sans-serif" font-size="13" lengthAdjust="spacing" textLength="166.188" x="348.3721" y="463.0264">airports: [AirportResponse] }]</text></g><g class="message" data-entity-1="part2" data-entity-2="part1" data-source-line="38" id="msg8"><polygon fill="#181818" points="38.0552,526.9375,28.0552,530.9375,38.0552,534.9375,34.0552,530.9375" style="stroke:#181818;stroke-width:1;stroke-linejoin:miter;stroke-miterlimit:10;"/><line style="stroke:#181818;stroke-width:1;stroke-dasharray:2,2;" x1="32.0552" x2="306.9185" y1="530.9375" y2="530.9375"/><text fill="#000000" font-family="sans-serif" font-size="13" font-weight="700" lengthAdjust="spacing" textLength="7.23" x="44.0552" y="509.7295">8</text><text fill="#000000" font-family="sans-serif" font-size="13" lengthAdjust="spacing" textLength="44.0845" x="55.2852" y="493.3779">200 OK</text><text fill="#000000" font-family="sans-serif" font-size="13" lengthAdjust="spacing" textLength="240.6333" x="55.2852" y="509.7295">CollectionModel&lt;AirportGroupResponse&gt;</text><text fill="#000000" font-family="sans-serif" font-size="13" lengthAdjust="spacing" textLength="92.4663" x="55.2852" y="526.0811">with _links (self)</text></g><?plantuml-src TPD1Rzim38Nl-XM4Bqs0fYbsDBOCZPFrq7R5qkJK58LiCxPGHJ8akPsnxR-Fafp47RgR77vwUdnaUEkqQlSv6iOBfmqaL-iiIu1Ry0VMSED48Hgk79M4QRHncLREQ2dH12vpHhxdReLrFMldtGeheTN6OiOjXXkRZtLNs6Who4GNAF_9IkvuJlSWMVIdK5lC6VF-O38BxqCAryirJ7aZfhn_ULePtJPOVisxBoPuy2sAL-umUcPAqz68gdQWT_4tW1yjcWx87z-dz3c1l4iXYG89Z4hSyLQwCVo6fD0j9T4b35K9NeonO8PCRJAoX3-nQ1sElCA3Cq9LuvC52e5jGWE-KQ9tGfLNKeu6J8WWb0bRp0bwMDukipLyMztVGT_e2QTK29gS9BcK1ygo4eTWL3quzHFxt8zXDYI3Wt-28kS0rpvSUrIdb21c1BH4VJ24KLuDfKEj0vNEykuiHZi-fwAhKO4DrwjUJZOrpv5MWwnt5yGiUL77Akmv4Kv3xpCuMA5jjB9uCPY1J_Mq5yFMtbsPRTNZhoZzdU_nCABphO9ZMoay7fSptdg2Fq_3WFmOuz3foR2IANowl8JxcwtA_9-4GAtkT8doVoxUXAlXMGhrOc5aKUx6mmUy-5y0?></g></svg>