<svg xmlns="http://www.w3.org/2000/svg" xmlns:xlink="http://www.w3.org/1999/xlink" contentStyleType="text/css" data-diagram-type="SEQUENCE" height="890px" preserveAspectRatio="none" style="width:1091px;height:890px;background:#FFFFFF;" version="1.1" viewBox="0 0 1091 890" width="1091px" zoomAndPan="magnify"><defs/><g><g><title>RouteController</title><rect fill="#FFFFFF" height="339.541" style="stroke:#181818;stroke-width:1;" width="10" x="277.8921" y="162.2031"/></g><g><title>RouteController</title><rect fill="#FFFFFF" height="219.0371" style="stroke:#181818;stroke-width:1;" width="10" x="277.8921" y="570.3262"/></g><g><title>ViewRouteDetailsUseCase</title><rect fill="#FFFFFF" height="308.25" style="stroke:#181818;stroke-width:1;" width="10" x="513.8945" y="193.4941"/></g><g><title>ViewRouteDetailsUseCase</title><rect fill="#FFFFFF" height="187.7461" style="stroke:#181818;stroke-width:1;" width="10" x="513.8945" y="601.6172"/></g><g><title>RouteRepository</title><rect fill="#FFFFFF" height="93.873" style="stroke:#181818;stroke-width:1;" width="10" x="723.937" y="224.7852"/></g><g><title>RouteRepository</title><rect fill="#FFFFFF" height="93.873" style="stroke:#181818;stroke-width:1;" width="10" x="723.937" y="632.9082"/></g><g><title>Database</title><rect fill="#FFFFFF" height="31.291" style="stroke:#181818;stroke-width:1;" width="10" x="1041.9658" y="256.0762"/></g><g><title>Database</title><rect fill="#FFFFFF" height="31.291" style="stroke:#181818;stroke-width:1;" width="10" x="1041.9658" y="664.1992"/></g><rect fill="none" height="161.0859" style="stroke:#000000;stroke-width:1.5;" width="609.9321" x="10" y="333.6582"/><g><title>ATCC</title><rect fill="#000000" fill-opacity="0.00000" height="723.7422" width="8" x="38.0552" y="83.6211"/><line style="stroke:#181818;stroke-width:0.5;stroke-dasharray:5,5;" x1="42" x2="42" y1="83.6211" y2="807.3633"/></g><g><title>RouteController</title><rect fill="#000000" fill-opacity="0.00000" height="723.7422" width="8" x="278.8921" y="83.6211"/><line style="stroke:#181818;stroke-width:0.5;stroke-dasharray:5,5;" x1="282.8682" x2="282.8682" y1="83.6211" y2="807.3633"/></g><g><title>ViewRouteDetailsUseCase</title><rect fill="#000000" fill-opacity="0.00000" height="723.7422" width="8" x="514.8945" y="83.6211"/><line style="stroke:#181818;stroke-width:0.5;stroke-dasharray:5,5;" x1="518.8569" x2="518.8569" y1="83.6211" y2="807.3633"/></g><g><title>RouteRepository</title><rect fill="#000000" fill-opacity="0.00000" height="723.7422" width="8" x="724.937" y="83.6211"/><line style="stroke:#181818;stroke-width:0.5;stroke-dasharray:5,5;" x1="728.7993" x2="728.7993" y1="83.6211" y2="807.3633"/></g><g><title>Database</title><rect fill="#000000" fill-opacity="0.00000" height="723.7422" width="8" x="1042.9658" y="83.6211"/><line style="stroke:#181818;stroke-width:0.5;stroke-dasharray:5,5;" x1="1046.0005" x2="1046.0005" y1="83.6211" y2="807.3633"/></g><g class="participant participant-head" data-participant="Actor"><text fill="#000000" font-family="sans-serif" font-size="14" lengthAdjust="spacing" textLength="38.1104" x="20" y="80.1074">ATCC</text><ellipse cx="42.0552" cy="13.5" fill="#E2E2F0" rx="8" ry="8" style="stroke:#181818;stroke-width:0.5;"/><path d="M42.0552,21.5 L42.0552,48.5 M29.0552,29.5 L55.0552,29.5 M42.0552,48.5 L29.0552,63.5 M42.0552,48.5 L55.0552,63.5" fill="none" style="stroke:#181818;stroke-width:0.5;"/></g><g class="participant participant-tail" data-participant="Actor"><text fill="#000000" font-family="sans-serif" font-size="14" lengthAdjust="spacing" textLength="38.1104" x="20" y="821.4707">ATCC</text><ellipse cx="42.0552" cy="833.4844" fill="#E2E2F0" rx="8" ry="8" style="stroke:#181818;stroke-width:0.5;"/><path d="M42.0552,841.4844 L42.0552,868.4844 M29.0552,849.4844 L55.0552,849.4844 M42.0552,868.4844 L29.0552,883.4844 M42.0552,868.4844 L55.0552,883.4844" fill="none" style="stroke:#181818;stroke-width:0.5;"/></g><g class="participant participant-head" data-participant="Ctrl"><rect fill="#E2E2F0" height="32.6211" rx="2.5" ry="2.5" style="stroke:#181818;stroke-width:0.5;" width="112.0479" x="226.8682" y="50"/><text fill="#000000" font-family="sans-serif" font-size="14" lengthAdjust="spacing" textLength="98.0479" x="233.8682" y="72.1074">RouteController</text></g><g class="participant participant-tail" data-participant="Ctrl"><rect fill="#E2E2F0" height="32.6211" rx="2.5" ry="2.5" style="stroke:#181818;stroke-width:0.5;" width="112.0479" x="226.8682" y="806.3633"/><text fill="#000000" font-family="sans-serif" font-size="14" lengthAdjust="spacing" textLength="98.0479" x="233.8682" y="828.4707">RouteController</text></g><g class="participant participant-head" data-participant="UC"><rect fill="#E2E2F0" height="32.6211" rx="2.5" ry="2.5" style="stroke:#181818;stroke-width:0.5;" width="182.0752" x="427.8569" y="50"/><text fill="#000000" font-family="sans-serif" font-size="14" lengthAdjust="spacing" textLength="168.0752" x="434.8569" y="72.1074">ViewRouteDetailsUseCase</text></g><g class="participant participant-tail" data-participant="UC"><rect fill="#E2E2F0" height="32.6211" rx="2.5" ry="2.5" style="stroke:#181818;stroke-width:0.5;" width="182.0752" x="427.8569" y="806.3633"/><text fill="#000000" font-family="sans-serif" font-size="14" lengthAdjust="spacing" textLength="168.0752" x="434.8569" y="828.4707">ViewRouteDetailsUseCase</text></g><g class="participant participant-head" data-participant="Repo"><rect fill="#E2E2F0" height="32.6211" rx="2.5" ry="2.5" style="stroke:#181818;stroke-width:0.5;" width="118.2754" x="669.7993" y="50"/><text fill="#000000" font-family="sans-serif" font-size="14" lengthAdjust="spacing" textLength="104.2754" x="676.7993" y="72.1074">RouteRepository</text></g><g class="participant participant-tail" data-participant="Repo"><rect fill="#E2E2F0" height="32.6211" rx="2.5" ry="2.5" style="stroke:#181818;stroke-width:0.5;" width="118.2754" x="669.7993" y="806.3633"/><text fill="#000000" font-family="sans-serif" font-size="14" lengthAdjust="spacing" textLength="104.2754" x="676.7993" y="828.4707">RouteRepository</text></g><g class="participant participant-head" data-participant="DB"><text fill="#000000" font-family="sans-serif" font-size="14" lengthAdjust="spacing" textLength="59.9307" x="1014.0005" y="80.1074">Database</text><path d="M1028.9658,29 C1028.9658,19 1046.9658,19 1046.9658,19 C1046.9658,19 1064.9658,19 1064.9658,29 L1064.9658,55 C1064.9658,65 1046.9658,65 1046.9658,65 C1046.9658,65 1028.9658,65 1028.9658,55 L1028.9658,29" fill="#E2E2F0" style="stroke:#181818;stroke-width:0.5;"/><path d="M1028.9658,29 C1028.9658,39 1046.9658,39 1046.9658,39 C1046.9658,39 1064.9658,39 1064.9658,29" fill="none" style="stroke:#181818;stroke-width:0.5;"/></g><g class="participant participant-tail" data-participant="DB"><text fill="#000000" font-family="sans-serif" font-size="14" lengthAdjust="spacing" textLength="59.9307" x="1014.0005" y="821.4707">Database</text><path d="M1028.9658,834.9844 C1028.9658,824.9844 1046.9658,824.9844 1046.9658,824.9844 C1046.9658,824.9844 1064.9658,824.9844 1064.9658,834.9844 L1064.9658,860.9844 C1064.9658,870.9844 1046.9658,870.9844 1046.9658,870.9844 C1046.9658,870.9844 1028.9658,870.9844 1028.9658,860.9844 L1028.9658,834.9844" fill="#E2E2F0" style="stroke:#181818;stroke-width:0.5;"/><path d="M1028.9658,834.9844 C1028.9658,844.9844 1046.9658,844.9844 1046.9658,844.9844 C1046.9658,844.9844 1064.9658,844.9844 1064.9658,834.9844" fill="none" style="stroke:#181818;stroke-width:0.5;"/></g><g><title>RouteController</title><rect fill="#FFFFFF" height="339.541" style="stroke:#181818;stroke-width:1;" width="10" x="277.8921" y="162.2031"/></g><g><title>RouteController</title><rect fill="#FFFFFF" height="219.0371" style="stroke:#181818;stroke-width:1;" width="10" x="277.8921" y="570.3262"/></g><g><title>ViewRouteDetailsUseCase</title><rect fill="#FFFFFF" height="308.25" style="stroke:#181818;stroke-width:1;" width="10" x="513.8945" y="193.4941"/></g><g><title>ViewRouteDetailsUseCase</title><rect fill="#FFFFFF" height="187.7461" style="stroke:#181818;stroke-width:1;" width="10" x="513.8945" y="601.6172"/></g><g><title>RouteRepository</title><rect fill="#FFFFFF" height="93.873" style="stroke:#181818;stroke-width:1;" width="10" x="723.937" y="224.7852"/></g><g><title>RouteRepository</title><rect fill="#FFFFFF" height="93.873" style="stroke:#181818;stroke-width:1;" width="10" x="723.937" y="632.9082"/></g><g><title>Database</title><rect fill="#FFFFFF" height="31.291" style="stroke:#181818;stroke-width:1;" width="10" x="1041.9658" y="256.0762"/></g><g><title>Database</title><rect fill="#FFFFFF" height="31.291" style="stroke:#181818;stroke-width:1;" width="10" x="1041.9658" y="664.1992"/></g><rect fill="#EEEEEE" height="3" style="stroke:#EEEEEE;stroke-width:1;" width="1084.9312" x="0" y="115.2666"/><line style="stroke:#000000;stroke-width:1;" x1="0" x2="1084.9312" y1="115.2666" y2="115.2666"/><line style="stroke:#000000;stroke-width:1;" x1="0" x2="1084.9312" y1="118.2666" y2="118.2666"/><rect fill="#EEEEEE" height="25.291" style="stroke:#000000;stroke-width:2;" width="127.4263" x="478.7524" y="103.6211"/><text fill="#000000" font-family="sans-serif" font-size="13" font-weight="bold" lengthAdjust="spacing" textLength="109.8145" x="484.7524" y="121.6494">View details by ID</text><g class="message" data-participant-1="Actor" data-participant-2="Ctrl"><polygon fill="#181818" points="265.8921,158.2031,275.8921,162.2031,265.8921,166.2031,269.8921,162.2031" style="stroke:#181818;stroke-width:1;"/><line style="stroke:#181818;stroke-width:1;" x1="42.0552" x2="271.8921" y1="162.2031" y2="162.2031"/><text fill="#000000" font-family="sans-serif" font-size="13" font-weight="bold" lengthAdjust="spacing" textLength="7.23" x="49.0552" y="156.9404">1</text><text fill="#000000" font-family="sans-serif" font-size="13" lengthAdjust="spacing" textLength="113.4517" x="60.2852" y="156.9404">GET /api/routes/{id}</text></g><g class="message" data-participant-1="Ctrl" data-participant-2="UC"><polygon fill="#181818" points="501.8945,189.4941,511.8945,193.4941,501.8945,197.4941,505.8945,193.4941" style="stroke:#181818;stroke-width:1;"/><line style="stroke:#181818;stroke-width:1;" x1="287.8921" x2="507.8945" y1="193.4941" y2="193.4941"/><text fill="#000000" font-family="sans-serif" font-size="13" font-weight="bold" lengthAdjust="spacing" textLength="7.23" x="294.8921" y="188.2314">2</text><text fill="#000000" font-family="sans-serif" font-size="13" lengthAdjust="spacing" textLength="62.8608" x="306.1221" y="188.2314">getById(id)</text></g><g class="message" data-participant-1="UC" data-participant-2="Repo"><polygon fill="#181818" points="711.937,220.7852,721.937,224.7852,711.937,228.7852,715.937,224.7852" style="stroke:#181818;stroke-width:1;"/><line style="stroke:#181818;stroke-width:1;" x1="523.8945" x2="717.937" y1="224.7852" y2="224.7852"/><text fill="#000000" font-family="sans-serif" font-size="13" font-weight="bold" lengthAdjust="spacing" textLength="7.23" x="530.8945" y="219.5225">3</text><text fill="#000000" font-family="sans-serif" font-size="13" lengthAdjust="spacing" textLength="65.749" x="542.1245" y="219.5225">findById(id)</text></g><g class="message" data-participant-1="Repo" data-participant-2="DB"><polygon fill="#181818" points="1029.9658,252.0762,1039.9658,256.0762,1029.9658,260.0762,1033.9658,256.0762" style="stroke:#181818;stroke-width:1;"/><line style="stroke:#181818;stroke-width:1;" x1="733.937" x2="1035.9658" y1="256.0762" y2="256.0762"/><text fill="#000000" font-family="sans-serif" font-size="13" font-weight="bold" lengthAdjust="spacing" textLength="7.23" x="740.937" y="250.8135">4</text><text fill="#000000" font-family="sans-serif" font-size="13" lengthAdjust="spacing" textLength="213.4717" x="752.167" y="250.8135">SELECT FROM route WHERE id = ?</text></g><g class="message" data-participant-1="DB" data-participant-2="Repo"><polygon fill="#181818" points="744.937,283.3672,734.937,287.3672,744.937,291.3672,740.937,287.3672" style="stroke:#181818;stroke-width:1;"/><line style="stroke:#181818;stroke-width:1;stroke-dasharray:2,2;" x1="738.937" x2="1045.9658" y1="287.3672" y2="287.3672"/><text fill="#000000" font-family="sans-serif" font-size="13" font-weight="bold" lengthAdjust="spacing" textLength="7.23" x="750.937" y="282.1045">5</text><text fill="#000000" font-family="sans-serif" font-size="13" lengthAdjust="spacing" textLength="36.8481" x="762.167" y="282.1045">record</text></g><g class="message" data-participant-1="Repo" data-participant-2="UC"><polygon fill="#181818" points="534.8945,314.6582,524.8945,318.6582,534.8945,322.6582,530.8945,318.6582" style="stroke:#181818;stroke-width:1;"/><line style="stroke:#181818;stroke-width:1;stroke-dasharray:2,2;" x1="528.8945" x2="727.937" y1="318.6582" y2="318.6582"/><text fill="#000000" font-family="sans-serif" font-size="13" font-weight="bold" lengthAdjust="spacing" textLength="7.23" x="540.8945" y="313.3955">6</text><text fill="#000000" font-family="sans-serif" font-size="13" lengthAdjust="spacing" textLength="98.2935" x="552.1245" y="313.3955">Optional&lt;Route&gt;</text></g><path d="M10,333.6582 L70.1709,333.6582 L70.1709,342.9492 L60.1709,352.9492 L10,352.9492 L10,333.6582" fill="#EEEEEE" style="stroke:#000000;stroke-width:1.5;"/><rect fill="none" height="161.0859" style="stroke:#000000;stroke-width:1.5;" width="609.9321" x="10" y="333.6582"/><text fill="#000000" font-family="sans-serif" font-size="13" font-weight="bold" lengthAdjust="spacing" textLength="15.1709" x="25" y="348.6865">alt</text><text fill="#000000" font-family="sans-serif" font-size="11" font-weight="bold" lengthAdjust="spacing" textLength="72.0854" x="85.1709" y="347.5283">[Route found]</text><g class="message" data-participant-1="UC" data-participant-2="Ctrl"><polygon fill="#181818" points="298.8921,372.2402,288.8921,376.2402,298.8921,380.2402,294.8921,376.2402" style="stroke:#181818;stroke-width:1;"/><line style="stroke:#181818;stroke-width:1;stroke-dasharray:2,2;" x1="292.8921" x2="512.8945" y1="376.2402" y2="376.2402"/><text fill="#000000" font-family="sans-serif" font-size="13" font-weight="bold" lengthAdjust="spacing" textLength="7.23" x="304.8921" y="370.9775">7</text><text fill="#000000" font-family="sans-serif" font-size="13" lengthAdjust="spacing" textLength="34.6899" x="316.1221" y="370.9775">Route</text></g><g class="message" data-participant-1="Ctrl" data-participant-2="Actor"><polygon fill="#181818" points="53.0552,403.5313,43.0552,407.5313,53.0552,411.5313,49.0552,407.5313" style="stroke:#181818;stroke-width:1;"/><line style="stroke:#181818;stroke-width:1;stroke-dasharray:2,2;" x1="47.0552" x2="276.8921" y1="407.5313" y2="407.5313"/><text fill="#000000" font-family="sans-serif" font-size="13" font-weight="bold" lengthAdjust="spacing" textLength="7.23" x="59.0552" y="402.2686">8</text><text fill="#000000" font-family="sans-serif" font-size="13" lengthAdjust="spacing" textLength="44.0845" x="70.2852" y="402.2686">200 OK</text></g><line style="stroke:#000000;stroke-width:1;stroke-dasharray:2,2;" x1="10" x2="619.9321" y1="416.5313" y2="416.5313"/><text fill="#000000" font-family="sans-serif" font-size="11" font-weight="bold" lengthAdjust="spacing" textLength="92.2432" x="15" y="428.4014">[Route not found]</text><g class="message" data-participant-1="UC" data-participant-2="Ctrl"><polygon fill="#181818" points="298.8921,451.4531,288.8921,455.4531,298.8921,459.4531,294.8921,455.4531" style="stroke:#181818;stroke-width:1;"/><line style="stroke:#181818;stroke-width:1;stroke-dasharray:2,2;" x1="292.8921" x2="512.8945" y1="455.4531" y2="455.4531"/><text fill="#000000" font-family="sans-serif" font-size="13" font-weight="bold" lengthAdjust="spacing" textLength="7.23" x="304.8921" y="450.1904">9</text><text fill="#000000" font-family="sans-serif" font-size="13" lengthAdjust="spacing" textLength="190.7725" x="316.1221" y="450.1904">throws RouteNotFoundException</text></g><g class="message" data-participant-1="Ctrl" data-participant-2="Actor"><polygon fill="#181818" points="53.0552,482.7441,43.0552,486.7441,53.0552,490.7441,49.0552,486.7441" style="stroke:#181818;stroke-width:1;"/><line style="stroke:#181818;stroke-width:1;stroke-dasharray:2,2;" x1="47.0552" x2="276.8921" y1="486.7441" y2="486.7441"/><text fill="#000000" font-family="sans-serif" font-size="13" font-weight="bold" lengthAdjust="spacing" textLength="14.46" x="59.0552" y="481.4814">10</text><text fill="#000000" font-family="sans-serif" font-size="13" lengthAdjust="spacing" textLength="86.0044" x="77.5151" y="481.4814">404 Not Found</text></g><rect fill="#EEEEEE" height="3" style="stroke:#EEEEEE;stroke-width:1;" width="1084.9312" x="0" y="523.3896"/><line style="stroke:#000000;stroke-width:1;" x1="0" x2="1084.9312" y1="523.3896" y2="523.3896"/><line style="stroke:#000000;stroke-width:1;" x1="0" x2="1084.9312" y1="526.3896" y2="526.3896"/><rect fill="#EEEEEE" height="25.291" style="stroke:#000000;stroke-width:2;" width="248.7935" x="418.0688" y="511.7441"/><text fill="#000000" font-family="sans-serif" font-size="13" font-weight="bold" lengthAdjust="spacing" textLength="231.1816" x="424.0688" y="529.7725">View all routes from a specific airport</text><g class="message" data-participant-1="Actor" data-participant-2="Ctrl"><polygon fill="#181818" points="265.8921,566.3262,275.8921,570.3262,265.8921,574.3262,269.8921,570.3262" style="stroke:#181818;stroke-width:1;"/><line style="stroke:#181818;stroke-width:1;" x1="42.0552" x2="271.8921" y1="570.3262" y2="570.3262"/><text fill="#000000" font-family="sans-serif" font-size="13" font-weight="bold" lengthAdjust="spacing" textLength="14.46" x="49.0552" y="565.0635">11</text><text fill="#000000" font-family="sans-serif" font-size="13" lengthAdjust="spacing" textLength="198.377" x="67.5151" y="565.0635">GET /api/routes?origin={iataCode}</text></g><g class="message" data-participant-1="Ctrl" data-participant-2="UC"><polygon fill="#181818" points="501.8945,597.6172,511.8945,601.6172,501.8945,605.6172,505.8945,601.6172" style="stroke:#181818;stroke-width:1;"/><line style="stroke:#181818;stroke-width:1;" x1="287.8921" x2="507.8945" y1="601.6172" y2="601.6172"/><text fill="#000000" font-family="sans-serif" font-size="13" font-weight="bold" lengthAdjust="spacing" textLength="14.46" x="294.8921" y="596.3545">12</text><text fill="#000000" font-family="sans-serif" font-size="13" lengthAdjust="spacing" textLength="128.6162" x="313.3521" y="596.3545">getByOrigin(iataCode)</text></g><g class="message" data-participant-1="UC" data-participant-2="Repo"><polygon fill="#181818" points="711.937,628.9082,721.937,632.9082,711.937,636.9082,715.937,632.9082" style="stroke:#181818;stroke-width:1;"/><line style="stroke:#181818;stroke-width:1;" x1="523.8945" x2="717.937" y1="632.9082" y2="632.9082"/><text fill="#000000" font-family="sans-serif" font-size="13" font-weight="bold" lengthAdjust="spacing" textLength="14.46" x="530.8945" y="627.6455">13</text><text fill="#000000" font-family="sans-serif" font-size="13" lengthAdjust="spacing" textLength="162.5825" x="549.3545" y="627.6455">findByOriginCode(iataCode)</text></g><g class="message" data-participant-1="Repo" data-participant-2="DB"><polygon fill="#181818" points="1029.9658,660.1992,1039.9658,664.1992,1029.9658,668.1992,1033.9658,664.1992" style="stroke:#181818;stroke-width:1;"/><line style="stroke:#181818;stroke-width:1;" x1="733.937" x2="1035.9658" y1="664.1992" y2="664.1992"/><text fill="#000000" font-family="sans-serif" font-size="13" font-weight="bold" lengthAdjust="spacing" textLength="14.46" x="740.937" y="658.9365">14</text><text fill="#000000" font-family="sans-serif" font-size="13" lengthAdjust="spacing" textLength="270.5688" x="759.397" y="658.9365">SELECT FROM route WHERE origin_code = ?</text></g><g class="message" data-participant-1="DB" data-participant-2="Repo"><polygon fill="#181818" points="744.937,691.4902,734.937,695.4902,744.937,699.4902,740.937,695.4902" style="stroke:#181818;stroke-width:1;"/><line style="stroke:#181818;stroke-width:1;stroke-dasharray:2,2;" x1="738.937" x2="1045.9658" y1="695.4902" y2="695.4902"/><text fill="#000000" font-family="sans-serif" font-size="13" font-weight="bold" lengthAdjust="spacing" textLength="14.46" x="750.937" y="690.2275">15</text><text fill="#000000" font-family="sans-serif" font-size="13" lengthAdjust="spacing" textLength="43.3481" x="769.397" y="690.2275">records</text></g><g class="message" data-participant-1="Repo" data-participant-2="UC"><polygon fill="#181818" points="534.8945,722.7813,524.8945,726.7813,534.8945,730.7813,530.8945,726.7813" style="stroke:#181818;stroke-width:1;"/><line style="stroke:#181818;stroke-width:1;stroke-dasharray:2,2;" x1="528.8945" x2="727.937" y1="726.7813" y2="726.7813"/><text fill="#000000" font-family="sans-serif" font-size="13" font-weight="bold" lengthAdjust="spacing" textLength="14.46" x="540.8945" y="721.5186">16</text><text fill="#000000" font-family="sans-serif" font-size="13" lengthAdjust="spacing" textLength="70.1035" x="559.3545" y="721.5186">List&lt;Route&gt;</text></g><g class="message" data-participant-1="UC" data-participant-2="Ctrl"><polygon fill="#181818" points="298.8921,754.0723,288.8921,758.0723,298.8921,762.0723,294.8921,758.0723" style="stroke:#181818;stroke-width:1;"/><line style="stroke:#181818;stroke-width:1;stroke-dasharray:2,2;" x1="292.8921" x2="512.8945" y1="758.0723" y2="758.0723"/><text fill="#000000" font-family="sans-serif" font-size="13" font-weight="bold" lengthAdjust="spacing" textLength="14.46" x="304.8921" y="752.8096">17</text><text fill="#000000" font-family="sans-serif" font-size="13" lengthAdjust="spacing" textLength="70.1035" x="323.3521" y="752.8096">List&lt;Route&gt;</text></g><g class="message" data-participant-1="Ctrl" data-participant-2="Actor"><polygon fill="#181818" points="53.0552,785.3633,43.0552,789.3633,53.0552,793.3633,49.0552,789.3633" style="stroke:#181818;stroke-width:1;"/><line style="stroke:#181818;stroke-width:1;stroke-dasharray:2,2;" x1="47.0552" x2="281.8921" y1="789.3633" y2="789.3633"/><text fill="#000000" font-family="sans-serif" font-size="13" font-weight="bold" lengthAdjust="spacing" textLength="14.46" x="59.0552" y="784.1006">18</text><text fill="#000000" font-family="sans-serif" font-size="13" lengthAdjust="spacing" textLength="44.0845" x="77.5151" y="784.1006">200 OK</text></g><!--SRC=[ZP91Jnin48Nl_XMZdE0G9QeueIw8U9SMGHifJU28dBL3HpBsofwKHgZ_lMERA0aaABVr-dlZDpDFBScxvVFS1A5QyW5wLrCfUw0YNAMpw5GWRB5JZg0tyKioqZiAtbeJCYOfs5tg7irB9cj32csSHIDLD9cUoJqL9wRp4VcrLMRIKMX5QiugwDLlN_ck7WbHLP2U05tAmtm5DpLKbSYEeN-HFS4vV6kcC50T3a9w9GvUKVzBRU8VHQOO5nbboKoouCdGQ7MZJr2VRZYsBFYMcMICgGKw_H7BhZF1P3rYxbTpryWfN4_6Fo0xW8VlpQG1r531vKR9FJ7VtpmGJEk35jfi8wNqskcu8_HEsQzvW1VRR3OYb2N8Tx3mIwS595r_CvjyntzB__o_3EySlWo7CBuLnlBiIm7dwK0H-XtyIopOJq_N2Mh-jYQRsrVyR7W6348cXN4xJVAWjqvbFUjTAslB32CiWdy61R4pBIwm1OMXyu6E2C2b3_Y4hdf5ZfJqshnFmySmZBFYP2tOZSMUL1G-eViqnsUaE7riMNzKMEAdQRd3I8UIihlHRV9GD3vTsNy0]--></g></svg>