<svg xmlns="http://www.w3.org/2000/svg" xmlns:xlink="http://www.w3.org/1999/xlink" contentStyleType="text/css" data-diagram-type="SEQUENCE" height="437px" preserveAspectRatio="none" style="width:1141px;height:437px;background:#FFFFFF;" version="1.1" viewBox="0 0 1141 437" width="1141px" zoomAndPan="magnify"><defs/><g><g><title>RouteController</title><rect fill="#FFFFFF" height="219.0371" style="stroke:#181818;stroke-width:1;" width="10" x="300.0767" y="116.9121"/></g><g><title>SearchRoutesUseCase</title><rect fill="#FFFFFF" height="187.7461" style="stroke:#181818;stroke-width:1;" width="10" x="475.4102" y="148.2031"/></g><g><title>RouteRepository</title><rect fill="#FFFFFF" height="93.873" style="stroke:#181818;stroke-width:1;" width="10" x="706.4063" y="179.4941"/></g><g><title>Database</title><rect fill="#FFFFFF" height="31.291" style="stroke:#181818;stroke-width:1;" width="10" x="1101.3813" y="210.7852"/></g><g><title>ATCC</title><rect fill="#000000" fill-opacity="0.00000" height="270.3281" width="8" x="23.0552" y="83.6211"/><line style="stroke:#181818;stroke-width:0.5;stroke-dasharray:5,5;" x1="27" x2="27" y1="83.6211" y2="353.9492"/></g><g><title>RouteController</title><rect fill="#000000" fill-opacity="0.00000" height="270.3281" width="8" x="301.0767" y="83.6211"/><line style="stroke:#181818;stroke-width:0.5;stroke-dasharray:5,5;" x1="305.0527" x2="305.0527" y1="83.6211" y2="353.9492"/></g><g><title>SearchRoutesUseCase</title><rect fill="#000000" fill-opacity="0.00000" height="270.3281" width="8" x="476.4102" y="83.6211"/><line style="stroke:#181818;stroke-width:0.5;stroke-dasharray:5,5;" x1="480.2622" x2="480.2622" y1="83.6211" y2="353.9492"/></g><g><title>RouteRepository</title><rect fill="#000000" fill-opacity="0.00000" height="270.3281" width="8" x="707.4063" y="83.6211"/><line style="stroke:#181818;stroke-width:0.5;stroke-dasharray:5,5;" x1="711.2686" x2="711.2686" y1="83.6211" y2="353.9492"/></g><g><title>Database</title><rect fill="#000000" fill-opacity="0.00000" height="270.3281" width="8" x="1102.3813" y="83.6211"/><line style="stroke:#181818;stroke-width:0.5;stroke-dasharray:5,5;" x1="1105.416" x2="1105.416" y1="83.6211" y2="353.9492"/></g><g class="participant participant-head" data-participant="Actor"><text fill="#000000" font-family="sans-serif" font-size="14" lengthAdjust="spacing" textLength="38.1104" x="5" y="80.1074">ATCC</text><ellipse cx="27.0552" cy="13.5" fill="#E2E2F0" rx="8" ry="8" style="stroke:#181818;stroke-width:0.5;"/><path d="M27.0552,21.5 L27.0552,48.5 M14.0552,29.5 L40.0552,29.5 M27.0552,48.5 L14.0552,63.5 M27.0552,48.5 L40.0552,63.5" fill="none" style="stroke:#181818;stroke-width:0.5;"/></g><g class="participant participant-tail" data-participant="Actor"><text fill="#000000" font-family="sans-serif" font-size="14" lengthAdjust="spacing" textLength="38.1104" x="5" y="368.0566">ATCC</text><ellipse cx="27.0552" cy="380.0703" fill="#E2E2F0" rx="8" ry="8" style="stroke:#181818;stroke-width:0.5;"/><path d="M27.0552,388.0703 L27.0552,415.0703 M14.0552,396.0703 L40.0552,396.0703 M27.0552,415.0703 L14.0552,430.0703 M27.0552,415.0703 L40.0552,430.0703" fill="none" style="stroke:#181818;stroke-width:0.5;"/></g><g class="participant participant-head" data-participant="Ctrl"><rect fill="#E2E2F0" height="32.6211" rx="2.5" ry="2.5" style="stroke:#181818;stroke-width:0.5;" width="112.0479" x="249.0527" y="50"/><text fill="#000000" font-family="sans-serif" font-size="14" lengthAdjust="spacing" textLength="98.0479" x="256.0527" y="72.1074">RouteController</text></g><g class="participant participant-tail" data-participant="Ctrl"><rect fill="#E2E2F0" height="32.6211" rx="2.5" ry="2.5" style="stroke:#181818;stroke-width:0.5;" width="112.0479" x="249.0527" y="352.9492"/><text fill="#000000" font-family="sans-serif" font-size="14" lengthAdjust="spacing" textLength="98.0479" x="256.0527" y="375.0566">RouteController</text></g><g class="participant participant-head" data-participant="UC"><rect fill="#E2E2F0" height="32.6211" rx="2.5" ry="2.5" style="stroke:#181818;stroke-width:0.5;" width="160.2959" x="400.2622" y="50"/><text fill="#000000" font-family="sans-serif" font-size="14" lengthAdjust="spacing" textLength="146.2959" x="407.2622" y="72.1074">SearchRoutesUseCase</text></g><g class="participant participant-tail" data-participant="UC"><rect fill="#E2E2F0" height="32.6211" rx="2.5" ry="2.5" style="stroke:#181818;stroke-width:0.5;" width="160.2959" x="400.2622" y="352.9492"/><text fill="#000000" font-family="sans-serif" font-size="14" lengthAdjust="spacing" textLength="146.2959" x="407.2622" y="375.0566">SearchRoutesUseCase</text></g><g class="participant participant-head" data-participant="Repo"><rect fill="#E2E2F0" height="32.6211" rx="2.5" ry="2.5" style="stroke:#181818;stroke-width:0.5;" width="118.2754" x="652.2686" y="50"/><text fill="#000000" font-family="sans-serif" font-size="14" lengthAdjust="spacing" textLength="104.2754" x="659.2686" y="72.1074">RouteRepository</text></g><g class="participant participant-tail" data-participant="Repo"><rect fill="#E2E2F0" height="32.6211" rx="2.5" ry="2.5" style="stroke:#181818;stroke-width:0.5;" width="118.2754" x="652.2686" y="352.9492"/><text fill="#000000" font-family="sans-serif" font-size="14" lengthAdjust="spacing" textLength="104.2754" x="659.2686" y="375.0566">RouteRepository</text></g><g class="participant participant-head" data-participant="DB"><text fill="#000000" font-family="sans-serif" font-size="14" lengthAdjust="spacing" textLength="59.9307" x="1073.416" y="80.1074">Database</text><path d="M1088.3813,29 C1088.3813,19 1106.3813,19 1106.3813,19 C1106.3813,19 1124.3813,19 1124.3813,29 L1124.3813,55 C1124.3813,65 1106.3813,65 1106.3813,65 C1106.3813,65 1088.3813,65 1088.3813,55 L1088.3813,29" fill="#E2E2F0" style="stroke:#181818;stroke-width:0.5;"/><path d="M1088.3813,29 C1088.3813,39 1106.3813,39 1106.3813,39 C1106.3813,39 1124.3813,39 1124.3813,29" fill="none" style="stroke:#181818;stroke-width:0.5;"/></g><g class="participant participant-tail" data-participant="DB"><text fill="#000000" font-family="sans-serif" font-size="14" lengthAdjust="spacing" textLength="59.9307" x="1073.416" y="368.0566">Database</text><path d="M1088.3813,381.5703 C1088.3813,371.5703 1106.3813,371.5703 1106.3813,371.5703 C1106.3813,371.5703 1124.3813,371.5703 1124.3813,381.5703 L1124.3813,407.5703 C1124.3813,417.5703 1106.3813,417.5703 1106.3813,417.5703 C1106.3813,417.5703 1088.3813,417.5703 1088.3813,407.5703 L1088.3813,381.5703" fill="#E2E2F0" style="stroke:#181818;stroke-width:0.5;"/><path d="M1088.3813,381.5703 C1088.3813,391.5703 1106.3813,391.5703 1106.3813,391.5703 C1106.3813,391.5703 1124.3813,391.5703 1124.3813,381.5703" fill="none" style="stroke:#181818;stroke-width:0.5;"/></g><g><title>RouteController</title><rect fill="#FFFFFF" height="219.0371" style="stroke:#181818;stroke-width:1;" width="10" x="300.0767" y="116.9121"/></g><g><title>SearchRoutesUseCase</title><rect fill="#FFFFFF" height="187.7461" style="stroke:#181818;stroke-width:1;" width="10" x="475.4102" y="148.2031"/></g><g><title>RouteRepository</title><rect fill="#FFFFFF" height="93.873" style="stroke:#181818;stroke-width:1;" width="10" x="706.4063" y="179.4941"/></g><g><title>Database</title><rect fill="#FFFFFF" height="31.291" style="stroke:#181818;stroke-width:1;" width="10" x="1101.3813" y="210.7852"/></g><g class="message" data-participant-1="Actor" data-participant-2="Ctrl"><polygon fill="#181818" points="288.0767,112.9121,298.0767,116.9121,288.0767,120.9121,292.0767,116.9121" style="stroke:#181818;stroke-width:1;"/><line style="stroke:#181818;stroke-width:1;" x1="27.0552" x2="294.0767" y1="116.9121" y2="116.9121"/><text fill="#000000" font-family="sans-serif" font-size="13" font-weight="bold" lengthAdjust="spacing" textLength="7.23" x="34.0552" y="111.6494">1</text><text fill="#000000" font-family="sans-serif" font-size="13" lengthAdjust="spacing" textLength="242.7915" x="45.2852" y="111.6494">GET /api/routes/search?origin=...&amp;dest=...</text></g><g class="message" data-participant-1="Ctrl" data-participant-2="UC"><polygon fill="#181818" points="463.4102,144.2031,473.4102,148.2031,463.4102,152.2031,467.4102,148.2031" style="stroke:#181818;stroke-width:1;"/><line style="stroke:#181818;stroke-width:1;" x1="310.0767" x2="469.4102" y1="148.2031" y2="148.2031"/><text fill="#000000" font-family="sans-serif" font-size="13" font-weight="bold" lengthAdjust="spacing" textLength="7.23" x="317.0767" y="142.9404">2</text><text fill="#000000" font-family="sans-serif" font-size="13" lengthAdjust="spacing" textLength="135.1035" x="328.3066" y="142.9404">execute(searchCriteria)</text></g><g class="message" data-participant-1="UC" data-participant-2="Repo"><polygon fill="#181818" points="694.4063,175.4941,704.4063,179.4941,694.4063,183.4941,698.4063,179.4941" style="stroke:#181818;stroke-width:1;"/><line style="stroke:#181818;stroke-width:1;" x1="485.4102" x2="700.4063" y1="179.4941" y2="179.4941"/><text fill="#000000" font-family="sans-serif" font-size="13" font-weight="bold" lengthAdjust="spacing" textLength="7.23" x="492.4102" y="174.2314">3</text><text fill="#000000" font-family="sans-serif" font-size="13" lengthAdjust="spacing" textLength="190.7661" x="503.6401" y="174.2314">searchRoutes(origin, destination)</text></g><g class="message" data-participant-1="Repo" data-participant-2="DB"><polygon fill="#181818" points="1089.3813,206.7852,1099.3813,210.7852,1089.3813,214.7852,1093.3813,210.7852" style="stroke:#181818;stroke-width:1;"/><line style="stroke:#181818;stroke-width:1;" x1="716.4063" x2="1095.3813" y1="210.7852" y2="210.7852"/><text fill="#000000" font-family="sans-serif" font-size="13" font-weight="bold" lengthAdjust="spacing" textLength="7.23" x="723.4063" y="205.5225">4</text><text fill="#000000" font-family="sans-serif" font-size="13" lengthAdjust="spacing" textLength="354.7451" x="734.6362" y="205.5225">SELECT FROM route WHERE origin = ? AND destination = ?</text></g><g class="message" data-participant-1="DB" data-participant-2="Repo"><polygon fill="#181818" points="727.4063,238.0762,717.4063,242.0762,727.4063,246.0762,723.4063,242.0762" style="stroke:#181818;stroke-width:1;"/><line style="stroke:#181818;stroke-width:1;stroke-dasharray:2,2;" x1="721.4063" x2="1105.3813" y1="242.0762" y2="242.0762"/><text fill="#000000" font-family="sans-serif" font-size="13" font-weight="bold" lengthAdjust="spacing" textLength="7.23" x="733.4063" y="236.8135">5</text><text fill="#000000" font-family="sans-serif" font-size="13" lengthAdjust="spacing" textLength="110.5444" x="744.6362" y="236.8135">list of route records</text></g><g class="message" data-participant-1="Repo" data-participant-2="UC"><polygon fill="#181818" points="496.4102,269.3672,486.4102,273.3672,496.4102,277.3672,492.4102,273.3672" style="stroke:#181818;stroke-width:1;"/><line style="stroke:#181818;stroke-width:1;stroke-dasharray:2,2;" x1="490.4102" x2="710.4063" y1="273.3672" y2="273.3672"/><text fill="#000000" font-family="sans-serif" font-size="13" font-weight="bold" lengthAdjust="spacing" textLength="7.23" x="502.4102" y="268.1045">6</text><text fill="#000000" font-family="sans-serif" font-size="13" lengthAdjust="spacing" textLength="70.1035" x="513.6401" y="268.1045">List&lt;Route&gt;</text></g><g class="message" data-participant-1="UC" data-participant-2="Ctrl"><polygon fill="#181818" points="321.0767,300.6582,311.0767,304.6582,321.0767,308.6582,317.0767,304.6582" style="stroke:#181818;stroke-width:1;"/><line style="stroke:#181818;stroke-width:1;stroke-dasharray:2,2;" x1="315.0767" x2="474.4102" y1="304.6582" y2="304.6582"/><text fill="#000000" font-family="sans-serif" font-size="13" font-weight="bold" lengthAdjust="spacing" textLength="7.23" x="327.0767" y="299.3955">7</text><text fill="#000000" font-family="sans-serif" font-size="13" lengthAdjust="spacing" textLength="70.1035" x="338.3066" y="299.3955">List&lt;Route&gt;</text></g><g class="message" data-participant-1="Ctrl" data-participant-2="Actor"><polygon fill="#181818" points="38.0552,331.9492,28.0552,335.9492,38.0552,339.9492,34.0552,335.9492" style="stroke:#181818;stroke-width:1;"/><line style="stroke:#181818;stroke-width:1;stroke-dasharray:2,2;" x1="32.0552" x2="304.0767" y1="335.9492" y2="335.9492"/><text fill="#000000" font-family="sans-serif" font-size="13" font-weight="bold" lengthAdjust="spacing" textLength="7.23" x="44.0552" y="330.6865">8</text><text fill="#000000" font-family="sans-serif" font-size="13" lengthAdjust="spacing" textLength="125.6963" x="55.2852" y="330.6865">200 OK (JSON Array)</text></g><!--SRC=[RP7DJiCm48JlVefL3gYLw8yuLhHLwWGGb5PAMt5s4mEMGXojNKJVdlMcLOp4pOxdcvdTg9EtpUdhg56eqbk49DrBcO1oa8QxQ1LwKvfMDHwImfwybhRnQEjQ8ykan_glQgSLbf-iTGUdfNAQbGVvZrkXM-iC9PrP4wwYKbuTYO8akvpuBLi9mQLWjE1OcC5ZleU9Qiq4EMxYE7jfqNoOPZuUZsygxNmuXFdCj_AwQopOW8mEacpqZow97tIuHECr6ZNi6UekI4dwq9085mqvwE9k8MIPHdbZcuZbcHWZF5iHlClNkTp3Gx5z1IuERqzvaKFd0tDOGhh9OhlmhNUaJP3Fg6zJ6-V1lb_CK9SMAoSg7HDTW-l4QoBkkVuYrd5NdhJVSIpjjaPltO-OmTrq2jiN63pljXj84TLvA693Mbnq2_Wl]--></g></svg>