<svg xmlns="http://www.w3.org/2000/svg" xmlns:xlink="http://www.w3.org/1999/xlink" contentStyleType="text/css" data-diagram-type="SEQUENCE" height="719px" preserveAspectRatio="none" style="width:1106px;height:719px;background:#FFFFFF;" version="1.1" viewBox="0 0 1106 719" width="1106px" zoomAndPan="magnify"><defs/><g><g><title>RouteController</title><rect fill="#FFFFFF" height="508.9961" style="stroke:#181818;stroke-width:1;" width="10" x="350.2603" y="116.9121"/></g><g><title>UpdateRouteUseCase</title><rect fill="#FFFFFF" height="477.7051" style="stroke:#181818;stroke-width:1;" width="10" x="593.4927" y="148.2031"/></g><g><title>RouteRepository</title><rect fill="#FFFFFF" height="93.873" style="stroke:#181818;stroke-width:1;" width="10" x="794.1006" y="179.4941"/></g><g><title>RouteRepository</title><rect fill="#FFFFFF" height="93.873" style="stroke:#181818;stroke-width:1;" width="10" x="794.1006" y="375.2402"/></g><rect fill="none" height="330.541" style="stroke:#000000;stroke-width:1.5;" width="1089.3857" x="10" y="288.3672"/><g><title>ATCC . Backoffice Operator</title><rect fill="#000000" fill-opacity="0.00000" height="552.2871" width="8" x="105.7515" y="83.6211"/><line style="stroke:#181818;stroke-width:0.5;stroke-dasharray:5,5;" x1="109" x2="109" y1="83.6211" y2="635.9082"/></g><g><title>RouteController</title><rect fill="#000000" fill-opacity="0.00000" height="552.2871" width="8" x="351.2603" y="83.6211"/><line style="stroke:#181818;stroke-width:0.5;stroke-dasharray:5,5;" x1="355.2363" x2="355.2363" y1="83.6211" y2="635.9082"/></g><g><title>UpdateRouteUseCase</title><rect fill="#000000" fill-opacity="0.00000" height="552.2871" width="8" x="594.4927" y="83.6211"/><line style="stroke:#181818;stroke-width:0.5;stroke-dasharray:5,5;" x1="598.4517" x2="598.4517" y1="83.6211" y2="635.9082"/></g><g><title>RouteRepository</title><rect fill="#000000" fill-opacity="0.00000" height="552.2871" width="8" x="795.1006" y="83.6211"/><line style="stroke:#181818;stroke-width:0.5;stroke-dasharray:5,5;" x1="798.9629" x2="798.9629" y1="83.6211" y2="635.9082"/></g><g><title>Database</title><rect fill="#000000" fill-opacity="0.00000" height="552.2871" width="8" x="1052.4204" y="83.6211"/><line style="stroke:#181818;stroke-width:0.5;stroke-dasharray:5,5;" x1="1055.4551" x2="1055.4551" y1="83.6211" y2="635.9082"/></g><g class="participant participant-head" data-participant="Actor"><text fill="#000000" font-family="sans-serif" font-size="14" lengthAdjust="spacing" textLength="173.5029" x="20" y="80.1074">ATCC / Backoffice Operator</text><ellipse cx="109.7515" cy="13.5" fill="#E2E2F0" rx="8" ry="8" style="stroke:#181818;stroke-width:0.5;"/><path d="M109.7515,21.5 L109.7515,48.5 M96.7515,29.5 L122.7515,29.5 M109.7515,48.5 L96.7515,63.5 M109.7515,48.5 L122.7515,63.5" fill="none" style="stroke:#181818;stroke-width:0.5;"/></g><g class="participant participant-tail" data-participant="Actor"><text fill="#000000" font-family="sans-serif" font-size="14" lengthAdjust="spacing" textLength="173.5029" x="20" y="650.0156">ATCC / Backoffice Operator</text><ellipse cx="109.7515" cy="662.0293" fill="#E2E2F0" rx="8" ry="8" style="stroke:#181818;stroke-width:0.5;"/><path d="M109.7515,670.0293 L109.7515,697.0293 M96.7515,678.0293 L122.7515,678.0293 M109.7515,697.0293 L96.7515,712.0293 M109.7515,697.0293 L122.7515,712.0293" fill="none" style="stroke:#181818;stroke-width:0.5;"/></g><g class="participant participant-head" data-participant="Ctrl"><rect fill="#E2E2F0" height="32.6211" rx="2.5" ry="2.5" style="stroke:#181818;stroke-width:0.5;" width="112.0479" x="299.2363" y="50"/><text fill="#000000" font-family="sans-serif" font-size="14" lengthAdjust="spacing" textLength="98.0479" x="306.2363" y="72.1074">RouteController</text></g><g class="participant participant-tail" data-participant="Ctrl"><rect fill="#E2E2F0" height="32.6211" rx="2.5" ry="2.5" style="stroke:#181818;stroke-width:0.5;" width="112.0479" x="299.2363" y="634.9082"/><text fill="#000000" font-family="sans-serif" font-size="14" lengthAdjust="spacing" textLength="98.0479" x="306.2363" y="657.0156">RouteController</text></g><g class="participant participant-head" data-participant="UC"><rect fill="#E2E2F0" height="32.6211" rx="2.5" ry="2.5" style="stroke:#181818;stroke-width:0.5;" width="154.082" x="521.4517" y="50"/><text fill="#000000" font-family="sans-serif" font-size="14" lengthAdjust="spacing" textLength="140.082" x="528.4517" y="72.1074">UpdateRouteUseCase</text></g><g class="participant participant-tail" data-participant="UC"><rect fill="#E2E2F0" height="32.6211" rx="2.5" ry="2.5" style="stroke:#181818;stroke-width:0.5;" width="154.082" x="521.4517" y="634.9082"/><text fill="#000000" font-family="sans-serif" font-size="14" lengthAdjust="spacing" textLength="140.082" x="528.4517" y="657.0156">UpdateRouteUseCase</text></g><g class="participant participant-head" data-participant="Repo"><rect fill="#E2E2F0" height="32.6211" rx="2.5" ry="2.5" style="stroke:#181818;stroke-width:0.5;" width="118.2754" x="739.9629" y="50"/><text fill="#000000" font-family="sans-serif" font-size="14" lengthAdjust="spacing" textLength="104.2754" x="746.9629" y="72.1074">RouteRepository</text></g><g class="participant participant-tail" data-participant="Repo"><rect fill="#E2E2F0" height="32.6211" rx="2.5" ry="2.5" style="stroke:#181818;stroke-width:0.5;" width="118.2754" x="739.9629" y="634.9082"/><text fill="#000000" font-family="sans-serif" font-size="14" lengthAdjust="spacing" textLength="104.2754" x="746.9629" y="657.0156">RouteRepository</text></g><g class="participant participant-head" data-participant="DB"><text fill="#000000" font-family="sans-serif" font-size="14" lengthAdjust="spacing" textLength="59.9307" x="1023.4551" y="80.1074">Database</text><path d="M1038.4204,29 C1038.4204,19 1056.4204,19 1056.4204,19 C1056.4204,19 1074.4204,19 1074.4204,29 L1074.4204,55 C1074.4204,65 1056.4204,65 1056.4204,65 C1056.4204,65 1038.4204,65 1038.4204,55 L1038.4204,29" fill="#E2E2F0" style="stroke:#181818;stroke-width:0.5;"/><path d="M1038.4204,29 C1038.4204,39 1056.4204,39 1056.4204,39 C1056.4204,39 1074.4204,39 1074.4204,29" fill="none" style="stroke:#181818;stroke-width:0.5;"/></g><g class="participant participant-tail" data-participant="DB"><text fill="#000000" font-family="sans-serif" font-size="14" lengthAdjust="spacing" textLength="59.9307" x="1023.4551" y="650.0156">Database</text><path d="M1038.4204,663.5293 C1038.4204,653.5293 1056.4204,653.5293 1056.4204,653.5293 C1056.4204,653.5293 1074.4204,653.5293 1074.4204,663.5293 L1074.4204,689.5293 C1074.4204,699.5293 1056.4204,699.5293 1056.4204,699.5293 C1056.4204,699.5293 1038.4204,699.5293 1038.4204,689.5293 L1038.4204,663.5293" fill="#E2E2F0" style="stroke:#181818;stroke-width:0.5;"/><path d="M1038.4204,663.5293 C1038.4204,673.5293 1056.4204,673.5293 1056.4204,673.5293 C1056.4204,673.5293 1074.4204,673.5293 1074.4204,663.5293" fill="none" style="stroke:#181818;stroke-width:0.5;"/></g><g><title>RouteController</title><rect fill="#FFFFFF" height="508.9961" style="stroke:#181818;stroke-width:1;" width="10" x="350.2603" y="116.9121"/></g><g><title>UpdateRouteUseCase</title><rect fill="#FFFFFF" height="477.7051" style="stroke:#181818;stroke-width:1;" width="10" x="593.4927" y="148.2031"/></g><g><title>RouteRepository</title><rect fill="#FFFFFF" height="93.873" style="stroke:#181818;stroke-width:1;" width="10" x="794.1006" y="179.4941"/></g><g><title>RouteRepository</title><rect fill="#FFFFFF" height="93.873" style="stroke:#181818;stroke-width:1;" width="10" x="794.1006" y="375.2402"/></g><g class="message" data-participant-1="Actor" data-participant-2="Ctrl"><polygon fill="#181818" points="338.2603,112.9121,348.2603,116.9121,338.2603,120.9121,342.2603,116.9121" style="stroke:#181818;stroke-width:1;"/><line style="stroke:#181818;stroke-width:1;" x1="109.7515" x2="344.2603" y1="116.9121" y2="116.9121"/><text fill="#000000" font-family="sans-serif" font-size="13" font-weight="bold" lengthAdjust="spacing" textLength="7.23" x="116.7515" y="111.6494">1</text><text fill="#000000" font-family="sans-serif" font-size="13" lengthAdjust="spacing" textLength="210.2788" x="127.9814" y="111.6494">PATCH /api/routes/{id} (updateData)</text></g><g class="message" data-participant-1="Ctrl" data-participant-2="UC"><polygon fill="#181818" points="581.4927,144.2031,591.4927,148.2031,581.4927,152.2031,585.4927,148.2031" style="stroke:#181818;stroke-width:1;"/><line style="stroke:#181818;stroke-width:1;" x1="360.2603" x2="587.4927" y1="148.2031" y2="148.2031"/><text fill="#000000" font-family="sans-serif" font-size="13" font-weight="bold" lengthAdjust="spacing" textLength="7.23" x="367.2603" y="142.9404">2</text><text fill="#000000" font-family="sans-serif" font-size="13" lengthAdjust="spacing" textLength="138.7534" x="378.4902" y="142.9404">execute(id, updateData)</text></g><g class="message" data-participant-1="UC" data-participant-2="Repo"><polygon fill="#181818" points="782.1006,175.4941,792.1006,179.4941,782.1006,183.4941,786.1006,179.4941" style="stroke:#181818;stroke-width:1;"/><line style="stroke:#181818;stroke-width:1;" x1="603.4927" x2="788.1006" y1="179.4941" y2="179.4941"/><text fill="#000000" font-family="sans-serif" font-size="13" font-weight="bold" lengthAdjust="spacing" textLength="7.23" x="610.4927" y="174.2314">3</text><text fill="#000000" font-family="sans-serif" font-size="13" lengthAdjust="spacing" textLength="65.749" x="621.7227" y="174.2314">findById(id)</text></g><g class="message" data-participant-1="Repo" data-participant-2="DB"><polygon fill="#181818" points="1044.4204,206.7852,1054.4204,210.7852,1044.4204,214.7852,1048.4204,210.7852" style="stroke:#181818;stroke-width:1;"/><line style="stroke:#181818;stroke-width:1;" x1="804.1006" x2="1050.4204" y1="210.7852" y2="210.7852"/><text fill="#000000" font-family="sans-serif" font-size="13" font-weight="bold" lengthAdjust="spacing" textLength="7.23" x="811.1006" y="205.5225">4</text><text fill="#000000" font-family="sans-serif" font-size="13" lengthAdjust="spacing" textLength="213.4717" x="822.3306" y="205.5225">SELECT FROM route WHERE id = ?</text></g><g class="message" data-participant-1="DB" data-participant-2="Repo"><polygon fill="#181818" points="815.1006,238.0762,805.1006,242.0762,815.1006,246.0762,811.1006,242.0762" style="stroke:#181818;stroke-width:1;"/><line style="stroke:#181818;stroke-width:1;stroke-dasharray:2,2;" x1="809.1006" x2="1055.4204" y1="242.0762" y2="242.0762"/><text fill="#000000" font-family="sans-serif" font-size="13" font-weight="bold" lengthAdjust="spacing" textLength="7.23" x="821.1006" y="236.8135">5</text><text fill="#000000" font-family="sans-serif" font-size="13" lengthAdjust="spacing" textLength="70.0908" x="832.3306" y="236.8135">route record</text></g><g class="message" data-participant-1="Repo" data-participant-2="UC"><polygon fill="#181818" points="614.4927,269.3672,604.4927,273.3672,614.4927,277.3672,610.4927,273.3672" style="stroke:#181818;stroke-width:1;"/><line style="stroke:#181818;stroke-width:1;stroke-dasharray:2,2;" x1="608.4927" x2="798.1006" y1="273.3672" y2="273.3672"/><text fill="#000000" font-family="sans-serif" font-size="13" font-weight="bold" lengthAdjust="spacing" textLength="7.23" x="620.4927" y="268.1045">6</text><text fill="#000000" font-family="sans-serif" font-size="13" lengthAdjust="spacing" textLength="98.2935" x="631.7227" y="268.1045">Optional&lt;Route&gt;</text></g><path d="M10,288.3672 L70.1709,288.3672 L70.1709,297.6582 L60.1709,307.6582 L10,307.6582 L10,288.3672" fill="#EEEEEE" style="stroke:#000000;stroke-width:1.5;"/><rect fill="none" height="330.541" style="stroke:#000000;stroke-width:1.5;" width="1089.3857" x="10" y="288.3672"/><text fill="#000000" font-family="sans-serif" font-size="13" font-weight="bold" lengthAdjust="spacing" textLength="15.1709" x="25" y="303.3955">alt</text><text fill="#000000" font-family="sans-serif" font-size="11" font-weight="bold" lengthAdjust="spacing" textLength="72.0854" x="85.1709" y="302.2373">[Route found]</text><g class="message" data-participant-1="UC" data-participant-2="UC"><line style="stroke:#181818;stroke-width:1;" x1="603.4927" x2="645.4927" y1="330.9492" y2="330.9492"/><line style="stroke:#181818;stroke-width:1;" x1="645.4927" x2="645.4927" y1="330.9492" y2="343.9492"/><line style="stroke:#181818;stroke-width:1;" x1="604.4927" x2="645.4927" y1="343.9492" y2="343.9492"/><polygon fill="#181818" points="614.4927,339.9492,604.4927,343.9492,614.4927,347.9492,610.4927,343.9492" style="stroke:#181818;stroke-width:1;"/><text fill="#000000" font-family="sans-serif" font-size="13" font-weight="bold" lengthAdjust="spacing" textLength="7.23" x="610.4927" y="325.6865">7</text><text fill="#000000" font-family="sans-serif" font-size="13" lengthAdjust="spacing" textLength="155.3779" x="621.7227" y="325.6865">applyUpdates(updateData)</text></g><g class="message" data-participant-1="UC" data-participant-2="Repo"><polygon fill="#181818" points="782.1006,371.2402,792.1006,375.2402,782.1006,379.2402,786.1006,375.2402" style="stroke:#181818;stroke-width:1;"/><line style="stroke:#181818;stroke-width:1;" x1="603.4927" x2="788.1006" y1="375.2402" y2="375.2402"/><text fill="#000000" font-family="sans-serif" font-size="13" font-weight="bold" lengthAdjust="spacing" textLength="7.23" x="610.4927" y="369.9775">8</text><text fill="#000000" font-family="sans-serif" font-size="13" lengthAdjust="spacing" textLength="117.7998" x="621.7227" y="369.9775">save(updatedRoute)</text></g><g class="message" data-participant-1="Repo" data-participant-2="DB"><polygon fill="#181818" points="1044.4204,402.5313,1054.4204,406.5313,1044.4204,410.5313,1048.4204,406.5313" style="stroke:#181818;stroke-width:1;"/><line style="stroke:#181818;stroke-width:1;" x1="804.1006" x2="1050.4204" y1="406.5313" y2="406.5313"/><text fill="#000000" font-family="sans-serif" font-size="13" font-weight="bold" lengthAdjust="spacing" textLength="7.23" x="811.1006" y="401.2686">9</text><text fill="#000000" font-family="sans-serif" font-size="13" lengthAdjust="spacing" textLength="217.0898" x="822.3306" y="401.2686">UPDATE route SET ... WHERE id = ?</text></g><g class="message" data-participant-1="DB" data-participant-2="Repo"><polygon fill="#181818" points="815.1006,433.8223,805.1006,437.8223,815.1006,441.8223,811.1006,437.8223" style="stroke:#181818;stroke-width:1;"/><line style="stroke:#181818;stroke-width:1;stroke-dasharray:2,2;" x1="809.1006" x2="1055.4204" y1="437.8223" y2="437.8223"/><text fill="#000000" font-family="sans-serif" font-size="13" font-weight="bold" lengthAdjust="spacing" textLength="14.46" x="821.1006" y="432.5596">10</text><text fill="#000000" font-family="sans-serif" font-size="13" lengthAdjust="spacing" textLength="46.96" x="839.5605" y="432.5596">success</text></g><g class="message" data-participant-1="Repo" data-participant-2="UC"><polygon fill="#181818" points="614.4927,465.1133,604.4927,469.1133,614.4927,473.1133,610.4927,469.1133" style="stroke:#181818;stroke-width:1;"/><line style="stroke:#181818;stroke-width:1;stroke-dasharray:2,2;" x1="608.4927" x2="798.1006" y1="469.1133" y2="469.1133"/><text fill="#000000" font-family="sans-serif" font-size="13" font-weight="bold" lengthAdjust="spacing" textLength="14.46" x="620.4927" y="463.8506">11</text><text fill="#000000" font-family="sans-serif" font-size="13" lengthAdjust="spacing" textLength="34.6899" x="638.9526" y="463.8506">Route</text></g><g class="message" data-participant-1="UC" data-participant-2="Ctrl"><polygon fill="#181818" points="371.2603,496.4043,361.2603,500.4043,371.2603,504.4043,367.2603,500.4043" style="stroke:#181818;stroke-width:1;"/><line style="stroke:#181818;stroke-width:1;stroke-dasharray:2,2;" x1="365.2603" x2="592.4927" y1="500.4043" y2="500.4043"/><text fill="#000000" font-family="sans-serif" font-size="13" font-weight="bold" lengthAdjust="spacing" textLength="14.46" x="377.2603" y="495.1416">12</text><text fill="#000000" font-family="sans-serif" font-size="13" lengthAdjust="spacing" textLength="34.6899" x="395.7202" y="495.1416">Route</text></g><g class="message" data-participant-1="Ctrl" data-participant-2="Actor"><polygon fill="#181818" points="120.7515,527.6953,110.7515,531.6953,120.7515,535.6953,116.7515,531.6953" style="stroke:#181818;stroke-width:1;"/><line style="stroke:#181818;stroke-width:1;stroke-dasharray:2,2;" x1="114.7515" x2="349.2603" y1="531.6953" y2="531.6953"/><text fill="#000000" font-family="sans-serif" font-size="13" font-weight="bold" lengthAdjust="spacing" textLength="14.46" x="126.7515" y="526.4326">13</text><text fill="#000000" font-family="sans-serif" font-size="13" lengthAdjust="spacing" textLength="44.0845" x="145.2114" y="526.4326">200 OK</text></g><line style="stroke:#000000;stroke-width:1;stroke-dasharray:2,2;" x1="10" x2="1099.3857" y1="540.6953" y2="540.6953"/><text fill="#000000" font-family="sans-serif" font-size="11" font-weight="bold" lengthAdjust="spacing" textLength="92.2432" x="15" y="552.5654">[Route not found]</text><g class="message" data-participant-1="UC" data-participant-2="Ctrl"><polygon fill="#181818" points="371.2603,575.6172,361.2603,579.6172,371.2603,583.6172,367.2603,579.6172" style="stroke:#181818;stroke-width:1;"/><line style="stroke:#181818;stroke-width:1;stroke-dasharray:2,2;" x1="365.2603" x2="592.4927" y1="579.6172" y2="579.6172"/><text fill="#000000" font-family="sans-serif" font-size="13" font-weight="bold" lengthAdjust="spacing" textLength="14.46" x="377.2603" y="574.3545">14</text><text fill="#000000" font-family="sans-serif" font-size="13" lengthAdjust="spacing" textLength="190.7725" x="395.7202" y="574.3545">throws RouteNotFoundException</text></g><g class="message" data-participant-1="Ctrl" data-participant-2="Actor"><polygon fill="#181818" points="120.7515,606.9082,110.7515,610.9082,120.7515,614.9082,116.7515,610.9082" style="stroke:#181818;stroke-width:1;"/><line style="stroke:#181818;stroke-width:1;stroke-dasharray:2,2;" x1="114.7515" x2="349.2603" y1="610.9082" y2="610.9082"/><text fill="#000000" font-family="sans-serif" font-size="13" font-weight="bold" lengthAdjust="spacing" textLength="14.46" x="126.7515" y="605.6455">15</text><text fill="#000000" font-family="sans-serif" font-size="13" lengthAdjust="spacing" textLength="86.0044" x="145.2114" y="605.6455">404 Not Found</text></g><!--SRC=[RPBHJkim38RlynJMha0wR1FY2Xr0MrS4ui3GMCLrI3mHKPeeIO49dNV7SJfrHQjKgQc_t_vjHxRHDktx2teXLRGUHhDrKS04vbAzsSt6A8IbGoyfDW8PO9OeuQIFHXadcmYZbMqZ5hQ9tjOrPgo8lXvIbTCo8hDLm486PB0g3YHReRF1KA4jC-aeI2rVI0MZHVV5iSLS2FO49vTS5SxXaNguWObqPk9JkZ3vDle_7BLi8ScFKxVcWqxPgM0bPQWAqkCNAf8T6Vq73ch8j22I-6ID51lJwFdsLfDa3sFVJ12vc1FtLFuhYpLShvRtmDRW-QPSbM0qNC2L8EQaJve1ZyfwtQNPELowQ6mZwxyyhakXSLXKo3e2ns1ZsqOBe2SxPhrqhjxcZOJ1M7gkCn7a1tQ4veIP6PPBVmPzLe-BsRhiEdWgrp0UZuUj9icmtT0gXI7i9TkvvRhy_tUVExlzxdishvGY-NgSm-bq2iixWJLTeZoRniPVy-aJnLTlFqC67soyJbZvfP0dVxZ0sVGC20Lc1TAxlnYwD7kd9Fu1]--></g></svg>