<svg xmlns="http://www.w3.org/2000/svg" xmlns:xlink="http://www.w3.org/1999/xlink" contentStyleType="text/css" data-diagram-type="SEQUENCE" height="437px" preserveAspectRatio="none" style="width:931px;height:437px;background:#FFFFFF;" version="1.1" viewBox="0 0 931 437" width="931px" zoomAndPan="magnify"><defs/><g><g><title>RouteController</title><rect fill="#FFFFFF" height="219.0371" style="stroke:#181818;stroke-width:1;" width="10" x="212.6377" y="116.9121"/></g><g><title>ViewRouteHistoryUseCase</title><rect fill="#FFFFFF" height="187.7461" style="stroke:#181818;stroke-width:1;" width="10" x="370.082" y="148.2031"/></g><g><title>RouteHistoryRepository</title><rect fill="#FFFFFF" height="93.873" style="stroke:#181818;stroke-width:1;" width="10" x="555.5527" y="179.4941"/></g><g><title>Database</title><rect fill="#FFFFFF" height="31.291" style="stroke:#181818;stroke-width:1;" width="10" x="891.6343" y="210.7852"/></g><g><title>ATCC</title><rect fill="#000000" fill-opacity="0.00000" height="270.3281" width="8" x="23.0552" y="83.6211"/><line style="stroke:#181818;stroke-width:0.5;stroke-dasharray:5,5;" x1="27" x2="27" y1="83.6211" y2="353.9492"/></g><g><title>RouteController</title><rect fill="#000000" fill-opacity="0.00000" height="270.3281" width="8" x="213.6377" y="83.6211"/><line style="stroke:#181818;stroke-width:0.5;stroke-dasharray:5,5;" x1="217.6138" x2="217.6138" y1="83.6211" y2="353.9492"/></g><g><title>ViewRouteHistoryUseCase</title><rect fill="#000000" fill-opacity="0.00000" height="270.3281" width="8" x="371.082" y="83.6211"/><line style="stroke:#181818;stroke-width:0.5;stroke-dasharray:5,5;" x1="374.6616" x2="374.6616" y1="83.6211" y2="353.9492"/></g><g><title>RouteHistoryRepository</title><rect fill="#000000" fill-opacity="0.00000" height="270.3281" width="8" x="556.5527" y="83.6211"/><line style="stroke:#181818;stroke-width:0.5;stroke-dasharray:5,5;" x1="559.6357" x2="559.6357" y1="83.6211" y2="353.9492"/></g><g><title>Database</title><rect fill="#000000" fill-opacity="0.00000" height="270.3281" width="8" x="892.6343" y="83.6211"/><line style="stroke:#181818;stroke-width:0.5;stroke-dasharray:5,5;" x1="895.6689" x2="895.6689" y1="83.6211" y2="353.9492"/></g><g class="participant participant-head" data-participant="Actor"><text fill="#000000" font-family="sans-serif" font-size="14" lengthAdjust="spacing" textLength="38.1104" x="5" y="80.1074">ATCC</text><ellipse cx="27.0552" cy="13.5" fill="#E2E2F0" rx="8" ry="8" style="stroke:#181818;stroke-width:0.5;"/><path d="M27.0552,21.5 L27.0552,48.5 M14.0552,29.5 L40.0552,29.5 M27.0552,48.5 L14.0552,63.5 M27.0552,48.5 L40.0552,63.5" fill="none" style="stroke:#181818;stroke-width:0.5;"/></g><g class="participant participant-tail" data-participant="Actor"><text fill="#000000" font-family="sans-serif" font-size="14" lengthAdjust="spacing" textLength="38.1104" x="5" y="368.0566">ATCC</text><ellipse cx="27.0552" cy="380.0703" fill="#E2E2F0" rx="8" ry="8" style="stroke:#181818;stroke-width:0.5;"/><path d="M27.0552,388.0703 L27.0552,415.0703 M14.0552,396.0703 L40.0552,396.0703 M27.0552,415.0703 L14.0552,430.0703 M27.0552,415.0703 L40.0552,430.0703" fill="none" style="stroke:#181818;stroke-width:0.5;"/></g><g class="participant participant-head" data-participant="Ctrl"><rect fill="#E2E2F0" height="32.6211" rx="2.5" ry="2.5" style="stroke:#181818;stroke-width:0.5;" width="112.0479" x="161.6138" y="50"/><text fill="#000000" font-family="sans-serif" font-size="14" lengthAdjust="spacing" textLength="98.0479" x="168.6138" y="72.1074">RouteController</text></g><g class="participant participant-tail" data-participant="Ctrl"><rect fill="#E2E2F0" height="32.6211" rx="2.5" ry="2.5" style="stroke:#181818;stroke-width:0.5;" width="112.0479" x="161.6138" y="352.9492"/><text fill="#000000" font-family="sans-serif" font-size="14" lengthAdjust="spacing" textLength="98.0479" x="168.6138" y="375.0566">RouteController</text></g><g class="participant participant-head" data-participant="UC"><rect fill="#E2E2F0" height="32.6211" rx="2.5" ry="2.5" style="stroke:#181818;stroke-width:0.5;" width="182.8408" x="283.6616" y="50"/><text fill="#000000" font-family="sans-serif" font-size="14" lengthAdjust="spacing" textLength="168.8408" x="290.6616" y="72.1074">ViewRouteHistoryUseCase</text></g><g class="participant participant-tail" data-participant="UC"><rect fill="#E2E2F0" height="32.6211" rx="2.5" ry="2.5" style="stroke:#181818;stroke-width:0.5;" width="182.8408" x="283.6616" y="352.9492"/><text fill="#000000" font-family="sans-serif" font-size="14" lengthAdjust="spacing" textLength="168.8408" x="290.6616" y="375.0566">ViewRouteHistoryUseCase</text></g><g class="participant participant-head" data-participant="Repo"><rect fill="#E2E2F0" height="32.6211" rx="2.5" ry="2.5" style="stroke:#181818;stroke-width:0.5;" width="161.834" x="479.6357" y="50"/><text fill="#000000" font-family="sans-serif" font-size="14" lengthAdjust="spacing" textLength="147.834" x="486.6357" y="72.1074">RouteHistoryRepository</text></g><g class="participant participant-tail" data-participant="Repo"><rect fill="#E2E2F0" height="32.6211" rx="2.5" ry="2.5" style="stroke:#181818;stroke-width:0.5;" width="161.834" x="479.6357" y="352.9492"/><text fill="#000000" font-family="sans-serif" font-size="14" lengthAdjust="spacing" textLength="147.834" x="486.6357" y="375.0566">RouteHistoryRepository</text></g><g class="participant participant-head" data-participant="DB"><text fill="#000000" font-family="sans-serif" font-size="14" lengthAdjust="spacing" textLength="59.9307" x="863.6689" y="80.1074">Database</text><path d="M878.6343,29 C878.6343,19 896.6343,19 896.6343,19 C896.6343,19 914.6343,19 914.6343,29 L914.6343,55 C914.6343,65 896.6343,65 896.6343,65 C896.6343,65 878.6343,65 878.6343,55 L878.6343,29" fill="#E2E2F0" style="stroke:#181818;stroke-width:0.5;"/><path d="M878.6343,29 C878.6343,39 896.6343,39 896.6343,39 C896.6343,39 914.6343,39 914.6343,29" fill="none" style="stroke:#181818;stroke-width:0.5;"/></g><g class="participant participant-tail" data-participant="DB"><text fill="#000000" font-family="sans-serif" font-size="14" lengthAdjust="spacing" textLength="59.9307" x="863.6689" y="368.0566">Database</text><path d="M878.6343,381.5703 C878.6343,371.5703 896.6343,371.5703 896.6343,371.5703 C896.6343,371.5703 914.6343,371.5703 914.6343,381.5703 L914.6343,407.5703 C914.6343,417.5703 896.6343,417.5703 896.6343,417.5703 C896.6343,417.5703 878.6343,417.5703 878.6343,407.5703 L878.6343,381.5703" fill="#E2E2F0" style="stroke:#181818;stroke-width:0.5;"/><path d="M878.6343,381.5703 C878.6343,391.5703 896.6343,391.5703 896.6343,391.5703 C896.6343,391.5703 914.6343,391.5703 914.6343,381.5703" fill="none" style="stroke:#181818;stroke-width:0.5;"/></g><g><title>RouteController</title><rect fill="#FFFFFF" height="219.0371" style="stroke:#181818;stroke-width:1;" width="10" x="212.6377" y="116.9121"/></g><g><title>ViewRouteHistoryUseCase</title><rect fill="#FFFFFF" height="187.7461" style="stroke:#181818;stroke-width:1;" width="10" x="370.082" y="148.2031"/></g><g><title>RouteHistoryRepository</title><rect fill="#FFFFFF" height="93.873" style="stroke:#181818;stroke-width:1;" width="10" x="555.5527" y="179.4941"/></g><g><title>Database</title><rect fill="#FFFFFF" height="31.291" style="stroke:#181818;stroke-width:1;" width="10" x="891.6343" y="210.7852"/></g><g class="message" data-participant-1="Actor" data-participant-2="Ctrl"><polygon fill="#181818" points="200.6377,112.9121,210.6377,116.9121,200.6377,120.9121,204.6377,116.9121" style="stroke:#181818;stroke-width:1;"/><line style="stroke:#181818;stroke-width:1;" x1="27.0552" x2="206.6377" y1="116.9121" y2="116.9121"/><text fill="#000000" font-family="sans-serif" font-size="13" font-weight="bold" lengthAdjust="spacing" textLength="7.23" x="34.0552" y="111.6494">1</text><text fill="#000000" font-family="sans-serif" font-size="13" lengthAdjust="spacing" textLength="155.3525" x="45.2852" y="111.6494">GET /api/routes/{id}/history</text></g><g class="message" data-participant-1="Ctrl" data-participant-2="UC"><polygon fill="#181818" points="358.082,144.2031,368.082,148.2031,358.082,152.2031,362.082,148.2031" style="stroke:#181818;stroke-width:1;"/><line style="stroke:#181818;stroke-width:1;" x1="222.6377" x2="364.082" y1="148.2031" y2="148.2031"/><text fill="#000000" font-family="sans-serif" font-size="13" font-weight="bold" lengthAdjust="spacing" textLength="7.23" x="229.6377" y="142.9404">2</text><text fill="#000000" font-family="sans-serif" font-size="13" lengthAdjust="spacing" textLength="94.6626" x="240.8677" y="142.9404">execute(routeId)</text></g><g class="message" data-participant-1="UC" data-participant-2="Repo"><polygon fill="#181818" points="543.5527,175.4941,553.5527,179.4941,543.5527,183.4941,547.5527,179.4941" style="stroke:#181818;stroke-width:1;"/><line style="stroke:#181818;stroke-width:1;" x1="380.082" x2="549.5527" y1="179.4941" y2="179.4941"/><text fill="#000000" font-family="sans-serif" font-size="13" font-weight="bold" lengthAdjust="spacing" textLength="7.23" x="387.082" y="174.2314">3</text><text fill="#000000" font-family="sans-serif" font-size="13" lengthAdjust="spacing" textLength="145.2407" x="398.312" y="174.2314">findAllByRouteId(routeId)</text></g><g class="message" data-participant-1="Repo" data-participant-2="DB"><polygon fill="#181818" points="879.6343,206.7852,889.6343,210.7852,879.6343,214.7852,883.6343,210.7852" style="stroke:#181818;stroke-width:1;"/><line style="stroke:#181818;stroke-width:1;" x1="565.5527" x2="885.6343" y1="210.7852" y2="210.7852"/><text fill="#000000" font-family="sans-serif" font-size="13" font-weight="bold" lengthAdjust="spacing" textLength="7.23" x="572.5527" y="205.5225">4</text><text fill="#000000" font-family="sans-serif" font-size="13" lengthAdjust="spacing" textLength="295.8516" x="583.7827" y="205.5225">SELECT FROM route_history WHERE route_id = ?</text></g><g class="message" data-participant-1="DB" data-participant-2="Repo"><polygon fill="#181818" points="576.5527,238.0762,566.5527,242.0762,576.5527,246.0762,572.5527,242.0762" style="stroke:#181818;stroke-width:1;"/><line style="stroke:#181818;stroke-width:1;stroke-dasharray:2,2;" x1="570.5527" x2="895.6343" y1="242.0762" y2="242.0762"/><text fill="#000000" font-family="sans-serif" font-size="13" font-weight="bold" lengthAdjust="spacing" textLength="7.23" x="582.5527" y="236.8135">5</text><text fill="#000000" font-family="sans-serif" font-size="13" lengthAdjust="spacing" textLength="85.249" x="593.7827" y="236.8135">history records</text></g><g class="message" data-participant-1="Repo" data-participant-2="UC"><polygon fill="#181818" points="391.082,269.3672,381.082,273.3672,391.082,277.3672,387.082,273.3672" style="stroke:#181818;stroke-width:1;"/><line style="stroke:#181818;stroke-width:1;stroke-dasharray:2,2;" x1="385.082" x2="559.5527" y1="273.3672" y2="273.3672"/><text fill="#000000" font-family="sans-serif" font-size="13" font-weight="bold" lengthAdjust="spacing" textLength="7.23" x="397.082" y="268.1045">6</text><text fill="#000000" font-family="sans-serif" font-size="13" lengthAdjust="spacing" textLength="110.5508" x="408.312" y="268.1045">List&lt;RouteHistory&gt;</text></g><g class="message" data-participant-1="UC" data-participant-2="Ctrl"><polygon fill="#181818" points="233.6377,300.6582,223.6377,304.6582,233.6377,308.6582,229.6377,304.6582" style="stroke:#181818;stroke-width:1;"/><line style="stroke:#181818;stroke-width:1;stroke-dasharray:2,2;" x1="227.6377" x2="369.082" y1="304.6582" y2="304.6582"/><text fill="#000000" font-family="sans-serif" font-size="13" font-weight="bold" lengthAdjust="spacing" textLength="7.23" x="239.6377" y="299.3955">7</text><text fill="#000000" font-family="sans-serif" font-size="13" lengthAdjust="spacing" textLength="95.3672" x="250.8677" y="299.3955">RouteHistoryList</text></g><g class="message" data-participant-1="Ctrl" data-participant-2="Actor"><polygon fill="#181818" points="38.0552,331.9492,28.0552,335.9492,38.0552,339.9492,34.0552,335.9492" style="stroke:#181818;stroke-width:1;"/><line style="stroke:#181818;stroke-width:1;stroke-dasharray:2,2;" x1="32.0552" x2="216.6377" y1="335.9492" y2="335.9492"/><text fill="#000000" font-family="sans-serif" font-size="13" font-weight="bold" lengthAdjust="spacing" textLength="7.23" x="44.0552" y="330.6865">8</text><text fill="#000000" font-family="sans-serif" font-size="13" lengthAdjust="spacing" textLength="91.0254" x="55.2852" y="330.6865">200 OK (JSON)</text></g><!--SRC=[RP3HJi8m58Rl-nGdku8BCk8bKGmhKrIKP0ozD6MjiSbSbxQenFZkdfwDh2RSjTlt_VtF4GTlciF7NbacAcyi98kIymI4WqMuirPOholTYiP3KfY3LzmqtfgwLfOmxctzdthMwel8bNOOSTmvnOLJHE_ucSIUArHhd0udGiELIU757cL8bls9_YqpngWVJERK06PmcvUGYbQdDcIwz4VBt_IzYmx3wK_XLLUNaOBgZgEelbM5neYyEpaUO6pB444mb47qJJToKTVPiUZOCmxL9XorPORIDb_dl8IROlC8nB_shU1bbHTv_qrBk8Bh8GT7H7iol7sIhAgCbOv95RFTYwUHriXUnhkTnpXLfC66xSLmiFiL8T3jUGONqobi7c1qlzqyZLcSXskARa7y0m00]--></g></svg>