<svg xmlns="http://www.w3.org/2000/svg" xmlns:xlink="http://www.w3.org/1999/xlink" contentStyleType="text/css" data-diagram-type="SEQUENCE" height="799px" preserveAspectRatio="none" style="width:1194px;height:799px;background:#FFFFFF;" version="1.1" viewBox="0 0 1194 799" width="1194px" zoomAndPan="magnify"><defs/><g><g><title>RouteController</title><rect fill="#FFFFFF" height="589.8691" style="stroke:#181818;stroke-width:1;" width="10" x="346.123" y="116.9121"/></g><g><title>CreateRouteUseCase</title><rect fill="#FFFFFF" height="558.5781" style="stroke:#181818;stroke-width:1;" width="10" x="592.9546" y="148.2031"/></g><g><title>AirportRepository</title><rect fill="#FFFFFF" height="93.873" style="stroke:#181818;stroke-width:1;" width="10" x="805.8853" y="179.4941"/></g><g><title>AirportRepository</title><rect fill="#FFFFFF" height="93.873" style="stroke:#181818;stroke-width:1;" width="10" x="805.8853" y="304.6582"/></g><g><title>RouteRepository</title><rect fill="#FFFFFF" height="93.873" style="stroke:#181818;stroke-width:1;" width="10" x="936.0986" y="456.1133"/></g><rect fill="none" height="286.25" style="stroke:#000000;stroke-width:1.5;" width="1177.7358" x="10" y="413.5313"/><g><title>ATCC</title><rect fill="#000000" fill-opacity="0.00000" height="633.1602" width="8" x="38.0552" y="83.6211"/><line style="stroke:#181818;stroke-width:0.5;stroke-dasharray:5,5;" x1="42" x2="42" y1="83.6211" y2="716.7813"/></g><g><title>RouteController</title><rect fill="#000000" fill-opacity="0.00000" height="633.1602" width="8" x="347.123" y="83.6211"/><line style="stroke:#181818;stroke-width:0.5;stroke-dasharray:5,5;" x1="351.0991" x2="351.0991" y1="83.6211" y2="716.7813"/></g><g><title>CreateRouteUseCase</title><rect fill="#000000" fill-opacity="0.00000" height="633.1602" width="8" x="593.9546" y="83.6211"/><line style="stroke:#181818;stroke-width:0.5;stroke-dasharray:5,5;" x1="597.4756" x2="597.4756" y1="83.6211" y2="716.7813"/></g><g><title>AirportRepository</title><rect fill="#000000" fill-opacity="0.00000" height="633.1602" width="8" x="806.8853" y="83.6211"/><line style="stroke:#181818;stroke-width:0.5;stroke-dasharray:5,5;" x1="810.8096" x2="810.8096" y1="83.6211" y2="716.7813"/></g><g><title>RouteRepository</title><rect fill="#000000" fill-opacity="0.00000" height="633.1602" width="8" x="937.0986" y="83.6211"/><line style="stroke:#181818;stroke-width:0.5;stroke-dasharray:5,5;" x1="940.9609" x2="940.9609" y1="83.6211" y2="716.7813"/></g><g><title>Database</title><rect fill="#000000" fill-opacity="0.00000" height="633.1602" width="8" x="1140.7705" y="83.6211"/><line style="stroke:#181818;stroke-width:0.5;stroke-dasharray:5,5;" x1="1143.8052" x2="1143.8052" y1="83.6211" y2="716.7813"/></g><g class="participant participant-head" data-participant="Actor"><text fill="#000000" font-family="sans-serif" font-size="14" lengthAdjust="spacing" textLength="38.1104" x="20" y="80.1074">ATCC</text><ellipse cx="42.0552" cy="13.5" fill="#E2E2F0" rx="8" ry="8" style="stroke:#181818;stroke-width:0.5;"/><path d="M42.0552,21.5 L42.0552,48.5 M29.0552,29.5 L55.0552,29.5 M42.0552,48.5 L29.0552,63.5 M42.0552,48.5 L55.0552,63.5" fill="none" style="stroke:#181818;stroke-width:0.5;"/></g><g class="participant participant-tail" data-participant="Actor"><text fill="#000000" font-family="sans-serif" font-size="14" lengthAdjust="spacing" textLength="38.1104" x="20" y="730.8887">ATCC</text><ellipse cx="42.0552" cy="742.9023" fill="#E2E2F0" rx="8" ry="8" style="stroke:#181818;stroke-width:0.5;"/><path d="M42.0552,750.9023 L42.0552,777.9023 M29.0552,758.9023 L55.0552,758.9023 M42.0552,777.9023 L29.0552,792.9023 M42.0552,777.9023 L55.0552,792.9023" fill="none" style="stroke:#181818;stroke-width:0.5;"/></g><g class="participant participant-head" data-participant="Ctrl"><rect fill="#E2E2F0" height="32.6211" rx="2.5" ry="2.5" style="stroke:#181818;stroke-width:0.5;" width="112.0479" x="295.0991" y="50"/><text fill="#000000" font-family="sans-serif" font-size="14" lengthAdjust="spacing" textLength="98.0479" x="302.0991" y="72.1074">RouteController</text></g><g class="participant participant-tail" data-participant="Ctrl"><rect fill="#E2E2F0" height="32.6211" rx="2.5" ry="2.5" style="stroke:#181818;stroke-width:0.5;" width="112.0479" x="295.0991" y="715.7813"/><text fill="#000000" font-family="sans-serif" font-size="14" lengthAdjust="spacing" textLength="98.0479" x="302.0991" y="737.8887">RouteController</text></g><g class="participant participant-head" data-participant="UC"><rect fill="#E2E2F0" height="32.6211" rx="2.5" ry="2.5" style="stroke:#181818;stroke-width:0.5;" width="150.958" x="522.4756" y="50"/><text fill="#000000" font-family="sans-serif" font-size="14" lengthAdjust="spacing" textLength="136.958" x="529.4756" y="72.1074">CreateRouteUseCase</text></g><g class="participant participant-tail" data-participant="UC"><rect fill="#E2E2F0" height="32.6211" rx="2.5" ry="2.5" style="stroke:#181818;stroke-width:0.5;" width="150.958" x="522.4756" y="715.7813"/><text fill="#000000" font-family="sans-serif" font-size="14" lengthAdjust="spacing" textLength="136.958" x="529.4756" y="737.8887">CreateRouteUseCase</text></g><g class="participant participant-head" data-participant="AirRepo"><rect fill="#E2E2F0" height="32.6211" rx="2.5" ry="2.5" style="stroke:#181818;stroke-width:0.5;" width="122.1514" x="749.8096" y="50"/><text fill="#000000" font-family="sans-serif" font-size="14" lengthAdjust="spacing" textLength="108.1514" x="756.8096" y="72.1074">AirportRepository</text></g><g class="participant participant-tail" data-participant="AirRepo"><rect fill="#E2E2F0" height="32.6211" rx="2.5" ry="2.5" style="stroke:#181818;stroke-width:0.5;" width="122.1514" x="749.8096" y="715.7813"/><text fill="#000000" font-family="sans-serif" font-size="14" lengthAdjust="spacing" textLength="108.1514" x="756.8096" y="737.8887">AirportRepository</text></g><g class="participant participant-head" data-participant="RouteRepo"><rect fill="#E2E2F0" height="32.6211" rx="2.5" ry="2.5" style="stroke:#181818;stroke-width:0.5;" width="118.2754" x="881.9609" y="50"/><text fill="#000000" font-family="sans-serif" font-size="14" lengthAdjust="spacing" textLength="104.2754" x="888.9609" y="72.1074">RouteRepository</text></g><g class="participant participant-tail" data-participant="RouteRepo"><rect fill="#E2E2F0" height="32.6211" rx="2.5" ry="2.5" style="stroke:#181818;stroke-width:0.5;" width="118.2754" x="881.9609" y="715.7813"/><text fill="#000000" font-family="sans-serif" font-size="14" lengthAdjust="spacing" textLength="104.2754" x="888.9609" y="737.8887">RouteRepository</text></g><g class="participant participant-head" data-participant="DB"><text fill="#000000" font-family="sans-serif" font-size="14" lengthAdjust="spacing" textLength="59.9307" x="1111.8052" y="80.1074">Database</text><path d="M1126.7705,29 C1126.7705,19 1144.7705,19 1144.7705,19 C1144.7705,19 1162.7705,19 1162.7705,29 L1162.7705,55 C1162.7705,65 1144.7705,65 1144.7705,65 C1144.7705,65 1126.7705,65 1126.7705,55 L1126.7705,29" fill="#E2E2F0" style="stroke:#181818;stroke-width:0.5;"/><path d="M1126.7705,29 C1126.7705,39 1144.7705,39 1144.7705,39 C1144.7705,39 1162.7705,39 1162.7705,29" fill="none" style="stroke:#181818;stroke-width:0.5;"/></g><g class="participant participant-tail" data-participant="DB"><text fill="#000000" font-family="sans-serif" font-size="14" lengthAdjust="spacing" textLength="59.9307" x="1111.8052" y="730.8887">Database</text><path d="M1126.7705,744.4023 C1126.7705,734.4023 1144.7705,734.4023 1144.7705,734.4023 C1144.7705,734.4023 1162.7705,734.4023 1162.7705,744.4023 L1162.7705,770.4023 C1162.7705,780.4023 1144.7705,780.4023 1144.7705,780.4023 C1144.7705,780.4023 1126.7705,780.4023 1126.7705,770.4023 L1126.7705,744.4023" fill="#E2E2F0" style="stroke:#181818;stroke-width:0.5;"/><path d="M1126.7705,744.4023 C1126.7705,754.4023 1144.7705,754.4023 1144.7705,754.4023 C1144.7705,754.4023 1162.7705,754.4023 1162.7705,744.4023" fill="none" style="stroke:#181818;stroke-width:0.5;"/></g><g><title>RouteController</title><rect fill="#FFFFFF" height="589.8691" style="stroke:#181818;stroke-width:1;" width="10" x="346.123" y="116.9121"/></g><g><title>CreateRouteUseCase</title><rect fill="#FFFFFF" height="558.5781" style="stroke:#181818;stroke-width:1;" width="10" x="592.9546" y="148.2031"/></g><g><title>AirportRepository</title><rect fill="#FFFFFF" height="93.873" style="stroke:#181818;stroke-width:1;" width="10" x="805.8853" y="179.4941"/></g><g><title>AirportRepository</title><rect fill="#FFFFFF" height="93.873" style="stroke:#181818;stroke-width:1;" width="10" x="805.8853" y="304.6582"/></g><g><title>RouteRepository</title><rect fill="#FFFFFF" height="93.873" style="stroke:#181818;stroke-width:1;" width="10" x="936.0986" y="456.1133"/></g><g class="message" data-participant-1="Actor" data-participant-2="Ctrl"><polygon fill="#181818" points="334.123,112.9121,344.123,116.9121,334.123,120.9121,338.123,116.9121" style="stroke:#181818;stroke-width:1;"/><line style="stroke:#181818;stroke-width:1;" x1="42.0552" x2="340.123" y1="116.9121" y2="116.9121"/><text fill="#000000" font-family="sans-serif" font-size="13" font-weight="bold" lengthAdjust="spacing" textLength="7.23" x="49.0552" y="111.6494">1</text><text fill="#000000" font-family="sans-serif" font-size="13" lengthAdjust="spacing" textLength="273.8379" x="60.2852" y="111.6494">POST /api/routes (origin, destination, time, etc.)</text></g><g class="message" data-participant-1="Ctrl" data-participant-2="UC"><polygon fill="#181818" points="580.9546,144.2031,590.9546,148.2031,580.9546,152.2031,584.9546,148.2031" style="stroke:#181818;stroke-width:1;"/><line style="stroke:#181818;stroke-width:1;" x1="356.123" x2="586.9546" y1="148.2031" y2="148.2031"/><text fill="#000000" font-family="sans-serif" font-size="13" font-weight="bold" lengthAdjust="spacing" textLength="7.23" x="363.123" y="142.9404">2</text><text fill="#000000" font-family="sans-serif" font-size="13" lengthAdjust="spacing" textLength="111.2808" x="374.353" y="142.9404">execute(routeData)</text></g><g class="message" data-participant-1="UC" data-participant-2="AirRepo"><polygon fill="#181818" points="793.8853,175.4941,803.8853,179.4941,793.8853,183.4941,797.8853,179.4941" style="stroke:#181818;stroke-width:1;"/><line style="stroke:#181818;stroke-width:1;" x1="602.9546" x2="799.8853" y1="179.4941" y2="179.4941"/><text fill="#000000" font-family="sans-serif" font-size="13" font-weight="bold" lengthAdjust="spacing" textLength="7.23" x="609.9546" y="174.2314">3</text><text fill="#000000" font-family="sans-serif" font-size="13" lengthAdjust="spacing" textLength="141.6162" x="621.1846" y="174.2314">existsByIataCode(origin)</text></g><g class="message" data-participant-1="AirRepo" data-participant-2="DB"><polygon fill="#181818" points="1132.7705,206.7852,1142.7705,210.7852,1132.7705,214.7852,1136.7705,210.7852" style="stroke:#181818;stroke-width:1;"/><line style="stroke:#181818;stroke-width:1;" x1="815.8853" x2="1138.7705" y1="210.7852" y2="210.7852"/><text fill="#000000" font-family="sans-serif" font-size="13" font-weight="bold" lengthAdjust="spacing" textLength="7.23" x="822.8853" y="205.5225">4</text><text fill="#000000" font-family="sans-serif" font-size="13" lengthAdjust="spacing" textLength="293.6553" x="834.1152" y="205.5225">SELECT EXISTS(FROM airport WHERE code = ?)</text></g><g class="message" data-participant-1="DB" data-participant-2="AirRepo"><polygon fill="#181818" points="826.8853,238.0762,816.8853,242.0762,826.8853,246.0762,822.8853,242.0762" style="stroke:#181818;stroke-width:1;"/><line style="stroke:#181818;stroke-width:1;stroke-dasharray:2,2;" x1="820.8853" x2="1143.7705" y1="242.0762" y2="242.0762"/><text fill="#000000" font-family="sans-serif" font-size="13" font-weight="bold" lengthAdjust="spacing" textLength="7.23" x="832.8853" y="236.8135">5</text><text fill="#000000" font-family="sans-serif" font-size="13" lengthAdjust="spacing" textLength="53.4727" x="844.1152" y="236.8135">true/false</text></g><g class="message" data-participant-1="AirRepo" data-participant-2="UC"><polygon fill="#181818" points="613.9546,269.3672,603.9546,273.3672,613.9546,277.3672,609.9546,273.3672" style="stroke:#181818;stroke-width:1;"/><line style="stroke:#181818;stroke-width:1;stroke-dasharray:2,2;" x1="607.9546" x2="809.8853" y1="273.3672" y2="273.3672"/><text fill="#000000" font-family="sans-serif" font-size="13" font-weight="bold" lengthAdjust="spacing" textLength="7.23" x="619.9546" y="268.1045">6</text><text fill="#000000" font-family="sans-serif" font-size="13" lengthAdjust="spacing" textLength="46.2681" x="631.1846" y="268.1045">boolean</text></g><g class="message" data-participant-1="UC" data-participant-2="AirRepo"><polygon fill="#181818" points="793.8853,300.6582,803.8853,304.6582,793.8853,308.6582,797.8853,304.6582" style="stroke:#181818;stroke-width:1;"/><line style="stroke:#181818;stroke-width:1;" x1="602.9546" x2="799.8853" y1="304.6582" y2="304.6582"/><text fill="#000000" font-family="sans-serif" font-size="13" font-weight="bold" lengthAdjust="spacing" textLength="7.23" x="609.9546" y="299.3955">7</text><text fill="#000000" font-family="sans-serif" font-size="13" lengthAdjust="spacing" textLength="172.7007" x="621.1846" y="299.3955">existsByIataCode(destination)</text></g><g class="message" data-participant-1="AirRepo" data-participant-2="DB"><polygon fill="#181818" points="1132.7705,331.9492,1142.7705,335.9492,1132.7705,339.9492,1136.7705,335.9492" style="stroke:#181818;stroke-width:1;"/><line style="stroke:#181818;stroke-width:1;" x1="815.8853" x2="1138.7705" y1="335.9492" y2="335.9492"/><text fill="#000000" font-family="sans-serif" font-size="13" font-weight="bold" lengthAdjust="spacing" textLength="7.23" x="822.8853" y="330.6865">8</text><text fill="#000000" font-family="sans-serif" font-size="13" lengthAdjust="spacing" textLength="293.6553" x="834.1152" y="330.6865">SELECT EXISTS(FROM airport WHERE code = ?)</text></g><g class="message" data-participant-1="DB" data-participant-2="AirRepo"><polygon fill="#181818" points="826.8853,363.2402,816.8853,367.2402,826.8853,371.2402,822.8853,367.2402" style="stroke:#181818;stroke-width:1;"/><line style="stroke:#181818;stroke-width:1;stroke-dasharray:2,2;" x1="820.8853" x2="1143.7705" y1="367.2402" y2="367.2402"/><text fill="#000000" font-family="sans-serif" font-size="13" font-weight="bold" lengthAdjust="spacing" textLength="7.23" x="832.8853" y="361.9775">9</text><text fill="#000000" font-family="sans-serif" font-size="13" lengthAdjust="spacing" textLength="53.4727" x="844.1152" y="361.9775">true/false</text></g><g class="message" data-participant-1="AirRepo" data-participant-2="UC"><polygon fill="#181818" points="613.9546,394.5313,603.9546,398.5313,613.9546,402.5313,609.9546,398.5313" style="stroke:#181818;stroke-width:1;"/><line style="stroke:#181818;stroke-width:1;stroke-dasharray:2,2;" x1="607.9546" x2="809.8853" y1="398.5313" y2="398.5313"/><text fill="#000000" font-family="sans-serif" font-size="13" font-weight="bold" lengthAdjust="spacing" textLength="14.46" x="619.9546" y="393.2686">10</text><text fill="#000000" font-family="sans-serif" font-size="13" lengthAdjust="spacing" textLength="46.2681" x="638.4146" y="393.2686">boolean</text></g><path d="M10,413.5313 L70.1709,413.5313 L70.1709,422.8223 L60.1709,432.8223 L10,432.8223 L10,413.5313" fill="#EEEEEE" style="stroke:#000000;stroke-width:1.5;"/><rect fill="none" height="286.25" style="stroke:#000000;stroke-width:1.5;" width="1177.7358" x="10" y="413.5313"/><text fill="#000000" font-family="sans-serif" font-size="13" font-weight="bold" lengthAdjust="spacing" textLength="15.1709" x="25" y="428.5596">alt</text><text fill="#000000" font-family="sans-serif" font-size="11" font-weight="bold" lengthAdjust="spacing" textLength="107.5562" x="85.1709" y="427.4014">[Both Airports Exist]</text><g class="message" data-participant-1="UC" data-participant-2="RouteRepo"><polygon fill="#181818" points="924.0986,452.1133,934.0986,456.1133,924.0986,460.1133,928.0986,456.1133" style="stroke:#181818;stroke-width:1;"/><line style="stroke:#181818;stroke-width:1;" x1="602.9546" x2="930.0986" y1="456.1133" y2="456.1133"/><text fill="#000000" font-family="sans-serif" font-size="13" font-weight="bold" lengthAdjust="spacing" textLength="14.46" x="609.9546" y="450.8506">11</text><text fill="#000000" font-family="sans-serif" font-size="13" lengthAdjust="spacing" textLength="94.6563" x="628.4146" y="450.8506">save(newRoute)</text></g><g class="message" data-participant-1="RouteRepo" data-participant-2="DB"><polygon fill="#181818" points="1132.7705,483.4043,1142.7705,487.4043,1132.7705,491.4043,1136.7705,487.4043" style="stroke:#181818;stroke-width:1;"/><line style="stroke:#181818;stroke-width:1;" x1="946.0986" x2="1138.7705" y1="487.4043" y2="487.4043"/><text fill="#000000" font-family="sans-serif" font-size="13" font-weight="bold" lengthAdjust="spacing" textLength="14.46" x="953.0986" y="482.1416">12</text><text fill="#000000" font-family="sans-serif" font-size="13" lengthAdjust="spacing" textLength="138.6836" x="971.5586" y="482.1416">INSERT INTO route (...)</text></g><g class="message" data-participant-1="DB" data-participant-2="RouteRepo"><polygon fill="#181818" points="957.0986,514.6953,947.0986,518.6953,957.0986,522.6953,953.0986,518.6953" style="stroke:#181818;stroke-width:1;"/><line style="stroke:#181818;stroke-width:1;stroke-dasharray:2,2;" x1="951.0986" x2="1143.7705" y1="518.6953" y2="518.6953"/><text fill="#000000" font-family="sans-serif" font-size="13" font-weight="bold" lengthAdjust="spacing" textLength="14.46" x="963.0986" y="513.4326">13</text><text fill="#000000" font-family="sans-serif" font-size="13" lengthAdjust="spacing" textLength="46.96" x="981.5586" y="513.4326">success</text></g><g class="message" data-participant-1="RouteRepo" data-participant-2="UC"><polygon fill="#181818" points="613.9546,545.9863,603.9546,549.9863,613.9546,553.9863,609.9546,549.9863" style="stroke:#181818;stroke-width:1;"/><line style="stroke:#181818;stroke-width:1;stroke-dasharray:2,2;" x1="607.9546" x2="940.0986" y1="549.9863" y2="549.9863"/><text fill="#000000" font-family="sans-serif" font-size="13" font-weight="bold" lengthAdjust="spacing" textLength="14.46" x="619.9546" y="544.7236">14</text><text fill="#000000" font-family="sans-serif" font-size="13" lengthAdjust="spacing" textLength="34.6899" x="638.4146" y="544.7236">Route</text></g><g class="message" data-participant-1="UC" data-participant-2="Ctrl"><polygon fill="#181818" points="367.123,577.2773,357.123,581.2773,367.123,585.2773,363.123,581.2773" style="stroke:#181818;stroke-width:1;"/><line style="stroke:#181818;stroke-width:1;stroke-dasharray:2,2;" x1="361.123" x2="591.9546" y1="581.2773" y2="581.2773"/><text fill="#000000" font-family="sans-serif" font-size="13" font-weight="bold" lengthAdjust="spacing" textLength="14.46" x="373.123" y="576.0146">15</text><text fill="#000000" font-family="sans-serif" font-size="13" lengthAdjust="spacing" textLength="34.6899" x="391.583" y="576.0146">Route</text></g><g class="message" data-participant-1="Ctrl" data-participant-2="Actor"><polygon fill="#181818" points="53.0552,608.5684,43.0552,612.5684,53.0552,616.5684,49.0552,612.5684" style="stroke:#181818;stroke-width:1;"/><line style="stroke:#181818;stroke-width:1;stroke-dasharray:2,2;" x1="47.0552" x2="345.123" y1="612.5684" y2="612.5684"/><text fill="#000000" font-family="sans-serif" font-size="13" font-weight="bold" lengthAdjust="spacing" textLength="14.46" x="59.0552" y="607.3057">16</text><text fill="#000000" font-family="sans-serif" font-size="13" lengthAdjust="spacing" textLength="71.5508" x="77.5151" y="607.3057">201 Created</text></g><line style="stroke:#000000;stroke-width:1;stroke-dasharray:2,2;" x1="10" x2="1187.7358" y1="621.5684" y2="621.5684"/><text fill="#000000" font-family="sans-serif" font-size="11" font-weight="bold" lengthAdjust="spacing" textLength="102.0239" x="15" y="633.4385">[Airport Not Found]</text><g class="message" data-participant-1="UC" data-participant-2="Ctrl"><polygon fill="#181818" points="367.123,656.4902,357.123,660.4902,367.123,664.4902,363.123,660.4902" style="stroke:#181818;stroke-width:1;"/><line style="stroke:#181818;stroke-width:1;stroke-dasharray:2,2;" x1="361.123" x2="591.9546" y1="660.4902" y2="660.4902"/><text fill="#000000" font-family="sans-serif" font-size="13" font-weight="bold" lengthAdjust="spacing" textLength="14.46" x="373.123" y="655.2275">17</text><text fill="#000000" font-family="sans-serif" font-size="13" lengthAdjust="spacing" textLength="194.3716" x="391.583" y="655.2275">throws AirportNotFoundException</text></g><g class="message" data-participant-1="Ctrl" data-participant-2="Actor"><polygon fill="#181818" points="53.0552,687.7813,43.0552,691.7813,53.0552,695.7813,49.0552,691.7813" style="stroke:#181818;stroke-width:1;"/><line style="stroke:#181818;stroke-width:1;stroke-dasharray:2,2;" x1="47.0552" x2="345.123" y1="691.7813" y2="691.7813"/><text fill="#000000" font-family="sans-serif" font-size="13" font-weight="bold" lengthAdjust="spacing" textLength="14.46" x="59.0552" y="686.5186">18</text><text fill="#000000" font-family="sans-serif" font-size="13" lengthAdjust="spacing" textLength="86.0044" x="77.5151" y="686.5186">404 Not Found</text></g><!--SRC=[pLDBRvj04BxlhnZvXAN4JggS8ZMLlIQAfJQk02kvhc7Qh4HOj3layUyxku21n5AliOJC3jzZlc5G3PcgUJwW5IedOs6sogISWNAmycTHAqiwrxMg26Q9QGYbgSYQiaGRO99iEKL9YuemOFSEfN8OW7ivXQsqhOsb16lZD5kzjwxQ-ie9tm_0OqqKYjI1NM2swUu2OBCM8cI0yvlG9Lp3xrsQmLBLUcaztK5ahFwhgpCeq96k56d31zBFU0P8-MBknw9VE4yRL0GX5jnBbiCtp5ac2cBUV0Jdk8913EqY1RnsvDRlMuPAKs3dFcBryNiEqpThPgRnprXc43zkqooDRfFTBr3j_E3XBavYo5aEliEFkM3y-SILR8FBFwfqECZs2Gx6bAWgKU2d5lxV_MXcNpI2AWdMXfwWMpO7iGyXW7zjlECQiP9JBnXL-1fgym0wIWxhvii3gq-tlK_Z9EE_R0TX7I1QB1QjI1TdOjNaEJhtKQpF54hXuIZLj0NV_h3O0w5TK3-ziFlNyEtY4jfFiX384-nd0VU6uDOqLN52ZvwiUNKzb9416B_bMFlNVThfwk9g98fyZLyAVn2ZaoV_0m00]--></g></svg>