<?plantuml 1.2026.1?><svg xmlns="http://www.w3.org/2000/svg" xmlns:xlink="http://www.w3.org/1999/xlink" contentStyleType="text/css" data-diagram-type="DESCRIPTION" height="543px" preserveAspectRatio="none" style="width:709px;height:543px;background:#FFFFFF;" version="1.1" viewBox="0 0 709 543" width="709px" zoomAndPan="magnify"><defs/><g><!--cluster Enhanced Airport Features (WP #2B)--><g class="cluster" data-qualified-name="Enhanced Airport Features .WP .2B." data-source-line="7" id="ent0004"><rect fill="none" height="530" rx="2.5" ry="2.5" style="stroke:#181818;stroke-width:1;" width="389.41" x="314.15" y="7"/><text fill="#000000" font-family="sans-serif" font-size="14" font-weight="bold" lengthAdjust="spacing" textLength="292.5371" x="362.5864" y="21.9951">Enhanced Airport Features (WP #2B)</text></g><!--entity UC207--><g class="entity" data-qualified-name="Enhanced Airport Features .WP .2B..UC207" data-source-line="8" id="ent0005"><ellipse cx="508.8544" cy="188.0009" fill="#F1F1F1" rx="178.7044" ry="38.1409" style="stroke:#181818;stroke-width:0.5;"/><text fill="#000000" font-family="sans-serif" font-size="14" lengthAdjust="spacing" textLength="341.8311" x="337.9389" y="192.6493">US207 - Register airport with facilities and photo</text></g><!--entity UC208--><g class="entity" data-qualified-name="Enhanced Airport Features .WP .2B..UC208" data-source-line="9" id="ent0006"><ellipse cx="508.8506" cy="77.9981" fill="#F1F1F1" rx="170.4406" ry="36.4881" style="stroke:#181818;stroke-width:0.5;"/><text fill="#000000" font-family="sans-serif" font-size="14" lengthAdjust="spacing" textLength="324.8164" x="346.4424" y="82.6466">US208 - Update airport details (hours/contact)</text></g><!--entity UC209--><g class="entity" data-qualified-name="Enhanced Airport Features .WP .2B..UC209" data-source-line="10" id="ent0007"><ellipse cx="508.855" cy="486.003" fill="#F1F1F1" rx="161.915" ry="34.783" style="stroke:#181818;stroke-width:0.5;"/><text fill="#000000" font-family="sans-serif" font-size="14" lengthAdjust="spacing" textLength="307.207" x="355.2514" y="490.6514">US209 - View routes to/from specific airport</text></g><!--entity UC210--><g class="entity" data-qualified-name="Enhanced Airport Features .WP .2B..UC210" data-source-line="11" id="ent0008"><ellipse cx="508.8536" cy="289.0047" fill="#F1F1F1" rx="125.4236" ry="27.4847" style="stroke:#181818;stroke-width:0.5;"/><text fill="#000000" font-family="sans-serif" font-size="14" lengthAdjust="spacing" textLength="230.8906" x="393.4083" y="293.6532">US210 - Stats on busiest airports</text></g><!--entity UC211--><g class="entity" data-qualified-name="Enhanced Airport Features .WP .2B..UC211" data-source-line="12" id="ent0009"><ellipse cx="508.8479" cy="383.9976" fill="#F1F1F1" rx="151.4879" ry="32.6976" style="stroke:#181818;stroke-width:0.5;"/><text fill="#000000" font-family="sans-serif" font-size="14" lengthAdjust="spacing" textLength="285.5781" x="366.0588" y="388.646">US211 - View airports grouped by region</text></g><!--entity BO--><g class="entity" data-qualified-name="BO" data-source-line="4" id="ent0002"><ellipse cx="138.0733" cy="158.35" fill="#F1F1F1" rx="8" ry="8" style="stroke:#181818;stroke-width:0.5;"/><path d="M138.0733,166.35 L138.0733,193.35 M125.0733,174.35 L151.0733,174.35 M138.0733,193.35 L125.0733,208.35 M138.0733,193.35 L151.0733,208.35" fill="none" style="stroke:#181818;stroke-width:0.5;"/><text fill="#000000" font-family="sans-serif" font-size="14" lengthAdjust="spacing" textLength="139.7266" x="68.21" y="222.8451">Backoffice Operator</text></g><!--entity ATCC--><g class="entity" data-qualified-name="ATCC" data-source-line="5" id="ent0003"><ellipse cx="138.0737" cy="397.2" fill="#F1F1F1" rx="8" ry="8" style="stroke:#181818;stroke-width:0.5;"/><path d="M138.0737,405.2 L138.0737,432.2 M125.0737,413.2 L151.0737,413.2 M138.0737,432.2 L125.0737,447.2 M138.0737,432.2 L151.0737,447.2" fill="none" style="stroke:#181818;stroke-width:0.5;"/><text fill="#000000" font-family="sans-serif" font-size="14" lengthAdjust="spacing" textLength="37.6797" x="6" y="461.6951">ATCC</text><text fill="#000000" font-family="sans-serif" font-size="14" lengthAdjust="spacing" textLength="264.1475" x="6" y="477.992">(Air Transport Company Collaborator)</text></g><!--link BO to UC207--><g class="link" data-entity-1="ent0002" data-entity-2="ent0005" data-link-type="dependency" data-source-line="15" id="lnk10"><path d="M208.01,188 C242.72,188 280.56,188 323.93,188" fill="none" id="BO-to-UC207" style="stroke:#181818;stroke-width:1;"/><polygon fill="#181818" points="329.93,188,320.93,184,324.93,188,320.93,192,329.93,188" style="stroke:#181818;stroke-width:1;"/></g><!--link BO to UC208--><g class="link" data-entity-1="ent0002" data-entity-2="ent0006" data-link-type="dependency" data-source-line="16" id="lnk11"><path d="M208.27,163.74 C238.23,153.51 273.78,141.75 306.15,132 C335.83,123.06 362.384,115.6212 392.314,107.6112" fill="none" id="BO-to-UC208" style="stroke:#181818;stroke-width:1;"/><polygon fill="#181818" points="398.11,106.06,388.3819,104.5227,393.28,107.3526,390.4501,112.2508,398.11,106.06" style="stroke:#181818;stroke-width:1;"/></g><!--link BO to UC210--><g class="link" data-entity-1="ent0002" data-entity-2="ent0008" data-link-type="dependency" data-source-line="17" id="lnk12"><path d="M208.08,212.92 C238,223.26 273.58,234.94 306.15,244 C341.4,253.81 374.7257,261.6809 409.1057,269.1209" fill="none" id="BO-to-UC210" style="stroke:#181818;stroke-width:1;"/><polygon fill="#181818" points="414.97,270.39,407.0197,264.5769,410.0831,269.3325,405.3276,272.3959,414.97,270.39" style="stroke:#181818;stroke-width:1;"/></g><!--link ATCC to UC209--><g class="link" data-entity-1="ent0003" data-entity-2="ent0007" data-link-type="dependency" data-source-line="19" id="lnk13"><path d="M270.39,453.16 C303.29,457.71 332.7165,461.7784 365.8465,466.3584" fill="none" id="ATCC-to-UC209" style="stroke:#181818;stroke-width:1;"/><polygon fill="#181818" points="371.79,467.18,363.4226,461.9852,366.8371,466.4953,362.327,469.9098,371.79,467.18" style="stroke:#181818;stroke-width:1;"/></g><!--link ATCC to UC211--><g class="link" data-entity-1="ent0003" data-entity-2="ent0009" data-link-type="dependency" data-source-line="20" id="lnk14"><path d="M270.39,416.84 C306.09,411.9 338.7366,407.392 374.2366,402.482" fill="none" id="ATCC-to-UC211" style="stroke:#181818;stroke-width:1;"/><polygon fill="#181818" points="380.18,401.66,370.7168,398.9308,375.2271,402.345,371.8129,406.8553,380.18,401.66" style="stroke:#181818;stroke-width:1;"/></g><?plantuml-src NP71Ri8m38RlUGgBNU20QBaCBfDejLsP1coNNKpgjX4bYH9N24rxzvcALgodohM_xq-SXae6TX1CLJCK9f1cuwoA9sCz1Zo3Htt2YdPyRGXkRRHLGqgXPXTWaadRbQNH15jF0UNd1312jkqdDliy_xRJZGcm3sYZTu4XTsUFzYhVfi6ZwxXP1zx6bHg2OF9gQxIQ2X13nxuHSXiemlJh7PwMcN0_2g2Df34ASDWjasUOmmTL9Z85m3juCLn3YTeqXetmQ0lmjMFN1HzomSQUbNWEla2cmL8GesaalNPjY0ljBCjDPuDZDNQinV5fw0B1jIonx1PbS6U8dhIHpVNcmR0U6T9433j6Zk0i7DieX-UUYZsM9cCixOFxKQZa25vMURpAKrRoq0ESgb-biYtCvo_tJJmKguT2OjJjZORc-byfeZy0?></g></svg>