<svg xmlns="http://www.w3.org/2000/svg" xmlns:xlink="http://www.w3.org/1999/xlink" contentStyleType="text/css" data-diagram-type="DESCRIPTION" height="293px" preserveAspectRatio="none" style="width:498px;height:293px;background:#FFFFFF;" version="1.1" viewBox="0 0 498 293" width="498px" zoomAndPan="magnify"><?plantuml 1.2026.4?><defs/><g><!--cluster Extra Use Cases--><g class="cluster" data-qualified-name="Extra Use Cases" data-source-line="7" id="ent0003"><rect fill="none" height="229" rx="2.5" ry="2.5" style="stroke:#181818;stroke-width:1;" width="200" x="284" y="50"/><text fill="#000000" font-family="sans-serif" font-size="14" font-weight="700" lengthAdjust="spacing" textLength="109.7373" x="329.1313" y="66.5332">Extra Use Cases</text></g><!--entity UC_UpdateAircraft--><g class="entity" data-qualified-name="Extra Use Cases.UC_UpdateAircraft" data-source-line="8" id="ent0004"><ellipse cx="384.0816" cy="105.2163" fill="#F1F1F1" rx="84.0816" ry="19.2163" style="stroke:#181818;stroke-width:0.5;"/><text fill="#000000" font-family="sans-serif" font-size="14" lengthAdjust="spacing" textLength="136.1787" x="315.9922" y="110.521">Update aircraft details</text></g><!--entity UC_DeleteAircraft--><g class="entity" data-qualified-name="Extra Use Cases.UC_DeleteAircraft" data-source-line="9" id="ent0005"><ellipse cx="384.1205" cy="174.9517" fill="#F1F1F1" rx="64.6205" ry="15.4517" style="stroke:#181818;stroke-width:0.5;"/><text fill="#000000" font-family="sans-serif" font-size="14" lengthAdjust="spacing" textLength="87.1445" x="340.5482" y="180.2564">Delete aircraft</text></g><!--entity UC_DeleteAircraftModel--><g class="entity" data-qualified-name="Extra Use Cases.UC_DeleteAircraftModel" data-source-line="10" id="ent0006"><ellipse cx="384.1599" cy="244.132" fill="#F1F1F1" rx="81.1599" ry="18.632" style="stroke:#181818;stroke-width:0.5;"/><text fill="#000000" font-family="sans-serif" font-size="14" lengthAdjust="spacing" textLength="129.165" x="319.5773" y="249.4367">Delete aircraft model</text></g><!--entity BO--><g class="entity" data-qualified-name="BO" data-source-line="4" id="ent0001"><ellipse cx="122.8618" cy="144.5" fill="#F1F1F1" rx="8" ry="8" style="stroke:#181818;stroke-width:0.5;"/><path d="M122.8618,152.5 L122.8618,179.5 M109.8618,160.5 L135.8618,160.5 M122.8618,179.5 L109.8618,194.5 M122.8618,179.5 L135.8618,194.5" fill="none" style="stroke:#181818;stroke-width:0.5;"/><text fill="#000000" font-family="sans-serif" font-size="14" lengthAdjust="spacing" textLength="123.7236" x="61" y="210.5332">Backoffice Operator</text></g><!--entity ATCC--><g class="entity" data-qualified-name="ATCC" data-source-line="5" id="ent0002"><ellipse cx="123.0962" cy="14" fill="#F1F1F1" rx="8" ry="8" style="stroke:#181818;stroke-width:0.5;"/><path d="M123.0962,22 L123.0962,49 M110.0962,30 L136.0962,30 M123.0962,49 L110.0962,64 M123.0962,49 L136.0962,64" fill="none" style="stroke:#181818;stroke-width:0.5;"/><text fill="#000000" font-family="sans-serif" font-size="14" lengthAdjust="spacing" textLength="38.1104" x="6" y="80.0332">ATCC</text><text fill="#000000" font-family="sans-serif" font-size="14" lengthAdjust="spacing" textLength="234.1924" x="6" y="97.6426">(Air Transport Company Collaborator)</text></g><!--link BO to UC_UpdateAircraft--><g class="link" data-entity-1="ent0001" data-entity-2="ent0004" data-link-type="dependency" data-source-line="13" id="lnk7"><path d="M185.05,158.5 C228.87,146.66 282.5333,132.1549 324.5533,120.7949" fill="none" id="BO-to-UC_UpdateAircraft" style="stroke:#181818;stroke-width:1;"/><polygon fill="#181818" points="329.38,119.49,319.648,117.9774,324.5533,120.7949,321.7358,125.7002,329.38,119.49" style="stroke:#181818;stroke-width:1;stroke-linejoin:miter;stroke-miterlimit:10;"/></g><!--link BO to UC_DeleteAircraft--><g class="link" data-entity-1="ent0001" data-entity-2="ent0005" data-link-type="dependency" data-source-line="14" id="lnk8"><path d="M185.05,175 C225.43,175 273.27,175 314.2,175" fill="none" id="BO-to-UC_DeleteAircraft" style="stroke:#181818;stroke-width:1;"/><polygon fill="#181818" points="319.2,175,310.2,171,314.2,175,310.2,179,319.2,175" style="stroke:#181818;stroke-width:1;stroke-linejoin:miter;stroke-miterlimit:10;"/></g><!--link BO to UC_DeleteAircraftModel--><g class="link" data-entity-1="ent0001" data-entity-2="ent0006" data-link-type="dependency" data-source-line="15" id="lnk9"><path d="M185.05,191.26 C229.32,203.06 283.7286,217.5527 325.8386,228.7727" fill="none" id="BO-to-UC_DeleteAircraftModel" style="stroke:#181818;stroke-width:1;"/><polygon fill="#181818" points="330.67,230.06,323.0033,223.8777,325.8386,228.7727,320.9436,231.608,330.67,230.06" style="stroke:#181818;stroke-width:1;stroke-linejoin:miter;stroke-miterlimit:10;"/></g><?plantuml-src ZO_FIiGm48VlUOeVEUbXNq5eeqVfmUrDa36Trh1f4YOHNCHtDsrTNMG5JyFCDz_yyJmMb0Xnqql1u8HjSJ6eV70XaT2CHFP04p-KesSicCBaMIco9GfqMt4SHsSPNMAXMjIWZBOxTJHxOnx3LUC4Uw6GKvG24-T4uLYZz_GSL-zw5PTsfRuNGT-z5I7qcM4eSzPuLy1hPbipw3uDL1Zan0hLNmOkv7nUH_NcQSFD5pqNRzdpcNWIjl8_1CnnO7zPkr-G-b2gxR3RtLmuv0VyMlWNs4P-0W00?></g></svg>