<?plantuml 1.2026.1?><svg xmlns="http://www.w3.org/2000/svg" xmlns:xlink="http://www.w3.org/1999/xlink" contentStyleType="text/css" data-diagram-type="DESCRIPTION" height="712px" preserveAspectRatio="none" style="width:1297px;height:712px;background:#FFFFFF;" version="1.1" viewBox="0 0 1297 712" width="1297px" zoomAndPan="magnify"><defs/><g><!--cluster Maintenance Subsystem (WP4A)--><g class="cluster" data-qualified-name="Maintenance Subsystem .WP4A." data-source-line="9" id="ent0005"><rect fill="none" height="661" rx="2.5" ry="2.5" style="stroke:#181818;stroke-width:1;" width="293.44" x="504.84" y="7"/><text fill="#000000" font-family="sans-serif" font-size="14" font-weight="bold" lengthAdjust="spacing" textLength="256.9697" x="523.0751" y="21.9951">Maintenance Subsystem (WP4A)</text></g><!--entity UC_CreateTemplate--><g class="entity" data-qualified-name="Maintenance Subsystem .WP4A..UC_CreateTemplate" data-source-line="10" id="ent0006"><ellipse cx="651.5586" cy="256.9957" fill="#F1F1F1" rx="116.6286" ry="25.7257" style="stroke:#181818;stroke-width:0.5;"/><text fill="#000000" font-family="sans-serif" font-size="14" lengthAdjust="spacing" textLength="212.1465" x="545.4854" y="261.6442">Create Maintenance Template</text></g><!--entity UC_CreatePart--><g class="entity" data-qualified-name="Maintenance Subsystem .WP4A..UC_CreatePart" data-source-line="11" id="ent0007"><ellipse cx="651.5578" cy="64.9996" fill="#F1F1F1" rx="104.3478" ry="23.2696" style="stroke:#181818;stroke-width:0.5;"/><text fill="#000000" font-family="sans-serif" font-size="14" lengthAdjust="spacing" textLength="185.5957" x="558.7599" y="69.648">Register Maintenance Part</text></g><!--entity UC_CreateRecord--><g class="entity" data-qualified-name="Maintenance Subsystem .WP4A..UC_CreateRecord" data-source-line="12" id="ent0008"><ellipse cx="651.561" cy="627.9962" fill="#F1F1F1" rx="108.731" ry="24.1462" style="stroke:#181818;stroke-width:0.5;"/><text fill="#000000" font-family="sans-serif" font-size="14" lengthAdjust="spacing" textLength="195.1318" x="553.995" y="632.6446">Create Maintenance Record</text></g><!--entity UC_UpdateRecord--><g class="entity" data-qualified-name="Maintenance Subsystem .WP4A..UC_UpdateRecord" data-source-line="13" id="ent0009"><ellipse cx="651.5596" cy="543.0019" fill="#F1F1F1" rx="117.3596" ry="25.8719" style="stroke:#181818;stroke-width:0.5;"/><text fill="#000000" font-family="sans-serif" font-size="14" lengthAdjust="spacing" textLength="213.7119" x="544.7037" y="547.6504">Update Record Status &amp; Notes</text></g><!--entity UC_ListRecords--><g class="entity" data-qualified-name="Maintenance Subsystem .WP4A..UC_ListRecords" data-source-line="14" id="ent0010"><ellipse cx="651.56" cy="454.004" fill="#F1F1F1" rx="130.72" ry="28.544" style="stroke:#181818;stroke-width:0.5;"/><text fill="#000000" font-family="sans-serif" font-size="14" lengthAdjust="spacing" textLength="242.0947" x="530.5126" y="458.6524">List / Search Maintenance Records</text></g><!--entity UC_Totals--><g class="entity" data-qualified-name="Maintenance Subsystem .WP4A..UC_Totals" data-source-line="15" id="ent0011"><ellipse cx="651.5562" cy="345.9992" fill="#F1F1F1" rx="127.0462" ry="27.8092" style="stroke:#181818;stroke-width:0.5;"/><text fill="#000000" font-family="sans-serif" font-size="14" lengthAdjust="spacing" textLength="234.3291" x="534.3916" y="350.6477">Get Maintenance Totals / Reports</text></g><!--entity UC_ResolveModel--><g class="entity" data-qualified-name="Maintenance Subsystem .WP4A..UC_ResolveModel" data-source-line="16" id="ent0012"><ellipse cx="651.5558" cy="151.9972" fill="#F1F1F1" rx="129.2858" ry="28.2572" style="stroke:#181818;stroke-width:0.5;"/><text fill="#000000" font-family="sans-serif" font-size="14" lengthAdjust="spacing" textLength="239.0664" x="532.0226" y="156.6456">Resolve Aircraft Model (name / id)</text></g><!--entity Manager--><g class="entity" data-qualified-name="Manager" data-source-line="5" id="ent0002"><ellipse cx="199.9178" cy="227.35" fill="#F1F1F1" rx="8" ry="8" style="stroke:#181818;stroke-width:0.5;"/><path d="M199.9178,235.35 L199.9178,262.35 M186.9178,243.35 L212.9178,243.35 M199.9178,262.35 L186.9178,277.35 M199.9178,262.35 L212.9178,277.35" fill="none" style="stroke:#181818;stroke-width:0.5;"/><text fill="#000000" font-family="sans-serif" font-size="14" lengthAdjust="spacing" textLength="155.9756" x="121.93" y="291.8451">Maintenance Manager</text></g><!--entity Technician--><g class="entity" data-qualified-name="Technician" data-source-line="6" id="ent0003"><ellipse cx="199.9186" cy="528.35" fill="#F1F1F1" rx="8" ry="8" style="stroke:#181818;stroke-width:0.5;"/><path d="M199.9186,536.35 L199.9186,563.35 M186.9186,544.35 L212.9186,544.35 M199.9186,563.35 L186.9186,578.35 M199.9186,563.35 L212.9186,578.35" fill="none" style="stroke:#181818;stroke-width:0.5;"/><text fill="#000000" font-family="sans-serif" font-size="14" lengthAdjust="spacing" textLength="75.5371" x="162.15" y="592.8451">Technician</text></g><!--entity Scheduler--><g class="entity" data-qualified-name="Scheduler" data-source-line="7" id="ent0004"><ellipse cx="199.9161" cy="639.35" fill="#F1F1F1" rx="8" ry="8" style="stroke:#181818;stroke-width:0.5;"/><path d="M199.9161,647.35 L199.9161,674.35 M186.9161,655.35 L212.9161,655.35 M199.9161,674.35 L186.9161,689.35 M199.9161,674.35 L212.9161,689.35" fill="none" style="stroke:#181818;stroke-width:0.5;"/><text fill="#000000" font-family="sans-serif" font-size="14" lengthAdjust="spacing" textLength="135.9121" x="131.96" y="703.8451">Scheduler / System</text></g><g class="entity" data-qualified-name="GMN22" data-source-line="31" id="ent0023"><path d="M845.28,236.87 L845.28,253 L768.57,257 L845.28,261 L845.28,277.1356 A0,0 0 0 0 845.28,277.1356 L1290.8239,277.1356 A0,0 0 0 0 1290.8239,277.1356 L1290.8239,246.87 L1280.8239,236.87 L845.28,236.87 A0,0 0 0 0 845.28,236.87" fill="#FEFFDD" style="stroke:#181818;stroke-width:0.5;"/><path d="M1280.8239,236.87 L1280.8239,246.87 L1290.8239,246.87 L1280.8239,236.87" fill="#FEFFDD" style="stroke:#181818;stroke-width:0.5;"/><text fill="#000000" font-family="sans-serif" font-size="13" lengthAdjust="spacing" textLength="287.168" x="851.28" y="253.9369">Templates are associated to aircraft models</text><text fill="#000000" font-family="sans-serif" font-size="13" lengthAdjust="spacing" textLength="424.5439" x="851.28" y="269.0697">(API accepts model names; use-case resolves to domain entities)</text></g><g class="entity" data-qualified-name="GMN25" data-source-line="36" id="ent0026"><path d="M6,459.44 L6,484.5728 L393.8374,484.5728 L393.8374,469.44 L383.8374,459.44 L6,459.44" fill="#FEFFDD" style="stroke:#181818;stroke-width:0.5;"/><path d="M383.8374,459.44 L383.8374,469.44 L393.8374,469.44 L383.8374,459.44" fill="#FEFFDD" style="stroke:#181818;stroke-width:1;"/><text fill="#000000" font-family="sans-serif" font-size="13" lengthAdjust="spacing" textLength="366.8374" x="12" y="476.5069">Updates enforce optimistic locking using ETag / If-Match</text></g><!--link Manager to UC_CreateTemplate--><g class="link" data-entity-1="ent0002" data-entity-2="ent0006" data-link-type="dependency" data-source-line="19" id="lnk13"><path d="M278.21,257 C348.77,257 448.03,257 528.66,257" fill="none" id="Manager-to-UC_CreateTemplate" style="stroke:#181818;stroke-width:1;"/><polygon fill="#181818" points="534.66,257,525.66,253,529.66,257,525.66,261,534.66,257" style="stroke:#181818;stroke-width:1;"/></g><!--link Manager to UC_CreatePart--><g class="link" data-entity-1="ent0002" data-entity-2="ent0007" data-link-type="dependency" data-source-line="20" id="lnk14"><path d="M266.65,218.36 C325.42,185.06 414.71,137.5 496.84,106 C522.24,96.26 545.0368,89.4257 570.6268,82.8857" fill="none" id="Manager-to-UC_CreatePart" style="stroke:#181818;stroke-width:1;"/><polygon fill="#181818" points="576.44,81.4,566.7298,79.7531,571.5957,82.6381,568.7107,87.5039,576.44,81.4" style="stroke:#181818;stroke-width:1;"/></g><!--link Technician to UC_CreateRecord--><g class="link" data-entity-1="ent0003" data-entity-2="ent0008" data-link-type="dependency" data-source-line="21" id="lnk15"><path d="M238.1,563.79 C308.48,574.75 457.0214,597.8668 555.6614,613.2268" fill="none" id="Technician-to-UC_CreateRecord" style="stroke:#181818;stroke-width:1;"/><polygon fill="#181818" points="561.59,614.15,553.3126,608.8129,556.6495,613.3807,552.0817,616.7176,561.59,614.15" style="stroke:#181818;stroke-width:1;"/></g><!--link Technician to UC_UpdateRecord--><g class="link" data-entity-1="ent0003" data-entity-2="ent0009" data-link-type="dependency" data-source-line="22" id="lnk16"><path d="M238.1,556.76 C302.48,554.61 431.2333,550.3201 529.2533,547.0501" fill="none" id="Technician-to-UC_UpdateRecord" style="stroke:#181818;stroke-width:1;"/><polygon fill="#181818" points="535.25,546.85,526.1216,543.1523,530.2528,547.0167,526.3884,551.1479,535.25,546.85" style="stroke:#181818;stroke-width:1;"/></g><!--link Manager to UC_ListRecords--><g class="link" data-entity-1="ent0002" data-entity-2="ent0010" data-link-type="dependency" data-source-line="23" id="lnk17"><path d="M278.15,292.9 C337.66,320.34 422.13,358.79 496.84,391 C526.5,403.79 554.0705,415.1935 581.9605,426.5135" fill="none" id="Manager-to-UC_ListRecords" style="stroke:#181818;stroke-width:1;"/><polygon fill="#181818" points="587.52,428.77,580.6851,421.6789,582.8871,426.8896,577.6764,429.0916,587.52,428.77" style="stroke:#181818;stroke-width:1;"/></g><!--link Scheduler to UC_CreateRecord--><g class="link" data-entity-1="ent0004" data-entity-2="ent0008" data-link-type="dependency" data-source-line="24" id="lnk18"><path d="M268.23,662.86 C342.96,656.05 458.3548,645.5245 544.2748,637.6945" fill="none" id="Scheduler-to-UC_CreateRecord" style="stroke:#181818;stroke-width:1;"/><polygon fill="#181818" points="550.25,637.15,540.9241,633.9833,545.2706,637.6038,541.6502,641.9503,550.25,637.15" style="stroke:#181818;stroke-width:1;"/></g><!--link UC_CreateTemplate to UC_ResolveModel--><g class="link" data-entity-1="ent0006" data-entity-2="ent0012" data-link-type="dependency" data-source-line="26" id="lnk19"><path d="M651.56,230.78 C651.56,215.47 651.56,202.15 651.56,186.47" fill="none" id="UC_CreateTemplate-to-UC_ResolveModel" style="stroke:#181818;stroke-width:1;stroke-dasharray:7,7;"/><polygon fill="#181818" points="651.56,180.47,647.56,189.47,651.56,185.47,655.56,189.47,651.56,180.47" style="stroke:#181818;stroke-width:1;"/><text fill="#000000" font-family="sans-serif" font-size="13" lengthAdjust="spacing" textLength="63.0068" x="608.56" y="210.3369">&#171;include&#187;</text></g><!--link UC_CreateRecord to UC_ResolveModel--><g class="link" data-entity-1="ent0008" data-entity-2="ent0012" data-link-type="dependency" data-source-line="27" id="lnk20"><path d="M552.94,617.56 C532.19,611.22 512.02,601.32 496.84,586 C441.71,530.38 448.59,492.43 456.37,414.5 C465.41,324.04 438.66,283.86 496.84,214 C512.95,194.66 530.3975,183.4991 553.7775,174.2891" fill="none" id="UC_CreateRecord-to-UC_ResolveModel" style="stroke:#181818;stroke-width:1;stroke-dasharray:7,7;"/><polygon fill="#181818" points="559.36,172.09,549.5202,171.667,554.7079,173.9226,552.4523,179.1103,559.36,172.09" style="stroke:#181818;stroke-width:1;"/><text fill="#000000" font-family="sans-serif" font-size="13" lengthAdjust="spacing" textLength="63.0068" x="424.84" y="427.5669">&#171;include&#187;</text></g><!--link UC_ListRecords to UC_Totals--><g class="link" data-entity-1="ent0010" data-entity-2="ent0011" data-link-type="dependency" data-source-line="28" id="lnk21"><path d="M651.56,425.06 C651.56,409.31 651.56,395.92 651.56,380.28" fill="none" id="UC_ListRecords-to-UC_Totals" style="stroke:#181818;stroke-width:1;stroke-dasharray:7,7;"/><polygon fill="#181818" points="651.56,374.28,647.56,383.28,651.56,379.28,655.56,383.28,651.56,374.28" style="stroke:#181818;stroke-width:1;"/><text fill="#000000" font-family="sans-serif" font-size="13" lengthAdjust="spacing" textLength="61.1851" x="609.56" y="404.1969">&#171;extend&#187;</text></g><!--link GMN25 to UC_UpdateRecord--><g class="link" data-entity-1="ent0026" data-entity-2="ent0009" data-link-type="association" data-source-line="36" id="lnk27"><path d="M284.97,485 C318.8,490.25 358.18,496.38 393.84,502 C447.45,510.45 507.34,520.01 555.78,527.77" fill="none" id="GMN25-UC_UpdateRecord" style="stroke:#181818;stroke-width:1;stroke-dasharray:7,7;"/></g><?plantuml-src ZLHDYzim4BthLmmvbEIGzj9JkmJ2Kif2KqAIfSSobIUsM5aoqhXqAVtl7VaZNdaDhG_6dddlpVFCo9Qk3EmXcB9YA4mWpSOxfUAJSGq6hA51_OGbdVdP4gGykjAIKgZP1rWTq3WcXquJ7D09Cgm0u_WymYwaAsUqGTTbfzSHSDOL5Qsb0E_W_1oPwWvu2oir6CbBdjiViKF3-jln_NwpWjyAv6eZQOm2lW-4dAnDd0lLZPLWL-3n_diF6QCv_KIb4VcG2HmnS4vEaN_MFP7seSY9VIodFZP5elOfE3Do6-4DVFLCSMJtc2Ns5_6RUaWOTBLG_oQHW4CeL_XCdFVBCzeecYTgVE2RG1-Vzojw-vDWRu8EACjry0LPM3kiIHHCiHdP0xBBgpzA3Gi3s-rkOIYBsQxhqohboQ4thzDPwsQwBtioRUIIhdhb4Txkvjy57-3kpZXjsu9sEpNJ-2_22qS3VXX7Gj8lcL4XGELaEOPJxA-BIpq-Hi10CeFefIbCHJh-E4whJYRIIDVxumEWrjHmxAEGHXW_fb5lkrc7tdTC0eMlPM6071is53TAR47oD3YpwJ_J6vjjRlyQXNhrGPRDDsng-MQZmNejVw5IAgRxfmkMia4Fr-q1MLTJXRy0?></g></svg>