<?plantuml 1.2026.2?><svg xmlns="http://www.w3.org/2000/svg" xmlns:xlink="http://www.w3.org/1999/xlink" contentStyleType="text/css" data-diagram-type="DESCRIPTION" height="732px" preserveAspectRatio="none" style="width:1181px;height:732px;background:#FFFFFF;" version="1.1" viewBox="0 0 1181 732" width="1181px" zoomAndPan="magnify"><defs/><g><!--cluster Maintenance Subsystem (WP4A)--><g class="cluster" data-qualified-name="Maintenance Subsystem .WP4A." data-source-line="9" id="ent0005"><rect fill="none" height="645" rx="2.5" ry="2.5" style="stroke:#181818;stroke-width:1;" width="275" x="454" y="7"/><text fill="#000000" font-family="sans-serif" font-size="14" font-weight="bold" lengthAdjust="spacing" textLength="217.0479" x="482.9761" y="24.1074">Maintenance Subsystem (WP4A)</text></g><!--entity UC_CreateTemplate--><g class="entity" data-qualified-name="Maintenance Subsystem .WP4A..UC_CreateTemplate" data-source-line="10" id="ent0006"><ellipse cx="591.5408" cy="253.0082" fill="#F1F1F1" rx="108.0408" ry="24.0082" style="stroke:#181818;stroke-width:0.5;"/><text fill="#000000" font-family="sans-serif" font-size="14" lengthAdjust="spacing" textLength="188.3232" x="497.3792" y="258.8187">Create Maintenance Template</text></g><!--entity UC_CreatePart--><g class="entity" data-qualified-name="Maintenance Subsystem .WP4A..UC_CreatePart" data-source-line="11" id="ent0007"><ellipse cx="591.5553" cy="66.0111" fill="#F1F1F1" rx="98.0553" ry="22.0111" style="stroke:#181818;stroke-width:0.5;"/><text fill="#000000" font-family="sans-serif" font-size="14" lengthAdjust="spacing" textLength="165.751" x="508.6798" y="71.8216">Register Maintenance Part</text></g><!--entity UC_CreateRecord--><g class="entity" data-qualified-name="Maintenance Subsystem .WP4A..UC_CreateRecord" data-source-line="12" id="ent0008"><ellipse cx="591.6553" cy="612.8311" fill="#F1F1F1" rx="102.1553" ry="22.8311" style="stroke:#181818;stroke-width:0.5;"/><text fill="#000000" font-family="sans-serif" font-size="14" lengthAdjust="spacing" textLength="175.0957" x="504.1075" y="618.6416">Create Maintenance Record</text></g><!--entity UC_UpdateRecord--><g class="entity" data-qualified-name="Maintenance Subsystem .WP4A..UC_UpdateRecord" data-source-line="13" id="ent0009"><ellipse cx="591.4371" cy="529.7874" fill="#F1F1F1" rx="109.4371" ry="24.2874" style="stroke:#181818;stroke-width:0.5;"/><text fill="#000000" font-family="sans-serif" font-size="14" lengthAdjust="spacing" textLength="191.4336" x="495.7203" y="535.598">Update Record Status &amp; Notes</text></g><!--entity UC_ListRecords--><g class="entity" data-qualified-name="Maintenance Subsystem .WP4A..UC_ListRecords" data-source-line="14" id="ent0010"><ellipse cx="591.4737" cy="444.1947" fill="#F1F1F1" rx="121.4737" ry="26.6947" style="stroke:#181818;stroke-width:0.5;"/><text fill="#000000" font-family="sans-serif" font-size="14" lengthAdjust="spacing" textLength="217.8887" x="482.5294" y="450.0053">List / Search Maintenance Records</text></g><!--entity UC_Totals--><g class="entity" data-qualified-name="Maintenance Subsystem .WP4A..UC_Totals" data-source-line="15" id="ent0011"><ellipse cx="591.5479" cy="337.9096" fill="#F1F1F1" rx="117.5479" ry="25.9096" style="stroke:#181818;stroke-width:0.5;"/><text fill="#000000" font-family="sans-serif" font-size="14" lengthAdjust="spacing" textLength="209.3232" x="486.8862" y="343.7201">Get Maintenance Totals / Reports</text></g><!--entity UC_ResolveModel--><g class="entity" data-qualified-name="Maintenance Subsystem .WP4A..UC_ResolveModel" data-source-line="16" id="ent0012"><ellipse cx="591.6012" cy="149.1202" fill="#F1F1F1" rx="118.6012" ry="26.1202" style="stroke:#181818;stroke-width:0.5;"/><text fill="#000000" font-family="sans-serif" font-size="14" lengthAdjust="spacing" textLength="211.627" x="485.7878" y="154.9308">Resolve Aircraft Model (name / id)</text></g><!--entity Manager--><g class="entity" data-qualified-name="Manager" data-source-line="5" id="ent0002"><ellipse cx="178.6548" cy="222" fill="#F1F1F1" rx="8" ry="8" style="stroke:#181818;stroke-width:0.5;"/><path d="M178.6548,230 L178.6548,257 M165.6548,238 L191.6548,238 M178.6548,257 L165.6548,272 M178.6548,257 L191.6548,272" fill="none" style="stroke:#181818;stroke-width:0.5;"/><text fill="#000000" font-family="sans-serif" font-size="14" lengthAdjust="spacing" textLength="139.3096" x="109" y="288.6074">Maintenance Manager</text></g><!--entity Technician--><g class="entity" data-qualified-name="Technician" data-source-line="6" id="ent0003"><ellipse cx="178.3516" cy="543" fill="#F1F1F1" rx="8" ry="8" style="stroke:#181818;stroke-width:0.5;"/><path d="M178.3516,551 L178.3516,578 M165.3516,559 L191.3516,559 M178.3516,578 L165.3516,593 M178.3516,578 L191.3516,593" fill="none" style="stroke:#181818;stroke-width:0.5;"/><text fill="#000000" font-family="sans-serif" font-size="14" lengthAdjust="spacing" textLength="67.7031" x="144.5" y="609.6074">Technician</text></g><!--entity Scheduler--><g class="entity" data-qualified-name="Scheduler" data-source-line="7" id="ent0004"><ellipse cx="178.6929" cy="657" fill="#F1F1F1" rx="8" ry="8" style="stroke:#181818;stroke-width:0.5;"/><path d="M178.6929,665 L178.6929,692 M165.6929,673 L191.6929,673 M178.6929,692 L165.6929,707 M178.6929,692 L191.6929,707" fill="none" style="stroke:#181818;stroke-width:0.5;"/><text fill="#000000" font-family="sans-serif" font-size="14" lengthAdjust="spacing" textLength="121.3857" x="118" y="723.6074">Scheduler / System</text></g><g class="entity" data-qualified-name="GMN22" data-source-line="31" id="ent0023"><path d="M776,230.5 L776,249 L699.53,253 L776,257 L776,275.082 A0,0 0 0 0 776,275.082 L1174.1714,275.082 A0,0 0 0 0 1174.1714,275.082 L1174.1714,240.5 L1164.1714,230.5 L776,230.5 A0,0 0 0 0 776,230.5" fill="#FEFFDD" style="stroke:#181818;stroke-width:0.5;"/><path d="M1164.1714,230.5 L1164.1714,240.5 L1174.1714,240.5 L1164.1714,230.5" fill="#FEFFDD" style="stroke:#181818;stroke-width:0.5;"/><text fill="#000000" font-family="sans-serif" font-size="13" lengthAdjust="spacing" textLength="252.167" x="782" y="249.5283">Templates are associated to aircraft models</text><text fill="#000000" font-family="sans-serif" font-size="13" lengthAdjust="spacing" textLength="377.1714" x="782" y="266.8193">(API accepts model names; use-case resolves to domain entities)</text></g><g class="entity" data-qualified-name="GMN25" data-source-line="36" id="ent0026"><path d="M6,472.5 L6,499.791 A0,0 0 0 0 6,499.791 L301.61,499.791 L492.37,519.49 L309.61,499.791 L351.4224,499.791 A0,0 0 0 0 351.4224,499.791 L351.4224,482.5 L341.4224,472.5 L6,472.5 A0,0 0 0 0 6,472.5" fill="#FEFFDD" style="stroke:#181818;stroke-width:0.5;"/><path d="M341.4224,472.5 L341.4224,482.5 L351.4224,482.5 L341.4224,472.5" fill="#FEFFDD" style="stroke:#181818;stroke-width:0.5;"/><text fill="#000000" font-family="sans-serif" font-size="13" lengthAdjust="spacing" textLength="324.4224" x="12" y="491.5283">Updates enforce optimistic locking using ETag / If-Match</text></g><!--link Manager to UC_CreateTemplate--><g class="link" data-entity-1="ent0002" data-entity-2="ent0006" data-link-type="dependency" data-source-line="19" id="lnk13"><path d="M248.29,253 C312.39,253 402.97,253 477.2,253" fill="none" id="Manager-to-UC_CreateTemplate" style="stroke:#181818;stroke-width:1;"/><polygon fill="#181818" points="483.2,253,474.2,249,478.2,253,474.2,257,483.2,253" style="stroke:#181818;stroke-width:1;"/></g><!--link Manager to UC_CreatePart--><g class="link" data-entity-1="ent0002" data-entity-2="ent0007" data-link-type="dependency" data-source-line="20" id="lnk14"><path d="M240.63,213.4 C293.32,180.67 372.31,134.88 446,105 C469.6,95.43 490.4898,88.9674 514.4698,82.7874" fill="none" id="Manager-to-UC_CreatePart" style="stroke:#181818;stroke-width:1;"/><polygon fill="#181818" points="520.28,81.29,510.5665,79.6626,515.4382,82.5378,512.563,87.4095,520.28,81.29" style="stroke:#181818;stroke-width:1;"/></g><!--link Technician to UC_CreateRecord--><g class="link" data-entity-1="ent0003" data-entity-2="ent0008" data-link-type="dependency" data-source-line="21" id="lnk15"><path d="M212.79,577.16 C274.03,582.97 400.6368,594.983 491.2368,603.583" fill="none" id="Technician-to-UC_CreateRecord" style="stroke:#181818;stroke-width:1;"/><polygon fill="#181818" points="497.21,604.15,488.6283,599.3174,492.2324,603.6775,487.8723,607.2816,497.21,604.15" style="stroke:#181818;stroke-width:1;"/></g><!--link Technician to UC_UpdateRecord--><g class="link" data-entity-1="ent0003" data-entity-2="ent0009" data-link-type="dependency" data-source-line="22" id="lnk16"><path d="M212.79,570.44 C272.98,563.99 396.1141,550.8086 486.5441,541.1286" fill="none" id="Technician-to-UC_UpdateRecord" style="stroke:#181818;stroke-width:1;"/><polygon fill="#181818" points="492.51,540.49,483.1354,537.4706,487.5384,541.0222,483.9869,545.4252,492.51,540.49" style="stroke:#181818;stroke-width:1;"/></g><!--link Manager to UC_ListRecords--><g class="link" data-entity-1="ent0002" data-entity-2="ent0010" data-link-type="dependency" data-source-line="23" id="lnk17"><path d="M248.2,286.85 C301.82,313.06 378.33,350.01 446,381 C475.24,394.39 502.5704,406.3842 529.5404,418.0142" fill="none" id="Manager-to-UC_ListRecords" style="stroke:#181818;stroke-width:1;"/><polygon fill="#181818" points="535.05,420.39,528.3695,413.1532,530.4587,418.4101,525.2017,420.4993,535.05,420.39" style="stroke:#181818;stroke-width:1;"/></g><!--link Scheduler to UC_CreateRecord--><g class="link" data-entity-1="ent0004" data-entity-2="ent0008" data-link-type="dependency" data-source-line="24" id="lnk18"><path d="M239.26,677.09 C311.17,663.97 426.2375,642.9772 505.7475,628.4672" fill="none" id="Scheduler-to-UC_CreateRecord" style="stroke:#181818;stroke-width:1;"/><polygon fill="#181818" points="511.65,627.39,502.0781,625.0707,506.7312,628.2876,503.5143,632.9408,511.65,627.39" style="stroke:#181818;stroke-width:1;"/></g><!--link UC_CreateTemplate to UC_ResolveModel--><g class="link" data-entity-1="ent0006" data-entity-2="ent0012" data-link-type="dependency" data-source-line="26" id="lnk19"><path d="M591.5,228.88 C591.5,212.8 591.5,197.67 591.5,181.18" fill="none" id="UC_CreateTemplate-to-UC_ResolveModel" style="stroke:#181818;stroke-width:1;stroke-dasharray:7,7;"/><polygon fill="#181818" points="591.5,175.18,587.5,184.18,591.5,180.18,595.5,184.18,591.5,175.18" style="stroke:#181818;stroke-width:1;"/><text fill="#000000" font-family="sans-serif" font-size="13" lengthAdjust="spacing" textLength="55.6563" x="551.5" y="207.5283">&#171;include&#187;</text></g><!--link UC_CreateRecord to UC_ResolveModel--><g class="link" data-entity-1="ent0008" data-entity-2="ent0012" data-link-type="dependency" data-source-line="27" id="lnk20"><path d="M499.43,602.92 C479.54,596.75 460.23,587.07 446,572 C390.8,513.54 403.43,474.55 411,394.5 C418.81,311.84 393.91,275.65 446,211 C462.19,190.9 480.5202,179.3805 504.3102,170.1005" fill="none" id="UC_CreateRecord-to-UC_ResolveModel" style="stroke:#181818;stroke-width:1;stroke-dasharray:7,7;"/><polygon fill="#181818" points="509.9,167.92,500.0617,167.4642,505.2419,169.737,502.969,174.9172,509.9,167.92" style="stroke:#181818;stroke-width:1;"/><text fill="#000000" font-family="sans-serif" font-size="13" lengthAdjust="spacing" textLength="55.6563" x="382" y="409.5283">&#171;include&#187;</text></g><!--link UC_ListRecords to UC_Totals--><g class="link" data-entity-1="ent0010" data-entity-2="ent0011" data-link-type="dependency" data-source-line="28" id="lnk21"><path d="M591.5,417.25 C591.5,400.94 591.5,386.18 591.5,370.01" fill="none" id="UC_ListRecords-to-UC_Totals" style="stroke:#181818;stroke-width:1;stroke-dasharray:7,7;"/><polygon fill="#181818" points="591.5,364.01,587.5,373.01,591.5,369.01,595.5,373.01,591.5,364.01" style="stroke:#181818;stroke-width:1;"/><text fill="#000000" font-family="sans-serif" font-size="13" lengthAdjust="spacing" textLength="53.4917" x="552.5" y="396.2783">&#171;extend&#187;</text></g><?plantuml-src ZLHDYzim4BthLmmvbEIGzj9JkmJ2Kif2KqAIfSSobIUsM5aoqhXqAVtl7VaZNdaDhG_6dddlpVFCo9Qk3EmXcB9YA4mWpSOxfUAJSGq6hA51_OGbdVdP4gGykjAIKgZP1rWTq3WcXquJ7D09Cgm0u_WymYwaAsUqGTTbfzSHSDOL5Qsb0E_W_1oPwWvu2oir6CbBdjiViKF3-jln_NwpWjyAv6eZQOm2lW-4dAnDd0lLZPLWL-3n_diF6QCv_KIb4VcG2HmnS4vEaN_MFP7seSY9VIodFZP5elOfE3Do6-4DVFLCSMJtc2Ns5_6RUaWOTBLG_oQHW4CeL_XCdFVBCzeecYTgVE2RG1-Vzojw-vDWRu8EACjry0LPM3kiIHHCiHdP0xBBgpzA3Gi3s-rkOIYBsQxhqohboQ4thzDPwsQwBtioRUIIhdhb4Txkvjy57-3kpZXjsu9sEpNJ-2_22qS3VXX7Gj8lcL4XGELaEOPJxA-BIpq-Hi10CeFefIbCHJh-E4whJYRIIDVxumEWrjHmxAEGHXW_fb5lkrc7tdTC0eMlPM6071is53TAR47oD3YpwJ_J6vjjRlyQXNhrGPRDDsng-MQZmNejVw5IAgRxfmkMia4Fr-q1MLTJXRy0?></g></svg>