<svg xmlns="http://www.w3.org/2000/svg" xmlns:xlink="http://www.w3.org/1999/xlink" contentStyleType="text/css" data-diagram-type="DESCRIPTION" height="728px" preserveAspectRatio="none" style="width:1187px;height:728px;background:#FFFFFF;" version="1.1" viewBox="0 0 1187 728" width="1187px" zoomAndPan="magnify"><?plantuml 1.2026.4?><defs/><g><!--cluster Maintenance Subsystem (WP4A)--><g class="cluster" data-qualified-name="Maintenance Subsystem .WP4A." data-source-line="9" id="ent0004"><rect fill="none" height="641" rx="2.5" ry="2.5" style="stroke:#181818;stroke-width:1;" width="273" x="454" y="7"/><text fill="#000000" font-family="sans-serif" font-size="14" font-weight="700" lengthAdjust="spacing" textLength="217.0479" x="481.9761" y="23.5332">Maintenance Subsystem (WP4A)</text></g><!--entity UC_CreateTemplate--><g class="entity" data-qualified-name="Maintenance Subsystem .WP4A..UC_CreateTemplate" data-source-line="10" id="ent0005"><ellipse cx="590.4446" cy="250.7889" fill="#F1F1F1" rx="106.9446" ry="23.7889" style="stroke:#181818;stroke-width:0.5;"/><text fill="#000000" font-family="sans-serif" font-size="14" lengthAdjust="spacing" textLength="188.3232" x="496.283" y="256.0936">Create Maintenance Template</text></g><!--entity UC_CreatePart--><g class="entity" data-qualified-name="Maintenance Subsystem .WP4A..UC_CreatePart" data-source-line="11" id="ent0006"><ellipse cx="590.3425" cy="64.7685" fill="#F1F1F1" rx="96.8425" ry="21.7685" style="stroke:#181818;stroke-width:0.5;"/><text fill="#000000" font-family="sans-serif" font-size="14" lengthAdjust="spacing" textLength="165.751" x="507.467" y="70.0732">Register Maintenance Part</text></g><!--entity UC_CreateRecord--><g class="entity" data-qualified-name="Maintenance Subsystem .WP4A..UC_CreateRecord" data-source-line="12" id="ent0007"><ellipse cx="590.4933" cy="609.0987" fill="#F1F1F1" rx="100.9933" ry="22.5987" style="stroke:#181818;stroke-width:0.5;"/><text fill="#000000" font-family="sans-serif" font-size="14" lengthAdjust="spacing" textLength="175.0957" x="502.9455" y="614.4034">Create Maintenance Record</text></g><!--entity UC_UpdateRecord--><g class="entity" data-qualified-name="Maintenance Subsystem .WP4A..UC_UpdateRecord" data-source-line="13" id="ent0008"><ellipse cx="590.3554" cy="527.0711" fill="#F1F1F1" rx="108.3554" ry="24.0711" style="stroke:#181818;stroke-width:0.5;"/><text fill="#000000" font-family="sans-serif" font-size="14" lengthAdjust="spacing" textLength="191.4336" x="494.6386" y="532.3758">Update Record Status &amp; Notes</text></g><!--entity UC_ListRecords--><g class="entity" data-qualified-name="Maintenance Subsystem .WP4A..UC_ListRecords" data-source-line="14" id="ent0009"><ellipse cx="590.5029" cy="441.0006" fill="#F1F1F1" rx="120.5029" ry="26.5006" style="stroke:#181818;stroke-width:0.5;"/><text fill="#000000" font-family="sans-serif" font-size="14" lengthAdjust="spacing" textLength="217.8887" x="481.5586" y="446.3053">List / Search Maintenance Records</text></g><!--entity UC_Totals--><g class="entity" data-qualified-name="Maintenance Subsystem .WP4A..UC_Totals" data-source-line="15" id="ent0010"><ellipse cx="590.5435" cy="336.2087" fill="#F1F1F1" rx="116.5435" ry="25.7087" style="stroke:#181818;stroke-width:0.5;"/><text fill="#000000" font-family="sans-serif" font-size="14" lengthAdjust="spacing" textLength="209.3232" x="485.8818" y="341.5134">Get Maintenance Totals / Reports</text></g><!--entity UC_ResolveModel--><g class="entity" data-qualified-name="Maintenance Subsystem .WP4A..UC_ResolveModel" data-source-line="16" id="ent0011"><ellipse cx="590.6061" cy="147.9212" fill="#F1F1F1" rx="117.6061" ry="25.9212" style="stroke:#181818;stroke-width:0.5;"/><text fill="#000000" font-family="sans-serif" font-size="14" lengthAdjust="spacing" textLength="211.627" x="484.7926" y="153.2259">Resolve Aircraft Model (name / id)</text></g><!--entity Manager--><g class="entity" data-qualified-name="Manager" data-source-line="5" id="ent0001"><ellipse cx="178.6548" cy="220.5" fill="#F1F1F1" rx="8" ry="8" style="stroke:#181818;stroke-width:0.5;"/><path d="M178.6548,228.5 L178.6548,255.5 M165.6548,236.5 L191.6548,236.5 M178.6548,255.5 L165.6548,270.5 M178.6548,255.5 L191.6548,270.5" fill="none" style="stroke:#181818;stroke-width:0.5;"/><text fill="#000000" font-family="sans-serif" font-size="14" lengthAdjust="spacing" textLength="139.3096" x="109" y="286.5332">Maintenance Manager</text></g><!--entity Technician--><g class="entity" data-qualified-name="Technician" data-source-line="6" id="ent0002"><ellipse cx="178.3516" cy="532.5" fill="#F1F1F1" rx="8" ry="8" style="stroke:#181818;stroke-width:0.5;"/><path d="M178.3516,540.5 L178.3516,567.5 M165.3516,548.5 L191.3516,548.5 M178.3516,567.5 L165.3516,582.5 M178.3516,567.5 L191.3516,582.5" fill="none" style="stroke:#181818;stroke-width:0.5;"/><text fill="#000000" font-family="sans-serif" font-size="14" lengthAdjust="spacing" textLength="67.7031" x="144.5" y="598.5332">Technician</text></g><!--entity Scheduler--><g class="entity" data-qualified-name="Scheduler" data-source-line="7" id="ent0003"><ellipse cx="178.6929" cy="645.5" fill="#F1F1F1" rx="8" ry="8" style="stroke:#181818;stroke-width:0.5;"/><path d="M178.6929,653.5 L178.6929,680.5 M165.6929,661.5 L191.6929,661.5 M178.6929,680.5 L165.6929,695.5 M178.6929,680.5 L191.6929,695.5" fill="none" style="stroke:#181818;stroke-width:0.5;"/><text fill="#000000" font-family="sans-serif" font-size="14" lengthAdjust="spacing" textLength="121.3857" x="118" y="711.5332">Scheduler / System</text></g><g class="entity" data-qualified-name="GMN21" data-source-line="31" id="ent0022"><path d="M774,229.5 L774,247 L697.74,251 L774,255 L774,272.2031 A0,0 0 0 0 774,272.2031 L1172.1714,272.2031 A0,0 0 0 0 1172.1714,272.2031 L1172.1714,239.5 L1162.1714,229.5 L774,229.5 A0,0 0 0 0 774,229.5" fill="#FEFFDD" style="stroke:#181818;stroke-width:0.5;"/><path d="M1162.1714,229.5 L1162.1714,239.5 L1172.1714,239.5 L1162.1714,229.5" fill="#FEFFDD" style="stroke:#181818;stroke-width:0.5;"/><text fill="#000000" font-family="sans-serif" font-size="13" lengthAdjust="spacing" textLength="252.167" x="780" y="247.9951">Templates are associated to aircraft models</text><text fill="#000000" font-family="sans-serif" font-size="13" lengthAdjust="spacing" textLength="377.1714" x="780" y="264.3467">(API accepts model names; use-case resolves to domain entities)</text></g><g class="entity" data-qualified-name="GMN24" data-source-line="36" id="ent0025"><path d="M6,463 L6,489.3516 A0,0 0 0 0 6,489.3516 L280.02,489.3516 L495.67,515.33 L288.02,489.3516 L351.4224,489.3516 A0,0 0 0 0 351.4224,489.3516 L351.4224,473 L341.4224,463 L6,463 A0,0 0 0 0 6,463" fill="#FEFFDD" style="stroke:#181818;stroke-width:0.5;"/><path d="M341.4224,463 L341.4224,473 L351.4224,473 L341.4224,463" fill="#FEFFDD" style="stroke:#181818;stroke-width:0.5;"/><text fill="#000000" font-family="sans-serif" font-size="13" lengthAdjust="spacing" textLength="324.4224" x="12" y="481.4951">Updates enforce optimistic locking using ETag / If-Match</text></g><!--link Manager to UC_CreateTemplate--><g class="link" data-entity-1="ent0001" data-entity-2="ent0005" data-link-type="dependency" data-source-line="19" id="lnk12"><path d="M248.12,251 C312.3,251 404.1,251 478.25,251" fill="none" id="Manager-to-UC_CreateTemplate" style="stroke:#181818;stroke-width:1;"/><polygon fill="#181818" points="483.25,251,474.25,247,478.25,251,474.25,255,483.25,251" style="stroke:#181818;stroke-width:1;stroke-linejoin:miter;stroke-miterlimit:10;"/></g><!--link Manager to UC_CreatePart--><g class="link" data-entity-1="ent0001" data-entity-2="ent0006" data-link-type="dependency" data-source-line="20" id="lnk13"><path d="M240.42,211.89 C293.14,179.4 372.29,133.84 446,104 C469.57,94.46 491.4102,87.7355 515.3102,81.5355" fill="none" id="Manager-to-UC_CreatePart" style="stroke:#181818;stroke-width:1;"/><polygon fill="#181818" points="520.15,80.28,510.4339,78.6681,515.3102,81.5355,512.4428,86.4118,520.15,80.28" style="stroke:#181818;stroke-width:1;stroke-linejoin:miter;stroke-miterlimit:10;"/></g><!--link Technician to UC_CreateRecord--><g class="link" data-entity-1="ent0002" data-entity-2="ent0007" data-link-type="dependency" data-source-line="21" id="lnk14"><path d="M212.7,566.73 C274.57,573.67 404.4012,588.2323 494.8312,598.3823" fill="none" id="Technician-to-UC_CreateRecord" style="stroke:#181818;stroke-width:1;"/><polygon fill="#181818" points="499.8,598.94,491.3023,593.9611,494.8312,598.3823,490.41,601.9112,499.8,598.94" style="stroke:#181818;stroke-width:1;stroke-linejoin:miter;stroke-miterlimit:10;"/></g><!--link Technician to UC_UpdateRecord--><g class="link" data-entity-1="ent0002" data-entity-2="ent0008" data-link-type="dependency" data-source-line="22" id="lnk15"><path d="M212.7,560.08 C272.18,554.86 394.1092,544.1574 484.1792,536.2474" fill="none" id="Technician-to-UC_UpdateRecord" style="stroke:#181818;stroke-width:1;"/><polygon fill="#181818" points="489.16,535.81,479.8446,532.6127,484.1792,536.2474,480.5444,540.582,489.16,535.81" style="stroke:#181818;stroke-width:1;stroke-linejoin:miter;stroke-miterlimit:10;"/></g><!--link Manager to UC_ListRecords--><g class="link" data-entity-1="ent0001" data-entity-2="ent0009" data-link-type="dependency" data-source-line="23" id="lnk16"><path d="M248.17,273.73 C302.82,293.83 379.55,326.68 438,370 C442.3,373.19 441.66,375.86 446,379 C468.98,395.62 492.4626,407.1557 517.7126,417.1757" fill="none" id="Manager-to-UC_ListRecords" style="stroke:#181818;stroke-width:1;"/><polygon fill="#181818" points="522.36,419.02,515.47,411.9824,517.7126,417.1757,512.5192,419.4183,522.36,419.02" style="stroke:#181818;stroke-width:1;stroke-linejoin:miter;stroke-miterlimit:10;"/></g><!--link Scheduler to UC_CreateRecord--><g class="link" data-entity-1="ent0003" data-entity-2="ent0007" data-link-type="dependency" data-source-line="24" id="lnk17"><path d="M239.12,666.26 C310.19,654.64 424.3554,635.9862 503.6854,623.0262" fill="none" id="Scheduler-to-UC_CreateRecord" style="stroke:#181818;stroke-width:1;"/><polygon fill="#181818" points="508.62,622.22,499.0928,619.7234,503.6854,623.0262,500.3827,627.6187,508.62,622.22" style="stroke:#181818;stroke-width:1;stroke-linejoin:miter;stroke-miterlimit:10;"/></g><!--link UC_CreateTemplate to UC_ResolveModel--><g class="link" data-entity-1="ent0005" data-entity-2="ent0011" data-link-type="dependency" data-source-line="26" id="lnk18"><path d="M590.5,226.85 C590.5,211.03 590.5,195.37 590.5,179.16" fill="none" id="UC_CreateTemplate-to-UC_ResolveModel" style="stroke:#181818;stroke-width:1;stroke-dasharray:7,7;"/><polygon fill="#181818" points="590.5,174.16,586.5,183.16,590.5,179.16,594.5,183.16,590.5,174.16" style="stroke:#181818;stroke-width:1;stroke-linejoin:miter;stroke-miterlimit:10;"/><text fill="#000000" font-family="sans-serif" font-size="13" lengthAdjust="spacing" textLength="55.6563" x="551" y="205.9951">&#171;include&#187;</text></g><!--link UC_CreateRecord to UC_ResolveModel--><g class="link" data-entity-1="ent0007" data-entity-2="ent0011" data-link-type="dependency" data-source-line="27" id="lnk19"><path d="M498.52,599.54 C478.91,593.49 459.93,583.95 446,569 C387.16,505.86 402.2,463.85 411,378 C418.82,301.69 397.31,268.27 446,209 C462.08,189.43 480.8828,177.8494 504.2528,168.7194" fill="none" id="UC_CreateRecord-to-UC_ResolveModel" style="stroke:#181818;stroke-width:1;stroke-dasharray:7,7;"/><polygon fill="#181818" points="508.91,166.9,499.0715,166.4492,504.2528,168.7194,501.9826,173.9008,508.91,166.9" style="stroke:#181818;stroke-width:1;stroke-linejoin:miter;stroke-miterlimit:10;"/><text fill="#000000" font-family="sans-serif" font-size="13" lengthAdjust="spacing" textLength="55.6563" x="382" y="392.4951">&#171;include&#187;</text></g><!--link UC_ListRecords to UC_Totals--><g class="link" data-entity-1="ent0009" data-entity-2="ent0010" data-link-type="dependency" data-source-line="28" id="lnk20"><path d="M590.5,414.23 C590.5,398.07 590.5,382.59 590.5,366.63" fill="none" id="UC_ListRecords-to-UC_Totals" style="stroke:#181818;stroke-width:1;stroke-dasharray:7,7;"/><polygon fill="#181818" points="590.5,361.63,586.5,370.63,590.5,366.63,594.5,370.63,590.5,361.63" style="stroke:#181818;stroke-width:1;stroke-linejoin:miter;stroke-miterlimit:10;"/><text fill="#000000" font-family="sans-serif" font-size="13" lengthAdjust="spacing" textLength="53.4917" x="552" y="393.4951">&#171;extend&#187;</text></g><?plantuml-src ZLHDYzim4BthLmmvbEIGzj9JkmJ2Kif2KqAIfSSobIUsM5aoqhXqAVtl7VaZNdaDhG_6dddlpVFCo9Qk3EmXcB9YA4mWpSOxfUAJSGq6hA51_OGbdVdP4gGykjAIKgZP1rWTq3WcXquJ7D09Cgm0u_WymYwaAsUqGTTbfzSHSDOL5Qsb0E_W_1oPwWvu2oir6CbBdjiViKF3-jln_NwpWjyAv6eZQOm2lW-4dAnDd0lLZPLWL-3n_diF6QCv_KIb4VcG2HmnS4vEaN_MFP7seSY9VIodFZP5elOfE3Do6-4DVFLCSMJtc2Ns5_6RUaWOTBLG_oQHW4CeL_XCdFVBCzeecYTgVE2RG1-Vzojw-vDWRu8EACjry0LPM3kiIHHCiHdP0xBBgpzA3Gi3s-rkOIYBsQxhqohboQ4thzDPwsQwBtioRUIIhdhb4Txkvjy57-3kpZXjsu9sEpNJ-2_22qS3VXX7Gj8lcL4XGELaEOPJxA-BIpq-Hi10CeFefIbCHJh-E4whJYRIIDVxumEWrjHmxAEGHXW_fb5lkrc7tdTC0eMlPM6071is53TAR47oD3YpwJ_J6vjjRlyQXNhrGPRDDsng-MQZmNejVw5IAgRxfmkMia4Fr-q1MLTJXRy0?></g></svg>