<svg xmlns="http://www.w3.org/2000/svg" xmlns:xlink="http://www.w3.org/1999/xlink" contentStyleType="text/css" data-diagram-type="SEQUENCE" height="1351px" preserveAspectRatio="none" style="width:1953px;height:1351px;background:#FFFFFF;" version="1.1" viewBox="0 0 1953 1351" width="1953px" zoomAndPan="magnify"><defs/><g><g><title>RouteController</title><rect fill="#FFFFFF" height="391.7969" style="stroke:#181818;stroke-width:1;" width="10" x="431.6436" y="155.5625"/></g><g><title>RouteController</title><rect fill="#FFFFFF" height="649.3906" style="stroke:#181818;stroke-width:1;" width="10" x="431.6436" y="611.625"/></g><g><title>ViewRouteDetailsUseCase</title><rect fill="#FFFFFF" height="215.1953" style="stroke:#181818;stroke-width:1;" width="10" x="748.7393" y="184.6953"/></g><g><title>ListRoutesFromAirportUseCase</title><rect fill="#FFFFFF" height="404.7969" style="stroke:#181818;stroke-width:1;" width="10" x="973.3057" y="640.7578"/></g><g><title>AirportRepository</title><rect fill="#FFFFFF" height="87.3984" style="stroke:#181818;stroke-width:1;" width="10" x="1238.4458" y="669.8906"/></g><g><title>RouteRepository</title><rect fill="#FFFFFF" height="87.3984" style="stroke:#181818;stroke-width:1;" width="10" x="1382.1123" y="213.8281"/></g><g><title>RouteRepository</title><rect fill="#FFFFFF" height="102.5313" style="stroke:#181818;stroke-width:1;" width="10" x="1382.1123" y="898.7578"/></g><g><title>Database</title><rect fill="#FFFFFF" height="29.1328" style="stroke:#181818;stroke-width:1;" width="10" x="1884.8706" y="242.9609"/></g><g><title>Database</title><rect fill="#FFFFFF" height="29.1328" style="stroke:#181818;stroke-width:1;" width="10" x="1884.8706" y="699.0234"/></g><g><title>Database</title><rect fill="#FFFFFF" height="29.1328" style="stroke:#181818;stroke-width:1;" width="10" x="1884.8706" y="943.0234"/></g><rect fill="none" height="224.1328" style="stroke:#000000;stroke-width:1.5;" width="852.6143" x="10" y="316.2266"/><rect fill="none" height="481.7266" style="stroke:#000000;stroke-width:1.5;" width="1926.271" x="10" y="772.2891"/><g><title>ATCC</title><rect fill="#000000" fill-opacity="0.00000" height="1189.7188" width="8" x="37.8398" y="81.2969"/><line style="stroke:#181818;stroke-width:0.5;stroke-dasharray:5,5;" x1="41" x2="41" y1="81.2969" y2="1271.0156"/></g><g><title>RouteController</title><rect fill="#000000" fill-opacity="0.00000" height="1189.7188" width="8" x="432.6436" y="81.2969"/><line style="stroke:#181818;stroke-width:0.5;stroke-dasharray:5,5;" x1="436.4229" x2="436.4229" y1="81.2969" y2="1271.0156"/></g><g><title>ViewRouteDetailsUseCase</title><rect fill="#000000" fill-opacity="0.00000" height="1189.7188" width="8" x="749.7393" y="81.2969"/><line style="stroke:#181818;stroke-width:0.5;stroke-dasharray:5,5;" x1="752.8643" x2="752.8643" y1="81.2969" y2="1271.0156"/></g><g><title>ListRoutesFromAirportUseCase</title><rect fill="#000000" fill-opacity="0.00000" height="1189.7188" width="8" x="974.3057" y="81.2969"/><line style="stroke:#181818;stroke-width:0.5;stroke-dasharray:5,5;" x1="977.6143" x2="977.6143" y1="81.2969" y2="1271.0156"/></g><g><title>AirportRepository</title><rect fill="#000000" fill-opacity="0.00000" height="1189.7188" width="8" x="1239.4458" y="81.2969"/><line style="stroke:#181818;stroke-width:0.5;stroke-dasharray:5,5;" x1="1242.9497" x2="1242.9497" y1="81.2969" y2="1271.0156"/></g><g><title>RouteRepository</title><rect fill="#000000" fill-opacity="0.00000" height="1189.7188" width="8" x="1383.1123" y="81.2969"/><line style="stroke:#181818;stroke-width:0.5;stroke-dasharray:5,5;" x1="1386.9419" x2="1386.9419" y1="81.2969" y2="1271.0156"/></g><g><title>Database</title><rect fill="#000000" fill-opacity="0.00000" height="1189.7188" width="8" x="1885.8706" y="81.2969"/><line style="stroke:#181818;stroke-width:0.5;stroke-dasharray:5,5;" x1="1889.4702" x2="1889.4702" y1="81.2969" y2="1271.0156"/></g><g class="participant participant-head" data-participant="Actor"><text fill="#000000" font-family="sans-serif" font-size="14" lengthAdjust="spacing" textLength="37.6797" x="20" y="77.9951">ATCC</text><ellipse cx="41.8398" cy="13.5" fill="#E2E2F0" rx="8" ry="8" style="stroke:#181818;stroke-width:0.5;"/><path d="M41.8398,21.5 L41.8398,48.5 M28.8398,29.5 L54.8398,29.5 M41.8398,48.5 L28.8398,63.5 M41.8398,48.5 L54.8398,63.5" fill="none" style="stroke:#181818;stroke-width:0.5;"/></g><g class="participant participant-tail" data-participant="Actor"><text fill="#000000" font-family="sans-serif" font-size="14" lengthAdjust="spacing" textLength="37.6797" x="20" y="1283.0107">ATCC</text><ellipse cx="41.8398" cy="1294.8125" fill="#E2E2F0" rx="8" ry="8" style="stroke:#181818;stroke-width:0.5;"/><path d="M41.8398,1302.8125 L41.8398,1329.8125 M28.8398,1310.8125 L54.8398,1310.8125 M41.8398,1329.8125 L28.8398,1344.8125 M41.8398,1329.8125 L54.8398,1344.8125" fill="none" style="stroke:#181818;stroke-width:0.5;"/></g><g class="participant participant-head" data-participant="Ctrl"><rect fill="#E2E2F0" height="30.2969" rx="2.5" ry="2.5" style="stroke:#181818;stroke-width:0.5;" width="124.4414" x="374.4229" y="50"/><text fill="#000000" font-family="sans-serif" font-size="14" lengthAdjust="spacing" textLength="110.4414" x="381.4229" y="69.9951">RouteController</text></g><g class="participant participant-tail" data-participant="Ctrl"><rect fill="#E2E2F0" height="30.2969" rx="2.5" ry="2.5" style="stroke:#181818;stroke-width:0.5;" width="124.4414" x="374.4229" y="1270.0156"/><text fill="#000000" font-family="sans-serif" font-size="14" lengthAdjust="spacing" textLength="110.4414" x="381.4229" y="1290.0107">RouteController</text></g><g class="participant participant-head" data-participant="DetailsUC"><rect fill="#E2E2F0" height="30.2969" rx="2.5" ry="2.5" style="stroke:#181818;stroke-width:0.5;" width="197.75" x="654.8643" y="50"/><text fill="#000000" font-family="sans-serif" font-size="14" lengthAdjust="spacing" textLength="183.75" x="661.8643" y="69.9951">ViewRouteDetailsUseCase</text></g><g class="participant participant-tail" data-participant="DetailsUC"><rect fill="#E2E2F0" height="30.2969" rx="2.5" ry="2.5" style="stroke:#181818;stroke-width:0.5;" width="197.75" x="654.8643" y="1270.0156"/><text fill="#000000" font-family="sans-serif" font-size="14" lengthAdjust="spacing" textLength="183.75" x="661.8643" y="1290.0107">ViewRouteDetailsUseCase</text></g><g class="participant participant-head" data-participant="ListUC"><rect fill="#E2E2F0" height="30.2969" rx="2.5" ry="2.5" style="stroke:#181818;stroke-width:0.5;" width="231.3828" x="862.6143" y="50"/><text fill="#000000" font-family="sans-serif" font-size="14" lengthAdjust="spacing" textLength="217.3828" x="869.6143" y="69.9951">ListRoutesFromAirportUseCase</text></g><g class="participant participant-tail" data-participant="ListUC"><rect fill="#E2E2F0" height="30.2969" rx="2.5" ry="2.5" style="stroke:#181818;stroke-width:0.5;" width="231.3828" x="862.6143" y="1270.0156"/><text fill="#000000" font-family="sans-serif" font-size="14" lengthAdjust="spacing" textLength="217.3828" x="869.6143" y="1290.0107">ListRoutesFromAirportUseCase</text></g><g class="participant participant-head" data-participant="AirportRepo"><rect fill="#E2E2F0" height="30.2969" rx="2.5" ry="2.5" style="stroke:#181818;stroke-width:0.5;" width="136.9922" x="1174.9497" y="50"/><text fill="#000000" font-family="sans-serif" font-size="14" lengthAdjust="spacing" textLength="122.9922" x="1181.9497" y="69.9951">AirportRepository</text></g><g class="participant participant-tail" data-participant="AirportRepo"><rect fill="#E2E2F0" height="30.2969" rx="2.5" ry="2.5" style="stroke:#181818;stroke-width:0.5;" width="136.9922" x="1174.9497" y="1270.0156"/><text fill="#000000" font-family="sans-serif" font-size="14" lengthAdjust="spacing" textLength="122.9922" x="1181.9497" y="1290.0107">AirportRepository</text></g><g class="participant participant-head" data-participant="RouteRepo"><rect fill="#E2E2F0" height="30.2969" rx="2.5" ry="2.5" style="stroke:#181818;stroke-width:0.5;" width="130.3408" x="1321.9419" y="50"/><text fill="#000000" font-family="sans-serif" font-size="14" lengthAdjust="spacing" textLength="116.3408" x="1328.9419" y="69.9951">RouteRepository</text></g><g class="participant participant-tail" data-participant="RouteRepo"><rect fill="#E2E2F0" height="30.2969" rx="2.5" ry="2.5" style="stroke:#181818;stroke-width:0.5;" width="130.3408" x="1321.9419" y="1270.0156"/><text fill="#000000" font-family="sans-serif" font-size="14" lengthAdjust="spacing" textLength="116.3408" x="1328.9419" y="1290.0107">RouteRepository</text></g><g class="participant participant-head" data-participant="DB"><text fill="#000000" font-family="sans-serif" font-size="14" lengthAdjust="spacing" textLength="66.8008" x="1853.4702" y="77.9951">Database</text><path d="M1871.8706,29 C1871.8706,19 1889.8706,19 1889.8706,19 C1889.8706,19 1907.8706,19 1907.8706,29 L1907.8706,55 C1907.8706,65 1889.8706,65 1889.8706,65 C1889.8706,65 1871.8706,65 1871.8706,55 L1871.8706,29" fill="#E2E2F0" style="stroke:#181818;stroke-width:0.5;"/><path d="M1871.8706,29 C1871.8706,39 1889.8706,39 1889.8706,39 C1889.8706,39 1907.8706,39 1907.8706,29" fill="none" style="stroke:#181818;stroke-width:0.5;"/></g><g class="participant participant-tail" data-participant="DB"><text fill="#000000" font-family="sans-serif" font-size="14" lengthAdjust="spacing" textLength="66.8008" x="1853.4702" y="1283.0107">Database</text><path d="M1871.8706,1296.3125 C1871.8706,1286.3125 1889.8706,1286.3125 1889.8706,1286.3125 C1889.8706,1286.3125 1907.8706,1286.3125 1907.8706,1296.3125 L1907.8706,1322.3125 C1907.8706,1332.3125 1889.8706,1332.3125 1889.8706,1332.3125 C1889.8706,1332.3125 1871.8706,1332.3125 1871.8706,1322.3125 L1871.8706,1296.3125" fill="#E2E2F0" style="stroke:#181818;stroke-width:0.5;"/><path d="M1871.8706,1296.3125 C1871.8706,1306.3125 1889.8706,1306.3125 1889.8706,1306.3125 C1889.8706,1306.3125 1907.8706,1306.3125 1907.8706,1296.3125" fill="none" style="stroke:#181818;stroke-width:0.5;"/></g><g><title>RouteController</title><rect fill="#FFFFFF" height="391.7969" style="stroke:#181818;stroke-width:1;" width="10" x="431.6436" y="155.5625"/></g><g><title>RouteController</title><rect fill="#FFFFFF" height="649.3906" style="stroke:#181818;stroke-width:1;" width="10" x="431.6436" y="611.625"/></g><g><title>ViewRouteDetailsUseCase</title><rect fill="#FFFFFF" height="215.1953" style="stroke:#181818;stroke-width:1;" width="10" x="748.7393" y="184.6953"/></g><g><title>ListRoutesFromAirportUseCase</title><rect fill="#FFFFFF" height="404.7969" style="stroke:#181818;stroke-width:1;" width="10" x="973.3057" y="640.7578"/></g><g><title>AirportRepository</title><rect fill="#FFFFFF" height="87.3984" style="stroke:#181818;stroke-width:1;" width="10" x="1238.4458" y="669.8906"/></g><g><title>RouteRepository</title><rect fill="#FFFFFF" height="87.3984" style="stroke:#181818;stroke-width:1;" width="10" x="1382.1123" y="213.8281"/></g><g><title>RouteRepository</title><rect fill="#FFFFFF" height="102.5313" style="stroke:#181818;stroke-width:1;" width="10" x="1382.1123" y="898.7578"/></g><g><title>Database</title><rect fill="#FFFFFF" height="29.1328" style="stroke:#181818;stroke-width:1;" width="10" x="1884.8706" y="242.9609"/></g><g><title>Database</title><rect fill="#FFFFFF" height="29.1328" style="stroke:#181818;stroke-width:1;" width="10" x="1884.8706" y="699.0234"/></g><g><title>Database</title><rect fill="#FFFFFF" height="29.1328" style="stroke:#181818;stroke-width:1;" width="10" x="1884.8706" y="943.0234"/></g><rect fill="#EEEEEE" height="3" style="stroke:#EEEEEE;stroke-width:1;" width="1946.271" x="0" y="111.8633"/><line style="stroke:#000000;stroke-width:1;" x1="0" x2="1946.271" y1="111.8633" y2="111.8633"/><line style="stroke:#000000;stroke-width:1;" x1="0" x2="1946.271" y1="114.8633" y2="114.8633"/><rect fill="#EEEEEE" height="23.1328" style="stroke:#000000;stroke-width:2;" width="341.7549" x="802.2581" y="101.2969"/><text fill="#000000" font-family="sans-serif" font-size="13" font-weight="bold" lengthAdjust="spacing" textLength="323.229" x="808.2581" y="117.3638">View route details by origin and destination</text><g class="message" data-participant-1="Actor" data-participant-2="Ctrl"><polygon fill="#181818" points="419.6436,151.5625,429.6436,155.5625,419.6436,159.5625,423.6436,155.5625" style="stroke:#181818;stroke-width:1;"/><line style="stroke:#181818;stroke-width:1;" x1="41.8398" x2="425.6436" y1="155.5625" y2="155.5625"/><text fill="#000000" font-family="sans-serif" font-size="13" font-weight="bold" lengthAdjust="spacing" textLength="9.0454" x="48.8398" y="150.4966">1</text><text fill="#000000" font-family="sans-serif" font-size="13" lengthAdjust="spacing" textLength="252.0527" x="61.8853" y="150.4966">GET /api/routes/{origin}/{destination}</text></g><g class="message" data-participant-1="Ctrl" data-participant-2="DetailsUC"><polygon fill="#181818" points="736.7393,180.6953,746.7393,184.6953,736.7393,188.6953,740.7393,184.6953" style="stroke:#181818;stroke-width:1;"/><line style="stroke:#181818;stroke-width:1;" x1="441.6436" x2="742.7393" y1="184.6953" y2="184.6953"/><text fill="#000000" font-family="sans-serif" font-size="13" font-weight="bold" lengthAdjust="spacing" textLength="9.0454" x="448.6436" y="179.6294">2</text><text fill="#000000" font-family="sans-serif" font-size="13" lengthAdjust="spacing" textLength="275.0503" x="461.689" y="179.6294">execute(origin: String, destination: String)</text></g><g class="message" data-participant-1="DetailsUC" data-participant-2="RouteRepo"><polygon fill="#181818" points="1370.1123,209.8281,1380.1123,213.8281,1370.1123,217.8281,1374.1123,213.8281" style="stroke:#181818;stroke-width:1;"/><line style="stroke:#181818;stroke-width:1;" x1="758.7393" x2="1376.1123" y1="213.8281" y2="213.8281"/><text fill="#000000" font-family="sans-serif" font-size="13" font-weight="bold" lengthAdjust="spacing" textLength="9.0454" x="765.7393" y="208.7622">3</text><text fill="#000000" font-family="sans-serif" font-size="13" lengthAdjust="spacing" textLength="308.8262" x="778.7847" y="208.7622">findByOriginAndDestination(origin, destination)</text></g><g class="message" data-participant-1="RouteRepo" data-participant-2="DB"><polygon fill="#181818" points="1872.8706,238.9609,1882.8706,242.9609,1872.8706,246.9609,1876.8706,242.9609" style="stroke:#181818;stroke-width:1;"/><line style="stroke:#181818;stroke-width:1;" x1="1392.1123" x2="1878.8706" y1="242.9609" y2="242.9609"/><text fill="#000000" font-family="sans-serif" font-size="13" font-weight="bold" lengthAdjust="spacing" textLength="9.0454" x="1399.1123" y="237.895">4</text><text fill="#000000" font-family="sans-serif" font-size="13" lengthAdjust="spacing" textLength="460.7129" x="1412.1577" y="237.895">SELECT FROM route WHERE origin_code = ? AND destination_code = ?</text></g><g class="message" data-participant-1="DB" data-participant-2="RouteRepo"><polygon fill="#181818" points="1403.1123,268.0938,1393.1123,272.0938,1403.1123,276.0938,1399.1123,272.0938" style="stroke:#181818;stroke-width:1;"/><line style="stroke:#181818;stroke-width:1;stroke-dasharray:2,2;" x1="1397.1123" x2="1888.8706" y1="272.0938" y2="272.0938"/><text fill="#000000" font-family="sans-serif" font-size="13" font-weight="bold" lengthAdjust="spacing" textLength="9.0454" x="1409.1123" y="267.0278">5</text><text fill="#000000" font-family="sans-serif" font-size="13" lengthAdjust="spacing" textLength="80.8057" x="1422.1577" y="267.0278">route record</text></g><g class="message" data-participant-1="RouteRepo" data-participant-2="DetailsUC"><polygon fill="#181818" points="769.7393,297.2266,759.7393,301.2266,769.7393,305.2266,765.7393,301.2266" style="stroke:#181818;stroke-width:1;"/><line style="stroke:#181818;stroke-width:1;stroke-dasharray:2,2;" x1="763.7393" x2="1386.1123" y1="301.2266" y2="301.2266"/><text fill="#000000" font-family="sans-serif" font-size="13" font-weight="bold" lengthAdjust="spacing" textLength="9.0454" x="775.7393" y="296.1606">6</text><text fill="#000000" font-family="sans-serif" font-size="13" lengthAdjust="spacing" textLength="115.0703" x="788.7847" y="296.1606">Optional&lt;Route&gt;</text></g><path d="M10,316.2266 L74.4429,316.2266 L74.4429,323.3594 L64.4429,333.3594 L10,333.3594 L10,316.2266" fill="#EEEEEE" style="stroke:#000000;stroke-width:1.5;"/><rect fill="none" height="224.1328" style="stroke:#000000;stroke-width:1.5;" width="852.6143" x="10" y="316.2266"/><text fill="#000000" font-family="sans-serif" font-size="13" font-weight="bold" lengthAdjust="spacing" textLength="19.4429" x="25" y="329.2935">alt</text><text fill="#000000" font-family="sans-serif" font-size="11" font-weight="bold" lengthAdjust="spacing" textLength="83.2949" x="89.4429" y="328.437">[route found]</text><g class="message" data-participant-1="DetailsUC" data-participant-2="Ctrl"><polygon fill="#181818" points="452.6436,395.8906,442.6436,399.8906,452.6436,403.8906,448.6436,399.8906" style="stroke:#181818;stroke-width:1;"/><line style="stroke:#181818;stroke-width:1;stroke-dasharray:2,2;" x1="446.6436" x2="752.7393" y1="399.8906" y2="399.8906"/><text fill="#000000" font-family="sans-serif" font-size="13" font-weight="bold" lengthAdjust="spacing" textLength="9.0454" x="458.6436" y="372.1255">7</text><text fill="#000000" font-family="sans-serif" font-size="13" lengthAdjust="spacing" textLength="101.3403" x="471.689" y="349.4263">RouteResponse</text><text fill="#000000" font-family="sans-serif" font-size="13" lengthAdjust="spacing" textLength="250.9419" x="471.689" y="364.5591">{ originIataCode, destinationIataCode,</text><text fill="#000000" font-family="sans-serif" font-size="13" lengthAdjust="spacing" textLength="249.5391" x="479.9536" y="379.6919">estimatedFlightTime, minimumRange,</text><text fill="#000000" font-family="sans-serif" font-size="13" lengthAdjust="spacing" textLength="179.1182" x="479.9536" y="394.8247">minimumCapacity, status }</text></g><g class="message" data-participant-1="Ctrl" data-participant-2="Actor"><polygon fill="#181818" points="52.8398,440.1563,42.8398,444.1563,52.8398,448.1563,48.8398,444.1563" style="stroke:#181818;stroke-width:1;"/><line style="stroke:#181818;stroke-width:1;stroke-dasharray:2,2;" x1="46.8398" x2="430.6436" y1="444.1563" y2="444.1563"/><text fill="#000000" font-family="sans-serif" font-size="13" font-weight="bold" lengthAdjust="spacing" textLength="9.0454" x="58.8398" y="431.5239">8</text><text fill="#000000" font-family="sans-serif" font-size="13" lengthAdjust="spacing" textLength="47.7026" x="71.8853" y="423.9575">200 OK</text><text fill="#000000" font-family="sans-serif" font-size="13" lengthAdjust="spacing" textLength="272.2192" x="71.8853" y="439.0903">EntityModel&lt;RouteResponse&gt; with _links</text></g><line style="stroke:#000000;stroke-width:1;stroke-dasharray:2,2;" x1="10" x2="862.6143" y1="453.1563" y2="453.1563"/><text fill="#000000" font-family="sans-serif" font-size="11" font-weight="bold" lengthAdjust="spacing" textLength="107.771" x="15" y="463.3667">[route not found]</text><g class="message" data-participant-1="DetailsUC" data-participant-2="Ctrl"><polygon fill="#181818" points="452.6436,484.0938,442.6436,488.0938,452.6436,492.0938,448.6436,488.0938" style="stroke:#181818;stroke-width:1;"/><line style="stroke:#181818;stroke-width:1;stroke-dasharray:2,2;" x1="446.6436" x2="752.7393" y1="488.0938" y2="488.0938"/><text fill="#000000" font-family="sans-serif" font-size="13" font-weight="bold" lengthAdjust="spacing" textLength="9.0454" x="458.6436" y="483.0278">9</text><text fill="#000000" font-family="sans-serif" font-size="13" lengthAdjust="spacing" textLength="213.6367" x="471.689" y="483.0278">throws RouteNotFoundException</text></g><g class="message" data-participant-1="Ctrl" data-participant-2="Actor"><polygon fill="#181818" points="52.8398,528.3594,42.8398,532.3594,52.8398,536.3594,48.8398,532.3594" style="stroke:#181818;stroke-width:1;"/><line style="stroke:#181818;stroke-width:1;stroke-dasharray:2,2;" x1="46.8398" x2="430.6436" y1="532.3594" y2="532.3594"/><text fill="#000000" font-family="sans-serif" font-size="13" font-weight="bold" lengthAdjust="spacing" textLength="18.0908" x="58.8398" y="519.7271">10</text><text fill="#000000" font-family="sans-serif" font-size="13" lengthAdjust="spacing" textLength="96.0146" x="80.9307" y="512.1606">404 Not Found</text><text fill="#000000" font-family="sans-serif" font-size="13" lengthAdjust="spacing" textLength="259.9365" x="80.9307" y="527.2935">{ message: "Route '...&#8594;...' not found." }</text></g><rect fill="#EEEEEE" height="3" style="stroke:#EEEEEE;stroke-width:1;" width="1946.271" x="0" y="567.9258"/><line style="stroke:#000000;stroke-width:1;" x1="0" x2="1946.271" y1="567.9258" y2="567.9258"/><line style="stroke:#000000;stroke-width:1;" x1="0" x2="1946.271" y1="570.9258" y2="570.9258"/><rect fill="#EEEEEE" height="23.1328" style="stroke:#000000;stroke-width:2;" width="295.7344" x="825.2683" y="557.3594"/><text fill="#000000" font-family="sans-serif" font-size="13" font-weight="bold" lengthAdjust="spacing" textLength="277.2085" x="831.2683" y="573.4263">View all routes from a specific airport</text><g class="message" data-participant-1="Actor" data-participant-2="Ctrl"><polygon fill="#181818" points="419.6436,607.625,429.6436,611.625,419.6436,615.625,423.6436,611.625" style="stroke:#181818;stroke-width:1;"/><line style="stroke:#181818;stroke-width:1;" x1="41.8398" x2="425.6436" y1="611.625" y2="611.625"/><text fill="#000000" font-family="sans-serif" font-size="13" font-weight="bold" lengthAdjust="spacing" textLength="18.0908" x="48.8398" y="606.5591">11</text><text fill="#000000" font-family="sans-serif" font-size="13" lengthAdjust="spacing" textLength="348.4609" x="70.9307" y="606.5591">GET /api/routes/airport/{iataCode}?page=0&amp;size=20</text></g><g class="message" data-participant-1="Ctrl" data-participant-2="ListUC"><polygon fill="#181818" points="961.3057,636.7578,971.3057,640.7578,961.3057,644.7578,965.3057,640.7578" style="stroke:#181818;stroke-width:1;"/><line style="stroke:#181818;stroke-width:1;" x1="441.6436" x2="967.3057" y1="640.7578" y2="640.7578"/><text fill="#000000" font-family="sans-serif" font-size="13" font-weight="bold" lengthAdjust="spacing" textLength="18.0908" x="448.6436" y="635.6919">12</text><text fill="#000000" font-family="sans-serif" font-size="13" lengthAdjust="spacing" textLength="304.5034" x="470.7344" y="635.6919">execute(iataCode: String, pageable: Pageable)</text></g><g class="message" data-participant-1="ListUC" data-participant-2="AirportRepo"><polygon fill="#181818" points="1226.4458,665.8906,1236.4458,669.8906,1226.4458,673.8906,1230.4458,669.8906" style="stroke:#181818;stroke-width:1;"/><line style="stroke:#181818;stroke-width:1;" x1="983.3057" x2="1232.4458" y1="669.8906" y2="669.8906"/><text fill="#000000" font-family="sans-serif" font-size="13" font-weight="bold" lengthAdjust="spacing" textLength="18.0908" x="990.3057" y="664.8247">13</text><text fill="#000000" font-family="sans-serif" font-size="13" lengthAdjust="spacing" textLength="214.0493" x="1012.3965" y="664.8247">existsByIataCodeCode(iataCode)</text></g><g class="message" data-participant-1="AirportRepo" data-participant-2="DB"><polygon fill="#181818" points="1872.8706,695.0234,1882.8706,699.0234,1872.8706,703.0234,1876.8706,699.0234" style="stroke:#181818;stroke-width:1;"/><line style="stroke:#181818;stroke-width:1;" x1="1248.4458" x2="1878.8706" y1="699.0234" y2="699.0234"/><text fill="#000000" font-family="sans-serif" font-size="13" font-weight="bold" lengthAdjust="spacing" textLength="18.0908" x="1255.4458" y="693.9575">14</text><text fill="#000000" font-family="sans-serif" font-size="13" lengthAdjust="spacing" textLength="308.0391" x="1277.5366" y="693.9575">SELECT EXISTS(FROM airport WHERE code = ?)</text></g><g class="message" data-participant-1="DB" data-participant-2="AirportRepo"><polygon fill="#181818" points="1259.4458,724.1563,1249.4458,728.1563,1259.4458,732.1563,1255.4458,728.1563" style="stroke:#181818;stroke-width:1;"/><line style="stroke:#181818;stroke-width:1;stroke-dasharray:2,2;" x1="1253.4458" x2="1888.8706" y1="728.1563" y2="728.1563"/><text fill="#000000" font-family="sans-serif" font-size="13" font-weight="bold" lengthAdjust="spacing" textLength="18.0908" x="1265.4458" y="723.0903">15</text><text fill="#000000" font-family="sans-serif" font-size="13" lengthAdjust="spacing" textLength="51.9746" x="1287.5366" y="723.0903">boolean</text></g><g class="message" data-participant-1="AirportRepo" data-participant-2="ListUC"><polygon fill="#181818" points="994.3057,753.2891,984.3057,757.2891,994.3057,761.2891,990.3057,757.2891" style="stroke:#181818;stroke-width:1;"/><line style="stroke:#181818;stroke-width:1;stroke-dasharray:2,2;" x1="988.3057" x2="1242.4458" y1="757.2891" y2="757.2891"/><text fill="#000000" font-family="sans-serif" font-size="13" font-weight="bold" lengthAdjust="spacing" textLength="18.0908" x="1000.3057" y="752.2231">16</text><text fill="#000000" font-family="sans-serif" font-size="13" lengthAdjust="spacing" textLength="51.9746" x="1022.3965" y="752.2231">boolean</text></g><path d="M10,772.2891 L74.4429,772.2891 L74.4429,779.4219 L64.4429,789.4219 L10,789.4219 L10,772.2891" fill="#EEEEEE" style="stroke:#000000;stroke-width:1.5;"/><rect fill="none" height="481.7266" style="stroke:#000000;stroke-width:1.5;" width="1926.271" x="10" y="772.2891"/><text fill="#000000" font-family="sans-serif" font-size="13" font-weight="bold" lengthAdjust="spacing" textLength="19.4429" x="25" y="785.356">alt</text><text fill="#000000" font-family="sans-serif" font-size="11" font-weight="bold" lengthAdjust="spacing" textLength="116.9717" x="89.4429" y="784.4995">[airport not found]</text><g class="message" data-participant-1="ListUC" data-participant-2="Ctrl"><polygon fill="#181818" points="452.6436,806.5547,442.6436,810.5547,452.6436,814.5547,448.6436,810.5547" style="stroke:#181818;stroke-width:1;"/><line style="stroke:#181818;stroke-width:1;stroke-dasharray:2,2;" x1="446.6436" x2="972.3057" y1="810.5547" y2="810.5547"/><text fill="#000000" font-family="sans-serif" font-size="13" font-weight="bold" lengthAdjust="spacing" textLength="18.0908" x="458.6436" y="805.4888">17</text><text fill="#000000" font-family="sans-serif" font-size="13" lengthAdjust="spacing" textLength="219.813" x="480.7344" y="805.4888">throws AirportNotFoundException</text></g><g class="message" data-participant-1="Ctrl" data-participant-2="Actor"><polygon fill="#181818" points="52.8398,850.8203,42.8398,854.8203,52.8398,858.8203,48.8398,854.8203" style="stroke:#181818;stroke-width:1;"/><line style="stroke:#181818;stroke-width:1;stroke-dasharray:2,2;" x1="46.8398" x2="430.6436" y1="854.8203" y2="854.8203"/><text fill="#000000" font-family="sans-serif" font-size="13" font-weight="bold" lengthAdjust="spacing" textLength="18.0908" x="58.8398" y="842.188">18</text><text fill="#000000" font-family="sans-serif" font-size="13" lengthAdjust="spacing" textLength="96.0146" x="80.9307" y="834.6216">404 Not Found</text><text fill="#000000" font-family="sans-serif" font-size="13" lengthAdjust="spacing" textLength="343.7129" x="80.9307" y="849.7544">{ message: "Airport with IATA code '...' not found." }</text></g><line style="stroke:#000000;stroke-width:1;stroke-dasharray:2,2;" x1="10" x2="1936.271" y1="863.8203" y2="863.8203"/><text fill="#000000" font-family="sans-serif" font-size="11" font-weight="bold" lengthAdjust="spacing" textLength="92.4956" x="15" y="874.0308">[airport found]</text><g class="message" data-participant-1="ListUC" data-participant-2="RouteRepo"><polygon fill="#181818" points="1370.1123,894.7578,1380.1123,898.7578,1370.1123,902.7578,1374.1123,898.7578" style="stroke:#181818;stroke-width:1;"/><line style="stroke:#181818;stroke-width:1;" x1="983.3057" x2="1376.1123" y1="898.7578" y2="898.7578"/><text fill="#000000" font-family="sans-serif" font-size="13" font-weight="bold" lengthAdjust="spacing" textLength="18.0908" x="990.3057" y="893.6919">19</text><text fill="#000000" font-family="sans-serif" font-size="13" lengthAdjust="spacing" textLength="217.2104" x="1012.3965" y="893.6919">findByOrigin(iataCode, pageable)</text></g><g class="message" data-participant-1="RouteRepo" data-participant-2="DB"><polygon fill="#181818" points="1872.8706,939.0234,1882.8706,943.0234,1872.8706,947.0234,1876.8706,943.0234" style="stroke:#181818;stroke-width:1;"/><line style="stroke:#181818;stroke-width:1;" x1="1392.1123" x2="1878.8706" y1="943.0234" y2="943.0234"/><text fill="#000000" font-family="sans-serif" font-size="13" font-weight="bold" lengthAdjust="spacing" textLength="18.0908" x="1399.1123" y="930.3911">20</text><text fill="#000000" font-family="sans-serif" font-size="13" lengthAdjust="spacing" textLength="318.2144" x="1421.2031" y="922.8247">SELECT FROM route WHERE origin_iata_code = ?</text><text fill="#000000" font-family="sans-serif" font-size="13" lengthAdjust="spacing" textLength="120.0024" x="1421.2031" y="937.9575">(LIMIT ? OFFSET ?)</text></g><g class="message" data-participant-1="DB" data-participant-2="RouteRepo"><polygon fill="#181818" points="1403.1123,968.1563,1393.1123,972.1563,1403.1123,976.1563,1399.1123,972.1563" style="stroke:#181818;stroke-width:1;"/><line style="stroke:#181818;stroke-width:1;stroke-dasharray:2,2;" x1="1397.1123" x2="1888.8706" y1="972.1563" y2="972.1563"/><text fill="#000000" font-family="sans-serif" font-size="13" font-weight="bold" lengthAdjust="spacing" textLength="18.0908" x="1409.1123" y="967.0903">21</text><text fill="#000000" font-family="sans-serif" font-size="13" lengthAdjust="spacing" textLength="177.271" x="1431.2031" y="967.0903">route records + total count</text></g><g class="message" data-participant-1="RouteRepo" data-participant-2="ListUC"><polygon fill="#181818" points="994.3057,997.2891,984.3057,1001.2891,994.3057,1005.2891,990.3057,1001.2891" style="stroke:#181818;stroke-width:1;"/><line style="stroke:#181818;stroke-width:1;stroke-dasharray:2,2;" x1="988.3057" x2="1386.1123" y1="1001.2891" y2="1001.2891"/><text fill="#000000" font-family="sans-serif" font-size="13" font-weight="bold" lengthAdjust="spacing" textLength="18.0908" x="1000.3057" y="996.2231">22</text><text fill="#000000" font-family="sans-serif" font-size="13" lengthAdjust="spacing" textLength="92.1616" x="1022.3965" y="996.2231">Page&lt;Route&gt;</text></g><g class="message" data-participant-1="ListUC" data-participant-2="Ctrl"><polygon fill="#181818" points="452.6436,1041.5547,442.6436,1045.5547,452.6436,1049.5547,448.6436,1045.5547" style="stroke:#181818;stroke-width:1;"/><line style="stroke:#181818;stroke-width:1;stroke-dasharray:2,2;" x1="446.6436" x2="977.3057" y1="1045.5547" y2="1045.5547"/><text fill="#000000" font-family="sans-serif" font-size="13" font-weight="bold" lengthAdjust="spacing" textLength="18.0908" x="458.6436" y="1032.9224">23</text><text fill="#000000" font-family="sans-serif" font-size="13" lengthAdjust="spacing" textLength="216.2646" x="480.7344" y="1025.356">page.map(RouteResponse::from)</text><text fill="#000000" font-family="sans-serif" font-size="13" lengthAdjust="spacing" textLength="170.2061" x="480.7344" y="1040.4888">&#8594; Page&lt;RouteResponse&gt;</text></g><path d="M446,1058.5547 L446,1128.5547 L768,1128.5547 L768,1068.5547 L758,1058.5547 L446,1058.5547" fill="#FEFFDD" style="stroke:#181818;stroke-width:0.5;"/><path d="M758,1058.5547 L758,1068.5547 L768,1068.5547 L758,1058.5547" fill="#FEFFDD" style="stroke:#181818;stroke-width:0.5;"/><text fill="#000000" font-family="sans-serif" font-size="13" lengthAdjust="spacing" textLength="218.9751" x="452" y="1075.6216">PagedResourcesAssembler wraps</text><text fill="#000000" font-family="sans-serif" font-size="13" lengthAdjust="spacing" textLength="184.2153" x="452" y="1090.7544">Page&lt;RouteResponse&gt; into</text><text fill="#000000" font-family="sans-serif" font-size="13" lengthAdjust="spacing" textLength="301.2344" x="452" y="1105.8872">PagedModel&lt;EntityModel&lt;RouteResponse&gt;&gt;</text><text fill="#000000" font-family="sans-serif" font-size="13" lengthAdjust="spacing" textLength="217.2993" x="452" y="1121.02">adding _links and page metadata</text><g class="message" data-participant-1="Ctrl" data-participant-2="Actor"><polygon fill="#181818" points="52.8398,1242.0156,42.8398,1246.0156,52.8398,1250.0156,48.8398,1246.0156" style="stroke:#181818;stroke-width:1;"/><line style="stroke:#181818;stroke-width:1;stroke-dasharray:2,2;" x1="46.8398" x2="430.6436" y1="1246.0156" y2="1246.0156"/><text fill="#000000" font-family="sans-serif" font-size="13" font-weight="bold" lengthAdjust="spacing" textLength="18.0908" x="58.8398" y="1195.5513">24</text><text fill="#000000" font-family="sans-serif" font-size="13" lengthAdjust="spacing" textLength="130.8252" x="80.9307" y="1150.1528">200 OK (HAL+JSON)</text><text fill="#000000" font-family="sans-serif" font-size="13" lengthAdjust="spacing" textLength="8.271" x="80.9307" y="1165.2856">{</text><text fill="#000000" font-family="sans-serif" font-size="13" lengthAdjust="spacing" textLength="288.9644" x="89.1953" y="1180.4185">"_embedded": { "routeResponseList": [...] },</text><text fill="#000000" font-family="sans-serif" font-size="13" lengthAdjust="spacing" textLength="219.356" x="89.1953" y="1195.5513">"_links": { "self", "next", "prev" },</text><text fill="#000000" font-family="sans-serif" font-size="13" lengthAdjust="spacing" textLength="153.6831" x="89.1953" y="1210.6841">"page": { number, size,</text><text fill="#000000" font-family="sans-serif" font-size="13" lengthAdjust="spacing" textLength="179.5435" x="97.46" y="1225.8169">totalElements, totalPages }</text><text fill="#000000" font-family="sans-serif" font-size="13" lengthAdjust="spacing" textLength="8.271" x="80.9307" y="1240.9497">}</text></g><!--SRC=[fLRRRY9747sVhoZDGuor6D1gdr2m1HYoJcop0dAHGcGrCmrkPQPxrDsiJH2l-m7vn7n9gYypqqDmBeebsz1pwjIfwge3PAS5t-LhAYEIQ24X7Yx7unY8Wg5v7nL4QfQmWd0DyLpiD1qBhgN8CYejRAnbraJzmEYBHTvIJLYclbTqJ1IrwF9et0ovPqhR43ML8XyoMGYfmpW3E0toi3ajX6AeTUzarwTdn9-0gxCe9PgiCHl4j_wLqpkAei40J4aW3HXILm6izo0asp8EXATugZJZH3F1OJ28RE_Wwjfs1_hmpMG9NLAmhkLGtOCBFNOFGU3HN07xJ329RMfaWv6aQXeoqLUQ84NB4VHXeINZstOee3oyhFdgjaSr6J9NzIFpXl5qj9zPtY5FRsj2dwoH922lcrZJ6TKZ95rCxYVZ9KpdimVVlny_JkOJtxgdHAGK1d03myVRaBrw49GmYf3nwaIquvGq4JADKXgY0p4dFPmL9WV9lhQGwp2khYKYcVRq6x7ZQGG1nrLzjJv25O8hkk87NzeTJj4OYsWqhJfSSG1pd6FET9gnxRDUiXp1EUCit-LpmhSEvG_6f209q_isA4tqJi4HzOJrLXSCJfXHwAQm3-zxFPXzj-8Jhf7Y0GNuqalPr_32z3CyPOp_gYAQuHguohdGVr-zVfRYnU_Hez1JWvsy9jHs-9oM3xqFW42mIDEkd2f5jhJl5nGkEftE7rz-nxyNTVfEZ0LJb17UbLkISZj9bZdH2ZRe8K105JHX6vO0SPRmRnRJGxi7vg_gU5EWka7lAyL-euFtlRTsr1bKiA0bGRsYXeYiCppvv5y5I-GDBl8yfcEraLbQVA16-tA4p6-L8-09xIzaE5d8oKztY-MYPVUoR8_Rp7BpBi-jNbFJMeYC4dwoTusiOMVEm4ErTk5ABU7WbItvozJvwFyxTvx6xS3TS3bqFRWuDu9cDKgDf_hUjjFgekeXkCJ0Cwu3y9yzr71NVhdYhVkxXxibMkfiEbtWTDyqCk7z0Fo3Zofu1rfeac4VTboV6CsegJ6yO3FMfQSsWW9NFNUTfYUTd1IjXYdr-sQFBrSStI2WhZohcQBS7p0tXfKOImMnSLiA-6COKWmMEvbGDLIAvdWD4buaALI5EFL5nhMemvrrlcsZrnPAqXJttRkf_NPW2iI1qyHyoq0CEfcL6Rtjrj3wEBn_z-rYzeWTE9XFWlW95TCqfMdSXmF4CanjoiVZdt5cVu5Zs-6j00TMDDl4ROWvVTNcVo7fvxW46daMvhu9ucSCUfrz16uG9XdDATUgxTwQNk0dq8gVz-G_0G00]--></g></svg>