<?plantuml 1.2026.1?><svg xmlns="http://www.w3.org/2000/svg" xmlns:xlink="http://www.w3.org/1999/xlink" contentStyleType="text/css" data-diagram-type="SEQUENCE" height="1059px" preserveAspectRatio="none" style="width:1747px;height:1059px;background:#FFFFFF;" version="1.1" viewBox="0 0 1747 1059" width="1747px" zoomAndPan="magnify"><defs/><g><g><title>RouteController</title><rect fill="#FFFFFF" height="316.1328" style="stroke:#181818;stroke-width:1;" width="10" x="416.0283" y="155.5625"/></g><g><title>RouteController</title><rect fill="#FFFFFF" height="432.6641" style="stroke:#181818;stroke-width:1;" width="10" x="416.0283" y="535.9609"/></g><g><title>ViewRouteDetailsUseCase</title><rect fill="#FFFFFF" height="287" style="stroke:#181818;stroke-width:1;" width="10" x="676.7104" y="184.6953"/></g><g><title>ListRoutesFromAirportUseCase</title><rect fill="#FFFFFF" height="403.5313" style="stroke:#181818;stroke-width:1;" width="10" x="901.2769" y="565.0938"/></g><g><title>AirportRepository</title><rect fill="#FFFFFF" height="87.3984" style="stroke:#181818;stroke-width:1;" width="10" x="1166.417" y="594.2266"/></g><g><title>RouteRepository</title><rect fill="#FFFFFF" height="87.3984" style="stroke:#181818;stroke-width:1;" width="10" x="1310.0835" y="213.8281"/></g><g><title>RouteRepository</title><rect fill="#FFFFFF" height="87.3984" style="stroke:#181818;stroke-width:1;" width="10" x="1310.0835" y="734.8906"/></g><g><title>Database</title><rect fill="#FFFFFF" height="29.1328" style="stroke:#181818;stroke-width:1;" width="10" x="1679.3887" y="242.9609"/></g><g><title>Database</title><rect fill="#FFFFFF" height="29.1328" style="stroke:#181818;stroke-width:1;" width="10" x="1679.3887" y="623.3594"/></g><g><title>Database</title><rect fill="#FFFFFF" height="29.1328" style="stroke:#181818;stroke-width:1;" width="10" x="1679.3887" y="764.0234"/></g><rect fill="none" height="148.4688" style="stroke:#000000;stroke-width:1.5;" width="780.5854" x="10" y="316.2266"/><rect fill="none" height="265" style="stroke:#000000;stroke-width:1.5;" width="1720.7891" x="10" y="696.625"/><g class="participant-lifeline" data-entity-uid="part1" data-qualified-name="Actor" id="part1-lifeline"><g><title>ATCC</title><rect fill="#000000" fill-opacity="0.00000" height="897.3281" width="8" x="37.8398" y="81.2969"/><line style="stroke:#181818;stroke-width:0.5;stroke-dasharray:5,5;" x1="41" x2="41" y1="81.2969" y2="978.625"/></g></g><g class="participant-lifeline" data-entity-uid="part2" data-qualified-name="Ctrl" id="part2-lifeline"><g><title>RouteController</title><rect fill="#000000" fill-opacity="0.00000" height="897.3281" width="8" x="417.0283" y="81.2969"/><line style="stroke:#181818;stroke-width:0.5;stroke-dasharray:5,5;" x1="420.8076" x2="420.8076" y1="81.2969" y2="978.625"/></g></g><g class="participant-lifeline" data-entity-uid="part3" data-qualified-name="DetailsUC" id="part3-lifeline"><g><title>ViewRouteDetailsUseCase</title><rect fill="#000000" fill-opacity="0.00000" height="897.3281" width="8" x="677.7104" y="81.2969"/><line style="stroke:#181818;stroke-width:0.5;stroke-dasharray:5,5;" x1="680.8354" x2="680.8354" y1="81.2969" y2="978.625"/></g></g><g class="participant-lifeline" data-entity-uid="part4" data-qualified-name="ListUC" id="part4-lifeline"><g><title>ListRoutesFromAirportUseCase</title><rect fill="#000000" fill-opacity="0.00000" height="897.3281" width="8" x="902.2769" y="81.2969"/><line style="stroke:#181818;stroke-width:0.5;stroke-dasharray:5,5;" x1="905.5854" x2="905.5854" y1="81.2969" y2="978.625"/></g></g><g class="participant-lifeline" data-entity-uid="part5" data-qualified-name="AirportRepo" id="part5-lifeline"><g><title>AirportRepository</title><rect fill="#000000" fill-opacity="0.00000" height="897.3281" width="8" x="1167.417" y="81.2969"/><line style="stroke:#181818;stroke-width:0.5;stroke-dasharray:5,5;" x1="1170.9209" x2="1170.9209" y1="81.2969" y2="978.625"/></g></g><g class="participant-lifeline" data-entity-uid="part6" data-qualified-name="RouteRepo" id="part6-lifeline"><g><title>RouteRepository</title><rect fill="#000000" fill-opacity="0.00000" height="897.3281" width="8" x="1311.0835" y="81.2969"/><line style="stroke:#181818;stroke-width:0.5;stroke-dasharray:5,5;" x1="1314.9131" x2="1314.9131" y1="81.2969" y2="978.625"/></g></g><g class="participant-lifeline" data-entity-uid="part7" data-qualified-name="DB" id="part7-lifeline"><g><title>Database</title><rect fill="#000000" fill-opacity="0.00000" height="897.3281" width="8" x="1680.3887" y="81.2969"/><line style="stroke:#181818;stroke-width:0.5;stroke-dasharray:5,5;" x1="1683.9883" x2="1683.9883" y1="81.2969" y2="978.625"/></g></g><g class="participant participant-head" data-entity-uid="part1" data-qualified-name="Actor" id="part1-head"><text fill="#000000" font-family="sans-serif" font-size="14" lengthAdjust="spacing" textLength="37.6797" x="20" y="77.9951">ATCC</text><ellipse cx="41.8398" cy="13.5" fill="#E2E2F0" rx="8" ry="8" style="stroke:#181818;stroke-width:0.5;"/><path d="M41.8398,21.5 L41.8398,48.5 M28.8398,29.5 L54.8398,29.5 M41.8398,48.5 L28.8398,63.5 M41.8398,48.5 L54.8398,63.5" fill="none" style="stroke:#181818;stroke-width:0.5;"/></g><g class="participant participant-tail" data-entity-uid="part1" data-qualified-name="Actor" id="part1-tail"><text fill="#000000" font-family="sans-serif" font-size="14" lengthAdjust="spacing" textLength="37.6797" x="20" y="990.6201">ATCC</text><ellipse cx="41.8398" cy="1002.4219" fill="#E2E2F0" rx="8" ry="8" style="stroke:#181818;stroke-width:0.5;"/><path d="M41.8398,1010.4219 L41.8398,1037.4219 M28.8398,1018.4219 L54.8398,1018.4219 M41.8398,1037.4219 L28.8398,1052.4219 M41.8398,1037.4219 L54.8398,1052.4219" fill="none" style="stroke:#181818;stroke-width:0.5;"/></g><g class="participant participant-head" data-entity-uid="part2" data-qualified-name="Ctrl" id="part2-head"><rect fill="#E2E2F0" height="30.2969" rx="2.5" ry="2.5" style="stroke:#181818;stroke-width:0.5;" width="124.4414" x="358.8076" y="50"/><text fill="#000000" font-family="sans-serif" font-size="14" lengthAdjust="spacing" textLength="110.4414" x="365.8076" y="69.9951">RouteController</text></g><g class="participant participant-tail" data-entity-uid="part2" data-qualified-name="Ctrl" id="part2-tail"><rect fill="#E2E2F0" height="30.2969" rx="2.5" ry="2.5" style="stroke:#181818;stroke-width:0.5;" width="124.4414" x="358.8076" y="977.625"/><text fill="#000000" font-family="sans-serif" font-size="14" lengthAdjust="spacing" textLength="110.4414" x="365.8076" y="997.6201">RouteController</text></g><g class="participant participant-head" data-entity-uid="part3" data-qualified-name="DetailsUC" id="part3-head"><rect fill="#E2E2F0" height="30.2969" rx="2.5" ry="2.5" style="stroke:#181818;stroke-width:0.5;" width="197.75" x="582.8354" y="50"/><text fill="#000000" font-family="sans-serif" font-size="14" lengthAdjust="spacing" textLength="183.75" x="589.8354" y="69.9951">ViewRouteDetailsUseCase</text></g><g class="participant participant-tail" data-entity-uid="part3" data-qualified-name="DetailsUC" id="part3-tail"><rect fill="#E2E2F0" height="30.2969" rx="2.5" ry="2.5" style="stroke:#181818;stroke-width:0.5;" width="197.75" x="582.8354" y="977.625"/><text fill="#000000" font-family="sans-serif" font-size="14" lengthAdjust="spacing" textLength="183.75" x="589.8354" y="997.6201">ViewRouteDetailsUseCase</text></g><g class="participant participant-head" data-entity-uid="part4" data-qualified-name="ListUC" id="part4-head"><rect fill="#E2E2F0" height="30.2969" rx="2.5" ry="2.5" style="stroke:#181818;stroke-width:0.5;" width="231.3828" x="790.5854" y="50"/><text fill="#000000" font-family="sans-serif" font-size="14" lengthAdjust="spacing" textLength="217.3828" x="797.5854" y="69.9951">ListRoutesFromAirportUseCase</text></g><g class="participant participant-tail" data-entity-uid="part4" data-qualified-name="ListUC" id="part4-tail"><rect fill="#E2E2F0" height="30.2969" rx="2.5" ry="2.5" style="stroke:#181818;stroke-width:0.5;" width="231.3828" x="790.5854" y="977.625"/><text fill="#000000" font-family="sans-serif" font-size="14" lengthAdjust="spacing" textLength="217.3828" x="797.5854" y="997.6201">ListRoutesFromAirportUseCase</text></g><g class="participant participant-head" data-entity-uid="part5" data-qualified-name="AirportRepo" id="part5-head"><rect fill="#E2E2F0" height="30.2969" rx="2.5" ry="2.5" style="stroke:#181818;stroke-width:0.5;" width="136.9922" x="1102.9209" y="50"/><text fill="#000000" font-family="sans-serif" font-size="14" lengthAdjust="spacing" textLength="122.9922" x="1109.9209" y="69.9951">AirportRepository</text></g><g class="participant participant-tail" data-entity-uid="part5" data-qualified-name="AirportRepo" id="part5-tail"><rect fill="#E2E2F0" height="30.2969" rx="2.5" ry="2.5" style="stroke:#181818;stroke-width:0.5;" width="136.9922" x="1102.9209" y="977.625"/><text fill="#000000" font-family="sans-serif" font-size="14" lengthAdjust="spacing" textLength="122.9922" x="1109.9209" y="997.6201">AirportRepository</text></g><g class="participant participant-head" data-entity-uid="part6" data-qualified-name="RouteRepo" id="part6-head"><rect fill="#E2E2F0" height="30.2969" rx="2.5" ry="2.5" style="stroke:#181818;stroke-width:0.5;" width="130.3408" x="1249.9131" y="50"/><text fill="#000000" font-family="sans-serif" font-size="14" lengthAdjust="spacing" textLength="116.3408" x="1256.9131" y="69.9951">RouteRepository</text></g><g class="participant participant-tail" data-entity-uid="part6" data-qualified-name="RouteRepo" id="part6-tail"><rect fill="#E2E2F0" height="30.2969" rx="2.5" ry="2.5" style="stroke:#181818;stroke-width:0.5;" width="130.3408" x="1249.9131" y="977.625"/><text fill="#000000" font-family="sans-serif" font-size="14" lengthAdjust="spacing" textLength="116.3408" x="1256.9131" y="997.6201">RouteRepository</text></g><g class="participant participant-head" data-entity-uid="part7" data-qualified-name="DB" id="part7-head"><text fill="#000000" font-family="sans-serif" font-size="14" lengthAdjust="spacing" textLength="66.8008" x="1647.9883" y="77.9951">Database</text><path d="M1666.3887,29 C1666.3887,19 1684.3887,19 1684.3887,19 C1684.3887,19 1702.3887,19 1702.3887,29 L1702.3887,55 C1702.3887,65 1684.3887,65 1684.3887,65 C1684.3887,65 1666.3887,65 1666.3887,55 L1666.3887,29" fill="#E2E2F0" style="stroke:#181818;stroke-width:0.5;"/><path d="M1666.3887,29 C1666.3887,39 1684.3887,39 1684.3887,39 C1684.3887,39 1702.3887,39 1702.3887,29" fill="none" style="stroke:#181818;stroke-width:0.5;"/></g><g class="participant participant-tail" data-entity-uid="part7" data-qualified-name="DB" id="part7-tail"><text fill="#000000" font-family="sans-serif" font-size="14" lengthAdjust="spacing" textLength="66.8008" x="1647.9883" y="990.6201">Database</text><path d="M1666.3887,1003.9219 C1666.3887,993.9219 1684.3887,993.9219 1684.3887,993.9219 C1684.3887,993.9219 1702.3887,993.9219 1702.3887,1003.9219 L1702.3887,1029.9219 C1702.3887,1039.9219 1684.3887,1039.9219 1684.3887,1039.9219 C1684.3887,1039.9219 1666.3887,1039.9219 1666.3887,1029.9219 L1666.3887,1003.9219" fill="#E2E2F0" style="stroke:#181818;stroke-width:0.5;"/><path d="M1666.3887,1003.9219 C1666.3887,1013.9219 1684.3887,1013.9219 1684.3887,1013.9219 C1684.3887,1013.9219 1702.3887,1013.9219 1702.3887,1003.9219" fill="none" style="stroke:#181818;stroke-width:0.5;"/></g><g><title>RouteController</title><rect fill="#FFFFFF" height="316.1328" style="stroke:#181818;stroke-width:1;" width="10" x="416.0283" y="155.5625"/></g><g><title>RouteController</title><rect fill="#FFFFFF" height="432.6641" style="stroke:#181818;stroke-width:1;" width="10" x="416.0283" y="535.9609"/></g><g><title>ViewRouteDetailsUseCase</title><rect fill="#FFFFFF" height="287" style="stroke:#181818;stroke-width:1;" width="10" x="676.7104" y="184.6953"/></g><g><title>ListRoutesFromAirportUseCase</title><rect fill="#FFFFFF" height="403.5313" style="stroke:#181818;stroke-width:1;" width="10" x="901.2769" y="565.0938"/></g><g><title>AirportRepository</title><rect fill="#FFFFFF" height="87.3984" style="stroke:#181818;stroke-width:1;" width="10" x="1166.417" y="594.2266"/></g><g><title>RouteRepository</title><rect fill="#FFFFFF" height="87.3984" style="stroke:#181818;stroke-width:1;" width="10" x="1310.0835" y="213.8281"/></g><g><title>RouteRepository</title><rect fill="#FFFFFF" height="87.3984" style="stroke:#181818;stroke-width:1;" width="10" x="1310.0835" y="734.8906"/></g><g><title>Database</title><rect fill="#FFFFFF" height="29.1328" style="stroke:#181818;stroke-width:1;" width="10" x="1679.3887" y="242.9609"/></g><g><title>Database</title><rect fill="#FFFFFF" height="29.1328" style="stroke:#181818;stroke-width:1;" width="10" x="1679.3887" y="623.3594"/></g><g><title>Database</title><rect fill="#FFFFFF" height="29.1328" style="stroke:#181818;stroke-width:1;" width="10" x="1679.3887" y="764.0234"/></g><rect fill="#EEEEEE" height="3" style="stroke:#EEEEEE;stroke-width:1;" width="1740.7891" x="0" y="111.8633"/><line style="stroke:#000000;stroke-width:1;" x1="0" x2="1740.7891" y1="111.8633" y2="111.8633"/><line style="stroke:#000000;stroke-width:1;" x1="0" x2="1740.7891" y1="114.8633" y2="114.8633"/><rect fill="#EEEEEE" height="23.1328" style="stroke:#000000;stroke-width:2;" width="150.6143" x="795.0874" y="101.2969"/><text fill="#000000" font-family="sans-serif" font-size="13" font-weight="bold" lengthAdjust="spacing" textLength="132.0884" x="801.0874" y="117.3638">View details by ID</text><g class="message" data-entity-1="part1" data-entity-2="part2" id="msg1"><polygon fill="#181818" points="404.0283,151.5625,414.0283,155.5625,404.0283,159.5625,408.0283,155.5625" style="stroke:#181818;stroke-width:1;"/><line style="stroke:#181818;stroke-width:1;" x1="41.8398" x2="410.0283" y1="155.5625" y2="155.5625"/><text fill="#000000" font-family="sans-serif" font-size="13" font-weight="bold" lengthAdjust="spacing" textLength="9.0454" x="48.8398" y="150.4966">1</text><text fill="#000000" font-family="sans-serif" font-size="13" lengthAdjust="spacing" textLength="133.1421" x="61.8853" y="150.4966">GET /api/routes/{id}</text></g><g class="message" data-entity-1="part2" data-entity-2="part3" id="msg2"><polygon fill="#181818" points="664.7104,180.6953,674.7104,184.6953,664.7104,188.6953,668.7104,184.6953" style="stroke:#181818;stroke-width:1;"/><line style="stroke:#181818;stroke-width:1;" x1="426.0283" x2="670.7104" y1="184.6953" y2="184.6953"/><text fill="#000000" font-family="sans-serif" font-size="13" font-weight="bold" lengthAdjust="spacing" textLength="9.0454" x="433.0283" y="179.6294">2</text><text fill="#000000" font-family="sans-serif" font-size="13" lengthAdjust="spacing" textLength="74.1787" x="446.0737" y="179.6294">execute(id)</text></g><g class="message" data-entity-1="part3" data-entity-2="part6" id="msg3"><polygon fill="#181818" points="1298.0835,209.8281,1308.0835,213.8281,1298.0835,217.8281,1302.0835,213.8281" style="stroke:#181818;stroke-width:1;"/><line style="stroke:#181818;stroke-width:1;" x1="686.7104" x2="1304.0835" y1="213.8281" y2="213.8281"/><text fill="#000000" font-family="sans-serif" font-size="13" font-weight="bold" lengthAdjust="spacing" textLength="9.0454" x="693.7104" y="208.7622">3</text><text fill="#000000" font-family="sans-serif" font-size="13" lengthAdjust="spacing" textLength="75.3848" x="706.7559" y="208.7622">findById(id)</text></g><g class="message" data-entity-1="part6" data-entity-2="part7" id="msg4"><polygon fill="#181818" points="1667.3887,238.9609,1677.3887,242.9609,1667.3887,246.9609,1671.3887,242.9609" style="stroke:#181818;stroke-width:1;"/><line style="stroke:#181818;stroke-width:1;" x1="1320.0835" x2="1673.3887" y1="242.9609" y2="242.9609"/><text fill="#000000" font-family="sans-serif" font-size="13" font-weight="bold" lengthAdjust="spacing" textLength="9.0454" x="1327.0835" y="237.895">4</text><text fill="#000000" font-family="sans-serif" font-size="13" lengthAdjust="spacing" textLength="224.0723" x="1340.1289" y="237.895">SELECT FROM route WHERE id = ?</text></g><g class="message" data-entity-1="part7" data-entity-2="part6" id="msg5"><polygon fill="#181818" points="1331.0835,268.0938,1321.0835,272.0938,1331.0835,276.0938,1327.0835,272.0938" style="stroke:#181818;stroke-width:1;"/><line style="stroke:#181818;stroke-width:1;stroke-dasharray:2,2;" x1="1325.0835" x2="1683.3887" y1="272.0938" y2="272.0938"/><text fill="#000000" font-family="sans-serif" font-size="13" font-weight="bold" lengthAdjust="spacing" textLength="9.0454" x="1337.0835" y="267.0278">5</text><text fill="#000000" font-family="sans-serif" font-size="13" lengthAdjust="spacing" textLength="135.1543" x="1350.1289" y="267.0278">route record / empty</text></g><g class="message" data-entity-1="part6" data-entity-2="part3" id="msg6"><polygon fill="#181818" points="697.7104,297.2266,687.7104,301.2266,697.7104,305.2266,693.7104,301.2266" style="stroke:#181818;stroke-width:1;"/><line style="stroke:#181818;stroke-width:1;stroke-dasharray:2,2;" x1="691.7104" x2="1314.0835" y1="301.2266" y2="301.2266"/><text fill="#000000" font-family="sans-serif" font-size="13" font-weight="bold" lengthAdjust="spacing" textLength="9.0454" x="703.7104" y="296.1606">6</text><text fill="#000000" font-family="sans-serif" font-size="13" lengthAdjust="spacing" textLength="115.0703" x="716.7559" y="296.1606">Optional&lt;Route&gt;</text></g><path d="M10,316.2266 L74.4429,316.2266 L74.4429,323.3594 L64.4429,333.3594 L10,333.3594 L10,316.2266" fill="#EEEEEE" style="stroke:#000000;stroke-width:1.5;"/><rect fill="none" height="148.4688" style="stroke:#000000;stroke-width:1.5;" width="780.5854" x="10" y="316.2266"/><text fill="#000000" font-family="sans-serif" font-size="13" font-weight="bold" lengthAdjust="spacing" textLength="19.4429" x="25" y="329.2935">alt</text><text fill="#000000" font-family="sans-serif" font-size="11" font-weight="bold" lengthAdjust="spacing" textLength="86.3403" x="89.4429" y="328.437">[Route found]</text><g class="message" data-entity-1="part3" data-entity-2="part2" id="msg7"><polygon fill="#181818" points="437.0283,350.4922,427.0283,354.4922,437.0283,358.4922,433.0283,354.4922" style="stroke:#181818;stroke-width:1;"/><line style="stroke:#181818;stroke-width:1;stroke-dasharray:2,2;" x1="431.0283" x2="675.7104" y1="354.4922" y2="354.4922"/><text fill="#000000" font-family="sans-serif" font-size="13" font-weight="bold" lengthAdjust="spacing" textLength="9.0454" x="443.0283" y="349.4263">7</text><text fill="#000000" font-family="sans-serif" font-size="13" lengthAdjust="spacing" textLength="38.3208" x="456.0737" y="349.4263">Route</text></g><g class="message" data-entity-1="part2" data-entity-2="part1" id="msg8"><polygon fill="#181818" points="52.8398,379.625,42.8398,383.625,52.8398,387.625,48.8398,383.625" style="stroke:#181818;stroke-width:1;"/><line style="stroke:#181818;stroke-width:1;stroke-dasharray:2,2;" x1="46.8398" x2="415.0283" y1="383.625" y2="383.625"/><text fill="#000000" font-family="sans-serif" font-size="13" font-weight="bold" lengthAdjust="spacing" textLength="9.0454" x="58.8398" y="378.5591">8</text><text fill="#000000" font-family="sans-serif" font-size="13" lengthAdjust="spacing" textLength="47.7026" x="71.8853" y="378.5591">200 OK</text></g><line style="stroke:#000000;stroke-width:1;stroke-dasharray:2,2;" x1="10" x2="790.5854" y1="392.625" y2="392.625"/><text fill="#000000" font-family="sans-serif" font-size="11" font-weight="bold" lengthAdjust="spacing" textLength="110.8164" x="15" y="402.8354">[Route not found]</text><g class="message" data-entity-1="part3" data-entity-2="part2" id="msg9"><polygon fill="#181818" points="437.0283,423.5625,427.0283,427.5625,437.0283,431.5625,433.0283,427.5625" style="stroke:#181818;stroke-width:1;"/><line style="stroke:#181818;stroke-width:1;stroke-dasharray:2,2;" x1="431.0283" x2="675.7104" y1="427.5625" y2="427.5625"/><text fill="#000000" font-family="sans-serif" font-size="13" font-weight="bold" lengthAdjust="spacing" textLength="9.0454" x="443.0283" y="422.4966">9</text><text fill="#000000" font-family="sans-serif" font-size="13" lengthAdjust="spacing" textLength="213.6367" x="456.0737" y="422.4966">throws RouteNotFoundException</text></g><g class="message" data-entity-1="part2" data-entity-2="part1" id="msg10"><polygon fill="#181818" points="52.8398,452.6953,42.8398,456.6953,52.8398,460.6953,48.8398,456.6953" style="stroke:#181818;stroke-width:1;"/><line style="stroke:#181818;stroke-width:1;stroke-dasharray:2,2;" x1="46.8398" x2="415.0283" y1="456.6953" y2="456.6953"/><text fill="#000000" font-family="sans-serif" font-size="13" font-weight="bold" lengthAdjust="spacing" textLength="18.0908" x="58.8398" y="451.6294">10</text><text fill="#000000" font-family="sans-serif" font-size="13" lengthAdjust="spacing" textLength="96.0146" x="80.9307" y="451.6294">404 Not Found</text></g><rect fill="#EEEEEE" height="3" style="stroke:#EEEEEE;stroke-width:1;" width="1740.7891" x="0" y="492.2617"/><line style="stroke:#000000;stroke-width:1;" x1="0" x2="1740.7891" y1="492.2617" y2="492.2617"/><line style="stroke:#000000;stroke-width:1;" x1="0" x2="1740.7891" y1="495.2617" y2="495.2617"/><rect fill="#EEEEEE" height="23.1328" style="stroke:#000000;stroke-width:2;" width="295.7344" x="722.5273" y="481.6953"/><text fill="#000000" font-family="sans-serif" font-size="13" font-weight="bold" lengthAdjust="spacing" textLength="277.2085" x="728.5273" y="497.7622">View all routes from a specific airport</text><g class="message" data-entity-1="part1" data-entity-2="part2" id="msg11"><polygon fill="#181818" points="404.0283,531.9609,414.0283,535.9609,404.0283,539.9609,408.0283,535.9609" style="stroke:#181818;stroke-width:1;"/><line style="stroke:#181818;stroke-width:1;" x1="41.8398" x2="410.0283" y1="535.9609" y2="535.9609"/><text fill="#000000" font-family="sans-serif" font-size="13" font-weight="bold" lengthAdjust="spacing" textLength="18.0908" x="48.8398" y="530.895">11</text><text fill="#000000" font-family="sans-serif" font-size="13" lengthAdjust="spacing" textLength="227.1509" x="70.9307" y="530.895">GET /api/routes/airport/{iataCode}</text></g><g class="message" data-entity-1="part2" data-entity-2="part4" id="msg12"><polygon fill="#181818" points="889.2769,561.0938,899.2769,565.0938,889.2769,569.0938,893.2769,565.0938" style="stroke:#181818;stroke-width:1;"/><line style="stroke:#181818;stroke-width:1;" x1="426.0283" x2="895.2769" y1="565.0938" y2="565.0938"/><text fill="#000000" font-family="sans-serif" font-size="13" font-weight="bold" lengthAdjust="spacing" textLength="18.0908" x="433.0283" y="560.0278">12</text><text fill="#000000" font-family="sans-serif" font-size="13" lengthAdjust="spacing" textLength="188.7983" x="455.1191" y="560.0278">execute(iataCode, pageable)</text></g><g class="message" data-entity-1="part4" data-entity-2="part5" id="msg13"><polygon fill="#181818" points="1154.417,590.2266,1164.417,594.2266,1154.417,598.2266,1158.417,594.2266" style="stroke:#181818;stroke-width:1;"/><line style="stroke:#181818;stroke-width:1;" x1="911.2769" x2="1160.417" y1="594.2266" y2="594.2266"/><text fill="#000000" font-family="sans-serif" font-size="13" font-weight="bold" lengthAdjust="spacing" textLength="18.0908" x="918.2769" y="589.1606">13</text><text fill="#000000" font-family="sans-serif" font-size="13" lengthAdjust="spacing" textLength="214.0493" x="940.3677" y="589.1606">existsByIataCodeCode(iataCode)</text></g><g class="message" data-entity-1="part5" data-entity-2="part7" id="msg14"><polygon fill="#181818" points="1667.3887,619.3594,1677.3887,623.3594,1667.3887,627.3594,1671.3887,623.3594" style="stroke:#181818;stroke-width:1;"/><line style="stroke:#181818;stroke-width:1;" x1="1176.417" x2="1673.3887" y1="623.3594" y2="623.3594"/><text fill="#000000" font-family="sans-serif" font-size="13" font-weight="bold" lengthAdjust="spacing" textLength="18.0908" x="1183.417" y="618.2935">14</text><text fill="#000000" font-family="sans-serif" font-size="13" lengthAdjust="spacing" textLength="308.0391" x="1205.5078" y="618.2935">SELECT EXISTS(FROM airport WHERE code = ?)</text></g><g class="message" data-entity-1="part7" data-entity-2="part5" id="msg15"><polygon fill="#181818" points="1187.417,648.4922,1177.417,652.4922,1187.417,656.4922,1183.417,652.4922" style="stroke:#181818;stroke-width:1;"/><line style="stroke:#181818;stroke-width:1;stroke-dasharray:2,2;" x1="1181.417" x2="1683.3887" y1="652.4922" y2="652.4922"/><text fill="#000000" font-family="sans-serif" font-size="13" font-weight="bold" lengthAdjust="spacing" textLength="18.0908" x="1193.417" y="647.4263">15</text><text fill="#000000" font-family="sans-serif" font-size="13" lengthAdjust="spacing" textLength="61.9849" x="1215.5078" y="647.4263">true/false</text></g><g class="message" data-entity-1="part5" data-entity-2="part4" id="msg16"><polygon fill="#181818" points="922.2769,677.625,912.2769,681.625,922.2769,685.625,918.2769,681.625" style="stroke:#181818;stroke-width:1;"/><line style="stroke:#181818;stroke-width:1;stroke-dasharray:2,2;" x1="916.2769" x2="1170.417" y1="681.625" y2="681.625"/><text fill="#000000" font-family="sans-serif" font-size="13" font-weight="bold" lengthAdjust="spacing" textLength="18.0908" x="928.2769" y="676.5591">16</text><text fill="#000000" font-family="sans-serif" font-size="13" lengthAdjust="spacing" textLength="51.9746" x="950.3677" y="676.5591">boolean</text></g><path d="M10,696.625 L74.4429,696.625 L74.4429,703.7578 L64.4429,713.7578 L10,713.7578 L10,696.625" fill="#EEEEEE" style="stroke:#000000;stroke-width:1.5;"/><rect fill="none" height="265" style="stroke:#000000;stroke-width:1.5;" width="1720.7891" x="10" y="696.625"/><text fill="#000000" font-family="sans-serif" font-size="13" font-weight="bold" lengthAdjust="spacing" textLength="19.4429" x="25" y="709.6919">alt</text><text fill="#000000" font-family="sans-serif" font-size="11" font-weight="bold" lengthAdjust="spacing" textLength="93.5859" x="89.4429" y="708.8354">[Airport found]</text><g class="message" data-entity-1="part4" data-entity-2="part6" id="msg17"><polygon fill="#181818" points="1298.0835,730.8906,1308.0835,734.8906,1298.0835,738.8906,1302.0835,734.8906" style="stroke:#181818;stroke-width:1;"/><line style="stroke:#181818;stroke-width:1;" x1="911.2769" x2="1304.0835" y1="734.8906" y2="734.8906"/><text fill="#000000" font-family="sans-serif" font-size="13" font-weight="bold" lengthAdjust="spacing" textLength="18.0908" x="918.2769" y="729.8247">17</text><text fill="#000000" font-family="sans-serif" font-size="13" lengthAdjust="spacing" textLength="148.6494" x="940.3677" y="729.8247">findByOrigin(iataCode)</text></g><g class="message" data-entity-1="part6" data-entity-2="part7" id="msg18"><polygon fill="#181818" points="1667.3887,760.0234,1677.3887,764.0234,1667.3887,768.0234,1671.3887,764.0234" style="stroke:#181818;stroke-width:1;"/><line style="stroke:#181818;stroke-width:1;" x1="1320.0835" x2="1673.3887" y1="764.0234" y2="764.0234"/><text fill="#000000" font-family="sans-serif" font-size="13" font-weight="bold" lengthAdjust="spacing" textLength="18.0908" x="1327.0835" y="758.9575">18</text><text fill="#000000" font-family="sans-serif" font-size="13" lengthAdjust="spacing" textLength="318.2144" x="1349.1743" y="758.9575">SELECT FROM route WHERE origin_iata_code = ?</text></g><g class="message" data-entity-1="part7" data-entity-2="part6" id="msg19"><polygon fill="#181818" points="1331.0835,789.1563,1321.0835,793.1563,1331.0835,797.1563,1327.0835,793.1563" style="stroke:#181818;stroke-width:1;"/><line style="stroke:#181818;stroke-width:1;stroke-dasharray:2,2;" x1="1325.0835" x2="1683.3887" y1="793.1563" y2="793.1563"/><text fill="#000000" font-family="sans-serif" font-size="13" font-weight="bold" lengthAdjust="spacing" textLength="18.0908" x="1337.0835" y="788.0903">19</text><text fill="#000000" font-family="sans-serif" font-size="13" lengthAdjust="spacing" textLength="87.5786" x="1359.1743" y="788.0903">route records</text></g><g class="message" data-entity-1="part6" data-entity-2="part4" id="msg20"><polygon fill="#181818" points="922.2769,818.2891,912.2769,822.2891,922.2769,826.2891,918.2769,822.2891" style="stroke:#181818;stroke-width:1;"/><line style="stroke:#181818;stroke-width:1;stroke-dasharray:2,2;" x1="916.2769" x2="1314.0835" y1="822.2891" y2="822.2891"/><text fill="#000000" font-family="sans-serif" font-size="13" font-weight="bold" lengthAdjust="spacing" textLength="18.0908" x="928.2769" y="817.2231">20</text><text fill="#000000" font-family="sans-serif" font-size="13" lengthAdjust="spacing" textLength="92.1616" x="950.3677" y="817.2231">Page&lt;Route&gt;</text></g><g class="message" data-entity-1="part4" data-entity-2="part2" id="msg21"><polygon fill="#181818" points="437.0283,847.4219,427.0283,851.4219,437.0283,855.4219,433.0283,851.4219" style="stroke:#181818;stroke-width:1;"/><line style="stroke:#181818;stroke-width:1;stroke-dasharray:2,2;" x1="431.0283" x2="900.2769" y1="851.4219" y2="851.4219"/><text fill="#000000" font-family="sans-serif" font-size="13" font-weight="bold" lengthAdjust="spacing" textLength="18.0908" x="443.0283" y="846.356">21</text><text fill="#000000" font-family="sans-serif" font-size="13" lengthAdjust="spacing" textLength="92.1616" x="465.1191" y="846.356">Page&lt;Route&gt;</text></g><g class="message" data-entity-1="part2" data-entity-2="part1" id="msg22"><polygon fill="#181818" points="52.8398,876.5547,42.8398,880.5547,52.8398,884.5547,48.8398,880.5547" style="stroke:#181818;stroke-width:1;"/><line style="stroke:#181818;stroke-width:1;stroke-dasharray:2,2;" x1="46.8398" x2="415.0283" y1="880.5547" y2="880.5547"/><text fill="#000000" font-family="sans-serif" font-size="13" font-weight="bold" lengthAdjust="spacing" textLength="18.0908" x="58.8398" y="875.4888">22</text><text fill="#000000" font-family="sans-serif" font-size="13" lengthAdjust="spacing" textLength="328.0977" x="80.9307" y="875.4888">200 OK (HAL+JSON with _embedded, _links, page)</text></g><line style="stroke:#000000;stroke-width:1;stroke-dasharray:2,2;" x1="10" x2="1730.7891" y1="889.5547" y2="889.5547"/><text fill="#000000" font-family="sans-serif" font-size="11" font-weight="bold" lengthAdjust="spacing" textLength="118.062" x="15" y="899.7651">[Airport not found]</text><g class="message" data-entity-1="part4" data-entity-2="part2" id="msg23"><polygon fill="#181818" points="437.0283,920.4922,427.0283,924.4922,437.0283,928.4922,433.0283,924.4922" style="stroke:#181818;stroke-width:1;"/><line style="stroke:#181818;stroke-width:1;stroke-dasharray:2,2;" x1="431.0283" x2="900.2769" y1="924.4922" y2="924.4922"/><text fill="#000000" font-family="sans-serif" font-size="13" font-weight="bold" lengthAdjust="spacing" textLength="18.0908" x="443.0283" y="919.4263">23</text><text fill="#000000" font-family="sans-serif" font-size="13" lengthAdjust="spacing" textLength="219.813" x="465.1191" y="919.4263">throws AirportNotFoundException</text></g><g class="message" data-entity-1="part2" data-entity-2="part1" id="msg24"><polygon fill="#181818" points="52.8398,949.625,42.8398,953.625,52.8398,957.625,48.8398,953.625" style="stroke:#181818;stroke-width:1;"/><line style="stroke:#181818;stroke-width:1;stroke-dasharray:2,2;" x1="46.8398" x2="415.0283" y1="953.625" y2="953.625"/><text fill="#000000" font-family="sans-serif" font-size="13" font-weight="bold" lengthAdjust="spacing" textLength="18.0908" x="58.8398" y="948.5591">24</text><text fill="#000000" font-family="sans-serif" font-size="13" lengthAdjust="spacing" textLength="96.0146" x="80.9307" y="948.5591">404 Not Found</text></g><?plantuml-src bLLRRzCm67tth_ZKfqriweJsDD6XDirOOQoeBPUtoes_RXPU7DakMpNnt_4jYHCAZ8T8ZNFETpa-HwKx8ylTmmOLeOMH2WRZLPODW6eOktTIKMLumIjQ6XWivCvW9akZf12eF2mpIdHHNpW-UkGK3UL2VzQOKOqUNHzbNSeDryPJz9MI3sEkAgbCodE0FYd25bX9pUsi-p1sUtfW-1wuEIEC6hgntM0mZR_2l1D2HYDmAm4BiyDc3xCfZ4R4AmIdbru3k81t-Gg6jE93vLSPFdFsqydAVr23GIZYePRI265v-8I59HnnTjp2MwL8YxN4PcHBtFAIJVOprcMsIxLOrt5Y6Sly9izMSBMOVmG_9NozpXSvS0OZU9jqdn2BF-tr2mo5XLGCXe0FbTaJXYahQTdRSbuPBaigtdZ8PSfh9oPKcF0AMxah6O6ancahjOVOZq5EUnxkuW9Udvt1_0D1eMDPAANvUorph-HZzCAjD5SEcpyLwESzrEFyx1mi43oIe7rI3PfxImx3tTT6ea84AJLihTs1Wgwmu5jU00tkVOcx8jIwp1esampxNgkj5hAJ-YmIJg2YTqWt0XFtnAIHo79hjudoHUm7RLqNYxYdgPZKINEOLkWvCVysMwwMHzwGzVB1aeMjvqnvVCYLtPcCsk5mI-sTzzpOQPnAiP5I82rJU3gmjs4yQCm3q6hoUmhdYj_nCb724Guut1s_F9VILrsxgkjQa6vbkwLx_qTQjGTrnUbDaihpoVgYpccFsDsaLgIrQP_wXuJ2qVNuvjNxvVmM7hcvXpNQFo76a9t0Ml3okmxcF0v9hgyYpVAXvZ7A4NuepFyRvnY7NfP_0G00?></g></svg>