<?plantuml 1.2026.1?><svg xmlns="http://www.w3.org/2000/svg" xmlns:xlink="http://www.w3.org/1999/xlink" contentStyleType="text/css" data-diagram-type="SEQUENCE" height="344px" preserveAspectRatio="none" style="width:341px;height:344px;background:#FFFFFF;" version="1.1" viewBox="0 0 341 344" width="341px" zoomAndPan="magnify"><defs/><g><g><title>System</title><rect fill="#FFFFFF" height="29.1328" style="stroke:#181818;stroke-width:1;" width="10" x="286.3286" y="136.5625"/></g><g><title>System</title><rect fill="#FFFFFF" height="29.1328" style="stroke:#181818;stroke-width:1;" width="10" x="286.3286" y="209.6328"/></g><rect fill="none" height="148.4688" style="stroke:#000000;stroke-width:1.5;" width="324.4316" x="10" y="98.2969"/><g class="participant-lifeline" data-entity-uid="part1" data-qualified-name="Actor" id="part1-lifeline"><g><title>ATCC</title><rect fill="#000000" fill-opacity="0.00000" height="182.4688" width="8" x="37.8398" y="81.2969"/><line style="stroke:#181818;stroke-width:0.5;stroke-dasharray:5,5;" x1="41" x2="41" y1="81.2969" y2="263.7656"/></g></g><g class="participant-lifeline" data-entity-uid="part2" data-qualified-name="Sys" id="part2-lifeline"><g><title>System</title><rect fill="#000000" fill-opacity="0.00000" height="182.4688" width="8" x="287.3286" y="81.2969"/><line style="stroke:#181818;stroke-width:0.5;stroke-dasharray:5,5;" x1="291.2256" x2="291.2256" y1="81.2969" y2="263.7656"/></g></g><g class="participant participant-head" data-entity-uid="part1" data-qualified-name="Actor" id="part1-head"><text fill="#000000" font-family="sans-serif" font-size="14" lengthAdjust="spacing" textLength="37.6797" x="20" y="77.9951">ATCC</text><ellipse cx="41.8398" cy="13.5" fill="#E2E2F0" rx="8" ry="8" style="stroke:#181818;stroke-width:0.5;"/><path d="M41.8398,21.5 L41.8398,48.5 M28.8398,29.5 L54.8398,29.5 M41.8398,48.5 L28.8398,63.5 M41.8398,48.5 L54.8398,63.5" fill="none" style="stroke:#181818;stroke-width:0.5;"/></g><g class="participant participant-tail" data-entity-uid="part1" data-qualified-name="Actor" id="part1-tail"><text fill="#000000" font-family="sans-serif" font-size="14" lengthAdjust="spacing" textLength="37.6797" x="20" y="275.7607">ATCC</text><ellipse cx="41.8398" cy="287.5625" fill="#E2E2F0" rx="8" ry="8" style="stroke:#181818;stroke-width:0.5;"/><path d="M41.8398,295.5625 L41.8398,322.5625 M28.8398,303.5625 L54.8398,303.5625 M41.8398,322.5625 L28.8398,337.5625 M41.8398,322.5625 L54.8398,337.5625" fill="none" style="stroke:#181818;stroke-width:0.5;"/></g><g class="participant participant-head" data-entity-uid="part2" data-qualified-name="Sys" id="part2-head"><rect fill="#E2E2F0" height="30.2969" rx="2.5" ry="2.5" style="stroke:#181818;stroke-width:0.5;" width="66.2061" x="258.2256" y="50"/><text fill="#000000" font-family="sans-serif" font-size="14" lengthAdjust="spacing" textLength="52.2061" x="265.2256" y="69.9951">System</text></g><g class="participant participant-tail" data-entity-uid="part2" data-qualified-name="Sys" id="part2-tail"><rect fill="#E2E2F0" height="30.2969" rx="2.5" ry="2.5" style="stroke:#181818;stroke-width:0.5;" width="66.2061" x="258.2256" y="262.7656"/><text fill="#000000" font-family="sans-serif" font-size="14" lengthAdjust="spacing" textLength="52.2061" x="265.2256" y="282.7607">System</text></g><g><title>System</title><rect fill="#FFFFFF" height="29.1328" style="stroke:#181818;stroke-width:1;" width="10" x="286.3286" y="136.5625"/></g><g><title>System</title><rect fill="#FFFFFF" height="29.1328" style="stroke:#181818;stroke-width:1;" width="10" x="286.3286" y="209.6328"/></g><path d="M10,98.2969 L74.4429,98.2969 L74.4429,105.4297 L64.4429,115.4297 L10,115.4297 L10,98.2969" fill="#EEEEEE" style="stroke:#000000;stroke-width:1.5;"/><rect fill="none" height="148.4688" style="stroke:#000000;stroke-width:1.5;" width="324.4316" x="10" y="98.2969"/><text fill="#000000" font-family="sans-serif" font-size="13" font-weight="bold" lengthAdjust="spacing" textLength="19.4429" x="25" y="111.3638">alt</text><text fill="#000000" font-family="sans-serif" font-size="11" font-weight="bold" lengthAdjust="spacing" textLength="123.2559" x="89.4429" y="110.5073">[View route details]</text><g class="message" data-entity-1="part1" data-entity-2="part2" id="msg1"><polygon fill="#181818" points="274.3286,132.5625,284.3286,136.5625,274.3286,140.5625,278.3286,136.5625" style="stroke:#181818;stroke-width:1;"/><line style="stroke:#181818;stroke-width:1;" x1="41.8398" x2="280.3286" y1="136.5625" y2="136.5625"/><text fill="#000000" font-family="sans-serif" font-size="13" font-weight="bold" lengthAdjust="spacing" textLength="9.0454" x="48.8398" y="131.4966">1</text><text fill="#000000" font-family="sans-serif" font-size="13" lengthAdjust="spacing" textLength="161.5986" x="61.8853" y="131.4966">getRouteDetails(routeId)</text></g><g class="message" data-entity-1="part2" data-entity-2="part1" id="msg2"><polygon fill="#181818" points="52.8398,161.6953,42.8398,165.6953,52.8398,169.6953,48.8398,165.6953" style="stroke:#181818;stroke-width:1;"/><line style="stroke:#181818;stroke-width:1;stroke-dasharray:2,2;" x1="46.8398" x2="290.3286" y1="165.6953" y2="165.6953"/><text fill="#000000" font-family="sans-serif" font-size="13" font-weight="bold" lengthAdjust="spacing" textLength="9.0454" x="58.8398" y="160.6294">2</text><text fill="#000000" font-family="sans-serif" font-size="13" lengthAdjust="spacing" textLength="136.9316" x="71.8853" y="160.6294">returns Route details</text></g><line style="stroke:#000000;stroke-width:1;stroke-dasharray:2,2;" x1="10" x2="334.4316" y1="174.6953" y2="174.6953"/><text fill="#000000" font-family="sans-serif" font-size="11" font-weight="bold" lengthAdjust="spacing" textLength="163.4907" x="15" y="184.9058">[View routes from airport]</text><g class="message" data-entity-1="part1" data-entity-2="part2" id="msg3"><polygon fill="#181818" points="274.3286,205.6328,284.3286,209.6328,274.3286,213.6328,278.3286,209.6328" style="stroke:#181818;stroke-width:1;"/><line style="stroke:#181818;stroke-width:1;" x1="41.8398" x2="280.3286" y1="209.6328" y2="209.6328"/><text fill="#000000" font-family="sans-serif" font-size="13" font-weight="bold" lengthAdjust="spacing" textLength="9.0454" x="48.8398" y="204.5669">3</text><text fill="#000000" font-family="sans-serif" font-size="13" lengthAdjust="spacing" textLength="212.4434" x="61.8853" y="204.5669">getRoutesFromAirport(iataCode)</text></g><g class="message" data-entity-1="part2" data-entity-2="part1" id="msg4"><polygon fill="#181818" points="52.8398,234.7656,42.8398,238.7656,52.8398,242.7656,48.8398,238.7656" style="stroke:#181818;stroke-width:1;"/><line style="stroke:#181818;stroke-width:1;stroke-dasharray:2,2;" x1="46.8398" x2="290.3286" y1="238.7656" y2="238.7656"/><text fill="#000000" font-family="sans-serif" font-size="13" font-weight="bold" lengthAdjust="spacing" textLength="9.0454" x="58.8398" y="233.6997">4</text><text fill="#000000" font-family="sans-serif" font-size="13" lengthAdjust="spacing" textLength="115.8003" x="71.8853" y="233.6997">returns routes list</text></g><?plantuml-src bOwz2i8m4CVtFCNHgGvzWGv2gGYkLTpFvfH0cfJBHV7jJL87HH6yANVv_JymYdTnEX4h7CKpLDsXxol005tUrOmiPZGpEe5gVmz2K_bDJwNG2XmDtO1z509DWiO61McA6ffr1g652ycGcSs2r4Mmqwl2fcHpnMIGJVCXQvgaNKnQO9B8Bi3m4QFfJKmsq4kZ06Vs4w3XsRFywXMs2UmMhZOes7jDVxPxHbeJv6itfny0?></g></svg>