<svg xmlns="http://www.w3.org/2000/svg" xmlns:xlink="http://www.w3.org/1999/xlink" contentStyleType="text/css" data-diagram-type="DESCRIPTION" height="479px" preserveAspectRatio="none" style="width:532px;height:479px;background:#FFFFFF;" version="1.1" viewBox="0 0 532 479" width="532px" zoomAndPan="magnify"><?plantuml 1.2026.4?><defs/><g><!--cluster Flight Routes & Operations (WP #3A)--><g class="cluster" data-qualified-name="Flight Routes . Operations .WP .3A." data-source-line="7" id="ent0003"><rect fill="none" height="458" rx="2.5" ry="2.5" style="stroke:#181818;stroke-width:1;" width="344" x="174" y="7"/><text fill="#000000" font-family="sans-serif" font-size="14" font-weight="700" lengthAdjust="spacing" textLength="246.5654" x="222.7173" y="23.5332">Flight Routes &amp; Operations (WP #3A)</text></g><!--entity UC110--><g class="entity" data-qualified-name="Flight Routes . Operations .WP .3A..UC110" data-source-line="8" id="ent0004"><ellipse cx="345.8852" cy="156.877" fill="#F1F1F1" rx="102.3852" ry="22.877" style="stroke:#181818;stroke-width:0.5;"/><text fill="#000000" font-family="sans-serif" font-size="14" lengthAdjust="spacing" textLength="178.2061" x="256.7821" y="162.1817">US110 - Create a flight route</text></g><!--entity UC111--><g class="entity" data-qualified-name="Flight Routes . Operations .WP .3A..UC111" data-source-line="9" id="ent0005"><ellipse cx="345.8611" cy="242.0722" fill="#F1F1F1" rx="120.8611" ry="26.5722" style="stroke:#181818;stroke-width:0.5;"/><text fill="#000000" font-family="sans-serif" font-size="14" lengthAdjust="spacing" textLength="218.6611" x="236.5305" y="247.3769">US111 - Keep track of route history</text></g><!--entity UC112--><g class="entity" data-qualified-name="Flight Routes . Operations .WP .3A..UC112" data-source-line="10" id="ent0006"><ellipse cx="346.0336" cy="70.8067" fill="#F1F1F1" rx="127.0336" ry="27.8067" style="stroke:#181818;stroke-width:0.5;"/><text fill="#000000" font-family="sans-serif" font-size="14" lengthAdjust="spacing" textLength="231.916" x="230.0755" y="76.1114">US112 - Update or deactivate a route</text></g><!--entity UC113--><g class="entity" data-qualified-name="Flight Routes . Operations .WP .3A..UC113" data-source-line="11" id="ent0007"><ellipse cx="345.7598" cy="415.052" fill="#F1F1F1" rx="155.7598" ry="33.552" style="stroke:#181818;stroke-width:0.5;"/><text fill="#000000" font-family="sans-serif" font-size="14" lengthAdjust="spacing" textLength="292.5576" x="199.481" y="420.3566">US113 - View routes from airport / details by ID</text></g><!--entity UC114--><g class="entity" data-qualified-name="Flight Routes . Operations .WP .3A..UC114" data-source-line="12" id="ent0008"><ellipse cx="345.9689" cy="324.9938" fill="#F1F1F1" rx="95.4689" ry="21.4938" style="stroke:#181818;stroke-width:0.5;"/><text fill="#000000" font-family="sans-serif" font-size="14" lengthAdjust="spacing" textLength="162.6338" x="264.652" y="330.2985">US114 - Search for routes</text></g><!--entity BO--><g class="entity" data-qualified-name="BO" data-source-line="4" id="ent0001"><ellipse cx="67.8618" cy="40.5" fill="#F1F1F1" rx="8" ry="8" style="stroke:#181818;stroke-width:0.5;"/><path d="M67.8618,48.5 L67.8618,75.5 M54.8618,56.5 L80.8618,56.5 M67.8618,75.5 L54.8618,90.5 M67.8618,75.5 L80.8618,90.5" fill="none" style="stroke:#181818;stroke-width:0.5;"/><text fill="#000000" font-family="sans-serif" font-size="14" lengthAdjust="spacing" textLength="123.7236" x="6" y="106.5332">Backoffice Operator</text></g><!--entity ATCC--><g class="entity" data-qualified-name="ATCC" data-source-line="5" id="ent0002"><ellipse cx="68.0552" cy="211.5" fill="#F1F1F1" rx="8" ry="8" style="stroke:#181818;stroke-width:0.5;"/><path d="M68.0552,219.5 L68.0552,246.5 M55.0552,227.5 L81.0552,227.5 M68.0552,246.5 L55.0552,261.5 M68.0552,246.5 L81.0552,261.5" fill="none" style="stroke:#181818;stroke-width:0.5;"/><text fill="#000000" font-family="sans-serif" font-size="14" lengthAdjust="spacing" textLength="38.1104" x="49" y="277.5332">ATCC</text></g><!--link ATCC to UC110--><g class="link" data-entity-1="ent0002" data-entity-2="ent0004" data-link-type="dependency" data-source-line="15" id="lnk9"><path d="M87.15,232.43 C106.31,222.66 137.62,207.58 166,198 C198.17,187.14 229.6595,179.2608 261.1895,172.5508" fill="none" id="ATCC-to-UC110" style="stroke:#181818;stroke-width:1;"/><polygon fill="#181818" points="266.08,171.51,256.4445,169.471,261.1895,172.5508,258.1097,177.2958,266.08,171.51" style="stroke:#181818;stroke-width:1;stroke-linejoin:miter;stroke-miterlimit:10;"/></g><!--link ATCC to UC111--><g class="link" data-entity-1="ent0002" data-entity-2="ent0005" data-link-type="dependency" data-source-line="16" id="lnk10"><path d="M87.11,242 C115.29,242 166.93,242 219.97,242" fill="none" id="ATCC-to-UC111" style="stroke:#181818;stroke-width:1;"/><polygon fill="#181818" points="224.97,242,215.97,238,219.97,242,215.97,246,224.97,242" style="stroke:#181818;stroke-width:1;stroke-linejoin:miter;stroke-miterlimit:10;"/></g><!--link ATCC to UC112--><g class="link" data-entity-1="ent0002" data-entity-2="ent0006" data-link-type="dependency" data-source-line="17" id="lnk11"><path d="M87.14,207.05 C103.84,178.33 131.26,138.79 166,116 C187.3,102.03 207.8106,93.695 232.6106,87.045" fill="none" id="ATCC-to-UC112" style="stroke:#181818;stroke-width:1;"/><polygon fill="#181818" points="237.44,85.75,227.7111,84.2174,232.6106,87.045,229.7831,91.9445,237.44,85.75" style="stroke:#181818;stroke-width:1;stroke-linejoin:miter;stroke-miterlimit:10;"/></g><!--link ATCC to UC113--><g class="link" data-entity-1="ent0002" data-entity-2="ent0007" data-link-type="dependency" data-source-line="18" id="lnk12"><path d="M87.08,274.74 C104,302.44 131.78,341.17 166,364 C184.55,376.37 201.3529,384.2101 222.9429,391.3501" fill="none" id="ATCC-to-UC113" style="stroke:#181818;stroke-width:1;"/><polygon fill="#181818" points="227.69,392.92,220.4011,386.2964,222.9429,391.3501,217.8892,393.8919,227.69,392.92" style="stroke:#181818;stroke-width:1;stroke-linejoin:miter;stroke-miterlimit:10;"/></g><!--link ATCC to UC114--><g class="link" data-entity-1="ent0002" data-entity-2="ent0008" data-link-type="dependency" data-source-line="19" id="lnk13"><path d="M87.13,251.63 C106.27,261.46 137.57,276.57 166,286 C199.21,297.01 232.0258,304.7859 264.2458,311.1859" fill="none" id="ATCC-to-UC114" style="stroke:#181818;stroke-width:1;"/><polygon fill="#181818" points="269.15,312.16,261.1018,306.4832,264.2458,311.1859,259.5432,314.3299,269.15,312.16" style="stroke:#181818;stroke-width:1;stroke-linejoin:miter;stroke-miterlimit:10;"/></g><!--link BO to UC112--><g class="link" data-entity-1="ent0001" data-entity-2="ent0006" data-link-type="dependency" data-source-line="21" id="lnk14"><path d="M130.25,71 C156.46,71 183.07,71 213.89,71" fill="none" id="BO-to-UC112" style="stroke:#181818;stroke-width:1;"/><polygon fill="#181818" points="218.89,71,209.89,67,213.89,71,209.89,75,218.89,71" style="stroke:#181818;stroke-width:1;stroke-linejoin:miter;stroke-miterlimit:10;"/></g><?plantuml-src NP11JuD048Nl-ojUC35w84hfsQJ5c1WF62jw7c6stPIoP7UhQOp_tG4g4MuxC-zxRsPhrW71mfdjBg0oZijWRAFytZGjEJgWfN9FMzw4KytenjHiQrQAoc0TehMChTQcPEGjEv9c1F9Ovt-ArMkMzQtkeTHeWUYXxbDVx36mn-NPGE8zhjwVSP6khYDyA-3ekIGlHB59abl4o1nJO13qOE4wYpwao4GnHn91dfXR12Vhmke1mCvuMV4qWiaSN0XOj5MN9QTKB2UPpo5v6hcOawcGRuQ_1fs7TlO0CgwrBk16h0APskFZXCVxqIMTkop5PSFaoXsqB31uZVAb-b6g-rN4yTtvyacPJCl5j4odvLAfTVvF-mi0?></g></svg>