<svg xmlns="http://www.w3.org/2000/svg" xmlns:xlink="http://www.w3.org/1999/xlink" contentStyleType="text/css" data-diagram-type="DESCRIPTION" height="473px" preserveAspectRatio="none" style="width:525px;height:473px;background:#FFFFFF;" version="1.1" viewBox="0 0 525 473" width="525px" zoomAndPan="magnify"><defs/><g><!--cluster Flight Routes & Operations (WP #3A)--><g class="cluster" data-entity="Flight Routes . Operations .WP .3A." data-source-line="7" data-uid="ent0004" id="cluster_Flight Routes . Operations .WP .3A."><rect fill="none" height="460" rx="2.5" ry="2.5" style="stroke:#181818;stroke-width:1;" width="345" x="174" y="7"/><text fill="#000000" font-family="sans-serif" font-size="14" font-weight="bold" lengthAdjust="spacing" textLength="246.5654" x="223.2173" y="24.1074">Flight Routes &amp; Operations (WP #3A)</text></g><!--entity UC110--><g class="entity" data-entity="UC110" data-source-line="8" data-uid="ent0005" id="entity_UC110"><ellipse cx="346.5311" cy="158.1062" fill="#F1F1F1" rx="103.5311" ry="23.1062" style="stroke:#181818;stroke-width:0.5;"/><text fill="#000000" font-family="sans-serif" font-size="14" lengthAdjust="spacing" textLength="178.2061" x="257.4281" y="163.9168">US110 - Create a flight route</text></g><!--entity UC111--><g class="entity" data-entity="UC111" data-source-line="9" data-uid="ent0006" id="entity_UC111"><ellipse cx="346.329" cy="242.7658" fill="#F1F1F1" rx="121.829" ry="26.7658" style="stroke:#181818;stroke-width:0.5;"/><text fill="#000000" font-family="sans-serif" font-size="14" lengthAdjust="spacing" textLength="218.6611" x="236.9984" y="248.5763">US111 - Keep track of route history</text></g><!--entity UC112--><g class="entity" data-entity="UC112" data-source-line="10" data-uid="ent0007" id="entity_UC112"><ellipse cx="346.4537" cy="71.9907" fill="#F1F1F1" rx="127.9537" ry="27.9907" style="stroke:#181818;stroke-width:0.5;"/><text fill="#000000" font-family="sans-serif" font-size="14" lengthAdjust="spacing" textLength="231.916" x="230.4957" y="77.8013">US112 - Update or deactivate a route</text></g><!--entity UC113--><g class="entity" data-entity="UC113" data-source-line="11" data-uid="ent0008" id="entity_UC113"><ellipse cx="346.5078" cy="417.2016" fill="#F1F1F1" rx="156.5078" ry="33.7016" style="stroke:#181818;stroke-width:0.5;"/><text fill="#000000" font-family="sans-serif" font-size="14" lengthAdjust="spacing" textLength="292.5576" x="200.229" y="423.0121">US113 - View routes from airport / details by ID</text></g><!--entity UC114--><g class="entity" data-entity="UC114" data-source-line="12" data-uid="ent0009" id="entity_UC114"><ellipse cx="346.6995" cy="327.2399" fill="#F1F1F1" rx="96.6995" ry="21.7399" style="stroke:#181818;stroke-width:0.5;"/><text fill="#000000" font-family="sans-serif" font-size="14" lengthAdjust="spacing" textLength="162.6338" x="265.3826" y="333.0504">US114 - Search for routes</text></g><!--entity BO--><g class="entity" data-entity="BO" data-source-line="4" data-uid="ent0002" id="entity_BO"><ellipse cx="67.8618" cy="41" fill="#F1F1F1" rx="8" ry="8" style="stroke:#181818;stroke-width:0.5;"/><path d="M67.8618,49 L67.8618,76 M54.8618,57 L80.8618,57 M67.8618,76 L54.8618,91 M67.8618,76 L80.8618,91" fill="none" style="stroke:#181818;stroke-width:0.5;"/><text fill="#000000" font-family="sans-serif" font-size="14" lengthAdjust="spacing" textLength="123.7236" x="6" y="107.6074">Backoffice Operator</text></g><!--entity ATCC--><g class="entity" data-entity="ATCC" data-source-line="5" data-uid="ent0003" id="entity_ATCC"><ellipse cx="68.0552" cy="212" fill="#F1F1F1" rx="8" ry="8" style="stroke:#181818;stroke-width:0.5;"/><path d="M68.0552,220 L68.0552,247 M55.0552,228 L81.0552,228 M68.0552,247 L55.0552,262 M68.0552,247 L81.0552,262" fill="none" style="stroke:#181818;stroke-width:0.5;"/><text fill="#000000" font-family="sans-serif" font-size="14" lengthAdjust="spacing" textLength="38.1104" x="49" y="278.6074">ATCC</text></g><!--link ATCC to UC110--><g class="link" data-entity-1="ATCC" data-entity-2="UC110" data-source-line="15" data-uid="lnk10" id="link_ATCC_UC110"><path d="M87.11,233.16 C106.24,223.11 137.52,207.65 166,198 C197.6,187.29 227.435,179.8783 258.635,173.4083" fill="none" id="ATCC-to-UC110" style="stroke:#181818;stroke-width:1;"/><polygon fill="#181818" points="264.51,172.19,254.8853,170.1008,259.6142,173.2053,256.5097,177.9341,264.51,172.19" style="stroke:#181818;stroke-width:1;"/></g><!--link ATCC to UC111--><g class="link" data-entity-1="ATCC" data-entity-2="UC111" data-source-line="16" data-uid="lnk11" id="link_ATCC_UC111"><path d="M87.14,243 C115.2,243 165.4,243 218.24,243" fill="none" id="ATCC-to-UC111" style="stroke:#181818;stroke-width:1;"/><polygon fill="#181818" points="224.24,243,215.24,239,219.24,243,215.24,247,224.24,243" style="stroke:#181818;stroke-width:1;"/></g><!--link ATCC to UC112--><g class="link" data-entity-1="ATCC" data-entity-2="UC112" data-source-line="17" data-uid="lnk12" id="link_ATCC_UC112"><path d="M87.14,208.04 C103.83,179.32 131.25,139.78 166,117 C187.23,103.09 206.6554,95.0365 231.3754,88.3965" fill="none" id="ATCC-to-UC112" style="stroke:#181818;stroke-width:1;"/><polygon fill="#181818" points="237.17,86.84,227.4404,85.3117,232.3412,88.1371,229.5158,93.0378,237.17,86.84" style="stroke:#181818;stroke-width:1;"/></g><!--link ATCC to UC113--><g class="link" data-entity-1="ATCC" data-entity-2="UC113" data-source-line="18" data-uid="lnk13" id="link_ATCC_UC113"><path d="M87.01,276.02 C103.89,303.95 131.65,343 166,366 C184.58,378.44 200.4827,385.9884 222.1327,393.1384" fill="none" id="ATCC-to-UC113" style="stroke:#181818;stroke-width:1;"/><polygon fill="#181818" points="227.83,395.02,220.5384,388.3994,223.0822,393.452,218.0296,395.9959,227.83,395.02" style="stroke:#181818;stroke-width:1;"/></g><!--link ATCC to UC114--><g class="link" data-entity-1="ATCC" data-entity-2="UC114" data-source-line="19" data-uid="lnk14" id="link_ATCC_UC114"><path d="M87.14,252.6 C106.29,262.41 137.59,277.5 166,287 C199.46,298.18 231.6007,305.9627 264.0107,312.5627" fill="none" id="ATCC-to-UC114" style="stroke:#181818;stroke-width:1;"/><polygon fill="#181818" points="269.89,313.76,261.8692,308.0445,264.9906,312.7623,260.2728,315.8836,269.89,313.76" style="stroke:#181818;stroke-width:1;"/></g><!--link BO to UC112--><g class="link" data-entity-1="BO" data-entity-2="UC112" data-source-line="21" data-uid="lnk15" id="link_BO_UC112"><path d="M130.02,72 C156.1,72 181.58,72 212.33,72" fill="none" id="BO-to-UC112" style="stroke:#181818;stroke-width:1;"/><polygon fill="#181818" points="218.33,72,209.33,68,213.33,72,209.33,76,218.33,72" style="stroke:#181818;stroke-width:1;"/></g><!--SRC=[NP11JuD048Nl-ojUC35w84hfsQJ5c1WF62jw7c6stPIoP7UhQOp_tG4g4MuxC-zxRsPhrW71mfdjBg0oZijWRAFytZGjEJgWfN9FMzw4KytenjHiQrQAoc0TehMChTQcPEGjEv9c1F9Ovt-ArMkMzQtkeTHeWUYXxbDVx36mn-NPGE8zhjwVSP6khYDyA-3ekIGlHB59abl4o1nJO13qOE4wYpwao4GnHn91dfXR12Vhmke1mCvuMV4qWiaSN0XOj5MN9QTKB2UPpo5v6hcOawcGRuQ_1fs7TlO0CgwrBk16h0APskFZXCVxqIMTkop5PSFaoXsqB31uZVAb-b6g-rN4yTtvyacPJCl5j4odvLAfTVvF-mi0]--></g></svg>