<?plantuml 1.2026.1?><svg xmlns="http://www.w3.org/2000/svg" xmlns:xlink="http://www.w3.org/1999/xlink" contentStyleType="text/css" data-diagram-type="DESCRIPTION" height="492px" preserveAspectRatio="none" style="width:575px;height:492px;background:#FFFFFF;" version="1.1" viewBox="0 0 575 492" width="575px" zoomAndPan="magnify"><defs/><g><!--cluster Flight Routes & Operations (WP #3A)--><g class="cluster" data-qualified-name="Flight Routes . Operations .WP .3A." data-source-line="7" id="ent0004"><rect fill="none" height="479" rx="2.5" ry="2.5" style="stroke:#181818;stroke-width:1;" width="380.17" x="189.73" y="7"/><text fill="#000000" font-family="sans-serif" font-size="14" font-weight="bold" lengthAdjust="spacing" textLength="295.292" x="232.169" y="21.9951">Flight Routes &amp; Operations (WP #3A)</text></g><!--entity UC110--><g class="entity" data-qualified-name="Flight Routes . Operations .WP .3A..UC110" data-source-line="8" id="ent0005"><ellipse cx="379.8132" cy="352.0046" fill="#F1F1F1" rx="111.8232" ry="24.7646" style="stroke:#181818;stroke-width:0.5;"/><text fill="#000000" font-family="sans-serif" font-size="14" lengthAdjust="spacing" textLength="201.8174" x="278.9045" y="356.6531">US110 - Create a flight route</text></g><!--entity UC111--><g class="entity" data-qualified-name="Flight Routes . Operations .WP .3A..UC111" data-source-line="9" id="ent0006"><ellipse cx="379.8122" cy="441.0044" fill="#F1F1F1" rx="133.2722" ry="29.0544" style="stroke:#181818;stroke-width:0.5;"/><text fill="#000000" font-family="sans-serif" font-size="14" lengthAdjust="spacing" textLength="247.4746" x="256.0749" y="445.6529">US111 - Keep track of route history</text></g><!--entity UC112--><g class="entity" data-qualified-name="Flight Routes . Operations .WP .3A..UC112" data-source-line="10" id="ent0007"><ellipse cx="379.8101" cy="71.998" fill="#F1F1F1" rx="140.4901" ry="30.498" style="stroke:#181818;stroke-width:0.5;"/><text fill="#000000" font-family="sans-serif" font-size="14" lengthAdjust="spacing" textLength="262.6299" x="248.4952" y="76.6465">US112 - Update or deactivate a route</text></g><!--entity UC113--><g class="entity" data-qualified-name="Flight Routes . Operations .WP .3A..UC113" data-source-line="11" id="ent0008"><ellipse cx="379.8065" cy="254.9973" fill="#F1F1F1" rx="174.0865" ry="37.2173" style="stroke:#181818;stroke-width:0.5;"/><text fill="#000000" font-family="sans-serif" font-size="14" lengthAdjust="spacing" textLength="332.3291" x="213.6419" y="259.6457">US113 - View routes from airport / details by ID</text></g><!--entity UC114--><g class="entity" data-qualified-name="Flight Routes . Operations .WP .3A..UC114" data-source-line="12" id="ent0009"><ellipse cx="379.8071" cy="159.9954" fill="#F1F1F1" rx="102.2271" ry="22.8454" style="stroke:#181818;stroke-width:0.5;"/><text fill="#000000" font-family="sans-serif" font-size="14" lengthAdjust="spacing" textLength="180.9541" x="289.3301" y="164.6439">US114 - Search for routes</text></g><!--entity BO--><g class="entity" data-qualified-name="BO" data-source-line="4" id="ent0002"><ellipse cx="75.8633" cy="42.35" fill="#F1F1F1" rx="8" ry="8" style="stroke:#181818;stroke-width:0.5;"/><path d="M75.8633,50.35 L75.8633,77.35 M62.8633,58.35 L88.8633,58.35 M75.8633,77.35 L62.8633,92.35 M75.8633,77.35 L88.8633,92.35" fill="none" style="stroke:#181818;stroke-width:0.5;"/><text fill="#000000" font-family="sans-serif" font-size="14" lengthAdjust="spacing" textLength="139.7266" x="6" y="106.8451">Backoffice Operator</text></g><!--entity ATCC--><g class="entity" data-qualified-name="ATCC" data-source-line="5" id="ent0003"><ellipse cx="75.8598" cy="225.35" fill="#F1F1F1" rx="8" ry="8" style="stroke:#181818;stroke-width:0.5;"/><path d="M75.8598,233.35 L75.8598,260.35 M62.8598,241.35 L88.8598,241.35 M75.8598,260.35 L62.8598,275.35 M75.8598,260.35 L88.8598,275.35" fill="none" style="stroke:#181818;stroke-width:0.5;"/><text fill="#000000" font-family="sans-serif" font-size="14" lengthAdjust="spacing" textLength="37.6797" x="57.02" y="289.8451">ATCC</text></g><!--link ATCC to UC110--><g class="link" data-entity-1="ent0003" data-entity-2="ent0005" data-link-type="dependency" data-source-line="15" id="lnk10"><path d="M95.1,266.54 C115.48,278.96 149.82,298.48 181.73,310 C215.29,322.12 247.5119,330.0968 281.2119,336.6968" fill="none" id="ATCC-to-UC110" style="stroke:#181818;stroke-width:1;"/><polygon fill="#181818" points="287.1,337.85,279.0366,332.1948,282.1932,336.889,277.499,340.0457,287.1,337.85" style="stroke:#181818;stroke-width:1;"/></g><!--link ATCC to UC111--><g class="link" data-entity-1="ent0003" data-entity-2="ent0006" data-link-type="dependency" data-source-line="16" id="lnk11"><path d="M95.16,291.79 C112.93,323.68 142.9,368.6 181.73,394 C205.64,409.65 228.4095,418.6333 256.2995,425.6133" fill="none" id="ATCC-to-UC111" style="stroke:#181818;stroke-width:1;"/><polygon fill="#181818" points="262.12,427.07,254.3604,421.0046,257.2696,425.8561,252.4181,428.7653,262.12,427.07" style="stroke:#181818;stroke-width:1;"/></g><!--link ATCC to UC112--><g class="link" data-entity-1="ent0003" data-entity-2="ent0007" data-link-type="dependency" data-source-line="17" id="lnk12"><path d="M95.09,219.92 C113.01,188.93 143.24,144.92 181.73,120 C204.71,105.12 226.1104,96.3877 252.8504,89.2977" fill="none" id="ATCC-to-UC112" style="stroke:#181818;stroke-width:1;"/><polygon fill="#181818" points="258.65,87.76,248.9254,86.2002,253.817,89.0414,250.9758,93.933,258.65,87.76" style="stroke:#181818;stroke-width:1;"/></g><!--link ATCC to UC113--><g class="link" data-entity-1="ent0003" data-entity-2="ent0008" data-link-type="dependency" data-source-line="18" id="lnk13"><path d="M94.85,255 C117.89,255 154.28,255 199.41,255" fill="none" id="ATCC-to-UC113" style="stroke:#181818;stroke-width:1;"/><polygon fill="#181818" points="205.41,255,196.41,251,200.41,255,196.41,259,205.41,255" style="stroke:#181818;stroke-width:1;"/></g><!--link ATCC to UC114--><g class="link" data-entity-1="ent0003" data-entity-2="ent0009" data-link-type="dependency" data-source-line="19" id="lnk14"><path d="M95.08,243.4 C115.44,230.93 149.77,211.36 181.73,200 C217.09,187.43 251.6047,179.4216 286.5947,173.1316" fill="none" id="ATCC-to-UC114" style="stroke:#181818;stroke-width:1;"/><polygon fill="#181818" points="292.5,172.07,282.9343,169.7255,287.5789,172.9546,284.3497,177.5993,292.5,172.07" style="stroke:#181818;stroke-width:1;"/></g><!--link BO to UC112--><g class="link" data-entity-1="ent0002" data-entity-2="ent0007" data-link-type="dependency" data-source-line="21" id="lnk15"><path d="M146.14,72 C173.82,72 200.75,72 233,72" fill="none" id="BO-to-UC112" style="stroke:#181818;stroke-width:1;"/><polygon fill="#181818" points="239,72,230,68,234,72,230,76,239,72" style="stroke:#181818;stroke-width:1;"/></g><?plantuml-src NP11JuD048Nl-ojUC35w84hfsQJ5c1WF62jw7c6stPIoP7UhQOp_tG4g4MuxC-zxRsPhrW71mfdjBg0oZijWRAFytZGjEJgWfN9FMzw4KytenjHiQrQAoc0TehMChTQcPEGjEv9c1F9Ovt-ArMkMzQtkeTHeWUYXxbDVx36mn-NPGE8zhjwVSP6khYDyA-3ekIGlHB59abl4o1nJO13qOE4wYpwao4GnHn91dfXR12Vhmke1mCvuMV4qWiaSN0XOj5MN9QTKB2UPpo5v6hcOawcGRuQ_1fs7TlO0CgwrBk16h0APskFZXCVxqIMTkop5PSFaoXsqB31uZVAb-b6g-rN4yTtvyacPJCl5j4odvLAfTVvF-mi0?></g></svg>