<svg xmlns="http://www.w3.org/2000/svg" xmlns:xlink="http://www.w3.org/1999/xlink" contentStyleType="text/css" data-diagram-type="DESCRIPTION" height="611px" preserveAspectRatio="none" style="width:669px;height:611px;background:#FFFFFF;" version="1.1" viewBox="0 0 669 611" width="669px" zoomAndPan="magnify"><?plantuml 1.2026.4?><defs/><g><!--cluster Enhanced Aircraft Features (WP #1B)--><g class="cluster" data-qualified-name="Enhanced Aircraft Features .WP .1B." data-source-line="7" id="ent0003"><rect fill="none" height="590" rx="2.5" ry="2.5" style="stroke:#181818;stroke-width:1;" width="371" x="284" y="7"/><text fill="#000000" font-family="sans-serif" font-size="14" font-weight="700" lengthAdjust="spacing" textLength="248.1719" x="345.4141" y="23.5332">Enhanced Aircraft Features (WP #1B)</text></g><!--entity UC201--><g class="entity" data-qualified-name="Enhanced Aircraft Features .WP .1B..UC201" data-source-line="8" id="ent0004"><ellipse cx="469.7496" cy="70.9499" fill="#F1F1F1" rx="127.7496" ry="27.9499" style="stroke:#181818;stroke-width:0.5;"/><text fill="#000000" font-family="sans-serif" font-size="14" lengthAdjust="spacing" textLength="233.4473" x="353.026" y="76.2546">US201 - Update aircraft model details</text></g><!--entity UC202--><g class="entity" data-qualified-name="Enhanced Aircraft Features .WP .1B..UC202" data-source-line="9" id="ent0005"><ellipse cx="469.5972" cy="170.8194" fill="#F1F1F1" rx="169.5972" ry="36.3194" style="stroke:#181818;stroke-width:0.5;"/><text fill="#000000" font-family="sans-serif" font-size="14" lengthAdjust="spacing" textLength="321.3506" x="308.9219" y="176.1241">US202 - Register aircraft model with image/diagram</text></g><!--entity UC203--><g class="entity" data-qualified-name="Enhanced Aircraft Features .WP .1B..UC203" data-source-line="10" id="ent0006"><ellipse cx="469.5185" cy="550.1037" fill="#F1F1F1" rx="143.5185" ry="31.1037" style="stroke:#181818;stroke-width:0.5;"/><text fill="#000000" font-family="sans-serif" font-size="14" lengthAdjust="spacing" textLength="266.8887" x="336.0742" y="555.4084">US203 - View compatible routes for aircraft</text></g><!--entity UC204--><g class="entity" data-qualified-name="Enhanced Aircraft Features .WP .1B..UC204" data-source-line="11" id="ent0007"><ellipse cx="469.5886" cy="266.2177" fill="#F1F1F1" rx="106.5886" ry="23.7177" style="stroke:#181818;stroke-width:0.5;"/><text fill="#000000" font-family="sans-serif" font-size="14" lengthAdjust="spacing" textLength="187.5371" x="375.8201" y="271.5224">US204 - Top 5 utilized models</text></g><!--entity UC205--><g class="entity" data-qualified-name="Enhanced Aircraft Features .WP .1B..UC205" data-source-line="12" id="ent0008"><ellipse cx="469.4851" cy="448.797" fill="#F1F1F1" rx="159.4851" ry="34.297" style="stroke:#181818;stroke-width:0.5;"/><text fill="#000000" font-family="sans-serif" font-size="14" lengthAdjust="spacing" textLength="300.3301" x="319.3201" y="454.1017">US205 - View real-time aircraft availability status</text></g><!--entity UC206--><g class="entity" data-qualified-name="Enhanced Aircraft Features .WP .1B..UC206" data-source-line="13" id="ent0009"><ellipse cx="469.5681" cy="352.0136" fill="#F1F1F1" rx="125.5681" ry="27.5136" style="stroke:#181818;stroke-width:0.5;"/><text fill="#000000" font-family="sans-serif" font-size="14" lengthAdjust="spacing" textLength="228.7783" x="355.179" y="357.3183">US206 - Operational hours of aircraft</text></g><!--entity BO--><g class="entity" data-qualified-name="BO" data-source-line="4" id="ent0001"><ellipse cx="122.8618" cy="140.5" fill="#F1F1F1" rx="8" ry="8" style="stroke:#181818;stroke-width:0.5;"/><path d="M122.8618,148.5 L122.8618,175.5 M109.8618,156.5 L135.8618,156.5 M122.8618,175.5 L109.8618,190.5 M122.8618,175.5 L135.8618,190.5" fill="none" style="stroke:#181818;stroke-width:0.5;"/><text fill="#000000" font-family="sans-serif" font-size="14" lengthAdjust="spacing" textLength="123.7236" x="61" y="206.5332">Backoffice Operator</text></g><!--entity ATCC--><g class="entity" data-qualified-name="ATCC" data-source-line="5" id="ent0002"><ellipse cx="123.0962" cy="410" fill="#F1F1F1" rx="8" ry="8" style="stroke:#181818;stroke-width:0.5;"/><path d="M123.0962,418 L123.0962,445 M110.0962,426 L136.0962,426 M123.0962,445 L110.0962,460 M123.0962,445 L136.0962,460" fill="none" style="stroke:#181818;stroke-width:0.5;"/><text fill="#000000" font-family="sans-serif" font-size="14" lengthAdjust="spacing" textLength="38.1104" x="6" y="476.0332">ATCC</text><text fill="#000000" font-family="sans-serif" font-size="14" lengthAdjust="spacing" textLength="234.1924" x="6" y="493.6426">(Air Transport Company Collaborator)</text></g><!--link BO to UC201--><g class="link" data-entity-1="ent0001" data-entity-2="ent0004" data-link-type="dependency" data-source-line="16" id="lnk10"><path d="M185.26,147.55 C212.78,137.46 245.79,125.95 276,117 C308.95,107.24 340.6603,99.2239 373.0003,91.6939" fill="none" id="BO-to-UC201" style="stroke:#181818;stroke-width:1;"/><polygon fill="#181818" points="377.87,90.56,368.1974,88.7052,373.0003,91.6939,370.0116,96.4967,377.87,90.56" style="stroke:#181818;stroke-width:1;stroke-linejoin:miter;stroke-miterlimit:10;"/></g><!--link BO to UC202--><g class="link" data-entity-1="ent0001" data-entity-2="ent0005" data-link-type="dependency" data-source-line="17" id="lnk11"><path d="M185.19,171 C217.48,171 253.85,171 294.93,171" fill="none" id="BO-to-UC202" style="stroke:#181818;stroke-width:1;"/><polygon fill="#181818" points="299.93,171,290.93,167,294.93,171,290.93,175,299.93,171" style="stroke:#181818;stroke-width:1;stroke-linejoin:miter;stroke-miterlimit:10;"/></g><!--link BO to UC204--><g class="link" data-entity-1="ent0001" data-entity-2="ent0007" data-link-type="dependency" data-source-line="18" id="lnk12"><path d="M185.16,194.8 C212.66,204.96 245.68,216.43 276,225 C312,235.18 347.5284,243.1631 381.9984,250.1031" fill="none" id="BO-to-UC204" style="stroke:#181818;stroke-width:1;"/><polygon fill="#181818" points="386.9,251.09,378.8665,245.3923,381.9984,250.1031,377.2875,253.2349,386.9,251.09" style="stroke:#181818;stroke-width:1;stroke-linejoin:miter;stroke-miterlimit:10;"/></g><!--link ATCC to UC203--><g class="link" data-entity-1="ent0002" data-entity-2="ent0006" data-link-type="dependency" data-source-line="20" id="lnk13"><path d="M240.29,489.85 C252.31,493.75 264.37,497.54 276,501 C307.07,510.25 336.421,518.1007 367.281,525.8607" fill="none" id="ATCC-to-UC203" style="stroke:#181818;stroke-width:1;"/><polygon fill="#181818" points="372.13,527.08,364.3772,521.006,367.281,525.8607,362.4263,528.7644,372.13,527.08" style="stroke:#181818;stroke-width:1;stroke-linejoin:miter;stroke-miterlimit:10;"/></g><!--link ATCC to UC205--><g class="link" data-entity-1="ent0002" data-entity-2="ent0008" data-link-type="dependency" data-source-line="21" id="lnk14"><path d="M240.15,449 C262.52,449 281.3,449 304.75,449" fill="none" id="ATCC-to-UC205" style="stroke:#181818;stroke-width:1;"/><polygon fill="#181818" points="309.75,449,300.75,445,304.75,449,300.75,453,309.75,449" style="stroke:#181818;stroke-width:1;stroke-linejoin:miter;stroke-miterlimit:10;"/></g><!--link ATCC to UC206--><g class="link" data-entity-1="ent0002" data-entity-2="ent0009" data-link-type="dependency" data-source-line="22" id="lnk15"><path d="M240.22,407.92 C252.25,404.06 264.34,400.35 276,397 C309.15,387.48 341.065,379.611 373.535,372.211" fill="none" id="ATCC-to-UC206" style="stroke:#181818;stroke-width:1;"/><polygon fill="#181818" points="378.41,371.1,368.7462,369.1998,373.535,372.211,370.5238,376.9998,378.41,371.1" style="stroke:#181818;stroke-width:1;stroke-linejoin:miter;stroke-miterlimit:10;"/></g><?plantuml-src PP9FJuD04CNl-oaczL8FH4jBZoQ5wBN6jdhnCeK1DbrOiZlOLEDtTq3x3q_aiVD-C_Ds3UKCRC7fecJ8jAEKjQsLt-cwGOSLD9ZkiA0L7mn1TunrOKWfJDaw6CLoRFDSfmJBXXpApn6WXtXvh5Yia-Iz7Y-qWxN3sZVMCIIsQh0-oDSOtDhUTziRktAbJerWz5YNMAUKWH1IXpBl4o6tZZoCtvxXPXAByKi1j9vIzEBOhCBx2GImQJ9a0ZpwAfkHWOmOjV5ziqqYbKDhADONAhHdSaFpNdC9kf90xZADXGHqueH3pbGuhvhsa7RBijvs0TgMPV3Sdiadm7G8c0bWRHk8e6LjzATaq4znddqsj4J7dexG1AohY_NnG_R6hP3u09ubmpCe6eBc0lgzK7aEQA2qhVDWy_zZpzMtKl4IWk3XByyB4LwAcLBTxPxqz5f6rtAkVW00?></g></svg>