<svg xmlns="http://www.w3.org/2000/svg" xmlns:xlink="http://www.w3.org/1999/xlink" contentStyleType="text/css" data-diagram-type="SEQUENCE" height="597px" preserveAspectRatio="none" style="width:1129px;height:597px;background:#FFFFFF;" version="1.1" viewBox="0 0 1129 597" width="1129px" zoomAndPan="magnify"><defs/><g><g><title>AirportController</title><rect fill="#FFFFFF" height="385.8594" style="stroke:#181818;stroke-width:1;" width="10" x="332.6543" y="112.4297"/></g><g><title>AirportStatisticsUseCase</title><rect fill="#FFFFFF" height="327.5938" style="stroke:#181818;stroke-width:1;" width="10" x="600.1982" y="141.5625"/></g><g><title>AirportRepository</title><rect fill="#FFFFFF" height="87.3984" style="stroke:#181818;stroke-width:1;" width="10" x="771.8613" y="170.6953"/></g><g><title>RouteRepository</title><rect fill="#FFFFFF" height="87.3984" style="stroke:#181818;stroke-width:1;" width="10" x="915.5278" y="287.2266"/></g><g><title>Database</title><rect fill="#FFFFFF" height="29.1328" style="stroke:#181818;stroke-width:1;" width="10" x="1087.3701" y="199.8281"/></g><g><title>Database</title><rect fill="#FFFFFF" height="29.1328" style="stroke:#181818;stroke-width:1;" width="10" x="1087.3701" y="316.3594"/></g><g><title>Backoffice Operator</title><rect fill="#000000" fill-opacity="0.00000" height="434.9922" width="8" x="73.8633" y="81.2969"/><line style="stroke:#181818;stroke-width:0.5;stroke-dasharray:5,5;" x1="77" x2="77" y1="81.2969" y2="516.2891"/></g><g><title>AirportController</title><rect fill="#000000" fill-opacity="0.00000" height="434.9922" width="8" x="333.6543" y="81.2969"/><line style="stroke:#181818;stroke-width:0.5;stroke-dasharray:5,5;" x1="337.1079" x2="337.1079" y1="81.2969" y2="516.2891"/></g><g><title>AirportStatisticsUseCase</title><rect fill="#000000" fill-opacity="0.00000" height="434.9922" width="8" x="601.1982" y="81.2969"/><line style="stroke:#181818;stroke-width:0.5;stroke-dasharray:5,5;" x1="605.0313" x2="605.0313" y1="81.2969" y2="516.2891"/></g><g><title>AirportRepository</title><rect fill="#000000" fill-opacity="0.00000" height="434.9922" width="8" x="772.8613" y="81.2969"/><line style="stroke:#181818;stroke-width:0.5;stroke-dasharray:5,5;" x1="776.3652" x2="776.3652" y1="81.2969" y2="516.2891"/></g><g><title>RouteRepository</title><rect fill="#000000" fill-opacity="0.00000" height="434.9922" width="8" x="916.5278" y="81.2969"/><line style="stroke:#181818;stroke-width:0.5;stroke-dasharray:5,5;" x1="920.3574" x2="920.3574" y1="81.2969" y2="516.2891"/></g><g><title>Database</title><rect fill="#000000" fill-opacity="0.00000" height="434.9922" width="8" x="1088.3701" y="81.2969"/><line style="stroke:#181818;stroke-width:0.5;stroke-dasharray:5,5;" x1="1091.9697" x2="1091.9697" y1="81.2969" y2="516.2891"/></g><g class="participant participant-head" data-participant="BO"><text fill="#000000" font-family="sans-serif" font-size="14" lengthAdjust="spacing" textLength="139.7266" x="5" y="77.9951">Backoffice Operator</text><ellipse cx="77.8633" cy="13.5" fill="#E2E2F0" rx="8" ry="8" style="stroke:#181818;stroke-width:0.5;"/><path d="M77.8633,21.5 L77.8633,48.5 M64.8633,29.5 L90.8633,29.5 M77.8633,48.5 L64.8633,63.5 M77.8633,48.5 L90.8633,63.5" fill="none" style="stroke:#181818;stroke-width:0.5;"/></g><g class="participant participant-tail" data-participant="BO"><text fill="#000000" font-family="sans-serif" font-size="14" lengthAdjust="spacing" textLength="139.7266" x="5" y="528.2842">Backoffice Operator</text><ellipse cx="77.8633" cy="540.0859" fill="#E2E2F0" rx="8" ry="8" style="stroke:#181818;stroke-width:0.5;"/><path d="M77.8633,548.0859 L77.8633,575.0859 M64.8633,556.0859 L90.8633,556.0859 M77.8633,575.0859 L64.8633,590.0859 M77.8633,575.0859 L90.8633,590.0859" fill="none" style="stroke:#181818;stroke-width:0.5;"/></g><g class="participant participant-head" data-participant="Ctrl"><rect fill="#E2E2F0" height="30.2969" rx="2.5" ry="2.5" style="stroke:#181818;stroke-width:0.5;" width="131.0928" x="272.1079" y="50"/><text fill="#000000" font-family="sans-serif" font-size="14" lengthAdjust="spacing" textLength="117.0928" x="279.1079" y="69.9951">AirportController</text></g><g class="participant participant-tail" data-participant="Ctrl"><rect fill="#E2E2F0" height="30.2969" rx="2.5" ry="2.5" style="stroke:#181818;stroke-width:0.5;" width="131.0928" x="272.1079" y="515.2891"/><text fill="#000000" font-family="sans-serif" font-size="14" lengthAdjust="spacing" textLength="117.0928" x="279.1079" y="535.2842">AirportController</text></g><g class="participant participant-head" data-participant="UC"><rect fill="#E2E2F0" height="30.2969" rx="2.5" ry="2.5" style="stroke:#181818;stroke-width:0.5;" width="186.334" x="512.0313" y="50"/><text fill="#000000" font-family="sans-serif" font-size="14" lengthAdjust="spacing" textLength="172.334" x="519.0313" y="69.9951">AirportStatisticsUseCase</text></g><g class="participant participant-tail" data-participant="UC"><rect fill="#E2E2F0" height="30.2969" rx="2.5" ry="2.5" style="stroke:#181818;stroke-width:0.5;" width="186.334" x="512.0313" y="515.2891"/><text fill="#000000" font-family="sans-serif" font-size="14" lengthAdjust="spacing" textLength="172.334" x="519.0313" y="535.2842">AirportStatisticsUseCase</text></g><g class="participant participant-head" data-participant="AirportRepo"><rect fill="#E2E2F0" height="30.2969" rx="2.5" ry="2.5" style="stroke:#181818;stroke-width:0.5;" width="136.9922" x="708.3652" y="50"/><text fill="#000000" font-family="sans-serif" font-size="14" lengthAdjust="spacing" textLength="122.9922" x="715.3652" y="69.9951">AirportRepository</text></g><g class="participant participant-tail" data-participant="AirportRepo"><rect fill="#E2E2F0" height="30.2969" rx="2.5" ry="2.5" style="stroke:#181818;stroke-width:0.5;" width="136.9922" x="708.3652" y="515.2891"/><text fill="#000000" font-family="sans-serif" font-size="14" lengthAdjust="spacing" textLength="122.9922" x="715.3652" y="535.2842">AirportRepository</text></g><g class="participant participant-head" data-participant="RouteRepo"><rect fill="#E2E2F0" height="30.2969" rx="2.5" ry="2.5" style="stroke:#181818;stroke-width:0.5;" width="130.3408" x="855.3574" y="50"/><text fill="#000000" font-family="sans-serif" font-size="14" lengthAdjust="spacing" textLength="116.3408" x="862.3574" y="69.9951">RouteRepository</text></g><g class="participant participant-tail" data-participant="RouteRepo"><rect fill="#E2E2F0" height="30.2969" rx="2.5" ry="2.5" style="stroke:#181818;stroke-width:0.5;" width="130.3408" x="855.3574" y="515.2891"/><text fill="#000000" font-family="sans-serif" font-size="14" lengthAdjust="spacing" textLength="116.3408" x="862.3574" y="535.2842">RouteRepository</text></g><g class="participant participant-head" data-participant="DB"><text fill="#000000" font-family="sans-serif" font-size="14" lengthAdjust="spacing" textLength="66.8008" x="1055.9697" y="77.9951">Database</text><path d="M1074.3701,29 C1074.3701,19 1092.3701,19 1092.3701,19 C1092.3701,19 1110.3701,19 1110.3701,29 L1110.3701,55 C1110.3701,65 1092.3701,65 1092.3701,65 C1092.3701,65 1074.3701,65 1074.3701,55 L1074.3701,29" fill="#E2E2F0" style="stroke:#181818;stroke-width:0.5;"/><path d="M1074.3701,29 C1074.3701,39 1092.3701,39 1092.3701,39 C1092.3701,39 1110.3701,39 1110.3701,29" fill="none" style="stroke:#181818;stroke-width:0.5;"/></g><g class="participant participant-tail" data-participant="DB"><text fill="#000000" font-family="sans-serif" font-size="14" lengthAdjust="spacing" textLength="66.8008" x="1055.9697" y="528.2842">Database</text><path d="M1074.3701,541.5859 C1074.3701,531.5859 1092.3701,531.5859 1092.3701,531.5859 C1092.3701,531.5859 1110.3701,531.5859 1110.3701,541.5859 L1110.3701,567.5859 C1110.3701,577.5859 1092.3701,577.5859 1092.3701,577.5859 C1092.3701,577.5859 1074.3701,577.5859 1074.3701,567.5859 L1074.3701,541.5859" fill="#E2E2F0" style="stroke:#181818;stroke-width:0.5;"/><path d="M1074.3701,541.5859 C1074.3701,551.5859 1092.3701,551.5859 1092.3701,551.5859 C1092.3701,551.5859 1110.3701,551.5859 1110.3701,541.5859" fill="none" style="stroke:#181818;stroke-width:0.5;"/></g><g><title>AirportController</title><rect fill="#FFFFFF" height="385.8594" style="stroke:#181818;stroke-width:1;" width="10" x="332.6543" y="112.4297"/></g><g><title>AirportStatisticsUseCase</title><rect fill="#FFFFFF" height="327.5938" style="stroke:#181818;stroke-width:1;" width="10" x="600.1982" y="141.5625"/></g><g><title>AirportRepository</title><rect fill="#FFFFFF" height="87.3984" style="stroke:#181818;stroke-width:1;" width="10" x="771.8613" y="170.6953"/></g><g><title>RouteRepository</title><rect fill="#FFFFFF" height="87.3984" style="stroke:#181818;stroke-width:1;" width="10" x="915.5278" y="287.2266"/></g><g><title>Database</title><rect fill="#FFFFFF" height="29.1328" style="stroke:#181818;stroke-width:1;" width="10" x="1087.3701" y="199.8281"/></g><g><title>Database</title><rect fill="#FFFFFF" height="29.1328" style="stroke:#181818;stroke-width:1;" width="10" x="1087.3701" y="316.3594"/></g><g class="message" data-participant-1="BO" data-participant-2="Ctrl"><polygon fill="#181818" points="320.6543,108.4297,330.6543,112.4297,320.6543,116.4297,324.6543,112.4297" style="stroke:#181818;stroke-width:1;"/><line style="stroke:#181818;stroke-width:1;" x1="77.8633" x2="326.6543" y1="112.4297" y2="112.4297"/><text fill="#000000" font-family="sans-serif" font-size="13" font-weight="bold" lengthAdjust="spacing" textLength="9.0454" x="84.8633" y="107.3638">1</text><text fill="#000000" font-family="sans-serif" font-size="13" lengthAdjust="spacing" textLength="222.7456" x="97.9087" y="107.3638">GET /api/airports/statistics/busiest</text></g><g class="message" data-participant-1="Ctrl" data-participant-2="UC"><polygon fill="#181818" points="588.1982,137.5625,598.1982,141.5625,588.1982,145.5625,592.1982,141.5625" style="stroke:#181818;stroke-width:1;"/><line style="stroke:#181818;stroke-width:1;" x1="342.6543" x2="594.1982" y1="141.5625" y2="141.5625"/><text fill="#000000" font-family="sans-serif" font-size="13" font-weight="bold" lengthAdjust="spacing" textLength="9.0454" x="349.6543" y="136.4966">2</text><text fill="#000000" font-family="sans-serif" font-size="13" lengthAdjust="spacing" textLength="62.3149" x="362.6997" y="136.4966">execute()</text></g><g class="message" data-participant-1="UC" data-participant-2="AirportRepo"><polygon fill="#181818" points="759.8613,166.6953,769.8613,170.6953,759.8613,174.6953,763.8613,170.6953" style="stroke:#181818;stroke-width:1;"/><line style="stroke:#181818;stroke-width:1;" x1="610.1982" x2="765.8613" y1="170.6953" y2="170.6953"/><text fill="#000000" font-family="sans-serif" font-size="13" font-weight="bold" lengthAdjust="spacing" textLength="9.0454" x="617.1982" y="165.6294">3</text><text fill="#000000" font-family="sans-serif" font-size="13" lengthAdjust="spacing" textLength="50.9399" x="630.2437" y="165.6294">findAll()</text></g><g class="message" data-participant-1="AirportRepo" data-participant-2="DB"><polygon fill="#181818" points="1075.3701,195.8281,1085.3701,199.8281,1075.3701,203.8281,1079.3701,199.8281" style="stroke:#181818;stroke-width:1;"/><line style="stroke:#181818;stroke-width:1;" x1="781.8613" x2="1081.3701" y1="199.8281" y2="199.8281"/><text fill="#000000" font-family="sans-serif" font-size="13" font-weight="bold" lengthAdjust="spacing" textLength="9.0454" x="788.8613" y="194.7622">4</text><text fill="#000000" font-family="sans-serif" font-size="13" lengthAdjust="spacing" textLength="138.7344" x="801.9067" y="194.7622">SELECT FROM airport</text></g><g class="message" data-participant-1="DB" data-participant-2="AirportRepo"><polygon fill="#181818" points="792.8613,224.9609,782.8613,228.9609,792.8613,232.9609,788.8613,228.9609" style="stroke:#181818;stroke-width:1;"/><line style="stroke:#181818;stroke-width:1;stroke-dasharray:2,2;" x1="786.8613" x2="1091.3701" y1="228.9609" y2="228.9609"/><text fill="#000000" font-family="sans-serif" font-size="13" font-weight="bold" lengthAdjust="spacing" textLength="9.0454" x="798.8613" y="223.895">5</text><text fill="#000000" font-family="sans-serif" font-size="13" lengthAdjust="spacing" textLength="69.6655" x="811.9067" y="223.895">all airports</text></g><g class="message" data-participant-1="AirportRepo" data-participant-2="UC"><polygon fill="#181818" points="621.1982,254.0938,611.1982,258.0938,621.1982,262.0938,617.1982,258.0938" style="stroke:#181818;stroke-width:1;"/><line style="stroke:#181818;stroke-width:1;stroke-dasharray:2,2;" x1="615.1982" x2="775.8613" y1="258.0938" y2="258.0938"/><text fill="#000000" font-family="sans-serif" font-size="13" font-weight="bold" lengthAdjust="spacing" textLength="9.0454" x="627.1982" y="253.0278">6</text><text fill="#000000" font-family="sans-serif" font-size="13" lengthAdjust="spacing" textLength="89.0068" x="640.2437" y="253.0278">List&lt;Airport&gt;</text></g><g class="message" data-participant-1="UC" data-participant-2="RouteRepo"><polygon fill="#181818" points="903.5278,283.2266,913.5278,287.2266,903.5278,291.2266,907.5278,287.2266" style="stroke:#181818;stroke-width:1;"/><line style="stroke:#181818;stroke-width:1;" x1="610.1982" x2="909.5278" y1="287.2266" y2="287.2266"/><text fill="#000000" font-family="sans-serif" font-size="13" font-weight="bold" lengthAdjust="spacing" textLength="9.0454" x="617.1982" y="282.1606">7</text><text fill="#000000" font-family="sans-serif" font-size="13" lengthAdjust="spacing" textLength="50.9399" x="630.2437" y="282.1606">findAll()</text></g><g class="message" data-participant-1="RouteRepo" data-participant-2="DB"><polygon fill="#181818" points="1075.3701,312.3594,1085.3701,316.3594,1075.3701,320.3594,1079.3701,316.3594" style="stroke:#181818;stroke-width:1;"/><line style="stroke:#181818;stroke-width:1;" x1="925.5278" x2="1081.3701" y1="316.3594" y2="316.3594"/><text fill="#000000" font-family="sans-serif" font-size="13" font-weight="bold" lengthAdjust="spacing" textLength="9.0454" x="932.5278" y="311.2935">8</text><text fill="#000000" font-family="sans-serif" font-size="13" lengthAdjust="spacing" textLength="129.7969" x="945.5732" y="311.2935">SELECT FROM route</text></g><g class="message" data-participant-1="DB" data-participant-2="RouteRepo"><polygon fill="#181818" points="936.5278,341.4922,926.5278,345.4922,936.5278,349.4922,932.5278,345.4922" style="stroke:#181818;stroke-width:1;"/><line style="stroke:#181818;stroke-width:1;stroke-dasharray:2,2;" x1="930.5278" x2="1091.3701" y1="345.4922" y2="345.4922"/><text fill="#000000" font-family="sans-serif" font-size="13" font-weight="bold" lengthAdjust="spacing" textLength="9.0454" x="942.5278" y="340.4263">9</text><text fill="#000000" font-family="sans-serif" font-size="13" lengthAdjust="spacing" textLength="60.728" x="955.5732" y="340.4263">all routes</text></g><g class="message" data-participant-1="RouteRepo" data-participant-2="UC"><polygon fill="#181818" points="621.1982,370.625,611.1982,374.625,621.1982,378.625,617.1982,374.625" style="stroke:#181818;stroke-width:1;"/><line style="stroke:#181818;stroke-width:1;stroke-dasharray:2,2;" x1="615.1982" x2="919.5278" y1="374.625" y2="374.625"/><text fill="#000000" font-family="sans-serif" font-size="13" font-weight="bold" lengthAdjust="spacing" textLength="18.0908" x="627.1982" y="369.5591">10</text><text fill="#000000" font-family="sans-serif" font-size="13" lengthAdjust="spacing" textLength="82.8306" x="649.2891" y="369.5591">List&lt;Route&gt;</text></g><path d="M615,387.625 L615,442.625 L800,442.625 L800,397.625 L790,387.625 L615,387.625" fill="#FEFFDD" style="stroke:#181818;stroke-width:0.5;"/><path d="M790,387.625 L790,397.625 L800,397.625 L790,387.625" fill="#FEFFDD" style="stroke:#181818;stroke-width:0.5;"/><text fill="#000000" font-family="sans-serif" font-size="13" lengthAdjust="spacing" textLength="164.3472" x="621" y="404.6919">Counts routes per airport</text><text fill="#000000" font-family="sans-serif" font-size="13" lengthAdjust="spacing" textLength="151.6582" x="621" y="419.8247">(origin OR destination),</text><text fill="#000000" font-family="sans-serif" font-size="13" lengthAdjust="spacing" textLength="144.5425" x="621" y="434.9575">then sorts descending</text><g class="message" data-participant-1="UC" data-participant-2="Ctrl"><polygon fill="#181818" points="353.6543,465.1563,343.6543,469.1563,353.6543,473.1563,349.6543,469.1563" style="stroke:#181818;stroke-width:1;"/><line style="stroke:#181818;stroke-width:1;stroke-dasharray:2,2;" x1="347.6543" x2="604.1982" y1="469.1563" y2="469.1563"/><text fill="#000000" font-family="sans-serif" font-size="13" font-weight="bold" lengthAdjust="spacing" textLength="18.0908" x="359.6543" y="464.0903">11</text><text fill="#000000" font-family="sans-serif" font-size="13" lengthAdjust="spacing" textLength="211.4531" x="381.7451" y="464.0903">List&lt;AirportStatisticsResponse&gt;</text></g><g class="message" data-participant-1="Ctrl" data-participant-2="BO"><polygon fill="#181818" points="88.8633,494.2891,78.8633,498.2891,88.8633,502.2891,84.8633,498.2891" style="stroke:#181818;stroke-width:1;"/><line style="stroke:#181818;stroke-width:1;stroke-dasharray:2,2;" x1="82.8633" x2="336.6543" y1="498.2891" y2="498.2891"/><text fill="#000000" font-family="sans-serif" font-size="13" font-weight="bold" lengthAdjust="spacing" textLength="18.0908" x="94.8633" y="493.2231">12</text><text fill="#000000" font-family="sans-serif" font-size="13" lengthAdjust="spacing" textLength="133.396" x="116.9541" y="493.2231">200 OK (JSON Array)</text></g><!--SRC=[RP9FRy8m3CNl-HGM9v0s5Us89YHQsAIDhLA16nVJ1eZM9LNYJkFRp_q3JLblrFwzsCyyBCdeyliWhS2KZ8LHYEcNEHvLAY4kf4KkZW0TXB4eq99ALO6QOBHGjZ2M8gF9cZoN3HMHpGUv3I4fnsMtSp929sjy5mt2YIoCKppvKbDUjOydfYHv1zzg8aF20q-2qRBzLGFBK8WmXiTvlIpCu7MrXG0B5M0pnmNkjcnmA9sIZghhg1yasJWKjPIVs4NyWFoLAGyTJpgAZGdkCU4jp-XHwMoHvpxgk_DXrYv3bcnMwrMqXPSa_e1smqxCPXXw_3S7y_mAEv59d-_Dk5fOiztdjZFt1VvshQFRXOVzT7z01mvviLLto8d_VkMZ1kzTU6_tFDJrdeDk7w4DVrjrEXEOOoEAJAd9jJE00tyzsrwF3QDAGvn0nX5GcaDXzEHXh-aiDRZgjbKdbJfJ-jISfukLVz8k_ObqXT6klsALbYPHBETipk1fEeNu7SPlc_WJ5jRYPU8BAlWF]--></g></svg>