<?plantuml 1.2026.1?><svg xmlns="http://www.w3.org/2000/svg" xmlns:xlink="http://www.w3.org/1999/xlink" contentStyleType="text/css" data-diagram-type="SEQUENCE" height="640px" preserveAspectRatio="none" style="width:1648px;height:640px;background:#FFFFFF;" version="1.1" viewBox="0 0 1648 640" width="1648px" zoomAndPan="magnify"><defs/><g><g><title>AirportController</title><rect fill="#FFFFFF" height="428.9922" style="stroke:#181818;stroke-width:1;" width="10" x="409.353" y="112.4297"/></g><g><title>UpdateAirportDetailsUseCase</title><rect fill="#FFFFFF" height="370.7266" style="stroke:#181818;stroke-width:1;" width="10" x="629.6025" y="141.5625"/></g><g><title>Airport</title><rect fill="#FFFFFF" height="79.3984" style="stroke:#181818;stroke-width:1;" width="10" x="1201.855" y="287.2266"/></g><g><title>AirportRepository</title><rect fill="#FFFFFF" height="87.3984" style="stroke:#181818;stroke-width:1;" width="10" x="1311.311" y="170.6953"/></g><g><title>AirportRepository</title><rect fill="#FFFFFF" height="87.3984" style="stroke:#181818;stroke-width:1;" width="10" x="1311.311" y="395.7578"/></g><g><title>Database</title><rect fill="#FFFFFF" height="29.1328" style="stroke:#181818;stroke-width:1;" width="10" x="1605.8535" y="199.8281"/></g><g><title>Database</title><rect fill="#FFFFFF" height="29.1328" style="stroke:#181818;stroke-width:1;" width="10" x="1605.8535" y="424.8906"/></g><g class="participant-lifeline" data-entity-uid="part1" data-qualified-name="BO" id="part1-lifeline"><g><title>Backoffice Operator</title><rect fill="#000000" fill-opacity="0.00000" height="478.125" width="8" x="73.8633" y="81.2969"/><line style="stroke:#181818;stroke-width:0.5;stroke-dasharray:5,5;" x1="77" x2="77" y1="81.2969" y2="559.4219"/></g></g><g class="participant-lifeline" data-entity-uid="part2" data-qualified-name="Ctrl" id="part2-lifeline"><g><title>AirportController</title><rect fill="#000000" fill-opacity="0.00000" height="478.125" width="8" x="410.353" y="81.2969"/><line style="stroke:#181818;stroke-width:0.5;stroke-dasharray:5,5;" x1="413.8066" x2="413.8066" y1="81.2969" y2="559.4219"/></g></g><g class="participant-lifeline" data-entity-uid="part3" data-qualified-name="UC" id="part3-lifeline"><g><title>UpdateAirportDetailsUseCase</title><rect fill="#000000" fill-opacity="0.00000" height="478.125" width="8" x="630.6025" y="81.2969"/><line style="stroke:#181818;stroke-width:0.5;stroke-dasharray:5,5;" x1="633.8159" x2="633.8159" y1="81.2969" y2="559.4219"/></g></g><g class="participant-lifeline" data-entity-uid="part4" data-qualified-name="Entity" id="part4-lifeline"><g><title>Airport</title><rect fill="#000000" fill-opacity="0.00000" height="478.125" width="8" x="1202.855" y="81.2969"/><line style="stroke:#181818;stroke-width:0.5;stroke-dasharray:5,5;" x1="1205.895" x2="1205.895" y1="81.2969" y2="559.4219"/></g></g><g class="participant-lifeline" data-entity-uid="part5" data-qualified-name="Repo" id="part5-lifeline"><g><title>AirportRepository</title><rect fill="#000000" fill-opacity="0.00000" height="478.125" width="8" x="1312.311" y="81.2969"/><line style="stroke:#181818;stroke-width:0.5;stroke-dasharray:5,5;" x1="1315.8149" x2="1315.8149" y1="81.2969" y2="559.4219"/></g></g><g class="participant-lifeline" data-entity-uid="part6" data-qualified-name="DB" id="part6-lifeline"><g><title>Database</title><rect fill="#000000" fill-opacity="0.00000" height="478.125" width="8" x="1606.8535" y="81.2969"/><line style="stroke:#181818;stroke-width:0.5;stroke-dasharray:5,5;" x1="1610.4531" x2="1610.4531" y1="81.2969" y2="559.4219"/></g></g><g class="participant participant-head" data-entity-uid="part1" data-qualified-name="BO" id="part1-head"><text fill="#000000" font-family="sans-serif" font-size="14" lengthAdjust="spacing" textLength="139.7266" x="5" y="77.9951">Backoffice Operator</text><ellipse cx="77.8633" cy="13.5" fill="#E2E2F0" rx="8" ry="8" style="stroke:#181818;stroke-width:0.5;"/><path d="M77.8633,21.5 L77.8633,48.5 M64.8633,29.5 L90.8633,29.5 M77.8633,48.5 L64.8633,63.5 M77.8633,48.5 L90.8633,63.5" fill="none" style="stroke:#181818;stroke-width:0.5;"/></g><g class="participant participant-tail" data-entity-uid="part1" data-qualified-name="BO" id="part1-tail"><text fill="#000000" font-family="sans-serif" font-size="14" lengthAdjust="spacing" textLength="139.7266" x="5" y="571.417">Backoffice Operator</text><ellipse cx="77.8633" cy="583.2188" fill="#E2E2F0" rx="8" ry="8" style="stroke:#181818;stroke-width:0.5;"/><path d="M77.8633,591.2188 L77.8633,618.2188 M64.8633,599.2188 L90.8633,599.2188 M77.8633,618.2188 L64.8633,633.2188 M77.8633,618.2188 L90.8633,633.2188" fill="none" style="stroke:#181818;stroke-width:0.5;"/></g><g class="participant participant-head" data-entity-uid="part2" data-qualified-name="Ctrl" id="part2-head"><rect fill="#E2E2F0" height="30.2969" rx="2.5" ry="2.5" style="stroke:#181818;stroke-width:0.5;" width="131.0928" x="348.8066" y="50"/><text fill="#000000" font-family="sans-serif" font-size="14" lengthAdjust="spacing" textLength="117.0928" x="355.8066" y="69.9951">AirportController</text></g><g class="participant participant-tail" data-entity-uid="part2" data-qualified-name="Ctrl" id="part2-tail"><rect fill="#E2E2F0" height="30.2969" rx="2.5" ry="2.5" style="stroke:#181818;stroke-width:0.5;" width="131.0928" x="348.8066" y="558.4219"/><text fill="#000000" font-family="sans-serif" font-size="14" lengthAdjust="spacing" textLength="117.0928" x="355.8066" y="578.417">AirportController</text></g><g class="participant participant-head" data-entity-uid="part3" data-qualified-name="UC" id="part3-head"><rect fill="#E2E2F0" height="30.2969" rx="2.5" ry="2.5" style="stroke:#181818;stroke-width:0.5;" width="221.5732" x="523.8159" y="50"/><text fill="#000000" font-family="sans-serif" font-size="14" lengthAdjust="spacing" textLength="207.5732" x="530.8159" y="69.9951">UpdateAirportDetailsUseCase</text></g><g class="participant participant-tail" data-entity-uid="part3" data-qualified-name="UC" id="part3-tail"><rect fill="#E2E2F0" height="30.2969" rx="2.5" ry="2.5" style="stroke:#181818;stroke-width:0.5;" width="221.5732" x="523.8159" y="558.4219"/><text fill="#000000" font-family="sans-serif" font-size="14" lengthAdjust="spacing" textLength="207.5732" x="530.8159" y="578.417">UpdateAirportDetailsUseCase</text></g><g class="participant participant-head" data-entity-uid="part4" data-qualified-name="Entity" id="part4-head"><rect fill="#E2E2F0" height="30.2969" rx="2.5" ry="2.5" style="stroke:#181818;stroke-width:0.5;" width="61.9199" x="1175.895" y="50"/><text fill="#000000" font-family="sans-serif" font-size="14" lengthAdjust="spacing" textLength="47.9199" x="1182.895" y="69.9951">Airport</text></g><g class="participant participant-tail" data-entity-uid="part4" data-qualified-name="Entity" id="part4-tail"><rect fill="#E2E2F0" height="30.2969" rx="2.5" ry="2.5" style="stroke:#181818;stroke-width:0.5;" width="61.9199" x="1175.895" y="558.4219"/><text fill="#000000" font-family="sans-serif" font-size="14" lengthAdjust="spacing" textLength="47.9199" x="1182.895" y="578.417">Airport</text></g><g class="participant participant-head" data-entity-uid="part5" data-qualified-name="Repo" id="part5-head"><rect fill="#E2E2F0" height="30.2969" rx="2.5" ry="2.5" style="stroke:#181818;stroke-width:0.5;" width="136.9922" x="1247.8149" y="50"/><text fill="#000000" font-family="sans-serif" font-size="14" lengthAdjust="spacing" textLength="122.9922" x="1254.8149" y="69.9951">AirportRepository</text></g><g class="participant participant-tail" data-entity-uid="part5" data-qualified-name="Repo" id="part5-tail"><rect fill="#E2E2F0" height="30.2969" rx="2.5" ry="2.5" style="stroke:#181818;stroke-width:0.5;" width="136.9922" x="1247.8149" y="558.4219"/><text fill="#000000" font-family="sans-serif" font-size="14" lengthAdjust="spacing" textLength="122.9922" x="1254.8149" y="578.417">AirportRepository</text></g><g class="participant participant-head" data-entity-uid="part6" data-qualified-name="DB" id="part6-head"><text fill="#000000" font-family="sans-serif" font-size="14" lengthAdjust="spacing" textLength="66.8008" x="1574.4531" y="77.9951">Database</text><path d="M1592.8535,29 C1592.8535,19 1610.8535,19 1610.8535,19 C1610.8535,19 1628.8535,19 1628.8535,29 L1628.8535,55 C1628.8535,65 1610.8535,65 1610.8535,65 C1610.8535,65 1592.8535,65 1592.8535,55 L1592.8535,29" fill="#E2E2F0" style="stroke:#181818;stroke-width:0.5;"/><path d="M1592.8535,29 C1592.8535,39 1610.8535,39 1610.8535,39 C1610.8535,39 1628.8535,39 1628.8535,29" fill="none" style="stroke:#181818;stroke-width:0.5;"/></g><g class="participant participant-tail" data-entity-uid="part6" data-qualified-name="DB" id="part6-tail"><text fill="#000000" font-family="sans-serif" font-size="14" lengthAdjust="spacing" textLength="66.8008" x="1574.4531" y="571.417">Database</text><path d="M1592.8535,584.7188 C1592.8535,574.7188 1610.8535,574.7188 1610.8535,574.7188 C1610.8535,574.7188 1628.8535,574.7188 1628.8535,584.7188 L1628.8535,610.7188 C1628.8535,620.7188 1610.8535,620.7188 1610.8535,620.7188 C1610.8535,620.7188 1592.8535,620.7188 1592.8535,610.7188 L1592.8535,584.7188" fill="#E2E2F0" style="stroke:#181818;stroke-width:0.5;"/><path d="M1592.8535,584.7188 C1592.8535,594.7188 1610.8535,594.7188 1610.8535,594.7188 C1610.8535,594.7188 1628.8535,594.7188 1628.8535,584.7188" fill="none" style="stroke:#181818;stroke-width:0.5;"/></g><g><title>AirportController</title><rect fill="#FFFFFF" height="428.9922" style="stroke:#181818;stroke-width:1;" width="10" x="409.353" y="112.4297"/></g><g><title>UpdateAirportDetailsUseCase</title><rect fill="#FFFFFF" height="370.7266" style="stroke:#181818;stroke-width:1;" width="10" x="629.6025" y="141.5625"/></g><g><title>Airport</title><rect fill="#FFFFFF" height="79.3984" style="stroke:#181818;stroke-width:1;" width="10" x="1201.855" y="287.2266"/></g><g><title>AirportRepository</title><rect fill="#FFFFFF" height="87.3984" style="stroke:#181818;stroke-width:1;" width="10" x="1311.311" y="170.6953"/></g><g><title>AirportRepository</title><rect fill="#FFFFFF" height="87.3984" style="stroke:#181818;stroke-width:1;" width="10" x="1311.311" y="395.7578"/></g><g><title>Database</title><rect fill="#FFFFFF" height="29.1328" style="stroke:#181818;stroke-width:1;" width="10" x="1605.8535" y="199.8281"/></g><g><title>Database</title><rect fill="#FFFFFF" height="29.1328" style="stroke:#181818;stroke-width:1;" width="10" x="1605.8535" y="424.8906"/></g><g class="message" data-entity-1="part1" data-entity-2="part2" id="msg1"><polygon fill="#181818" points="397.353,108.4297,407.353,112.4297,397.353,116.4297,401.353,112.4297" style="stroke:#181818;stroke-width:1;"/><line style="stroke:#181818;stroke-width:1;" x1="77.8633" x2="403.353" y1="112.4297" y2="112.4297"/><text fill="#000000" font-family="sans-serif" font-size="13" font-weight="bold" lengthAdjust="spacing" textLength="9.0454" x="84.8633" y="107.3638">1</text><text fill="#000000" font-family="sans-serif" font-size="13" lengthAdjust="spacing" textLength="299.4443" x="97.9087" y="107.3638">PATCH /api/airports/{iataCode}/details (JSON)</text></g><g class="message" data-entity-1="part2" data-entity-2="part3" id="msg2"><polygon fill="#181818" points="617.6025,137.5625,627.6025,141.5625,617.6025,145.5625,621.6025,141.5625" style="stroke:#181818;stroke-width:1;"/><line style="stroke:#181818;stroke-width:1;" x1="419.353" x2="623.6025" y1="141.5625" y2="141.5625"/><text fill="#000000" font-family="sans-serif" font-size="13" font-weight="bold" lengthAdjust="spacing" textLength="9.0454" x="426.353" y="136.4966">2</text><text fill="#000000" font-family="sans-serif" font-size="13" lengthAdjust="spacing" textLength="178.2041" x="439.3984" y="136.4966">execute(iataCode, request)</text></g><g class="message" data-entity-1="part3" data-entity-2="part5" id="msg3"><polygon fill="#181818" points="1299.311,166.6953,1309.311,170.6953,1299.311,174.6953,1303.311,170.6953" style="stroke:#181818;stroke-width:1;"/><line style="stroke:#181818;stroke-width:1;" x1="639.6025" x2="1305.311" y1="170.6953" y2="170.6953"/><text fill="#000000" font-family="sans-serif" font-size="13" font-weight="bold" lengthAdjust="spacing" textLength="9.0454" x="646.6025" y="165.6294">3</text><text fill="#000000" font-family="sans-serif" font-size="13" lengthAdjust="spacing" textLength="200.7827" x="659.6479" y="165.6294">findByIataCodeCode(iataCode)</text></g><g class="message" data-entity-1="part5" data-entity-2="part6" id="msg4"><polygon fill="#181818" points="1593.8535,195.8281,1603.8535,199.8281,1593.8535,203.8281,1597.8535,199.8281" style="stroke:#181818;stroke-width:1;"/><line style="stroke:#181818;stroke-width:1;" x1="1321.311" x2="1599.8535" y1="199.8281" y2="199.8281"/><text fill="#000000" font-family="sans-serif" font-size="13" font-weight="bold" lengthAdjust="spacing" textLength="9.0454" x="1328.311" y="194.7622">4</text><text fill="#000000" font-family="sans-serif" font-size="13" lengthAdjust="spacing" textLength="252.4971" x="1341.3564" y="194.7622">SELECT FROM airport WHERE code = ?</text></g><g class="message" data-entity-1="part6" data-entity-2="part5" id="msg5"><polygon fill="#181818" points="1332.311,224.9609,1322.311,228.9609,1332.311,232.9609,1328.311,228.9609" style="stroke:#181818;stroke-width:1;"/><line style="stroke:#181818;stroke-width:1;stroke-dasharray:2,2;" x1="1326.311" x2="1609.8535" y1="228.9609" y2="228.9609"/><text fill="#000000" font-family="sans-serif" font-size="13" font-weight="bold" lengthAdjust="spacing" textLength="9.0454" x="1338.311" y="223.895">5</text><text fill="#000000" font-family="sans-serif" font-size="13" lengthAdjust="spacing" textLength="89.7432" x="1351.3564" y="223.895">airport record</text></g><g class="message" data-entity-1="part5" data-entity-2="part3" id="msg6"><polygon fill="#181818" points="650.6025,254.0938,640.6025,258.0938,650.6025,262.0938,646.6025,258.0938" style="stroke:#181818;stroke-width:1;"/><line style="stroke:#181818;stroke-width:1;stroke-dasharray:2,2;" x1="644.6025" x2="1315.311" y1="258.0938" y2="258.0938"/><text fill="#000000" font-family="sans-serif" font-size="13" font-weight="bold" lengthAdjust="spacing" textLength="9.0454" x="656.6025" y="253.0278">6</text><text fill="#000000" font-family="sans-serif" font-size="13" lengthAdjust="spacing" textLength="44.4971" x="669.6479" y="253.0278">Airport</text></g><g class="message" data-entity-1="part3" data-entity-2="part4" id="msg7"><polygon fill="#181818" points="1189.855,283.2266,1199.855,287.2266,1189.855,291.2266,1193.855,287.2266" style="stroke:#181818;stroke-width:1;"/><line style="stroke:#181818;stroke-width:1;" x1="639.6025" x2="1195.855" y1="287.2266" y2="287.2266"/><text fill="#000000" font-family="sans-serif" font-size="13" font-weight="bold" lengthAdjust="spacing" textLength="9.0454" x="646.6025" y="282.1606">7</text><text fill="#000000" font-family="sans-serif" font-size="13" lengthAdjust="spacing" textLength="530.207" x="659.6479" y="282.1606">updateDetails(operationalHours, contacts, imagePath, services, terminals, gates)</text></g><path d="M1216,300.2266 L1216,340.2266 L1362,340.2266 L1362,310.2266 L1352,300.2266 L1216,300.2266" fill="#FEFFDD" style="stroke:#181818;stroke-width:0.5;"/><path d="M1352,300.2266 L1352,310.2266 L1362,310.2266 L1352,300.2266" fill="#FEFFDD" style="stroke:#181818;stroke-width:0.5;"/><text fill="#000000" font-family="sans-serif" font-size="13" lengthAdjust="spacing" textLength="125.6899" x="1222" y="317.2935">Only non-null fields</text><text fill="#000000" font-family="sans-serif" font-size="13" lengthAdjust="spacing" textLength="79.498" x="1222" y="332.4263">are updated</text><g class="message" data-entity-1="part4" data-entity-2="part3" id="msg8"><polygon fill="#181818" points="650.6025,362.625,640.6025,366.625,650.6025,370.625,646.6025,366.625" style="stroke:#181818;stroke-width:1;"/><line style="stroke:#181818;stroke-width:1;stroke-dasharray:2,2;" x1="644.6025" x2="1205.855" y1="366.625" y2="366.625"/><text fill="#000000" font-family="sans-serif" font-size="13" font-weight="bold" lengthAdjust="spacing" textLength="9.0454" x="656.6025" y="361.5591">8</text><text fill="#000000" font-family="sans-serif" font-size="13" lengthAdjust="spacing" textLength="4.1323" x="669.6479" y="361.5591">&#160;</text></g><g class="message" data-entity-1="part3" data-entity-2="part5" id="msg9"><polygon fill="#181818" points="1299.311,391.7578,1309.311,395.7578,1299.311,399.7578,1303.311,395.7578" style="stroke:#181818;stroke-width:1;"/><line style="stroke:#181818;stroke-width:1;" x1="639.6025" x2="1305.311" y1="395.7578" y2="395.7578"/><text fill="#000000" font-family="sans-serif" font-size="13" font-weight="bold" lengthAdjust="spacing" textLength="9.0454" x="646.6025" y="390.6919">9</text><text fill="#000000" font-family="sans-serif" font-size="13" lengthAdjust="spacing" textLength="84.1445" x="659.6479" y="390.6919">save(airport)</text></g><g class="message" data-entity-1="part5" data-entity-2="part6" id="msg10"><polygon fill="#181818" points="1593.8535,420.8906,1603.8535,424.8906,1593.8535,428.8906,1597.8535,424.8906" style="stroke:#181818;stroke-width:1;"/><line style="stroke:#181818;stroke-width:1;" x1="1321.311" x2="1599.8535" y1="424.8906" y2="424.8906"/><text fill="#000000" font-family="sans-serif" font-size="13" font-weight="bold" lengthAdjust="spacing" textLength="18.0908" x="1328.311" y="419.8247">10</text><text fill="#000000" font-family="sans-serif" font-size="13" lengthAdjust="spacing" textLength="225.4751" x="1350.4019" y="419.8247">UPDATE airport + collection tables</text></g><g class="message" data-entity-1="part6" data-entity-2="part5" id="msg11"><polygon fill="#181818" points="1332.311,450.0234,1322.311,454.0234,1332.311,458.0234,1328.311,454.0234" style="stroke:#181818;stroke-width:1;"/><line style="stroke:#181818;stroke-width:1;stroke-dasharray:2,2;" x1="1326.311" x2="1609.8535" y1="454.0234" y2="454.0234"/><text fill="#000000" font-family="sans-serif" font-size="13" font-weight="bold" lengthAdjust="spacing" textLength="18.0908" x="1338.311" y="448.9575">11</text><text fill="#000000" font-family="sans-serif" font-size="13" lengthAdjust="spacing" textLength="100.2295" x="1360.4019" y="448.9575">updated record</text></g><g class="message" data-entity-1="part5" data-entity-2="part3" id="msg12"><polygon fill="#181818" points="650.6025,479.1563,640.6025,483.1563,650.6025,487.1563,646.6025,483.1563" style="stroke:#181818;stroke-width:1;"/><line style="stroke:#181818;stroke-width:1;stroke-dasharray:2,2;" x1="644.6025" x2="1315.311" y1="483.1563" y2="483.1563"/><text fill="#000000" font-family="sans-serif" font-size="13" font-weight="bold" lengthAdjust="spacing" textLength="18.0908" x="656.6025" y="478.0903">12</text><text fill="#000000" font-family="sans-serif" font-size="13" lengthAdjust="spacing" textLength="98.5537" x="678.6934" y="478.0903">updatedAirport</text></g><g class="message" data-entity-1="part3" data-entity-2="part2" id="msg13"><polygon fill="#181818" points="430.353,508.2891,420.353,512.2891,430.353,516.2891,426.353,512.2891" style="stroke:#181818;stroke-width:1;"/><line style="stroke:#181818;stroke-width:1;stroke-dasharray:2,2;" x1="424.353" x2="633.6025" y1="512.2891" y2="512.2891"/><text fill="#000000" font-family="sans-serif" font-size="13" font-weight="bold" lengthAdjust="spacing" textLength="18.0908" x="436.353" y="507.2231">13</text><text fill="#000000" font-family="sans-serif" font-size="13" lengthAdjust="spacing" textLength="98.5537" x="458.4438" y="507.2231">updatedAirport</text></g><g class="message" data-entity-1="part2" data-entity-2="part1" id="msg14"><polygon fill="#181818" points="88.8633,537.4219,78.8633,541.4219,88.8633,545.4219,84.8633,541.4219" style="stroke:#181818;stroke-width:1;"/><line style="stroke:#181818;stroke-width:1;stroke-dasharray:2,2;" x1="82.8633" x2="413.353" y1="541.4219" y2="541.4219"/><text fill="#000000" font-family="sans-serif" font-size="13" font-weight="bold" lengthAdjust="spacing" textLength="18.0908" x="94.8633" y="536.356">14</text><text fill="#000000" font-family="sans-serif" font-size="13" lengthAdjust="spacing" textLength="94.0215" x="116.9541" y="536.356">200 OK (JSON)</text></g><?plantuml-src ZLFBRjim4BppAnO-EQWD1pa6I0lhKRX9KncEXLnosKXhXoXDgYHbr2ZwxrrHTAm0YT6304gScTtPMM7hZMvtpsG5LjvO62LO_JIRZQm8YeOiyiSHe8Ea40rQBolPeFOmcalR6EjJexqrIb6FIhrLRt5bKwEdYCx8erIkT9IYey0eqtTrmrsklVI7T-zNr1WdkRb3G7QlWWlXC-l2A8kdS9SbGYG5J3-7xk0QblDrke0PDdA6lPgR_P5CIKrDVsTrtoICRn-A7nVTNEIUBVJUHD1WhJ9b9VfDLUjfV2HFmDAlbfmVqDYWO31JkYQPj96wJWxV8gLxNla3Md0K6CpC4kOzvD_pT0rVLyKznBxXSP6lSgYO2ZVmvSHcpyoPdeeU2POgOsjHqn3QbpcQYXCUOa8pqKKV2kFQa6oCT6p2iaYZKIrCQzs4kzAU5VWaTxYb9VgN2JYoUzuj_kZ9xYIZ-RXb7JVm7dFNXizMRbyycCsfRg7L0RJHKzqgnTCaLRidZPPYHxM8qDxHq4SKVfk7mpsDutpE1b0ki_awVntb9tR8Yrzrfe7tJP4x4q3ixNy2YD2pEPos-MDqjtdzkZAQ_u1hkBgyXEBkkDa3Q0Vx1m00?></g></svg>