<?plantuml 1.2026.1?><svg xmlns="http://www.w3.org/2000/svg" xmlns:xlink="http://www.w3.org/1999/xlink" contentStyleType="text/css" data-diagram-type="SEQUENCE" height="581px" preserveAspectRatio="none" style="width:1782px;height:581px;background:#FFFFFF;" version="1.1" viewBox="0 0 1782 581" width="1782px" zoomAndPan="magnify"><defs/><g><g><title>AirportController</title><rect fill="#FFFFFF" height="370.7266" style="stroke:#181818;stroke-width:1;" width="10" x="611.3799" y="112.4297"/></g><g><title>RegisterAirportUseCase</title><rect fill="#FFFFFF" height="312.4609" style="stroke:#181818;stroke-width:1;" width="10" x="777.229" y="141.5625"/></g><g><title>Airport</title><rect fill="#FFFFFF" height="29.1328" style="stroke:#181818;stroke-width:1;" width="10" x="1332.2412" y="170.6953"/></g><g><title>Airport</title><rect fill="#FFFFFF" height="79.3984" style="stroke:#181818;stroke-width:1;" width="10" x="1332.2412" y="228.9609"/></g><g><title>AirportRepository</title><rect fill="#FFFFFF" height="87.3984" style="stroke:#181818;stroke-width:1;" width="10" x="1441.6973" y="337.4922"/></g><g><title>Database</title><rect fill="#FFFFFF" height="29.1328" style="stroke:#181818;stroke-width:1;" width="10" x="1739.6675" y="366.625"/></g><g class="participant-lifeline" data-entity-uid="part1" data-qualified-name="BO" id="part1-lifeline"><g><title>Backoffice Operator</title><rect fill="#000000" fill-opacity="0.00000" height="419.8594" width="8" x="73.8633" y="81.2969"/><line style="stroke:#181818;stroke-width:0.5;stroke-dasharray:5,5;" x1="77" x2="77" y1="81.2969" y2="501.1563"/></g></g><g class="participant-lifeline" data-entity-uid="part2" data-qualified-name="Ctrl" id="part2-lifeline"><g><title>AirportController</title><rect fill="#000000" fill-opacity="0.00000" height="419.8594" width="8" x="612.3799" y="81.2969"/><line style="stroke:#181818;stroke-width:0.5;stroke-dasharray:5,5;" x1="615.8335" x2="615.8335" y1="81.2969" y2="501.1563"/></g></g><g class="participant-lifeline" data-entity-uid="part3" data-qualified-name="UC" id="part3-lifeline"><g><title>RegisterAirportUseCase</title><rect fill="#000000" fill-opacity="0.00000" height="419.8594" width="8" x="778.229" y="81.2969"/><line style="stroke:#181818;stroke-width:0.5;stroke-dasharray:5,5;" x1="781.9263" x2="781.9263" y1="81.2969" y2="501.1563"/></g></g><g class="participant-lifeline" data-entity-uid="part4" data-qualified-name="Entity" id="part4-lifeline"><g><title>Airport</title><rect fill="#000000" fill-opacity="0.00000" height="419.8594" width="8" x="1333.2412" y="81.2969"/><line style="stroke:#181818;stroke-width:0.5;stroke-dasharray:5,5;" x1="1336.2813" x2="1336.2813" y1="81.2969" y2="501.1563"/></g></g><g class="participant-lifeline" data-entity-uid="part5" data-qualified-name="Repo" id="part5-lifeline"><g><title>AirportRepository</title><rect fill="#000000" fill-opacity="0.00000" height="419.8594" width="8" x="1442.6973" y="81.2969"/><line style="stroke:#181818;stroke-width:0.5;stroke-dasharray:5,5;" x1="1446.2012" x2="1446.2012" y1="81.2969" y2="501.1563"/></g></g><g class="participant-lifeline" data-entity-uid="part6" data-qualified-name="DB" id="part6-lifeline"><g><title>Database</title><rect fill="#000000" fill-opacity="0.00000" height="419.8594" width="8" x="1740.6675" y="81.2969"/><line style="stroke:#181818;stroke-width:0.5;stroke-dasharray:5,5;" x1="1744.2671" x2="1744.2671" y1="81.2969" y2="501.1563"/></g></g><g class="participant participant-head" data-entity-uid="part1" data-qualified-name="BO" id="part1-head"><text fill="#000000" font-family="sans-serif" font-size="14" lengthAdjust="spacing" textLength="139.7266" x="5" y="77.9951">Backoffice Operator</text><ellipse cx="77.8633" cy="13.5" fill="#E2E2F0" rx="8" ry="8" style="stroke:#181818;stroke-width:0.5;"/><path d="M77.8633,21.5 L77.8633,48.5 M64.8633,29.5 L90.8633,29.5 M77.8633,48.5 L64.8633,63.5 M77.8633,48.5 L90.8633,63.5" fill="none" style="stroke:#181818;stroke-width:0.5;"/></g><g class="participant participant-tail" data-entity-uid="part1" data-qualified-name="BO" id="part1-tail"><text fill="#000000" font-family="sans-serif" font-size="14" lengthAdjust="spacing" textLength="139.7266" x="5" y="513.1514">Backoffice Operator</text><ellipse cx="77.8633" cy="524.9531" fill="#E2E2F0" rx="8" ry="8" style="stroke:#181818;stroke-width:0.5;"/><path d="M77.8633,532.9531 L77.8633,559.9531 M64.8633,540.9531 L90.8633,540.9531 M77.8633,559.9531 L64.8633,574.9531 M77.8633,559.9531 L90.8633,574.9531" fill="none" style="stroke:#181818;stroke-width:0.5;"/></g><g class="participant participant-head" data-entity-uid="part2" data-qualified-name="Ctrl" id="part2-head"><rect fill="#E2E2F0" height="30.2969" rx="2.5" ry="2.5" style="stroke:#181818;stroke-width:0.5;" width="131.0928" x="550.8335" y="50"/><text fill="#000000" font-family="sans-serif" font-size="14" lengthAdjust="spacing" textLength="117.0928" x="557.8335" y="69.9951">AirportController</text></g><g class="participant participant-tail" data-entity-uid="part2" data-qualified-name="Ctrl" id="part2-tail"><rect fill="#E2E2F0" height="30.2969" rx="2.5" ry="2.5" style="stroke:#181818;stroke-width:0.5;" width="131.0928" x="550.8335" y="500.1563"/><text fill="#000000" font-family="sans-serif" font-size="14" lengthAdjust="spacing" textLength="117.0928" x="557.8335" y="520.1514">AirportController</text></g><g class="participant participant-head" data-entity-uid="part3" data-qualified-name="UC" id="part3-head"><rect fill="#E2E2F0" height="30.2969" rx="2.5" ry="2.5" style="stroke:#181818;stroke-width:0.5;" width="180.6055" x="691.9263" y="50"/><text fill="#000000" font-family="sans-serif" font-size="14" lengthAdjust="spacing" textLength="166.6055" x="698.9263" y="69.9951">RegisterAirportUseCase</text></g><g class="participant participant-tail" data-entity-uid="part3" data-qualified-name="UC" id="part3-tail"><rect fill="#E2E2F0" height="30.2969" rx="2.5" ry="2.5" style="stroke:#181818;stroke-width:0.5;" width="180.6055" x="691.9263" y="500.1563"/><text fill="#000000" font-family="sans-serif" font-size="14" lengthAdjust="spacing" textLength="166.6055" x="698.9263" y="520.1514">RegisterAirportUseCase</text></g><g class="participant participant-head" data-entity-uid="part4" data-qualified-name="Entity" id="part4-head"><rect fill="#E2E2F0" height="30.2969" rx="2.5" ry="2.5" style="stroke:#181818;stroke-width:0.5;" width="61.9199" x="1306.2813" y="50"/><text fill="#000000" font-family="sans-serif" font-size="14" lengthAdjust="spacing" textLength="47.9199" x="1313.2813" y="69.9951">Airport</text></g><g class="participant participant-tail" data-entity-uid="part4" data-qualified-name="Entity" id="part4-tail"><rect fill="#E2E2F0" height="30.2969" rx="2.5" ry="2.5" style="stroke:#181818;stroke-width:0.5;" width="61.9199" x="1306.2813" y="500.1563"/><text fill="#000000" font-family="sans-serif" font-size="14" lengthAdjust="spacing" textLength="47.9199" x="1313.2813" y="520.1514">Airport</text></g><g class="participant participant-head" data-entity-uid="part5" data-qualified-name="Repo" id="part5-head"><rect fill="#E2E2F0" height="30.2969" rx="2.5" ry="2.5" style="stroke:#181818;stroke-width:0.5;" width="136.9922" x="1378.2012" y="50"/><text fill="#000000" font-family="sans-serif" font-size="14" lengthAdjust="spacing" textLength="122.9922" x="1385.2012" y="69.9951">AirportRepository</text></g><g class="participant participant-tail" data-entity-uid="part5" data-qualified-name="Repo" id="part5-tail"><rect fill="#E2E2F0" height="30.2969" rx="2.5" ry="2.5" style="stroke:#181818;stroke-width:0.5;" width="136.9922" x="1378.2012" y="500.1563"/><text fill="#000000" font-family="sans-serif" font-size="14" lengthAdjust="spacing" textLength="122.9922" x="1385.2012" y="520.1514">AirportRepository</text></g><g class="participant participant-head" data-entity-uid="part6" data-qualified-name="DB" id="part6-head"><text fill="#000000" font-family="sans-serif" font-size="14" lengthAdjust="spacing" textLength="66.8008" x="1708.2671" y="77.9951">Database</text><path d="M1726.6675,29 C1726.6675,19 1744.6675,19 1744.6675,19 C1744.6675,19 1762.6675,19 1762.6675,29 L1762.6675,55 C1762.6675,65 1744.6675,65 1744.6675,65 C1744.6675,65 1726.6675,65 1726.6675,55 L1726.6675,29" fill="#E2E2F0" style="stroke:#181818;stroke-width:0.5;"/><path d="M1726.6675,29 C1726.6675,39 1744.6675,39 1744.6675,39 C1744.6675,39 1762.6675,39 1762.6675,29" fill="none" style="stroke:#181818;stroke-width:0.5;"/></g><g class="participant participant-tail" data-entity-uid="part6" data-qualified-name="DB" id="part6-tail"><text fill="#000000" font-family="sans-serif" font-size="14" lengthAdjust="spacing" textLength="66.8008" x="1708.2671" y="513.1514">Database</text><path d="M1726.6675,526.4531 C1726.6675,516.4531 1744.6675,516.4531 1744.6675,516.4531 C1744.6675,516.4531 1762.6675,516.4531 1762.6675,526.4531 L1762.6675,552.4531 C1762.6675,562.4531 1744.6675,562.4531 1744.6675,562.4531 C1744.6675,562.4531 1726.6675,562.4531 1726.6675,552.4531 L1726.6675,526.4531" fill="#E2E2F0" style="stroke:#181818;stroke-width:0.5;"/><path d="M1726.6675,526.4531 C1726.6675,536.4531 1744.6675,536.4531 1744.6675,536.4531 C1744.6675,536.4531 1762.6675,536.4531 1762.6675,526.4531" fill="none" style="stroke:#181818;stroke-width:0.5;"/></g><g><title>AirportController</title><rect fill="#FFFFFF" height="370.7266" style="stroke:#181818;stroke-width:1;" width="10" x="611.3799" y="112.4297"/></g><g><title>RegisterAirportUseCase</title><rect fill="#FFFFFF" height="312.4609" style="stroke:#181818;stroke-width:1;" width="10" x="777.229" y="141.5625"/></g><g><title>Airport</title><rect fill="#FFFFFF" height="29.1328" style="stroke:#181818;stroke-width:1;" width="10" x="1332.2412" y="170.6953"/></g><g><title>Airport</title><rect fill="#FFFFFF" height="79.3984" style="stroke:#181818;stroke-width:1;" width="10" x="1332.2412" y="228.9609"/></g><g><title>AirportRepository</title><rect fill="#FFFFFF" height="87.3984" style="stroke:#181818;stroke-width:1;" width="10" x="1441.6973" y="337.4922"/></g><g><title>Database</title><rect fill="#FFFFFF" height="29.1328" style="stroke:#181818;stroke-width:1;" width="10" x="1739.6675" y="366.625"/></g><g class="message" data-entity-1="part1" data-entity-2="part2" id="msg1"><polygon fill="#181818" points="599.3799,108.4297,609.3799,112.4297,599.3799,116.4297,603.3799,112.4297" style="stroke:#181818;stroke-width:1;"/><line style="stroke:#181818;stroke-width:1;" x1="77.8633" x2="605.3799" y1="112.4297" y2="112.4297"/><text fill="#000000" font-family="sans-serif" font-size="13" font-weight="bold" lengthAdjust="spacing" textLength="9.0454" x="84.8633" y="107.3638">1</text><text fill="#000000" font-family="sans-serif" font-size="13" lengthAdjust="spacing" textLength="501.4712" x="97.9087" y="107.3638">POST /api/airports (JSON with optional imagePath, services, terminals, gates)</text></g><g class="message" data-entity-1="part2" data-entity-2="part3" id="msg2"><polygon fill="#181818" points="765.229,137.5625,775.229,141.5625,765.229,145.5625,769.229,141.5625" style="stroke:#181818;stroke-width:1;"/><line style="stroke:#181818;stroke-width:1;" x1="621.3799" x2="771.229" y1="141.5625" y2="141.5625"/><text fill="#000000" font-family="sans-serif" font-size="13" font-weight="bold" lengthAdjust="spacing" textLength="9.0454" x="628.3799" y="136.4966">2</text><text fill="#000000" font-family="sans-serif" font-size="13" lengthAdjust="spacing" textLength="112.0171" x="641.4253" y="136.4966">execute(request)</text></g><g class="message" data-entity-1="part3" data-entity-2="part4" id="msg3"><polygon fill="#181818" points="1320.2412,166.6953,1330.2412,170.6953,1320.2412,174.6953,1324.2412,170.6953" style="stroke:#181818;stroke-width:1;"/><line style="stroke:#181818;stroke-width:1;" x1="787.229" x2="1326.2412" y1="170.6953" y2="170.6953"/><text fill="#000000" font-family="sans-serif" font-size="13" font-weight="bold" lengthAdjust="spacing" textLength="9.0454" x="794.229" y="165.6294">3</text><text fill="#000000" font-family="sans-serif" font-size="13" lengthAdjust="spacing" textLength="512.9668" x="807.2744" y="165.6294">new Airport(iataCode, name, city, country, region, timezone, lat, lon, runways)</text></g><g class="message" data-entity-1="part4" data-entity-2="part3" id="msg4"><polygon fill="#181818" points="798.229,195.8281,788.229,199.8281,798.229,203.8281,794.229,199.8281" style="stroke:#181818;stroke-width:1;"/><line style="stroke:#181818;stroke-width:1;stroke-dasharray:2,2;" x1="792.229" x2="1336.2412" y1="199.8281" y2="199.8281"/><text fill="#000000" font-family="sans-serif" font-size="13" font-weight="bold" lengthAdjust="spacing" textLength="9.0454" x="804.229" y="194.7622">4</text><text fill="#000000" font-family="sans-serif" font-size="13" lengthAdjust="spacing" textLength="43.5703" x="817.2744" y="194.7622">airport</text></g><g class="message" data-entity-1="part3" data-entity-2="part4" id="msg5"><polygon fill="#181818" points="1320.2412,224.9609,1330.2412,228.9609,1320.2412,232.9609,1324.2412,228.9609" style="stroke:#181818;stroke-width:1;"/><line style="stroke:#181818;stroke-width:1;" x1="787.229" x2="1326.2412" y1="228.9609" y2="228.9609"/><text fill="#000000" font-family="sans-serif" font-size="13" font-weight="bold" lengthAdjust="spacing" textLength="9.0454" x="794.229" y="223.895">5</text><text fill="#000000" font-family="sans-serif" font-size="13" lengthAdjust="spacing" textLength="498.4878" x="807.2744" y="223.895">updateDetails(operationalHours, null, imagePath, services, terminals, gates)</text></g><path d="M1347,241.9609 L1347,281.9609 L1544,281.9609 L1544,251.9609 L1534,241.9609 L1347,241.9609" fill="#FEFFDD" style="stroke:#181818;stroke-width:0.5;"/><path d="M1534,241.9609 L1534,251.9609 L1544,251.9609 L1534,241.9609" fill="#FEFFDD" style="stroke:#181818;stroke-width:0.5;"/><text fill="#000000" font-family="sans-serif" font-size="13" lengthAdjust="spacing" textLength="142.6826" x="1353" y="259.0278">Optional fields &#8212; only</text><text fill="#000000" font-family="sans-serif" font-size="13" lengthAdjust="spacing" textLength="176.7568" x="1353" y="274.1606">non-null values are applied</text><g class="message" data-entity-1="part4" data-entity-2="part3" id="msg6"><polygon fill="#181818" points="798.229,304.3594,788.229,308.3594,798.229,312.3594,794.229,308.3594" style="stroke:#181818;stroke-width:1;"/><line style="stroke:#181818;stroke-width:1;stroke-dasharray:2,2;" x1="792.229" x2="1336.2412" y1="308.3594" y2="308.3594"/><text fill="#000000" font-family="sans-serif" font-size="13" font-weight="bold" lengthAdjust="spacing" textLength="9.0454" x="804.229" y="303.2935">6</text><text fill="#000000" font-family="sans-serif" font-size="13" lengthAdjust="spacing" textLength="4.1323" x="817.2744" y="303.2935">&#160;</text></g><g class="message" data-entity-1="part3" data-entity-2="part5" id="msg7"><polygon fill="#181818" points="1429.6973,333.4922,1439.6973,337.4922,1429.6973,341.4922,1433.6973,337.4922" style="stroke:#181818;stroke-width:1;"/><line style="stroke:#181818;stroke-width:1;" x1="787.229" x2="1435.6973" y1="337.4922" y2="337.4922"/><text fill="#000000" font-family="sans-serif" font-size="13" font-weight="bold" lengthAdjust="spacing" textLength="9.0454" x="794.229" y="332.4263">7</text><text fill="#000000" font-family="sans-serif" font-size="13" lengthAdjust="spacing" textLength="84.1445" x="807.2744" y="332.4263">save(airport)</text></g><g class="message" data-entity-1="part5" data-entity-2="part6" id="msg8"><polygon fill="#181818" points="1727.6675,362.625,1737.6675,366.625,1727.6675,370.625,1731.6675,366.625" style="stroke:#181818;stroke-width:1;"/><line style="stroke:#181818;stroke-width:1;" x1="1451.6973" x2="1733.6675" y1="366.625" y2="366.625"/><text fill="#000000" font-family="sans-serif" font-size="13" font-weight="bold" lengthAdjust="spacing" textLength="9.0454" x="1458.6973" y="361.5591">8</text><text fill="#000000" font-family="sans-serif" font-size="13" lengthAdjust="spacing" textLength="255.9248" x="1471.7427" y="361.5591">INSERT INTO airport + collection tables</text></g><g class="message" data-entity-1="part6" data-entity-2="part5" id="msg9"><polygon fill="#181818" points="1462.6973,391.7578,1452.6973,395.7578,1462.6973,399.7578,1458.6973,395.7578" style="stroke:#181818;stroke-width:1;"/><line style="stroke:#181818;stroke-width:1;stroke-dasharray:2,2;" x1="1456.6973" x2="1743.6675" y1="395.7578" y2="395.7578"/><text fill="#000000" font-family="sans-serif" font-size="13" font-weight="bold" lengthAdjust="spacing" textLength="9.0454" x="1468.6973" y="390.6919">9</text><text fill="#000000" font-family="sans-serif" font-size="13" lengthAdjust="spacing" textLength="144.6885" x="1481.7427" y="390.6919">saved record (with ID)</text></g><g class="message" data-entity-1="part5" data-entity-2="part3" id="msg10"><polygon fill="#181818" points="798.229,420.8906,788.229,424.8906,798.229,428.8906,794.229,424.8906" style="stroke:#181818;stroke-width:1;"/><line style="stroke:#181818;stroke-width:1;stroke-dasharray:2,2;" x1="792.229" x2="1445.6973" y1="424.8906" y2="424.8906"/><text fill="#000000" font-family="sans-serif" font-size="13" font-weight="bold" lengthAdjust="spacing" textLength="18.0908" x="804.229" y="419.8247">10</text><text fill="#000000" font-family="sans-serif" font-size="13" lengthAdjust="spacing" textLength="83.1797" x="826.3198" y="419.8247">savedAirport</text></g><g class="message" data-entity-1="part3" data-entity-2="part2" id="msg11"><polygon fill="#181818" points="632.3799,450.0234,622.3799,454.0234,632.3799,458.0234,628.3799,454.0234" style="stroke:#181818;stroke-width:1;"/><line style="stroke:#181818;stroke-width:1;stroke-dasharray:2,2;" x1="626.3799" x2="781.229" y1="454.0234" y2="454.0234"/><text fill="#000000" font-family="sans-serif" font-size="13" font-weight="bold" lengthAdjust="spacing" textLength="18.0908" x="638.3799" y="448.9575">11</text><text fill="#000000" font-family="sans-serif" font-size="13" lengthAdjust="spacing" textLength="83.1797" x="660.4707" y="448.9575">savedAirport</text></g><g class="message" data-entity-1="part2" data-entity-2="part1" id="msg12"><polygon fill="#181818" points="88.8633,479.1563,78.8633,483.1563,88.8633,487.1563,84.8633,483.1563" style="stroke:#181818;stroke-width:1;"/><line style="stroke:#181818;stroke-width:1;stroke-dasharray:2,2;" x1="82.8633" x2="615.3799" y1="483.1563" y2="483.1563"/><text fill="#000000" font-family="sans-serif" font-size="13" font-weight="bold" lengthAdjust="spacing" textLength="18.0908" x="94.8633" y="478.0903">12</text><text fill="#000000" font-family="sans-serif" font-size="13" lengthAdjust="spacing" textLength="126.9976" x="116.9541" y="478.0903">201 Created (JSON)</text></g><?plantuml-src bLFBRjim4BphAnO-AQYDj3tcK22I0YGzH84VjrusqjecGf4gITbrJ_s8Vc6_f2DAXkqqEVH2KTeXPtPsn5smfckUnILS1Ujead7rOjThLGcLhJZ6nmcnfwnCMdP1LQfb4sXogrnhNSYj2SvgBGCg3qvVukQoKJw86_4hBpbxYU1L_kQLiNPdWWg7D-jpQQrNq7M8oFurgJdmC-wbIJ7kOgt8aYGhQVOb2gCRUYeNIxhcLbtpS9cdzEkYVAIz2bkoRL3Mi2RLy4QUE6odvCNjO8QV4ffe5AhORZY8l-ejKpjiXxQJo06kLGuc-I5L5oHryhqJ7yx0Q3i11C2XIO2Dx6diBbLe8BUrJCbmWxK21AljO3Gs3dvQ0pMgaP_M0A0vOEc_kSxi-N0kRBHn99eTnOtD9xMyHhvMrhMmLWe9hBHFRKn4zEZUTWvEc4xhwN_xDP8PYxrJcsqWkpvnbiSnh9NesjEVNx_96dtuPemrivwHTgpXAh4JuhRLIkhB7j_lh8yBE3pl91rjE1CMmnGXW1OPW0-FYxlv4ezbURIDFc0SY7pLooJ4JOi_NO7CuU3iagh6t2hhQafZq1wAgtE5E39m7kSJZzp-EwGeBpPoYlHxs3vcGoA1nKzmGvy_VgBS2OhraFeB4JtsBm00?></g></svg>