<?plantuml 1.2026.1?><svg xmlns="http://www.w3.org/2000/svg" xmlns:xlink="http://www.w3.org/1999/xlink" contentStyleType="text/css" data-diagram-type="SEQUENCE" height="647px" preserveAspectRatio="none" style="width:1782px;height:647px;background:#FFFFFF;" version="1.1" viewBox="0 0 1782 647" width="1782px" zoomAndPan="magnify"><defs/><g><g><title>AirportController</title><rect fill="#FFFFFF" height="436.125" style="stroke:#181818;stroke-width:1;" width="10" x="611.3799" y="112.4297"/></g><g><title>RegisterAirportUseCase</title><rect fill="#FFFFFF" height="312.4609" style="stroke:#181818;stroke-width:1;" width="10" x="777.229" y="206.9609"/></g><g><title>Airport</title><rect fill="#FFFFFF" height="29.1328" style="stroke:#181818;stroke-width:1;" width="10" x="1332.2412" y="236.0938"/></g><g><title>Airport</title><rect fill="#FFFFFF" height="79.3984" style="stroke:#181818;stroke-width:1;" width="10" x="1332.2412" y="294.3594"/></g><g><title>AirportRepository</title><rect fill="#FFFFFF" height="87.3984" style="stroke:#181818;stroke-width:1;" width="10" x="1441.6973" y="402.8906"/></g><g><title>Database</title><rect fill="#FFFFFF" height="29.1328" style="stroke:#181818;stroke-width:1;" width="10" x="1739.6675" y="432.0234"/></g><g class="participant-lifeline" data-entity-uid="part1" data-qualified-name="BO" id="part1-lifeline"><g><title>Backoffice Operator</title><rect fill="#000000" fill-opacity="0.00000" height="485.2578" width="8" x="73.8633" y="81.2969"/><line style="stroke:#181818;stroke-width:0.5;stroke-dasharray:5,5;" x1="77" x2="77" y1="81.2969" y2="566.5547"/></g></g><g class="participant-lifeline" data-entity-uid="part2" data-qualified-name="Ctrl" id="part2-lifeline"><g><title>AirportController</title><rect fill="#000000" fill-opacity="0.00000" height="485.2578" width="8" x="612.3799" y="81.2969"/><line style="stroke:#181818;stroke-width:0.5;stroke-dasharray:5,5;" x1="615.8335" x2="615.8335" y1="81.2969" y2="566.5547"/></g></g><g class="participant-lifeline" data-entity-uid="part3" data-qualified-name="UC" id="part3-lifeline"><g><title>RegisterAirportUseCase</title><rect fill="#000000" fill-opacity="0.00000" height="485.2578" width="8" x="778.229" y="81.2969"/><line style="stroke:#181818;stroke-width:0.5;stroke-dasharray:5,5;" x1="781.9263" x2="781.9263" y1="81.2969" y2="566.5547"/></g></g><g class="participant-lifeline" data-entity-uid="part4" data-qualified-name="Entity" id="part4-lifeline"><g><title>Airport</title><rect fill="#000000" fill-opacity="0.00000" height="485.2578" width="8" x="1333.2412" y="81.2969"/><line style="stroke:#181818;stroke-width:0.5;stroke-dasharray:5,5;" x1="1336.2813" x2="1336.2813" y1="81.2969" y2="566.5547"/></g></g><g class="participant-lifeline" data-entity-uid="part5" data-qualified-name="Repo" id="part5-lifeline"><g><title>AirportRepository</title><rect fill="#000000" fill-opacity="0.00000" height="485.2578" width="8" x="1442.6973" y="81.2969"/><line style="stroke:#181818;stroke-width:0.5;stroke-dasharray:5,5;" x1="1446.2012" x2="1446.2012" y1="81.2969" y2="566.5547"/></g></g><g class="participant-lifeline" data-entity-uid="part6" data-qualified-name="DB" id="part6-lifeline"><g><title>Database</title><rect fill="#000000" fill-opacity="0.00000" height="485.2578" width="8" x="1740.6675" y="81.2969"/><line style="stroke:#181818;stroke-width:0.5;stroke-dasharray:5,5;" x1="1744.2671" x2="1744.2671" y1="81.2969" y2="566.5547"/></g></g><g class="participant participant-head" data-entity-uid="part1" data-qualified-name="BO" id="part1-head"><text fill="#000000" font-family="sans-serif" font-size="14" lengthAdjust="spacing" textLength="139.7266" x="5" y="77.9951">Backoffice Operator</text><ellipse cx="77.8633" cy="13.5" fill="#E2E2F0" rx="8" ry="8" style="stroke:#181818;stroke-width:0.5;"/><path d="M77.8633,21.5 L77.8633,48.5 M64.8633,29.5 L90.8633,29.5 M77.8633,48.5 L64.8633,63.5 M77.8633,48.5 L90.8633,63.5" fill="none" style="stroke:#181818;stroke-width:0.5;"/></g><g class="participant participant-tail" data-entity-uid="part1" data-qualified-name="BO" id="part1-tail"><text fill="#000000" font-family="sans-serif" font-size="14" lengthAdjust="spacing" textLength="139.7266" x="5" y="578.5498">Backoffice Operator</text><ellipse cx="77.8633" cy="590.3516" fill="#E2E2F0" rx="8" ry="8" style="stroke:#181818;stroke-width:0.5;"/><path d="M77.8633,598.3516 L77.8633,625.3516 M64.8633,606.3516 L90.8633,606.3516 M77.8633,625.3516 L64.8633,640.3516 M77.8633,625.3516 L90.8633,640.3516" fill="none" style="stroke:#181818;stroke-width:0.5;"/></g><g class="participant participant-head" data-entity-uid="part2" data-qualified-name="Ctrl" id="part2-head"><rect fill="#E2E2F0" height="30.2969" rx="2.5" ry="2.5" style="stroke:#181818;stroke-width:0.5;" width="131.0928" x="550.8335" y="50"/><text fill="#000000" font-family="sans-serif" font-size="14" lengthAdjust="spacing" textLength="117.0928" x="557.8335" y="69.9951">AirportController</text></g><g class="participant participant-tail" data-entity-uid="part2" data-qualified-name="Ctrl" id="part2-tail"><rect fill="#E2E2F0" height="30.2969" rx="2.5" ry="2.5" style="stroke:#181818;stroke-width:0.5;" width="131.0928" x="550.8335" y="565.5547"/><text fill="#000000" font-family="sans-serif" font-size="14" lengthAdjust="spacing" textLength="117.0928" x="557.8335" y="585.5498">AirportController</text></g><g class="participant participant-head" data-entity-uid="part3" data-qualified-name="UC" id="part3-head"><rect fill="#E2E2F0" height="30.2969" rx="2.5" ry="2.5" style="stroke:#181818;stroke-width:0.5;" width="180.6055" x="691.9263" y="50"/><text fill="#000000" font-family="sans-serif" font-size="14" lengthAdjust="spacing" textLength="166.6055" x="698.9263" y="69.9951">RegisterAirportUseCase</text></g><g class="participant participant-tail" data-entity-uid="part3" data-qualified-name="UC" id="part3-tail"><rect fill="#E2E2F0" height="30.2969" rx="2.5" ry="2.5" style="stroke:#181818;stroke-width:0.5;" width="180.6055" x="691.9263" y="565.5547"/><text fill="#000000" font-family="sans-serif" font-size="14" lengthAdjust="spacing" textLength="166.6055" x="698.9263" y="585.5498">RegisterAirportUseCase</text></g><g class="participant participant-head" data-entity-uid="part4" data-qualified-name="Entity" id="part4-head"><rect fill="#E2E2F0" height="30.2969" rx="2.5" ry="2.5" style="stroke:#181818;stroke-width:0.5;" width="61.9199" x="1306.2813" y="50"/><text fill="#000000" font-family="sans-serif" font-size="14" lengthAdjust="spacing" textLength="47.9199" x="1313.2813" y="69.9951">Airport</text></g><g class="participant participant-tail" data-entity-uid="part4" data-qualified-name="Entity" id="part4-tail"><rect fill="#E2E2F0" height="30.2969" rx="2.5" ry="2.5" style="stroke:#181818;stroke-width:0.5;" width="61.9199" x="1306.2813" y="565.5547"/><text fill="#000000" font-family="sans-serif" font-size="14" lengthAdjust="spacing" textLength="47.9199" x="1313.2813" y="585.5498">Airport</text></g><g class="participant participant-head" data-entity-uid="part5" data-qualified-name="Repo" id="part5-head"><rect fill="#E2E2F0" height="30.2969" rx="2.5" ry="2.5" style="stroke:#181818;stroke-width:0.5;" width="136.9922" x="1378.2012" y="50"/><text fill="#000000" font-family="sans-serif" font-size="14" lengthAdjust="spacing" textLength="122.9922" x="1385.2012" y="69.9951">AirportRepository</text></g><g class="participant participant-tail" data-entity-uid="part5" data-qualified-name="Repo" id="part5-tail"><rect fill="#E2E2F0" height="30.2969" rx="2.5" ry="2.5" style="stroke:#181818;stroke-width:0.5;" width="136.9922" x="1378.2012" y="565.5547"/><text fill="#000000" font-family="sans-serif" font-size="14" lengthAdjust="spacing" textLength="122.9922" x="1385.2012" y="585.5498">AirportRepository</text></g><g class="participant participant-head" data-entity-uid="part6" data-qualified-name="DB" id="part6-head"><text fill="#000000" font-family="sans-serif" font-size="14" lengthAdjust="spacing" textLength="66.8008" x="1708.2671" y="77.9951">Database</text><path d="M1726.6675,29 C1726.6675,19 1744.6675,19 1744.6675,19 C1744.6675,19 1762.6675,19 1762.6675,29 L1762.6675,55 C1762.6675,65 1744.6675,65 1744.6675,65 C1744.6675,65 1726.6675,65 1726.6675,55 L1726.6675,29" fill="#E2E2F0" style="stroke:#181818;stroke-width:0.5;"/><path d="M1726.6675,29 C1726.6675,39 1744.6675,39 1744.6675,39 C1744.6675,39 1762.6675,39 1762.6675,29" fill="none" style="stroke:#181818;stroke-width:0.5;"/></g><g class="participant participant-tail" data-entity-uid="part6" data-qualified-name="DB" id="part6-tail"><text fill="#000000" font-family="sans-serif" font-size="14" lengthAdjust="spacing" textLength="66.8008" x="1708.2671" y="578.5498">Database</text><path d="M1726.6675,591.8516 C1726.6675,581.8516 1744.6675,581.8516 1744.6675,581.8516 C1744.6675,581.8516 1762.6675,581.8516 1762.6675,591.8516 L1762.6675,617.8516 C1762.6675,627.8516 1744.6675,627.8516 1744.6675,627.8516 C1744.6675,627.8516 1726.6675,627.8516 1726.6675,617.8516 L1726.6675,591.8516" fill="#E2E2F0" style="stroke:#181818;stroke-width:0.5;"/><path d="M1726.6675,591.8516 C1726.6675,601.8516 1744.6675,601.8516 1744.6675,601.8516 C1744.6675,601.8516 1762.6675,601.8516 1762.6675,591.8516" fill="none" style="stroke:#181818;stroke-width:0.5;"/></g><g><title>AirportController</title><rect fill="#FFFFFF" height="436.125" style="stroke:#181818;stroke-width:1;" width="10" x="611.3799" y="112.4297"/></g><g><title>RegisterAirportUseCase</title><rect fill="#FFFFFF" height="312.4609" style="stroke:#181818;stroke-width:1;" width="10" x="777.229" y="206.9609"/></g><g><title>Airport</title><rect fill="#FFFFFF" height="29.1328" style="stroke:#181818;stroke-width:1;" width="10" x="1332.2412" y="236.0938"/></g><g><title>Airport</title><rect fill="#FFFFFF" height="79.3984" style="stroke:#181818;stroke-width:1;" width="10" x="1332.2412" y="294.3594"/></g><g><title>AirportRepository</title><rect fill="#FFFFFF" height="87.3984" style="stroke:#181818;stroke-width:1;" width="10" x="1441.6973" y="402.8906"/></g><g><title>Database</title><rect fill="#FFFFFF" height="29.1328" style="stroke:#181818;stroke-width:1;" width="10" x="1739.6675" y="432.0234"/></g><g class="message" data-entity-1="part1" data-entity-2="part2" id="msg1"><polygon fill="#181818" points="599.3799,108.4297,609.3799,112.4297,599.3799,116.4297,603.3799,112.4297" style="stroke:#181818;stroke-width:1;"/><line style="stroke:#181818;stroke-width:1;" x1="77.8633" x2="605.3799" y1="112.4297" y2="112.4297"/><text fill="#000000" font-family="sans-serif" font-size="13" font-weight="bold" lengthAdjust="spacing" textLength="9.0454" x="84.8633" y="107.3638">1</text><text fill="#000000" font-family="sans-serif" font-size="13" lengthAdjust="spacing" textLength="501.4712" x="97.9087" y="107.3638">POST /api/airports (JSON with optional imagePath, services, terminals, gates)</text></g><path d="M626,125.4297 L626,180.4297 L881,180.4297 L881,135.4297 L871,125.4297 L626,125.4297" fill="#FEFFDD" style="stroke:#181818;stroke-width:0.5;"/><path d="M871,125.4297 L871,135.4297 L881,135.4297 L871,125.4297" fill="#FEFFDD" style="stroke:#181818;stroke-width:0.5;"/><text fill="#000000" font-family="sans-serif" font-size="13" lengthAdjust="spacing" textLength="193.9971" x="632" y="142.4966">@Valid validates IATA format,</text><text fill="#000000" font-family="sans-serif" font-size="13" lengthAdjust="spacing" textLength="234.3428" x="632" y="157.6294">non-blank fields, coordinate ranges,</text><text fill="#000000" font-family="sans-serif" font-size="13" lengthAdjust="spacing" textLength="129.2129" x="632" y="172.7622">at least one runway</text><g class="message" data-entity-1="part2" data-entity-2="part3" id="msg2"><polygon fill="#181818" points="765.229,202.9609,775.229,206.9609,765.229,210.9609,769.229,206.9609" style="stroke:#181818;stroke-width:1;"/><line style="stroke:#181818;stroke-width:1;" x1="621.3799" x2="771.229" y1="206.9609" y2="206.9609"/><text fill="#000000" font-family="sans-serif" font-size="13" font-weight="bold" lengthAdjust="spacing" textLength="9.0454" x="628.3799" y="201.895">2</text><text fill="#000000" font-family="sans-serif" font-size="13" lengthAdjust="spacing" textLength="112.0171" x="641.4253" y="201.895">execute(request)</text></g><g class="message" data-entity-1="part3" data-entity-2="part4" id="msg3"><polygon fill="#181818" points="1320.2412,232.0938,1330.2412,236.0938,1320.2412,240.0938,1324.2412,236.0938" style="stroke:#181818;stroke-width:1;"/><line style="stroke:#181818;stroke-width:1;" x1="787.229" x2="1326.2412" y1="236.0938" y2="236.0938"/><text fill="#000000" font-family="sans-serif" font-size="13" font-weight="bold" lengthAdjust="spacing" textLength="9.0454" x="794.229" y="231.0278">3</text><text fill="#000000" font-family="sans-serif" font-size="13" lengthAdjust="spacing" textLength="512.9668" x="807.2744" y="231.0278">new Airport(iataCode, name, city, country, region, timezone, lat, lon, runways)</text></g><g class="message" data-entity-1="part4" data-entity-2="part3" id="msg4"><polygon fill="#181818" points="798.229,261.2266,788.229,265.2266,798.229,269.2266,794.229,265.2266" style="stroke:#181818;stroke-width:1;"/><line style="stroke:#181818;stroke-width:1;stroke-dasharray:2,2;" x1="792.229" x2="1336.2412" y1="265.2266" y2="265.2266"/><text fill="#000000" font-family="sans-serif" font-size="13" font-weight="bold" lengthAdjust="spacing" textLength="9.0454" x="804.229" y="260.1606">4</text><text fill="#000000" font-family="sans-serif" font-size="13" lengthAdjust="spacing" textLength="43.5703" x="817.2744" y="260.1606">airport</text></g><g class="message" data-entity-1="part3" data-entity-2="part4" id="msg5"><polygon fill="#181818" points="1320.2412,290.3594,1330.2412,294.3594,1320.2412,298.3594,1324.2412,294.3594" style="stroke:#181818;stroke-width:1;"/><line style="stroke:#181818;stroke-width:1;" x1="787.229" x2="1326.2412" y1="294.3594" y2="294.3594"/><text fill="#000000" font-family="sans-serif" font-size="13" font-weight="bold" lengthAdjust="spacing" textLength="9.0454" x="794.229" y="289.2935">5</text><text fill="#000000" font-family="sans-serif" font-size="13" lengthAdjust="spacing" textLength="498.4878" x="807.2744" y="289.2935">updateDetails(operationalHours, null, imagePath, services, terminals, gates)</text></g><path d="M1347,307.3594 L1347,347.3594 L1544,347.3594 L1544,317.3594 L1534,307.3594 L1347,307.3594" fill="#FEFFDD" style="stroke:#181818;stroke-width:0.5;"/><path d="M1534,307.3594 L1534,317.3594 L1544,317.3594 L1534,307.3594" fill="#FEFFDD" style="stroke:#181818;stroke-width:0.5;"/><text fill="#000000" font-family="sans-serif" font-size="13" lengthAdjust="spacing" textLength="142.6826" x="1353" y="324.4263">Optional fields &#8212; only</text><text fill="#000000" font-family="sans-serif" font-size="13" lengthAdjust="spacing" textLength="176.7568" x="1353" y="339.5591">non-null values are applied</text><g class="message" data-entity-1="part4" data-entity-2="part3" id="msg6"><polygon fill="#181818" points="798.229,369.7578,788.229,373.7578,798.229,377.7578,794.229,373.7578" style="stroke:#181818;stroke-width:1;"/><line style="stroke:#181818;stroke-width:1;stroke-dasharray:2,2;" x1="792.229" x2="1336.2412" y1="373.7578" y2="373.7578"/><text fill="#000000" font-family="sans-serif" font-size="13" font-weight="bold" lengthAdjust="spacing" textLength="9.0454" x="804.229" y="368.6919">6</text><text fill="#000000" font-family="sans-serif" font-size="13" lengthAdjust="spacing" textLength="4.1323" x="817.2744" y="368.6919">&#160;</text></g><g class="message" data-entity-1="part3" data-entity-2="part5" id="msg7"><polygon fill="#181818" points="1429.6973,398.8906,1439.6973,402.8906,1429.6973,406.8906,1433.6973,402.8906" style="stroke:#181818;stroke-width:1;"/><line style="stroke:#181818;stroke-width:1;" x1="787.229" x2="1435.6973" y1="402.8906" y2="402.8906"/><text fill="#000000" font-family="sans-serif" font-size="13" font-weight="bold" lengthAdjust="spacing" textLength="9.0454" x="794.229" y="397.8247">7</text><text fill="#000000" font-family="sans-serif" font-size="13" lengthAdjust="spacing" textLength="84.1445" x="807.2744" y="397.8247">save(airport)</text></g><g class="message" data-entity-1="part5" data-entity-2="part6" id="msg8"><polygon fill="#181818" points="1727.6675,428.0234,1737.6675,432.0234,1727.6675,436.0234,1731.6675,432.0234" style="stroke:#181818;stroke-width:1;"/><line style="stroke:#181818;stroke-width:1;" x1="1451.6973" x2="1733.6675" y1="432.0234" y2="432.0234"/><text fill="#000000" font-family="sans-serif" font-size="13" font-weight="bold" lengthAdjust="spacing" textLength="9.0454" x="1458.6973" y="426.9575">8</text><text fill="#000000" font-family="sans-serif" font-size="13" lengthAdjust="spacing" textLength="255.9248" x="1471.7427" y="426.9575">INSERT INTO airport + collection tables</text></g><g class="message" data-entity-1="part6" data-entity-2="part5" id="msg9"><polygon fill="#181818" points="1462.6973,457.1563,1452.6973,461.1563,1462.6973,465.1563,1458.6973,461.1563" style="stroke:#181818;stroke-width:1;"/><line style="stroke:#181818;stroke-width:1;stroke-dasharray:2,2;" x1="1456.6973" x2="1743.6675" y1="461.1563" y2="461.1563"/><text fill="#000000" font-family="sans-serif" font-size="13" font-weight="bold" lengthAdjust="spacing" textLength="9.0454" x="1468.6973" y="456.0903">9</text><text fill="#000000" font-family="sans-serif" font-size="13" lengthAdjust="spacing" textLength="144.6885" x="1481.7427" y="456.0903">saved record (with ID)</text></g><g class="message" data-entity-1="part5" data-entity-2="part3" id="msg10"><polygon fill="#181818" points="798.229,486.2891,788.229,490.2891,798.229,494.2891,794.229,490.2891" style="stroke:#181818;stroke-width:1;"/><line style="stroke:#181818;stroke-width:1;stroke-dasharray:2,2;" x1="792.229" x2="1445.6973" y1="490.2891" y2="490.2891"/><text fill="#000000" font-family="sans-serif" font-size="13" font-weight="bold" lengthAdjust="spacing" textLength="18.0908" x="804.229" y="485.2231">10</text><text fill="#000000" font-family="sans-serif" font-size="13" lengthAdjust="spacing" textLength="83.1797" x="826.3198" y="485.2231">savedAirport</text></g><g class="message" data-entity-1="part3" data-entity-2="part2" id="msg11"><polygon fill="#181818" points="632.3799,515.4219,622.3799,519.4219,632.3799,523.4219,628.3799,519.4219" style="stroke:#181818;stroke-width:1;"/><line style="stroke:#181818;stroke-width:1;stroke-dasharray:2,2;" x1="626.3799" x2="781.229" y1="519.4219" y2="519.4219"/><text fill="#000000" font-family="sans-serif" font-size="13" font-weight="bold" lengthAdjust="spacing" textLength="18.0908" x="638.3799" y="514.356">11</text><text fill="#000000" font-family="sans-serif" font-size="13" lengthAdjust="spacing" textLength="107.5166" x="660.4707" y="514.356">AirportResponse</text></g><g class="message" data-entity-1="part2" data-entity-2="part1" id="msg12"><polygon fill="#181818" points="88.8633,544.5547,78.8633,548.5547,88.8633,552.5547,84.8633,548.5547" style="stroke:#181818;stroke-width:1;"/><line style="stroke:#181818;stroke-width:1;stroke-dasharray:2,2;" x1="82.8633" x2="615.3799" y1="548.5547" y2="548.5547"/><text fill="#000000" font-family="sans-serif" font-size="13" font-weight="bold" lengthAdjust="spacing" textLength="18.0908" x="94.8633" y="543.4888">12</text><text fill="#000000" font-family="sans-serif" font-size="13" lengthAdjust="spacing" textLength="199.1069" x="116.9541" y="543.4888">201 Created (JSON with _links)</text></g><?plantuml-src bLF1Sjem5BpxAzvm8bEOj3tcq2cOp9GUuWoGdZBJUTWFq20aLvAXzDIFw1VsIxgIJG9fUkZ5bgtLstsxJzm4QvhTKbp6PR2EUcCkjtQrKgLGKOjZ_EmHUneNMSqkg5BLR0BrHihLreNSck2irjAYyk3q9MucQ-M3k0x_u2LdBmdyaBzQCktTcg32yTNzcTJMA-Ww9cJyp2eEl4HTwaswLTgRZBDiND3mGn96DtHVp1TqpRMwvhQOf_xdUN571nKsPEkWh65DQiThkUUm6P0NjuSPVa1eOgUmY-MQW_YhQ9dQOzcsdHcBfLFhJI2xEZ5-_C9QLRIFptYAfgF5Y5RMxJWC7esnPhZKRBQqKg8hr2wjTHLuOYqsQp0_ueEqi4TTWx-DEV0non81Mdl8GIFVfMo2z9ryQyI7CsrmEGC4mDPJW8qSg3Eph-1NRYiPaE4TdYKWKKI3NB5mYCyQDAzsyWFi0zBGJJh-QuMS-z2brX4DJ-8whxDANY9VAclgQD940Ylj-pODO8haasqSp36DreF_ZgSZkypdYRCufTucGBz__eBF-jY64nbZUd2Ls0bnNMibrMMF_-uiJYSuFE-btzbm9YpDRe80EXa3EBsRtyuMU2sAastq1d7WXfLH9c6wjVZd4XXn71nUKbN8hSGOKJ_DzNHoTQuGHrhEKpxfoEZla9AyrCZp3NgwXBwsniivF4vQEvI0uzhTqFktxoXtWitg_9vzrSfi_OMcUEuF?></g></svg>