<svg xmlns="http://www.w3.org/2000/svg" xmlns:xlink="http://www.w3.org/1999/xlink" contentStyleType="text/css" data-diagram-type="SEQUENCE" height="531px" preserveAspectRatio="none" style="width:1686px;height:531px;background:#FFFFFF;" version="1.1" viewBox="0 0 1686 531" width="1686px" zoomAndPan="magnify"><defs/><g><g><title>AirportController</title><rect fill="#FFFFFF" height="320.4609" style="stroke:#181818;stroke-width:1;" width="10" x="292.8091" y="112.4297"/></g><g><title>ViewAirportRoutesUseCase</title><rect fill="#FFFFFF" height="262.1953" style="stroke:#181818;stroke-width:1;" width="10" x="470.5698" y="141.5625"/></g><g><title>AirportRepository</title><rect fill="#FFFFFF" height="87.3984" style="stroke:#181818;stroke-width:1;" width="10" x="726.6646" y="170.6953"/></g><g><title>RouteRepository</title><rect fill="#FFFFFF" height="87.3984" style="stroke:#181818;stroke-width:1;" width="10" x="1089.4712" y="287.2266"/></g><g><title>Database</title><rect fill="#FFFFFF" height="29.1328" style="stroke:#181818;stroke-width:1;" width="10" x="1644.0327" y="199.8281"/></g><g><title>Database</title><rect fill="#FFFFFF" height="29.1328" style="stroke:#181818;stroke-width:1;" width="10" x="1644.0327" y="316.3594"/></g><g><title>ATCC</title><rect fill="#000000" fill-opacity="0.00000" height="369.5938" width="8" x="22.8398" y="81.2969"/><line style="stroke:#181818;stroke-width:0.5;stroke-dasharray:5,5;" x1="26" x2="26" y1="81.2969" y2="450.8906"/></g><g><title>AirportController</title><rect fill="#000000" fill-opacity="0.00000" height="369.5938" width="8" x="293.8091" y="81.2969"/><line style="stroke:#181818;stroke-width:0.5;stroke-dasharray:5,5;" x1="297.2627" x2="297.2627" y1="81.2969" y2="450.8906"/></g><g><title>ViewAirportRoutesUseCase</title><rect fill="#000000" fill-opacity="0.00000" height="369.5938" width="8" x="471.5698" y="81.2969"/><line style="stroke:#181818;stroke-width:0.5;stroke-dasharray:5,5;" x1="475.3555" x2="475.3555" y1="81.2969" y2="450.8906"/></g><g><title>AirportRepository</title><rect fill="#000000" fill-opacity="0.00000" height="369.5938" width="8" x="727.6646" y="81.2969"/><line style="stroke:#181818;stroke-width:0.5;stroke-dasharray:5,5;" x1="731.1685" x2="731.1685" y1="81.2969" y2="450.8906"/></g><g><title>RouteRepository</title><rect fill="#000000" fill-opacity="0.00000" height="369.5938" width="8" x="1090.4712" y="81.2969"/><line style="stroke:#181818;stroke-width:0.5;stroke-dasharray:5,5;" x1="1094.3008" x2="1094.3008" y1="81.2969" y2="450.8906"/></g><g><title>Database</title><rect fill="#000000" fill-opacity="0.00000" height="369.5938" width="8" x="1645.0327" y="81.2969"/><line style="stroke:#181818;stroke-width:0.5;stroke-dasharray:5,5;" x1="1648.6323" x2="1648.6323" y1="81.2969" y2="450.8906"/></g><g class="participant participant-head" data-participant="ATCC"><text fill="#000000" font-family="sans-serif" font-size="14" lengthAdjust="spacing" textLength="37.6797" x="5" y="77.9951">ATCC</text><ellipse cx="26.8398" cy="13.5" fill="#E2E2F0" rx="8" ry="8" style="stroke:#181818;stroke-width:0.5;"/><path d="M26.8398,21.5 L26.8398,48.5 M13.8398,29.5 L39.8398,29.5 M26.8398,48.5 L13.8398,63.5 M26.8398,48.5 L39.8398,63.5" fill="none" style="stroke:#181818;stroke-width:0.5;"/></g><g class="participant participant-tail" data-participant="ATCC"><text fill="#000000" font-family="sans-serif" font-size="14" lengthAdjust="spacing" textLength="37.6797" x="5" y="462.8857">ATCC</text><ellipse cx="26.8398" cy="474.6875" fill="#E2E2F0" rx="8" ry="8" style="stroke:#181818;stroke-width:0.5;"/><path d="M26.8398,482.6875 L26.8398,509.6875 M13.8398,490.6875 L39.8398,490.6875 M26.8398,509.6875 L13.8398,524.6875 M26.8398,509.6875 L39.8398,524.6875" fill="none" style="stroke:#181818;stroke-width:0.5;"/></g><g class="participant participant-head" data-participant="Ctrl"><rect fill="#E2E2F0" height="30.2969" rx="2.5" ry="2.5" style="stroke:#181818;stroke-width:0.5;" width="131.0928" x="232.2627" y="50"/><text fill="#000000" font-family="sans-serif" font-size="14" lengthAdjust="spacing" textLength="117.0928" x="239.2627" y="69.9951">AirportController</text></g><g class="participant participant-tail" data-participant="Ctrl"><rect fill="#E2E2F0" height="30.2969" rx="2.5" ry="2.5" style="stroke:#181818;stroke-width:0.5;" width="131.0928" x="232.2627" y="449.8906"/><text fill="#000000" font-family="sans-serif" font-size="14" lengthAdjust="spacing" textLength="117.0928" x="239.2627" y="469.8857">AirportController</text></g><g class="participant participant-head" data-participant="UC"><rect fill="#E2E2F0" height="30.2969" rx="2.5" ry="2.5" style="stroke:#181818;stroke-width:0.5;" width="204.4287" x="373.3555" y="50"/><text fill="#000000" font-family="sans-serif" font-size="14" lengthAdjust="spacing" textLength="190.4287" x="380.3555" y="69.9951">ViewAirportRoutesUseCase</text></g><g class="participant participant-tail" data-participant="UC"><rect fill="#E2E2F0" height="30.2969" rx="2.5" ry="2.5" style="stroke:#181818;stroke-width:0.5;" width="204.4287" x="373.3555" y="449.8906"/><text fill="#000000" font-family="sans-serif" font-size="14" lengthAdjust="spacing" textLength="190.4287" x="380.3555" y="469.8857">ViewAirportRoutesUseCase</text></g><g class="participant participant-head" data-participant="AirportRepo"><rect fill="#E2E2F0" height="30.2969" rx="2.5" ry="2.5" style="stroke:#181818;stroke-width:0.5;" width="136.9922" x="663.1685" y="50"/><text fill="#000000" font-family="sans-serif" font-size="14" lengthAdjust="spacing" textLength="122.9922" x="670.1685" y="69.9951">AirportRepository</text></g><g class="participant participant-tail" data-participant="AirportRepo"><rect fill="#E2E2F0" height="30.2969" rx="2.5" ry="2.5" style="stroke:#181818;stroke-width:0.5;" width="136.9922" x="663.1685" y="449.8906"/><text fill="#000000" font-family="sans-serif" font-size="14" lengthAdjust="spacing" textLength="122.9922" x="670.1685" y="469.8857">AirportRepository</text></g><g class="participant participant-head" data-participant="RouteRepo"><rect fill="#E2E2F0" height="30.2969" rx="2.5" ry="2.5" style="stroke:#181818;stroke-width:0.5;" width="130.3408" x="1029.3008" y="50"/><text fill="#000000" font-family="sans-serif" font-size="14" lengthAdjust="spacing" textLength="116.3408" x="1036.3008" y="69.9951">RouteRepository</text></g><g class="participant participant-tail" data-participant="RouteRepo"><rect fill="#E2E2F0" height="30.2969" rx="2.5" ry="2.5" style="stroke:#181818;stroke-width:0.5;" width="130.3408" x="1029.3008" y="449.8906"/><text fill="#000000" font-family="sans-serif" font-size="14" lengthAdjust="spacing" textLength="116.3408" x="1036.3008" y="469.8857">RouteRepository</text></g><g class="participant participant-head" data-participant="DB"><text fill="#000000" font-family="sans-serif" font-size="14" lengthAdjust="spacing" textLength="66.8008" x="1612.6323" y="77.9951">Database</text><path d="M1631.0327,29 C1631.0327,19 1649.0327,19 1649.0327,19 C1649.0327,19 1667.0327,19 1667.0327,29 L1667.0327,55 C1667.0327,65 1649.0327,65 1649.0327,65 C1649.0327,65 1631.0327,65 1631.0327,55 L1631.0327,29" fill="#E2E2F0" style="stroke:#181818;stroke-width:0.5;"/><path d="M1631.0327,29 C1631.0327,39 1649.0327,39 1649.0327,39 C1649.0327,39 1667.0327,39 1667.0327,29" fill="none" style="stroke:#181818;stroke-width:0.5;"/></g><g class="participant participant-tail" data-participant="DB"><text fill="#000000" font-family="sans-serif" font-size="14" lengthAdjust="spacing" textLength="66.8008" x="1612.6323" y="462.8857">Database</text><path d="M1631.0327,476.1875 C1631.0327,466.1875 1649.0327,466.1875 1649.0327,466.1875 C1649.0327,466.1875 1667.0327,466.1875 1667.0327,476.1875 L1667.0327,502.1875 C1667.0327,512.1875 1649.0327,512.1875 1649.0327,512.1875 C1649.0327,512.1875 1631.0327,512.1875 1631.0327,502.1875 L1631.0327,476.1875" fill="#E2E2F0" style="stroke:#181818;stroke-width:0.5;"/><path d="M1631.0327,476.1875 C1631.0327,486.1875 1649.0327,486.1875 1649.0327,486.1875 C1649.0327,486.1875 1667.0327,486.1875 1667.0327,476.1875" fill="none" style="stroke:#181818;stroke-width:0.5;"/></g><g><title>AirportController</title><rect fill="#FFFFFF" height="320.4609" style="stroke:#181818;stroke-width:1;" width="10" x="292.8091" y="112.4297"/></g><g><title>ViewAirportRoutesUseCase</title><rect fill="#FFFFFF" height="262.1953" style="stroke:#181818;stroke-width:1;" width="10" x="470.5698" y="141.5625"/></g><g><title>AirportRepository</title><rect fill="#FFFFFF" height="87.3984" style="stroke:#181818;stroke-width:1;" width="10" x="726.6646" y="170.6953"/></g><g><title>RouteRepository</title><rect fill="#FFFFFF" height="87.3984" style="stroke:#181818;stroke-width:1;" width="10" x="1089.4712" y="287.2266"/></g><g><title>Database</title><rect fill="#FFFFFF" height="29.1328" style="stroke:#181818;stroke-width:1;" width="10" x="1644.0327" y="199.8281"/></g><g><title>Database</title><rect fill="#FFFFFF" height="29.1328" style="stroke:#181818;stroke-width:1;" width="10" x="1644.0327" y="316.3594"/></g><g class="message" data-participant-1="ATCC" data-participant-2="Ctrl"><polygon fill="#181818" points="280.8091,108.4297,290.8091,112.4297,280.8091,116.4297,284.8091,112.4297" style="stroke:#181818;stroke-width:1;"/><line style="stroke:#181818;stroke-width:1;" x1="26.8398" x2="286.8091" y1="112.4297" y2="112.4297"/><text fill="#000000" font-family="sans-serif" font-size="13" font-weight="bold" lengthAdjust="spacing" textLength="9.0454" x="33.8398" y="107.3638">1</text><text fill="#000000" font-family="sans-serif" font-size="13" lengthAdjust="spacing" textLength="233.9238" x="46.8853" y="107.3638">GET /api/airports/{iataCode}/routes</text></g><g class="message" data-participant-1="Ctrl" data-participant-2="UC"><polygon fill="#181818" points="458.5698,137.5625,468.5698,141.5625,458.5698,145.5625,462.5698,141.5625" style="stroke:#181818;stroke-width:1;"/><line style="stroke:#181818;stroke-width:1;" x1="302.8091" x2="464.5698" y1="141.5625" y2="141.5625"/><text fill="#000000" font-family="sans-serif" font-size="13" font-weight="bold" lengthAdjust="spacing" textLength="9.0454" x="309.8091" y="136.4966">2</text><text fill="#000000" font-family="sans-serif" font-size="13" lengthAdjust="spacing" textLength="120.2373" x="322.8545" y="136.4966">execute(iataCode)</text></g><g class="message" data-participant-1="UC" data-participant-2="AirportRepo"><polygon fill="#181818" points="714.6646,166.6953,724.6646,170.6953,714.6646,174.6953,718.6646,170.6953" style="stroke:#181818;stroke-width:1;"/><line style="stroke:#181818;stroke-width:1;" x1="480.5698" x2="720.6646" y1="170.6953" y2="170.6953"/><text fill="#000000" font-family="sans-serif" font-size="13" font-weight="bold" lengthAdjust="spacing" textLength="9.0454" x="487.5698" y="165.6294">3</text><text fill="#000000" font-family="sans-serif" font-size="13" lengthAdjust="spacing" textLength="214.0493" x="500.6152" y="165.6294">existsByIataCodeCode(iataCode)</text></g><g class="message" data-participant-1="AirportRepo" data-participant-2="DB"><polygon fill="#181818" points="1632.0327,195.8281,1642.0327,199.8281,1632.0327,203.8281,1636.0327,199.8281" style="stroke:#181818;stroke-width:1;"/><line style="stroke:#181818;stroke-width:1;" x1="736.6646" x2="1638.0327" y1="199.8281" y2="199.8281"/><text fill="#000000" font-family="sans-serif" font-size="13" font-weight="bold" lengthAdjust="spacing" textLength="9.0454" x="743.6646" y="194.7622">4</text><text fill="#000000" font-family="sans-serif" font-size="13" lengthAdjust="spacing" textLength="319.7632" x="756.71" y="194.7622">SELECT COUNT(*) FROM airport WHERE code = ?</text></g><g class="message" data-participant-1="DB" data-participant-2="AirportRepo"><polygon fill="#181818" points="747.6646,224.9609,737.6646,228.9609,747.6646,232.9609,743.6646,228.9609" style="stroke:#181818;stroke-width:1;"/><line style="stroke:#181818;stroke-width:1;stroke-dasharray:2,2;" x1="741.6646" x2="1648.0327" y1="228.9609" y2="228.9609"/><text fill="#000000" font-family="sans-serif" font-size="13" font-weight="bold" lengthAdjust="spacing" textLength="9.0454" x="753.6646" y="223.895">5</text><text fill="#000000" font-family="sans-serif" font-size="13" lengthAdjust="spacing" textLength="8.271" x="766.71" y="223.895">1</text></g><g class="message" data-participant-1="AirportRepo" data-participant-2="UC"><polygon fill="#181818" points="491.5698,254.0938,481.5698,258.0938,491.5698,262.0938,487.5698,258.0938" style="stroke:#181818;stroke-width:1;"/><line style="stroke:#181818;stroke-width:1;stroke-dasharray:2,2;" x1="485.5698" x2="730.6646" y1="258.0938" y2="258.0938"/><text fill="#000000" font-family="sans-serif" font-size="13" font-weight="bold" lengthAdjust="spacing" textLength="9.0454" x="497.5698" y="253.0278">6</text><text fill="#000000" font-family="sans-serif" font-size="13" lengthAdjust="spacing" textLength="26.6792" x="510.6152" y="253.0278">true</text></g><g class="message" data-participant-1="UC" data-participant-2="RouteRepo"><polygon fill="#181818" points="1077.4712,283.2266,1087.4712,287.2266,1077.4712,291.2266,1081.4712,287.2266" style="stroke:#181818;stroke-width:1;"/><line style="stroke:#181818;stroke-width:1;" x1="480.5698" x2="1083.4712" y1="287.2266" y2="287.2266"/><text fill="#000000" font-family="sans-serif" font-size="13" font-weight="bold" lengthAdjust="spacing" textLength="9.0454" x="487.5698" y="282.1606">7</text><text fill="#000000" font-family="sans-serif" font-size="13" lengthAdjust="spacing" textLength="576.856" x="500.6152" y="282.1606">findByOriginAirportIataCodeCodeOrDestinationAirportIataCodeCode(iataCode, iataCode)</text></g><g class="message" data-participant-1="RouteRepo" data-participant-2="DB"><polygon fill="#181818" points="1632.0327,312.3594,1642.0327,316.3594,1632.0327,320.3594,1636.0327,316.3594" style="stroke:#181818;stroke-width:1;"/><line style="stroke:#181818;stroke-width:1;" x1="1099.4712" x2="1638.0327" y1="316.3594" y2="316.3594"/><text fill="#000000" font-family="sans-serif" font-size="13" font-weight="bold" lengthAdjust="spacing" textLength="9.0454" x="1106.4712" y="311.2935">8</text><text fill="#000000" font-family="sans-serif" font-size="13" lengthAdjust="spacing" textLength="512.5161" x="1119.5166" y="311.2935">SELECT FROM route WHERE origin_airport_id = ? OR destination_airport_id = ?</text></g><g class="message" data-participant-1="DB" data-participant-2="RouteRepo"><polygon fill="#181818" points="1110.4712,341.4922,1100.4712,345.4922,1110.4712,349.4922,1106.4712,345.4922" style="stroke:#181818;stroke-width:1;"/><line style="stroke:#181818;stroke-width:1;stroke-dasharray:2,2;" x1="1104.4712" x2="1648.0327" y1="345.4922" y2="345.4922"/><text fill="#000000" font-family="sans-serif" font-size="13" font-weight="bold" lengthAdjust="spacing" textLength="9.0454" x="1116.4712" y="340.4263">9</text><text fill="#000000" font-family="sans-serif" font-size="13" lengthAdjust="spacing" textLength="88.7021" x="1129.5166" y="340.4263">list of records</text></g><g class="message" data-participant-1="RouteRepo" data-participant-2="UC"><polygon fill="#181818" points="491.5698,370.625,481.5698,374.625,491.5698,378.625,487.5698,374.625" style="stroke:#181818;stroke-width:1;"/><line style="stroke:#181818;stroke-width:1;stroke-dasharray:2,2;" x1="485.5698" x2="1093.4712" y1="374.625" y2="374.625"/><text fill="#000000" font-family="sans-serif" font-size="13" font-weight="bold" lengthAdjust="spacing" textLength="18.0908" x="497.5698" y="369.5591">10</text><text fill="#000000" font-family="sans-serif" font-size="13" lengthAdjust="spacing" textLength="82.8306" x="519.6606" y="369.5591">List&lt;Route&gt;</text></g><g class="message" data-participant-1="UC" data-participant-2="Ctrl"><polygon fill="#181818" points="313.8091,399.7578,303.8091,403.7578,313.8091,407.7578,309.8091,403.7578" style="stroke:#181818;stroke-width:1;"/><line style="stroke:#181818;stroke-width:1;stroke-dasharray:2,2;" x1="307.8091" x2="474.5698" y1="403.7578" y2="403.7578"/><text fill="#000000" font-family="sans-serif" font-size="13" font-weight="bold" lengthAdjust="spacing" textLength="18.0908" x="319.8091" y="398.6919">11</text><text fill="#000000" font-family="sans-serif" font-size="13" lengthAdjust="spacing" textLength="41.4058" x="341.8999" y="398.6919">routes</text></g><g class="message" data-participant-1="Ctrl" data-participant-2="ATCC"><polygon fill="#181818" points="37.8398,428.8906,27.8398,432.8906,37.8398,436.8906,33.8398,432.8906" style="stroke:#181818;stroke-width:1;"/><line style="stroke:#181818;stroke-width:1;stroke-dasharray:2,2;" x1="31.8398" x2="296.8091" y1="432.8906" y2="432.8906"/><text fill="#000000" font-family="sans-serif" font-size="13" font-weight="bold" lengthAdjust="spacing" textLength="18.0908" x="43.8398" y="427.8247">12</text><text fill="#000000" font-family="sans-serif" font-size="13" lengthAdjust="spacing" textLength="133.396" x="65.9307" y="427.8247">200 OK (JSON Array)</text></g><!--SRC=[RL9TJuCm57tdLzpiQJCkJ1yNdHa5FwSa3FHnwQ0pJP2IjgYByR_Rbcvqo4EJfZtdtdFElRYHh6e-jeHxE9UCmsYP8ZG2B41Vl1fpINDQuqggByfhnYLYbUIiB0atE2HvUOfxfUJBOXFMI28oGH0MnC2puQ89gPcWIi6-RTwzdi9DmHxu-EOLMEAjwWIZqDuC80myJzk1wSB8XJdSHIdukAO-RZi9_uSg2c85-VMvKQqJePzOajQYPvYgGeOKdtoJN8761zAaGok7NcPwEIuCXGefWls3fUWpn7UzknLKmJ1GTTRHAa8fe3XxISTd4xXDucUmDk3jFaeYo5L5k8QRhgYAG96d_qHTU0LnGISD3sObRuYBSnLQgySPAFYELaMmZpbzfvM5kfvZ7X8XQOKbPKF_nqpEOI2TRjXToruo9X0pGni7Cr8sDgCDBNGs42TGT49wlqF9kHvBDKjWE-0aPxmGlHGTQOSCLufmPTuNBhYpOuBi5jJke0FLUzNke9wYNkSvNCvc43_1-74Tly2ISxoVk1GD_mC0]--></g></svg>