<svg xmlns="http://www.w3.org/2000/svg" xmlns:xlink="http://www.w3.org/1999/xlink" contentStyleType="text/css" data-diagram-type="DESCRIPTION" height="475px" preserveAspectRatio="none" style="width:612px;height:475px;background:#FFFFFF;" version="1.1" viewBox="0 0 612 475" width="612px" zoomAndPan="magnify"><?plantuml 1.2026.4?><defs/><g><!--cluster Aircraft Management (WP #1A)--><g class="cluster" data-qualified-name="Aircraft Management .WP .1A." data-source-line="7" id="ent0003"><rect fill="none" height="454" rx="2.5" ry="2.5" style="stroke:#181818;stroke-width:1;" width="314" x="284" y="7"/><text fill="#000000" font-family="sans-serif" font-size="14" font-weight="700" lengthAdjust="spacing" textLength="204.5928" x="338.7036" y="23.5332">Aircraft Management (WP #1A)</text></g><!--entity UC101--><g class="entity" data-qualified-name="Aircraft Management .WP .1A..UC101" data-source-line="8" id="ent0004"><ellipse cx="440.9683" cy="67.9937" fill="#F1F1F1" rx="110.4683" ry="24.4937" style="stroke:#181818;stroke-width:0.5;"/><text fill="#000000" font-family="sans-serif" font-size="14" lengthAdjust="spacing" textLength="196.0752" x="342.9307" y="73.2983">US101 - Register aircraft model</text></g><!--entity UC102--><g class="entity" data-qualified-name="Aircraft Management .WP .1A..UC102" data-source-line="9" id="ent0005"><ellipse cx="441.065" cy="318.013" fill="#F1F1F1" rx="140.565" ry="30.513" style="stroke:#181818;stroke-width:0.5;"/><text fill="#000000" font-family="sans-serif" font-size="14" lengthAdjust="spacing" textLength="260.6611" x="310.7344" y="323.3177">US102 - Register specific aircraft instance</text></g><!--entity UC103--><g class="entity" data-qualified-name="Aircraft Management .WP .1A..UC103" data-source-line="10" id="ent0006"><ellipse cx="441.1779" cy="150.2356" fill="#F1F1F1" rx="101.6779" ry="22.7356" style="stroke:#181818;stroke-width:0.5;"/><text fill="#000000" font-family="sans-serif" font-size="14" lengthAdjust="spacing" textLength="176.627" x="352.8645" y="155.5403">US103 - View aircraft details</text></g><!--entity UC104--><g class="entity" data-qualified-name="Aircraft Management .WP .1A..UC104" data-source-line="11" id="ent0007"><ellipse cx="441.1777" cy="229.8355" fill="#F1F1F1" rx="97.1777" ry="21.8355" style="stroke:#181818;stroke-width:0.5;"/><text fill="#000000" font-family="sans-serif" font-size="14" lengthAdjust="spacing" textLength="166.5098" x="357.9228" y="235.1402">US104 - Search for aircraft</text></g><!--entity UC105--><g class="entity" data-qualified-name="Aircraft Management .WP .1A..UC105" data-source-line="12" id="ent0008"><ellipse cx="440.9504" cy="414.0901" fill="#F1F1F1" rx="140.9504" ry="30.5901" style="stroke:#181818;stroke-width:0.5;"/><text fill="#000000" font-family="sans-serif" font-size="14" lengthAdjust="spacing" textLength="261.4746" x="310.2131" y="419.3948">US105 - Update aircraft operational status</text></g><!--entity BO--><g class="entity" data-qualified-name="BO" data-source-line="4" id="ent0001"><ellipse cx="122.8618" cy="87.5" fill="#F1F1F1" rx="8" ry="8" style="stroke:#181818;stroke-width:0.5;"/><path d="M122.8618,95.5 L122.8618,122.5 M109.8618,103.5 L135.8618,103.5 M122.8618,122.5 L109.8618,137.5 M122.8618,122.5 L135.8618,137.5" fill="none" style="stroke:#181818;stroke-width:0.5;"/><text fill="#000000" font-family="sans-serif" font-size="14" lengthAdjust="spacing" textLength="123.7236" x="61" y="153.5332">Backoffice Operator</text></g><!--entity ATCC--><g class="entity" data-qualified-name="ATCC" data-source-line="5" id="ent0002"><ellipse cx="123.0962" cy="224" fill="#F1F1F1" rx="8" ry="8" style="stroke:#181818;stroke-width:0.5;"/><path d="M123.0962,232 L123.0962,259 M110.0962,240 L136.0962,240 M123.0962,259 L110.0962,274 M123.0962,259 L136.0962,274" fill="none" style="stroke:#181818;stroke-width:0.5;"/><text fill="#000000" font-family="sans-serif" font-size="14" lengthAdjust="spacing" textLength="38.1104" x="6" y="290.0332">ATCC</text><text fill="#000000" font-family="sans-serif" font-size="14" lengthAdjust="spacing" textLength="234.1924" x="6" y="307.6426">(Air Transport Company Collaborator)</text></g><!--link BO to UC101--><g class="link" data-entity-1="ent0001" data-entity-2="ent0004" data-link-type="dependency" data-source-line="15" id="lnk9"><path d="M185.3,108.3 C232.24,100.87 292.7314,91.3012 345.5214,82.9512" fill="none" id="BO-to-UC101" style="stroke:#181818;stroke-width:1;"/><polygon fill="#181818" points="350.46,82.17,340.9456,79.6252,345.5214,82.9512,342.1954,87.527,350.46,82.17" style="stroke:#181818;stroke-width:1;stroke-linejoin:miter;stroke-miterlimit:10;"/></g><!--link BO to UC103--><g class="link" data-entity-1="ent0001" data-entity-2="ent0006" data-link-type="dependency" data-source-line="16" id="lnk10"><path d="M185.3,124.21 C231.61,128.9 290.9455,134.906 343.3555,140.216" fill="none" id="BO-to-UC103" style="stroke:#181818;stroke-width:1;"/><polygon fill="#181818" points="348.33,140.72,339.779,135.8332,343.3555,140.216,338.9726,143.7924,348.33,140.72" style="stroke:#181818;stroke-width:1;stroke-linejoin:miter;stroke-miterlimit:10;"/></g><!--link ATCC to UC102--><g class="link" data-entity-1="ent0002" data-entity-2="ent0005" data-link-type="dependency" data-source-line="18" id="lnk11"><path d="M240.32,283.25 C269.89,288.39 296.624,293.043 325.824,298.123" fill="none" id="ATCC-to-UC102" style="stroke:#181818;stroke-width:1;"/><polygon fill="#181818" points="330.75,298.98,322.5688,293.4966,325.824,298.123,321.1976,301.3782,330.75,298.98" style="stroke:#181818;stroke-width:1;stroke-linejoin:miter;stroke-miterlimit:10;"/></g><!--link ATCC to UC103--><g class="link" data-entity-1="ent0002" data-entity-2="ent0006" data-link-type="dependency" data-source-line="19" id="lnk12"><path d="M215.12,215.46 C234.87,206.23 255.88,197.2 276,190 C304.42,179.83 331.6468,172.489 359.8668,166.009" fill="none" id="ATCC-to-UC103" style="stroke:#181818;stroke-width:1;"/><polygon fill="#181818" points="364.74,164.89,355.0731,163.0057,359.8668,166.009,356.8635,170.8027,364.74,164.89" style="stroke:#181818;stroke-width:1;stroke-linejoin:miter;stroke-miterlimit:10;"/></g><!--link ATCC to UC104--><g class="link" data-entity-1="ent0002" data-entity-2="ent0007" data-link-type="dependency" data-source-line="20" id="lnk13"><path d="M240.32,250.85 C277.45,246.97 312.917,243.2685 347.637,239.6485" fill="none" id="ATCC-to-UC104" style="stroke:#181818;stroke-width:1;"/><polygon fill="#181818" points="352.61,239.13,343.2437,236.0849,347.637,239.6485,344.0733,244.0417,352.61,239.13" style="stroke:#181818;stroke-width:1;stroke-linejoin:miter;stroke-miterlimit:10;"/></g><!--link ATCC to UC105--><g class="link" data-entity-1="ent0002" data-entity-2="ent0008" data-link-type="dependency" data-source-line="21" id="lnk14"><path d="M184.97,310.71 C211.75,329.94 244.28,351.06 276,366 C297.61,376.18 317.0497,383.2673 340.1197,390.1673" fill="none" id="ATCC-to-UC105" style="stroke:#181818;stroke-width:1;"/><polygon fill="#181818" points="344.91,391.6,337.4336,385.1888,340.1197,390.1673,335.1412,392.8533,344.91,391.6" style="stroke:#181818;stroke-width:1;stroke-linejoin:miter;stroke-miterlimit:10;"/></g><?plantuml-src NP5FJyCm3CNl-HJMk8n39TO_LwIrPpJ4DhXmCQdRHKkJACc49iHtnwrOk_OKlVZzxET4KnCXMl2gFKMebISPbJKYd9LnwB43X_ACBUtZLHFqPJIj9Y5GHkjXLNBPDesI13j77lbo1HYWtDqSsqDLVPhrLdauU3J1MH-Xifr3S-LJQ_oo0_SuWBrTY74GyyfBZnpp1Gq7wSX4M7-ymiDcoyIF0BW4aXZOUjnldZQGm1krAaJoW3UsipNfeV-nOiyIIk-Xu4WgtcYYbGcSHjBO85qsoBZ1kwBlYQafej9XHB8baZEo9_Jo18sTeev0lWGA1ewknaZJ53kyEVyOQk2CyJ8DBCIl4EKEakJvV-axaGdHF_IeqxdCvZAVoqBy0G00?></g></svg>