<?plantuml 1.2026.1?><svg xmlns="http://www.w3.org/2000/svg" xmlns:xlink="http://www.w3.org/1999/xlink" contentStyleType="text/css" data-diagram-type="DESCRIPTION" height="488px" preserveAspectRatio="none" style="width:666px;height:488px;background:#FFFFFF;" version="1.1" viewBox="0 0 666 488" width="666px" zoomAndPan="magnify"><defs/><g><!--cluster Aircraft Management (WP #1A)--><g class="cluster" data-qualified-name="Aircraft Management .WP .1A." data-source-line="7" id="ent0004"><rect fill="none" height="475" rx="2.5" ry="2.5" style="stroke:#181818;stroke-width:1;" width="346.2" x="314.15" y="7"/><text fill="#000000" font-family="sans-serif" font-size="14" font-weight="bold" lengthAdjust="spacing" textLength="248.4521" x="363.0239" y="21.9951">Aircraft Management (WP #1A)</text></g><!--entity UC101--><g class="entity" data-qualified-name="Aircraft Management .WP .1A..UC101" data-source-line="8" id="ent0005"><ellipse cx="487.2467" cy="68.9973" fill="#F1F1F1" rx="120.8867" ry="26.5773" style="stroke:#181818;stroke-width:0.5;"/><text fill="#000000" font-family="sans-serif" font-size="14" lengthAdjust="spacing" textLength="221.2451" x="376.6242" y="73.6458">US101 - Register aircraft model</text></g><!--entity UC102--><g class="entity" data-qualified-name="Aircraft Management .WP .1A..UC102" data-source-line="9" id="ent0006"><ellipse cx="487.2498" cy="431.998" fill="#F1F1F1" rx="155.6898" ry="33.538" style="stroke:#181818;stroke-width:0.5;"/><text fill="#000000" font-family="sans-serif" font-size="14" lengthAdjust="spacing" textLength="294.3076" x="340.096" y="436.6464">US102 - Register specific aircraft instance</text></g><!--entity UC103--><g class="entity" data-qualified-name="Aircraft Management .WP .1A..UC103" data-source-line="10" id="ent0007"><ellipse cx="487.255" cy="155.005" fill="#F1F1F1" rx="110.775" ry="24.555" style="stroke:#181818;stroke-width:0.5;"/><text fill="#000000" font-family="sans-serif" font-size="14" lengthAdjust="spacing" textLength="199.5547" x="387.4776" y="159.6534">US103 - View aircraft details</text></g><!--entity UC104--><g class="entity" data-qualified-name="Aircraft Management .WP .1A..UC104" data-source-line="11" id="ent0008"><ellipse cx="487.2485" cy="340.0017" fill="#F1F1F1" rx="105.0085" ry="23.4017" style="stroke:#181818;stroke-width:0.5;"/><text fill="#000000" font-family="sans-serif" font-size="14" lengthAdjust="spacing" textLength="187.0381" x="393.7295" y="344.6501">US104 - Search for aircraft</text></g><!--entity UC105--><g class="entity" data-qualified-name="Aircraft Management .WP .1A..UC105" data-source-line="12" id="ent0009"><ellipse cx="487.2534" cy="248.0007" fill="#F1F1F1" rx="157.1034" ry="33.8207" style="stroke:#181818;stroke-width:0.5;"/><text fill="#000000" font-family="sans-serif" font-size="14" lengthAdjust="spacing" textLength="297.2402" x="338.6333" y="252.6491">US105 - Update aircraft operational status</text></g><!--entity BO--><g class="entity" data-qualified-name="BO" data-source-line="4" id="ent0002"><ellipse cx="138.0733" cy="96.35" fill="#F1F1F1" rx="8" ry="8" style="stroke:#181818;stroke-width:0.5;"/><path d="M138.0733,104.35 L138.0733,131.35 M125.0733,112.35 L151.0733,112.35 M138.0733,131.35 L125.0733,146.35 M138.0733,131.35 L151.0733,146.35" fill="none" style="stroke:#181818;stroke-width:0.5;"/><text fill="#000000" font-family="sans-serif" font-size="14" lengthAdjust="spacing" textLength="139.7266" x="68.21" y="160.8451">Backoffice Operator</text></g><!--entity ATCC--><g class="entity" data-qualified-name="ATCC" data-source-line="5" id="ent0003"><ellipse cx="138.0737" cy="240.2" fill="#F1F1F1" rx="8" ry="8" style="stroke:#181818;stroke-width:0.5;"/><path d="M138.0737,248.2 L138.0737,275.2 M125.0737,256.2 L151.0737,256.2 M138.0737,275.2 L125.0737,290.2 M138.0737,275.2 L151.0737,290.2" fill="none" style="stroke:#181818;stroke-width:0.5;"/><text fill="#000000" font-family="sans-serif" font-size="14" lengthAdjust="spacing" textLength="37.6797" x="6" y="304.6951">ATCC</text><text fill="#000000" font-family="sans-serif" font-size="14" lengthAdjust="spacing" textLength="264.1475" x="6" y="320.992">(Air Transport Company Collaborator)</text></g><!--link BO to UC101--><g class="link" data-entity-1="ent0002" data-entity-2="ent0005" data-link-type="dependency" data-source-line="15" id="lnk10"><path d="M208.08,114.67 C259.99,106.15 325.8693,95.3326 383.5193,85.8626" fill="none" id="BO-to-UC101" style="stroke:#181818;stroke-width:1;"/><polygon fill="#181818" points="389.44,84.89,379.9106,82.4018,384.5061,85.7005,381.2074,90.296,389.44,84.89" style="stroke:#181818;stroke-width:1;"/></g><!--link BO to UC103--><g class="link" data-entity-1="ent0002" data-entity-2="ent0007" data-link-type="dependency" data-source-line="16" id="lnk11"><path d="M208.08,131.76 C258.11,135.94 320.6408,141.1706 377.1508,145.8906" fill="none" id="BO-to-UC103" style="stroke:#181818;stroke-width:1;"/><polygon fill="#181818" points="383.13,146.39,374.4942,141.6548,378.1474,145.9738,373.8283,149.627,383.13,146.39" style="stroke:#181818;stroke-width:1;"/></g><!--link ATCC to UC102--><g class="link" data-entity-1="ent0003" data-entity-2="ent0006" data-link-type="dependency" data-source-line="18" id="lnk12"><path d="M205.43,324.79 C235.19,344.2 271.37,365.71 306.15,381 C329.5,391.27 349.7095,398.3516 374.4895,405.5716" fill="none" id="ATCC-to-UC102" style="stroke:#181818;stroke-width:1;"/><polygon fill="#181818" points="380.25,407.25,372.7282,400.8921,375.4496,405.8513,370.4904,408.5727,380.25,407.25" style="stroke:#181818;stroke-width:1;"/></g><!--link ATCC to UC103--><g class="link" data-entity-1="ent0003" data-entity-2="ent0007" data-link-type="dependency" data-source-line="19" id="lnk13"><path d="M225.95,231.36 C251.31,219 279.41,206.47 306.15,197 C336.56,186.23 365.0004,178.7302 395.4304,172.0302" fill="none" id="ATCC-to-UC103" style="stroke:#181818;stroke-width:1;"/><polygon fill="#181818" points="401.29,170.74,391.6404,168.7688,396.407,171.8151,393.3606,176.5817,401.29,170.74" style="stroke:#181818;stroke-width:1;"/></g><!--link ATCC to UC104--><g class="link" data-entity-1="ent0003" data-entity-2="ent0008" data-link-type="dependency" data-source-line="20" id="lnk14"><path d="M270.33,301.44 C315.26,309.46 358.3134,317.1553 398.2434,324.2853" fill="none" id="ATCC-to-UC104" style="stroke:#181818;stroke-width:1;"/><polygon fill="#181818" points="404.15,325.34,395.9933,319.8202,399.2279,324.4611,394.587,327.6957,404.15,325.34" style="stroke:#181818;stroke-width:1;"/></g><!--link ATCC to UC105--><g class="link" data-entity-1="ent0003" data-entity-2="ent0009" data-link-type="dependency" data-source-line="21" id="lnk15"><path d="M270.33,266.66 C293.37,264.67 311.4922,263.096 334.8922,261.076" fill="none" id="ATCC-to-UC105" style="stroke:#181818;stroke-width:1;"/><polygon fill="#181818" points="340.87,260.56,331.5593,257.3489,335.8885,260.99,332.2474,265.3192,340.87,260.56" style="stroke:#181818;stroke-width:1;"/></g><?plantuml-src NP5FJyCm3CNl-HJMk8n39TO_LwIrPpJ4DhXmCQdRHKkJACc49iHtnwrOk_OKlVZzxET4KnCXMl2gFKMebISPbJKYd9LnwB43X_ACBUtZLHFqPJIj9Y5GHkjXLNBPDesI13j77lbo1HYWtDqSsqDLVPhrLdauU3J1MH-Xifr3S-LJQ_oo0_SuWBrTY74GyyfBZnpp1Gq7wSX4M7-ymiDcoyIF0BW4aXZOUjnldZQGm1krAaJoW3UsipNfeV-nOiyIIk-Xu4WgtcYYbGcSHjBO85qsoBZ1kwBlYQafej9XHB8baZEo9_Jo18sTeev0lWGA1ewknaZJ53kyEVyOQk2CyJ8DBCIl4EKEakJvV-axaGdHF_IeqxdCvZAVoqBy0G00?></g></svg>