<?plantuml 1.2026.1?><svg xmlns="http://www.w3.org/2000/svg" xmlns:xlink="http://www.w3.org/1999/xlink" contentStyleType="text/css" data-diagram-type="SEQUENCE" height="815px" preserveAspectRatio="none" style="width:1792px;height:815px;background:#FFFFFF;" version="1.1" viewBox="0 0 1792 815" width="1792px" zoomAndPan="magnify"><defs/><g><g><title>AirportController</title><rect fill="#FFFFFF" height="603.7891" style="stroke:#181818;stroke-width:1;" width="10" x="466.6064" y="112.4297"/></g><g><title>AddAirportCertificationUseCase</title><rect fill="#FFFFFF" height="495.2578" style="stroke:#181818;stroke-width:1;" width="10" x="713.0317" y="191.8281"/></g><g><title>AirportRepository</title><rect fill="#FFFFFF" height="87.3984" style="stroke:#181818;stroke-width:1;" width="10" x="955.8599" y="220.9609"/></g><g><title>AircraftModelRepository</title><rect fill="#FFFFFF" height="87.3984" style="stroke:#181818;stroke-width:1;" width="10" x="1125.7456" y="337.4922"/></g><g><title>AircraftCertificationRepository</title><rect fill="#FFFFFF" height="87.3984" style="stroke:#181818;stroke-width:1;" width="10" x="1340.2256" y="454.0234"/></g><g><title>AircraftCertificationRepository</title><rect fill="#FFFFFF" height="87.3984" style="stroke:#181818;stroke-width:1;" width="10" x="1340.2256" y="570.5547"/></g><g><title>Database</title><rect fill="#FFFFFF" height="29.1328" style="stroke:#181818;stroke-width:1;" width="10" x="1749.9717" y="250.0938"/></g><g><title>Database</title><rect fill="#FFFFFF" height="29.1328" style="stroke:#181818;stroke-width:1;" width="10" x="1749.9717" y="366.625"/></g><g><title>Database</title><rect fill="#FFFFFF" height="29.1328" style="stroke:#181818;stroke-width:1;" width="10" x="1749.9717" y="483.1563"/></g><g><title>Database</title><rect fill="#FFFFFF" height="29.1328" style="stroke:#181818;stroke-width:1;" width="10" x="1749.9717" y="599.6875"/></g><g class="participant-lifeline" data-entity-uid="part1" data-qualified-name="Actor" id="part1-lifeline"><g><title>Backoffice Operator . ATCC</title><rect fill="#000000" fill-opacity="0.00000" height="652.9219" width="8" x="99.5117" y="81.2969"/><line style="stroke:#181818;stroke-width:0.5;stroke-dasharray:5,5;" x1="103" x2="103" y1="81.2969" y2="734.2188"/></g></g><g class="participant-lifeline" data-entity-uid="part2" data-qualified-name="Ctrl" id="part2-lifeline"><g><title>AirportController</title><rect fill="#000000" fill-opacity="0.00000" height="652.9219" width="8" x="467.6064" y="81.2969"/><line style="stroke:#181818;stroke-width:0.5;stroke-dasharray:5,5;" x1="471.0601" x2="471.0601" y1="81.2969" y2="734.2188"/></g></g><g class="participant-lifeline" data-entity-uid="part3" data-qualified-name="UC" id="part3-lifeline"><g><title>AddAirportCertificationUseCase</title><rect fill="#000000" fill-opacity="0.00000" height="652.9219" width="8" x="714.0317" y="81.2969"/><line style="stroke:#181818;stroke-width:0.5;stroke-dasharray:5,5;" x1="717.4707" x2="717.4707" y1="81.2969" y2="734.2188"/></g></g><g class="participant-lifeline" data-entity-uid="part4" data-qualified-name="AirportRepo" id="part4-lifeline"><g><title>AirportRepository</title><rect fill="#000000" fill-opacity="0.00000" height="652.9219" width="8" x="956.8599" y="81.2969"/><line style="stroke:#181818;stroke-width:0.5;stroke-dasharray:5,5;" x1="960.3638" x2="960.3638" y1="81.2969" y2="734.2188"/></g></g><g class="participant-lifeline" data-entity-uid="part5" data-qualified-name="ModelRepo" id="part5-lifeline"><g><title>AircraftModelRepository</title><rect fill="#000000" fill-opacity="0.00000" height="652.9219" width="8" x="1126.7456" y="81.2969"/><line style="stroke:#181818;stroke-width:0.5;stroke-dasharray:5,5;" x1="1130.356" x2="1130.356" y1="81.2969" y2="734.2188"/></g></g><g class="participant-lifeline" data-entity-uid="part6" data-qualified-name="CertRepo" id="part6-lifeline"><g><title>AircraftCertificationRepository</title><rect fill="#000000" fill-opacity="0.00000" height="652.9219" width="8" x="1341.2256" y="81.2969"/><line style="stroke:#181818;stroke-width:0.5;stroke-dasharray:5,5;" x1="1345.1353" x2="1345.1353" y1="81.2969" y2="734.2188"/></g></g><g class="participant-lifeline" data-entity-uid="part7" data-qualified-name="DB" id="part7-lifeline"><g><title>Database</title><rect fill="#000000" fill-opacity="0.00000" height="652.9219" width="8" x="1750.9717" y="81.2969"/><line style="stroke:#181818;stroke-width:0.5;stroke-dasharray:5,5;" x1="1754.5713" x2="1754.5713" y1="81.2969" y2="734.2188"/></g></g><g class="participant participant-head" data-entity-uid="part1" data-qualified-name="Actor" id="part1-head"><text fill="#000000" font-family="sans-serif" font-size="14" lengthAdjust="spacing" textLength="191.0234" x="5" y="77.9951">Backoffice Operator / ATCC</text><ellipse cx="103.5117" cy="13.5" fill="#E2E2F0" rx="8" ry="8" style="stroke:#181818;stroke-width:0.5;"/><path d="M103.5117,21.5 L103.5117,48.5 M90.5117,29.5 L116.5117,29.5 M103.5117,48.5 L90.5117,63.5 M103.5117,48.5 L116.5117,63.5" fill="none" style="stroke:#181818;stroke-width:0.5;"/></g><g class="participant participant-tail" data-entity-uid="part1" data-qualified-name="Actor" id="part1-tail"><text fill="#000000" font-family="sans-serif" font-size="14" lengthAdjust="spacing" textLength="191.0234" x="5" y="746.2139">Backoffice Operator / ATCC</text><ellipse cx="103.5117" cy="758.0156" fill="#E2E2F0" rx="8" ry="8" style="stroke:#181818;stroke-width:0.5;"/><path d="M103.5117,766.0156 L103.5117,793.0156 M90.5117,774.0156 L116.5117,774.0156 M103.5117,793.0156 L90.5117,808.0156 M103.5117,793.0156 L116.5117,808.0156" fill="none" style="stroke:#181818;stroke-width:0.5;"/></g><g class="participant participant-head" data-entity-uid="part2" data-qualified-name="Ctrl" id="part2-head"><rect fill="#E2E2F0" height="30.2969" rx="2.5" ry="2.5" style="stroke:#181818;stroke-width:0.5;" width="131.0928" x="406.0601" y="50"/><text fill="#000000" font-family="sans-serif" font-size="14" lengthAdjust="spacing" textLength="117.0928" x="413.0601" y="69.9951">AirportController</text></g><g class="participant participant-tail" data-entity-uid="part2" data-qualified-name="Ctrl" id="part2-tail"><rect fill="#E2E2F0" height="30.2969" rx="2.5" ry="2.5" style="stroke:#181818;stroke-width:0.5;" width="131.0928" x="406.0601" y="733.2188"/><text fill="#000000" font-family="sans-serif" font-size="14" lengthAdjust="spacing" textLength="117.0928" x="413.0601" y="753.2139">AirportController</text></g><g class="participant participant-head" data-entity-uid="part3" data-qualified-name="UC" id="part3-head"><rect fill="#E2E2F0" height="30.2969" rx="2.5" ry="2.5" style="stroke:#181818;stroke-width:0.5;" width="235.1221" x="600.4707" y="50"/><text fill="#000000" font-family="sans-serif" font-size="14" lengthAdjust="spacing" textLength="221.1221" x="607.4707" y="69.9951">AddAirportCertificationUseCase</text></g><g class="participant participant-tail" data-entity-uid="part3" data-qualified-name="UC" id="part3-tail"><rect fill="#E2E2F0" height="30.2969" rx="2.5" ry="2.5" style="stroke:#181818;stroke-width:0.5;" width="235.1221" x="600.4707" y="733.2188"/><text fill="#000000" font-family="sans-serif" font-size="14" lengthAdjust="spacing" textLength="221.1221" x="607.4707" y="753.2139">AddAirportCertificationUseCase</text></g><g class="participant participant-head" data-entity-uid="part4" data-qualified-name="AirportRepo" id="part4-head"><rect fill="#E2E2F0" height="30.2969" rx="2.5" ry="2.5" style="stroke:#181818;stroke-width:0.5;" width="136.9922" x="892.3638" y="50"/><text fill="#000000" font-family="sans-serif" font-size="14" lengthAdjust="spacing" textLength="122.9922" x="899.3638" y="69.9951">AirportRepository</text></g><g class="participant participant-tail" data-entity-uid="part4" data-qualified-name="AirportRepo" id="part4-tail"><rect fill="#E2E2F0" height="30.2969" rx="2.5" ry="2.5" style="stroke:#181818;stroke-width:0.5;" width="136.9922" x="892.3638" y="733.2188"/><text fill="#000000" font-family="sans-serif" font-size="14" lengthAdjust="spacing" textLength="122.9922" x="899.3638" y="753.2139">AirportRepository</text></g><g class="participant participant-head" data-entity-uid="part5" data-qualified-name="ModelRepo" id="part5-head"><rect fill="#E2E2F0" height="30.2969" rx="2.5" ry="2.5" style="stroke:#181818;stroke-width:0.5;" width="182.7793" x="1039.356" y="50"/><text fill="#000000" font-family="sans-serif" font-size="14" lengthAdjust="spacing" textLength="168.7793" x="1046.356" y="69.9951">AircraftModelRepository</text></g><g class="participant participant-tail" data-entity-uid="part5" data-qualified-name="ModelRepo" id="part5-tail"><rect fill="#E2E2F0" height="30.2969" rx="2.5" ry="2.5" style="stroke:#181818;stroke-width:0.5;" width="182.7793" x="1039.356" y="733.2188"/><text fill="#000000" font-family="sans-serif" font-size="14" lengthAdjust="spacing" textLength="168.7793" x="1046.356" y="753.2139">AircraftModelRepository</text></g><g class="participant participant-head" data-entity-uid="part6" data-qualified-name="CertRepo" id="part6-head"><rect fill="#E2E2F0" height="30.2969" rx="2.5" ry="2.5" style="stroke:#181818;stroke-width:0.5;" width="226.1807" x="1232.1353" y="50"/><text fill="#000000" font-family="sans-serif" font-size="14" lengthAdjust="spacing" textLength="212.1807" x="1239.1353" y="69.9951">AircraftCertificationRepository</text></g><g class="participant participant-tail" data-entity-uid="part6" data-qualified-name="CertRepo" id="part6-tail"><rect fill="#E2E2F0" height="30.2969" rx="2.5" ry="2.5" style="stroke:#181818;stroke-width:0.5;" width="226.1807" x="1232.1353" y="733.2188"/><text fill="#000000" font-family="sans-serif" font-size="14" lengthAdjust="spacing" textLength="212.1807" x="1239.1353" y="753.2139">AircraftCertificationRepository</text></g><g class="participant participant-head" data-entity-uid="part7" data-qualified-name="DB" id="part7-head"><text fill="#000000" font-family="sans-serif" font-size="14" lengthAdjust="spacing" textLength="66.8008" x="1718.5713" y="77.9951">Database</text><path d="M1736.9717,29 C1736.9717,19 1754.9717,19 1754.9717,19 C1754.9717,19 1772.9717,19 1772.9717,29 L1772.9717,55 C1772.9717,65 1754.9717,65 1754.9717,65 C1754.9717,65 1736.9717,65 1736.9717,55 L1736.9717,29" fill="#E2E2F0" style="stroke:#181818;stroke-width:0.5;"/><path d="M1736.9717,29 C1736.9717,39 1754.9717,39 1754.9717,39 C1754.9717,39 1772.9717,39 1772.9717,29" fill="none" style="stroke:#181818;stroke-width:0.5;"/></g><g class="participant participant-tail" data-entity-uid="part7" data-qualified-name="DB" id="part7-tail"><text fill="#000000" font-family="sans-serif" font-size="14" lengthAdjust="spacing" textLength="66.8008" x="1718.5713" y="746.2139">Database</text><path d="M1736.9717,759.5156 C1736.9717,749.5156 1754.9717,749.5156 1754.9717,749.5156 C1754.9717,749.5156 1772.9717,749.5156 1772.9717,759.5156 L1772.9717,785.5156 C1772.9717,795.5156 1754.9717,795.5156 1754.9717,795.5156 C1754.9717,795.5156 1736.9717,795.5156 1736.9717,785.5156 L1736.9717,759.5156" fill="#E2E2F0" style="stroke:#181818;stroke-width:0.5;"/><path d="M1736.9717,759.5156 C1736.9717,769.5156 1754.9717,769.5156 1754.9717,769.5156 C1754.9717,769.5156 1772.9717,769.5156 1772.9717,759.5156" fill="none" style="stroke:#181818;stroke-width:0.5;"/></g><g><title>AirportController</title><rect fill="#FFFFFF" height="603.7891" style="stroke:#181818;stroke-width:1;" width="10" x="466.6064" y="112.4297"/></g><g><title>AddAirportCertificationUseCase</title><rect fill="#FFFFFF" height="495.2578" style="stroke:#181818;stroke-width:1;" width="10" x="713.0317" y="191.8281"/></g><g><title>AirportRepository</title><rect fill="#FFFFFF" height="87.3984" style="stroke:#181818;stroke-width:1;" width="10" x="955.8599" y="220.9609"/></g><g><title>AircraftModelRepository</title><rect fill="#FFFFFF" height="87.3984" style="stroke:#181818;stroke-width:1;" width="10" x="1125.7456" y="337.4922"/></g><g><title>AircraftCertificationRepository</title><rect fill="#FFFFFF" height="87.3984" style="stroke:#181818;stroke-width:1;" width="10" x="1340.2256" y="454.0234"/></g><g><title>AircraftCertificationRepository</title><rect fill="#FFFFFF" height="87.3984" style="stroke:#181818;stroke-width:1;" width="10" x="1340.2256" y="570.5547"/></g><g><title>Database</title><rect fill="#FFFFFF" height="29.1328" style="stroke:#181818;stroke-width:1;" width="10" x="1749.9717" y="250.0938"/></g><g><title>Database</title><rect fill="#FFFFFF" height="29.1328" style="stroke:#181818;stroke-width:1;" width="10" x="1749.9717" y="366.625"/></g><g><title>Database</title><rect fill="#FFFFFF" height="29.1328" style="stroke:#181818;stroke-width:1;" width="10" x="1749.9717" y="483.1563"/></g><g><title>Database</title><rect fill="#FFFFFF" height="29.1328" style="stroke:#181818;stroke-width:1;" width="10" x="1749.9717" y="599.6875"/></g><g class="message" data-entity-1="part1" data-entity-2="part2" id="msg1"><polygon fill="#181818" points="454.6064,108.4297,464.6064,112.4297,454.6064,116.4297,458.6064,112.4297" style="stroke:#181818;stroke-width:1;"/><line style="stroke:#181818;stroke-width:1;" x1="103.5117" x2="460.6064" y1="112.4297" y2="112.4297"/><text fill="#000000" font-family="sans-serif" font-size="13" font-weight="bold" lengthAdjust="spacing" textLength="9.0454" x="110.5117" y="107.3638">1</text><text fill="#000000" font-family="sans-serif" font-size="13" lengthAdjust="spacing" textLength="331.0493" x="123.5571" y="107.3638">POST /api/airports/{iataCode}/certifications (JSON)</text></g><path d="M481,125.4297 L481,165.4297 L667,165.4297 L667,135.4297 L657,125.4297 L481,125.4297" fill="#FEFFDD" style="stroke:#181818;stroke-width:0.5;"/><path d="M657,125.4297 L657,135.4297 L667,135.4297 L657,125.4297" fill="#FEFFDD" style="stroke:#181818;stroke-width:0.5;"/><text fill="#000000" font-family="sans-serif" font-size="13" lengthAdjust="spacing" textLength="108.437" x="487" y="142.4966">@Valid validates</text><text fill="#000000" font-family="sans-serif" font-size="13" lengthAdjust="spacing" textLength="165.9468" x="487" y="157.6294">aircraftModelId is not null</text><g class="message" data-entity-1="part2" data-entity-2="part3" id="msg2"><polygon fill="#181818" points="701.0317,187.8281,711.0317,191.8281,701.0317,195.8281,705.0317,191.8281" style="stroke:#181818;stroke-width:1;"/><line style="stroke:#181818;stroke-width:1;" x1="476.6064" x2="707.0317" y1="191.8281" y2="191.8281"/><text fill="#000000" font-family="sans-serif" font-size="13" font-weight="bold" lengthAdjust="spacing" textLength="9.0454" x="483.6064" y="186.7622">2</text><text fill="#000000" font-family="sans-serif" font-size="13" lengthAdjust="spacing" textLength="178.2041" x="496.6519" y="186.7622">execute(iataCode, request)</text></g><g class="message" data-entity-1="part3" data-entity-2="part4" id="msg3"><polygon fill="#181818" points="943.8599,216.9609,953.8599,220.9609,943.8599,224.9609,947.8599,220.9609" style="stroke:#181818;stroke-width:1;"/><line style="stroke:#181818;stroke-width:1;" x1="723.0317" x2="949.8599" y1="220.9609" y2="220.9609"/><text fill="#000000" font-family="sans-serif" font-size="13" font-weight="bold" lengthAdjust="spacing" textLength="9.0454" x="730.0317" y="215.895">3</text><text fill="#000000" font-family="sans-serif" font-size="13" lengthAdjust="spacing" textLength="200.7827" x="743.0771" y="215.895">findByIataCodeCode(iataCode)</text></g><g class="message" data-entity-1="part4" data-entity-2="part7" id="msg4"><polygon fill="#181818" points="1737.9717,246.0938,1747.9717,250.0938,1737.9717,254.0938,1741.9717,250.0938" style="stroke:#181818;stroke-width:1;"/><line style="stroke:#181818;stroke-width:1;" x1="965.8599" x2="1743.9717" y1="250.0938" y2="250.0938"/><text fill="#000000" font-family="sans-serif" font-size="13" font-weight="bold" lengthAdjust="spacing" textLength="9.0454" x="972.8599" y="245.0278">4</text><text fill="#000000" font-family="sans-serif" font-size="13" lengthAdjust="spacing" textLength="252.4971" x="985.9053" y="245.0278">SELECT FROM airport WHERE code = ?</text></g><g class="message" data-entity-1="part7" data-entity-2="part4" id="msg5"><polygon fill="#181818" points="976.8599,275.2266,966.8599,279.2266,976.8599,283.2266,972.8599,279.2266" style="stroke:#181818;stroke-width:1;"/><line style="stroke:#181818;stroke-width:1;stroke-dasharray:2,2;" x1="970.8599" x2="1753.9717" y1="279.2266" y2="279.2266"/><text fill="#000000" font-family="sans-serif" font-size="13" font-weight="bold" lengthAdjust="spacing" textLength="9.0454" x="982.8599" y="274.1606">5</text><text fill="#000000" font-family="sans-serif" font-size="13" lengthAdjust="spacing" textLength="89.7432" x="995.9053" y="274.1606">airport record</text></g><g class="message" data-entity-1="part4" data-entity-2="part3" id="msg6"><polygon fill="#181818" points="734.0317,304.3594,724.0317,308.3594,734.0317,312.3594,730.0317,308.3594" style="stroke:#181818;stroke-width:1;"/><line style="stroke:#181818;stroke-width:1;stroke-dasharray:2,2;" x1="728.0317" x2="959.8599" y1="308.3594" y2="308.3594"/><text fill="#000000" font-family="sans-serif" font-size="13" font-weight="bold" lengthAdjust="spacing" textLength="9.0454" x="740.0317" y="303.2935">6</text><text fill="#000000" font-family="sans-serif" font-size="13" lengthAdjust="spacing" textLength="44.4971" x="753.0771" y="303.2935">Airport</text></g><g class="message" data-entity-1="part3" data-entity-2="part5" id="msg7"><polygon fill="#181818" points="1113.7456,333.4922,1123.7456,337.4922,1113.7456,341.4922,1117.7456,337.4922" style="stroke:#181818;stroke-width:1;"/><line style="stroke:#181818;stroke-width:1;" x1="723.0317" x2="1119.7456" y1="337.4922" y2="337.4922"/><text fill="#000000" font-family="sans-serif" font-size="13" font-weight="bold" lengthAdjust="spacing" textLength="9.0454" x="730.0317" y="332.4263">7</text><text fill="#000000" font-family="sans-serif" font-size="13" lengthAdjust="spacing" textLength="161.6938" x="743.0771" y="332.4263">findById(aircraftModelId)</text></g><g class="message" data-entity-1="part5" data-entity-2="part7" id="msg8"><polygon fill="#181818" points="1737.9717,362.625,1747.9717,366.625,1737.9717,370.625,1741.9717,366.625" style="stroke:#181818;stroke-width:1;"/><line style="stroke:#181818;stroke-width:1;" x1="1135.7456" x2="1743.9717" y1="366.625" y2="366.625"/><text fill="#000000" font-family="sans-serif" font-size="13" font-weight="bold" lengthAdjust="spacing" textLength="9.0454" x="1142.7456" y="361.5591">8</text><text fill="#000000" font-family="sans-serif" font-size="13" lengthAdjust="spacing" textLength="283.4736" x="1155.791" y="361.5591">SELECT FROM aircraft_model WHERE id = ?</text></g><g class="message" data-entity-1="part7" data-entity-2="part5" id="msg9"><polygon fill="#181818" points="1146.7456,391.7578,1136.7456,395.7578,1146.7456,399.7578,1142.7456,395.7578" style="stroke:#181818;stroke-width:1;"/><line style="stroke:#181818;stroke-width:1;stroke-dasharray:2,2;" x1="1140.7456" x2="1753.9717" y1="395.7578" y2="395.7578"/><text fill="#000000" font-family="sans-serif" font-size="13" font-weight="bold" lengthAdjust="spacing" textLength="9.0454" x="1152.7456" y="390.6919">9</text><text fill="#000000" font-family="sans-serif" font-size="13" lengthAdjust="spacing" textLength="86.6519" x="1165.791" y="390.6919">model record</text></g><g class="message" data-entity-1="part5" data-entity-2="part3" id="msg10"><polygon fill="#181818" points="734.0317,420.8906,724.0317,424.8906,734.0317,428.8906,730.0317,424.8906" style="stroke:#181818;stroke-width:1;"/><line style="stroke:#181818;stroke-width:1;stroke-dasharray:2,2;" x1="728.0317" x2="1129.7456" y1="424.8906" y2="424.8906"/><text fill="#000000" font-family="sans-serif" font-size="13" font-weight="bold" lengthAdjust="spacing" textLength="18.0908" x="740.0317" y="419.8247">10</text><text fill="#000000" font-family="sans-serif" font-size="13" lengthAdjust="spacing" textLength="87.0137" x="762.1226" y="419.8247">AircraftModel</text></g><g class="message" data-entity-1="part3" data-entity-2="part6" id="msg11"><polygon fill="#181818" points="1328.2256,450.0234,1338.2256,454.0234,1328.2256,458.0234,1332.2256,454.0234" style="stroke:#181818;stroke-width:1;"/><line style="stroke:#181818;stroke-width:1;" x1="723.0317" x2="1334.2256" y1="454.0234" y2="454.0234"/><text fill="#000000" font-family="sans-serif" font-size="13" font-weight="bold" lengthAdjust="spacing" textLength="18.0908" x="730.0317" y="448.9575">11</text><text fill="#000000" font-family="sans-serif" font-size="13" lengthAdjust="spacing" textLength="338.0825" x="752.1226" y="448.9575">existsByAirportAndAircraftModelId(airport, modelId)</text></g><g class="message" data-entity-1="part6" data-entity-2="part7" id="msg12"><polygon fill="#181818" points="1737.9717,479.1563,1747.9717,483.1563,1737.9717,487.1563,1741.9717,483.1563" style="stroke:#181818;stroke-width:1;"/><line style="stroke:#181818;stroke-width:1;" x1="1350.2256" x2="1743.9717" y1="483.1563" y2="483.1563"/><text fill="#000000" font-family="sans-serif" font-size="13" font-weight="bold" lengthAdjust="spacing" textLength="18.0908" x="1357.2256" y="478.0903">12</text><text fill="#000000" font-family="sans-serif" font-size="13" lengthAdjust="spacing" textLength="358.6553" x="1379.3164" y="478.0903">SELECT COUNT(*) FROM airport_certification WHERE ...</text></g><g class="message" data-entity-1="part7" data-entity-2="part6" id="msg13"><polygon fill="#181818" points="1361.2256,508.2891,1351.2256,512.2891,1361.2256,516.2891,1357.2256,512.2891" style="stroke:#181818;stroke-width:1;"/><line style="stroke:#181818;stroke-width:1;stroke-dasharray:2,2;" x1="1355.2256" x2="1753.9717" y1="512.2891" y2="512.2891"/><text fill="#000000" font-family="sans-serif" font-size="13" font-weight="bold" lengthAdjust="spacing" textLength="18.0908" x="1367.2256" y="507.2231">13</text><text fill="#000000" font-family="sans-serif" font-size="13" lengthAdjust="spacing" textLength="8.271" x="1389.3164" y="507.2231">0</text></g><g class="message" data-entity-1="part6" data-entity-2="part3" id="msg14"><polygon fill="#181818" points="734.0317,537.4219,724.0317,541.4219,734.0317,545.4219,730.0317,541.4219" style="stroke:#181818;stroke-width:1;"/><line style="stroke:#181818;stroke-width:1;stroke-dasharray:2,2;" x1="728.0317" x2="1344.2256" y1="541.4219" y2="541.4219"/><text fill="#000000" font-family="sans-serif" font-size="13" font-weight="bold" lengthAdjust="spacing" textLength="18.0908" x="740.0317" y="536.356">14</text><text fill="#000000" font-family="sans-serif" font-size="13" lengthAdjust="spacing" textLength="30.9258" x="762.1226" y="536.356">false</text></g><g class="message" data-entity-1="part3" data-entity-2="part6" id="msg15"><polygon fill="#181818" points="1328.2256,566.5547,1338.2256,570.5547,1328.2256,574.5547,1332.2256,570.5547" style="stroke:#181818;stroke-width:1;"/><line style="stroke:#181818;stroke-width:1;" x1="723.0317" x2="1334.2256" y1="570.5547" y2="570.5547"/><text fill="#000000" font-family="sans-serif" font-size="13" font-weight="bold" lengthAdjust="spacing" textLength="18.0908" x="730.0317" y="565.4888">15</text><text fill="#000000" font-family="sans-serif" font-size="13" lengthAdjust="spacing" textLength="301.3486" x="752.1226" y="565.4888">save(new AircraftCertification(airport, model))</text></g><g class="message" data-entity-1="part6" data-entity-2="part7" id="msg16"><polygon fill="#181818" points="1737.9717,595.6875,1747.9717,599.6875,1737.9717,603.6875,1741.9717,599.6875" style="stroke:#181818;stroke-width:1;"/><line style="stroke:#181818;stroke-width:1;" x1="1350.2256" x2="1743.9717" y1="599.6875" y2="599.6875"/><text fill="#000000" font-family="sans-serif" font-size="13" font-weight="bold" lengthAdjust="spacing" textLength="18.0908" x="1357.2256" y="594.6216">16</text><text fill="#000000" font-family="sans-serif" font-size="13" lengthAdjust="spacing" textLength="214.4683" x="1379.3164" y="594.6216">INSERT INTO airport_certification</text></g><g class="message" data-entity-1="part7" data-entity-2="part6" id="msg17"><polygon fill="#181818" points="1361.2256,624.8203,1351.2256,628.8203,1361.2256,632.8203,1357.2256,628.8203" style="stroke:#181818;stroke-width:1;"/><line style="stroke:#181818;stroke-width:1;stroke-dasharray:2,2;" x1="1355.2256" x2="1753.9717" y1="628.8203" y2="628.8203"/><text fill="#000000" font-family="sans-serif" font-size="13" font-weight="bold" lengthAdjust="spacing" textLength="18.0908" x="1367.2256" y="623.7544">17</text><text fill="#000000" font-family="sans-serif" font-size="13" lengthAdjust="spacing" textLength="144.6885" x="1389.3164" y="623.7544">saved record (with ID)</text></g><g class="message" data-entity-1="part6" data-entity-2="part3" id="msg18"><polygon fill="#181818" points="734.0317,653.9531,724.0317,657.9531,734.0317,661.9531,730.0317,657.9531" style="stroke:#181818;stroke-width:1;"/><line style="stroke:#181818;stroke-width:1;stroke-dasharray:2,2;" x1="728.0317" x2="1344.2256" y1="657.9531" y2="657.9531"/><text fill="#000000" font-family="sans-serif" font-size="13" font-weight="bold" lengthAdjust="spacing" textLength="18.0908" x="740.0317" y="652.8872">18</text><text fill="#000000" font-family="sans-serif" font-size="13" lengthAdjust="spacing" textLength="118.0156" x="762.1226" y="652.8872">savedCertification</text></g><g class="message" data-entity-1="part3" data-entity-2="part2" id="msg19"><polygon fill="#181818" points="487.6064,683.0859,477.6064,687.0859,487.6064,691.0859,483.6064,687.0859" style="stroke:#181818;stroke-width:1;"/><line style="stroke:#181818;stroke-width:1;stroke-dasharray:2,2;" x1="481.6064" x2="717.0317" y1="687.0859" y2="687.0859"/><text fill="#000000" font-family="sans-serif" font-size="13" font-weight="bold" lengthAdjust="spacing" textLength="18.0908" x="493.6064" y="682.02">19</text><text fill="#000000" font-family="sans-serif" font-size="13" lengthAdjust="spacing" textLength="190.3345" x="515.6973" y="682.02">AircraftCertificationResponse</text></g><g class="message" data-entity-1="part2" data-entity-2="part1" id="msg20"><polygon fill="#181818" points="114.5117,712.2188,104.5117,716.2188,114.5117,720.2188,110.5117,716.2188" style="stroke:#181818;stroke-width:1;"/><line style="stroke:#181818;stroke-width:1;stroke-dasharray:2,2;" x1="108.5117" x2="470.6064" y1="716.2188" y2="716.2188"/><text fill="#000000" font-family="sans-serif" font-size="13" font-weight="bold" lengthAdjust="spacing" textLength="18.0908" x="120.5117" y="711.1528">20</text><text fill="#000000" font-family="sans-serif" font-size="13" lengthAdjust="spacing" textLength="199.1069" x="142.6025" y="711.1528">201 Created (JSON with _links)</text></g><?plantuml-src ZLJBRjim4BphAnO-oKLYfpq6wCEMNTH5OnMst5uA68n8DKGKKYLffqRHV--AeYHAbf4Uz02vipipIouv62aEJ_TC1IGrKi5eJj97cMKyPH0NJ95oSGgp98f6G3JCogYW8Chmb1T461ZDk2gaCf4KHiayPye6HaRblJXAwr26orY262x5JhE8Q6P1ksWmzOOLKdCiVAeujAjduQaYcRcJbEKzKBCs3EbGwa7BFOkan91xv0gZXVkp-ujv45XVuFgTrGsty3NU9Z0b1P-IYgsU_k48Yf36tsdgLzCGVjx6wt7P0NuaXbNU1KBYh-8_7mp8hCxxuHl9EOLZ-SPG_KCGN_IA0jU0I12777DO5BBQHOXblrbwC2oiULo1OhyEJ1klD7OWm624U2uZDkE2payhXooV9es7zZlZup7TOevPjiilooY1Zvlu3fmlyFtJShE451F1MtZVva9N4NDzngJ6APPAHGFAV4IdQAtRBVgXFb6djpaWhLeQziprfBRdgGLUa6apx9_ACASMEtX1gy-YGWpgz6fwAbkgVdZBr2cjpxCz4bmRFJyvFsQ2phgAGsVtLSMcOq5pBvg4FGEYUBTEmbVZJiFtdSFl39bC9aDkU4nlUWwqDMi3Cf9hvaSr_CvrQt9aeM3FC7Z_UwB7_wLvjTukDmb-adXOwWi2IqhKTHl2PsuUOBKOlwZQmZhiBrlGZgSBOqyNE8uw7fRpe1eYvKMqG-uMtjoyXaWntAVLx09BTvzpyQWxb4leFm00?></g></svg>