<svg xmlns="http://www.w3.org/2000/svg" xmlns:xlink="http://www.w3.org/1999/xlink" contentStyleType="text/css" data-diagram-type="DESCRIPTION" height="472px" preserveAspectRatio="none" style="width:619px;height:472px;background:#FFFFFF;" version="1.1" viewBox="0 0 619 472" width="619px" zoomAndPan="magnify"><?plantuml 1.2026.4?><defs/><g><!--cluster Airport Management (WP #2A)--><g class="cluster" data-qualified-name="Airport Management .WP .2A." data-source-line="7" id="ent0003"><rect fill="none" height="451" rx="2.5" ry="2.5" style="stroke:#181818;stroke-width:1;" width="321" x="284" y="7"/><text fill="#000000" font-family="sans-serif" font-size="14" font-weight="700" lengthAdjust="spacing" textLength="201.4619" x="343.769" y="23.5332">Airport Management (WP #2A)</text></g><!--entity UC106--><g class="entity" data-qualified-name="Airport Management .WP .2A..UC106" data-source-line="8" id="ent0004"><ellipse cx="444.4073" cy="162.1815" fill="#F1F1F1" rx="98.9073" ry="22.1815" style="stroke:#181818;stroke-width:0.5;"/><text fill="#000000" font-family="sans-serif" font-size="14" lengthAdjust="spacing" textLength="170.4131" x="359.2008" y="167.4862">US106 - Register an airport</text></g><!--entity UC106a--><g class="entity" data-qualified-name="Airport Management .WP .2A..UC106a" data-source-line="9" id="ent0005"><ellipse cx="444.262" cy="250.7524" fill="#F1F1F1" rx="144.262" ry="31.2524" style="stroke:#181818;stroke-width:0.5;"/><text fill="#000000" font-family="sans-serif" font-size="14" lengthAdjust="spacing" textLength="268.4541" x="310.035" y="256.0571">US106a - Add aircraft certification to airport</text></g><!--entity UC107--><g class="entity" data-qualified-name="Airport Management .WP .2A..UC107" data-source-line="10" id="ent0006"><ellipse cx="444.2916" cy="339.9583" fill="#F1F1F1" rx="100.2916" ry="22.4583" style="stroke:#181818;stroke-width:0.5;"/><text fill="#000000" font-family="sans-serif" font-size="14" lengthAdjust="spacing" textLength="173.5234" x="357.5299" y="345.263">US107 - View airport details</text></g><!--entity UC108--><g class="entity" data-qualified-name="Airport Management .WP .2A..UC108" data-source-line="11" id="ent0007"><ellipse cx="444.4043" cy="420.1809" fill="#F1F1F1" rx="98.9043" ry="22.1809" style="stroke:#181818;stroke-width:0.5;"/><text fill="#000000" font-family="sans-serif" font-size="14" lengthAdjust="spacing" textLength="170.4063" x="359.2012" y="425.4855">US108 - Search for airports</text></g><!--entity UC109--><g class="entity" data-qualified-name="Airport Management .WP .2A..UC109" data-source-line="12" id="ent0008"><ellipse cx="444.4807" cy="73.7961" fill="#F1F1F1" rx="139.4807" ry="30.2961" style="stroke:#181818;stroke-width:0.5;"/><text fill="#000000" font-family="sans-serif" font-size="14" lengthAdjust="spacing" textLength="258.3711" x="315.2951" y="79.1008">US109 - Update airport operational status</text></g><!--entity BO--><g class="entity" data-qualified-name="BO" data-source-line="4" id="ent0001"><ellipse cx="122.8618" cy="159.5" fill="#F1F1F1" rx="8" ry="8" style="stroke:#181818;stroke-width:0.5;"/><path d="M122.8618,167.5 L122.8618,194.5 M109.8618,175.5 L135.8618,175.5 M122.8618,194.5 L109.8618,209.5 M122.8618,194.5 L135.8618,209.5" fill="none" style="stroke:#181818;stroke-width:0.5;"/><text fill="#000000" font-family="sans-serif" font-size="14" lengthAdjust="spacing" textLength="123.7236" x="61" y="225.5332">Backoffice Operator</text></g><!--entity ATCC--><g class="entity" data-qualified-name="ATCC" data-source-line="5" id="ent0002"><ellipse cx="123.0962" cy="301" fill="#F1F1F1" rx="8" ry="8" style="stroke:#181818;stroke-width:0.5;"/><path d="M123.0962,309 L123.0962,336 M110.0962,317 L136.0962,317 M123.0962,336 L110.0962,351 M123.0962,336 L136.0962,351" fill="none" style="stroke:#181818;stroke-width:0.5;"/><text fill="#000000" font-family="sans-serif" font-size="14" lengthAdjust="spacing" textLength="38.1104" x="6" y="367.0332">ATCC</text><text fill="#000000" font-family="sans-serif" font-size="14" lengthAdjust="spacing" textLength="234.1924" x="6" y="384.6426">(Air Transport Company Collaborator)</text></g><!--link BO to UC106--><g class="link" data-entity-1="ent0001" data-entity-2="ent0004" data-link-type="dependency" data-source-line="15" id="lnk9"><path d="M185.22,184.63 C232.52,180.49 293.7291,175.1264 347.2591,170.4364" fill="none" id="BO-to-UC106" style="stroke:#181818;stroke-width:1;"/><polygon fill="#181818" points="352.24,170,342.9252,166.8008,347.2591,170.4364,343.6235,174.7703,352.24,170" style="stroke:#181818;stroke-width:1;stroke-linejoin:miter;stroke-miterlimit:10;"/></g><!--link BO to UC106a--><g class="link" data-entity-1="ent0001" data-entity-2="ent0005" data-link-type="dependency" data-source-line="16" id="lnk10"><path d="M185.22,201.69 C227.62,209.78 280.3086,219.8427 330.3486,229.3927" fill="none" id="BO-to-UC106a" style="stroke:#181818;stroke-width:1;"/><polygon fill="#181818" points="335.26,230.33,327.1694,224.7137,330.3486,229.3927,325.6697,232.5719,335.26,230.33" style="stroke:#181818;stroke-width:1;stroke-linejoin:miter;stroke-miterlimit:10;"/></g><!--link BO to UC107--><g class="link" data-entity-1="ent0001" data-entity-2="ent0006" data-link-type="dependency" data-source-line="17" id="lnk11"><path d="M177.48,229.07 C220.13,260.17 273.19,298.71 276,300 C302.76,312.29 328.8456,319.9713 356.8156,326.0913" fill="none" id="BO-to-UC107" style="stroke:#181818;stroke-width:1;"/><polygon fill="#181818" points="361.7,327.16,353.763,321.3287,356.8156,326.0913,352.053,329.1438,361.7,327.16" style="stroke:#181818;stroke-width:1;stroke-linejoin:miter;stroke-miterlimit:10;"/></g><!--link BO to UC109--><g class="link" data-entity-1="ent0001" data-entity-2="ent0008" data-link-type="dependency" data-source-line="18" id="lnk12"><path d="M185.3,160.19 C212.69,147.5 245.58,133.1 276,122 C300.87,112.93 323.4917,105.8214 348.8417,98.5914" fill="none" id="BO-to-UC109" style="stroke:#181818;stroke-width:1;"/><polygon fill="#181818" points="353.65,97.22,343.898,95.8418,348.8417,98.5914,346.0922,103.535,353.65,97.22" style="stroke:#181818;stroke-width:1;stroke-linejoin:miter;stroke-miterlimit:10;"/></g><!--link ATCC to UC106a--><g class="link" data-entity-1="ent0002" data-entity-2="ent0005" data-link-type="dependency" data-source-line="20" id="lnk13"><path d="M240.25,307.62 C277.99,297.11 314.4136,286.9625 349.8236,277.0925" fill="none" id="ATCC-to-UC106a" style="stroke:#181818;stroke-width:1;"/><polygon fill="#181818" points="354.64,275.75,344.8965,274.3134,349.8236,277.0925,347.0445,282.0196,354.64,275.75" style="stroke:#181818;stroke-width:1;stroke-linejoin:miter;stroke-miterlimit:10;"/></g><!--link ATCC to UC107--><g class="link" data-entity-1="ent0002" data-entity-2="ent0006" data-link-type="dependency" data-source-line="21" id="lnk14"><path d="M240.25,340 C274.24,340 306.07,340 338.93,340" fill="none" id="ATCC-to-UC107" style="stroke:#181818;stroke-width:1;"/><polygon fill="#181818" points="343.93,340,334.93,336,338.93,340,334.93,344,343.93,340" style="stroke:#181818;stroke-width:1;stroke-linejoin:miter;stroke-miterlimit:10;"/></g><!--link ATCC to UC108--><g class="link" data-entity-1="ent0002" data-entity-2="ent0007" data-link-type="dependency" data-source-line="22" id="lnk15"><path d="M240.11,370.85 C252.22,373.98 264.35,377.08 276,380 C308.62,388.19 340.0543,395.7491 370.4943,402.9491" fill="none" id="ATCC-to-UC108" style="stroke:#181818;stroke-width:1;"/><polygon fill="#181818" points="375.36,404.1,367.5224,398.1358,370.4943,402.9491,365.6809,405.921,375.36,404.1" style="stroke:#181818;stroke-width:1;stroke-linejoin:miter;stroke-miterlimit:10;"/></g><?plantuml-src PP5FRy8m3CNl-HGMkx034jjXXSkaqlF4D62xxEAbRea8IUKOJMZQTv_RyQV0ANhn-zdEYwTAG2AmgzS2fMEouc8mQUD2WunRQD1kiAQ5x3r1MyPGUp86hKI6mKpBiQgS9PWtnAYN0y04i_dHaI-BuZCCSyUmP0ofYInGn6s3OQ-dz_WLE-w-0rkxCQT1oZlka1SCkiUMWi3munNk7dC5VWp0Bf75fCxLuc7y12Duezeb8GOCWFzqrtfLQFq6G2NoicoTbb7ZiCJYz4NO9j66SzC3hvjaskFTqVVH2YK9EfzEI7PDJ9HO4B9TGwKf7RWpCBa6fWgicXA5JaDY5xWkYHwIeEpE-DJy6ZERmsZqV7XsNs1VPNqnDQRzWBxrGcUNScB-0000?></g></svg>