<svg xmlns="http://www.w3.org/2000/svg" xmlns:xlink="http://www.w3.org/1999/xlink" contentStyleType="text/css" data-diagram-type="SEQUENCE" height="547px" preserveAspectRatio="none" style="width:1339px;height:547px;background:#FFFFFF;" version="1.1" viewBox="0 0 1339 547" width="1339px" zoomAndPan="magnify"><?plantuml 1.2026.4?><defs/><g><g><title>MaintenanceController</title><rect fill="#FFFFFF" height="330.5703" style="stroke:#181818;stroke-width:1;" width="10" x="466.2944" y="114.9609"/></g><g><title>ViewTotalMaintenanceHoursInFleetUseCase</title><rect fill="#FFFFFF" height="237.1641" style="stroke:#181818;stroke-width:1;" width="10" x="775.9995" y="145.3125"/></g><g><title>MaintenanceRecordRepository</title><rect fill="#FFFFFF" height="91.0547" style="stroke:#181818;stroke-width:1;" width="10" x="1035.7847" y="175.6641"/></g><g><title>Database</title><rect fill="#FFFFFF" height="30.3516" style="stroke:#181818;stroke-width:1;" width="10" x="1290.5972" y="206.0156"/></g><g class="participant-lifeline" data-entity-uid="part1" data-qualified-name="MS" data-source-line="2" id="part1-lifeline"><g><title>Maintenance Supervisor</title><rect fill="#000000" fill-opacity="0.00000" height="380.9219" width="8" x="79.4858" y="82.6094"/><line style="stroke:#181818;stroke-width:0.5;stroke-dasharray:5,5;" x1="83" x2="83" y1="82.6094" y2="463.5313"/></g></g><g class="participant-lifeline" data-entity-uid="part2" data-qualified-name="Ctrl" data-source-line="3" id="part2-lifeline"><g><title>MaintenanceController</title><rect fill="#000000" fill-opacity="0.00000" height="380.9219" width="8" x="467.2944" y="82.6094"/><line style="stroke:#181818;stroke-width:0.5;stroke-dasharray:5,5;" x1="470.8672" x2="470.8672" y1="82.6094" y2="463.5313"/></g></g><g class="participant-lifeline" data-entity-uid="part3" data-qualified-name="UC" data-source-line="4" id="part3-lifeline"><g><title>ViewTotalMaintenanceHoursInFleetUseCase</title><rect fill="#000000" fill-opacity="0.00000" height="380.9219" width="8" x="776.9995" y="82.6094"/><line style="stroke:#181818;stroke-width:0.5;stroke-dasharray:5,5;" x1="780.3208" x2="780.3208" y1="82.6094" y2="463.5313"/></g></g><g class="participant-lifeline" data-entity-uid="part4" data-qualified-name="Repo" data-source-line="5" id="part4-lifeline"><g><title>MaintenanceRecordRepository</title><rect fill="#000000" fill-opacity="0.00000" height="380.9219" width="8" x="1036.7847" y="82.6094"/><line style="stroke:#181818;stroke-width:0.5;stroke-dasharray:5,5;" x1="1040.6782" x2="1040.6782" y1="82.6094" y2="463.5313"/></g></g><g class="participant-lifeline" data-entity-uid="part5" data-qualified-name="DB" data-source-line="6" id="part5-lifeline"><g><title>Database</title><rect fill="#000000" fill-opacity="0.00000" height="380.9219" width="8" x="1291.5972" y="82.6094"/><line style="stroke:#181818;stroke-width:0.5;stroke-dasharray:5,5;" x1="1294.6318" x2="1294.6318" y1="82.6094" y2="463.5313"/></g></g><g class="participant participant-head" data-entity-uid="part1" data-qualified-name="MS" data-source-line="2" id="part1-head"><text fill="#000000" font-family="sans-serif" font-size="14" lengthAdjust="spacing" textLength="150.9717" x="5" y="79.5332">Maintenance Supervisor</text><ellipse cx="83.4858" cy="13.5" fill="#E2E2F0" rx="8" ry="8" style="stroke:#181818;stroke-width:0.5;"/><path d="M83.4858,21.5 L83.4858,48.5 M70.4858,29.5 L96.4858,29.5 M83.4858,48.5 L70.4858,63.5 M83.4858,48.5 L96.4858,63.5" fill="none" style="stroke:#181818;stroke-width:0.5;"/></g><g class="participant participant-tail" data-entity-uid="part1" data-qualified-name="MS" data-source-line="2" id="part1-tail"><text fill="#000000" font-family="sans-serif" font-size="14" lengthAdjust="spacing" textLength="150.9717" x="5" y="477.0645">Maintenance Supervisor</text><ellipse cx="83.4858" cy="488.6406" fill="#E2E2F0" rx="8" ry="8" style="stroke:#181818;stroke-width:0.5;"/><path d="M83.4858,496.6406 L83.4858,523.6406 M70.4858,504.6406 L96.4858,504.6406 M83.4858,523.6406 L70.4858,538.6406 M83.4858,523.6406 L96.4858,538.6406" fill="none" style="stroke:#181818;stroke-width:0.5;"/></g><g class="participant participant-head" data-entity-uid="part2" data-qualified-name="Ctrl" data-source-line="3" id="part2-head"><rect fill="#E2E2F0" height="31.6094" rx="2.5" ry="2.5" style="stroke:#181818;stroke-width:0.5;" width="154.8545" x="393.8672" y="50"/><text fill="#000000" font-family="sans-serif" font-size="14" lengthAdjust="spacing" textLength="140.8545" x="400.8672" y="71.5332">MaintenanceController</text></g><g class="participant participant-tail" data-entity-uid="part2" data-qualified-name="Ctrl" data-source-line="3" id="part2-tail"><rect fill="#E2E2F0" height="31.6094" rx="2.5" ry="2.5" style="stroke:#181818;stroke-width:0.5;" width="154.8545" x="393.8672" y="462.5313"/><text fill="#000000" font-family="sans-serif" font-size="14" lengthAdjust="spacing" textLength="140.8545" x="400.8672" y="484.0645">MaintenanceController</text></g><g class="participant participant-head" data-entity-uid="part3" data-qualified-name="UC" data-source-line="4" id="part3-head"><rect fill="#E2E2F0" height="31.6094" rx="2.5" ry="2.5" style="stroke:#181818;stroke-width:0.5;" width="293.3574" x="634.3208" y="50"/><text fill="#000000" font-family="sans-serif" font-size="14" lengthAdjust="spacing" textLength="279.3574" x="641.3208" y="71.5332">ViewTotalMaintenanceHoursInFleetUseCase</text></g><g class="participant participant-tail" data-entity-uid="part3" data-qualified-name="UC" data-source-line="4" id="part3-tail"><rect fill="#E2E2F0" height="31.6094" rx="2.5" ry="2.5" style="stroke:#181818;stroke-width:0.5;" width="293.3574" x="634.3208" y="462.5313"/><text fill="#000000" font-family="sans-serif" font-size="14" lengthAdjust="spacing" textLength="279.3574" x="641.3208" y="484.0645">ViewTotalMaintenanceHoursInFleetUseCase</text></g><g class="participant participant-head" data-entity-uid="part4" data-qualified-name="Repo" data-source-line="5" id="part4-head"><rect fill="#E2E2F0" height="31.6094" rx="2.5" ry="2.5" style="stroke:#181818;stroke-width:0.5;" width="206.2129" x="937.6782" y="50"/><text fill="#000000" font-family="sans-serif" font-size="14" lengthAdjust="spacing" textLength="192.2129" x="944.6782" y="71.5332">MaintenanceRecordRepository</text></g><g class="participant participant-tail" data-entity-uid="part4" data-qualified-name="Repo" data-source-line="5" id="part4-tail"><rect fill="#E2E2F0" height="31.6094" rx="2.5" ry="2.5" style="stroke:#181818;stroke-width:0.5;" width="206.2129" x="937.6782" y="462.5313"/><text fill="#000000" font-family="sans-serif" font-size="14" lengthAdjust="spacing" textLength="192.2129" x="944.6782" y="484.0645">MaintenanceRecordRepository</text></g><g class="participant participant-head" data-entity-uid="part5" data-qualified-name="DB" data-source-line="6" id="part5-head"><text fill="#000000" font-family="sans-serif" font-size="14" lengthAdjust="spacing" textLength="59.9307" x="1262.6318" y="79.5332">Database</text><path d="M1277.5972,29 C1277.5972,19 1295.5972,19 1295.5972,19 C1295.5972,19 1313.5972,19 1313.5972,29 L1313.5972,55 C1313.5972,65 1295.5972,65 1295.5972,65 C1295.5972,65 1277.5972,65 1277.5972,55 L1277.5972,29" fill="#E2E2F0" style="stroke:#181818;stroke-width:0.5;"/><path d="M1277.5972,29 C1277.5972,39 1295.5972,39 1295.5972,39 C1295.5972,39 1313.5972,39 1313.5972,29" fill="none" style="stroke:#181818;stroke-width:0.5;"/></g><g class="participant participant-tail" data-entity-uid="part5" data-qualified-name="DB" data-source-line="6" id="part5-tail"><text fill="#000000" font-family="sans-serif" font-size="14" lengthAdjust="spacing" textLength="59.9307" x="1262.6318" y="477.0645">Database</text><path d="M1277.5972,490.1406 C1277.5972,480.1406 1295.5972,480.1406 1295.5972,480.1406 C1295.5972,480.1406 1313.5972,480.1406 1313.5972,490.1406 L1313.5972,516.1406 C1313.5972,526.1406 1295.5972,526.1406 1295.5972,526.1406 C1295.5972,526.1406 1277.5972,526.1406 1277.5972,516.1406 L1277.5972,490.1406" fill="#E2E2F0" style="stroke:#181818;stroke-width:0.5;"/><path d="M1277.5972,490.1406 C1277.5972,500.1406 1295.5972,500.1406 1295.5972,500.1406 C1295.5972,500.1406 1313.5972,500.1406 1313.5972,490.1406" fill="none" style="stroke:#181818;stroke-width:0.5;"/></g><g><title>MaintenanceController</title><rect fill="#FFFFFF" height="330.5703" style="stroke:#181818;stroke-width:1;" width="10" x="466.2944" y="114.9609"/></g><g><title>ViewTotalMaintenanceHoursInFleetUseCase</title><rect fill="#FFFFFF" height="237.1641" style="stroke:#181818;stroke-width:1;" width="10" x="775.9995" y="145.3125"/></g><g><title>MaintenanceRecordRepository</title><rect fill="#FFFFFF" height="91.0547" style="stroke:#181818;stroke-width:1;" width="10" x="1035.7847" y="175.6641"/></g><g><title>Database</title><rect fill="#FFFFFF" height="30.3516" style="stroke:#181818;stroke-width:1;" width="10" x="1290.5972" y="206.0156"/></g><g class="message" data-entity-1="part1" data-entity-2="part2" data-source-line="8" id="msg1"><polygon fill="#181818" points="454.2944,110.9609,464.2944,114.9609,454.2944,118.9609,458.2944,114.9609" style="stroke:#181818;stroke-width:1;stroke-linejoin:miter;stroke-miterlimit:10;"/><line style="stroke:#181818;stroke-width:1;" x1="83.4858" x2="460.2944" y1="114.9609" y2="114.9609"/><text fill="#000000" font-family="sans-serif" font-size="13" font-weight="700" lengthAdjust="spacing" textLength="7.23" x="90.4858" y="110.1045">1</text><text fill="#000000" font-family="sans-serif" font-size="13" lengthAdjust="spacing" textLength="212.437" x="101.7158" y="110.1045">GET /api/maintenance/records/hours</text></g><g class="message" data-entity-1="part2" data-entity-2="part3" data-source-line="11" id="msg2"><polygon fill="#181818" points="763.9995,141.3125,773.9995,145.3125,763.9995,149.3125,767.9995,145.3125" style="stroke:#181818;stroke-width:1;stroke-linejoin:miter;stroke-miterlimit:10;"/><line style="stroke:#181818;stroke-width:1;" x1="476.2944" x2="769.9995" y1="145.3125" y2="145.3125"/><text fill="#000000" font-family="sans-serif" font-size="13" font-weight="700" lengthAdjust="spacing" textLength="7.23" x="483.2944" y="140.4561">2</text><text fill="#000000" font-family="sans-serif" font-size="13" lengthAdjust="spacing" textLength="54.1899" x="494.5244" y="140.4561">execute()</text></g><g class="message" data-entity-1="part3" data-entity-2="part4" data-source-line="14" id="msg3"><polygon fill="#181818" points="1023.7847,171.6641,1033.7847,175.6641,1023.7847,179.6641,1027.7847,175.6641" style="stroke:#181818;stroke-width:1;stroke-linejoin:miter;stroke-miterlimit:10;"/><line style="stroke:#181818;stroke-width:1;" x1="785.9995" x2="1029.7847" y1="175.6641" y2="175.6641"/><text fill="#000000" font-family="sans-serif" font-size="13" font-weight="700" lengthAdjust="spacing" textLength="7.23" x="792.9995" y="170.8076">3</text><text fill="#000000" font-family="sans-serif" font-size="13" lengthAdjust="spacing" textLength="44.0654" x="804.2295" y="170.8076">findAll()</text></g><g class="message" data-entity-1="part4" data-entity-2="part5" data-source-line="16" id="msg4"><polygon fill="#181818" points="1278.5972,202.0156,1288.5972,206.0156,1278.5972,210.0156,1282.5972,206.0156" style="stroke:#181818;stroke-width:1;stroke-linejoin:miter;stroke-miterlimit:10;"/><line style="stroke:#181818;stroke-width:1;" x1="1045.7847" x2="1284.5972" y1="206.0156" y2="206.0156"/><text fill="#000000" font-family="sans-serif" font-size="13" font-weight="700" lengthAdjust="spacing" textLength="7.23" x="1052.7847" y="201.1592">4</text><text fill="#000000" font-family="sans-serif" font-size="13" lengthAdjust="spacing" textLength="214.5825" x="1064.0146" y="201.1592">SELECT FROM maintenance_record</text></g><g class="message" data-entity-1="part5" data-entity-2="part4" data-source-line="18" id="msg5"><polygon fill="#181818" points="1056.7847,232.3672,1046.7847,236.3672,1056.7847,240.3672,1052.7847,236.3672" style="stroke:#181818;stroke-width:1;stroke-linejoin:miter;stroke-miterlimit:10;"/><line style="stroke:#181818;stroke-width:1;stroke-dasharray:2,2;" x1="1050.7847" x2="1294.5972" y1="236.3672" y2="236.3672"/><text fill="#000000" font-family="sans-serif" font-size="13" font-weight="700" lengthAdjust="spacing" textLength="7.23" x="1062.7847" y="231.5107">5</text><text fill="#000000" font-family="sans-serif" font-size="13" lengthAdjust="spacing" textLength="77.3018" x="1074.0146" y="231.5107">list of records</text></g><g class="message" data-entity-1="part4" data-entity-2="part3" data-source-line="20" id="msg6"><polygon fill="#181818" points="796.9995,262.7188,786.9995,266.7188,796.9995,270.7188,792.9995,266.7188" style="stroke:#181818;stroke-width:1;stroke-linejoin:miter;stroke-miterlimit:10;"/><line style="stroke:#181818;stroke-width:1;stroke-dasharray:2,2;" x1="790.9995" x2="1039.7847" y1="266.7188" y2="266.7188"/><text fill="#000000" font-family="sans-serif" font-size="13" font-weight="700" lengthAdjust="spacing" textLength="7.23" x="802.9995" y="261.8623">6</text><text fill="#000000" font-family="sans-serif" font-size="13" lengthAdjust="spacing" textLength="151.7598" x="814.2295" y="261.8623">List&lt;MaintenanceRecord&gt;</text></g><path d="M790,279.7188 L790,338.7188 L1008,338.7188 L1008,289.7188 L998,279.7188 L790,279.7188" fill="#FEFFDD" style="stroke:#181818;stroke-width:0.5;"/><path d="M998,279.7188 L998,289.7188 L1008,289.7188 L998,279.7188" fill="#FEFFDD" style="stroke:#181818;stroke-width:0.5;"/><text fill="#000000" font-family="sans-serif" font-size="13" lengthAdjust="spacing" textLength="197.2598" x="796" y="298.2139">Sums expectedDuration (in hours)</text><text fill="#000000" font-family="sans-serif" font-size="13" lengthAdjust="spacing" textLength="179.918" x="796" y="314.5654">across all maintenance records</text><text fill="#000000" font-family="sans-serif" font-size="13" lengthAdjust="spacing" textLength="59.9854" x="796" y="330.917">in the fleet</text><g class="message" data-entity-1="part3" data-entity-2="part2" data-source-line="29" id="msg7"><polygon fill="#181818" points="487.2944,378.4766,477.2944,382.4766,487.2944,386.4766,483.2944,382.4766" style="stroke:#181818;stroke-width:1;stroke-linejoin:miter;stroke-miterlimit:10;"/><line style="stroke:#181818;stroke-width:1;stroke-dasharray:2,2;" x1="481.2944" x2="779.9995" y1="382.4766" y2="382.4766"/><text fill="#000000" font-family="sans-serif" font-size="13" font-weight="700" lengthAdjust="spacing" textLength="7.23" x="493.2944" y="369.4443">7</text><text fill="#000000" font-family="sans-serif" font-size="13" lengthAdjust="spacing" textLength="264.4751" x="504.5244" y="361.2686">ViewTotalMaintenanceHoursInFleetResponse</text><text fill="#000000" font-family="sans-serif" font-size="13" lengthAdjust="spacing" textLength="122.8525" x="504.5244" y="377.6201">{ totalHours: Integer }</text></g><g class="message" data-entity-1="part2" data-entity-2="part1" data-source-line="32" id="msg8"><polygon fill="#181818" points="94.4858,441.5313,84.4858,445.5313,94.4858,449.5313,90.4858,445.5313" style="stroke:#181818;stroke-width:1;stroke-linejoin:miter;stroke-miterlimit:10;"/><line style="stroke:#181818;stroke-width:1;stroke-dasharray:2,2;" x1="88.4858" x2="470.2944" y1="445.5313" y2="445.5313"/><text fill="#000000" font-family="sans-serif" font-size="13" font-weight="700" lengthAdjust="spacing" textLength="7.23" x="100.4858" y="424.3232">8</text><text fill="#000000" font-family="sans-serif" font-size="13" lengthAdjust="spacing" textLength="44.0845" x="111.7158" y="407.9717">200 OK</text><text fill="#000000" font-family="sans-serif" font-size="13" lengthAdjust="spacing" textLength="347.5786" x="111.7158" y="424.3232">EntityModel&lt;ViewTotalMaintenanceHoursInFleetResponse&gt;</text><text fill="#000000" font-family="sans-serif" font-size="13" lengthAdjust="spacing" textLength="92.4663" x="111.7158" y="440.6748">with _links (self)</text></g><?plantuml-src ZP9RIyD048NVzrSCVMeVIiN78WMRrWiQX5vyAfGrcTh5xMpOdNX1_E_ERjH4HFHjmtmpvvoPw9eTrOSxz4eNx3pqScs8aJGL2CkwGlzeWlCzq07ofQgqPrEOIXD_GpD7x9srs90PU_kTlJNuj7AiRQVfmjK-NDAPHUHrm4m7JDthx5UT1HREbmkiN31YzoNnyLELclMTJ83UxEELQhEfKlaIXfFa2SPmFb_1I5TcT6YdZdmQ6qRxw2XkmZngnYQ6IeqoO9r9EpvZKJFs1oqbTfNKX8X6XDaPAa-jxJB9OYeBDfiAj9nVpxCLd2rkSkXOsJPMsau98FomdMvDO70x-F2iIkooZSQdssjXJtwiRzBjISuKENbwSxzFeoKHoF4FGU9MM32MizfhDewWRmZIbWQ2wCAx441RsutmvGn0ODuZxEA55L89KQVPLdkHltwD1ORAKS0DlG97BXN7S2dmFNfuwyQ9nsWE9W9o-34S7nt1pTM6viI6Nt9NeZtvh-HaGq-6zx2rXXu2z0FQtQ0h5wNU0G00?></g></svg>