<?plantuml 1.2026.1?><svg xmlns="http://www.w3.org/2000/svg" xmlns:xlink="http://www.w3.org/1999/xlink" contentStyleType="text/css" data-diagram-type="SEQUENCE" height="525px" preserveAspectRatio="none" style="width:1459px;height:525px;background:#FFFFFF;" version="1.1" viewBox="0 0 1459 525" width="1459px" zoomAndPan="magnify"><defs/><g><g><title>MaintenanceController</title><rect fill="#FFFFFF" height="314.7266" style="stroke:#181818;stroke-width:1;" width="10" x="521.3081" y="112.4297"/></g><g><title>ViewTotalMaintenanceHoursInFleetUseCase</title><rect fill="#FFFFFF" height="226.1953" style="stroke:#181818;stroke-width:1;" width="10" x="861.1392" y="141.5625"/></g><g><title>MaintenanceRecordRepository</title><rect fill="#FFFFFF" height="87.3984" style="stroke:#181818;stroke-width:1;" width="10" x="1146.3062" y="170.6953"/></g><g><title>Database</title><rect fill="#FFFFFF" height="29.1328" style="stroke:#181818;stroke-width:1;" width="10" x="1417.2227" y="199.8281"/></g><g class="participant-lifeline" data-entity-uid="part1" data-qualified-name="MS" id="part1-lifeline"><g><title>Maintenance Supervisor</title><rect fill="#000000" fill-opacity="0.00000" height="363.8594" width="8" x="88.7075" y="81.2969"/><line style="stroke:#181818;stroke-width:0.5;stroke-dasharray:5,5;" x1="92" x2="92" y1="81.2969" y2="445.1563"/></g></g><g class="participant-lifeline" data-entity-uid="part2" data-qualified-name="Ctrl" id="part2-lifeline"><g><title>MaintenanceController</title><rect fill="#000000" fill-opacity="0.00000" height="363.8594" width="8" x="522.3081" y="81.2969"/><line style="stroke:#181818;stroke-width:0.5;stroke-dasharray:5,5;" x1="525.6421" x2="525.6421" y1="81.2969" y2="445.1563"/></g></g><g class="participant-lifeline" data-entity-uid="part3" data-qualified-name="UC" id="part3-lifeline"><g><title>ViewTotalMaintenanceHoursInFleetUseCase</title><rect fill="#000000" fill-opacity="0.00000" height="363.8594" width="8" x="862.1392" y="81.2969"/><line style="stroke:#181818;stroke-width:0.5;stroke-dasharray:5,5;" x1="865.2109" x2="865.2109" y1="81.2969" y2="445.1563"/></g></g><g class="participant-lifeline" data-entity-uid="part4" data-qualified-name="Repo" id="part4-lifeline"><g><title>MaintenanceRecordRepository</title><rect fill="#000000" fill-opacity="0.00000" height="363.8594" width="8" x="1147.3062" y="81.2969"/><line style="stroke:#181818;stroke-width:0.5;stroke-dasharray:5,5;" x1="1151.0674" x2="1151.0674" y1="81.2969" y2="445.1563"/></g></g><g class="participant-lifeline" data-entity-uid="part5" data-qualified-name="DB" id="part5-lifeline"><g><title>Database</title><rect fill="#000000" fill-opacity="0.00000" height="363.8594" width="8" x="1418.2227" y="81.2969"/><line style="stroke:#181818;stroke-width:0.5;stroke-dasharray:5,5;" x1="1421.8223" x2="1421.8223" y1="81.2969" y2="445.1563"/></g></g><g class="participant participant-head" data-entity-uid="part1" data-qualified-name="MS" id="part1-head"><text fill="#000000" font-family="sans-serif" font-size="14" lengthAdjust="spacing" textLength="169.415" x="5" y="77.9951">Maintenance Supervisor</text><ellipse cx="92.7075" cy="13.5" fill="#E2E2F0" rx="8" ry="8" style="stroke:#181818;stroke-width:0.5;"/><path d="M92.7075,21.5 L92.7075,48.5 M79.7075,29.5 L105.7075,29.5 M92.7075,48.5 L79.7075,63.5 M92.7075,48.5 L105.7075,63.5" fill="none" style="stroke:#181818;stroke-width:0.5;"/></g><g class="participant participant-tail" data-entity-uid="part1" data-qualified-name="MS" id="part1-tail"><text fill="#000000" font-family="sans-serif" font-size="14" lengthAdjust="spacing" textLength="169.415" x="5" y="457.1514">Maintenance Supervisor</text><ellipse cx="92.7075" cy="468.9531" fill="#E2E2F0" rx="8" ry="8" style="stroke:#181818;stroke-width:0.5;"/><path d="M92.7075,476.9531 L92.7075,503.9531 M79.7075,484.9531 L105.7075,484.9531 M92.7075,503.9531 L79.7075,518.9531 M92.7075,503.9531 L105.7075,518.9531" fill="none" style="stroke:#181818;stroke-width:0.5;"/></g><g class="participant participant-head" data-entity-uid="part2" data-qualified-name="Ctrl" id="part2-head"><rect fill="#E2E2F0" height="30.2969" rx="2.5" ry="2.5" style="stroke:#181818;stroke-width:0.5;" width="173.332" x="439.6421" y="50"/><text fill="#000000" font-family="sans-serif" font-size="14" lengthAdjust="spacing" textLength="159.332" x="446.6421" y="69.9951">MaintenanceController</text></g><g class="participant participant-tail" data-entity-uid="part2" data-qualified-name="Ctrl" id="part2-tail"><rect fill="#E2E2F0" height="30.2969" rx="2.5" ry="2.5" style="stroke:#181818;stroke-width:0.5;" width="173.332" x="439.6421" y="444.1563"/><text fill="#000000" font-family="sans-serif" font-size="14" lengthAdjust="spacing" textLength="159.332" x="446.6421" y="464.1514">MaintenanceController</text></g><g class="participant participant-head" data-entity-uid="part3" data-qualified-name="UC" id="part3-head"><rect fill="#E2E2F0" height="30.2969" rx="2.5" ry="2.5" style="stroke:#181818;stroke-width:0.5;" width="321.8564" x="705.2109" y="50"/><text fill="#000000" font-family="sans-serif" font-size="14" lengthAdjust="spacing" textLength="307.8564" x="712.2109" y="69.9951">ViewTotalMaintenanceHoursInFleetUseCase</text></g><g class="participant participant-tail" data-entity-uid="part3" data-qualified-name="UC" id="part3-tail"><rect fill="#E2E2F0" height="30.2969" rx="2.5" ry="2.5" style="stroke:#181818;stroke-width:0.5;" width="321.8564" x="705.2109" y="444.1563"/><text fill="#000000" font-family="sans-serif" font-size="14" lengthAdjust="spacing" textLength="307.8564" x="712.2109" y="464.1514">ViewTotalMaintenanceHoursInFleetUseCase</text></g><g class="participant participant-head" data-entity-uid="part4" data-qualified-name="Repo" id="part4-head"><rect fill="#E2E2F0" height="30.2969" rx="2.5" ry="2.5" style="stroke:#181818;stroke-width:0.5;" width="228.4775" x="1037.0674" y="50"/><text fill="#000000" font-family="sans-serif" font-size="14" lengthAdjust="spacing" textLength="214.4775" x="1044.0674" y="69.9951">MaintenanceRecordRepository</text></g><g class="participant participant-tail" data-entity-uid="part4" data-qualified-name="Repo" id="part4-tail"><rect fill="#E2E2F0" height="30.2969" rx="2.5" ry="2.5" style="stroke:#181818;stroke-width:0.5;" width="228.4775" x="1037.0674" y="444.1563"/><text fill="#000000" font-family="sans-serif" font-size="14" lengthAdjust="spacing" textLength="214.4775" x="1044.0674" y="464.1514">MaintenanceRecordRepository</text></g><g class="participant participant-head" data-entity-uid="part5" data-qualified-name="DB" id="part5-head"><text fill="#000000" font-family="sans-serif" font-size="14" lengthAdjust="spacing" textLength="66.8008" x="1385.8223" y="77.9951">Database</text><path d="M1404.2227,29 C1404.2227,19 1422.2227,19 1422.2227,19 C1422.2227,19 1440.2227,19 1440.2227,29 L1440.2227,55 C1440.2227,65 1422.2227,65 1422.2227,65 C1422.2227,65 1404.2227,65 1404.2227,55 L1404.2227,29" fill="#E2E2F0" style="stroke:#181818;stroke-width:0.5;"/><path d="M1404.2227,29 C1404.2227,39 1422.2227,39 1422.2227,39 C1422.2227,39 1440.2227,39 1440.2227,29" fill="none" style="stroke:#181818;stroke-width:0.5;"/></g><g class="participant participant-tail" data-entity-uid="part5" data-qualified-name="DB" id="part5-tail"><text fill="#000000" font-family="sans-serif" font-size="14" lengthAdjust="spacing" textLength="66.8008" x="1385.8223" y="457.1514">Database</text><path d="M1404.2227,470.4531 C1404.2227,460.4531 1422.2227,460.4531 1422.2227,460.4531 C1422.2227,460.4531 1440.2227,460.4531 1440.2227,470.4531 L1440.2227,496.4531 C1440.2227,506.4531 1422.2227,506.4531 1422.2227,506.4531 C1422.2227,506.4531 1404.2227,506.4531 1404.2227,496.4531 L1404.2227,470.4531" fill="#E2E2F0" style="stroke:#181818;stroke-width:0.5;"/><path d="M1404.2227,470.4531 C1404.2227,480.4531 1422.2227,480.4531 1422.2227,480.4531 C1422.2227,480.4531 1440.2227,480.4531 1440.2227,470.4531" fill="none" style="stroke:#181818;stroke-width:0.5;"/></g><g><title>MaintenanceController</title><rect fill="#FFFFFF" height="314.7266" style="stroke:#181818;stroke-width:1;" width="10" x="521.3081" y="112.4297"/></g><g><title>ViewTotalMaintenanceHoursInFleetUseCase</title><rect fill="#FFFFFF" height="226.1953" style="stroke:#181818;stroke-width:1;" width="10" x="861.1392" y="141.5625"/></g><g><title>MaintenanceRecordRepository</title><rect fill="#FFFFFF" height="87.3984" style="stroke:#181818;stroke-width:1;" width="10" x="1146.3062" y="170.6953"/></g><g><title>Database</title><rect fill="#FFFFFF" height="29.1328" style="stroke:#181818;stroke-width:1;" width="10" x="1417.2227" y="199.8281"/></g><g class="message" data-entity-1="part1" data-entity-2="part2" id="msg1"><polygon fill="#181818" points="509.3081,108.4297,519.3081,112.4297,509.3081,116.4297,513.3081,112.4297" style="stroke:#181818;stroke-width:1;"/><line style="stroke:#181818;stroke-width:1;" x1="92.7075" x2="515.3081" y1="112.4297" y2="112.4297"/><text fill="#000000" font-family="sans-serif" font-size="13" font-weight="bold" lengthAdjust="spacing" textLength="9.0454" x="99.7075" y="107.3638">1</text><text fill="#000000" font-family="sans-serif" font-size="13" lengthAdjust="spacing" textLength="238.2402" x="112.7529" y="107.3638">GET /api/maintenance/records/hours</text></g><g class="message" data-entity-1="part2" data-entity-2="part3" id="msg2"><polygon fill="#181818" points="849.1392,137.5625,859.1392,141.5625,849.1392,145.5625,853.1392,141.5625" style="stroke:#181818;stroke-width:1;"/><line style="stroke:#181818;stroke-width:1;" x1="531.3081" x2="855.1392" y1="141.5625" y2="141.5625"/><text fill="#000000" font-family="sans-serif" font-size="13" font-weight="bold" lengthAdjust="spacing" textLength="9.0454" x="538.3081" y="136.4966">2</text><text fill="#000000" font-family="sans-serif" font-size="13" lengthAdjust="spacing" textLength="62.3149" x="551.3535" y="136.4966">execute()</text></g><g class="message" data-entity-1="part3" data-entity-2="part4" id="msg3"><polygon fill="#181818" points="1134.3062,166.6953,1144.3062,170.6953,1134.3062,174.6953,1138.3062,170.6953" style="stroke:#181818;stroke-width:1;"/><line style="stroke:#181818;stroke-width:1;" x1="871.1392" x2="1140.3062" y1="170.6953" y2="170.6953"/><text fill="#000000" font-family="sans-serif" font-size="13" font-weight="bold" lengthAdjust="spacing" textLength="9.0454" x="878.1392" y="165.6294">3</text><text fill="#000000" font-family="sans-serif" font-size="13" lengthAdjust="spacing" textLength="50.9399" x="891.1846" y="165.6294">findAll()</text></g><g class="message" data-entity-1="part4" data-entity-2="part5" id="msg4"><polygon fill="#181818" points="1405.2227,195.8281,1415.2227,199.8281,1405.2227,203.8281,1409.2227,199.8281" style="stroke:#181818;stroke-width:1;"/><line style="stroke:#181818;stroke-width:1;" x1="1156.3062" x2="1411.2227" y1="199.8281" y2="199.8281"/><text fill="#000000" font-family="sans-serif" font-size="13" font-weight="bold" lengthAdjust="spacing" textLength="9.0454" x="1163.3062" y="194.7622">4</text><text fill="#000000" font-family="sans-serif" font-size="13" lengthAdjust="spacing" textLength="228.8711" x="1176.3516" y="194.7622">SELECT FROM maintenance_record</text></g><g class="message" data-entity-1="part5" data-entity-2="part4" id="msg5"><polygon fill="#181818" points="1167.3062,224.9609,1157.3062,228.9609,1167.3062,232.9609,1163.3062,228.9609" style="stroke:#181818;stroke-width:1;"/><line style="stroke:#181818;stroke-width:1;stroke-dasharray:2,2;" x1="1161.3062" x2="1421.2227" y1="228.9609" y2="228.9609"/><text fill="#000000" font-family="sans-serif" font-size="13" font-weight="bold" lengthAdjust="spacing" textLength="9.0454" x="1173.3062" y="223.895">5</text><text fill="#000000" font-family="sans-serif" font-size="13" lengthAdjust="spacing" textLength="88.7021" x="1186.3516" y="223.895">list of records</text></g><g class="message" data-entity-1="part4" data-entity-2="part3" id="msg6"><polygon fill="#181818" points="882.1392,254.0938,872.1392,258.0938,882.1392,262.0938,878.1392,258.0938" style="stroke:#181818;stroke-width:1;"/><line style="stroke:#181818;stroke-width:1;stroke-dasharray:2,2;" x1="876.1392" x2="1150.3062" y1="258.0938" y2="258.0938"/><text fill="#000000" font-family="sans-serif" font-size="13" font-weight="bold" lengthAdjust="spacing" textLength="9.0454" x="888.1392" y="253.0278">6</text><text fill="#000000" font-family="sans-serif" font-size="13" lengthAdjust="spacing" textLength="173.9575" x="901.1846" y="253.0278">List&lt;MaintenanceRecord&gt;</text></g><path d="M876,271.0938 L876,326.0938 L1120,326.0938 L1120,281.0938 L1110,271.0938 L876,271.0938" fill="#FEFFDD" style="stroke:#181818;stroke-width:0.5;"/><path d="M1110,271.0938 L1110,281.0938 L1120,281.0938 L1110,271.0938" fill="#FEFFDD" style="stroke:#181818;stroke-width:0.5;"/><text fill="#000000" font-family="sans-serif" font-size="13" lengthAdjust="spacing" textLength="223.7676" x="882" y="288.1606">Sums expectedDuration (in hours)</text><text fill="#000000" font-family="sans-serif" font-size="13" lengthAdjust="spacing" textLength="203.5249" x="882" y="303.2935">across all maintenance records</text><text fill="#000000" font-family="sans-serif" font-size="13" lengthAdjust="spacing" textLength="70.7319" x="882" y="318.4263">in the fleet</text><g class="message" data-entity-1="part3" data-entity-2="part2" id="msg7"><polygon fill="#181818" points="542.3081,363.7578,532.3081,367.7578,542.3081,371.7578,538.3081,367.7578" style="stroke:#181818;stroke-width:1;"/><line style="stroke:#181818;stroke-width:1;stroke-dasharray:2,2;" x1="536.3081" x2="865.1392" y1="367.7578" y2="367.7578"/><text fill="#000000" font-family="sans-serif" font-size="13" font-weight="bold" lengthAdjust="spacing" textLength="9.0454" x="548.3081" y="355.1255">7</text><text fill="#000000" font-family="sans-serif" font-size="13" lengthAdjust="spacing" textLength="292.7856" x="561.3535" y="347.5591">ViewTotalMaintenanceHoursInFleetResponse</text><text fill="#000000" font-family="sans-serif" font-size="13" lengthAdjust="spacing" textLength="147.894" x="561.3535" y="362.6919">{ totalHours: Integer }</text></g><g class="message" data-entity-1="part2" data-entity-2="part1" id="msg8"><polygon fill="#181818" points="103.7075,423.1563,93.7075,427.1563,103.7075,431.1563,99.7075,427.1563" style="stroke:#181818;stroke-width:1;"/><line style="stroke:#181818;stroke-width:1;stroke-dasharray:2,2;" x1="97.7075" x2="525.3081" y1="427.1563" y2="427.1563"/><text fill="#000000" font-family="sans-serif" font-size="13" font-weight="bold" lengthAdjust="spacing" textLength="9.0454" x="109.7075" y="406.9575">8</text><text fill="#000000" font-family="sans-serif" font-size="13" lengthAdjust="spacing" textLength="47.7026" x="122.7529" y="391.8247">200 OK</text><text fill="#000000" font-family="sans-serif" font-size="13" lengthAdjust="spacing" textLength="391.5552" x="122.7529" y="406.9575">EntityModel&lt;ViewTotalMaintenanceHoursInFleetResponse&gt;</text><text fill="#000000" font-family="sans-serif" font-size="13" lengthAdjust="spacing" textLength="105.2124" x="122.7529" y="422.0903">with _links (self)</text></g><?plantuml-src ZP9RIyD048NVzrSCVMeVIiN78WMRrWiQX5vyAfGrcTh5xMpOdNX1_E_ERjH4HFHjmtmpvvoPw9eTrOSxz4eNx3pqScs8aJGL2CkwGlzeWlCzq07ofQgqPrEOIXD_GpD7x9srs90PU_kTlJNuj7AiRQVfmjK-NDAPHUHrm4m7JDthx5UT1HREbmkiN31YzoNnyLELclMTJ83UxEELQhEfKlaIXfFa2SPmFb_1I5TcT6YdZdmQ6qRxw2XkmZngnYQ6IeqoO9r9EpvZKJFs1oqbTfNKX8X6XDaPAa-jxJB9OYeBDfiAj9nVpxCLd2rkSkXOsJPMsau98FomdMvDO70x-F2iIkooZSQdssjXJtwiRzBjISuKENbwSxzFeoKHoF4FGU9MM32MizfhDewWRmZIbWQ2wCAx441RsutmvGn0ODuZxEA55L89KQVPLdkHltwD1ORAKS0DlG97BXN7S2dmFNfuwyQ9nsWE9W9o-34S7nt1pTM6viI6Nt9NeZtvh-HaGq-6zx2rXXu2z0FQtQ0h5wNU0G00?></g></svg>