<?plantuml 1.2026.1?><svg xmlns="http://www.w3.org/2000/svg" xmlns:xlink="http://www.w3.org/1999/xlink" contentStyleType="text/css" data-diagram-type="SEQUENCE" height="457px" preserveAspectRatio="none" style="width:1311px;height:457px;background:#FFFFFF;" version="1.1" viewBox="0 0 1311 457" width="1311px" zoomAndPan="magnify"><defs/><g><g><title>MaintenanceController</title><rect fill="#FFFFFF" height="246.0625" style="stroke:#181818;stroke-width:1;" width="10" x="362.9932" y="112.4297"/></g><g><title>ViewTotalMaintenanceHoursInFleetUseCase</title><rect fill="#FFFFFF" height="187.7969" style="stroke:#181818;stroke-width:1;" width="10" x="702.6021" y="141.5625"/></g><g><title>MaintenanceRecordRepository</title><rect fill="#FFFFFF" height="87.3984" style="stroke:#181818;stroke-width:1;" width="10" x="987.769" y="170.6953"/></g><g><title>Database</title><rect fill="#FFFFFF" height="29.1328" style="stroke:#181818;stroke-width:1;" width="10" x="1269.3179" y="199.8281"/></g><g class="participant-lifeline" data-entity-uid="part1" data-qualified-name="MS" id="part1-lifeline"><g><title>Maintenance Supervisor</title><rect fill="#000000" fill-opacity="0.00000" height="295.1953" width="8" x="88.7075" y="81.2969"/><line style="stroke:#181818;stroke-width:0.5;stroke-dasharray:5,5;" x1="92" x2="92" y1="81.2969" y2="376.4922"/></g></g><g class="participant-lifeline" data-entity-uid="part2" data-qualified-name="Ctrl" id="part2-lifeline"><g><title>MaintenanceController</title><rect fill="#000000" fill-opacity="0.00000" height="295.1953" width="8" x="363.9932" y="81.2969"/><line style="stroke:#181818;stroke-width:0.5;stroke-dasharray:5,5;" x1="367.3271" x2="367.3271" y1="81.2969" y2="376.4922"/></g></g><g class="participant-lifeline" data-entity-uid="part3" data-qualified-name="UC" id="part3-lifeline"><g><title>ViewTotalMaintenanceHoursInFleetUseCase</title><rect fill="#000000" fill-opacity="0.00000" height="295.1953" width="8" x="703.6021" y="81.2969"/><line style="stroke:#181818;stroke-width:0.5;stroke-dasharray:5,5;" x1="706.6738" x2="706.6738" y1="81.2969" y2="376.4922"/></g></g><g class="participant-lifeline" data-entity-uid="part4" data-qualified-name="Repo" id="part4-lifeline"><g><title>MaintenanceRecordRepository</title><rect fill="#000000" fill-opacity="0.00000" height="295.1953" width="8" x="988.769" y="81.2969"/><line style="stroke:#181818;stroke-width:0.5;stroke-dasharray:5,5;" x1="992.5303" x2="992.5303" y1="81.2969" y2="376.4922"/></g></g><g class="participant-lifeline" data-entity-uid="part5" data-qualified-name="DB" id="part5-lifeline"><g><title>Database</title><rect fill="#000000" fill-opacity="0.00000" height="295.1953" width="8" x="1270.3179" y="81.2969"/><line style="stroke:#181818;stroke-width:0.5;stroke-dasharray:5,5;" x1="1273.9175" x2="1273.9175" y1="81.2969" y2="376.4922"/></g></g><g class="participant participant-head" data-entity-uid="part1" data-qualified-name="MS" id="part1-head"><text fill="#000000" font-family="sans-serif" font-size="14" lengthAdjust="spacing" textLength="169.415" x="5" y="77.9951">Maintenance Supervisor</text><ellipse cx="92.7075" cy="13.5" fill="#E2E2F0" rx="8" ry="8" style="stroke:#181818;stroke-width:0.5;"/><path d="M92.7075,21.5 L92.7075,48.5 M79.7075,29.5 L105.7075,29.5 M92.7075,48.5 L79.7075,63.5 M92.7075,48.5 L105.7075,63.5" fill="none" style="stroke:#181818;stroke-width:0.5;"/></g><g class="participant participant-tail" data-entity-uid="part1" data-qualified-name="MS" id="part1-tail"><text fill="#000000" font-family="sans-serif" font-size="14" lengthAdjust="spacing" textLength="169.415" x="5" y="388.4873">Maintenance Supervisor</text><ellipse cx="92.7075" cy="400.2891" fill="#E2E2F0" rx="8" ry="8" style="stroke:#181818;stroke-width:0.5;"/><path d="M92.7075,408.2891 L92.7075,435.2891 M79.7075,416.2891 L105.7075,416.2891 M92.7075,435.2891 L79.7075,450.2891 M92.7075,435.2891 L105.7075,450.2891" fill="none" style="stroke:#181818;stroke-width:0.5;"/></g><g class="participant participant-head" data-entity-uid="part2" data-qualified-name="Ctrl" id="part2-head"><rect fill="#E2E2F0" height="30.2969" rx="2.5" ry="2.5" style="stroke:#181818;stroke-width:0.5;" width="173.332" x="281.3271" y="50"/><text fill="#000000" font-family="sans-serif" font-size="14" lengthAdjust="spacing" textLength="159.332" x="288.3271" y="69.9951">MaintenanceController</text></g><g class="participant participant-tail" data-entity-uid="part2" data-qualified-name="Ctrl" id="part2-tail"><rect fill="#E2E2F0" height="30.2969" rx="2.5" ry="2.5" style="stroke:#181818;stroke-width:0.5;" width="173.332" x="281.3271" y="375.4922"/><text fill="#000000" font-family="sans-serif" font-size="14" lengthAdjust="spacing" textLength="159.332" x="288.3271" y="395.4873">MaintenanceController</text></g><g class="participant participant-head" data-entity-uid="part3" data-qualified-name="UC" id="part3-head"><rect fill="#E2E2F0" height="30.2969" rx="2.5" ry="2.5" style="stroke:#181818;stroke-width:0.5;" width="321.8564" x="546.6738" y="50"/><text fill="#000000" font-family="sans-serif" font-size="14" lengthAdjust="spacing" textLength="307.8564" x="553.6738" y="69.9951">ViewTotalMaintenanceHoursInFleetUseCase</text></g><g class="participant participant-tail" data-entity-uid="part3" data-qualified-name="UC" id="part3-tail"><rect fill="#E2E2F0" height="30.2969" rx="2.5" ry="2.5" style="stroke:#181818;stroke-width:0.5;" width="321.8564" x="546.6738" y="375.4922"/><text fill="#000000" font-family="sans-serif" font-size="14" lengthAdjust="spacing" textLength="307.8564" x="553.6738" y="395.4873">ViewTotalMaintenanceHoursInFleetUseCase</text></g><g class="participant participant-head" data-entity-uid="part4" data-qualified-name="Repo" id="part4-head"><rect fill="#E2E2F0" height="30.2969" rx="2.5" ry="2.5" style="stroke:#181818;stroke-width:0.5;" width="228.4775" x="878.5303" y="50"/><text fill="#000000" font-family="sans-serif" font-size="14" lengthAdjust="spacing" textLength="214.4775" x="885.5303" y="69.9951">MaintenanceRecordRepository</text></g><g class="participant participant-tail" data-entity-uid="part4" data-qualified-name="Repo" id="part4-tail"><rect fill="#E2E2F0" height="30.2969" rx="2.5" ry="2.5" style="stroke:#181818;stroke-width:0.5;" width="228.4775" x="878.5303" y="375.4922"/><text fill="#000000" font-family="sans-serif" font-size="14" lengthAdjust="spacing" textLength="214.4775" x="885.5303" y="395.4873">MaintenanceRecordRepository</text></g><g class="participant participant-head" data-entity-uid="part5" data-qualified-name="DB" id="part5-head"><text fill="#000000" font-family="sans-serif" font-size="14" lengthAdjust="spacing" textLength="66.8008" x="1237.9175" y="77.9951">Database</text><path d="M1256.3179,29 C1256.3179,19 1274.3179,19 1274.3179,19 C1274.3179,19 1292.3179,19 1292.3179,29 L1292.3179,55 C1292.3179,65 1274.3179,65 1274.3179,65 C1274.3179,65 1256.3179,65 1256.3179,55 L1256.3179,29" fill="#E2E2F0" style="stroke:#181818;stroke-width:0.5;"/><path d="M1256.3179,29 C1256.3179,39 1274.3179,39 1274.3179,39 C1274.3179,39 1292.3179,39 1292.3179,29" fill="none" style="stroke:#181818;stroke-width:0.5;"/></g><g class="participant participant-tail" data-entity-uid="part5" data-qualified-name="DB" id="part5-tail"><text fill="#000000" font-family="sans-serif" font-size="14" lengthAdjust="spacing" textLength="66.8008" x="1237.9175" y="388.4873">Database</text><path d="M1256.3179,401.7891 C1256.3179,391.7891 1274.3179,391.7891 1274.3179,391.7891 C1274.3179,391.7891 1292.3179,391.7891 1292.3179,401.7891 L1292.3179,427.7891 C1292.3179,437.7891 1274.3179,437.7891 1274.3179,437.7891 C1274.3179,437.7891 1256.3179,437.7891 1256.3179,427.7891 L1256.3179,401.7891" fill="#E2E2F0" style="stroke:#181818;stroke-width:0.5;"/><path d="M1256.3179,401.7891 C1256.3179,411.7891 1274.3179,411.7891 1274.3179,411.7891 C1274.3179,411.7891 1292.3179,411.7891 1292.3179,401.7891" fill="none" style="stroke:#181818;stroke-width:0.5;"/></g><g><title>MaintenanceController</title><rect fill="#FFFFFF" height="246.0625" style="stroke:#181818;stroke-width:1;" width="10" x="362.9932" y="112.4297"/></g><g><title>ViewTotalMaintenanceHoursInFleetUseCase</title><rect fill="#FFFFFF" height="187.7969" style="stroke:#181818;stroke-width:1;" width="10" x="702.6021" y="141.5625"/></g><g><title>MaintenanceRecordRepository</title><rect fill="#FFFFFF" height="87.3984" style="stroke:#181818;stroke-width:1;" width="10" x="987.769" y="170.6953"/></g><g><title>Database</title><rect fill="#FFFFFF" height="29.1328" style="stroke:#181818;stroke-width:1;" width="10" x="1269.3179" y="199.8281"/></g><g class="message" data-entity-1="part1" data-entity-2="part2" id="msg1"><polygon fill="#181818" points="350.9932,108.4297,360.9932,112.4297,350.9932,116.4297,354.9932,112.4297" style="stroke:#181818;stroke-width:1;"/><line style="stroke:#181818;stroke-width:1;" x1="92.7075" x2="356.9932" y1="112.4297" y2="112.4297"/><text fill="#000000" font-family="sans-serif" font-size="13" font-weight="bold" lengthAdjust="spacing" textLength="9.0454" x="99.7075" y="107.3638">1</text><text fill="#000000" font-family="sans-serif" font-size="13" lengthAdjust="spacing" textLength="238.2402" x="112.7529" y="107.3638">GET /api/maintenance/records/hours</text></g><g class="message" data-entity-1="part2" data-entity-2="part3" id="msg2"><polygon fill="#181818" points="690.6021,137.5625,700.6021,141.5625,690.6021,145.5625,694.6021,141.5625" style="stroke:#181818;stroke-width:1;"/><line style="stroke:#181818;stroke-width:1;" x1="372.9932" x2="696.6021" y1="141.5625" y2="141.5625"/><text fill="#000000" font-family="sans-serif" font-size="13" font-weight="bold" lengthAdjust="spacing" textLength="9.0454" x="379.9932" y="136.4966">2</text><text fill="#000000" font-family="sans-serif" font-size="13" lengthAdjust="spacing" textLength="62.3149" x="393.0386" y="136.4966">execute()</text></g><g class="message" data-entity-1="part3" data-entity-2="part4" id="msg3"><polygon fill="#181818" points="975.769,166.6953,985.769,170.6953,975.769,174.6953,979.769,170.6953" style="stroke:#181818;stroke-width:1;"/><line style="stroke:#181818;stroke-width:1;" x1="712.6021" x2="981.769" y1="170.6953" y2="170.6953"/><text fill="#000000" font-family="sans-serif" font-size="13" font-weight="bold" lengthAdjust="spacing" textLength="9.0454" x="719.6021" y="165.6294">3</text><text fill="#000000" font-family="sans-serif" font-size="13" lengthAdjust="spacing" textLength="50.9399" x="732.6475" y="165.6294">findAll()</text></g><g class="message" data-entity-1="part4" data-entity-2="part5" id="msg4"><polygon fill="#181818" points="1257.3179,195.8281,1267.3179,199.8281,1257.3179,203.8281,1261.3179,199.8281" style="stroke:#181818;stroke-width:1;"/><line style="stroke:#181818;stroke-width:1;" x1="997.769" x2="1263.3179" y1="199.8281" y2="199.8281"/><text fill="#000000" font-family="sans-serif" font-size="13" font-weight="bold" lengthAdjust="spacing" textLength="9.0454" x="1004.769" y="194.7622">4</text><text fill="#000000" font-family="sans-serif" font-size="13" lengthAdjust="spacing" textLength="239.5034" x="1017.8145" y="194.7622">SELECT * FROM maintenance_record</text></g><g class="message" data-entity-1="part5" data-entity-2="part4" id="msg5"><polygon fill="#181818" points="1008.769,224.9609,998.769,228.9609,1008.769,232.9609,1004.769,228.9609" style="stroke:#181818;stroke-width:1;"/><line style="stroke:#181818;stroke-width:1;stroke-dasharray:2,2;" x1="1002.769" x2="1273.3179" y1="228.9609" y2="228.9609"/><text fill="#000000" font-family="sans-serif" font-size="13" font-weight="bold" lengthAdjust="spacing" textLength="9.0454" x="1014.769" y="223.895">5</text><text fill="#000000" font-family="sans-serif" font-size="13" lengthAdjust="spacing" textLength="88.7021" x="1027.8145" y="223.895">list of records</text></g><g class="message" data-entity-1="part4" data-entity-2="part3" id="msg6"><polygon fill="#181818" points="723.6021,254.0938,713.6021,258.0938,723.6021,262.0938,719.6021,258.0938" style="stroke:#181818;stroke-width:1;"/><line style="stroke:#181818;stroke-width:1;stroke-dasharray:2,2;" x1="717.6021" x2="991.769" y1="258.0938" y2="258.0938"/><text fill="#000000" font-family="sans-serif" font-size="13" font-weight="bold" lengthAdjust="spacing" textLength="9.0454" x="729.6021" y="253.0278">6</text><text fill="#000000" font-family="sans-serif" font-size="13" lengthAdjust="spacing" textLength="173.9575" x="742.6475" y="253.0278">List&lt;MaintenanceRecord&gt;</text></g><g class="message" data-entity-1="part3" data-entity-2="part3" id="msg7"><line style="stroke:#181818;stroke-width:1;" x1="712.6021" x2="754.6021" y1="287.2266" y2="287.2266"/><line style="stroke:#181818;stroke-width:1;" x1="754.6021" x2="754.6021" y1="287.2266" y2="300.2266"/><line style="stroke:#181818;stroke-width:1;" x1="713.6021" x2="754.6021" y1="300.2266" y2="300.2266"/><polygon fill="#181818" points="723.6021,296.2266,713.6021,300.2266,723.6021,304.2266,719.6021,300.2266" style="stroke:#181818;stroke-width:1;"/><text fill="#000000" font-family="sans-serif" font-size="13" font-weight="bold" lengthAdjust="spacing" textLength="9.0454" x="719.6021" y="282.1606">7</text><text fill="#000000" font-family="sans-serif" font-size="13" lengthAdjust="spacing" textLength="195.1206" x="732.6475" y="282.1606">sum expectedDuration values</text></g><g class="message" data-entity-1="part3" data-entity-2="part2" id="msg8"><polygon fill="#181818" points="383.9932,325.3594,373.9932,329.3594,383.9932,333.3594,379.9932,329.3594" style="stroke:#181818;stroke-width:1;"/><line style="stroke:#181818;stroke-width:1;stroke-dasharray:2,2;" x1="377.9932" x2="706.6021" y1="329.3594" y2="329.3594"/><text fill="#000000" font-family="sans-serif" font-size="13" font-weight="bold" lengthAdjust="spacing" textLength="9.0454" x="389.9932" y="324.2935">8</text><text fill="#000000" font-family="sans-serif" font-size="13" lengthAdjust="spacing" textLength="292.5635" x="403.0386" y="324.2935">ViewTotalMaintenanceHoursinFleetResponse</text></g><g class="message" data-entity-1="part2" data-entity-2="part1" id="msg9"><polygon fill="#181818" points="103.7075,354.4922,93.7075,358.4922,103.7075,362.4922,99.7075,358.4922" style="stroke:#181818;stroke-width:1;"/><line style="stroke:#181818;stroke-width:1;stroke-dasharray:2,2;" x1="97.7075" x2="366.9932" y1="358.4922" y2="358.4922"/><text fill="#000000" font-family="sans-serif" font-size="13" font-weight="bold" lengthAdjust="spacing" textLength="9.0454" x="109.7075" y="353.4263">9</text><text fill="#000000" font-family="sans-serif" font-size="13" lengthAdjust="spacing" textLength="94.0215" x="122.7529" y="353.4263">200 OK (JSON)</text></g><?plantuml-src TP5DQy9048Rl-HM39or8f4SfGasqNwP2ehsMCHdfmheRziEs_xwJNKiYfRU4VTwPPsRGEwtywK0cmTff0wC2XNAaKDK4bM_9d8NLPWHeeQYI5eqJjMXHkIiqqyePBIL5CdD6NhDlWZvtsg4SX1wrD_P9hIMHsrlAq598xxD_-vHKQzEKr6ehMFSxyDrlqg330rU0KNxv2c_vCYagc2w24ipXORM355kHdlgYgGbLRVhH2NMB46Tq5AS8ESxlCqxJ5zNUqNZIGopBJmnq5emSXMhkfHmYmIyyCvOl6QfMcrMsWnjObzi21YhlKQNFiZydfdrzAQm3VOIBSzBGa8rTVdKtpDxzsTvYc0bkSO0GiVx4KxPKEsfoRz09hU2CqfCDMB_9VoyguaLBigrMbeRTU5bndro6ppA7szaCjYymVgwshvCXsM4_?></g></svg>