<svg xmlns="http://www.w3.org/2000/svg" xmlns:xlink="http://www.w3.org/1999/xlink" contentStyleType="text/css" data-diagram-type="SEQUENCE" height="472px" preserveAspectRatio="none" style="width:1207px;height:472px;background:#FFFFFF;" version="1.1" viewBox="0 0 1207 472" width="1207px" zoomAndPan="magnify"><?plantuml 1.2026.4?><defs/><g><g><title>MaintenanceController</title><rect fill="#FFFFFF" height="255.8125" style="stroke:#181818;stroke-width:1;" width="10" x="326.1528" y="114.9609"/></g><g><title>ViewTotalMaintenanceHoursInFleetUseCase</title><rect fill="#FFFFFF" height="195.1094" style="stroke:#181818;stroke-width:1;" width="10" x="635.1343" y="145.3125"/></g><g><title>MaintenanceRecordRepository</title><rect fill="#FFFFFF" height="91.0547" style="stroke:#181818;stroke-width:1;" width="10" x="894.9194" y="175.6641"/></g><g><title>Database</title><rect fill="#FFFFFF" height="30.3516" style="stroke:#181818;stroke-width:1;" width="10" x="1158.4028" y="206.0156"/></g><g class="participant-lifeline" data-entity-uid="part1" data-qualified-name="MS" data-source-line="2" id="part1-lifeline"><g><title>Maintenance Supervisor</title><rect fill="#000000" fill-opacity="0.00000" height="306.1641" width="8" x="79.4858" y="82.6094"/><line style="stroke:#181818;stroke-width:0.5;stroke-dasharray:5,5;" x1="83" x2="83" y1="82.6094" y2="388.7734"/></g></g><g class="participant-lifeline" data-entity-uid="part2" data-qualified-name="Ctrl" data-source-line="3" id="part2-lifeline"><g><title>MaintenanceController</title><rect fill="#000000" fill-opacity="0.00000" height="306.1641" width="8" x="327.1528" y="82.6094"/><line style="stroke:#181818;stroke-width:0.5;stroke-dasharray:5,5;" x1="330.7256" x2="330.7256" y1="82.6094" y2="388.7734"/></g></g><g class="participant-lifeline" data-entity-uid="part3" data-qualified-name="UC" data-source-line="4" id="part3-lifeline"><g><title>ViewTotalMaintenanceHoursInFleetUseCase</title><rect fill="#000000" fill-opacity="0.00000" height="306.1641" width="8" x="636.1343" y="82.6094"/><line style="stroke:#181818;stroke-width:0.5;stroke-dasharray:5,5;" x1="639.4556" x2="639.4556" y1="82.6094" y2="388.7734"/></g></g><g class="participant-lifeline" data-entity-uid="part4" data-qualified-name="Repo" data-source-line="5" id="part4-lifeline"><g><title>MaintenanceRecordRepository</title><rect fill="#000000" fill-opacity="0.00000" height="306.1641" width="8" x="895.9194" y="82.6094"/><line style="stroke:#181818;stroke-width:0.5;stroke-dasharray:5,5;" x1="899.813" x2="899.813" y1="82.6094" y2="388.7734"/></g></g><g class="participant-lifeline" data-entity-uid="part5" data-qualified-name="DB" data-source-line="6" id="part5-lifeline"><g><title>Database</title><rect fill="#000000" fill-opacity="0.00000" height="306.1641" width="8" x="1159.4028" y="82.6094"/><line style="stroke:#181818;stroke-width:0.5;stroke-dasharray:5,5;" x1="1162.4375" x2="1162.4375" y1="82.6094" y2="388.7734"/></g></g><g class="participant participant-head" data-entity-uid="part1" data-qualified-name="MS" data-source-line="2" id="part1-head"><text fill="#000000" font-family="sans-serif" font-size="14" lengthAdjust="spacing" textLength="150.9717" x="5" y="79.5332">Maintenance Supervisor</text><ellipse cx="83.4858" cy="13.5" fill="#E2E2F0" rx="8" ry="8" style="stroke:#181818;stroke-width:0.5;"/><path d="M83.4858,21.5 L83.4858,48.5 M70.4858,29.5 L96.4858,29.5 M83.4858,48.5 L70.4858,63.5 M83.4858,48.5 L96.4858,63.5" fill="none" style="stroke:#181818;stroke-width:0.5;"/></g><g class="participant participant-tail" data-entity-uid="part1" data-qualified-name="MS" data-source-line="2" id="part1-tail"><text fill="#000000" font-family="sans-serif" font-size="14" lengthAdjust="spacing" textLength="150.9717" x="5" y="402.3066">Maintenance Supervisor</text><ellipse cx="83.4858" cy="413.8828" fill="#E2E2F0" rx="8" ry="8" style="stroke:#181818;stroke-width:0.5;"/><path d="M83.4858,421.8828 L83.4858,448.8828 M70.4858,429.8828 L96.4858,429.8828 M83.4858,448.8828 L70.4858,463.8828 M83.4858,448.8828 L96.4858,463.8828" fill="none" style="stroke:#181818;stroke-width:0.5;"/></g><g class="participant participant-head" data-entity-uid="part2" data-qualified-name="Ctrl" data-source-line="3" id="part2-head"><rect fill="#E2E2F0" height="31.6094" rx="2.5" ry="2.5" style="stroke:#181818;stroke-width:0.5;" width="154.8545" x="253.7256" y="50"/><text fill="#000000" font-family="sans-serif" font-size="14" lengthAdjust="spacing" textLength="140.8545" x="260.7256" y="71.5332">MaintenanceController</text></g><g class="participant participant-tail" data-entity-uid="part2" data-qualified-name="Ctrl" data-source-line="3" id="part2-tail"><rect fill="#E2E2F0" height="31.6094" rx="2.5" ry="2.5" style="stroke:#181818;stroke-width:0.5;" width="154.8545" x="253.7256" y="387.7734"/><text fill="#000000" font-family="sans-serif" font-size="14" lengthAdjust="spacing" textLength="140.8545" x="260.7256" y="409.3066">MaintenanceController</text></g><g class="participant participant-head" data-entity-uid="part3" data-qualified-name="UC" data-source-line="4" id="part3-head"><rect fill="#E2E2F0" height="31.6094" rx="2.5" ry="2.5" style="stroke:#181818;stroke-width:0.5;" width="293.3574" x="493.4556" y="50"/><text fill="#000000" font-family="sans-serif" font-size="14" lengthAdjust="spacing" textLength="279.3574" x="500.4556" y="71.5332">ViewTotalMaintenanceHoursInFleetUseCase</text></g><g class="participant participant-tail" data-entity-uid="part3" data-qualified-name="UC" data-source-line="4" id="part3-tail"><rect fill="#E2E2F0" height="31.6094" rx="2.5" ry="2.5" style="stroke:#181818;stroke-width:0.5;" width="293.3574" x="493.4556" y="387.7734"/><text fill="#000000" font-family="sans-serif" font-size="14" lengthAdjust="spacing" textLength="279.3574" x="500.4556" y="409.3066">ViewTotalMaintenanceHoursInFleetUseCase</text></g><g class="participant participant-head" data-entity-uid="part4" data-qualified-name="Repo" data-source-line="5" id="part4-head"><rect fill="#E2E2F0" height="31.6094" rx="2.5" ry="2.5" style="stroke:#181818;stroke-width:0.5;" width="206.2129" x="796.813" y="50"/><text fill="#000000" font-family="sans-serif" font-size="14" lengthAdjust="spacing" textLength="192.2129" x="803.813" y="71.5332">MaintenanceRecordRepository</text></g><g class="participant participant-tail" data-entity-uid="part4" data-qualified-name="Repo" data-source-line="5" id="part4-tail"><rect fill="#E2E2F0" height="31.6094" rx="2.5" ry="2.5" style="stroke:#181818;stroke-width:0.5;" width="206.2129" x="796.813" y="387.7734"/><text fill="#000000" font-family="sans-serif" font-size="14" lengthAdjust="spacing" textLength="192.2129" x="803.813" y="409.3066">MaintenanceRecordRepository</text></g><g class="participant participant-head" data-entity-uid="part5" data-qualified-name="DB" data-source-line="6" id="part5-head"><text fill="#000000" font-family="sans-serif" font-size="14" lengthAdjust="spacing" textLength="59.9307" x="1130.4375" y="79.5332">Database</text><path d="M1145.4028,29 C1145.4028,19 1163.4028,19 1163.4028,19 C1163.4028,19 1181.4028,19 1181.4028,29 L1181.4028,55 C1181.4028,65 1163.4028,65 1163.4028,65 C1163.4028,65 1145.4028,65 1145.4028,55 L1145.4028,29" fill="#E2E2F0" style="stroke:#181818;stroke-width:0.5;"/><path d="M1145.4028,29 C1145.4028,39 1163.4028,39 1163.4028,39 C1163.4028,39 1181.4028,39 1181.4028,29" fill="none" style="stroke:#181818;stroke-width:0.5;"/></g><g class="participant participant-tail" data-entity-uid="part5" data-qualified-name="DB" data-source-line="6" id="part5-tail"><text fill="#000000" font-family="sans-serif" font-size="14" lengthAdjust="spacing" textLength="59.9307" x="1130.4375" y="402.3066">Database</text><path d="M1145.4028,415.3828 C1145.4028,405.3828 1163.4028,405.3828 1163.4028,405.3828 C1163.4028,405.3828 1181.4028,405.3828 1181.4028,415.3828 L1181.4028,441.3828 C1181.4028,451.3828 1163.4028,451.3828 1163.4028,451.3828 C1163.4028,451.3828 1145.4028,451.3828 1145.4028,441.3828 L1145.4028,415.3828" fill="#E2E2F0" style="stroke:#181818;stroke-width:0.5;"/><path d="M1145.4028,415.3828 C1145.4028,425.3828 1163.4028,425.3828 1163.4028,425.3828 C1163.4028,425.3828 1181.4028,425.3828 1181.4028,415.3828" fill="none" style="stroke:#181818;stroke-width:0.5;"/></g><g><title>MaintenanceController</title><rect fill="#FFFFFF" height="255.8125" style="stroke:#181818;stroke-width:1;" width="10" x="326.1528" y="114.9609"/></g><g><title>ViewTotalMaintenanceHoursInFleetUseCase</title><rect fill="#FFFFFF" height="195.1094" style="stroke:#181818;stroke-width:1;" width="10" x="635.1343" y="145.3125"/></g><g><title>MaintenanceRecordRepository</title><rect fill="#FFFFFF" height="91.0547" style="stroke:#181818;stroke-width:1;" width="10" x="894.9194" y="175.6641"/></g><g><title>Database</title><rect fill="#FFFFFF" height="30.3516" style="stroke:#181818;stroke-width:1;" width="10" x="1158.4028" y="206.0156"/></g><g class="message" data-entity-1="part1" data-entity-2="part2" data-source-line="7" id="msg1"><polygon fill="#181818" points="314.1528,110.9609,324.1528,114.9609,314.1528,118.9609,318.1528,114.9609" style="stroke:#181818;stroke-width:1;stroke-linejoin:miter;stroke-miterlimit:10;"/><line style="stroke:#181818;stroke-width:1;" x1="83.4858" x2="320.1528" y1="114.9609" y2="114.9609"/><text fill="#000000" font-family="sans-serif" font-size="13" font-weight="700" lengthAdjust="spacing" textLength="7.23" x="90.4858" y="110.1045">1</text><text fill="#000000" font-family="sans-serif" font-size="13" lengthAdjust="spacing" textLength="212.437" x="101.7158" y="110.1045">GET /api/maintenance/records/hours</text></g><g class="message" data-entity-1="part2" data-entity-2="part3" data-source-line="9" id="msg2"><polygon fill="#181818" points="623.1343,141.3125,633.1343,145.3125,623.1343,149.3125,627.1343,145.3125" style="stroke:#181818;stroke-width:1;stroke-linejoin:miter;stroke-miterlimit:10;"/><line style="stroke:#181818;stroke-width:1;" x1="336.1528" x2="629.1343" y1="145.3125" y2="145.3125"/><text fill="#000000" font-family="sans-serif" font-size="13" font-weight="700" lengthAdjust="spacing" textLength="7.23" x="343.1528" y="140.4561">2</text><text fill="#000000" font-family="sans-serif" font-size="13" lengthAdjust="spacing" textLength="54.1899" x="354.3828" y="140.4561">execute()</text></g><g class="message" data-entity-1="part3" data-entity-2="part4" data-source-line="11" id="msg3"><polygon fill="#181818" points="882.9194,171.6641,892.9194,175.6641,882.9194,179.6641,886.9194,175.6641" style="stroke:#181818;stroke-width:1;stroke-linejoin:miter;stroke-miterlimit:10;"/><line style="stroke:#181818;stroke-width:1;" x1="645.1343" x2="888.9194" y1="175.6641" y2="175.6641"/><text fill="#000000" font-family="sans-serif" font-size="13" font-weight="700" lengthAdjust="spacing" textLength="7.23" x="652.1343" y="170.8076">3</text><text fill="#000000" font-family="sans-serif" font-size="13" lengthAdjust="spacing" textLength="44.0654" x="663.3643" y="170.8076">findAll()</text></g><g class="message" data-entity-1="part4" data-entity-2="part5" data-source-line="13" id="msg4"><polygon fill="#181818" points="1146.4028,202.0156,1156.4028,206.0156,1146.4028,210.0156,1150.4028,206.0156" style="stroke:#181818;stroke-width:1;stroke-linejoin:miter;stroke-miterlimit:10;"/><line style="stroke:#181818;stroke-width:1;" x1="904.9194" x2="1152.4028" y1="206.0156" y2="206.0156"/><text fill="#000000" font-family="sans-serif" font-size="13" font-weight="700" lengthAdjust="spacing" textLength="7.23" x="911.9194" y="201.1592">4</text><text fill="#000000" font-family="sans-serif" font-size="13" lengthAdjust="spacing" textLength="223.2534" x="923.1494" y="201.1592">SELECT * FROM maintenance_record</text></g><g class="message" data-entity-1="part5" data-entity-2="part4" data-source-line="15" id="msg5"><polygon fill="#181818" points="915.9194,232.3672,905.9194,236.3672,915.9194,240.3672,911.9194,236.3672" style="stroke:#181818;stroke-width:1;stroke-linejoin:miter;stroke-miterlimit:10;"/><line style="stroke:#181818;stroke-width:1;stroke-dasharray:2,2;" x1="909.9194" x2="1162.4028" y1="236.3672" y2="236.3672"/><text fill="#000000" font-family="sans-serif" font-size="13" font-weight="700" lengthAdjust="spacing" textLength="7.23" x="921.9194" y="231.5107">5</text><text fill="#000000" font-family="sans-serif" font-size="13" lengthAdjust="spacing" textLength="77.3018" x="933.1494" y="231.5107">list of records</text></g><g class="message" data-entity-1="part4" data-entity-2="part3" data-source-line="17" id="msg6"><polygon fill="#181818" points="656.1343,262.7188,646.1343,266.7188,656.1343,270.7188,652.1343,266.7188" style="stroke:#181818;stroke-width:1;stroke-linejoin:miter;stroke-miterlimit:10;"/><line style="stroke:#181818;stroke-width:1;stroke-dasharray:2,2;" x1="650.1343" x2="898.9194" y1="266.7188" y2="266.7188"/><text fill="#000000" font-family="sans-serif" font-size="13" font-weight="700" lengthAdjust="spacing" textLength="7.23" x="662.1343" y="261.8623">6</text><text fill="#000000" font-family="sans-serif" font-size="13" lengthAdjust="spacing" textLength="151.7598" x="673.3643" y="261.8623">List&lt;MaintenanceRecord&gt;</text></g><g class="message" data-entity-1="part3" data-entity-2="part3" data-source-line="19" id="msg7"><line style="stroke:#181818;stroke-width:1;" x1="645.1343" x2="687.1343" y1="297.0703" y2="297.0703"/><line style="stroke:#181818;stroke-width:1;" x1="687.1343" x2="687.1343" y1="297.0703" y2="310.0703"/><line style="stroke:#181818;stroke-width:1;" x1="646.1343" x2="687.1343" y1="310.0703" y2="310.0703"/><polygon fill="#181818" points="656.1343,306.0703,646.1343,310.0703,656.1343,314.0703,652.1343,310.0703" style="stroke:#181818;stroke-width:1;stroke-linejoin:miter;stroke-miterlimit:10;"/><text fill="#000000" font-family="sans-serif" font-size="13" font-weight="700" lengthAdjust="spacing" textLength="7.23" x="652.1343" y="292.2139">7</text><text fill="#000000" font-family="sans-serif" font-size="13" lengthAdjust="spacing" textLength="171.2598" x="663.3643" y="292.2139">sum expectedDuration values</text></g><g class="message" data-entity-1="part3" data-entity-2="part2" data-source-line="20" id="msg8"><polygon fill="#181818" points="347.1528,336.4219,337.1528,340.4219,347.1528,344.4219,343.1528,340.4219" style="stroke:#181818;stroke-width:1;stroke-linejoin:miter;stroke-miterlimit:10;"/><line style="stroke:#181818;stroke-width:1;stroke-dasharray:2,2;" x1="341.1528" x2="639.1343" y1="340.4219" y2="340.4219"/><text fill="#000000" font-family="sans-serif" font-size="13" font-weight="700" lengthAdjust="spacing" textLength="7.23" x="353.1528" y="335.5654">8</text><text fill="#000000" font-family="sans-serif" font-size="13" lengthAdjust="spacing" textLength="263.7515" x="364.3828" y="335.5654">ViewTotalMaintenanceHoursinFleetResponse</text></g><g class="message" data-entity-1="part2" data-entity-2="part1" data-source-line="22" id="msg9"><polygon fill="#181818" points="94.4858,366.7734,84.4858,370.7734,94.4858,374.7734,90.4858,370.7734" style="stroke:#181818;stroke-width:1;stroke-linejoin:miter;stroke-miterlimit:10;"/><line style="stroke:#181818;stroke-width:1;stroke-dasharray:2,2;" x1="88.4858" x2="330.1528" y1="370.7734" y2="370.7734"/><text fill="#000000" font-family="sans-serif" font-size="13" font-weight="700" lengthAdjust="spacing" textLength="7.23" x="100.4858" y="365.917">9</text><text fill="#000000" font-family="sans-serif" font-size="13" lengthAdjust="spacing" textLength="91.0254" x="111.7158" y="365.917">200 OK (JSON)</text></g><?plantuml-src TP5DQy9048Rl-HM39or8f4SfGasqNwP2ehsMCHdfmheRziEs_xwJNKiYfRU4VTwPPsRGEwtywK0cmTff0wC2XNAaKDK4bM_9d8NLPWHeeQYI5eqJjMXHkIiqqyePBIL5CdD6NhDlWZvtsg4SX1wrD_P9hIMHsrlAq598xxD_-vHKQzEKr6ehMFSxyDrlqg330rU0KNxv2c_vCYagc2w24ipXORM355kHdlgYgGbLRVhH2NMB46Tq5AS8ESxlCqxJ5zNUqNZIGopBJmnq5emSXMhkfHmYmIyyCvOl6QfMcrMsWnjObzi21YhlKQNFiZydfdrzAQm3VOIBSzBGa8rTVdKtpDxzsTvYc0bkSO0GiVx4KxPKEsfoRz09hU2CqfCDMB_9VoyguaLBigrMbeRTU5bndro6ppA7szaCjYymVgwshvCXsM4_?></g></svg>