<?plantuml 1.2026.1?><svg xmlns="http://www.w3.org/2000/svg" xmlns:xlink="http://www.w3.org/1999/xlink" contentStyleType="text/css" data-diagram-type="SEQUENCE" height="1146px" preserveAspectRatio="none" style="width:1786px;height:1146px;background:#FFFFFF;" version="1.1" viewBox="0 0 1786 1146" width="1786px" zoomAndPan="magnify"><defs/><g><g><title>AircraftController</title><rect fill="#FFFFFF" height="897.8594" style="stroke:#181818;stroke-width:1;" width="10" x="507.0381" y="157.8281"/></g><g><title>UpdateAircraftUseCase</title><rect fill="#FFFFFF" height="706.7969" style="stroke:#181818;stroke-width:1;" width="10" x="957.7393" y="282.625"/></g><g><title>AircraftRepository</title><rect fill="#FFFFFF" height="87.3984" style="stroke:#181818;stroke-width:1;" width="10" x="1257.709" y="311.7578"/></g><g><title>AircraftRepository</title><rect fill="#FFFFFF" height="87.3984" style="stroke:#181818;stroke-width:1;" width="10" x="1257.709" y="525.4922"/></g><g><title>AircraftRepository</title><rect fill="#FFFFFF" height="58.2656" style="stroke:#181818;stroke-width:1;" width="10" x="1257.709" y="798.3594"/></g><g><title>AircraftRepository</title><rect fill="#FFFFFF" height="29.1328" style="stroke:#181818;stroke-width:1;" width="10" x="1257.709" y="885.7578"/></g><g><title>Aircraft</title><rect fill="#FFFFFF" height="30" style="stroke:#181818;stroke-width:1;" width="10" x="1370.918" y="739.2266"/></g><g><title>Database</title><rect fill="#FFFFFF" height="29.1328" style="stroke:#181818;stroke-width:1;" width="10" x="1717.7031" y="340.8906"/></g><g><title>Database</title><rect fill="#FFFFFF" height="29.1328" style="stroke:#181818;stroke-width:1;" width="10" x="1717.7031" y="554.625"/></g><g><title>Database</title><rect fill="#FFFFFF" height="29.1328" style="stroke:#181818;stroke-width:1;" width="10" x="1717.7031" y="827.4922"/></g><rect fill="none" height="634.5313" style="stroke:#000000;stroke-width:1.5;" width="1769.1035" x="10" y="414.1563"/><rect fill="none" height="413.7969" style="stroke:#000000;stroke-width:1.5;" width="1749.1035" x="20" y="627.8906"/><g class="participant-lifeline" data-entity-uid="part1" data-qualified-name="BO" id="part1-lifeline"><g><title>Backoffice Operator</title><rect fill="#000000" fill-opacity="0.00000" height="984.3906" width="8" x="98.8633" y="81.2969"/><line style="stroke:#181818;stroke-width:0.5;stroke-dasharray:5,5;" x1="102" x2="102" y1="81.2969" y2="1065.6875"/></g></g><g class="participant-lifeline" data-entity-uid="part2" data-qualified-name="Ctrl" id="part2-lifeline"><g><title>AircraftController</title><rect fill="#000000" fill-opacity="0.00000" height="984.3906" width="8" x="508.0381" y="81.2969"/><line style="stroke:#181818;stroke-width:0.5;stroke-dasharray:5,5;" x1="511.6152" x2="511.6152" y1="81.2969" y2="1065.6875"/></g></g><g class="participant-lifeline" data-entity-uid="part3" data-qualified-name="UC" id="part3-lifeline"><g><title>UpdateAircraftUseCase</title><rect fill="#000000" fill-opacity="0.00000" height="984.3906" width="8" x="958.7393" y="81.2969"/><line style="stroke:#181818;stroke-width:0.5;stroke-dasharray:5,5;" x1="962.3438" x2="962.3438" y1="81.2969" y2="1065.6875"/></g></g><g class="participant-lifeline" data-entity-uid="part4" data-qualified-name="Repo" id="part4-lifeline"><g><title>AircraftRepository</title><rect fill="#000000" fill-opacity="0.00000" height="984.3906" width="8" x="1258.709" y="81.2969"/><line style="stroke:#181818;stroke-width:0.5;stroke-dasharray:5,5;" x1="1262.3364" x2="1262.3364" y1="81.2969" y2="1065.6875"/></g></g><g class="participant-lifeline" data-entity-uid="part5" data-qualified-name="Aircraft" id="part5-lifeline"><g><title>Aircraft</title><rect fill="#000000" fill-opacity="0.00000" height="984.3906" width="8" x="1371.918" y="81.2969"/><line style="stroke:#181818;stroke-width:0.5;stroke-dasharray:5,5;" x1="1375.0815" x2="1375.0815" y1="81.2969" y2="1065.6875"/></g></g><g class="participant-lifeline" data-entity-uid="part6" data-qualified-name="DB" id="part6-lifeline"><g><title>Database</title><rect fill="#000000" fill-opacity="0.00000" height="984.3906" width="8" x="1718.7031" y="81.2969"/><line style="stroke:#181818;stroke-width:0.5;stroke-dasharray:5,5;" x1="1722.3027" x2="1722.3027" y1="81.2969" y2="1065.6875"/></g></g><g class="participant participant-head" data-entity-uid="part1" data-qualified-name="BO" id="part1-head"><text fill="#000000" font-family="sans-serif" font-size="14" lengthAdjust="spacing" textLength="139.7266" x="30" y="77.9951">Backoffice Operator</text><ellipse cx="102.8633" cy="13.5" fill="#E3E3E3" rx="8" ry="8" style="stroke:#181818;stroke-width:0.5;"/><path d="M102.8633,21.5 L102.8633,48.5 M89.8633,29.5 L115.8633,29.5 M102.8633,48.5 L89.8633,63.5 M102.8633,48.5 L115.8633,63.5" fill="none" style="stroke:#181818;stroke-width:0.5;"/></g><g class="participant participant-tail" data-entity-uid="part1" data-qualified-name="BO" id="part1-tail"><text fill="#000000" font-family="sans-serif" font-size="14" lengthAdjust="spacing" textLength="139.7266" x="30" y="1077.6826">Backoffice Operator</text><ellipse cx="102.8633" cy="1089.4844" fill="#E3E3E3" rx="8" ry="8" style="stroke:#181818;stroke-width:0.5;"/><path d="M102.8633,1097.4844 L102.8633,1124.4844 M89.8633,1105.4844 L115.8633,1105.4844 M102.8633,1124.4844 L89.8633,1139.4844 M102.8633,1124.4844 L115.8633,1139.4844" fill="none" style="stroke:#181818;stroke-width:0.5;"/></g><g class="participant participant-head" data-entity-uid="part2" data-qualified-name="Ctrl" id="part2-head"><rect fill="#E3E3E3" height="30.2969" rx="2.5" ry="2.5" style="stroke:#181818;stroke-width:0.5;" width="134.8457" x="444.6152" y="50"/><text fill="#000000" font-family="sans-serif" font-size="14" lengthAdjust="spacing" textLength="120.8457" x="451.6152" y="69.9951">AircraftController</text></g><g class="participant participant-tail" data-entity-uid="part2" data-qualified-name="Ctrl" id="part2-tail"><rect fill="#E3E3E3" height="30.2969" rx="2.5" ry="2.5" style="stroke:#181818;stroke-width:0.5;" width="134.8457" x="444.6152" y="1064.6875"/><text fill="#000000" font-family="sans-serif" font-size="14" lengthAdjust="spacing" textLength="120.8457" x="451.6152" y="1084.6826">AircraftController</text></g><g class="participant participant-head" data-entity-uid="part3" data-qualified-name="UC" id="part3-head"><rect fill="#E3E3E3" height="30.2969" rx="2.5" ry="2.5" style="stroke:#181818;stroke-width:0.5;" width="176.791" x="874.3438" y="50"/><text fill="#000000" font-family="sans-serif" font-size="14" lengthAdjust="spacing" textLength="162.791" x="881.3438" y="69.9951">UpdateAircraftUseCase</text></g><g class="participant participant-tail" data-entity-uid="part3" data-qualified-name="UC" id="part3-tail"><rect fill="#E3E3E3" height="30.2969" rx="2.5" ry="2.5" style="stroke:#181818;stroke-width:0.5;" width="176.791" x="874.3438" y="1064.6875"/><text fill="#000000" font-family="sans-serif" font-size="14" lengthAdjust="spacing" textLength="162.791" x="881.3438" y="1084.6826">UpdateAircraftUseCase</text></g><g class="participant participant-head" data-entity-uid="part4" data-qualified-name="Repo" id="part4-head"><rect fill="#E3E3E3" height="30.2969" rx="2.5" ry="2.5" style="stroke:#181818;stroke-width:0.5;" width="140.7451" x="1192.3364" y="50"/><text fill="#000000" font-family="sans-serif" font-size="14" lengthAdjust="spacing" textLength="126.7451" x="1199.3364" y="69.9951">AircraftRepository</text></g><g class="participant participant-tail" data-entity-uid="part4" data-qualified-name="Repo" id="part4-tail"><rect fill="#E3E3E3" height="30.2969" rx="2.5" ry="2.5" style="stroke:#181818;stroke-width:0.5;" width="140.7451" x="1192.3364" y="1064.6875"/><text fill="#000000" font-family="sans-serif" font-size="14" lengthAdjust="spacing" textLength="126.7451" x="1199.3364" y="1084.6826">AircraftRepository</text></g><g class="participant participant-head" data-entity-uid="part5" data-qualified-name="Aircraft" id="part5-head"><rect fill="#E3E3E3" height="30.2969" rx="2.5" ry="2.5" style="stroke:#181818;stroke-width:0.5;" width="65.6729" x="1343.0815" y="50"/><text fill="#000000" font-family="sans-serif" font-size="14" lengthAdjust="spacing" textLength="51.6729" x="1350.0815" y="69.9951">Aircraft</text></g><g class="participant participant-tail" data-entity-uid="part5" data-qualified-name="Aircraft" id="part5-tail"><rect fill="#E3E3E3" height="30.2969" rx="2.5" ry="2.5" style="stroke:#181818;stroke-width:0.5;" width="65.6729" x="1343.0815" y="1064.6875"/><text fill="#000000" font-family="sans-serif" font-size="14" lengthAdjust="spacing" textLength="51.6729" x="1350.0815" y="1084.6826">Aircraft</text></g><g class="participant participant-head" data-entity-uid="part6" data-qualified-name="DB" id="part6-head"><text fill="#000000" font-family="sans-serif" font-size="14" lengthAdjust="spacing" textLength="66.8008" x="1686.3027" y="77.9951">Database</text><path d="M1704.7031,29 C1704.7031,19 1722.7031,19 1722.7031,19 C1722.7031,19 1740.7031,19 1740.7031,29 L1740.7031,55 C1740.7031,65 1722.7031,65 1722.7031,65 C1722.7031,65 1704.7031,65 1704.7031,55 L1704.7031,29" fill="#E3E3E3" style="stroke:#181818;stroke-width:0.5;"/><path d="M1704.7031,29 C1704.7031,39 1722.7031,39 1722.7031,39 C1722.7031,39 1740.7031,39 1740.7031,29" fill="none" style="stroke:#181818;stroke-width:0.5;"/></g><g class="participant participant-tail" data-entity-uid="part6" data-qualified-name="DB" id="part6-tail"><text fill="#000000" font-family="sans-serif" font-size="14" lengthAdjust="spacing" textLength="66.8008" x="1686.3027" y="1077.6826">Database</text><path d="M1704.7031,1090.9844 C1704.7031,1080.9844 1722.7031,1080.9844 1722.7031,1080.9844 C1722.7031,1080.9844 1740.7031,1080.9844 1740.7031,1090.9844 L1740.7031,1116.9844 C1740.7031,1126.9844 1722.7031,1126.9844 1722.7031,1126.9844 C1722.7031,1126.9844 1704.7031,1126.9844 1704.7031,1116.9844 L1704.7031,1090.9844" fill="#E3E3E3" style="stroke:#181818;stroke-width:0.5;"/><path d="M1704.7031,1090.9844 C1704.7031,1100.9844 1722.7031,1100.9844 1722.7031,1100.9844 C1722.7031,1100.9844 1740.7031,1100.9844 1740.7031,1090.9844" fill="none" style="stroke:#181818;stroke-width:0.5;"/></g><g><title>AircraftController</title><rect fill="#FFFFFF" height="897.8594" style="stroke:#181818;stroke-width:1;" width="10" x="507.0381" y="157.8281"/></g><g><title>UpdateAircraftUseCase</title><rect fill="#FFFFFF" height="706.7969" style="stroke:#181818;stroke-width:1;" width="10" x="957.7393" y="282.625"/></g><g><title>AircraftRepository</title><rect fill="#FFFFFF" height="87.3984" style="stroke:#181818;stroke-width:1;" width="10" x="1257.709" y="311.7578"/></g><g><title>AircraftRepository</title><rect fill="#FFFFFF" height="87.3984" style="stroke:#181818;stroke-width:1;" width="10" x="1257.709" y="525.4922"/></g><g><title>AircraftRepository</title><rect fill="#FFFFFF" height="58.2656" style="stroke:#181818;stroke-width:1;" width="10" x="1257.709" y="798.3594"/></g><g><title>AircraftRepository</title><rect fill="#FFFFFF" height="29.1328" style="stroke:#181818;stroke-width:1;" width="10" x="1257.709" y="885.7578"/></g><g><title>Aircraft</title><rect fill="#FFFFFF" height="30" style="stroke:#181818;stroke-width:1;" width="10" x="1370.918" y="739.2266"/></g><g><title>Database</title><rect fill="#FFFFFF" height="29.1328" style="stroke:#181818;stroke-width:1;" width="10" x="1717.7031" y="340.8906"/></g><g><title>Database</title><rect fill="#FFFFFF" height="29.1328" style="stroke:#181818;stroke-width:1;" width="10" x="1717.7031" y="554.625"/></g><g><title>Database</title><rect fill="#FFFFFF" height="29.1328" style="stroke:#181818;stroke-width:1;" width="10" x="1717.7031" y="827.4922"/></g><g class="message" data-entity-1="part1" data-entity-2="part2" id="msg1"><polygon fill="#181818" points="495.0381,153.8281,505.0381,157.8281,495.0381,161.8281,499.0381,157.8281" style="stroke:#181818;stroke-width:1;"/><line style="stroke:#181818;stroke-width:1;" x1="102.8633" x2="501.0381" y1="157.8281" y2="157.8281"/><text fill="#000000" font-family="sans-serif" font-size="13" font-weight="bold" lengthAdjust="spacing" textLength="9.0454" x="109.8633" y="130.063">1</text><text fill="#000000" font-family="sans-serif" font-size="13" lengthAdjust="spacing" textLength="226.2876" x="122.9087" y="107.3638">PATCH /api/aircrafts/{registration}</text><text fill="#000000" font-family="sans-serif" font-size="13" lengthAdjust="spacing" textLength="244.0864" x="122.9087" y="122.4966">{ modelName?, manufacturingDate?,</text><text fill="#000000" font-family="sans-serif" font-size="13" lengthAdjust="spacing" textLength="173.1069" x="131.1733" y="137.6294">seatCapacity?, features? }</text><text fill="#000000" font-family="sans-serif" font-size="13" lengthAdjust="spacing" textLength="137.395" x="122.9087" y="152.7622">If-Match: "{version}"</text></g><path d="M522,170.8281 L522,255.8281 L739,255.8281 L739,180.8281 L729,170.8281 L522,170.8281" fill="#FAFAFA" style="stroke:#181818;stroke-width:0.5;"/><path d="M729,170.8281 L729,180.8281 L739,180.8281 L729,170.8281" fill="#FAFAFA" style="stroke:#181818;stroke-width:0.5;"/><text fill="#000000" font-family="sans-serif" font-size="13" lengthAdjust="spacing" textLength="152.8325" x="528" y="187.895">UpdateAircraftRequest:</text><text fill="#000000" font-family="sans-serif" font-size="13" lengthAdjust="spacing" textLength="148.8525" x="528" y="203.0278">- modelName: optional</text><text fill="#000000" font-family="sans-serif" font-size="13" lengthAdjust="spacing" textLength="196.6758" x="528" y="218.1606">- manufacturingDate: optional</text><text fill="#000000" font-family="sans-serif" font-size="13" lengthAdjust="spacing" textLength="154.667" x="528" y="233.2935">- seatCapacity: optional</text><text fill="#000000" font-family="sans-serif" font-size="13" lengthAdjust="spacing" textLength="124.0142" x="528" y="248.4263">- features: optional</text><g class="message" data-entity-1="part2" data-entity-2="part3" id="msg2"><polygon fill="#181818" points="945.7393,278.625,955.7393,282.625,945.7393,286.625,949.7393,282.625" style="stroke:#181818;stroke-width:1;"/><line style="stroke:#181818;stroke-width:1;" x1="517.0381" x2="951.7393" y1="282.625" y2="282.625"/><text fill="#000000" font-family="sans-serif" font-size="13" font-weight="bold" lengthAdjust="spacing" textLength="9.0454" x="524.0381" y="277.5591">2</text><text fill="#000000" font-family="sans-serif" font-size="13" lengthAdjust="spacing" textLength="408.6558" x="537.0835" y="277.5591">execute(registration, request: UpdateAircraftRequest, ifMatch)</text></g><g class="message" data-entity-1="part3" data-entity-2="part4" id="msg3"><polygon fill="#181818" points="1245.709,307.7578,1255.709,311.7578,1245.709,315.7578,1249.709,311.7578" style="stroke:#181818;stroke-width:1;"/><line style="stroke:#181818;stroke-width:1;" x1="967.7393" x2="1251.709" y1="311.7578" y2="311.7578"/><text fill="#000000" font-family="sans-serif" font-size="13" font-weight="bold" lengthAdjust="spacing" textLength="9.0454" x="974.7393" y="306.6919">3</text><text fill="#000000" font-family="sans-serif" font-size="13" lengthAdjust="spacing" textLength="257.9243" x="987.7847" y="306.6919">findByRegistrationNumber(registration)</text></g><g class="message" data-entity-1="part4" data-entity-2="part6" id="msg4"><polygon fill="#181818" points="1705.7031,336.8906,1715.7031,340.8906,1705.7031,344.8906,1709.7031,340.8906" style="stroke:#181818;stroke-width:1;"/><line style="stroke:#181818;stroke-width:1;" x1="1267.709" x2="1711.7031" y1="340.8906" y2="340.8906"/><text fill="#000000" font-family="sans-serif" font-size="13" font-weight="bold" lengthAdjust="spacing" textLength="9.0454" x="1274.709" y="335.8247">4</text><text fill="#000000" font-family="sans-serif" font-size="13" lengthAdjust="spacing" textLength="357.1572" x="1287.7544" y="335.8247">SELECT FROM aircraft WHERE registration_number = ?</text></g><g class="message" data-entity-1="part6" data-entity-2="part4" id="msg5"><polygon fill="#181818" points="1278.709,366.0234,1268.709,370.0234,1278.709,374.0234,1274.709,370.0234" style="stroke:#181818;stroke-width:1;"/><line style="stroke:#181818;stroke-width:1;stroke-dasharray:2,2;" x1="1272.709" x2="1721.7031" y1="370.0234" y2="370.0234"/><text fill="#000000" font-family="sans-serif" font-size="13" font-weight="bold" lengthAdjust="spacing" textLength="9.0454" x="1284.709" y="364.9575">5</text><text fill="#000000" font-family="sans-serif" font-size="13" lengthAdjust="spacing" textLength="93.228" x="1297.7544" y="364.9575">aircraft record</text></g><g class="message" data-entity-1="part4" data-entity-2="part3" id="msg6"><polygon fill="#181818" points="978.7393,395.1563,968.7393,399.1563,978.7393,403.1563,974.7393,399.1563" style="stroke:#181818;stroke-width:1;"/><line style="stroke:#181818;stroke-width:1;stroke-dasharray:2,2;" x1="972.7393" x2="1261.709" y1="399.1563" y2="399.1563"/><text fill="#000000" font-family="sans-serif" font-size="13" font-weight="bold" lengthAdjust="spacing" textLength="9.0454" x="984.7393" y="394.0903">6</text><text fill="#000000" font-family="sans-serif" font-size="13" lengthAdjust="spacing" textLength="124.7314" x="997.7847" y="394.0903">Optional&lt;Aircraft&gt;</text></g><path d="M10,414.1563 L74.4429,414.1563 L74.4429,421.2891 L64.4429,431.2891 L10,431.2891 L10,414.1563" fill="#EEEEEE" style="stroke:#000000;stroke-width:1.5;"/><rect fill="none" height="634.5313" style="stroke:#000000;stroke-width:1.5;" width="1769.1035" x="10" y="414.1563"/><text fill="#000000" font-family="sans-serif" font-size="13" font-weight="bold" lengthAdjust="spacing" textLength="19.4429" x="25" y="427.2231">alt</text><text fill="#000000" font-family="sans-serif" font-size="11" font-weight="bold" lengthAdjust="spacing" textLength="120.2695" x="89.4429" y="426.3667">[aircraft not found]</text><g class="message" data-entity-1="part3" data-entity-2="part2" id="msg7"><polygon fill="#181818" points="528.0381,448.4219,518.0381,452.4219,528.0381,456.4219,524.0381,452.4219" style="stroke:#181818;stroke-width:1;"/><line style="stroke:#181818;stroke-width:1;stroke-dasharray:2,2;" x1="522.0381" x2="956.7393" y1="452.4219" y2="452.4219"/><text fill="#000000" font-family="sans-serif" font-size="13" font-weight="bold" lengthAdjust="spacing" textLength="9.0454" x="534.0381" y="447.356">7</text><text fill="#000000" font-family="sans-serif" font-size="13" lengthAdjust="spacing" textLength="223.2979" x="547.0835" y="447.356">throws AircraftNotFoundException</text></g><g class="message" data-entity-1="part2" data-entity-2="part1" id="msg8"><polygon fill="#181818" points="113.8633,477.5547,103.8633,481.5547,113.8633,485.5547,109.8633,481.5547" style="stroke:#181818;stroke-width:1;"/><line style="stroke:#181818;stroke-width:1;stroke-dasharray:2,2;" x1="107.8633" x2="506.0381" y1="481.5547" y2="481.5547"/><text fill="#000000" font-family="sans-serif" font-size="13" font-weight="bold" lengthAdjust="spacing" textLength="9.0454" x="119.8633" y="476.4888">8</text><text fill="#000000" font-family="sans-serif" font-size="13" lengthAdjust="spacing" textLength="96.0146" x="132.9087" y="476.4888">404 Not Found</text></g><line style="stroke:#000000;stroke-width:1;stroke-dasharray:2,2;" x1="10" x2="1779.1035" y1="490.5547" y2="490.5547"/><text fill="#000000" font-family="sans-serif" font-size="11" font-weight="bold" lengthAdjust="spacing" textLength="95.7935" x="15" y="500.7651">[aircraft found]</text><g class="message" data-entity-1="part3" data-entity-2="part4" id="msg9"><polygon fill="#181818" points="1245.709,521.4922,1255.709,525.4922,1245.709,529.4922,1249.709,525.4922" style="stroke:#181818;stroke-width:1;"/><line style="stroke:#181818;stroke-width:1;" x1="967.7393" x2="1251.709" y1="525.4922" y2="525.4922"/><text fill="#000000" font-family="sans-serif" font-size="13" font-weight="bold" lengthAdjust="spacing" textLength="9.0454" x="974.7393" y="520.4263">9</text><text fill="#000000" font-family="sans-serif" font-size="13" lengthAdjust="spacing" textLength="179.7021" x="987.7847" y="520.4263">findVersionFor(registration)</text></g><g class="message" data-entity-1="part4" data-entity-2="part6" id="msg10"><polygon fill="#181818" points="1705.7031,550.625,1715.7031,554.625,1705.7031,558.625,1709.7031,554.625" style="stroke:#181818;stroke-width:1;"/><line style="stroke:#181818;stroke-width:1;" x1="1267.709" x2="1711.7031" y1="554.625" y2="554.625"/><text fill="#000000" font-family="sans-serif" font-size="13" font-weight="bold" lengthAdjust="spacing" textLength="18.0908" x="1274.709" y="549.5591">10</text><text fill="#000000" font-family="sans-serif" font-size="13" lengthAdjust="spacing" textLength="408.9033" x="1296.7998" y="549.5591">SELECT version FROM aircraft WHERE registration_number = ?</text></g><g class="message" data-entity-1="part6" data-entity-2="part4" id="msg11"><polygon fill="#181818" points="1278.709,579.7578,1268.709,583.7578,1278.709,587.7578,1274.709,583.7578" style="stroke:#181818;stroke-width:1;"/><line style="stroke:#181818;stroke-width:1;stroke-dasharray:2,2;" x1="1272.709" x2="1721.7031" y1="583.7578" y2="583.7578"/><text fill="#000000" font-family="sans-serif" font-size="13" font-weight="bold" lengthAdjust="spacing" textLength="18.0908" x="1284.709" y="578.6919">11</text><text fill="#000000" font-family="sans-serif" font-size="13" lengthAdjust="spacing" textLength="96.2241" x="1306.7998" y="578.6919">currentVersion</text></g><g class="message" data-entity-1="part4" data-entity-2="part3" id="msg12"><polygon fill="#181818" points="978.7393,608.8906,968.7393,612.8906,978.7393,616.8906,974.7393,612.8906" style="stroke:#181818;stroke-width:1;"/><line style="stroke:#181818;stroke-width:1;stroke-dasharray:2,2;" x1="972.7393" x2="1261.709" y1="612.8906" y2="612.8906"/><text fill="#000000" font-family="sans-serif" font-size="13" font-weight="bold" lengthAdjust="spacing" textLength="18.0908" x="984.7393" y="607.8247">12</text><text fill="#000000" font-family="sans-serif" font-size="13" lengthAdjust="spacing" textLength="132.0439" x="1006.8301" y="607.8247">Long currentVersion</text></g><path d="M20,627.8906 L84.4429,627.8906 L84.4429,635.0234 L74.4429,645.0234 L20,645.0234 L20,627.8906" fill="#EEEEEE" style="stroke:#000000;stroke-width:1.5;"/><rect fill="none" height="413.7969" style="stroke:#000000;stroke-width:1.5;" width="1749.1035" x="20" y="627.8906"/><text fill="#000000" font-family="sans-serif" font-size="13" font-weight="bold" lengthAdjust="spacing" textLength="19.4429" x="35" y="640.9575">alt</text><text fill="#000000" font-family="sans-serif" font-size="11" font-weight="bold" lengthAdjust="spacing" textLength="295.0879" x="99.4429" y="640.1011">[version mismatch (currentVersion != ifMatch)]</text><g class="message" data-entity-1="part3" data-entity-2="part2" id="msg13"><polygon fill="#181818" points="528.0381,662.1563,518.0381,666.1563,528.0381,670.1563,524.0381,666.1563" style="stroke:#181818;stroke-width:1;"/><line style="stroke:#181818;stroke-width:1;stroke-dasharray:2,2;" x1="522.0381" x2="956.7393" y1="666.1563" y2="666.1563"/><text fill="#000000" font-family="sans-serif" font-size="13" font-weight="bold" lengthAdjust="spacing" textLength="18.0908" x="534.0381" y="661.0903">13</text><text fill="#000000" font-family="sans-serif" font-size="13" lengthAdjust="spacing" textLength="315.0405" x="556.1289" y="661.0903">throws ObjectOptimisticLockingFailureException</text></g><g class="message" data-entity-1="part2" data-entity-2="part1" id="msg14"><polygon fill="#181818" points="113.8633,691.2891,103.8633,695.2891,113.8633,699.2891,109.8633,695.2891" style="stroke:#181818;stroke-width:1;"/><line style="stroke:#181818;stroke-width:1;stroke-dasharray:2,2;" x1="107.8633" x2="506.0381" y1="695.2891" y2="695.2891"/><text fill="#000000" font-family="sans-serif" font-size="13" font-weight="bold" lengthAdjust="spacing" textLength="18.0908" x="119.8633" y="690.2231">14</text><text fill="#000000" font-family="sans-serif" font-size="13" lengthAdjust="spacing" textLength="78.2603" x="141.9541" y="690.2231">409 Conflict</text></g><line style="stroke:#000000;stroke-width:1;stroke-dasharray:2,2;" x1="20" x2="1769.1035" y1="704.2891" y2="704.2891"/><text fill="#000000" font-family="sans-serif" font-size="11" font-weight="bold" lengthAdjust="spacing" textLength="112.1484" x="25" y="714.4995">[version matches]</text><g class="message" data-entity-1="part3" data-entity-2="part5" id="msg15"><polygon fill="#181818" points="1358.918,735.2266,1368.918,739.2266,1358.918,743.2266,1362.918,739.2266" style="stroke:#181818;stroke-width:1;"/><line style="stroke:#181818;stroke-width:1;" x1="967.7393" x2="1364.918" y1="739.2266" y2="739.2266"/><text fill="#000000" font-family="sans-serif" font-size="13" font-weight="bold" lengthAdjust="spacing" textLength="18.0908" x="974.7393" y="734.1606">15</text><text fill="#000000" font-family="sans-serif" font-size="13" lengthAdjust="spacing" textLength="105.6504" x="996.8301" y="734.1606">update(request)</text></g><g class="message" data-entity-1="part3" data-entity-2="part4" id="msg16"><polygon fill="#181818" points="1245.709,794.3594,1255.709,798.3594,1245.709,802.3594,1249.709,798.3594" style="stroke:#181818;stroke-width:1;"/><line style="stroke:#181818;stroke-width:1;" x1="967.7393" x2="1251.709" y1="798.3594" y2="798.3594"/><text fill="#000000" font-family="sans-serif" font-size="13" font-weight="bold" lengthAdjust="spacing" textLength="18.0908" x="974.7393" y="793.2935">16</text><text fill="#000000" font-family="sans-serif" font-size="13" lengthAdjust="spacing" textLength="87.6294" x="996.8301" y="793.2935">save(aircraft)</text></g><g class="message" data-entity-1="part4" data-entity-2="part6" id="msg17"><polygon fill="#181818" points="1705.7031,823.4922,1715.7031,827.4922,1705.7031,831.4922,1709.7031,827.4922" style="stroke:#181818;stroke-width:1;"/><line style="stroke:#181818;stroke-width:1;" x1="1267.709" x2="1711.7031" y1="827.4922" y2="827.4922"/><text fill="#000000" font-family="sans-serif" font-size="13" font-weight="bold" lengthAdjust="spacing" textLength="18.0908" x="1274.709" y="822.4263">17</text><text fill="#000000" font-family="sans-serif" font-size="13" lengthAdjust="spacing" textLength="148.6685" x="1296.7998" y="822.4263">UPDATE aircraft SET ...</text></g><g class="message" data-entity-1="part6" data-entity-2="part4" id="msg18"><polygon fill="#181818" points="1273.709,852.625,1263.709,856.625,1273.709,860.625,1269.709,856.625" style="stroke:#181818;stroke-width:1;"/><line style="stroke:#181818;stroke-width:1;stroke-dasharray:2,2;" x1="1267.709" x2="1721.7031" y1="856.625" y2="856.625"/><text fill="#000000" font-family="sans-serif" font-size="13" font-weight="bold" lengthAdjust="spacing" textLength="18.0908" x="1279.709" y="851.5591">18</text><text fill="#000000" font-family="sans-serif" font-size="13" lengthAdjust="spacing" textLength="4.1323" x="1301.7998" y="851.5591">&#160;</text></g><g class="message" data-entity-1="part3" data-entity-2="part4" id="msg19"><polygon fill="#181818" points="1245.709,881.7578,1255.709,885.7578,1245.709,889.7578,1249.709,885.7578" style="stroke:#181818;stroke-width:1;"/><line style="stroke:#181818;stroke-width:1;" x1="967.7393" x2="1251.709" y1="885.7578" y2="885.7578"/><text fill="#000000" font-family="sans-serif" font-size="13" font-weight="bold" lengthAdjust="spacing" textLength="18.0908" x="974.7393" y="880.6919">19</text><text fill="#000000" font-family="sans-serif" font-size="13" lengthAdjust="spacing" textLength="179.7021" x="996.8301" y="880.6919">findVersionFor(registration)</text></g><g class="message" data-entity-1="part4" data-entity-2="part3" id="msg20"><polygon fill="#181818" points="978.7393,910.8906,968.7393,914.8906,978.7393,918.8906,974.7393,914.8906" style="stroke:#181818;stroke-width:1;"/><line style="stroke:#181818;stroke-width:1;stroke-dasharray:2,2;" x1="972.7393" x2="1261.709" y1="914.8906" y2="914.8906"/><text fill="#000000" font-family="sans-serif" font-size="13" font-weight="bold" lengthAdjust="spacing" textLength="18.0908" x="984.7393" y="909.8247">20</text><text fill="#000000" font-family="sans-serif" font-size="13" lengthAdjust="spacing" textLength="111.5029" x="1006.8301" y="909.8247">Long newVersion</text></g><g class="message" data-entity-1="part3" data-entity-2="part2" id="msg21"><polygon fill="#181818" points="528.0381,985.4219,518.0381,989.4219,528.0381,993.4219,524.0381,989.4219" style="stroke:#181818;stroke-width:1;"/><line style="stroke:#181818;stroke-width:1;stroke-dasharray:2,2;" x1="522.0381" x2="961.7393" y1="989.4219" y2="989.4219"/><text fill="#000000" font-family="sans-serif" font-size="13" font-weight="bold" lengthAdjust="spacing" textLength="18.0908" x="534.0381" y="961.6567">21</text><text fill="#000000" font-family="sans-serif" font-size="13" lengthAdjust="spacing" textLength="187.2051" x="556.1289" y="938.9575">ViewAircraftDetailsResponse</text><text fill="#000000" font-family="sans-serif" font-size="13" lengthAdjust="spacing" textLength="289.8784" x="556.1289" y="954.0903">{ registrationNumber, model, manufacturer,</text><text fill="#000000" font-family="sans-serif" font-size="13" lengthAdjust="spacing" textLength="271.9082" x="564.3936" y="969.2231">manufacturingDate, status, seatCapacity,</text><text fill="#000000" font-family="sans-serif" font-size="13" lengthAdjust="spacing" textLength="122.2749" x="564.3936" y="984.356">features, version }</text></g><g class="message" data-entity-1="part2" data-entity-2="part1" id="msg22"><polygon fill="#181818" points="113.8633,1029.6875,103.8633,1033.6875,113.8633,1037.6875,109.8633,1033.6875" style="stroke:#181818;stroke-width:1;"/><line style="stroke:#181818;stroke-width:1;stroke-dasharray:2,2;" x1="107.8633" x2="506.0381" y1="1033.6875" y2="1033.6875"/><text fill="#000000" font-family="sans-serif" font-size="13" font-weight="bold" lengthAdjust="spacing" textLength="18.0908" x="119.8633" y="1021.0552">22</text><text fill="#000000" font-family="sans-serif" font-size="13" lengthAdjust="spacing" textLength="47.7026" x="141.9541" y="1013.4888">200 OK</text><text fill="#000000" font-family="sans-serif" font-size="13" lengthAdjust="spacing" textLength="358.084" x="141.9541" y="1028.6216">EntityModel&lt;ViewAircraftDetailsResponse&gt; with _links</text></g><?plantuml-src bLN1JkCm4BtdAsPxwaeje1MNhQ28fa6i5YWgBNj1GYQTj5uIEsixb0hnxpjsaYPf8n2LAYMUcUVdDyyJbXafikG9bQUVkKYPOWaaKiXmfMI2O5I6jKZAmcUsn3kpYH4KXgOMqoksa6ikbX2nMAFdiT181PqHrSWeuY7294N5QB43JCDeub6XuI5FcJ3GEUSgL2molXH6oJZ6FCqtAcucpjC5CrYcppNwJAFBdVlja5DCfUQqySQbsTVsH1SkNppQXZqHDdJ6nPEBZqUUDvf0V-YumG1kpsV-9Hoob1-oebOVlYbSSctel5oAzmVnHh8kCBvX2Pxr864YYqYWJ95WX4vh3m908pC-8vMvsL1MHA-PGdq61F0hwbyp4wu6q7bxGQKjRCUAp5-eFjV94v8U5L-k3CWeNmDe2ZR5VnbgCw10l-8q09bQfYpErtVvxSJhH7T29UdQCee5M6QUvnGZvUO-wOQl66O6ktMbUcIhd5yxxHxmoCdmlJewjTqZG8ArdINWY8l5Q3EjmTuuZpTsgW4uGxXQmXYF2E4kk0hy6LnC9zTGzXJ-N0RJ0EeOZ_dTWLCugz387uJHh-Xi0UZ6IBNm5bZFpVSjDPaKcfsKvnxMqnrHZyMcmYHT8PAPM93uO37wbJ4DNU9rPUWRQIviPl0Qejl6bUGjeIBoz02EZuw1yi0bUaWNkTggkKr3xVlSa1ToLsERtQHlLzgqBZpz9SqRwAIbVMzg7sPAeJ05FvVGbB-YKxRWIj8C-xXkUn3RYf9umdLYdGdTPZ5yEwrC2yMljL6JfxyqKwq528kcqvKCQRmkBnYFwKOrszRMkfz0mpEAESrb6tRTsxAp-wDk41XkhK7bcRjktUBwLKotXzxEnJ9I4sGlrd28PY_OBLlQWhoLSyyRyzln-Ioex70NpE3Wu60VekZaZW7QgDOosphwTNj_TfI6hmIkwvxwZ4LbaNkEwrBbCHgoX9wYJgNGQ3ykQc_OzVBXNl_MqABzokmDznveGqDRznfptUMMqxotDT9x6t4QmUsc_75q19FV3o8GXY2lBQEJ3uuoX3KtAtYCkNZElOfs3D6_FWRj5ly1?></g></svg>