<svg xmlns="http://www.w3.org/2000/svg" xmlns:xlink="http://www.w3.org/1999/xlink" contentStyleType="text/css" data-diagram-type="SEQUENCE" height="628px" preserveAspectRatio="none" style="width:1303px;height:628px;background:#FFFFFF;" version="1.1" viewBox="0 0 1303 628" width="1303px" zoomAndPan="magnify"><?plantuml 1.2026.4?><defs/><g><g><title>AircraftModelController</title><rect fill="#FFFFFF" height="420.4063" style="stroke:#181818;stroke-width:1;" width="10" x="357.8643" y="114.9609"/></g><g><title>DeleteAircraftModelUseCase</title><rect fill="#FFFFFF" height="344.7031" style="stroke:#181818;stroke-width:1;" width="10" x="635.7549" y="145.3125"/></g><g><title>AircraftModelRepository</title><rect fill="#FFFFFF" height="91.0547" style="stroke:#181818;stroke-width:1;" width="10" x="860.9429" y="175.6641"/></g><g><title>AircraftModelRepository</title><rect fill="#FFFFFF" height="60.7031" style="stroke:#181818;stroke-width:1;" width="10" x="860.9429" y="398.9609"/></g><g><title>Database</title><rect fill="#FFFFFF" height="30.3516" style="stroke:#181818;stroke-width:1;" width="10" x="1239.6489" y="206.0156"/></g><g><title>Database</title><rect fill="#FFFFFF" height="30.3516" style="stroke:#181818;stroke-width:1;" width="10" x="1239.6489" y="429.3125"/></g><rect fill="none" height="246.6484" style="stroke:#000000;stroke-width:1.5;" width="1277.6143" x="10" y="281.7188"/><g class="participant-lifeline" data-entity-uid="part1" data-qualified-name="BO" data-source-line="6" id="part1-lifeline"><g><title>Backoffice Operator</title><rect fill="#000000" fill-opacity="0.00000" height="462.7578" width="8" x="80.8618" y="82.6094"/><line style="stroke:#181818;stroke-width:0.5;stroke-dasharray:5,5;" x1="84" x2="84" y1="82.6094" y2="545.3672"/></g></g><g class="participant-lifeline" data-entity-uid="part2" data-qualified-name="Ctrl" data-source-line="7" id="part2-lifeline"><g><title>AircraftModelController</title><rect fill="#000000" fill-opacity="0.00000" height="462.7578" width="8" x="358.8643" y="82.6094"/><line style="stroke:#181818;stroke-width:0.5;stroke-dasharray:5,5;" x1="362.2852" x2="362.2852" y1="82.6094" y2="545.3672"/></g></g><g class="participant-lifeline" data-entity-uid="part3" data-qualified-name="UC" data-source-line="8" id="part3-lifeline"><g><title>DeleteAircraftModelUseCase</title><rect fill="#000000" fill-opacity="0.00000" height="462.7578" width="8" x="636.7549" y="82.6094"/><line style="stroke:#181818;stroke-width:0.5;stroke-dasharray:5,5;" x1="640.4966" x2="640.4966" y1="82.6094" y2="545.3672"/></g></g><g class="participant-lifeline" data-entity-uid="part4" data-qualified-name="Repo" data-source-line="9" id="part4-lifeline"><g><title>AircraftModelRepository</title><rect fill="#000000" fill-opacity="0.00000" height="462.7578" width="8" x="861.9429" y="82.6094"/><line style="stroke:#181818;stroke-width:0.5;stroke-dasharray:5,5;" x1="865.25" x2="865.25" y1="82.6094" y2="545.3672"/></g></g><g class="participant-lifeline" data-entity-uid="part5" data-qualified-name="DB" data-source-line="10" id="part5-lifeline"><g><title>Database</title><rect fill="#000000" fill-opacity="0.00000" height="462.7578" width="8" x="1240.6489" y="82.6094"/><line style="stroke:#181818;stroke-width:0.5;stroke-dasharray:5,5;" x1="1243.6836" x2="1243.6836" y1="82.6094" y2="545.3672"/></g></g><g class="participant participant-head" data-entity-uid="part1" data-qualified-name="BO" data-source-line="6" id="part1-head"><text fill="#000000" font-family="sans-serif" font-size="14" lengthAdjust="spacing" textLength="123.7236" x="20" y="79.5332">Backoffice Operator</text><ellipse cx="84.8618" cy="13.5" fill="#E3E3E3" rx="8" ry="8" style="stroke:#181818;stroke-width:0.5;"/><path d="M84.8618,21.5 L84.8618,48.5 M71.8618,29.5 L97.8618,29.5 M84.8618,48.5 L71.8618,63.5 M84.8618,48.5 L97.8618,63.5" fill="none" style="stroke:#181818;stroke-width:0.5;"/></g><g class="participant participant-tail" data-entity-uid="part1" data-qualified-name="BO" data-source-line="6" id="part1-tail"><text fill="#000000" font-family="sans-serif" font-size="14" lengthAdjust="spacing" textLength="123.7236" x="20" y="558.9004">Backoffice Operator</text><ellipse cx="84.8618" cy="570.4766" fill="#E3E3E3" rx="8" ry="8" style="stroke:#181818;stroke-width:0.5;"/><path d="M84.8618,578.4766 L84.8618,605.4766 M71.8618,586.4766 L97.8618,586.4766 M84.8618,605.4766 L71.8618,620.4766 M84.8618,605.4766 L97.8618,620.4766" fill="none" style="stroke:#181818;stroke-width:0.5;"/></g><g class="participant participant-head" data-entity-uid="part2" data-qualified-name="Ctrl" data-source-line="7" id="part2-head"><rect fill="#E3E3E3" height="31.6094" rx="2.5" ry="2.5" style="stroke:#181818;stroke-width:0.5;" width="157.1582" x="284.2852" y="50"/><text fill="#000000" font-family="sans-serif" font-size="14" lengthAdjust="spacing" textLength="143.1582" x="291.2852" y="71.5332">AircraftModelController</text></g><g class="participant participant-tail" data-entity-uid="part2" data-qualified-name="Ctrl" data-source-line="7" id="part2-tail"><rect fill="#E3E3E3" height="31.6094" rx="2.5" ry="2.5" style="stroke:#181818;stroke-width:0.5;" width="157.1582" x="284.2852" y="544.3672"/><text fill="#000000" font-family="sans-serif" font-size="14" lengthAdjust="spacing" textLength="143.1582" x="291.2852" y="565.9004">AircraftModelController</text></g><g class="participant participant-head" data-entity-uid="part3" data-qualified-name="UC" data-source-line="8" id="part3-head"><rect fill="#E3E3E3" height="31.6094" rx="2.5" ry="2.5" style="stroke:#181818;stroke-width:0.5;" width="194.5166" x="543.4966" y="50"/><text fill="#000000" font-family="sans-serif" font-size="14" lengthAdjust="spacing" textLength="180.5166" x="550.4966" y="71.5332">DeleteAircraftModelUseCase</text></g><g class="participant participant-tail" data-entity-uid="part3" data-qualified-name="UC" data-source-line="8" id="part3-tail"><rect fill="#E3E3E3" height="31.6094" rx="2.5" ry="2.5" style="stroke:#181818;stroke-width:0.5;" width="194.5166" x="543.4966" y="544.3672"/><text fill="#000000" font-family="sans-serif" font-size="14" lengthAdjust="spacing" textLength="180.5166" x="550.4966" y="565.9004">DeleteAircraftModelUseCase</text></g><g class="participant participant-head" data-entity-uid="part4" data-qualified-name="Repo" data-source-line="9" id="part4-head"><rect fill="#E3E3E3" height="31.6094" rx="2.5" ry="2.5" style="stroke:#181818;stroke-width:0.5;" width="163.3857" x="784.25" y="50"/><text fill="#000000" font-family="sans-serif" font-size="14" lengthAdjust="spacing" textLength="149.3857" x="791.25" y="71.5332">AircraftModelRepository</text></g><g class="participant participant-tail" data-entity-uid="part4" data-qualified-name="Repo" data-source-line="9" id="part4-tail"><rect fill="#E3E3E3" height="31.6094" rx="2.5" ry="2.5" style="stroke:#181818;stroke-width:0.5;" width="163.3857" x="784.25" y="544.3672"/><text fill="#000000" font-family="sans-serif" font-size="14" lengthAdjust="spacing" textLength="149.3857" x="791.25" y="565.9004">AircraftModelRepository</text></g><g class="participant participant-head" data-entity-uid="part5" data-qualified-name="DB" data-source-line="10" id="part5-head"><text fill="#000000" font-family="sans-serif" font-size="14" lengthAdjust="spacing" textLength="59.9307" x="1211.6836" y="79.5332">Database</text><path d="M1226.6489,29 C1226.6489,19 1244.6489,19 1244.6489,19 C1244.6489,19 1262.6489,19 1262.6489,29 L1262.6489,55 C1262.6489,65 1244.6489,65 1244.6489,65 C1244.6489,65 1226.6489,65 1226.6489,55 L1226.6489,29" fill="#E3E3E3" style="stroke:#181818;stroke-width:0.5;"/><path d="M1226.6489,29 C1226.6489,39 1244.6489,39 1244.6489,39 C1244.6489,39 1262.6489,39 1262.6489,29" fill="none" style="stroke:#181818;stroke-width:0.5;"/></g><g class="participant participant-tail" data-entity-uid="part5" data-qualified-name="DB" data-source-line="10" id="part5-tail"><text fill="#000000" font-family="sans-serif" font-size="14" lengthAdjust="spacing" textLength="59.9307" x="1211.6836" y="558.9004">Database</text><path d="M1226.6489,571.9766 C1226.6489,561.9766 1244.6489,561.9766 1244.6489,561.9766 C1244.6489,561.9766 1262.6489,561.9766 1262.6489,571.9766 L1262.6489,597.9766 C1262.6489,607.9766 1244.6489,607.9766 1244.6489,607.9766 C1244.6489,607.9766 1226.6489,607.9766 1226.6489,597.9766 L1226.6489,571.9766" fill="#E3E3E3" style="stroke:#181818;stroke-width:0.5;"/><path d="M1226.6489,571.9766 C1226.6489,581.9766 1244.6489,581.9766 1244.6489,581.9766 C1244.6489,581.9766 1262.6489,581.9766 1262.6489,571.9766" fill="none" style="stroke:#181818;stroke-width:0.5;"/></g><g><title>AircraftModelController</title><rect fill="#FFFFFF" height="420.4063" style="stroke:#181818;stroke-width:1;" width="10" x="357.8643" y="114.9609"/></g><g><title>DeleteAircraftModelUseCase</title><rect fill="#FFFFFF" height="344.7031" style="stroke:#181818;stroke-width:1;" width="10" x="635.7549" y="145.3125"/></g><g><title>AircraftModelRepository</title><rect fill="#FFFFFF" height="91.0547" style="stroke:#181818;stroke-width:1;" width="10" x="860.9429" y="175.6641"/></g><g><title>AircraftModelRepository</title><rect fill="#FFFFFF" height="60.7031" style="stroke:#181818;stroke-width:1;" width="10" x="860.9429" y="398.9609"/></g><g><title>Database</title><rect fill="#FFFFFF" height="30.3516" style="stroke:#181818;stroke-width:1;" width="10" x="1239.6489" y="206.0156"/></g><g><title>Database</title><rect fill="#FFFFFF" height="30.3516" style="stroke:#181818;stroke-width:1;" width="10" x="1239.6489" y="429.3125"/></g><g class="message" data-entity-1="part1" data-entity-2="part2" data-source-line="12" id="msg1"><polygon fill="#181818" points="345.8643,110.9609,355.8643,114.9609,345.8643,118.9609,349.8643,114.9609" style="stroke:#181818;stroke-width:1;stroke-linejoin:miter;stroke-miterlimit:10;"/><line style="stroke:#181818;stroke-width:1;" x1="84.8618" x2="351.8643" y1="114.9609" y2="114.9609"/><text fill="#000000" font-family="sans-serif" font-size="13" font-weight="700" lengthAdjust="spacing" textLength="7.23" x="91.8618" y="110.1045">1</text><text fill="#000000" font-family="sans-serif" font-size="13" lengthAdjust="spacing" textLength="242.7725" x="103.0918" y="110.1045">DELETE /api/aircraftModels/{modelName}</text></g><g class="message" data-entity-1="part2" data-entity-2="part3" data-source-line="15" id="msg2"><polygon fill="#181818" points="623.7549,141.3125,633.7549,145.3125,623.7549,149.3125,627.7549,145.3125" style="stroke:#181818;stroke-width:1;stroke-linejoin:miter;stroke-miterlimit:10;"/><line style="stroke:#181818;stroke-width:1;" x1="367.8643" x2="629.7549" y1="145.3125" y2="145.3125"/><text fill="#000000" font-family="sans-serif" font-size="13" font-weight="700" lengthAdjust="spacing" textLength="7.23" x="374.8643" y="140.4561">2</text><text fill="#000000" font-family="sans-serif" font-size="13" lengthAdjust="spacing" textLength="124.2744" x="386.0942" y="140.4561">execute(modelName)</text></g><g class="message" data-entity-1="part3" data-entity-2="part4" data-source-line="18" id="msg3"><polygon fill="#181818" points="848.9429,171.6641,858.9429,175.6641,848.9429,179.6641,852.9429,175.6641" style="stroke:#181818;stroke-width:1;stroke-linejoin:miter;stroke-miterlimit:10;"/><line style="stroke:#181818;stroke-width:1;" x1="645.7549" x2="854.9429" y1="175.6641" y2="175.6641"/><text fill="#000000" font-family="sans-serif" font-size="13" font-weight="700" lengthAdjust="spacing" textLength="7.23" x="652.7549" y="170.8076">3</text><text fill="#000000" font-family="sans-serif" font-size="13" lengthAdjust="spacing" textLength="184.958" x="663.9849" y="170.8076">findByModelName(modelName)</text></g><g class="message" data-entity-1="part4" data-entity-2="part5" data-source-line="20" id="msg4"><polygon fill="#181818" points="1227.6489,202.0156,1237.6489,206.0156,1227.6489,210.0156,1231.6489,206.0156" style="stroke:#181818;stroke-width:1;stroke-linejoin:miter;stroke-miterlimit:10;"/><line style="stroke:#181818;stroke-width:1;" x1="870.9429" x2="1233.6489" y1="206.0156" y2="206.0156"/><text fill="#000000" font-family="sans-serif" font-size="13" font-weight="700" lengthAdjust="spacing" textLength="7.23" x="877.9429" y="201.1592">4</text><text fill="#000000" font-family="sans-serif" font-size="13" lengthAdjust="spacing" textLength="331.2461" x="889.1729" y="201.1592">SELECT FROM aircraft_model WHERE model_name = ?</text></g><g class="message" data-entity-1="part5" data-entity-2="part4" data-source-line="22" id="msg5"><polygon fill="#181818" points="881.9429,232.3672,871.9429,236.3672,881.9429,240.3672,877.9429,236.3672" style="stroke:#181818;stroke-width:1;stroke-linejoin:miter;stroke-miterlimit:10;"/><line style="stroke:#181818;stroke-width:1;stroke-dasharray:2,2;" x1="875.9429" x2="1243.6489" y1="236.3672" y2="236.3672"/><text fill="#000000" font-family="sans-serif" font-size="13" font-weight="700" lengthAdjust="spacing" textLength="7.23" x="887.9429" y="231.5107">5</text><text fill="#000000" font-family="sans-serif" font-size="13" lengthAdjust="spacing" textLength="75.8672" x="899.1729" y="231.5107">model record</text></g><g class="message" data-entity-1="part4" data-entity-2="part3" data-source-line="24" id="msg6"><polygon fill="#181818" points="656.7549,262.7188,646.7549,266.7188,656.7549,270.7188,652.7549,266.7188" style="stroke:#181818;stroke-width:1;stroke-linejoin:miter;stroke-miterlimit:10;"/><line style="stroke:#181818;stroke-width:1;stroke-dasharray:2,2;" x1="650.7549" x2="864.9429" y1="266.7188" y2="266.7188"/><text fill="#000000" font-family="sans-serif" font-size="13" font-weight="700" lengthAdjust="spacing" textLength="7.23" x="662.7549" y="261.8623">6</text><text fill="#000000" font-family="sans-serif" font-size="13" lengthAdjust="spacing" textLength="140.1816" x="673.9849" y="261.8623">Optional&lt;AircraftModel&gt;</text></g><path d="M10,281.7188 L70.1709,281.7188 L70.1709,290.0703 L60.1709,300.0703 L10,300.0703 L10,281.7188" fill="#EEEEEE" style="stroke:#000000;stroke-width:1.5;"/><rect fill="none" height="246.6484" style="stroke:#000000;stroke-width:1.5;" width="1277.6143" x="10" y="281.7188"/><text fill="#000000" font-family="sans-serif" font-size="13" font-weight="700" lengthAdjust="spacing" textLength="15.1709" x="25" y="296.2139">alt</text><text fill="#000000" font-family="sans-serif" font-size="11" font-weight="700" lengthAdjust="spacing" textLength="93.4731" x="85.1709" y="295.1377">[model not found]</text><g class="message" data-entity-1="part3" data-entity-2="part2" data-source-line="28" id="msg7"><polygon fill="#181818" points="378.8643,318.4219,368.8643,322.4219,378.8643,326.4219,374.8643,322.4219" style="stroke:#181818;stroke-width:1;stroke-linejoin:miter;stroke-miterlimit:10;"/><line style="stroke:#181818;stroke-width:1;stroke-dasharray:2,2;" x1="372.8643" x2="634.7549" y1="322.4219" y2="322.4219"/><text fill="#000000" font-family="sans-serif" font-size="13" font-weight="700" lengthAdjust="spacing" textLength="7.23" x="384.8643" y="317.5654">7</text><text fill="#000000" font-family="sans-serif" font-size="13" lengthAdjust="spacing" textLength="232.6606" x="396.0942" y="317.5654">throws AircraftModelNotFoundException</text></g><g class="message" data-entity-1="part2" data-entity-2="part1" data-source-line="29" id="msg8"><polygon fill="#181818" points="95.8618,348.7734,85.8618,352.7734,95.8618,356.7734,91.8618,352.7734" style="stroke:#181818;stroke-width:1;stroke-linejoin:miter;stroke-miterlimit:10;"/><line style="stroke:#181818;stroke-width:1;stroke-dasharray:2,2;" x1="89.8618" x2="356.8643" y1="352.7734" y2="352.7734"/><text fill="#000000" font-family="sans-serif" font-size="13" font-weight="700" lengthAdjust="spacing" textLength="7.23" x="101.8618" y="347.917">8</text><text fill="#000000" font-family="sans-serif" font-size="13" lengthAdjust="spacing" textLength="86.0044" x="113.0918" y="347.917">404 Not Found</text></g><line style="stroke:#000000;stroke-width:1;stroke-dasharray:2,2;" x1="10" x2="1287.6143" y1="361.7734" y2="361.7734"/><text fill="#000000" font-family="sans-serif" font-size="11" font-weight="700" lengthAdjust="spacing" textLength="73.3154" x="15" y="373.1924">[model found]</text><g class="message" data-entity-1="part3" data-entity-2="part4" data-source-line="31" id="msg9"><polygon fill="#181818" points="848.9429,394.9609,858.9429,398.9609,848.9429,402.9609,852.9429,398.9609" style="stroke:#181818;stroke-width:1;stroke-linejoin:miter;stroke-miterlimit:10;"/><line style="stroke:#181818;stroke-width:1;" x1="645.7549" x2="854.9429" y1="398.9609" y2="398.9609"/><text fill="#000000" font-family="sans-serif" font-size="13" font-weight="700" lengthAdjust="spacing" textLength="7.23" x="652.7549" y="394.1045">9</text><text fill="#000000" font-family="sans-serif" font-size="13" lengthAdjust="spacing" textLength="79.4854" x="663.9849" y="394.1045">delete(model)</text></g><g class="message" data-entity-1="part4" data-entity-2="part5" data-source-line="33" id="msg10"><polygon fill="#181818" points="1227.6489,425.3125,1237.6489,429.3125,1227.6489,433.3125,1231.6489,429.3125" style="stroke:#181818;stroke-width:1;stroke-linejoin:miter;stroke-miterlimit:10;"/><line style="stroke:#181818;stroke-width:1;" x1="870.9429" x2="1233.6489" y1="429.3125" y2="429.3125"/><text fill="#000000" font-family="sans-serif" font-size="13" font-weight="700" lengthAdjust="spacing" textLength="14.46" x="877.9429" y="424.4561">10</text><text fill="#000000" font-family="sans-serif" font-size="13" lengthAdjust="spacing" textLength="331.2461" x="896.4028" y="424.4561">DELETE FROM aircraft_model WHERE model_name = ?</text></g><g class="message" data-entity-1="part5" data-entity-2="part4" data-source-line="35" id="msg11"><polygon fill="#181818" points="876.9429,455.6641,866.9429,459.6641,876.9429,463.6641,872.9429,459.6641" style="stroke:#181818;stroke-width:1;stroke-linejoin:miter;stroke-miterlimit:10;"/><line style="stroke:#181818;stroke-width:1;stroke-dasharray:2,2;" x1="870.9429" x2="1243.6489" y1="459.6641" y2="459.6641"/><text fill="#000000" font-family="sans-serif" font-size="13" font-weight="700" lengthAdjust="spacing" textLength="14.46" x="882.9429" y="454.8076">11</text><text fill="#000000" font-family="sans-serif" font-size="13" lengthAdjust="spacing" textLength="46.96" x="901.4028" y="454.8076">success</text></g><g class="message" data-entity-1="part3" data-entity-2="part2" data-source-line="38" id="msg12"><polygon fill="#181818" points="378.8643,486.0156,368.8643,490.0156,378.8643,494.0156,374.8643,490.0156" style="stroke:#181818;stroke-width:1;stroke-linejoin:miter;stroke-miterlimit:10;"/><line style="stroke:#181818;stroke-width:1;stroke-dasharray:2,2;" x1="372.8643" x2="639.7549" y1="490.0156" y2="490.0156"/><text fill="#000000" font-family="sans-serif" font-size="13" font-weight="700" lengthAdjust="spacing" textLength="14.46" x="384.8643" y="485.1592">12</text><text fill="#000000" font-family="sans-serif" font-size="13" lengthAdjust="spacing" textLength="23.8481" x="403.3242" y="485.1592">void</text></g><g class="message" data-entity-1="part2" data-entity-2="part1" data-source-line="40" id="msg13"><polygon fill="#181818" points="95.8618,516.3672,85.8618,520.3672,95.8618,524.3672,91.8618,520.3672" style="stroke:#181818;stroke-width:1;stroke-linejoin:miter;stroke-miterlimit:10;"/><line style="stroke:#181818;stroke-width:1;stroke-dasharray:2,2;" x1="89.8618" x2="356.8643" y1="520.3672" y2="520.3672"/><text fill="#000000" font-family="sans-serif" font-size="13" font-weight="700" lengthAdjust="spacing" textLength="14.46" x="101.8618" y="515.5107">13</text><text fill="#000000" font-family="sans-serif" font-size="13" lengthAdjust="spacing" textLength="91.0635" x="120.3218" y="515.5107">204 No Content</text></g><?plantuml-src ZLDDJzmm4BtxLupsL0veAyG9jLGa6zH3bvKMLZsYmPc0HM97zWHOLVtl7Jlx4TEg8fV4dlVUl7bsS61dX-w1l0hFnlReiOFEMQUVlEi8s0yqgVIed_6HRddR4dZIFAc59wpTgx6Fq60RI2dKx3pC2k6ufZ6QODMJHzcS0GOeLag8RBJfqJBChepN7XjUkfhQqbdshcrfn9Risnoze9QOCiucK8c14c5J_aTyJRqBHdni4pOkLOsC3y8MvTrNgYqAfOeLd5uc2t01Y-f7TLV177ipnwbecF_guli6E_eTPpSlo3GwLuai8fjI9EYDzC3qwG0_ESB5jnAGGACh0JV6riLskOV-avG6I7ZXBGfXtOhByWwkrwibx5tU9ohy_5wjAqZVzrPqu2jyEqh9l29mUkm_akIedQzLJLFWs74_rQfduoosNxAeBwUSv5DXopjLwnWQDzXQWJnnx6FEBFVlDK0cTkFuEiAhDqsfM-ADsGfJpka2pZ-VW-0W0PKS2-sQvOqEyzNf7esndgHoRZVkPD7kBi27eyqa9RMupYCEWzOKGgha2R_REHZAetfnfduFbNlqTpPdAHk8_nPPLYHvJ8ydWly0?></g></svg>