<?plantuml 1.2026.1?><svg xmlns="http://www.w3.org/2000/svg" xmlns:xlink="http://www.w3.org/1999/xlink" contentStyleType="text/css" data-diagram-type="SEQUENCE" height="867px" preserveAspectRatio="none" style="width:1766px;height:867px;background:#FFFFFF;" version="1.1" viewBox="0 0 1766 867" width="1766px" zoomAndPan="magnify"><defs/><g><g><title>MaintenanceController</title><rect fill="#FFFFFF" height="619.125" style="stroke:#181818;stroke-width:1;" width="10" x="497.6636" y="157.8281"/></g><g><title>CreateMaintenancePartUseCase</title><rect fill="#FFFFFF" height="419.9297" style="stroke:#181818;stroke-width:1;" width="10" x="867.0767" y="297.7578"/></g><g><title>MaintenancePartRepository</title><rect fill="#FFFFFF" height="87.3984" style="stroke:#181818;stroke-width:1;" width="10" x="1218.8115" y="326.8906"/></g><g><title>MaintenancePartRepository</title><rect fill="#FFFFFF" height="87.3984" style="stroke:#181818;stroke-width:1;" width="10" x="1218.8115" y="586.0234"/></g><g><title>Database</title><rect fill="#FFFFFF" height="29.1328" style="stroke:#181818;stroke-width:1;" width="10" x="1707.9224" y="356.0234"/></g><g><title>Database</title><rect fill="#FFFFFF" height="29.1328" style="stroke:#181818;stroke-width:1;" width="10" x="1707.9224" y="615.1563"/></g><rect fill="none" height="340.6641" style="stroke:#000000;stroke-width:1.5;" width="1749.3228" x="10" y="429.2891"/><g class="participant-lifeline" data-entity-uid="part1" data-qualified-name="MS" id="part1-lifeline"><g><title>Maintenance Supervisor</title><rect fill="#000000" fill-opacity="0.00000" height="705.6563" width="8" x="103.7075" y="81.2969"/><line style="stroke:#181818;stroke-width:0.5;stroke-dasharray:5,5;" x1="107" x2="107" y1="81.2969" y2="786.9531"/></g></g><g class="participant-lifeline" data-entity-uid="part2" data-qualified-name="Ctrl" id="part2-lifeline"><g><title>MaintenanceController</title><rect fill="#000000" fill-opacity="0.00000" height="705.6563" width="8" x="498.6636" y="81.2969"/><line style="stroke:#181818;stroke-width:0.5;stroke-dasharray:5,5;" x1="501.9976" x2="501.9976" y1="81.2969" y2="786.9531"/></g></g><g class="participant-lifeline" data-entity-uid="part3" data-qualified-name="UC" id="part3-lifeline"><g><title>CreateMaintenancePartUseCase</title><rect fill="#000000" fill-opacity="0.00000" height="705.6563" width="8" x="868.0767" y="81.2969"/><line style="stroke:#181818;stroke-width:0.5;stroke-dasharray:5,5;" x1="871.2427" x2="871.2427" y1="81.2969" y2="786.9531"/></g></g><g class="participant-lifeline" data-entity-uid="part4" data-qualified-name="Repo" id="part4-lifeline"><g><title>MaintenancePartRepository</title><rect fill="#000000" fill-opacity="0.00000" height="705.6563" width="8" x="1219.8115" y="81.2969"/><line style="stroke:#181818;stroke-width:0.5;stroke-dasharray:5,5;" x1="1223.0625" x2="1223.0625" y1="81.2969" y2="786.9531"/></g></g><g class="participant-lifeline" data-entity-uid="part5" data-qualified-name="DB" id="part5-lifeline"><g><title>Database</title><rect fill="#000000" fill-opacity="0.00000" height="705.6563" width="8" x="1708.9224" y="81.2969"/><line style="stroke:#181818;stroke-width:0.5;stroke-dasharray:5,5;" x1="1712.522" x2="1712.522" y1="81.2969" y2="786.9531"/></g></g><g class="participant participant-head" data-entity-uid="part1" data-qualified-name="MS" id="part1-head"><text fill="#000000" font-family="sans-serif" font-size="14" lengthAdjust="spacing" textLength="169.415" x="20" y="77.9951">Maintenance Supervisor</text><ellipse cx="107.7075" cy="13.5" fill="#E2E2F0" rx="8" ry="8" style="stroke:#181818;stroke-width:0.5;"/><path d="M107.7075,21.5 L107.7075,48.5 M94.7075,29.5 L120.7075,29.5 M107.7075,48.5 L94.7075,63.5 M107.7075,48.5 L120.7075,63.5" fill="none" style="stroke:#181818;stroke-width:0.5;"/></g><g class="participant participant-tail" data-entity-uid="part1" data-qualified-name="MS" id="part1-tail"><text fill="#000000" font-family="sans-serif" font-size="14" lengthAdjust="spacing" textLength="169.415" x="20" y="798.9482">Maintenance Supervisor</text><ellipse cx="107.7075" cy="810.75" fill="#E2E2F0" rx="8" ry="8" style="stroke:#181818;stroke-width:0.5;"/><path d="M107.7075,818.75 L107.7075,845.75 M94.7075,826.75 L120.7075,826.75 M107.7075,845.75 L94.7075,860.75 M107.7075,845.75 L120.7075,860.75" fill="none" style="stroke:#181818;stroke-width:0.5;"/></g><g class="participant participant-head" data-entity-uid="part2" data-qualified-name="Ctrl" id="part2-head"><rect fill="#E2E2F0" height="30.2969" rx="2.5" ry="2.5" style="stroke:#181818;stroke-width:0.5;" width="173.332" x="415.9976" y="50"/><text fill="#000000" font-family="sans-serif" font-size="14" lengthAdjust="spacing" textLength="159.332" x="422.9976" y="69.9951">MaintenanceController</text></g><g class="participant participant-tail" data-entity-uid="part2" data-qualified-name="Ctrl" id="part2-tail"><rect fill="#E2E2F0" height="30.2969" rx="2.5" ry="2.5" style="stroke:#181818;stroke-width:0.5;" width="173.332" x="415.9976" y="785.9531"/><text fill="#000000" font-family="sans-serif" font-size="14" lengthAdjust="spacing" textLength="159.332" x="422.9976" y="805.9482">MaintenanceController</text></g><g class="participant participant-head" data-entity-uid="part3" data-qualified-name="UC" id="part3-head"><rect fill="#E2E2F0" height="30.2969" rx="2.5" ry="2.5" style="stroke:#181818;stroke-width:0.5;" width="239.668" x="752.2427" y="50"/><text fill="#000000" font-family="sans-serif" font-size="14" lengthAdjust="spacing" textLength="225.668" x="759.2427" y="69.9951">CreateMaintenancePartUseCase</text></g><g class="participant participant-tail" data-entity-uid="part3" data-qualified-name="UC" id="part3-tail"><rect fill="#E2E2F0" height="30.2969" rx="2.5" ry="2.5" style="stroke:#181818;stroke-width:0.5;" width="239.668" x="752.2427" y="785.9531"/><text fill="#000000" font-family="sans-serif" font-size="14" lengthAdjust="spacing" textLength="225.668" x="759.2427" y="805.9482">CreateMaintenancePartUseCase</text></g><g class="participant participant-head" data-entity-uid="part4" data-qualified-name="Repo" id="part4-head"><rect fill="#E2E2F0" height="30.2969" rx="2.5" ry="2.5" style="stroke:#181818;stroke-width:0.5;" width="207.498" x="1120.0625" y="50"/><text fill="#000000" font-family="sans-serif" font-size="14" lengthAdjust="spacing" textLength="193.498" x="1127.0625" y="69.9951">MaintenancePartRepository</text></g><g class="participant participant-tail" data-entity-uid="part4" data-qualified-name="Repo" id="part4-tail"><rect fill="#E2E2F0" height="30.2969" rx="2.5" ry="2.5" style="stroke:#181818;stroke-width:0.5;" width="207.498" x="1120.0625" y="785.9531"/><text fill="#000000" font-family="sans-serif" font-size="14" lengthAdjust="spacing" textLength="193.498" x="1127.0625" y="805.9482">MaintenancePartRepository</text></g><g class="participant participant-head" data-entity-uid="part5" data-qualified-name="DB" id="part5-head"><text fill="#000000" font-family="sans-serif" font-size="14" lengthAdjust="spacing" textLength="66.8008" x="1676.522" y="77.9951">Database</text><path d="M1694.9224,29 C1694.9224,19 1712.9224,19 1712.9224,19 C1712.9224,19 1730.9224,19 1730.9224,29 L1730.9224,55 C1730.9224,65 1712.9224,65 1712.9224,65 C1712.9224,65 1694.9224,65 1694.9224,55 L1694.9224,29" fill="#E2E2F0" style="stroke:#181818;stroke-width:0.5;"/><path d="M1694.9224,29 C1694.9224,39 1712.9224,39 1712.9224,39 C1712.9224,39 1730.9224,39 1730.9224,29" fill="none" style="stroke:#181818;stroke-width:0.5;"/></g><g class="participant participant-tail" data-entity-uid="part5" data-qualified-name="DB" id="part5-tail"><text fill="#000000" font-family="sans-serif" font-size="14" lengthAdjust="spacing" textLength="66.8008" x="1676.522" y="798.9482">Database</text><path d="M1694.9224,812.25 C1694.9224,802.25 1712.9224,802.25 1712.9224,802.25 C1712.9224,802.25 1730.9224,802.25 1730.9224,812.25 L1730.9224,838.25 C1730.9224,848.25 1712.9224,848.25 1712.9224,848.25 C1712.9224,848.25 1694.9224,848.25 1694.9224,838.25 L1694.9224,812.25" fill="#E2E2F0" style="stroke:#181818;stroke-width:0.5;"/><path d="M1694.9224,812.25 C1694.9224,822.25 1712.9224,822.25 1712.9224,822.25 C1712.9224,822.25 1730.9224,822.25 1730.9224,812.25" fill="none" style="stroke:#181818;stroke-width:0.5;"/></g><g><title>MaintenanceController</title><rect fill="#FFFFFF" height="619.125" style="stroke:#181818;stroke-width:1;" width="10" x="497.6636" y="157.8281"/></g><g><title>CreateMaintenancePartUseCase</title><rect fill="#FFFFFF" height="419.9297" style="stroke:#181818;stroke-width:1;" width="10" x="867.0767" y="297.7578"/></g><g><title>MaintenancePartRepository</title><rect fill="#FFFFFF" height="87.3984" style="stroke:#181818;stroke-width:1;" width="10" x="1218.8115" y="326.8906"/></g><g><title>MaintenancePartRepository</title><rect fill="#FFFFFF" height="87.3984" style="stroke:#181818;stroke-width:1;" width="10" x="1218.8115" y="586.0234"/></g><g><title>Database</title><rect fill="#FFFFFF" height="29.1328" style="stroke:#181818;stroke-width:1;" width="10" x="1707.9224" y="356.0234"/></g><g><title>Database</title><rect fill="#FFFFFF" height="29.1328" style="stroke:#181818;stroke-width:1;" width="10" x="1707.9224" y="615.1563"/></g><g class="message" data-entity-1="part1" data-entity-2="part2" id="msg1"><polygon fill="#181818" points="485.6636,153.8281,495.6636,157.8281,485.6636,161.8281,489.6636,157.8281" style="stroke:#181818;stroke-width:1;"/><line style="stroke:#181818;stroke-width:1;" x1="107.7075" x2="491.6636" y1="157.8281" y2="157.8281"/><text fill="#000000" font-family="sans-serif" font-size="13" font-weight="bold" lengthAdjust="spacing" textLength="9.0454" x="114.7075" y="130.063">1</text><text fill="#000000" font-family="sans-serif" font-size="13" lengthAdjust="spacing" textLength="189.9663" x="127.7529" y="107.3638">POST /api/maintenance/parts</text><text fill="#000000" font-family="sans-serif" font-size="13" lengthAdjust="spacing" textLength="227.9951" x="127.7529" y="122.4966">{ partNumber, name, description?,</text><text fill="#000000" font-family="sans-serif" font-size="13" lengthAdjust="spacing" textLength="229.1187" x="136.0176" y="137.6294">stockQuantity, minimumThreshold,</text><text fill="#000000" font-family="sans-serif" font-size="13" lengthAdjust="spacing" textLength="253.6523" x="136.0176" y="152.7622">component: MaintenanceComponent }</text></g><path d="M512,170.8281 L512,270.8281 L887,270.8281 L887,180.8281 L877,170.8281 L512,170.8281" fill="#FEFFDD" style="stroke:#181818;stroke-width:0.5;"/><path d="M877,170.8281 L877,180.8281 L887,180.8281 L877,170.8281" fill="#FEFFDD" style="stroke:#181818;stroke-width:0.5;"/><text fill="#000000" font-family="sans-serif" font-size="13" lengthAdjust="spacing" textLength="281.0107" x="518" y="187.895">@Valid on CreateMaintenancePartRequest:</text><text fill="#000000" font-family="sans-serif" font-size="13" lengthAdjust="spacing" textLength="157.2378" x="518" y="203.0278">- partNumber: not blank</text><text fill="#000000" font-family="sans-serif" font-size="13" lengthAdjust="spacing" textLength="115.2227" x="518" y="218.1606">- name: not blank</text><text fill="#000000" font-family="sans-serif" font-size="13" lengthAdjust="spacing" textLength="142.2002" x="518" y="233.2935">- stockQuantity: &gt;= 0</text><text fill="#000000" font-family="sans-serif" font-size="13" lengthAdjust="spacing" textLength="177.5693" x="518" y="248.4263">- minimumThreshold: &gt;= 0</text><text fill="#000000" font-family="sans-serif" font-size="13" lengthAdjust="spacing" textLength="354.7451" x="518" y="263.5591">- component: not null (MaintenanceComponent enum)</text><g class="message" data-entity-1="part2" data-entity-2="part3" id="msg2"><polygon fill="#181818" points="855.0767,293.7578,865.0767,297.7578,855.0767,301.7578,859.0767,297.7578" style="stroke:#181818;stroke-width:1;"/><line style="stroke:#181818;stroke-width:1;" x1="507.6636" x2="861.0767" y1="297.7578" y2="297.7578"/><text fill="#000000" font-family="sans-serif" font-size="13" font-weight="bold" lengthAdjust="spacing" textLength="9.0454" x="514.6636" y="292.6919">2</text><text fill="#000000" font-family="sans-serif" font-size="13" lengthAdjust="spacing" textLength="327.3677" x="527.709" y="292.6919">execute(request: CreateMaintenancePartRequest)</text></g><g class="message" data-entity-1="part3" data-entity-2="part4" id="msg3"><polygon fill="#181818" points="1206.8115,322.8906,1216.8115,326.8906,1206.8115,330.8906,1210.8115,326.8906" style="stroke:#181818;stroke-width:1;"/><line style="stroke:#181818;stroke-width:1;" x1="877.0767" x2="1212.8115" y1="326.8906" y2="326.8906"/><text fill="#000000" font-family="sans-serif" font-size="13" font-weight="bold" lengthAdjust="spacing" textLength="9.0454" x="884.0767" y="321.8247">3</text><text fill="#000000" font-family="sans-serif" font-size="13" lengthAdjust="spacing" textLength="286.0317" x="897.1221" y="321.8247">existsByPartNumber(request.partNumber())</text></g><g class="message" data-entity-1="part4" data-entity-2="part5" id="msg4"><polygon fill="#181818" points="1695.9224,352.0234,1705.9224,356.0234,1695.9224,360.0234,1699.9224,356.0234" style="stroke:#181818;stroke-width:1;"/><line style="stroke:#181818;stroke-width:1;" x1="1228.8115" x2="1701.9224" y1="356.0234" y2="356.0234"/><text fill="#000000" font-family="sans-serif" font-size="13" font-weight="bold" lengthAdjust="spacing" textLength="9.0454" x="1235.8115" y="350.9575">4</text><text fill="#000000" font-family="sans-serif" font-size="13" lengthAdjust="spacing" textLength="447.0654" x="1248.8569" y="350.9575">SELECT COUNT(*) FROM maintenance_part WHERE part_number = ?</text></g><g class="message" data-entity-1="part5" data-entity-2="part4" id="msg5"><polygon fill="#181818" points="1239.8115,381.1563,1229.8115,385.1563,1239.8115,389.1563,1235.8115,385.1563" style="stroke:#181818;stroke-width:1;"/><line style="stroke:#181818;stroke-width:1;stroke-dasharray:2,2;" x1="1233.8115" x2="1711.9224" y1="385.1563" y2="385.1563"/><text fill="#000000" font-family="sans-serif" font-size="13" font-weight="bold" lengthAdjust="spacing" textLength="9.0454" x="1245.8115" y="380.0903">5</text><text fill="#000000" font-family="sans-serif" font-size="13" lengthAdjust="spacing" textLength="36.6768" x="1258.8569" y="380.0903">count</text></g><g class="message" data-entity-1="part4" data-entity-2="part3" id="msg6"><polygon fill="#181818" points="888.0767,410.2891,878.0767,414.2891,888.0767,418.2891,884.0767,414.2891" style="stroke:#181818;stroke-width:1;"/><line style="stroke:#181818;stroke-width:1;stroke-dasharray:2,2;" x1="882.0767" x2="1222.8115" y1="414.2891" y2="414.2891"/><text fill="#000000" font-family="sans-serif" font-size="13" font-weight="bold" lengthAdjust="spacing" textLength="9.0454" x="894.0767" y="409.2231">6</text><text fill="#000000" font-family="sans-serif" font-size="13" lengthAdjust="spacing" textLength="51.9746" x="907.1221" y="409.2231">boolean</text></g><path d="M10,429.2891 L74.4429,429.2891 L74.4429,436.4219 L64.4429,446.4219 L10,446.4219 L10,429.2891" fill="#EEEEEE" style="stroke:#000000;stroke-width:1.5;"/><rect fill="none" height="340.6641" style="stroke:#000000;stroke-width:1.5;" width="1749.3228" x="10" y="429.2891"/><text fill="#000000" font-family="sans-serif" font-size="13" font-weight="bold" lengthAdjust="spacing" textLength="19.4429" x="25" y="442.356">alt</text><text fill="#000000" font-family="sans-serif" font-size="11" font-weight="bold" lengthAdjust="spacing" textLength="178.6318" x="89.4429" y="441.4995">[part number already exists]</text><g class="message" data-entity-1="part3" data-entity-2="part2" id="msg7"><polygon fill="#181818" points="518.6636,463.5547,508.6636,467.5547,518.6636,471.5547,514.6636,467.5547" style="stroke:#181818;stroke-width:1;"/><line style="stroke:#181818;stroke-width:1;stroke-dasharray:2,2;" x1="512.6636" x2="866.0767" y1="467.5547" y2="467.5547"/><text fill="#000000" font-family="sans-serif" font-size="13" font-weight="bold" lengthAdjust="spacing" textLength="9.0454" x="524.6636" y="462.4888">7</text><text fill="#000000" font-family="sans-serif" font-size="13" lengthAdjust="spacing" textLength="310.2671" x="537.709" y="462.4888">throws MaintenancePartAlreadyExistsException</text></g><g class="message" data-entity-1="part2" data-entity-2="part1" id="msg8"><polygon fill="#181818" points="118.7075,507.8203,108.7075,511.8203,118.7075,515.8203,114.7075,511.8203" style="stroke:#181818;stroke-width:1;"/><line style="stroke:#181818;stroke-width:1;stroke-dasharray:2,2;" x1="112.7075" x2="496.6636" y1="511.8203" y2="511.8203"/><text fill="#000000" font-family="sans-serif" font-size="13" font-weight="bold" lengthAdjust="spacing" textLength="9.0454" x="124.7075" y="499.188">8</text><text fill="#000000" font-family="sans-serif" font-size="13" lengthAdjust="spacing" textLength="78.2603" x="137.7529" y="491.6216">409 Conflict</text><text fill="#000000" font-family="sans-serif" font-size="13" lengthAdjust="spacing" textLength="341.0659" x="137.7529" y="506.7544">{ message: "Maintenance part '...' already exists." }</text></g><line style="stroke:#000000;stroke-width:1;stroke-dasharray:2,2;" x1="10" x2="1759.3228" y1="520.8203" y2="520.8203"/><text fill="#000000" font-family="sans-serif" font-size="11" font-weight="bold" lengthAdjust="spacing" textLength="148.3228" x="15" y="531.0308">[part number is unique]</text><g class="message" data-entity-1="part3" data-entity-2="part4" id="msg9"><polygon fill="#181818" points="1206.8115,582.0234,1216.8115,586.0234,1206.8115,590.0234,1210.8115,586.0234" style="stroke:#181818;stroke-width:1;"/><line style="stroke:#181818;stroke-width:1;" x1="877.0767" x2="1212.8115" y1="586.0234" y2="586.0234"/><text fill="#000000" font-family="sans-serif" font-size="13" font-weight="bold" lengthAdjust="spacing" textLength="9.0454" x="884.0767" y="565.8247">9</text><text fill="#000000" font-family="sans-serif" font-size="13" lengthAdjust="spacing" textLength="309.6895" x="897.1221" y="550.6919">save(new MaintenancePart(partNumber, name,</text><text fill="#000000" font-family="sans-serif" font-size="13" lengthAdjust="spacing" textLength="175.354" x="905.3867" y="565.8247">description, stockQuantity,</text><text fill="#000000" font-family="sans-serif" font-size="13" lengthAdjust="spacing" textLength="217.9976" x="905.3867" y="580.9575">minimumThreshold, component))</text></g><g class="message" data-entity-1="part4" data-entity-2="part5" id="msg10"><polygon fill="#181818" points="1695.9224,611.1563,1705.9224,615.1563,1695.9224,619.1563,1699.9224,615.1563" style="stroke:#181818;stroke-width:1;"/><line style="stroke:#181818;stroke-width:1;" x1="1228.8115" x2="1701.9224" y1="615.1563" y2="615.1563"/><text fill="#000000" font-family="sans-serif" font-size="13" font-weight="bold" lengthAdjust="spacing" textLength="18.0908" x="1235.8115" y="610.0903">10</text><text fill="#000000" font-family="sans-serif" font-size="13" lengthAdjust="spacing" textLength="205.3213" x="1257.9023" y="610.0903">INSERT INTO maintenance_part</text></g><g class="message" data-entity-1="part5" data-entity-2="part4" id="msg11"><polygon fill="#181818" points="1239.8115,640.2891,1229.8115,644.2891,1239.8115,648.2891,1235.8115,644.2891" style="stroke:#181818;stroke-width:1;"/><line style="stroke:#181818;stroke-width:1;stroke-dasharray:2,2;" x1="1233.8115" x2="1711.9224" y1="644.2891" y2="644.2891"/><text fill="#000000" font-family="sans-serif" font-size="13" font-weight="bold" lengthAdjust="spacing" textLength="18.0908" x="1245.8115" y="639.2231">11</text><text fill="#000000" font-family="sans-serif" font-size="13" lengthAdjust="spacing" textLength="215.9663" x="1267.9023" y="639.2231">saved record (with generated ID)</text></g><g class="message" data-entity-1="part4" data-entity-2="part3" id="msg12"><polygon fill="#181818" points="888.0767,669.4219,878.0767,673.4219,888.0767,677.4219,884.0767,673.4219" style="stroke:#181818;stroke-width:1;"/><line style="stroke:#181818;stroke-width:1;stroke-dasharray:2,2;" x1="882.0767" x2="1222.8115" y1="673.4219" y2="673.4219"/><text fill="#000000" font-family="sans-serif" font-size="13" font-weight="bold" lengthAdjust="spacing" textLength="18.0908" x="894.0767" y="668.356">12</text><text fill="#000000" font-family="sans-serif" font-size="13" lengthAdjust="spacing" textLength="109.9668" x="916.1675" y="668.356">MaintenancePart</text></g><g class="message" data-entity-1="part3" data-entity-2="part2" id="msg13"><polygon fill="#181818" points="518.6636,713.6875,508.6636,717.6875,518.6636,721.6875,514.6636,717.6875" style="stroke:#181818;stroke-width:1;"/><line style="stroke:#181818;stroke-width:1;stroke-dasharray:2,2;" x1="512.6636" x2="871.0767" y1="717.6875" y2="717.6875"/><text fill="#000000" font-family="sans-serif" font-size="13" font-weight="bold" lengthAdjust="spacing" textLength="18.0908" x="524.6636" y="705.0552">13</text><text fill="#000000" font-family="sans-serif" font-size="13" lengthAdjust="spacing" textLength="172.9863" x="546.7544" y="697.4888">MaintenancePartResponse</text><text fill="#000000" font-family="sans-serif" font-size="13" lengthAdjust="spacing" textLength="204.3628" x="546.7544" y="712.6216">{ id, partNumber, description }</text></g><g class="message" data-entity-1="part2" data-entity-2="part1" id="msg14"><polygon fill="#181818" points="118.7075,757.9531,108.7075,761.9531,118.7075,765.9531,114.7075,761.9531" style="stroke:#181818;stroke-width:1;"/><line style="stroke:#181818;stroke-width:1;stroke-dasharray:2,2;" x1="112.7075" x2="496.6636" y1="761.9531" y2="761.9531"/><text fill="#000000" font-family="sans-serif" font-size="13" font-weight="bold" lengthAdjust="spacing" textLength="18.0908" x="124.7075" y="749.3208">14</text><text fill="#000000" font-family="sans-serif" font-size="13" lengthAdjust="spacing" textLength="80.6787" x="146.7983" y="741.7544">201 Created</text><text fill="#000000" font-family="sans-serif" font-size="13" lengthAdjust="spacing" textLength="343.8652" x="146.7983" y="756.8872">EntityModel&lt;MaintenancePartResponse&gt; with _links</text></g><?plantuml-src VLDRJzim57xFhpZg2-bKMZRjXMh0HfffI2jblMmlI9MR7AY5OsUs0rJJ_lkEdPHS2djgQf_p-NoNmmghP95jK0SiiKf3Ryguj2YPJ10MHOxwaHkbUy0CJ1T1phJb2S-PjAtII4chbH1OLaPMYtPjf95PR7JSqEtAOCGC-fPLz2QuAvrZhWod2NU-slqDKcRPXlgXDwc-_DtaCWYc2pW-zsF066vcYoMCMCv7MGqwSg-PM_a7tCUrrs00acKuW1HDedbkkP8NWri9OAnA7duKD1Ytkm5aNFAio9PRZMQhHEfh4fNbIgAqOsW9Kvt2NwSmVoGLIda2gUXJy_kj1NLNdW5y_ia4Jq59U5MnEVukqDWnLHut1Xy3WS56CFdWRnoDxbcBmnZEp-34dtV9DAuQb1oMB8I0y5LoI27g1oXJLuX1u9Kd1rOHwO_Fc1GMGrqD_rzg_LecYaH000JZxFP0t5XpkRjv8Rx77DPQXFq6XC-9xoQKoILXBEBlSRI4QBQwNeRl-l1rFfj28nThXmI_liNps0kyBjS3pk2YXgM84TXnFLcY2cc359iLvRDx4JPA2MIoMUE72vYm_Y6e7cA2r4bt5LdomKbGXzbkjNeoq17lIzaK-vxuEK4VNcekZQ1sseWnV3mv1LhLEy4JwwAVeJ7idgBIMdi_pT5mE3pg33FiKOfH66mDp0qKafCDrQmleXZsYA74f-wmuS76kVrfBDsWit3k-c3dwdIIuG1jLG5QfbzTB-BvadwMimElcxta6a3RMKSY1Os9qYc4JznkuHubQYfFuMhYdcxRldzwRto7VBk-Z43NuuFDC4JKe7EC4_6cV0tLo9iMDgrFr_yF9--hvKjlPUp5dQeKnQStNZm7JtWjk7mmRhs3PduTzZy0?></g></svg>