<?plantuml 1.2026.1?><svg xmlns="http://www.w3.org/2000/svg" xmlns:xlink="http://www.w3.org/1999/xlink" contentStyleType="text/css" data-diagram-type="SEQUENCE" height="619px" preserveAspectRatio="none" style="width:1475px;height:619px;background:#FFFFFF;" version="1.1" viewBox="0 0 1475 619" width="1475px" zoomAndPan="magnify"><defs/><g><g><title>MaintenanceController</title><rect fill="#FFFFFF" height="408.5313" style="stroke:#181818;stroke-width:1;" width="10" x="361.0381" y="112.4297"/></g><g><title>CreateMaintenancePartUseCase</title><rect fill="#FFFFFF" height="350.2656" style="stroke:#181818;stroke-width:1;" width="10" x="577.5381" y="141.5625"/></g><g><title>MaintenancePartRepository</title><rect fill="#FFFFFF" height="87.3984" style="stroke:#181818;stroke-width:1;" width="10" x="928.0776" y="170.6953"/></g><g><title>MaintenancePartRepository</title><rect fill="#FFFFFF" height="87.3984" style="stroke:#181818;stroke-width:1;" width="10" x="928.0776" y="368.2969"/></g><g><title>Database</title><rect fill="#FFFFFF" height="29.1328" style="stroke:#181818;stroke-width:1;" width="10" x="1417.1885" y="199.8281"/></g><g><title>Database</title><rect fill="#FFFFFF" height="29.1328" style="stroke:#181818;stroke-width:1;" width="10" x="1417.1885" y="397.4297"/></g><rect fill="none" height="190.6016" style="stroke:#000000;stroke-width:1.5;" width="1015.8848" x="452.7041" y="273.0938"/><g class="participant-lifeline" data-entity-uid="part1" data-qualified-name="MS" id="part1-lifeline"><g><title>Maintenance Supervisor</title><rect fill="#000000" fill-opacity="0.00000" height="457.6641" width="8" x="88.7075" y="81.2969"/><line style="stroke:#181818;stroke-width:0.5;stroke-dasharray:5,5;" x1="92" x2="92" y1="81.2969" y2="538.9609"/></g></g><g class="participant-lifeline" data-entity-uid="part2" data-qualified-name="Ctrl" id="part2-lifeline"><g><title>MaintenanceController</title><rect fill="#000000" fill-opacity="0.00000" height="457.6641" width="8" x="362.0381" y="81.2969"/><line style="stroke:#181818;stroke-width:0.5;stroke-dasharray:5,5;" x1="365.3721" x2="365.3721" y1="81.2969" y2="538.9609"/></g></g><g class="participant-lifeline" data-entity-uid="part3" data-qualified-name="UC" id="part3-lifeline"><g><title>CreateMaintenancePartUseCase</title><rect fill="#000000" fill-opacity="0.00000" height="457.6641" width="8" x="578.5381" y="81.2969"/><line style="stroke:#181818;stroke-width:0.5;stroke-dasharray:5,5;" x1="581.7041" x2="581.7041" y1="81.2969" y2="538.9609"/></g></g><g class="participant-lifeline" data-entity-uid="part4" data-qualified-name="Repo" id="part4-lifeline"><g><title>MaintenancePartRepository</title><rect fill="#000000" fill-opacity="0.00000" height="457.6641" width="8" x="929.0776" y="81.2969"/><line style="stroke:#181818;stroke-width:0.5;stroke-dasharray:5,5;" x1="932.3286" x2="932.3286" y1="81.2969" y2="538.9609"/></g></g><g class="participant-lifeline" data-entity-uid="part5" data-qualified-name="DB" id="part5-lifeline"><g><title>Database</title><rect fill="#000000" fill-opacity="0.00000" height="457.6641" width="8" x="1418.1885" y="81.2969"/><line style="stroke:#181818;stroke-width:0.5;stroke-dasharray:5,5;" x1="1421.7881" x2="1421.7881" y1="81.2969" y2="538.9609"/></g></g><g class="participant participant-head" data-entity-uid="part1" data-qualified-name="MS" id="part1-head"><text fill="#000000" font-family="sans-serif" font-size="14" lengthAdjust="spacing" textLength="169.415" x="5" y="77.9951">Maintenance Supervisor</text><ellipse cx="92.7075" cy="13.5" fill="#E2E2F0" rx="8" ry="8" style="stroke:#181818;stroke-width:0.5;"/><path d="M92.7075,21.5 L92.7075,48.5 M79.7075,29.5 L105.7075,29.5 M92.7075,48.5 L79.7075,63.5 M92.7075,48.5 L105.7075,63.5" fill="none" style="stroke:#181818;stroke-width:0.5;"/></g><g class="participant participant-tail" data-entity-uid="part1" data-qualified-name="MS" id="part1-tail"><text fill="#000000" font-family="sans-serif" font-size="14" lengthAdjust="spacing" textLength="169.415" x="5" y="550.9561">Maintenance Supervisor</text><ellipse cx="92.7075" cy="562.7578" fill="#E2E2F0" rx="8" ry="8" style="stroke:#181818;stroke-width:0.5;"/><path d="M92.7075,570.7578 L92.7075,597.7578 M79.7075,578.7578 L105.7075,578.7578 M92.7075,597.7578 L79.7075,612.7578 M92.7075,597.7578 L105.7075,612.7578" fill="none" style="stroke:#181818;stroke-width:0.5;"/></g><g class="participant participant-head" data-entity-uid="part2" data-qualified-name="Ctrl" id="part2-head"><rect fill="#E2E2F0" height="30.2969" rx="2.5" ry="2.5" style="stroke:#181818;stroke-width:0.5;" width="173.332" x="279.3721" y="50"/><text fill="#000000" font-family="sans-serif" font-size="14" lengthAdjust="spacing" textLength="159.332" x="286.3721" y="69.9951">MaintenanceController</text></g><g class="participant participant-tail" data-entity-uid="part2" data-qualified-name="Ctrl" id="part2-tail"><rect fill="#E2E2F0" height="30.2969" rx="2.5" ry="2.5" style="stroke:#181818;stroke-width:0.5;" width="173.332" x="279.3721" y="537.9609"/><text fill="#000000" font-family="sans-serif" font-size="14" lengthAdjust="spacing" textLength="159.332" x="286.3721" y="557.9561">MaintenanceController</text></g><g class="participant participant-head" data-entity-uid="part3" data-qualified-name="UC" id="part3-head"><rect fill="#E2E2F0" height="30.2969" rx="2.5" ry="2.5" style="stroke:#181818;stroke-width:0.5;" width="239.668" x="462.7041" y="50"/><text fill="#000000" font-family="sans-serif" font-size="14" lengthAdjust="spacing" textLength="225.668" x="469.7041" y="69.9951">CreateMaintenancePartUseCase</text></g><g class="participant participant-tail" data-entity-uid="part3" data-qualified-name="UC" id="part3-tail"><rect fill="#E2E2F0" height="30.2969" rx="2.5" ry="2.5" style="stroke:#181818;stroke-width:0.5;" width="239.668" x="462.7041" y="537.9609"/><text fill="#000000" font-family="sans-serif" font-size="14" lengthAdjust="spacing" textLength="225.668" x="469.7041" y="557.9561">CreateMaintenancePartUseCase</text></g><g class="participant participant-head" data-entity-uid="part4" data-qualified-name="Repo" id="part4-head"><rect fill="#E2E2F0" height="30.2969" rx="2.5" ry="2.5" style="stroke:#181818;stroke-width:0.5;" width="207.498" x="829.3286" y="50"/><text fill="#000000" font-family="sans-serif" font-size="14" lengthAdjust="spacing" textLength="193.498" x="836.3286" y="69.9951">MaintenancePartRepository</text></g><g class="participant participant-tail" data-entity-uid="part4" data-qualified-name="Repo" id="part4-tail"><rect fill="#E2E2F0" height="30.2969" rx="2.5" ry="2.5" style="stroke:#181818;stroke-width:0.5;" width="207.498" x="829.3286" y="537.9609"/><text fill="#000000" font-family="sans-serif" font-size="14" lengthAdjust="spacing" textLength="193.498" x="836.3286" y="557.9561">MaintenancePartRepository</text></g><g class="participant participant-head" data-entity-uid="part5" data-qualified-name="DB" id="part5-head"><text fill="#000000" font-family="sans-serif" font-size="14" lengthAdjust="spacing" textLength="66.8008" x="1385.7881" y="77.9951">Database</text><path d="M1404.1885,29 C1404.1885,19 1422.1885,19 1422.1885,19 C1422.1885,19 1440.1885,19 1440.1885,29 L1440.1885,55 C1440.1885,65 1422.1885,65 1422.1885,65 C1422.1885,65 1404.1885,65 1404.1885,55 L1404.1885,29" fill="#E2E2F0" style="stroke:#181818;stroke-width:0.5;"/><path d="M1404.1885,29 C1404.1885,39 1422.1885,39 1422.1885,39 C1422.1885,39 1440.1885,39 1440.1885,29" fill="none" style="stroke:#181818;stroke-width:0.5;"/></g><g class="participant participant-tail" data-entity-uid="part5" data-qualified-name="DB" id="part5-tail"><text fill="#000000" font-family="sans-serif" font-size="14" lengthAdjust="spacing" textLength="66.8008" x="1385.7881" y="550.9561">Database</text><path d="M1404.1885,564.2578 C1404.1885,554.2578 1422.1885,554.2578 1422.1885,554.2578 C1422.1885,554.2578 1440.1885,554.2578 1440.1885,564.2578 L1440.1885,590.2578 C1440.1885,600.2578 1422.1885,600.2578 1422.1885,600.2578 C1422.1885,600.2578 1404.1885,600.2578 1404.1885,590.2578 L1404.1885,564.2578" fill="#E2E2F0" style="stroke:#181818;stroke-width:0.5;"/><path d="M1404.1885,564.2578 C1404.1885,574.2578 1422.1885,574.2578 1422.1885,574.2578 C1422.1885,574.2578 1440.1885,574.2578 1440.1885,564.2578" fill="none" style="stroke:#181818;stroke-width:0.5;"/></g><g><title>MaintenanceController</title><rect fill="#FFFFFF" height="408.5313" style="stroke:#181818;stroke-width:1;" width="10" x="361.0381" y="112.4297"/></g><g><title>CreateMaintenancePartUseCase</title><rect fill="#FFFFFF" height="350.2656" style="stroke:#181818;stroke-width:1;" width="10" x="577.5381" y="141.5625"/></g><g><title>MaintenancePartRepository</title><rect fill="#FFFFFF" height="87.3984" style="stroke:#181818;stroke-width:1;" width="10" x="928.0776" y="170.6953"/></g><g><title>MaintenancePartRepository</title><rect fill="#FFFFFF" height="87.3984" style="stroke:#181818;stroke-width:1;" width="10" x="928.0776" y="368.2969"/></g><g><title>Database</title><rect fill="#FFFFFF" height="29.1328" style="stroke:#181818;stroke-width:1;" width="10" x="1417.1885" y="199.8281"/></g><g><title>Database</title><rect fill="#FFFFFF" height="29.1328" style="stroke:#181818;stroke-width:1;" width="10" x="1417.1885" y="397.4297"/></g><g class="message" data-entity-1="part1" data-entity-2="part2" id="msg1"><polygon fill="#181818" points="349.0381,108.4297,359.0381,112.4297,349.0381,116.4297,353.0381,112.4297" style="stroke:#181818;stroke-width:1;"/><line style="stroke:#181818;stroke-width:1;" x1="92.7075" x2="355.0381" y1="112.4297" y2="112.4297"/><text fill="#000000" font-family="sans-serif" font-size="13" font-weight="bold" lengthAdjust="spacing" textLength="9.0454" x="99.7075" y="107.3638">1</text><text fill="#000000" font-family="sans-serif" font-size="13" lengthAdjust="spacing" textLength="236.2852" x="112.7529" y="107.3638">POST /api/maintenance/parts (JSON)</text></g><g class="message" data-entity-1="part2" data-entity-2="part3" id="msg2"><polygon fill="#181818" points="565.5381,137.5625,575.5381,141.5625,565.5381,145.5625,569.5381,141.5625" style="stroke:#181818;stroke-width:1;"/><line style="stroke:#181818;stroke-width:1;" x1="371.0381" x2="571.5381" y1="141.5625" y2="141.5625"/><text fill="#000000" font-family="sans-serif" font-size="13" font-weight="bold" lengthAdjust="spacing" textLength="9.0454" x="378.0381" y="136.4966">2</text><text fill="#000000" font-family="sans-serif" font-size="13" lengthAdjust="spacing" textLength="112.0171" x="391.0835" y="136.4966">execute(request)</text></g><g class="message" data-entity-1="part3" data-entity-2="part4" id="msg3"><polygon fill="#181818" points="916.0776,166.6953,926.0776,170.6953,916.0776,174.6953,920.0776,170.6953" style="stroke:#181818;stroke-width:1;"/><line style="stroke:#181818;stroke-width:1;" x1="587.5381" x2="922.0776" y1="170.6953" y2="170.6953"/><text fill="#000000" font-family="sans-serif" font-size="13" font-weight="bold" lengthAdjust="spacing" textLength="9.0454" x="594.5381" y="165.6294">3</text><text fill="#000000" font-family="sans-serif" font-size="13" lengthAdjust="spacing" textLength="275.8882" x="607.5835" y="165.6294">existsByPartNumber(request.partNumber)</text></g><g class="message" data-entity-1="part4" data-entity-2="part5" id="msg4"><polygon fill="#181818" points="1405.1885,195.8281,1415.1885,199.8281,1405.1885,203.8281,1409.1885,199.8281" style="stroke:#181818;stroke-width:1;"/><line style="stroke:#181818;stroke-width:1;" x1="938.0776" x2="1411.1885" y1="199.8281" y2="199.8281"/><text fill="#000000" font-family="sans-serif" font-size="13" font-weight="bold" lengthAdjust="spacing" textLength="9.0454" x="945.0776" y="194.7622">4</text><text fill="#000000" font-family="sans-serif" font-size="13" lengthAdjust="spacing" textLength="447.0654" x="958.123" y="194.7622">SELECT COUNT(*) FROM maintenance_part WHERE part_number = ?</text></g><g class="message" data-entity-1="part5" data-entity-2="part4" id="msg5"><polygon fill="#181818" points="949.0776,224.9609,939.0776,228.9609,949.0776,232.9609,945.0776,228.9609" style="stroke:#181818;stroke-width:1;"/><line style="stroke:#181818;stroke-width:1;stroke-dasharray:2,2;" x1="943.0776" x2="1421.1885" y1="228.9609" y2="228.9609"/><text fill="#000000" font-family="sans-serif" font-size="13" font-weight="bold" lengthAdjust="spacing" textLength="9.0454" x="955.0776" y="223.895">5</text><text fill="#000000" font-family="sans-serif" font-size="13" lengthAdjust="spacing" textLength="36.6768" x="968.123" y="223.895">count</text></g><g class="message" data-entity-1="part4" data-entity-2="part3" id="msg6"><polygon fill="#181818" points="598.5381,254.0938,588.5381,258.0938,598.5381,262.0938,594.5381,258.0938" style="stroke:#181818;stroke-width:1;"/><line style="stroke:#181818;stroke-width:1;stroke-dasharray:2,2;" x1="592.5381" x2="932.0776" y1="258.0938" y2="258.0938"/><text fill="#000000" font-family="sans-serif" font-size="13" font-weight="bold" lengthAdjust="spacing" textLength="9.0454" x="604.5381" y="253.0278">6</text><text fill="#000000" font-family="sans-serif" font-size="13" lengthAdjust="spacing" textLength="61.9849" x="617.5835" y="253.0278">true/false</text></g><path d="M452.7041,273.0938 L517.147,273.0938 L517.147,280.2266 L507.147,290.2266 L452.7041,290.2266 L452.7041,273.0938" fill="#EEEEEE" style="stroke:#000000;stroke-width:1.5;"/><rect fill="none" height="190.6016" style="stroke:#000000;stroke-width:1.5;" width="1015.8848" x="452.7041" y="273.0938"/><text fill="#000000" font-family="sans-serif" font-size="13" font-weight="bold" lengthAdjust="spacing" textLength="19.4429" x="467.7041" y="286.1606">alt</text><text fill="#000000" font-family="sans-serif" font-size="11" font-weight="bold" lengthAdjust="spacing" textLength="178.6318" x="532.147" y="285.3042">[part number already exists]</text><g class="message" data-entity-1="part3" data-entity-2="part3" id="msg7"><line style="stroke:#181818;stroke-width:1;" x1="587.5381" x2="629.5381" y1="311.3594" y2="311.3594"/><line style="stroke:#181818;stroke-width:1;" x1="629.5381" x2="629.5381" y1="311.3594" y2="324.3594"/><line style="stroke:#181818;stroke-width:1;" x1="588.5381" x2="629.5381" y1="324.3594" y2="324.3594"/><polygon fill="#181818" points="598.5381,320.3594,588.5381,324.3594,598.5381,328.3594,594.5381,324.3594" style="stroke:#181818;stroke-width:1;"/><text fill="#000000" font-family="sans-serif" font-size="13" font-weight="bold" lengthAdjust="spacing" textLength="9.0454" x="594.5381" y="306.2935">7</text><text fill="#000000" font-family="sans-serif" font-size="13" lengthAdjust="spacing" textLength="303.4941" x="607.5835" y="306.2935">throw MaintenancePartAlreadyExistsException</text></g><line style="stroke:#000000;stroke-width:1;stroke-dasharray:2,2;" x1="452.7041" x2="1468.5889" y1="333.3594" y2="333.3594"/><text fill="#000000" font-family="sans-serif" font-size="11" font-weight="bold" lengthAdjust="spacing" textLength="148.3228" x="457.7041" y="343.5698">[part number is unique]</text><g class="message" data-entity-1="part3" data-entity-2="part4" id="msg8"><polygon fill="#181818" points="916.0776,364.2969,926.0776,368.2969,916.0776,372.2969,920.0776,368.2969" style="stroke:#181818;stroke-width:1;"/><line style="stroke:#181818;stroke-width:1;" x1="587.5381" x2="922.0776" y1="368.2969" y2="368.2969"/><text fill="#000000" font-family="sans-serif" font-size="13" font-weight="bold" lengthAdjust="spacing" textLength="9.0454" x="594.5381" y="363.231">8</text><text fill="#000000" font-family="sans-serif" font-size="13" lengthAdjust="spacing" textLength="67.2344" x="607.5835" y="363.231">save(part)</text></g><g class="message" data-entity-1="part4" data-entity-2="part5" id="msg9"><polygon fill="#181818" points="1405.1885,393.4297,1415.1885,397.4297,1405.1885,401.4297,1409.1885,397.4297" style="stroke:#181818;stroke-width:1;"/><line style="stroke:#181818;stroke-width:1;" x1="938.0776" x2="1411.1885" y1="397.4297" y2="397.4297"/><text fill="#000000" font-family="sans-serif" font-size="13" font-weight="bold" lengthAdjust="spacing" textLength="9.0454" x="945.0776" y="392.3638">9</text><text fill="#000000" font-family="sans-serif" font-size="13" lengthAdjust="spacing" textLength="205.3213" x="958.123" y="392.3638">INSERT INTO maintenance_part</text></g><g class="message" data-entity-1="part5" data-entity-2="part4" id="msg10"><polygon fill="#181818" points="949.0776,422.5625,939.0776,426.5625,949.0776,430.5625,945.0776,426.5625" style="stroke:#181818;stroke-width:1;"/><line style="stroke:#181818;stroke-width:1;stroke-dasharray:2,2;" x1="943.0776" x2="1421.1885" y1="426.5625" y2="426.5625"/><text fill="#000000" font-family="sans-serif" font-size="13" font-weight="bold" lengthAdjust="spacing" textLength="18.0908" x="955.0776" y="421.4966">10</text><text fill="#000000" font-family="sans-serif" font-size="13" lengthAdjust="spacing" textLength="144.6885" x="977.1685" y="421.4966">saved record (with ID)</text></g><g class="message" data-entity-1="part4" data-entity-2="part3" id="msg11"><polygon fill="#181818" points="598.5381,451.6953,588.5381,455.6953,598.5381,459.6953,594.5381,455.6953" style="stroke:#181818;stroke-width:1;"/><line style="stroke:#181818;stroke-width:1;stroke-dasharray:2,2;" x1="592.5381" x2="932.0776" y1="455.6953" y2="455.6953"/><text fill="#000000" font-family="sans-serif" font-size="13" font-weight="bold" lengthAdjust="spacing" textLength="18.0908" x="604.5381" y="450.6294">11</text><text fill="#000000" font-family="sans-serif" font-size="13" lengthAdjust="spacing" textLength="64.9302" x="626.6289" y="450.6294">savedPart</text></g><g class="message" data-entity-1="part3" data-entity-2="part2" id="msg12"><polygon fill="#181818" points="382.0381,487.8281,372.0381,491.8281,382.0381,495.8281,378.0381,491.8281" style="stroke:#181818;stroke-width:1;"/><line style="stroke:#181818;stroke-width:1;stroke-dasharray:2,2;" x1="376.0381" x2="581.5381" y1="491.8281" y2="491.8281"/><text fill="#000000" font-family="sans-serif" font-size="13" font-weight="bold" lengthAdjust="spacing" textLength="18.0908" x="388.0381" y="486.7622">12</text><text fill="#000000" font-family="sans-serif" font-size="13" lengthAdjust="spacing" textLength="109.9668" x="410.1289" y="486.7622">MaintenancePart</text></g><g class="message" data-entity-1="part2" data-entity-2="part1" id="msg13"><polygon fill="#181818" points="103.7075,516.9609,93.7075,520.9609,103.7075,524.9609,99.7075,520.9609" style="stroke:#181818;stroke-width:1;"/><line style="stroke:#181818;stroke-width:1;stroke-dasharray:2,2;" x1="97.7075" x2="365.0381" y1="520.9609" y2="520.9609"/><text fill="#000000" font-family="sans-serif" font-size="13" font-weight="bold" lengthAdjust="spacing" textLength="18.0908" x="109.7075" y="515.895">13</text><text fill="#000000" font-family="sans-serif" font-size="13" lengthAdjust="spacing" textLength="126.9976" x="131.7983" y="515.895">201 Created (JSON)</text></g><?plantuml-src TLF1RgCm4Btp5QESo4fjsZrMsbqrXAfTRK8KY7giN9YgbgXDxI5j_dx7TbXCLkK2jjzxy-Pv43rfrRyzeqb4JTh0R2sa8bH2rGXbtw4vIAlD38I5TPbqmf2iPISKJQ2PLcHqss90PcJQAJOpA0WZnfPFznOpOT5JzjcNuWwwmqvRoGwF7ksMIID8F3CVPglJbpzRBPDr2HS_lGkuWMrHLh0GdLoyZPeBLyn2-hiiDdFNkpomls3SyvY_pvYDdrZtXAd1znujHLXsp0Z6EJCUAItPvT7PtVXC1z9bzsyhuliUF9SrLajMAFC_ULP1LkmtLVfj3dUxOWsHwIUd0u_t-Iu7z_aKhWv-mAzHbjjdiOlHLwrxHKc3CIAK7Neaq-FYHRGMOvZt9rhofU1KIhHyaStnr6m2_8GGWj2hqHzmTdMtWP9xHlvPOqTIgmIvt4HQMkYLvC0YrLCBLXmmTTYvFvjQT3kJ61ysPRwh-5KL_wKtvNCIRZtDonLhm62jJGFfXwHNU5Y5mjCGny93_vww7SgSPucgyHCpZkPPKd7wF5rX3XdDutm3tw-k8Vn5pJ2s4TnX_m80?></g></svg>