<svg xmlns="http://www.w3.org/2000/svg" xmlns:xlink="http://www.w3.org/1999/xlink" contentStyleType="text/css" data-diagram-type="SEQUENCE" height="641px" preserveAspectRatio="none" style="width:1362px;height:641px;background:#FFFFFF;" version="1.1" viewBox="0 0 1362 641" width="1362px" zoomAndPan="magnify"><?plantuml 1.2026.4?><defs/><g><g><title>MaintenanceController</title><rect fill="#FFFFFF" height="425.4063" style="stroke:#181818;stroke-width:1;" width="10" x="331.1865" y="114.9609"/></g><g><title>CreateMaintenancePartUseCase</title><rect fill="#FFFFFF" height="364.7031" style="stroke:#181818;stroke-width:1;" width="10" x="528.334" y="145.3125"/></g><g><title>MaintenancePartRepository</title><rect fill="#FFFFFF" height="91.0547" style="stroke:#181818;stroke-width:1;" width="10" x="843.0854" y="175.6641"/></g><g><title>MaintenancePartRepository</title><rect fill="#FFFFFF" height="91.0547" style="stroke:#181818;stroke-width:1;" width="10" x="843.0854" y="381.6094"/></g><g><title>Database</title><rect fill="#FFFFFF" height="30.3516" style="stroke:#181818;stroke-width:1;" width="10" x="1298.3633" y="206.0156"/></g><g><title>Database</title><rect fill="#FFFFFF" height="30.3516" style="stroke:#181818;stroke-width:1;" width="10" x="1298.3633" y="411.9609"/></g><rect fill="none" height="198.9453" style="stroke:#000000;stroke-width:1.5;" width="932.7148" x="413.6138" y="281.7188"/><g class="participant-lifeline" data-entity-uid="part1" data-qualified-name="MS" data-source-line="2" id="part1-lifeline"><g><title>Maintenance Supervisor</title><rect fill="#000000" fill-opacity="0.00000" height="475.7578" width="8" x="79.4858" y="82.6094"/><line style="stroke:#181818;stroke-width:0.5;stroke-dasharray:5,5;" x1="83" x2="83" y1="82.6094" y2="558.3672"/></g></g><g class="participant-lifeline" data-entity-uid="part2" data-qualified-name="Ctrl" data-source-line="3" id="part2-lifeline"><g><title>MaintenanceController</title><rect fill="#000000" fill-opacity="0.00000" height="475.7578" width="8" x="332.1865" y="82.6094"/><line style="stroke:#181818;stroke-width:0.5;stroke-dasharray:5,5;" x1="335.7593" x2="335.7593" y1="82.6094" y2="558.3672"/></g></g><g class="participant-lifeline" data-entity-uid="part3" data-qualified-name="UC" data-source-line="4" id="part3-lifeline"><g><title>CreateMaintenancePartUseCase</title><rect fill="#000000" fill-opacity="0.00000" height="475.7578" width="8" x="529.334" y="82.6094"/><line style="stroke:#181818;stroke-width:0.5;stroke-dasharray:5,5;" x1="532.6138" x2="532.6138" y1="82.6094" y2="558.3672"/></g></g><g class="participant-lifeline" data-entity-uid="part4" data-qualified-name="Repo" data-source-line="5" id="part4-lifeline"><g><title>MaintenancePartRepository</title><rect fill="#000000" fill-opacity="0.00000" height="475.7578" width="8" x="844.0854" y="82.6094"/><line style="stroke:#181818;stroke-width:0.5;stroke-dasharray:5,5;" x1="847.7065" x2="847.7065" y1="82.6094" y2="558.3672"/></g></g><g class="participant-lifeline" data-entity-uid="part5" data-qualified-name="DB" data-source-line="6" id="part5-lifeline"><g><title>Database</title><rect fill="#000000" fill-opacity="0.00000" height="475.7578" width="8" x="1299.3633" y="82.6094"/><line style="stroke:#181818;stroke-width:0.5;stroke-dasharray:5,5;" x1="1302.3979" x2="1302.3979" y1="82.6094" y2="558.3672"/></g></g><g class="participant participant-head" data-entity-uid="part1" data-qualified-name="MS" data-source-line="2" id="part1-head"><text fill="#000000" font-family="sans-serif" font-size="14" lengthAdjust="spacing" textLength="150.9717" x="5" y="79.5332">Maintenance Supervisor</text><ellipse cx="83.4858" cy="13.5" fill="#E2E2F0" rx="8" ry="8" style="stroke:#181818;stroke-width:0.5;"/><path d="M83.4858,21.5 L83.4858,48.5 M70.4858,29.5 L96.4858,29.5 M83.4858,48.5 L70.4858,63.5 M83.4858,48.5 L96.4858,63.5" fill="none" style="stroke:#181818;stroke-width:0.5;"/></g><g class="participant participant-tail" data-entity-uid="part1" data-qualified-name="MS" data-source-line="2" id="part1-tail"><text fill="#000000" font-family="sans-serif" font-size="14" lengthAdjust="spacing" textLength="150.9717" x="5" y="571.9004">Maintenance Supervisor</text><ellipse cx="83.4858" cy="583.4766" fill="#E2E2F0" rx="8" ry="8" style="stroke:#181818;stroke-width:0.5;"/><path d="M83.4858,591.4766 L83.4858,618.4766 M70.4858,599.4766 L96.4858,599.4766 M83.4858,618.4766 L70.4858,633.4766 M83.4858,618.4766 L96.4858,633.4766" fill="none" style="stroke:#181818;stroke-width:0.5;"/></g><g class="participant participant-head" data-entity-uid="part2" data-qualified-name="Ctrl" data-source-line="3" id="part2-head"><rect fill="#E2E2F0" height="31.6094" rx="2.5" ry="2.5" style="stroke:#181818;stroke-width:0.5;" width="154.8545" x="258.7593" y="50"/><text fill="#000000" font-family="sans-serif" font-size="14" lengthAdjust="spacing" textLength="140.8545" x="265.7593" y="71.5332">MaintenanceController</text></g><g class="participant participant-tail" data-entity-uid="part2" data-qualified-name="Ctrl" data-source-line="3" id="part2-tail"><rect fill="#E2E2F0" height="31.6094" rx="2.5" ry="2.5" style="stroke:#181818;stroke-width:0.5;" width="154.8545" x="258.7593" y="557.3672"/><text fill="#000000" font-family="sans-serif" font-size="14" lengthAdjust="spacing" textLength="140.8545" x="265.7593" y="578.9004">MaintenanceController</text></g><g class="participant participant-head" data-entity-uid="part3" data-qualified-name="UC" data-source-line="4" id="part3-head"><rect fill="#E2E2F0" height="31.6094" rx="2.5" ry="2.5" style="stroke:#181818;stroke-width:0.5;" width="219.4404" x="423.6138" y="50"/><text fill="#000000" font-family="sans-serif" font-size="14" lengthAdjust="spacing" textLength="205.4404" x="430.6138" y="71.5332">CreateMaintenancePartUseCase</text></g><g class="participant participant-tail" data-entity-uid="part3" data-qualified-name="UC" data-source-line="4" id="part3-tail"><rect fill="#E2E2F0" height="31.6094" rx="2.5" ry="2.5" style="stroke:#181818;stroke-width:0.5;" width="219.4404" x="423.6138" y="557.3672"/><text fill="#000000" font-family="sans-serif" font-size="14" lengthAdjust="spacing" textLength="205.4404" x="430.6138" y="578.9004">CreateMaintenancePartUseCase</text></g><g class="participant participant-head" data-entity-uid="part4" data-qualified-name="Repo" data-source-line="5" id="part4-head"><rect fill="#E2E2F0" height="31.6094" rx="2.5" ry="2.5" style="stroke:#181818;stroke-width:0.5;" width="186.7578" x="754.7065" y="50"/><text fill="#000000" font-family="sans-serif" font-size="14" lengthAdjust="spacing" textLength="172.7578" x="761.7065" y="71.5332">MaintenancePartRepository</text></g><g class="participant participant-tail" data-entity-uid="part4" data-qualified-name="Repo" data-source-line="5" id="part4-tail"><rect fill="#E2E2F0" height="31.6094" rx="2.5" ry="2.5" style="stroke:#181818;stroke-width:0.5;" width="186.7578" x="754.7065" y="557.3672"/><text fill="#000000" font-family="sans-serif" font-size="14" lengthAdjust="spacing" textLength="172.7578" x="761.7065" y="578.9004">MaintenancePartRepository</text></g><g class="participant participant-head" data-entity-uid="part5" data-qualified-name="DB" data-source-line="6" id="part5-head"><text fill="#000000" font-family="sans-serif" font-size="14" lengthAdjust="spacing" textLength="59.9307" x="1270.3979" y="79.5332">Database</text><path d="M1285.3633,29 C1285.3633,19 1303.3633,19 1303.3633,19 C1303.3633,19 1321.3633,19 1321.3633,29 L1321.3633,55 C1321.3633,65 1303.3633,65 1303.3633,65 C1303.3633,65 1285.3633,65 1285.3633,55 L1285.3633,29" fill="#E2E2F0" style="stroke:#181818;stroke-width:0.5;"/><path d="M1285.3633,29 C1285.3633,39 1303.3633,39 1303.3633,39 C1303.3633,39 1321.3633,39 1321.3633,29" fill="none" style="stroke:#181818;stroke-width:0.5;"/></g><g class="participant participant-tail" data-entity-uid="part5" data-qualified-name="DB" data-source-line="6" id="part5-tail"><text fill="#000000" font-family="sans-serif" font-size="14" lengthAdjust="spacing" textLength="59.9307" x="1270.3979" y="571.9004">Database</text><path d="M1285.3633,584.9766 C1285.3633,574.9766 1303.3633,574.9766 1303.3633,574.9766 C1303.3633,574.9766 1321.3633,574.9766 1321.3633,584.9766 L1321.3633,610.9766 C1321.3633,620.9766 1303.3633,620.9766 1303.3633,620.9766 C1303.3633,620.9766 1285.3633,620.9766 1285.3633,610.9766 L1285.3633,584.9766" fill="#E2E2F0" style="stroke:#181818;stroke-width:0.5;"/><path d="M1285.3633,584.9766 C1285.3633,594.9766 1303.3633,594.9766 1303.3633,594.9766 C1303.3633,594.9766 1321.3633,594.9766 1321.3633,584.9766" fill="none" style="stroke:#181818;stroke-width:0.5;"/></g><g><title>MaintenanceController</title><rect fill="#FFFFFF" height="425.4063" style="stroke:#181818;stroke-width:1;" width="10" x="331.1865" y="114.9609"/></g><g><title>CreateMaintenancePartUseCase</title><rect fill="#FFFFFF" height="364.7031" style="stroke:#181818;stroke-width:1;" width="10" x="528.334" y="145.3125"/></g><g><title>MaintenancePartRepository</title><rect fill="#FFFFFF" height="91.0547" style="stroke:#181818;stroke-width:1;" width="10" x="843.0854" y="175.6641"/></g><g><title>MaintenancePartRepository</title><rect fill="#FFFFFF" height="91.0547" style="stroke:#181818;stroke-width:1;" width="10" x="843.0854" y="381.6094"/></g><g><title>Database</title><rect fill="#FFFFFF" height="30.3516" style="stroke:#181818;stroke-width:1;" width="10" x="1298.3633" y="206.0156"/></g><g><title>Database</title><rect fill="#FFFFFF" height="30.3516" style="stroke:#181818;stroke-width:1;" width="10" x="1298.3633" y="411.9609"/></g><g class="message" data-entity-1="part1" data-entity-2="part2" data-source-line="7" id="msg1"><polygon fill="#181818" points="319.1865,110.9609,329.1865,114.9609,319.1865,118.9609,323.1865,114.9609" style="stroke:#181818;stroke-width:1;stroke-linejoin:miter;stroke-miterlimit:10;"/><line style="stroke:#181818;stroke-width:1;" x1="83.4858" x2="325.1865" y1="114.9609" y2="114.9609"/><text fill="#000000" font-family="sans-serif" font-size="13" font-weight="700" lengthAdjust="spacing" textLength="7.23" x="90.4858" y="110.1045">1</text><text fill="#000000" font-family="sans-serif" font-size="13" lengthAdjust="spacing" textLength="217.4707" x="101.7158" y="110.1045">POST /api/maintenance/parts (JSON)</text></g><g class="message" data-entity-1="part2" data-entity-2="part3" data-source-line="9" id="msg2"><polygon fill="#181818" points="516.334,141.3125,526.334,145.3125,516.334,149.3125,520.334,145.3125" style="stroke:#181818;stroke-width:1;stroke-linejoin:miter;stroke-miterlimit:10;"/><line style="stroke:#181818;stroke-width:1;" x1="341.1865" x2="522.334" y1="145.3125" y2="145.3125"/><text fill="#000000" font-family="sans-serif" font-size="13" font-weight="700" lengthAdjust="spacing" textLength="7.23" x="348.1865" y="140.4561">2</text><text fill="#000000" font-family="sans-serif" font-size="13" lengthAdjust="spacing" textLength="97.5508" x="359.4165" y="140.4561">execute(request)</text></g><g class="message" data-entity-1="part3" data-entity-2="part4" data-source-line="11" id="msg3"><polygon fill="#181818" points="831.0854,171.6641,841.0854,175.6641,831.0854,179.6641,835.0854,175.6641" style="stroke:#181818;stroke-width:1;stroke-linejoin:miter;stroke-miterlimit:10;"/><line style="stroke:#181818;stroke-width:1;" x1="538.334" x2="837.0854" y1="175.6641" y2="175.6641"/><text fill="#000000" font-family="sans-serif" font-size="13" font-weight="700" lengthAdjust="spacing" textLength="7.23" x="545.334" y="170.8076">3</text><text fill="#000000" font-family="sans-serif" font-size="13" lengthAdjust="spacing" textLength="242.7471" x="556.564" y="170.8076">existsByPartNumber(request.partNumber)</text></g><g class="message" data-entity-1="part4" data-entity-2="part5" data-source-line="13" id="msg4"><polygon fill="#181818" points="1286.3633,202.0156,1296.3633,206.0156,1286.3633,210.0156,1290.3633,206.0156" style="stroke:#181818;stroke-width:1;stroke-linejoin:miter;stroke-miterlimit:10;"/><line style="stroke:#181818;stroke-width:1;" x1="853.0854" x2="1292.3633" y1="206.0156" y2="206.0156"/><text fill="#000000" font-family="sans-serif" font-size="13" font-weight="700" lengthAdjust="spacing" textLength="7.23" x="860.0854" y="201.1592">4</text><text fill="#000000" font-family="sans-serif" font-size="13" lengthAdjust="spacing" textLength="415.0479" x="871.3154" y="201.1592">SELECT COUNT(*) FROM maintenance_part WHERE part_number = ?</text></g><g class="message" data-entity-1="part5" data-entity-2="part4" data-source-line="15" id="msg5"><polygon fill="#181818" points="864.0854,232.3672,854.0854,236.3672,864.0854,240.3672,860.0854,236.3672" style="stroke:#181818;stroke-width:1;stroke-linejoin:miter;stroke-miterlimit:10;"/><line style="stroke:#181818;stroke-width:1;stroke-dasharray:2,2;" x1="858.0854" x2="1302.3633" y1="236.3672" y2="236.3672"/><text fill="#000000" font-family="sans-serif" font-size="13" font-weight="700" lengthAdjust="spacing" textLength="7.23" x="870.0854" y="231.5107">5</text><text fill="#000000" font-family="sans-serif" font-size="13" lengthAdjust="spacing" textLength="31.8018" x="881.3154" y="231.5107">count</text></g><g class="message" data-entity-1="part4" data-entity-2="part3" data-source-line="17" id="msg6"><polygon fill="#181818" points="549.334,262.7188,539.334,266.7188,549.334,270.7188,545.334,266.7188" style="stroke:#181818;stroke-width:1;stroke-linejoin:miter;stroke-miterlimit:10;"/><line style="stroke:#181818;stroke-width:1;stroke-dasharray:2,2;" x1="543.334" x2="847.0854" y1="266.7188" y2="266.7188"/><text fill="#000000" font-family="sans-serif" font-size="13" font-weight="700" lengthAdjust="spacing" textLength="7.23" x="555.334" y="261.8623">6</text><text fill="#000000" font-family="sans-serif" font-size="13" lengthAdjust="spacing" textLength="53.4727" x="566.564" y="261.8623">true/false</text></g><path d="M413.6138,281.7188 L473.7847,281.7188 L473.7847,290.0703 L463.7847,300.0703 L413.6138,300.0703 L413.6138,281.7188" fill="#EEEEEE" style="stroke:#000000;stroke-width:1.5;"/><rect fill="none" height="198.9453" style="stroke:#000000;stroke-width:1.5;" width="932.7148" x="413.6138" y="281.7188"/><text fill="#000000" font-family="sans-serif" font-size="13" font-weight="700" lengthAdjust="spacing" textLength="15.1709" x="428.6138" y="296.2139">alt</text><text fill="#000000" font-family="sans-serif" font-size="11" font-weight="700" lengthAdjust="spacing" textLength="147.3291" x="488.7847" y="295.1377">[part number already exists]</text><g class="message" data-entity-1="part3" data-entity-2="part3" data-source-line="20" id="msg7"><line style="stroke:#181818;stroke-width:1;" x1="538.334" x2="580.334" y1="322.4219" y2="322.4219"/><line style="stroke:#181818;stroke-width:1;" x1="580.334" x2="580.334" y1="322.4219" y2="335.4219"/><line style="stroke:#181818;stroke-width:1;" x1="539.334" x2="580.334" y1="335.4219" y2="335.4219"/><polygon fill="#181818" points="549.334,331.4219,539.334,335.4219,549.334,339.4219,545.334,335.4219" style="stroke:#181818;stroke-width:1;stroke-linejoin:miter;stroke-miterlimit:10;"/><text fill="#000000" font-family="sans-serif" font-size="13" font-weight="700" lengthAdjust="spacing" textLength="7.23" x="545.334" y="317.5654">7</text><text fill="#000000" font-family="sans-serif" font-size="13" lengthAdjust="spacing" textLength="269.5215" x="556.564" y="317.5654">throw MaintenancePartAlreadyExistsException</text></g><line style="stroke:#000000;stroke-width:1;stroke-dasharray:2,2;" x1="413.6138" x2="1346.3286" y1="344.4219" y2="344.4219"/><text fill="#000000" font-family="sans-serif" font-size="11" font-weight="700" lengthAdjust="spacing" textLength="122.8369" x="418.6138" y="355.8408">[part number is unique]</text><g class="message" data-entity-1="part3" data-entity-2="part4" data-source-line="22" id="msg8"><polygon fill="#181818" points="831.0854,377.6094,841.0854,381.6094,831.0854,385.6094,835.0854,381.6094" style="stroke:#181818;stroke-width:1;stroke-linejoin:miter;stroke-miterlimit:10;"/><line style="stroke:#181818;stroke-width:1;" x1="538.334" x2="837.0854" y1="381.6094" y2="381.6094"/><text fill="#000000" font-family="sans-serif" font-size="13" font-weight="700" lengthAdjust="spacing" textLength="7.23" x="545.334" y="376.7529">8</text><text fill="#000000" font-family="sans-serif" font-size="13" lengthAdjust="spacing" textLength="58.519" x="556.564" y="376.7529">save(part)</text></g><g class="message" data-entity-1="part4" data-entity-2="part5" data-source-line="24" id="msg9"><polygon fill="#181818" points="1286.3633,407.9609,1296.3633,411.9609,1286.3633,415.9609,1290.3633,411.9609" style="stroke:#181818;stroke-width:1;stroke-linejoin:miter;stroke-miterlimit:10;"/><line style="stroke:#181818;stroke-width:1;" x1="853.0854" x2="1292.3633" y1="411.9609" y2="411.9609"/><text fill="#000000" font-family="sans-serif" font-size="13" font-weight="700" lengthAdjust="spacing" textLength="7.23" x="860.0854" y="407.1045">9</text><text fill="#000000" font-family="sans-serif" font-size="13" lengthAdjust="spacing" textLength="190.0171" x="871.3154" y="407.1045">INSERT INTO maintenance_part</text></g><g class="message" data-entity-1="part5" data-entity-2="part4" data-source-line="26" id="msg10"><polygon fill="#181818" points="864.0854,438.3125,854.0854,442.3125,864.0854,446.3125,860.0854,442.3125" style="stroke:#181818;stroke-width:1;stroke-linejoin:miter;stroke-miterlimit:10;"/><line style="stroke:#181818;stroke-width:1;stroke-dasharray:2,2;" x1="858.0854" x2="1302.3633" y1="442.3125" y2="442.3125"/><text fill="#000000" font-family="sans-serif" font-size="13" font-weight="700" lengthAdjust="spacing" textLength="14.46" x="870.0854" y="437.4561">10</text><text fill="#000000" font-family="sans-serif" font-size="13" lengthAdjust="spacing" textLength="127.1499" x="888.5454" y="437.4561">saved record (with ID)</text></g><g class="message" data-entity-1="part4" data-entity-2="part3" data-source-line="28" id="msg11"><polygon fill="#181818" points="549.334,468.6641,539.334,472.6641,549.334,476.6641,545.334,472.6641" style="stroke:#181818;stroke-width:1;stroke-linejoin:miter;stroke-miterlimit:10;"/><line style="stroke:#181818;stroke-width:1;stroke-dasharray:2,2;" x1="543.334" x2="847.0854" y1="472.6641" y2="472.6641"/><text fill="#000000" font-family="sans-serif" font-size="13" font-weight="700" lengthAdjust="spacing" textLength="14.46" x="555.334" y="467.8076">11</text><text fill="#000000" font-family="sans-serif" font-size="13" lengthAdjust="spacing" textLength="58.5317" x="573.7939" y="467.8076">savedPart</text></g><g class="message" data-entity-1="part3" data-entity-2="part2" data-source-line="31" id="msg12"><polygon fill="#181818" points="352.1865,506.0156,342.1865,510.0156,352.1865,514.0156,348.1865,510.0156" style="stroke:#181818;stroke-width:1;stroke-linejoin:miter;stroke-miterlimit:10;"/><line style="stroke:#181818;stroke-width:1;stroke-dasharray:2,2;" x1="346.1865" x2="532.334" y1="510.0156" y2="510.0156"/><text fill="#000000" font-family="sans-serif" font-size="13" font-weight="700" lengthAdjust="spacing" textLength="14.46" x="358.1865" y="505.1592">12</text><text fill="#000000" font-family="sans-serif" font-size="13" lengthAdjust="spacing" textLength="98.2808" x="376.6465" y="505.1592">MaintenancePart</text></g><g class="message" data-entity-1="part2" data-entity-2="part1" data-source-line="33" id="msg13"><polygon fill="#181818" points="94.4858,536.3672,84.4858,540.3672,94.4858,544.3672,90.4858,540.3672" style="stroke:#181818;stroke-width:1;stroke-linejoin:miter;stroke-miterlimit:10;"/><line style="stroke:#181818;stroke-width:1;stroke-dasharray:2,2;" x1="88.4858" x2="335.1865" y1="540.3672" y2="540.3672"/><text fill="#000000" font-family="sans-serif" font-size="13" font-weight="700" lengthAdjust="spacing" textLength="14.46" x="100.4858" y="535.5107">13</text><text fill="#000000" font-family="sans-serif" font-size="13" lengthAdjust="spacing" textLength="118.4917" x="118.9458" y="535.5107">201 Created (JSON)</text></g><?plantuml-src TLF1RgCm4Btp5QESo4fjsZrMsbqrXAfTRK8KY7giN9YgbgXDxI5j_dx7TbXCLkK2jjzxy-Pv43rfrRyzeqb4JTh0R2sa8bH2rGXbtw4vIAlD38I5TPbqmf2iPISKJQ2PLcHqss90PcJQAJOpA0WZnfPFznOpOT5JzjcNuWwwmqvRoGwF7ksMIID8F3CVPglJbpzRBPDr2HS_lGkuWMrHLh0GdLoyZPeBLyn2-hiiDdFNkpomls3SyvY_pvYDdrZtXAd1znujHLXsp0Z6EJCUAItPvT7PtVXC1z9bzsyhuliUF9SrLajMAFC_ULP1LkmtLVfj3dUxOWsHwIUd0u_t-Iu7z_aKhWv-mAzHbjjdiOlHLwrxHKc3CIAK7Neaq-FYHRGMOvZt9rhofU1KIhHyaStnr6m2_8GGWj2hqHzmTdMtWP9xHlvPOqTIgmIvt4HQMkYLvC0YrLCBLXmmTTYvFvjQT3kJ61ysPRwh-5KL_wKtvNCIRZtDonLhm62jJGFfXwHNU5Y5mjCGny93_vww7SgSPucgyHCpZkPPKd7wF5rX3XdDutm3tw-k8Vn5pJ2s4TnX_m80?></g></svg>