<?plantuml 1.2026.1?><svg xmlns="http://www.w3.org/2000/svg" xmlns:xlink="http://www.w3.org/1999/xlink" contentStyleType="text/css" data-diagram-type="SEQUENCE" height="808px" preserveAspectRatio="none" style="width:1742px;height:808px;background:#FFFFFF;" version="1.1" viewBox="0 0 1742 808" width="1742px" zoomAndPan="magnify"><defs/><g><g><title>MaintenanceController</title><rect fill="#FFFFFF" height="559.7266" style="stroke:#181818;stroke-width:1;" width="10" x="497.6636" y="157.8281"/></g><g><title>CreateMaintenancePartUseCase</title><rect fill="#FFFFFF" height="360.5313" style="stroke:#181818;stroke-width:1;" width="10" x="867.0767" y="297.7578"/></g><g><title>MaintenancePartRepository</title><rect fill="#FFFFFF" height="87.3984" style="stroke:#181818;stroke-width:1;" width="10" x="1195.1538" y="326.8906"/></g><g><title>MaintenancePartRepository</title><rect fill="#FFFFFF" height="58.2656" style="stroke:#181818;stroke-width:1;" width="10" x="1195.1538" y="555.7578"/></g><g><title>Database</title><rect fill="#FFFFFF" height="29.1328" style="stroke:#181818;stroke-width:1;" width="10" x="1684.2646" y="356.0234"/></g><g><title>Database</title><rect fill="#FFFFFF" height="29.1328" style="stroke:#181818;stroke-width:1;" width="10" x="1684.2646" y="584.8906"/></g><rect fill="none" height="281.2656" style="stroke:#000000;stroke-width:1.5;" width="1725.665" x="10" y="429.2891"/><g class="participant-lifeline" data-entity-uid="part1" data-qualified-name="MS" id="part1-lifeline"><g><title>Maintenance Supervisor</title><rect fill="#000000" fill-opacity="0.00000" height="646.2578" width="8" x="103.7075" y="81.2969"/><line style="stroke:#181818;stroke-width:0.5;stroke-dasharray:5,5;" x1="107" x2="107" y1="81.2969" y2="727.5547"/></g></g><g class="participant-lifeline" data-entity-uid="part2" data-qualified-name="Ctrl" id="part2-lifeline"><g><title>MaintenanceController</title><rect fill="#000000" fill-opacity="0.00000" height="646.2578" width="8" x="498.6636" y="81.2969"/><line style="stroke:#181818;stroke-width:0.5;stroke-dasharray:5,5;" x1="501.9976" x2="501.9976" y1="81.2969" y2="727.5547"/></g></g><g class="participant-lifeline" data-entity-uid="part3" data-qualified-name="UC" id="part3-lifeline"><g><title>CreateMaintenancePartUseCase</title><rect fill="#000000" fill-opacity="0.00000" height="646.2578" width="8" x="868.0767" y="81.2969"/><line style="stroke:#181818;stroke-width:0.5;stroke-dasharray:5,5;" x1="871.2427" x2="871.2427" y1="81.2969" y2="727.5547"/></g></g><g class="participant-lifeline" data-entity-uid="part4" data-qualified-name="Repo" id="part4-lifeline"><g><title>MaintenancePartRepository</title><rect fill="#000000" fill-opacity="0.00000" height="646.2578" width="8" x="1196.1538" y="81.2969"/><line style="stroke:#181818;stroke-width:0.5;stroke-dasharray:5,5;" x1="1199.4048" x2="1199.4048" y1="81.2969" y2="727.5547"/></g></g><g class="participant-lifeline" data-entity-uid="part5" data-qualified-name="DB" id="part5-lifeline"><g><title>Database</title><rect fill="#000000" fill-opacity="0.00000" height="646.2578" width="8" x="1685.2646" y="81.2969"/><line style="stroke:#181818;stroke-width:0.5;stroke-dasharray:5,5;" x1="1688.8643" x2="1688.8643" y1="81.2969" y2="727.5547"/></g></g><g class="participant participant-head" data-entity-uid="part1" data-qualified-name="MS" id="part1-head"><text fill="#000000" font-family="sans-serif" font-size="14" lengthAdjust="spacing" textLength="169.415" x="20" y="77.9951">Maintenance Supervisor</text><ellipse cx="107.7075" cy="13.5" fill="#E2E2F0" rx="8" ry="8" style="stroke:#181818;stroke-width:0.5;"/><path d="M107.7075,21.5 L107.7075,48.5 M94.7075,29.5 L120.7075,29.5 M107.7075,48.5 L94.7075,63.5 M107.7075,48.5 L120.7075,63.5" fill="none" style="stroke:#181818;stroke-width:0.5;"/></g><g class="participant participant-tail" data-entity-uid="part1" data-qualified-name="MS" id="part1-tail"><text fill="#000000" font-family="sans-serif" font-size="14" lengthAdjust="spacing" textLength="169.415" x="20" y="739.5498">Maintenance Supervisor</text><ellipse cx="107.7075" cy="751.3516" fill="#E2E2F0" rx="8" ry="8" style="stroke:#181818;stroke-width:0.5;"/><path d="M107.7075,759.3516 L107.7075,786.3516 M94.7075,767.3516 L120.7075,767.3516 M107.7075,786.3516 L94.7075,801.3516 M107.7075,786.3516 L120.7075,801.3516" fill="none" style="stroke:#181818;stroke-width:0.5;"/></g><g class="participant participant-head" data-entity-uid="part2" data-qualified-name="Ctrl" id="part2-head"><rect fill="#E2E2F0" height="30.2969" rx="2.5" ry="2.5" style="stroke:#181818;stroke-width:0.5;" width="173.332" x="415.9976" y="50"/><text fill="#000000" font-family="sans-serif" font-size="14" lengthAdjust="spacing" textLength="159.332" x="422.9976" y="69.9951">MaintenanceController</text></g><g class="participant participant-tail" data-entity-uid="part2" data-qualified-name="Ctrl" id="part2-tail"><rect fill="#E2E2F0" height="30.2969" rx="2.5" ry="2.5" style="stroke:#181818;stroke-width:0.5;" width="173.332" x="415.9976" y="726.5547"/><text fill="#000000" font-family="sans-serif" font-size="14" lengthAdjust="spacing" textLength="159.332" x="422.9976" y="746.5498">MaintenanceController</text></g><g class="participant participant-head" data-entity-uid="part3" data-qualified-name="UC" id="part3-head"><rect fill="#E2E2F0" height="30.2969" rx="2.5" ry="2.5" style="stroke:#181818;stroke-width:0.5;" width="239.668" x="752.2427" y="50"/><text fill="#000000" font-family="sans-serif" font-size="14" lengthAdjust="spacing" textLength="225.668" x="759.2427" y="69.9951">CreateMaintenancePartUseCase</text></g><g class="participant participant-tail" data-entity-uid="part3" data-qualified-name="UC" id="part3-tail"><rect fill="#E2E2F0" height="30.2969" rx="2.5" ry="2.5" style="stroke:#181818;stroke-width:0.5;" width="239.668" x="752.2427" y="726.5547"/><text fill="#000000" font-family="sans-serif" font-size="14" lengthAdjust="spacing" textLength="225.668" x="759.2427" y="746.5498">CreateMaintenancePartUseCase</text></g><g class="participant participant-head" data-entity-uid="part4" data-qualified-name="Repo" id="part4-head"><rect fill="#E2E2F0" height="30.2969" rx="2.5" ry="2.5" style="stroke:#181818;stroke-width:0.5;" width="207.498" x="1096.4048" y="50"/><text fill="#000000" font-family="sans-serif" font-size="14" lengthAdjust="spacing" textLength="193.498" x="1103.4048" y="69.9951">MaintenancePartRepository</text></g><g class="participant participant-tail" data-entity-uid="part4" data-qualified-name="Repo" id="part4-tail"><rect fill="#E2E2F0" height="30.2969" rx="2.5" ry="2.5" style="stroke:#181818;stroke-width:0.5;" width="207.498" x="1096.4048" y="726.5547"/><text fill="#000000" font-family="sans-serif" font-size="14" lengthAdjust="spacing" textLength="193.498" x="1103.4048" y="746.5498">MaintenancePartRepository</text></g><g class="participant participant-head" data-entity-uid="part5" data-qualified-name="DB" id="part5-head"><text fill="#000000" font-family="sans-serif" font-size="14" lengthAdjust="spacing" textLength="66.8008" x="1652.8643" y="77.9951">Database</text><path d="M1671.2646,29 C1671.2646,19 1689.2646,19 1689.2646,19 C1689.2646,19 1707.2646,19 1707.2646,29 L1707.2646,55 C1707.2646,65 1689.2646,65 1689.2646,65 C1689.2646,65 1671.2646,65 1671.2646,55 L1671.2646,29" fill="#E2E2F0" style="stroke:#181818;stroke-width:0.5;"/><path d="M1671.2646,29 C1671.2646,39 1689.2646,39 1689.2646,39 C1689.2646,39 1707.2646,39 1707.2646,29" fill="none" style="stroke:#181818;stroke-width:0.5;"/></g><g class="participant participant-tail" data-entity-uid="part5" data-qualified-name="DB" id="part5-tail"><text fill="#000000" font-family="sans-serif" font-size="14" lengthAdjust="spacing" textLength="66.8008" x="1652.8643" y="739.5498">Database</text><path d="M1671.2646,752.8516 C1671.2646,742.8516 1689.2646,742.8516 1689.2646,742.8516 C1689.2646,742.8516 1707.2646,742.8516 1707.2646,752.8516 L1707.2646,778.8516 C1707.2646,788.8516 1689.2646,788.8516 1689.2646,788.8516 C1689.2646,788.8516 1671.2646,788.8516 1671.2646,778.8516 L1671.2646,752.8516" fill="#E2E2F0" style="stroke:#181818;stroke-width:0.5;"/><path d="M1671.2646,752.8516 C1671.2646,762.8516 1689.2646,762.8516 1689.2646,762.8516 C1689.2646,762.8516 1707.2646,762.8516 1707.2646,752.8516" fill="none" style="stroke:#181818;stroke-width:0.5;"/></g><g><title>MaintenanceController</title><rect fill="#FFFFFF" height="559.7266" style="stroke:#181818;stroke-width:1;" width="10" x="497.6636" y="157.8281"/></g><g><title>CreateMaintenancePartUseCase</title><rect fill="#FFFFFF" height="360.5313" style="stroke:#181818;stroke-width:1;" width="10" x="867.0767" y="297.7578"/></g><g><title>MaintenancePartRepository</title><rect fill="#FFFFFF" height="87.3984" style="stroke:#181818;stroke-width:1;" width="10" x="1195.1538" y="326.8906"/></g><g><title>MaintenancePartRepository</title><rect fill="#FFFFFF" height="58.2656" style="stroke:#181818;stroke-width:1;" width="10" x="1195.1538" y="555.7578"/></g><g><title>Database</title><rect fill="#FFFFFF" height="29.1328" style="stroke:#181818;stroke-width:1;" width="10" x="1684.2646" y="356.0234"/></g><g><title>Database</title><rect fill="#FFFFFF" height="29.1328" style="stroke:#181818;stroke-width:1;" width="10" x="1684.2646" y="584.8906"/></g><g class="message" data-entity-1="part1" data-entity-2="part2" id="msg1"><polygon fill="#181818" points="485.6636,153.8281,495.6636,157.8281,485.6636,161.8281,489.6636,157.8281" style="stroke:#181818;stroke-width:1;"/><line style="stroke:#181818;stroke-width:1;" x1="107.7075" x2="491.6636" y1="157.8281" y2="157.8281"/><text fill="#000000" font-family="sans-serif" font-size="13" font-weight="bold" lengthAdjust="spacing" textLength="9.0454" x="114.7075" y="130.063">1</text><text fill="#000000" font-family="sans-serif" font-size="13" lengthAdjust="spacing" textLength="189.9663" x="127.7529" y="107.3638">POST /api/maintenance/parts</text><text fill="#000000" font-family="sans-serif" font-size="13" lengthAdjust="spacing" textLength="227.9951" x="127.7529" y="122.4966">{ partNumber, name, description?,</text><text fill="#000000" font-family="sans-serif" font-size="13" lengthAdjust="spacing" textLength="229.1187" x="136.0176" y="137.6294">stockQuantity, minimumThreshold,</text><text fill="#000000" font-family="sans-serif" font-size="13" lengthAdjust="spacing" textLength="253.6523" x="136.0176" y="152.7622">component: MaintenanceComponent }</text></g><path d="M512,170.8281 L512,270.8281 L887,270.8281 L887,180.8281 L877,170.8281 L512,170.8281" fill="#FEFFDD" style="stroke:#181818;stroke-width:0.5;"/><path d="M877,170.8281 L877,180.8281 L887,180.8281 L877,170.8281" fill="#FEFFDD" style="stroke:#181818;stroke-width:0.5;"/><text fill="#000000" font-family="sans-serif" font-size="13" lengthAdjust="spacing" textLength="281.0107" x="518" y="187.895">@Valid on CreateMaintenancePartRequest:</text><text fill="#000000" font-family="sans-serif" font-size="13" lengthAdjust="spacing" textLength="157.2378" x="518" y="203.0278">- partNumber: not blank</text><text fill="#000000" font-family="sans-serif" font-size="13" lengthAdjust="spacing" textLength="115.2227" x="518" y="218.1606">- name: not blank</text><text fill="#000000" font-family="sans-serif" font-size="13" lengthAdjust="spacing" textLength="142.2002" x="518" y="233.2935">- stockQuantity: &gt;= 0</text><text fill="#000000" font-family="sans-serif" font-size="13" lengthAdjust="spacing" textLength="177.5693" x="518" y="248.4263">- minimumThreshold: &gt;= 0</text><text fill="#000000" font-family="sans-serif" font-size="13" lengthAdjust="spacing" textLength="354.7451" x="518" y="263.5591">- component: not null (MaintenanceComponent enum)</text><g class="message" data-entity-1="part2" data-entity-2="part3" id="msg2"><polygon fill="#181818" points="855.0767,293.7578,865.0767,297.7578,855.0767,301.7578,859.0767,297.7578" style="stroke:#181818;stroke-width:1;"/><line style="stroke:#181818;stroke-width:1;" x1="507.6636" x2="861.0767" y1="297.7578" y2="297.7578"/><text fill="#000000" font-family="sans-serif" font-size="13" font-weight="bold" lengthAdjust="spacing" textLength="9.0454" x="514.6636" y="292.6919">2</text><text fill="#000000" font-family="sans-serif" font-size="13" lengthAdjust="spacing" textLength="327.3677" x="527.709" y="292.6919">execute(request: CreateMaintenancePartRequest)</text></g><g class="message" data-entity-1="part3" data-entity-2="part4" id="msg3"><polygon fill="#181818" points="1183.1538,322.8906,1193.1538,326.8906,1183.1538,330.8906,1187.1538,326.8906" style="stroke:#181818;stroke-width:1;"/><line style="stroke:#181818;stroke-width:1;" x1="877.0767" x2="1189.1538" y1="326.8906" y2="326.8906"/><text fill="#000000" font-family="sans-serif" font-size="13" font-weight="bold" lengthAdjust="spacing" textLength="9.0454" x="884.0767" y="321.8247">3</text><text fill="#000000" font-family="sans-serif" font-size="13" lengthAdjust="spacing" textLength="286.0317" x="897.1221" y="321.8247">existsByPartNumber(request.partNumber())</text></g><g class="message" data-entity-1="part4" data-entity-2="part5" id="msg4"><polygon fill="#181818" points="1672.2646,352.0234,1682.2646,356.0234,1672.2646,360.0234,1676.2646,356.0234" style="stroke:#181818;stroke-width:1;"/><line style="stroke:#181818;stroke-width:1;" x1="1205.1538" x2="1678.2646" y1="356.0234" y2="356.0234"/><text fill="#000000" font-family="sans-serif" font-size="13" font-weight="bold" lengthAdjust="spacing" textLength="9.0454" x="1212.1538" y="350.9575">4</text><text fill="#000000" font-family="sans-serif" font-size="13" lengthAdjust="spacing" textLength="447.0654" x="1225.1992" y="350.9575">SELECT COUNT(*) FROM maintenance_part WHERE part_number = ?</text></g><g class="message" data-entity-1="part5" data-entity-2="part4" id="msg5"><polygon fill="#181818" points="1216.1538,381.1563,1206.1538,385.1563,1216.1538,389.1563,1212.1538,385.1563" style="stroke:#181818;stroke-width:1;"/><line style="stroke:#181818;stroke-width:1;stroke-dasharray:2,2;" x1="1210.1538" x2="1688.2646" y1="385.1563" y2="385.1563"/><text fill="#000000" font-family="sans-serif" font-size="13" font-weight="bold" lengthAdjust="spacing" textLength="9.0454" x="1222.1538" y="380.0903">5</text><text fill="#000000" font-family="sans-serif" font-size="13" lengthAdjust="spacing" textLength="36.6768" x="1235.1992" y="380.0903">count</text></g><g class="message" data-entity-1="part4" data-entity-2="part3" id="msg6"><polygon fill="#181818" points="888.0767,410.2891,878.0767,414.2891,888.0767,418.2891,884.0767,414.2891" style="stroke:#181818;stroke-width:1;"/><line style="stroke:#181818;stroke-width:1;stroke-dasharray:2,2;" x1="882.0767" x2="1199.1538" y1="414.2891" y2="414.2891"/><text fill="#000000" font-family="sans-serif" font-size="13" font-weight="bold" lengthAdjust="spacing" textLength="9.0454" x="894.0767" y="409.2231">6</text><text fill="#000000" font-family="sans-serif" font-size="13" lengthAdjust="spacing" textLength="51.9746" x="907.1221" y="409.2231">boolean</text></g><path d="M10,429.2891 L74.4429,429.2891 L74.4429,436.4219 L64.4429,446.4219 L10,446.4219 L10,429.2891" fill="#EEEEEE" style="stroke:#000000;stroke-width:1.5;"/><rect fill="none" height="281.2656" style="stroke:#000000;stroke-width:1.5;" width="1725.665" x="10" y="429.2891"/><text fill="#000000" font-family="sans-serif" font-size="13" font-weight="bold" lengthAdjust="spacing" textLength="19.4429" x="25" y="442.356">alt</text><text fill="#000000" font-family="sans-serif" font-size="11" font-weight="bold" lengthAdjust="spacing" textLength="178.6318" x="89.4429" y="441.4995">[part number already exists]</text><g class="message" data-entity-1="part3" data-entity-2="part2" id="msg7"><polygon fill="#181818" points="518.6636,463.5547,508.6636,467.5547,518.6636,471.5547,514.6636,467.5547" style="stroke:#181818;stroke-width:1;"/><line style="stroke:#181818;stroke-width:1;stroke-dasharray:2,2;" x1="512.6636" x2="866.0767" y1="467.5547" y2="467.5547"/><text fill="#000000" font-family="sans-serif" font-size="13" font-weight="bold" lengthAdjust="spacing" textLength="9.0454" x="524.6636" y="462.4888">7</text><text fill="#000000" font-family="sans-serif" font-size="13" lengthAdjust="spacing" textLength="310.2671" x="537.709" y="462.4888">throws MaintenancePartAlreadyExistsException</text></g><g class="message" data-entity-1="part2" data-entity-2="part1" id="msg8"><polygon fill="#181818" points="118.7075,507.8203,108.7075,511.8203,118.7075,515.8203,114.7075,511.8203" style="stroke:#181818;stroke-width:1;"/><line style="stroke:#181818;stroke-width:1;stroke-dasharray:2,2;" x1="112.7075" x2="496.6636" y1="511.8203" y2="511.8203"/><text fill="#000000" font-family="sans-serif" font-size="13" font-weight="bold" lengthAdjust="spacing" textLength="9.0454" x="124.7075" y="499.188">8</text><text fill="#000000" font-family="sans-serif" font-size="13" lengthAdjust="spacing" textLength="78.2603" x="137.7529" y="491.6216">409 Conflict</text><text fill="#000000" font-family="sans-serif" font-size="13" lengthAdjust="spacing" textLength="341.0659" x="137.7529" y="506.7544">{ message: "Maintenance part '...' already exists." }</text></g><line style="stroke:#000000;stroke-width:1;stroke-dasharray:2,2;" x1="10" x2="1735.665" y1="520.8203" y2="520.8203"/><text fill="#000000" font-family="sans-serif" font-size="11" font-weight="bold" lengthAdjust="spacing" textLength="148.3228" x="15" y="531.0308">[part number is unique]</text><g class="message" data-entity-1="part3" data-entity-2="part4" id="msg9"><polygon fill="#181818" points="1183.1538,551.7578,1193.1538,555.7578,1183.1538,559.7578,1187.1538,555.7578" style="stroke:#181818;stroke-width:1;"/><line style="stroke:#181818;stroke-width:1;" x1="877.0767" x2="1189.1538" y1="555.7578" y2="555.7578"/><text fill="#000000" font-family="sans-serif" font-size="13" font-weight="bold" lengthAdjust="spacing" textLength="9.0454" x="884.0767" y="550.6919">9</text><text fill="#000000" font-family="sans-serif" font-size="13" lengthAdjust="spacing" textLength="67.2344" x="897.1221" y="550.6919">save(part)</text></g><g class="message" data-entity-1="part4" data-entity-2="part5" id="msg10"><polygon fill="#181818" points="1672.2646,580.8906,1682.2646,584.8906,1672.2646,588.8906,1676.2646,584.8906" style="stroke:#181818;stroke-width:1;"/><line style="stroke:#181818;stroke-width:1;" x1="1205.1538" x2="1678.2646" y1="584.8906" y2="584.8906"/><text fill="#000000" font-family="sans-serif" font-size="13" font-weight="bold" lengthAdjust="spacing" textLength="18.0908" x="1212.1538" y="579.8247">10</text><text fill="#000000" font-family="sans-serif" font-size="13" lengthAdjust="spacing" textLength="205.3213" x="1234.2446" y="579.8247">INSERT INTO maintenance_part</text></g><g class="message" data-entity-1="part5" data-entity-2="part4" id="msg11"><polygon fill="#181818" points="1211.1538,610.0234,1201.1538,614.0234,1211.1538,618.0234,1207.1538,614.0234" style="stroke:#181818;stroke-width:1;"/><line style="stroke:#181818;stroke-width:1;stroke-dasharray:2,2;" x1="1205.1538" x2="1688.2646" y1="614.0234" y2="614.0234"/><text fill="#000000" font-family="sans-serif" font-size="13" font-weight="bold" lengthAdjust="spacing" textLength="18.0908" x="1217.1538" y="608.9575">11</text><text fill="#000000" font-family="sans-serif" font-size="13" lengthAdjust="spacing" textLength="4.1323" x="1239.2446" y="608.9575">&#160;</text></g><g class="message" data-entity-1="part3" data-entity-2="part2" id="msg12"><polygon fill="#181818" points="518.6636,654.2891,508.6636,658.2891,518.6636,662.2891,514.6636,658.2891" style="stroke:#181818;stroke-width:1;"/><line style="stroke:#181818;stroke-width:1;stroke-dasharray:2,2;" x1="512.6636" x2="871.0767" y1="658.2891" y2="658.2891"/><text fill="#000000" font-family="sans-serif" font-size="13" font-weight="bold" lengthAdjust="spacing" textLength="18.0908" x="524.6636" y="645.6567">12</text><text fill="#000000" font-family="sans-serif" font-size="13" lengthAdjust="spacing" textLength="172.9863" x="546.7544" y="638.0903">MaintenancePartResponse</text><text fill="#000000" font-family="sans-serif" font-size="13" lengthAdjust="spacing" textLength="204.3628" x="546.7544" y="653.2231">{ id, partNumber, description }</text></g><g class="message" data-entity-1="part2" data-entity-2="part1" id="msg13"><polygon fill="#181818" points="118.7075,698.5547,108.7075,702.5547,118.7075,706.5547,114.7075,702.5547" style="stroke:#181818;stroke-width:1;"/><line style="stroke:#181818;stroke-width:1;stroke-dasharray:2,2;" x1="112.7075" x2="496.6636" y1="702.5547" y2="702.5547"/><text fill="#000000" font-family="sans-serif" font-size="13" font-weight="bold" lengthAdjust="spacing" textLength="18.0908" x="124.7075" y="689.9224">13</text><text fill="#000000" font-family="sans-serif" font-size="13" lengthAdjust="spacing" textLength="80.6787" x="146.7983" y="682.356">201 Created</text><text fill="#000000" font-family="sans-serif" font-size="13" lengthAdjust="spacing" textLength="343.8652" x="146.7983" y="697.4888">EntityModel&lt;MaintenancePartResponse&gt; with _links</text></g><?plantuml-src VLJBRjim4BppAnQ-n2xyI8jUQZH96qL52zInQylj9O11IvkO24Mg99N4AFhlNL9AB2b9J-9ZThWxEojUEgtAV8k6yTHf0xqP5ygXuYf5M9K5cZjXjUa1jp1RiO8R9r9HSELQq4WhPxIKM24ZPsGR6nda3XiH2xfTMuounH2oZbubzz0b5jeAod0Vq7xBCkxubkAXTr6lmjt5EMEp5OnEGnemXSLybS245sAI7qWd_ZLxfVw0Nrm63OQWU8v3oD2cHXHEQ7Ksl580rkdqzaT9YGct7q8kbCZBFDaPj3ijiu19TLveXSfDeILCVGf_lSBYZbIev65AqzA8cvq3VLsT0NpwoQN8G2juKR4b_YxHkYaXHut4fq1ai9LStOORNqRth5N354vFu3YSTujfN3LAybogb1BwBnQ7PA81GvLv838MbASEh2FI7nymBHtsJPtyVqiR76GYIp0Y81hVxa0ahBFd-yLJuO-SuuCM_K638lWaH1FBnJbnhEBlSPH0D5zV9lqt0_YodC-WuOkDPu9VN-Db70JULEC19t1se2MB4Tdea5cgI-LOXar4zUoZ25kj9NBLn8Ja69SkF0JrGroIEjc-BfRwu2KucDdjZBwtq17lSnKKXvZu8SLWNWgk6a7XD15JU7_y0MXKhwL8dRT-ZjRo6x9AQ-n3DaVZyVYeayouHov6QR6LiB1GAa5jg7Dz4iNoE-nxv81ksbK3j9hoxN8LBnFw9FDdlMZ6age03ULfrzQyjQ_qxGhup7QMF6pHoo6oOUjlqFWFKE4jRl9cLzntnszhPsTNAWvZDjCPoe-ll7WAzyBjO2E5khL-TbZJ79xx7m00?></g></svg>