<?plantuml 1.2026.1?><svg xmlns="http://www.w3.org/2000/svg" xmlns:xlink="http://www.w3.org/1999/xlink" contentStyleType="text/css" data-diagram-type="SEQUENCE" height="824px" preserveAspectRatio="none" style="width:1491px;height:824px;background:#FFFFFF;" version="1.1" viewBox="0 0 1491 824" width="1491px" zoomAndPan="magnify"><defs/><g><g><title>MaintenanceController</title><rect fill="#FFFFFF" height="613.1328" style="stroke:#181818;stroke-width:1;" width="10" x="418.8311" y="112.4297"/></g><g><title>UpdateMaintenanceRecordUseCase</title><rect fill="#FFFFFF" height="554.8672" style="stroke:#181818;stroke-width:1;" width="10" x="667.3892" y="141.5625"/></g><g><title>MaintenanceRecordRepository</title><rect fill="#FFFFFF" height="87.3984" style="stroke:#181818;stroke-width:1;" width="10" x="1022.7021" y="170.6953"/></g><g><title>MaintenanceRecordRepository</title><rect fill="#FFFFFF" height="87.3984" style="stroke:#181818;stroke-width:1;" width="10" x="1022.7021" y="572.8984"/></g><g><title>MaintenanceRecord</title><rect fill="#FFFFFF" height="29.1328" style="stroke:#181818;stroke-width:1;" width="10" x="1223.6436" y="425.2344"/></g><g><title>MaintenanceRecord</title><rect fill="#FFFFFF" height="29.1328" style="stroke:#181818;stroke-width:1;" width="10" x="1223.6436" y="507.6328"/></g><g><title>Database</title><rect fill="#FFFFFF" height="29.1328" style="stroke:#181818;stroke-width:1;" width="10" x="1433.1021" y="199.8281"/></g><g><title>Database</title><rect fill="#FFFFFF" height="29.1328" style="stroke:#181818;stroke-width:1;" width="10" x="1433.1021" y="602.0313"/></g><rect fill="none" height="395.2031" style="stroke:#000000;stroke-width:1.5;" width="964.375" x="520.1274" y="273.0938"/><rect fill="none" height="75.3984" style="stroke:#000000;stroke-width:1.5;" width="785.2188" x="530.1274" y="469.3672"/><g class="participant-lifeline" data-entity-uid="part1" data-qualified-name="MT" id="part1-lifeline"><g><title>Maintenance Technician</title><rect fill="#000000" fill-opacity="0.00000" height="662.2656" width="8" x="89.0732" y="81.2969"/><line style="stroke:#181818;stroke-width:0.5;stroke-dasharray:5,5;" x1="93" x2="93" y1="81.2969" y2="743.5625"/></g></g><g class="participant-lifeline" data-entity-uid="part2" data-qualified-name="Ctrl" id="part2-lifeline"><g><title>MaintenanceController</title><rect fill="#000000" fill-opacity="0.00000" height="662.2656" width="8" x="419.8311" y="81.2969"/><line style="stroke:#181818;stroke-width:0.5;stroke-dasharray:5,5;" x1="423.165" x2="423.165" y1="81.2969" y2="743.5625"/></g></g><g class="participant-lifeline" data-entity-uid="part3" data-qualified-name="UC" id="part3-lifeline"><g><title>UpdateMaintenanceRecordUseCase</title><rect fill="#000000" fill-opacity="0.00000" height="662.2656" width="8" x="668.3892" y="81.2969"/><line style="stroke:#181818;stroke-width:0.5;stroke-dasharray:5,5;" x1="672.1274" x2="672.1274" y1="81.2969" y2="743.5625"/></g></g><g class="participant-lifeline" data-entity-uid="part4" data-qualified-name="Repo" id="part4-lifeline"><g><title>MaintenanceRecordRepository</title><rect fill="#000000" fill-opacity="0.00000" height="662.2656" width="8" x="1023.7021" y="81.2969"/><line style="stroke:#181818;stroke-width:0.5;stroke-dasharray:5,5;" x1="1027.4634" x2="1027.4634" y1="81.2969" y2="743.5625"/></g></g><g class="participant-lifeline" data-entity-uid="part5" data-qualified-name="Entity" id="part5-lifeline"><g><title>MaintenanceRecord</title><rect fill="#000000" fill-opacity="0.00000" height="662.2656" width="8" x="1224.6436" y="81.2969"/><line style="stroke:#181818;stroke-width:0.5;stroke-dasharray:5,5;" x1="1227.9409" x2="1227.9409" y1="81.2969" y2="743.5625"/></g></g><g class="participant-lifeline" data-entity-uid="part6" data-qualified-name="DB" id="part6-lifeline"><g><title>Database</title><rect fill="#000000" fill-opacity="0.00000" height="662.2656" width="8" x="1434.1021" y="81.2969"/><line style="stroke:#181818;stroke-width:0.5;stroke-dasharray:5,5;" x1="1437.7017" x2="1437.7017" y1="81.2969" y2="743.5625"/></g></g><g class="participant participant-head" data-entity-uid="part1" data-qualified-name="MT" id="part1-head"><text fill="#000000" font-family="sans-serif" font-size="14" lengthAdjust="spacing" textLength="170.1465" x="5" y="77.9951">Maintenance Technician</text><ellipse cx="93.0732" cy="13.5" fill="#E2E2F0" rx="8" ry="8" style="stroke:#181818;stroke-width:0.5;"/><path d="M93.0732,21.5 L93.0732,48.5 M80.0732,29.5 L106.0732,29.5 M93.0732,48.5 L80.0732,63.5 M93.0732,48.5 L106.0732,63.5" fill="none" style="stroke:#181818;stroke-width:0.5;"/></g><g class="participant participant-tail" data-entity-uid="part1" data-qualified-name="MT" id="part1-tail"><text fill="#000000" font-family="sans-serif" font-size="14" lengthAdjust="spacing" textLength="170.1465" x="5" y="755.5576">Maintenance Technician</text><ellipse cx="93.0732" cy="767.3594" fill="#E2E2F0" rx="8" ry="8" style="stroke:#181818;stroke-width:0.5;"/><path d="M93.0732,775.3594 L93.0732,802.3594 M80.0732,783.3594 L106.0732,783.3594 M93.0732,802.3594 L80.0732,817.3594 M93.0732,802.3594 L106.0732,817.3594" fill="none" style="stroke:#181818;stroke-width:0.5;"/></g><g class="participant participant-head" data-entity-uid="part2" data-qualified-name="Ctrl" id="part2-head"><rect fill="#E2E2F0" height="30.2969" rx="2.5" ry="2.5" style="stroke:#181818;stroke-width:0.5;" width="173.332" x="337.165" y="50"/><text fill="#000000" font-family="sans-serif" font-size="14" lengthAdjust="spacing" textLength="159.332" x="344.165" y="69.9951">MaintenanceController</text></g><g class="participant participant-tail" data-entity-uid="part2" data-qualified-name="Ctrl" id="part2-tail"><rect fill="#E2E2F0" height="30.2969" rx="2.5" ry="2.5" style="stroke:#181818;stroke-width:0.5;" width="173.332" x="337.165" y="742.5625"/><text fill="#000000" font-family="sans-serif" font-size="14" lengthAdjust="spacing" textLength="159.332" x="344.165" y="762.5576">MaintenanceController</text></g><g class="participant participant-head" data-entity-uid="part3" data-qualified-name="UC" id="part3-head"><rect fill="#E2E2F0" height="30.2969" rx="2.5" ry="2.5" style="stroke:#181818;stroke-width:0.5;" width="264.5234" x="540.1274" y="50"/><text fill="#000000" font-family="sans-serif" font-size="14" lengthAdjust="spacing" textLength="250.5234" x="547.1274" y="69.9951">UpdateMaintenanceRecordUseCase</text></g><g class="participant participant-tail" data-entity-uid="part3" data-qualified-name="UC" id="part3-tail"><rect fill="#E2E2F0" height="30.2969" rx="2.5" ry="2.5" style="stroke:#181818;stroke-width:0.5;" width="264.5234" x="540.1274" y="742.5625"/><text fill="#000000" font-family="sans-serif" font-size="14" lengthAdjust="spacing" textLength="250.5234" x="547.1274" y="762.5576">UpdateMaintenanceRecordUseCase</text></g><g class="participant participant-head" data-entity-uid="part4" data-qualified-name="Repo" id="part4-head"><rect fill="#E2E2F0" height="30.2969" rx="2.5" ry="2.5" style="stroke:#181818;stroke-width:0.5;" width="228.4775" x="913.4634" y="50"/><text fill="#000000" font-family="sans-serif" font-size="14" lengthAdjust="spacing" textLength="214.4775" x="920.4634" y="69.9951">MaintenanceRecordRepository</text></g><g class="participant participant-tail" data-entity-uid="part4" data-qualified-name="Repo" id="part4-tail"><rect fill="#E2E2F0" height="30.2969" rx="2.5" ry="2.5" style="stroke:#181818;stroke-width:0.5;" width="228.4775" x="913.4634" y="742.5625"/><text fill="#000000" font-family="sans-serif" font-size="14" lengthAdjust="spacing" textLength="214.4775" x="920.4634" y="762.5576">MaintenanceRecordRepository</text></g><g class="participant participant-head" data-entity-uid="part5" data-qualified-name="Entity" id="part5-head"><rect fill="#E2E2F0" height="30.2969" rx="2.5" ry="2.5" style="stroke:#181818;stroke-width:0.5;" width="153.4053" x="1151.9409" y="50"/><text fill="#000000" font-family="sans-serif" font-size="14" lengthAdjust="spacing" textLength="139.4053" x="1158.9409" y="69.9951">MaintenanceRecord</text></g><g class="participant participant-tail" data-entity-uid="part5" data-qualified-name="Entity" id="part5-tail"><rect fill="#E2E2F0" height="30.2969" rx="2.5" ry="2.5" style="stroke:#181818;stroke-width:0.5;" width="153.4053" x="1151.9409" y="742.5625"/><text fill="#000000" font-family="sans-serif" font-size="14" lengthAdjust="spacing" textLength="139.4053" x="1158.9409" y="762.5576">MaintenanceRecord</text></g><g class="participant participant-head" data-entity-uid="part6" data-qualified-name="DB" id="part6-head"><text fill="#000000" font-family="sans-serif" font-size="14" lengthAdjust="spacing" textLength="66.8008" x="1401.7017" y="77.9951">Database</text><path d="M1420.1021,29 C1420.1021,19 1438.1021,19 1438.1021,19 C1438.1021,19 1456.1021,19 1456.1021,29 L1456.1021,55 C1456.1021,65 1438.1021,65 1438.1021,65 C1438.1021,65 1420.1021,65 1420.1021,55 L1420.1021,29" fill="#E2E2F0" style="stroke:#181818;stroke-width:0.5;"/><path d="M1420.1021,29 C1420.1021,39 1438.1021,39 1438.1021,39 C1438.1021,39 1456.1021,39 1456.1021,29" fill="none" style="stroke:#181818;stroke-width:0.5;"/></g><g class="participant participant-tail" data-entity-uid="part6" data-qualified-name="DB" id="part6-tail"><text fill="#000000" font-family="sans-serif" font-size="14" lengthAdjust="spacing" textLength="66.8008" x="1401.7017" y="755.5576">Database</text><path d="M1420.1021,768.8594 C1420.1021,758.8594 1438.1021,758.8594 1438.1021,758.8594 C1438.1021,758.8594 1456.1021,758.8594 1456.1021,768.8594 L1456.1021,794.8594 C1456.1021,804.8594 1438.1021,804.8594 1438.1021,804.8594 C1438.1021,804.8594 1420.1021,804.8594 1420.1021,794.8594 L1420.1021,768.8594" fill="#E2E2F0" style="stroke:#181818;stroke-width:0.5;"/><path d="M1420.1021,768.8594 C1420.1021,778.8594 1438.1021,778.8594 1438.1021,778.8594 C1438.1021,778.8594 1456.1021,778.8594 1456.1021,768.8594" fill="none" style="stroke:#181818;stroke-width:0.5;"/></g><g><title>MaintenanceController</title><rect fill="#FFFFFF" height="613.1328" style="stroke:#181818;stroke-width:1;" width="10" x="418.8311" y="112.4297"/></g><g><title>UpdateMaintenanceRecordUseCase</title><rect fill="#FFFFFF" height="554.8672" style="stroke:#181818;stroke-width:1;" width="10" x="667.3892" y="141.5625"/></g><g><title>MaintenanceRecordRepository</title><rect fill="#FFFFFF" height="87.3984" style="stroke:#181818;stroke-width:1;" width="10" x="1022.7021" y="170.6953"/></g><g><title>MaintenanceRecordRepository</title><rect fill="#FFFFFF" height="87.3984" style="stroke:#181818;stroke-width:1;" width="10" x="1022.7021" y="572.8984"/></g><g><title>MaintenanceRecord</title><rect fill="#FFFFFF" height="29.1328" style="stroke:#181818;stroke-width:1;" width="10" x="1223.6436" y="425.2344"/></g><g><title>MaintenanceRecord</title><rect fill="#FFFFFF" height="29.1328" style="stroke:#181818;stroke-width:1;" width="10" x="1223.6436" y="507.6328"/></g><g><title>Database</title><rect fill="#FFFFFF" height="29.1328" style="stroke:#181818;stroke-width:1;" width="10" x="1433.1021" y="199.8281"/></g><g><title>Database</title><rect fill="#FFFFFF" height="29.1328" style="stroke:#181818;stroke-width:1;" width="10" x="1433.1021" y="602.0313"/></g><g class="message" data-entity-1="part1" data-entity-2="part2" id="msg1"><polygon fill="#181818" points="406.8311,108.4297,416.8311,112.4297,406.8311,116.4297,410.8311,112.4297" style="stroke:#181818;stroke-width:1;"/><line style="stroke:#181818;stroke-width:1;" x1="93.0732" x2="412.8311" y1="112.4297" y2="112.4297"/><text fill="#000000" font-family="sans-serif" font-size="13" font-weight="bold" lengthAdjust="spacing" textLength="9.0454" x="100.0732" y="107.3638">1</text><text fill="#000000" font-family="sans-serif" font-size="13" lengthAdjust="spacing" textLength="293.7124" x="113.1187" y="107.3638">PATCH /api/maintenance/records/{id} (JSON)</text></g><g class="message" data-entity-1="part2" data-entity-2="part3" id="msg2"><polygon fill="#181818" points="655.3892,137.5625,665.3892,141.5625,655.3892,145.5625,659.3892,141.5625" style="stroke:#181818;stroke-width:1;"/><line style="stroke:#181818;stroke-width:1;" x1="428.8311" x2="661.3892" y1="141.5625" y2="141.5625"/><text fill="#000000" font-family="sans-serif" font-size="13" font-weight="bold" lengthAdjust="spacing" textLength="9.0454" x="435.8311" y="136.4966">2</text><text fill="#000000" font-family="sans-serif" font-size="13" lengthAdjust="spacing" textLength="188.0239" x="448.8765" y="136.4966">execute(id, request, version)</text></g><g class="message" data-entity-1="part3" data-entity-2="part4" id="msg3"><polygon fill="#181818" points="1010.7021,166.6953,1020.7021,170.6953,1010.7021,174.6953,1014.7021,170.6953" style="stroke:#181818;stroke-width:1;"/><line style="stroke:#181818;stroke-width:1;" x1="677.3892" x2="1016.7021" y1="170.6953" y2="170.6953"/><text fill="#000000" font-family="sans-serif" font-size="13" font-weight="bold" lengthAdjust="spacing" textLength="9.0454" x="684.3892" y="165.6294">3</text><text fill="#000000" font-family="sans-serif" font-size="13" lengthAdjust="spacing" textLength="75.3848" x="697.4346" y="165.6294">findById(id)</text></g><g class="message" data-entity-1="part4" data-entity-2="part6" id="msg4"><polygon fill="#181818" points="1421.1021,195.8281,1431.1021,199.8281,1421.1021,203.8281,1425.1021,199.8281" style="stroke:#181818;stroke-width:1;"/><line style="stroke:#181818;stroke-width:1;" x1="1032.7021" x2="1427.1021" y1="199.8281" y2="199.8281"/><text fill="#000000" font-family="sans-serif" font-size="13" font-weight="bold" lengthAdjust="spacing" textLength="9.0454" x="1039.7021" y="194.7622">4</text><text fill="#000000" font-family="sans-serif" font-size="13" lengthAdjust="spacing" textLength="333.7788" x="1052.7476" y="194.7622">SELECT * FROM maintenance_record WHERE id = ?</text></g><g class="message" data-entity-1="part6" data-entity-2="part4" id="msg5"><polygon fill="#181818" points="1043.7021,224.9609,1033.7021,228.9609,1043.7021,232.9609,1039.7021,228.9609" style="stroke:#181818;stroke-width:1;"/><line style="stroke:#181818;stroke-width:1;stroke-dasharray:2,2;" x1="1037.7021" x2="1437.1021" y1="228.9609" y2="228.9609"/><text fill="#000000" font-family="sans-serif" font-size="13" font-weight="bold" lengthAdjust="spacing" textLength="9.0454" x="1049.7021" y="223.895">5</text><text fill="#000000" font-family="sans-serif" font-size="13" lengthAdjust="spacing" textLength="75.4546" x="1062.7476" y="223.895">record data</text></g><g class="message" data-entity-1="part4" data-entity-2="part3" id="msg6"><polygon fill="#181818" points="688.3892,254.0938,678.3892,258.0938,688.3892,262.0938,684.3892,258.0938" style="stroke:#181818;stroke-width:1;"/><line style="stroke:#181818;stroke-width:1;stroke-dasharray:2,2;" x1="682.3892" x2="1026.7021" y1="258.0938" y2="258.0938"/><text fill="#000000" font-family="sans-serif" font-size="13" font-weight="bold" lengthAdjust="spacing" textLength="9.0454" x="694.3892" y="253.0278">6</text><text fill="#000000" font-family="sans-serif" font-size="13" lengthAdjust="spacing" textLength="206.1973" x="707.4346" y="253.0278">Optional&lt;MaintenanceRecord&gt;</text></g><path d="M520.1274,273.0938 L584.5703,273.0938 L584.5703,280.2266 L574.5703,290.2266 L520.1274,290.2266 L520.1274,273.0938" fill="#EEEEEE" style="stroke:#000000;stroke-width:1.5;"/><rect fill="none" height="395.2031" style="stroke:#000000;stroke-width:1.5;" width="964.375" x="520.1274" y="273.0938"/><text fill="#000000" font-family="sans-serif" font-size="13" font-weight="bold" lengthAdjust="spacing" textLength="19.4429" x="535.1274" y="286.1606">alt</text><text fill="#000000" font-family="sans-serif" font-size="11" font-weight="bold" lengthAdjust="spacing" textLength="114.501" x="599.5703" y="285.3042">[record not found]</text><g class="message" data-entity-1="part3" data-entity-2="part3" id="msg7"><line style="stroke:#181818;stroke-width:1;" x1="677.3892" x2="719.3892" y1="311.3594" y2="311.3594"/><line style="stroke:#181818;stroke-width:1;" x1="719.3892" x2="719.3892" y1="311.3594" y2="324.3594"/><line style="stroke:#181818;stroke-width:1;" x1="678.3892" x2="719.3892" y1="324.3594" y2="324.3594"/><polygon fill="#181818" points="688.3892,320.3594,678.3892,324.3594,688.3892,328.3594,684.3892,324.3594" style="stroke:#181818;stroke-width:1;"/><text fill="#000000" font-family="sans-serif" font-size="13" font-weight="bold" lengthAdjust="spacing" textLength="9.0454" x="684.3892" y="306.2935">7</text><text fill="#000000" font-family="sans-serif" font-size="13" lengthAdjust="spacing" textLength="297.9907" x="697.4346" y="306.2935">throw MaintenanceRecordNotFoundException</text></g><line style="stroke:#000000;stroke-width:1;stroke-dasharray:2,2;" x1="520.1274" x2="1484.5024" y1="333.3594" y2="333.3594"/><text fill="#000000" font-family="sans-serif" font-size="11" font-weight="bold" lengthAdjust="spacing" textLength="119.9204" x="525.1274" y="343.5698">[version mismatch]</text><g class="message" data-entity-1="part3" data-entity-2="part3" id="msg8"><line style="stroke:#181818;stroke-width:1;" x1="677.3892" x2="719.3892" y1="368.2969" y2="368.2969"/><line style="stroke:#181818;stroke-width:1;" x1="719.3892" x2="719.3892" y1="368.2969" y2="381.2969"/><line style="stroke:#181818;stroke-width:1;" x1="678.3892" x2="719.3892" y1="381.2969" y2="381.2969"/><polygon fill="#181818" points="688.3892,377.2969,678.3892,381.2969,688.3892,385.2969,684.3892,381.2969" style="stroke:#181818;stroke-width:1;"/><text fill="#000000" font-family="sans-serif" font-size="13" font-weight="bold" lengthAdjust="spacing" textLength="9.0454" x="684.3892" y="363.231">8</text><text fill="#000000" font-family="sans-serif" font-size="13" lengthAdjust="spacing" textLength="308.2676" x="697.4346" y="363.231">throw ObjectOptimisticLockingFailureException</text></g><line style="stroke:#000000;stroke-width:1;stroke-dasharray:2,2;" x1="520.1274" x2="1484.5024" y1="390.2969" y2="390.2969"/><text fill="#000000" font-family="sans-serif" font-size="11" font-weight="bold" lengthAdjust="spacing" textLength="105.6226" x="525.1274" y="400.5073">[update allowed]</text><g class="message" data-entity-1="part3" data-entity-2="part5" id="msg9"><polygon fill="#181818" points="1211.6436,421.2344,1221.6436,425.2344,1211.6436,429.2344,1215.6436,425.2344" style="stroke:#181818;stroke-width:1;"/><line style="stroke:#181818;stroke-width:1;" x1="677.3892" x2="1217.6436" y1="425.2344" y2="425.2344"/><text fill="#000000" font-family="sans-serif" font-size="13" font-weight="bold" lengthAdjust="spacing" textLength="9.0454" x="684.3892" y="420.1685">9</text><text fill="#000000" font-family="sans-serif" font-size="13" lengthAdjust="spacing" textLength="165.2168" x="697.4346" y="420.1685">setStatus(request.status)</text></g><g class="message" data-entity-1="part5" data-entity-2="part3" id="msg10"><polygon fill="#181818" points="688.3892,450.3672,678.3892,454.3672,688.3892,458.3672,684.3892,454.3672" style="stroke:#181818;stroke-width:1;"/><line style="stroke:#181818;stroke-width:1;stroke-dasharray:2,2;" x1="682.3892" x2="1227.6436" y1="454.3672" y2="454.3672"/><text fill="#000000" font-family="sans-serif" font-size="13" font-weight="bold" lengthAdjust="spacing" textLength="18.0908" x="694.3892" y="449.3013">10</text><text fill="#000000" font-family="sans-serif" font-size="13" lengthAdjust="spacing" textLength="4.1323" x="716.48" y="449.3013">&#160;</text></g><path d="M530.1274,469.3672 L599.5786,469.3672 L599.5786,476.5 L589.5786,486.5 L530.1274,486.5 L530.1274,469.3672" fill="#EEEEEE" style="stroke:#000000;stroke-width:1.5;"/><rect fill="none" height="75.3984" style="stroke:#000000;stroke-width:1.5;" width="785.2188" x="530.1274" y="469.3672"/><text fill="#000000" font-family="sans-serif" font-size="13" font-weight="bold" lengthAdjust="spacing" textLength="24.4512" x="545.1274" y="482.4341">opt</text><text fill="#000000" font-family="sans-serif" font-size="11" font-weight="bold" lengthAdjust="spacing" textLength="193.021" x="614.5786" y="481.5776">[notes provided and not blank]</text><g class="message" data-entity-1="part3" data-entity-2="part5" id="msg11"><polygon fill="#181818" points="1211.6436,503.6328,1221.6436,507.6328,1211.6436,511.6328,1215.6436,507.6328" style="stroke:#181818;stroke-width:1;"/><line style="stroke:#181818;stroke-width:1;" x1="677.3892" x2="1217.6436" y1="507.6328" y2="507.6328"/><text fill="#000000" font-family="sans-serif" font-size="13" font-weight="bold" lengthAdjust="spacing" textLength="18.0908" x="684.3892" y="502.5669">11</text><text fill="#000000" font-family="sans-serif" font-size="13" lengthAdjust="spacing" textLength="157.4536" x="706.48" y="502.5669">setNotes(request.notes)</text></g><g class="message" data-entity-1="part5" data-entity-2="part3" id="msg12"><polygon fill="#181818" points="688.3892,532.7656,678.3892,536.7656,688.3892,540.7656,684.3892,536.7656" style="stroke:#181818;stroke-width:1;"/><line style="stroke:#181818;stroke-width:1;stroke-dasharray:2,2;" x1="682.3892" x2="1227.6436" y1="536.7656" y2="536.7656"/><text fill="#000000" font-family="sans-serif" font-size="13" font-weight="bold" lengthAdjust="spacing" textLength="18.0908" x="694.3892" y="531.6997">12</text><text fill="#000000" font-family="sans-serif" font-size="13" lengthAdjust="spacing" textLength="4.1323" x="716.48" y="531.6997">&#160;</text></g><g class="message" data-entity-1="part3" data-entity-2="part4" id="msg13"><polygon fill="#181818" points="1010.7021,568.8984,1020.7021,572.8984,1010.7021,576.8984,1014.7021,572.8984" style="stroke:#181818;stroke-width:1;"/><line style="stroke:#181818;stroke-width:1;" x1="677.3892" x2="1016.7021" y1="572.8984" y2="572.8984"/><text fill="#000000" font-family="sans-serif" font-size="13" font-weight="bold" lengthAdjust="spacing" textLength="18.0908" x="684.3892" y="567.8325">13</text><text fill="#000000" font-family="sans-serif" font-size="13" lengthAdjust="spacing" textLength="82.6147" x="706.48" y="567.8325">save(record)</text></g><g class="message" data-entity-1="part4" data-entity-2="part6" id="msg14"><polygon fill="#181818" points="1421.1021,598.0313,1431.1021,602.0313,1421.1021,606.0313,1425.1021,602.0313" style="stroke:#181818;stroke-width:1;"/><line style="stroke:#181818;stroke-width:1;" x1="1032.7021" x2="1427.1021" y1="602.0313" y2="602.0313"/><text fill="#000000" font-family="sans-serif" font-size="13" font-weight="bold" lengthAdjust="spacing" textLength="18.0908" x="1039.7021" y="596.9653">14</text><text fill="#000000" font-family="sans-serif" font-size="13" lengthAdjust="spacing" textLength="359.3091" x="1061.793" y="596.9653">UPDATE maintenance_record SET status = ?, notes = ?</text></g><g class="message" data-entity-1="part6" data-entity-2="part4" id="msg15"><polygon fill="#181818" points="1043.7021,627.1641,1033.7021,631.1641,1043.7021,635.1641,1039.7021,631.1641" style="stroke:#181818;stroke-width:1;"/><line style="stroke:#181818;stroke-width:1;stroke-dasharray:2,2;" x1="1037.7021" x2="1437.1021" y1="631.1641" y2="631.1641"/><text fill="#000000" font-family="sans-serif" font-size="13" font-weight="bold" lengthAdjust="spacing" textLength="18.0908" x="1049.7021" y="626.0981">15</text><text fill="#000000" font-family="sans-serif" font-size="13" lengthAdjust="spacing" textLength="100.2295" x="1071.793" y="626.0981">updated record</text></g><g class="message" data-entity-1="part4" data-entity-2="part3" id="msg16"><polygon fill="#181818" points="688.3892,656.2969,678.3892,660.2969,688.3892,664.2969,684.3892,660.2969" style="stroke:#181818;stroke-width:1;"/><line style="stroke:#181818;stroke-width:1;stroke-dasharray:2,2;" x1="682.3892" x2="1026.7021" y1="660.2969" y2="660.2969"/><text fill="#000000" font-family="sans-serif" font-size="13" font-weight="bold" lengthAdjust="spacing" textLength="18.0908" x="694.3892" y="655.231">16</text><text fill="#000000" font-family="sans-serif" font-size="13" lengthAdjust="spacing" textLength="99.7852" x="716.48" y="655.231">updatedRecord</text></g><g class="message" data-entity-1="part3" data-entity-2="part2" id="msg17"><polygon fill="#181818" points="439.8311,692.4297,429.8311,696.4297,439.8311,700.4297,435.8311,696.4297" style="stroke:#181818;stroke-width:1;"/><line style="stroke:#181818;stroke-width:1;stroke-dasharray:2,2;" x1="433.8311" x2="671.3892" y1="696.4297" y2="696.4297"/><text fill="#000000" font-family="sans-serif" font-size="13" font-weight="bold" lengthAdjust="spacing" textLength="18.0908" x="445.8311" y="691.3638">17</text><text fill="#000000" font-family="sans-serif" font-size="13" lengthAdjust="spacing" textLength="192.4673" x="467.9219" y="691.3638">MaintenanceRecordResponse</text></g><g class="message" data-entity-1="part2" data-entity-2="part1" id="msg18"><polygon fill="#181818" points="104.0732,721.5625,94.0732,725.5625,104.0732,729.5625,100.0732,725.5625" style="stroke:#181818;stroke-width:1;"/><line style="stroke:#181818;stroke-width:1;stroke-dasharray:2,2;" x1="98.0732" x2="422.8311" y1="725.5625" y2="725.5625"/><text fill="#000000" font-family="sans-serif" font-size="13" font-weight="bold" lengthAdjust="spacing" textLength="18.0908" x="110.0732" y="720.4966">18</text><text fill="#000000" font-family="sans-serif" font-size="13" lengthAdjust="spacing" textLength="166.1309" x="132.1641" y="720.4966">200 OK (JSON with _links)</text></g><?plantuml-src XLJ1Sjem4BtxAtOuGOUKJ8-PDfrWpAHjW0oOwJ4Zh4rHCP8hoH0cqt_lIZ9W4sVA2SlllNsx-onMMYNBxGfrn3AhD7GcJ4YBaiaC8SLiBKKccEm0Cp19eu9fImS5axO1ZPMqMkKvQe-ChSwRs6N1cSKQOuwPqdnfC6O6FMaPloiVm7Cib17ayk3nxl4_38zBf1Ns455zjg9Qq1bL__pRqJ2Qf71rwpt33JpUfV4z35WX1jkpt41xFJDu5VmlTBylPjEUcvZOKLUXNSyddMLCAlY2MMcnAtWVDFufqTW-x50ReMIDI2qJd4Yk5w8z2yc7Xs-SU3MKRzGZ23aQ4cwHF2Hn2XzWF9zDeERpAVY4d_V9F071uGjyFGjHhqI_EjUhq6uq4SSwBfGxjZChB1bd-USt4xwjyxnHbjkZhbGMdbKfUGJq2vrwFRlMQWzlnARAZXqyUSdGLummfuLLSuEjC5jcitMxscpr6pFhd1AECl6WiesGlyPCvAN62ydInn5Odgizrks5i92eGRkmp9QcM-tle_6FFGy-jLo5ovrLr30qVr8RJGsd2kicWmOAhNQ28mScmx1MEPCR3sftD7Mqao4lqZl1ssgr-thV6pPsLQN4i1rsmqelklSBToUDT2uVHtTfqXRBHP926ACBPhyQWyjeGvRovvwRMGqhurMsBk9wzd0CHGKFmRhSXlVjUdLzdh_zbXl754eQh5UZ6OPFdNXqSzp0f-jhcFq8bmBiXLt3KoxaXZPJOpdAFm00?></g></svg>