<?plantuml 1.2026.1?><svg xmlns="http://www.w3.org/2000/svg" xmlns:xlink="http://www.w3.org/1999/xlink" contentStyleType="text/css" data-diagram-type="SEQUENCE" height="867px" preserveAspectRatio="none" style="width:1667px;height:867px;background:#FFFFFF;" version="1.1" viewBox="0 0 1667 867" width="1667px" zoomAndPan="magnify"><defs/><g><g><title>AircraftModelController</title><rect fill="#FFFFFF" height="619.125" style="stroke:#181818;stroke-width:1;" width="10" x="459.8662" y="157.8281"/></g><g><title>RegisterAircraftModelUseCase</title><rect fill="#FFFFFF" height="419.9297" style="stroke:#181818;stroke-width:1;" width="10" x="816.9521" y="297.7578"/></g><g><title>AircraftModelRepository</title><rect fill="#FFFFFF" height="87.3984" style="stroke:#181818;stroke-width:1;" width="10" x="1143.8931" y="326.8906"/></g><g><title>AircraftModelRepository</title><rect fill="#FFFFFF" height="87.3984" style="stroke:#181818;stroke-width:1;" width="10" x="1143.8931" y="555.7578"/></g><g><title>Database</title><rect fill="#FFFFFF" height="29.1328" style="stroke:#181818;stroke-width:1;" width="10" x="1608.6606" y="356.0234"/></g><g><title>Database</title><rect fill="#FFFFFF" height="29.1328" style="stroke:#181818;stroke-width:1;" width="10" x="1608.6606" y="584.8906"/></g><rect fill="none" height="340.6641" style="stroke:#000000;stroke-width:1.5;" width="1650.061" x="10" y="429.2891"/><g class="participant-lifeline" data-entity-uid="part1" data-qualified-name="BO" id="part1-lifeline"><g><title>Backoffice Operator</title><rect fill="#000000" fill-opacity="0.00000" height="705.6563" width="8" x="88.8633" y="81.2969"/><line style="stroke:#181818;stroke-width:0.5;stroke-dasharray:5,5;" x1="92" x2="92" y1="81.2969" y2="786.9531"/></g></g><g class="participant-lifeline" data-entity-uid="part2" data-qualified-name="Ctrl" id="part2-lifeline"><g><title>AircraftModelController</title><rect fill="#000000" fill-opacity="0.00000" height="705.6563" width="8" x="460.8662" y="81.2969"/><line style="stroke:#181818;stroke-width:0.5;stroke-dasharray:5,5;" x1="464.4263" x2="464.4263" y1="81.2969" y2="786.9531"/></g></g><g class="participant-lifeline" data-entity-uid="part3" data-qualified-name="UC" id="part3-lifeline"><g><title>RegisterAircraftModelUseCase</title><rect fill="#000000" fill-opacity="0.00000" height="705.6563" width="8" x="817.9521" y="81.2969"/><line style="stroke:#181818;stroke-width:0.5;stroke-dasharray:5,5;" x1="821.7559" x2="821.7559" y1="81.2969" y2="786.9531"/></g></g><g class="participant-lifeline" data-entity-uid="part4" data-qualified-name="Repo" id="part4-lifeline"><g><title>AircraftModelRepository</title><rect fill="#000000" fill-opacity="0.00000" height="705.6563" width="8" x="1144.8931" y="81.2969"/><line style="stroke:#181818;stroke-width:0.5;stroke-dasharray:5,5;" x1="1148.5034" x2="1148.5034" y1="81.2969" y2="786.9531"/></g></g><g class="participant-lifeline" data-entity-uid="part5" data-qualified-name="DB" id="part5-lifeline"><g><title>Database</title><rect fill="#000000" fill-opacity="0.00000" height="705.6563" width="8" x="1609.6606" y="81.2969"/><line style="stroke:#181818;stroke-width:0.5;stroke-dasharray:5,5;" x1="1613.2603" x2="1613.2603" y1="81.2969" y2="786.9531"/></g></g><g class="participant participant-head" data-entity-uid="part1" data-qualified-name="BO" id="part1-head"><text fill="#000000" font-family="sans-serif" font-size="14" lengthAdjust="spacing" textLength="139.7266" x="20" y="77.9951">Backoffice Operator</text><ellipse cx="92.8633" cy="13.5" fill="#E2E2F0" rx="8" ry="8" style="stroke:#181818;stroke-width:0.5;"/><path d="M92.8633,21.5 L92.8633,48.5 M79.8633,29.5 L105.8633,29.5 M92.8633,48.5 L79.8633,63.5 M92.8633,48.5 L105.8633,63.5" fill="none" style="stroke:#181818;stroke-width:0.5;"/></g><g class="participant participant-tail" data-entity-uid="part1" data-qualified-name="BO" id="part1-tail"><text fill="#000000" font-family="sans-serif" font-size="14" lengthAdjust="spacing" textLength="139.7266" x="20" y="798.9482">Backoffice Operator</text><ellipse cx="92.8633" cy="810.75" fill="#E2E2F0" rx="8" ry="8" style="stroke:#181818;stroke-width:0.5;"/><path d="M92.8633,818.75 L92.8633,845.75 M79.8633,826.75 L105.8633,826.75 M92.8633,845.75 L79.8633,860.75 M92.8633,845.75 L105.8633,860.75" fill="none" style="stroke:#181818;stroke-width:0.5;"/></g><g class="participant participant-head" data-entity-uid="part2" data-qualified-name="Ctrl" id="part2-head"><rect fill="#E2E2F0" height="30.2969" rx="2.5" ry="2.5" style="stroke:#181818;stroke-width:0.5;" width="176.8799" x="376.4263" y="50"/><text fill="#000000" font-family="sans-serif" font-size="14" lengthAdjust="spacing" textLength="162.8799" x="383.4263" y="69.9951">AircraftModelController</text></g><g class="participant participant-tail" data-entity-uid="part2" data-qualified-name="Ctrl" id="part2-tail"><rect fill="#E2E2F0" height="30.2969" rx="2.5" ry="2.5" style="stroke:#181818;stroke-width:0.5;" width="176.8799" x="376.4263" y="785.9531"/><text fill="#000000" font-family="sans-serif" font-size="14" lengthAdjust="spacing" textLength="162.8799" x="383.4263" y="805.9482">AircraftModelController</text></g><g class="participant participant-head" data-entity-uid="part3" data-qualified-name="UC" id="part3-head"><rect fill="#E2E2F0" height="30.2969" rx="2.5" ry="2.5" style="stroke:#181818;stroke-width:0.5;" width="226.3926" x="708.7559" y="50"/><text fill="#000000" font-family="sans-serif" font-size="14" lengthAdjust="spacing" textLength="212.3926" x="715.7559" y="69.9951">RegisterAircraftModelUseCase</text></g><g class="participant participant-tail" data-entity-uid="part3" data-qualified-name="UC" id="part3-tail"><rect fill="#E2E2F0" height="30.2969" rx="2.5" ry="2.5" style="stroke:#181818;stroke-width:0.5;" width="226.3926" x="708.7559" y="785.9531"/><text fill="#000000" font-family="sans-serif" font-size="14" lengthAdjust="spacing" textLength="212.3926" x="715.7559" y="805.9482">RegisterAircraftModelUseCase</text></g><g class="participant participant-head" data-entity-uid="part4" data-qualified-name="Repo" id="part4-head"><rect fill="#E2E2F0" height="30.2969" rx="2.5" ry="2.5" style="stroke:#181818;stroke-width:0.5;" width="182.7793" x="1057.5034" y="50"/><text fill="#000000" font-family="sans-serif" font-size="14" lengthAdjust="spacing" textLength="168.7793" x="1064.5034" y="69.9951">AircraftModelRepository</text></g><g class="participant participant-tail" data-entity-uid="part4" data-qualified-name="Repo" id="part4-tail"><rect fill="#E2E2F0" height="30.2969" rx="2.5" ry="2.5" style="stroke:#181818;stroke-width:0.5;" width="182.7793" x="1057.5034" y="785.9531"/><text fill="#000000" font-family="sans-serif" font-size="14" lengthAdjust="spacing" textLength="168.7793" x="1064.5034" y="805.9482">AircraftModelRepository</text></g><g class="participant participant-head" data-entity-uid="part5" data-qualified-name="DB" id="part5-head"><text fill="#000000" font-family="sans-serif" font-size="14" lengthAdjust="spacing" textLength="66.8008" x="1577.2603" y="77.9951">Database</text><path d="M1595.6606,29 C1595.6606,19 1613.6606,19 1613.6606,19 C1613.6606,19 1631.6606,19 1631.6606,29 L1631.6606,55 C1631.6606,65 1613.6606,65 1613.6606,65 C1613.6606,65 1595.6606,65 1595.6606,55 L1595.6606,29" fill="#E2E2F0" style="stroke:#181818;stroke-width:0.5;"/><path d="M1595.6606,29 C1595.6606,39 1613.6606,39 1613.6606,39 C1613.6606,39 1631.6606,39 1631.6606,29" fill="none" style="stroke:#181818;stroke-width:0.5;"/></g><g class="participant participant-tail" data-entity-uid="part5" data-qualified-name="DB" id="part5-tail"><text fill="#000000" font-family="sans-serif" font-size="14" lengthAdjust="spacing" textLength="66.8008" x="1577.2603" y="798.9482">Database</text><path d="M1595.6606,812.25 C1595.6606,802.25 1613.6606,802.25 1613.6606,802.25 C1613.6606,802.25 1631.6606,802.25 1631.6606,812.25 L1631.6606,838.25 C1631.6606,848.25 1613.6606,848.25 1613.6606,848.25 C1613.6606,848.25 1595.6606,848.25 1595.6606,838.25 L1595.6606,812.25" fill="#E2E2F0" style="stroke:#181818;stroke-width:0.5;"/><path d="M1595.6606,812.25 C1595.6606,822.25 1613.6606,822.25 1613.6606,822.25 C1613.6606,822.25 1631.6606,822.25 1631.6606,812.25" fill="none" style="stroke:#181818;stroke-width:0.5;"/></g><g><title>AircraftModelController</title><rect fill="#FFFFFF" height="619.125" style="stroke:#181818;stroke-width:1;" width="10" x="459.8662" y="157.8281"/></g><g><title>RegisterAircraftModelUseCase</title><rect fill="#FFFFFF" height="419.9297" style="stroke:#181818;stroke-width:1;" width="10" x="816.9521" y="297.7578"/></g><g><title>AircraftModelRepository</title><rect fill="#FFFFFF" height="87.3984" style="stroke:#181818;stroke-width:1;" width="10" x="1143.8931" y="326.8906"/></g><g><title>AircraftModelRepository</title><rect fill="#FFFFFF" height="87.3984" style="stroke:#181818;stroke-width:1;" width="10" x="1143.8931" y="555.7578"/></g><g><title>Database</title><rect fill="#FFFFFF" height="29.1328" style="stroke:#181818;stroke-width:1;" width="10" x="1608.6606" y="356.0234"/></g><g><title>Database</title><rect fill="#FFFFFF" height="29.1328" style="stroke:#181818;stroke-width:1;" width="10" x="1608.6606" y="584.8906"/></g><g class="message" data-entity-1="part1" data-entity-2="part2" id="msg1"><polygon fill="#181818" points="447.8662,153.8281,457.8662,157.8281,447.8662,161.8281,451.8662,157.8281" style="stroke:#181818;stroke-width:1;"/><line style="stroke:#181818;stroke-width:1;" x1="92.8633" x2="453.8662" y1="157.8281" y2="157.8281"/><text fill="#000000" font-family="sans-serif" font-size="13" font-weight="bold" lengthAdjust="spacing" textLength="9.0454" x="99.8633" y="130.063">1</text><text fill="#000000" font-family="sans-serif" font-size="13" lengthAdjust="spacing" textLength="159.8467" x="112.9087" y="107.3638">POST /api/aircraftModels</text><text fill="#000000" font-family="sans-serif" font-size="13" lengthAdjust="spacing" textLength="270.5308" x="112.9087" y="122.4966">{ modelName, manufacturer, maxRange,</text><text fill="#000000" font-family="sans-serif" font-size="13" lengthAdjust="spacing" textLength="185.6055" x="121.1733" y="137.6294">fuelCapacity, cruisingSpeed,</text><text fill="#000000" font-family="sans-serif" font-size="13" lengthAdjust="spacing" textLength="262.0313" x="121.1733" y="152.7622">maximumSeatingCapacity, imagePath }</text></g><path d="M474,170.8281 L474,270.8281 L818,270.8281 L818,180.8281 L808,170.8281 L474,170.8281" fill="#FEFFDD" style="stroke:#181818;stroke-width:0.5;"/><path d="M808,170.8281 L808,180.8281 L818,180.8281 L808,170.8281" fill="#FEFFDD" style="stroke:#181818;stroke-width:0.5;"/><text fill="#000000" font-family="sans-serif" font-size="13" lengthAdjust="spacing" textLength="268.6836" x="480" y="187.895">@Valid on RegisterAircraftModelRequest:</text><text fill="#000000" font-family="sans-serif" font-size="13" lengthAdjust="spacing" textLength="157.187" x="480" y="203.0278">- modelName: not blank</text><text fill="#000000" font-family="sans-serif" font-size="13" lengthAdjust="spacing" textLength="206.6987" x="480" y="218.1606">- manufacturer: not null (enum)</text><text fill="#000000" font-family="sans-serif" font-size="13" lengthAdjust="spacing" textLength="323.4766" x="480" y="233.2935">- maxRange, fuelCapacity, cruisingSpeed: &gt;= 1.0</text><text fill="#000000" font-family="sans-serif" font-size="13" lengthAdjust="spacing" textLength="223.2534" x="480" y="248.4263">- maximumSeatingCapacity: &gt;= 1</text><text fill="#000000" font-family="sans-serif" font-size="13" lengthAdjust="spacing" textLength="147.9893" x="480" y="263.5591">- imagePath: not blank</text><g class="message" data-entity-1="part2" data-entity-2="part3" id="msg2"><polygon fill="#181818" points="804.9521,293.7578,814.9521,297.7578,804.9521,301.7578,808.9521,297.7578" style="stroke:#181818;stroke-width:1;"/><line style="stroke:#181818;stroke-width:1;" x1="469.8662" x2="810.9521" y1="297.7578" y2="297.7578"/><text fill="#000000" font-family="sans-serif" font-size="13" font-weight="bold" lengthAdjust="spacing" textLength="9.0454" x="476.8662" y="292.6919">2</text><text fill="#000000" font-family="sans-serif" font-size="13" lengthAdjust="spacing" textLength="315.0405" x="489.9116" y="292.6919">execute(request: RegisterAircraftModelRequest)</text></g><g class="message" data-entity-1="part3" data-entity-2="part4" id="msg3"><polygon fill="#181818" points="1131.8931,322.8906,1141.8931,326.8906,1131.8931,330.8906,1135.8931,326.8906" style="stroke:#181818;stroke-width:1;"/><line style="stroke:#181818;stroke-width:1;" x1="826.9521" x2="1137.8931" y1="326.8906" y2="326.8906"/><text fill="#000000" font-family="sans-serif" font-size="13" font-weight="bold" lengthAdjust="spacing" textLength="9.0454" x="833.9521" y="321.8247">3</text><text fill="#000000" font-family="sans-serif" font-size="13" lengthAdjust="spacing" textLength="284.8955" x="846.9976" y="321.8247">existsByModelName(request.modelName())</text></g><g class="message" data-entity-1="part4" data-entity-2="part5" id="msg4"><polygon fill="#181818" points="1596.6606,352.0234,1606.6606,356.0234,1596.6606,360.0234,1600.6606,356.0234" style="stroke:#181818;stroke-width:1;"/><line style="stroke:#181818;stroke-width:1;" x1="1153.8931" x2="1602.6606" y1="356.0234" y2="356.0234"/><text fill="#000000" font-family="sans-serif" font-size="13" font-weight="bold" lengthAdjust="spacing" textLength="9.0454" x="1160.8931" y="350.9575">4</text><text fill="#000000" font-family="sans-serif" font-size="13" lengthAdjust="spacing" textLength="422.7222" x="1173.9385" y="350.9575">SELECT COUNT(*) FROM aircraft_model WHERE model_name = ?</text></g><g class="message" data-entity-1="part5" data-entity-2="part4" id="msg5"><polygon fill="#181818" points="1164.8931,381.1563,1154.8931,385.1563,1164.8931,389.1563,1160.8931,385.1563" style="stroke:#181818;stroke-width:1;"/><line style="stroke:#181818;stroke-width:1;stroke-dasharray:2,2;" x1="1158.8931" x2="1612.6606" y1="385.1563" y2="385.1563"/><text fill="#000000" font-family="sans-serif" font-size="13" font-weight="bold" lengthAdjust="spacing" textLength="9.0454" x="1170.8931" y="380.0903">5</text><text fill="#000000" font-family="sans-serif" font-size="13" lengthAdjust="spacing" textLength="36.6768" x="1183.9385" y="380.0903">count</text></g><g class="message" data-entity-1="part4" data-entity-2="part3" id="msg6"><polygon fill="#181818" points="837.9521,410.2891,827.9521,414.2891,837.9521,418.2891,833.9521,414.2891" style="stroke:#181818;stroke-width:1;"/><line style="stroke:#181818;stroke-width:1;stroke-dasharray:2,2;" x1="831.9521" x2="1147.8931" y1="414.2891" y2="414.2891"/><text fill="#000000" font-family="sans-serif" font-size="13" font-weight="bold" lengthAdjust="spacing" textLength="9.0454" x="843.9521" y="409.2231">6</text><text fill="#000000" font-family="sans-serif" font-size="13" lengthAdjust="spacing" textLength="51.9746" x="856.9976" y="409.2231">boolean</text></g><path d="M10,429.2891 L74.4429,429.2891 L74.4429,436.4219 L64.4429,446.4219 L10,446.4219 L10,429.2891" fill="#EEEEEE" style="stroke:#000000;stroke-width:1.5;"/><rect fill="none" height="340.6641" style="stroke:#000000;stroke-width:1.5;" width="1650.061" x="10" y="429.2891"/><text fill="#000000" font-family="sans-serif" font-size="13" font-weight="bold" lengthAdjust="spacing" textLength="19.4429" x="25" y="442.356">alt</text><text fill="#000000" font-family="sans-serif" font-size="11" font-weight="bold" lengthAdjust="spacing" textLength="177.0688" x="89.4429" y="441.4995">[model name already exists]</text><g class="message" data-entity-1="part3" data-entity-2="part2" id="msg7"><polygon fill="#181818" points="480.8662,463.5547,470.8662,467.5547,480.8662,471.5547,476.8662,467.5547" style="stroke:#181818;stroke-width:1;"/><line style="stroke:#181818;stroke-width:1;stroke-dasharray:2,2;" x1="474.8662" x2="815.9521" y1="467.5547" y2="467.5547"/><text fill="#000000" font-family="sans-serif" font-size="13" font-weight="bold" lengthAdjust="spacing" textLength="9.0454" x="486.8662" y="462.4888">7</text><text fill="#000000" font-family="sans-serif" font-size="13" lengthAdjust="spacing" textLength="287.314" x="499.9116" y="462.4888">throws AircraftModelAlreadyExistsException</text></g><g class="message" data-entity-1="part2" data-entity-2="part1" id="msg8"><polygon fill="#181818" points="103.8633,507.8203,93.8633,511.8203,103.8633,515.8203,99.8633,511.8203" style="stroke:#181818;stroke-width:1;"/><line style="stroke:#181818;stroke-width:1;stroke-dasharray:2,2;" x1="97.8633" x2="458.8662" y1="511.8203" y2="511.8203"/><text fill="#000000" font-family="sans-serif" font-size="13" font-weight="bold" lengthAdjust="spacing" textLength="9.0454" x="109.8633" y="499.188">8</text><text fill="#000000" font-family="sans-serif" font-size="13" lengthAdjust="spacing" textLength="78.2603" x="122.9087" y="491.6216">409 Conflict</text><text fill="#000000" font-family="sans-serif" font-size="13" lengthAdjust="spacing" textLength="319.1475" x="122.9087" y="506.7544">{ message: "Aircraft model '...' already exists." }</text></g><line style="stroke:#000000;stroke-width:1;stroke-dasharray:2,2;" x1="10" x2="1660.061" y1="520.8203" y2="520.8203"/><text fill="#000000" font-family="sans-serif" font-size="11" font-weight="bold" lengthAdjust="spacing" textLength="146.7598" x="15" y="531.0308">[model name is unique]</text><g class="message" data-entity-1="part3" data-entity-2="part4" id="msg9"><polygon fill="#181818" points="1131.8931,551.7578,1141.8931,555.7578,1131.8931,559.7578,1135.8931,555.7578" style="stroke:#181818;stroke-width:1;"/><line style="stroke:#181818;stroke-width:1;" x1="826.9521" x2="1137.8931" y1="555.7578" y2="555.7578"/><text fill="#000000" font-family="sans-serif" font-size="13" font-weight="bold" lengthAdjust="spacing" textLength="9.0454" x="833.9521" y="550.6919">9</text><text fill="#000000" font-family="sans-serif" font-size="13" lengthAdjust="spacing" textLength="181.1304" x="846.9976" y="550.6919">save(new AircraftModel(...))</text></g><g class="message" data-entity-1="part4" data-entity-2="part5" id="msg10"><polygon fill="#181818" points="1596.6606,580.8906,1606.6606,584.8906,1596.6606,588.8906,1600.6606,584.8906" style="stroke:#181818;stroke-width:1;"/><line style="stroke:#181818;stroke-width:1;" x1="1153.8931" x2="1602.6606" y1="584.8906" y2="584.8906"/><text fill="#000000" font-family="sans-serif" font-size="13" font-weight="bold" lengthAdjust="spacing" textLength="18.0908" x="1160.8931" y="579.8247">10</text><text fill="#000000" font-family="sans-serif" font-size="13" lengthAdjust="spacing" textLength="181.0288" x="1182.9839" y="579.8247">INSERT INTO aircraft_model</text></g><g class="message" data-entity-1="part5" data-entity-2="part4" id="msg11"><polygon fill="#181818" points="1164.8931,610.0234,1154.8931,614.0234,1164.8931,618.0234,1160.8931,614.0234" style="stroke:#181818;stroke-width:1;"/><line style="stroke:#181818;stroke-width:1;stroke-dasharray:2,2;" x1="1158.8931" x2="1612.6606" y1="614.0234" y2="614.0234"/><text fill="#000000" font-family="sans-serif" font-size="13" font-weight="bold" lengthAdjust="spacing" textLength="18.0908" x="1170.8931" y="608.9575">11</text><text fill="#000000" font-family="sans-serif" font-size="13" lengthAdjust="spacing" textLength="215.9663" x="1192.9839" y="608.9575">saved record (with generated ID)</text></g><g class="message" data-entity-1="part4" data-entity-2="part3" id="msg12"><polygon fill="#181818" points="837.9521,639.1563,827.9521,643.1563,837.9521,647.1563,833.9521,643.1563" style="stroke:#181818;stroke-width:1;"/><line style="stroke:#181818;stroke-width:1;stroke-dasharray:2,2;" x1="831.9521" x2="1147.8931" y1="643.1563" y2="643.1563"/><text fill="#000000" font-family="sans-serif" font-size="13" font-weight="bold" lengthAdjust="spacing" textLength="18.0908" x="843.9521" y="638.0903">12</text><text fill="#000000" font-family="sans-serif" font-size="13" lengthAdjust="spacing" textLength="87.0137" x="866.043" y="638.0903">AircraftModel</text></g><g class="message" data-entity-1="part3" data-entity-2="part2" id="msg13"><polygon fill="#181818" points="480.8662,713.6875,470.8662,717.6875,480.8662,721.6875,476.8662,717.6875" style="stroke:#181818;stroke-width:1;"/><line style="stroke:#181818;stroke-width:1;stroke-dasharray:2,2;" x1="474.8662" x2="820.9521" y1="717.6875" y2="717.6875"/><text fill="#000000" font-family="sans-serif" font-size="13" font-weight="bold" lengthAdjust="spacing" textLength="18.0908" x="486.8662" y="689.9224">13</text><text fill="#000000" font-family="sans-serif" font-size="13" lengthAdjust="spacing" textLength="150.0332" x="508.957" y="667.2231">AircraftModelResponse</text><text fill="#000000" font-family="sans-serif" font-size="13" lengthAdjust="spacing" textLength="212.583" x="508.957" y="682.356">{ id, modelName, manufacturer,</text><text fill="#000000" font-family="sans-serif" font-size="13" lengthAdjust="spacing" textLength="263.6816" x="517.2217" y="697.4888">fuelCapacity, maxRange, cruisingSpeed,</text><text fill="#000000" font-family="sans-serif" font-size="13" lengthAdjust="spacing" textLength="262.0313" x="517.2217" y="712.6216">imagePath, maximumSeatingCapacity }</text></g><g class="message" data-entity-1="part2" data-entity-2="part1" id="msg14"><polygon fill="#181818" points="103.8633,757.9531,93.8633,761.9531,103.8633,765.9531,99.8633,761.9531" style="stroke:#181818;stroke-width:1;"/><line style="stroke:#181818;stroke-width:1;stroke-dasharray:2,2;" x1="97.8633" x2="458.8662" y1="761.9531" y2="761.9531"/><text fill="#000000" font-family="sans-serif" font-size="13" font-weight="bold" lengthAdjust="spacing" textLength="18.0908" x="109.8633" y="749.3208">14</text><text fill="#000000" font-family="sans-serif" font-size="13" lengthAdjust="spacing" textLength="80.6787" x="131.9541" y="741.7544">201 Created</text><text fill="#000000" font-family="sans-serif" font-size="13" lengthAdjust="spacing" textLength="320.9121" x="131.9541" y="756.8872">EntityModel&lt;AircraftModelResponse&gt; with _links</text></g><?plantuml-src VLHDRzim3BtxLn2vD1dIj1rsMR1sQnmFAx3KXPDibm85OpEfK4Vo9BbjCEo_ZvAJs4u_JfObykdnFL9OMYNBzO9qWAbL6ZeZJ1_KSYbIWhWWZRpP0JGmYeC2jHMfA51Qw5mAdMfSsedAA0-Lj5hbELMneTLvEpgXbJ2MT2jhRYX4Gpvb7hu3dr2XZ60c6n_hVeCCBIuu6phZxSgVZKT1C8hX-CAJW27SnDCPd60XJh09QMxbNrYxrJMkgGzhbEMI9IWrQVVtdA1SKVzM0YnBBX0BJ8NTz27LfJ12hgO5KURFELYio_MKqF9-7IdMkA8RjFVmpuah7j5I9KqW5I-rMDrRKCjg3-3RByn51ah2gsebzASaOuSSULmp7m9ZmI97-L0TDEgepcIPvz0bThctZTZMzbvXGxWuXxF1wIxZbGAh41-mhxJ9XcJc_YW8l1Fio3naF-YPqj9ILs_BURVONYqSDqZ000pZxFT0d6P6cybEYXtaO2zEjzS0y5tZSnbZF6A4QVGp2cSGnlFhMVT33xudyGHsNNBdKU3tZoY9Ahdl94F2ENojCRdR6Ecu9fMgKjeWesP4TUUk_eLIEQ5indXc0UQskWVyFPXhmcopBPDbTiNNRMtljNeoq1Bjiag9V4Rqd59XXPASMXd0oJmPG_Xq-XbuO9UvIAsV0ZA6_HlMGxVbSJGO38uEY0mwtCqyFjJaAWoKKh3uMvfxEGm-KbVIKvjdbt5xhXdR2W2qtBcwdaR9Z3-p-C2KPYRh2z3sm5sQWQPKwGowJu87S4NIFMMyVJLs5xSDsbsyiwX5jXrTMNLena7hca99GqvQaVNVV6HUFYtrPBvyPFOZrdzZ7DcM5bEUbqFZFvwUGSXciWwtCfAMippZBw_olm0ltLqkv8DnqnmqUzOX_mS0?></g></svg>