<svg xmlns="http://www.w3.org/2000/svg" xmlns:xlink="http://www.w3.org/1999/xlink" contentStyleType="text/css" data-diagram-type="SEQUENCE" height="678px" preserveAspectRatio="none" style="width:1278px;height:678px;background:#FFFFFF;" version="1.1" viewBox="0 0 1278 678" width="1278px" zoomAndPan="magnify"><?plantuml 1.2026.4?><defs/><g><g><title>AircraftModelController</title><rect fill="#FFFFFF" height="461.7578" style="stroke:#181818;stroke-width:1;" width="10" x="294.3916" y="114.9609"/></g><g><title>RegisterAircraftModelUseCase</title><rect fill="#FFFFFF" height="401.0547" style="stroke:#181818;stroke-width:1;" width="10" x="486.0601" y="145.3125"/></g><g><title>AircraftModelRepository</title><rect fill="#FFFFFF" height="91.0547" style="stroke:#181818;stroke-width:1;" width="10" x="779.1089" y="212.0156"/></g><g><title>AircraftModelRepository</title><rect fill="#FFFFFF" height="91.0547" style="stroke:#181818;stroke-width:1;" width="10" x="779.1089" y="417.9609"/></g><g><title>Database</title><rect fill="#FFFFFF" height="30.3516" style="stroke:#181818;stroke-width:1;" width="10" x="1214.1313" y="242.3672"/></g><g><title>Database</title><rect fill="#FFFFFF" height="30.3516" style="stroke:#181818;stroke-width:1;" width="10" x="1214.1313" y="448.3125"/></g><rect fill="none" height="198.9453" style="stroke:#000000;stroke-width:1.5;" width="884.126" x="377.9707" y="318.0703"/><g class="participant-lifeline" data-entity-uid="part1" data-qualified-name="BO" data-source-line="2" id="part1-lifeline"><g><title>Backoffice Operator</title><rect fill="#000000" fill-opacity="0.00000" height="512.1094" width="8" x="65.8618" y="82.6094"/><line style="stroke:#181818;stroke-width:0.5;stroke-dasharray:5,5;" x1="69" x2="69" y1="82.6094" y2="594.7188"/></g></g><g class="participant-lifeline" data-entity-uid="part2" data-qualified-name="Ctrl" data-source-line="3" id="part2-lifeline"><g><title>AircraftModelController</title><rect fill="#000000" fill-opacity="0.00000" height="512.1094" width="8" x="295.3916" y="82.6094"/><line style="stroke:#181818;stroke-width:0.5;stroke-dasharray:5,5;" x1="298.8125" x2="298.8125" y1="82.6094" y2="594.7188"/></g></g><g class="participant-lifeline" data-entity-uid="part3" data-qualified-name="UC" data-source-line="4" id="part3-lifeline"><g><title>RegisterAircraftModelUseCase</title><rect fill="#000000" fill-opacity="0.00000" height="512.1094" width="8" x="487.0601" y="82.6094"/><line style="stroke:#181818;stroke-width:0.5;stroke-dasharray:5,5;" x1="490.9707" x2="490.9707" y1="82.6094" y2="594.7188"/></g></g><g class="participant-lifeline" data-entity-uid="part4" data-qualified-name="Repo" data-source-line="5" id="part4-lifeline"><g><title>AircraftModelRepository</title><rect fill="#000000" fill-opacity="0.00000" height="512.1094" width="8" x="780.1089" y="82.6094"/><line style="stroke:#181818;stroke-width:0.5;stroke-dasharray:5,5;" x1="783.416" x2="783.416" y1="82.6094" y2="594.7188"/></g></g><g class="participant-lifeline" data-entity-uid="part5" data-qualified-name="DB" data-source-line="6" id="part5-lifeline"><g><title>Database</title><rect fill="#000000" fill-opacity="0.00000" height="512.1094" width="8" x="1215.1313" y="82.6094"/><line style="stroke:#181818;stroke-width:0.5;stroke-dasharray:5,5;" x1="1218.166" x2="1218.166" y1="82.6094" y2="594.7188"/></g></g><g class="participant participant-head" data-entity-uid="part1" data-qualified-name="BO" data-source-line="2" id="part1-head"><text fill="#000000" font-family="sans-serif" font-size="14" lengthAdjust="spacing" textLength="123.7236" x="5" y="79.5332">Backoffice Operator</text><ellipse cx="69.8618" cy="13.5" fill="#E2E2F0" rx="8" ry="8" style="stroke:#181818;stroke-width:0.5;"/><path d="M69.8618,21.5 L69.8618,48.5 M56.8618,29.5 L82.8618,29.5 M69.8618,48.5 L56.8618,63.5 M69.8618,48.5 L82.8618,63.5" fill="none" style="stroke:#181818;stroke-width:0.5;"/></g><g class="participant participant-tail" data-entity-uid="part1" data-qualified-name="BO" data-source-line="2" id="part1-tail"><text fill="#000000" font-family="sans-serif" font-size="14" lengthAdjust="spacing" textLength="123.7236" x="5" y="608.252">Backoffice Operator</text><ellipse cx="69.8618" cy="619.8281" fill="#E2E2F0" rx="8" ry="8" style="stroke:#181818;stroke-width:0.5;"/><path d="M69.8618,627.8281 L69.8618,654.8281 M56.8618,635.8281 L82.8618,635.8281 M69.8618,654.8281 L56.8618,669.8281 M69.8618,654.8281 L82.8618,669.8281" fill="none" style="stroke:#181818;stroke-width:0.5;"/></g><g class="participant participant-head" data-entity-uid="part2" data-qualified-name="Ctrl" data-source-line="3" id="part2-head"><rect fill="#E2E2F0" height="31.6094" rx="2.5" ry="2.5" style="stroke:#181818;stroke-width:0.5;" width="157.1582" x="220.8125" y="50"/><text fill="#000000" font-family="sans-serif" font-size="14" lengthAdjust="spacing" textLength="143.1582" x="227.8125" y="71.5332">AircraftModelController</text></g><g class="participant participant-tail" data-entity-uid="part2" data-qualified-name="Ctrl" data-source-line="3" id="part2-tail"><rect fill="#E2E2F0" height="31.6094" rx="2.5" ry="2.5" style="stroke:#181818;stroke-width:0.5;" width="157.1582" x="220.8125" y="593.7188"/><text fill="#000000" font-family="sans-serif" font-size="14" lengthAdjust="spacing" textLength="143.1582" x="227.8125" y="615.252">AircraftModelController</text></g><g class="participant participant-head" data-entity-uid="part3" data-qualified-name="UC" data-source-line="4" id="part3-head"><rect fill="#E2E2F0" height="31.6094" rx="2.5" ry="2.5" style="stroke:#181818;stroke-width:0.5;" width="206.1787" x="387.9707" y="50"/><text fill="#000000" font-family="sans-serif" font-size="14" lengthAdjust="spacing" textLength="192.1787" x="394.9707" y="71.5332">RegisterAircraftModelUseCase</text></g><g class="participant participant-tail" data-entity-uid="part3" data-qualified-name="UC" data-source-line="4" id="part3-tail"><rect fill="#E2E2F0" height="31.6094" rx="2.5" ry="2.5" style="stroke:#181818;stroke-width:0.5;" width="206.1787" x="387.9707" y="593.7188"/><text fill="#000000" font-family="sans-serif" font-size="14" lengthAdjust="spacing" textLength="192.1787" x="394.9707" y="615.252">RegisterAircraftModelUseCase</text></g><g class="participant participant-head" data-entity-uid="part4" data-qualified-name="Repo" data-source-line="5" id="part4-head"><rect fill="#E2E2F0" height="31.6094" rx="2.5" ry="2.5" style="stroke:#181818;stroke-width:0.5;" width="163.3857" x="702.416" y="50"/><text fill="#000000" font-family="sans-serif" font-size="14" lengthAdjust="spacing" textLength="149.3857" x="709.416" y="71.5332">AircraftModelRepository</text></g><g class="participant participant-tail" data-entity-uid="part4" data-qualified-name="Repo" data-source-line="5" id="part4-tail"><rect fill="#E2E2F0" height="31.6094" rx="2.5" ry="2.5" style="stroke:#181818;stroke-width:0.5;" width="163.3857" x="702.416" y="593.7188"/><text fill="#000000" font-family="sans-serif" font-size="14" lengthAdjust="spacing" textLength="149.3857" x="709.416" y="615.252">AircraftModelRepository</text></g><g class="participant participant-head" data-entity-uid="part5" data-qualified-name="DB" data-source-line="6" id="part5-head"><text fill="#000000" font-family="sans-serif" font-size="14" lengthAdjust="spacing" textLength="59.9307" x="1186.166" y="79.5332">Database</text><path d="M1201.1313,29 C1201.1313,19 1219.1313,19 1219.1313,19 C1219.1313,19 1237.1313,19 1237.1313,29 L1237.1313,55 C1237.1313,65 1219.1313,65 1219.1313,65 C1219.1313,65 1201.1313,65 1201.1313,55 L1201.1313,29" fill="#E2E2F0" style="stroke:#181818;stroke-width:0.5;"/><path d="M1201.1313,29 C1201.1313,39 1219.1313,39 1219.1313,39 C1219.1313,39 1237.1313,39 1237.1313,29" fill="none" style="stroke:#181818;stroke-width:0.5;"/></g><g class="participant participant-tail" data-entity-uid="part5" data-qualified-name="DB" data-source-line="6" id="part5-tail"><text fill="#000000" font-family="sans-serif" font-size="14" lengthAdjust="spacing" textLength="59.9307" x="1186.166" y="608.252">Database</text><path d="M1201.1313,621.3281 C1201.1313,611.3281 1219.1313,611.3281 1219.1313,611.3281 C1219.1313,611.3281 1237.1313,611.3281 1237.1313,621.3281 L1237.1313,647.3281 C1237.1313,657.3281 1219.1313,657.3281 1219.1313,657.3281 C1219.1313,657.3281 1201.1313,657.3281 1201.1313,647.3281 L1201.1313,621.3281" fill="#E2E2F0" style="stroke:#181818;stroke-width:0.5;"/><path d="M1201.1313,621.3281 C1201.1313,631.3281 1219.1313,631.3281 1219.1313,631.3281 C1219.1313,631.3281 1237.1313,631.3281 1237.1313,621.3281" fill="none" style="stroke:#181818;stroke-width:0.5;"/></g><g><title>AircraftModelController</title><rect fill="#FFFFFF" height="461.7578" style="stroke:#181818;stroke-width:1;" width="10" x="294.3916" y="114.9609"/></g><g><title>RegisterAircraftModelUseCase</title><rect fill="#FFFFFF" height="401.0547" style="stroke:#181818;stroke-width:1;" width="10" x="486.0601" y="145.3125"/></g><g><title>AircraftModelRepository</title><rect fill="#FFFFFF" height="91.0547" style="stroke:#181818;stroke-width:1;" width="10" x="779.1089" y="212.0156"/></g><g><title>AircraftModelRepository</title><rect fill="#FFFFFF" height="91.0547" style="stroke:#181818;stroke-width:1;" width="10" x="779.1089" y="417.9609"/></g><g><title>Database</title><rect fill="#FFFFFF" height="30.3516" style="stroke:#181818;stroke-width:1;" width="10" x="1214.1313" y="242.3672"/></g><g><title>Database</title><rect fill="#FFFFFF" height="30.3516" style="stroke:#181818;stroke-width:1;" width="10" x="1214.1313" y="448.3125"/></g><g class="message" data-entity-1="part1" data-entity-2="part2" data-source-line="7" id="msg1"><polygon fill="#181818" points="282.3916,110.9609,292.3916,114.9609,282.3916,118.9609,286.3916,114.9609" style="stroke:#181818;stroke-width:1;stroke-linejoin:miter;stroke-miterlimit:10;"/><line style="stroke:#181818;stroke-width:1;" x1="69.8618" x2="288.3916" y1="114.9609" y2="114.9609"/><text fill="#000000" font-family="sans-serif" font-size="13" font-weight="700" lengthAdjust="spacing" textLength="7.23" x="76.8618" y="110.1045">1</text><text fill="#000000" font-family="sans-serif" font-size="13" lengthAdjust="spacing" textLength="192.1563" x="88.0918" y="110.1045">POST /api/aircraftModels (JSON)</text></g><g class="message" data-entity-1="part2" data-entity-2="part3" data-source-line="9" id="msg2"><polygon fill="#181818" points="474.0601,141.3125,484.0601,145.3125,474.0601,149.3125,478.0601,145.3125" style="stroke:#181818;stroke-width:1;stroke-linejoin:miter;stroke-miterlimit:10;"/><line style="stroke:#181818;stroke-width:1;" x1="304.3916" x2="480.0601" y1="145.3125" y2="145.3125"/><text fill="#000000" font-family="sans-serif" font-size="13" font-weight="700" lengthAdjust="spacing" textLength="7.23" x="311.3916" y="140.4561">2</text><text fill="#000000" font-family="sans-serif" font-size="13" lengthAdjust="spacing" textLength="97.5508" x="322.6216" y="140.4561">execute(request)</text></g><path d="M501,158.3125 L501,184.3125 L738,184.3125 L738,168.3125 L728,158.3125 L501,158.3125" fill="#FEFFDD" style="stroke:#181818;stroke-width:0.5;"/><path d="M728,158.3125 L728,168.3125 L738,168.3125 L728,158.3125" fill="#FEFFDD" style="stroke:#181818;stroke-width:0.5;"/><text fill="#000000" font-family="sans-serif" font-size="13" lengthAdjust="spacing" textLength="216.0806" x="507" y="176.8076">Validates uniqueness by model name</text><g class="message" data-entity-1="part3" data-entity-2="part4" data-source-line="12" id="msg3"><polygon fill="#181818" points="767.1089,208.0156,777.1089,212.0156,767.1089,216.0156,771.1089,212.0156" style="stroke:#181818;stroke-width:1;stroke-linejoin:miter;stroke-miterlimit:10;"/><line style="stroke:#181818;stroke-width:1;" x1="496.0601" x2="773.1089" y1="212.0156" y2="212.0156"/><text fill="#000000" font-family="sans-serif" font-size="13" font-weight="700" lengthAdjust="spacing" textLength="7.23" x="503.0601" y="207.1592">3</text><text fill="#000000" font-family="sans-serif" font-size="13" lengthAdjust="spacing" textLength="244.2007" x="514.29" y="207.1592">existsByModelName(request.modelName)</text></g><g class="message" data-entity-1="part4" data-entity-2="part5" data-source-line="14" id="msg4"><polygon fill="#181818" points="1202.1313,238.3672,1212.1313,242.3672,1202.1313,246.3672,1206.1313,242.3672" style="stroke:#181818;stroke-width:1;stroke-linejoin:miter;stroke-miterlimit:10;"/><line style="stroke:#181818;stroke-width:1;" x1="789.1089" x2="1208.1313" y1="242.3672" y2="242.3672"/><text fill="#000000" font-family="sans-serif" font-size="13" font-weight="700" lengthAdjust="spacing" textLength="7.23" x="796.1089" y="237.5107">4</text><text fill="#000000" font-family="sans-serif" font-size="13" lengthAdjust="spacing" textLength="394.7925" x="807.3389" y="237.5107">SELECT COUNT(*) FROM aircraft_model WHERE model_name = ?</text></g><g class="message" data-entity-1="part5" data-entity-2="part4" data-source-line="16" id="msg5"><polygon fill="#181818" points="800.1089,268.7188,790.1089,272.7188,800.1089,276.7188,796.1089,272.7188" style="stroke:#181818;stroke-width:1;stroke-linejoin:miter;stroke-miterlimit:10;"/><line style="stroke:#181818;stroke-width:1;stroke-dasharray:2,2;" x1="794.1089" x2="1218.1313" y1="272.7188" y2="272.7188"/><text fill="#000000" font-family="sans-serif" font-size="13" font-weight="700" lengthAdjust="spacing" textLength="7.23" x="806.1089" y="267.8623">5</text><text fill="#000000" font-family="sans-serif" font-size="13" lengthAdjust="spacing" textLength="31.8018" x="817.3389" y="267.8623">count</text></g><g class="message" data-entity-1="part4" data-entity-2="part3" data-source-line="18" id="msg6"><polygon fill="#181818" points="507.0601,299.0703,497.0601,303.0703,507.0601,307.0703,503.0601,303.0703" style="stroke:#181818;stroke-width:1;stroke-linejoin:miter;stroke-miterlimit:10;"/><line style="stroke:#181818;stroke-width:1;stroke-dasharray:2,2;" x1="501.0601" x2="783.1089" y1="303.0703" y2="303.0703"/><text fill="#000000" font-family="sans-serif" font-size="13" font-weight="700" lengthAdjust="spacing" textLength="7.23" x="513.0601" y="298.2139">6</text><text fill="#000000" font-family="sans-serif" font-size="13" lengthAdjust="spacing" textLength="53.4727" x="524.29" y="298.2139">true/false</text></g><path d="M377.9707,318.0703 L438.1416,318.0703 L438.1416,326.4219 L428.1416,336.4219 L377.9707,336.4219 L377.9707,318.0703" fill="#EEEEEE" style="stroke:#000000;stroke-width:1.5;"/><rect fill="none" height="198.9453" style="stroke:#000000;stroke-width:1.5;" width="884.126" x="377.9707" y="318.0703"/><text fill="#000000" font-family="sans-serif" font-size="13" font-weight="700" lengthAdjust="spacing" textLength="15.1709" x="392.9707" y="332.5654">alt</text><text fill="#000000" font-family="sans-serif" font-size="11" font-weight="700" lengthAdjust="spacing" textLength="147.3398" x="453.1416" y="331.4893">[model name already exists]</text><g class="message" data-entity-1="part3" data-entity-2="part3" data-source-line="21" id="msg7"><line style="stroke:#181818;stroke-width:1;" x1="496.0601" x2="538.0601" y1="358.7734" y2="358.7734"/><line style="stroke:#181818;stroke-width:1;" x1="538.0601" x2="538.0601" y1="358.7734" y2="371.7734"/><line style="stroke:#181818;stroke-width:1;" x1="497.0601" x2="538.0601" y1="371.7734" y2="371.7734"/><polygon fill="#181818" points="507.0601,367.7734,497.0601,371.7734,507.0601,375.7734,503.0601,371.7734" style="stroke:#181818;stroke-width:1;stroke-linejoin:miter;stroke-miterlimit:10;"/><text fill="#000000" font-family="sans-serif" font-size="13" font-weight="700" lengthAdjust="spacing" textLength="7.23" x="503.0601" y="353.917">7</text><text fill="#000000" font-family="sans-serif" font-size="13" lengthAdjust="spacing" textLength="247.8188" x="514.29" y="353.917">throw AircraftModelAlreadyExistsException</text></g><line style="stroke:#000000;stroke-width:1;stroke-dasharray:2,2;" x1="377.9707" x2="1262.0967" y1="380.7734" y2="380.7734"/><text fill="#000000" font-family="sans-serif" font-size="11" font-weight="700" lengthAdjust="spacing" textLength="122.8477" x="382.9707" y="392.1924">[model name is unique]</text><g class="message" data-entity-1="part3" data-entity-2="part4" data-source-line="23" id="msg8"><polygon fill="#181818" points="767.1089,413.9609,777.1089,417.9609,767.1089,421.9609,771.1089,417.9609" style="stroke:#181818;stroke-width:1;stroke-linejoin:miter;stroke-miterlimit:10;"/><line style="stroke:#181818;stroke-width:1;" x1="496.0601" x2="773.1089" y1="417.9609" y2="417.9609"/><text fill="#000000" font-family="sans-serif" font-size="13" font-weight="700" lengthAdjust="spacing" textLength="7.23" x="503.0601" y="413.1045">8</text><text fill="#000000" font-family="sans-serif" font-size="13" lengthAdjust="spacing" textLength="95.3735" x="514.29" y="413.1045">save(newModel)</text></g><g class="message" data-entity-1="part4" data-entity-2="part5" data-source-line="25" id="msg9"><polygon fill="#181818" points="1202.1313,444.3125,1212.1313,448.3125,1202.1313,452.3125,1206.1313,448.3125" style="stroke:#181818;stroke-width:1;stroke-linejoin:miter;stroke-miterlimit:10;"/><line style="stroke:#181818;stroke-width:1;" x1="789.1089" x2="1208.1313" y1="448.3125" y2="448.3125"/><text fill="#000000" font-family="sans-serif" font-size="13" font-weight="700" lengthAdjust="spacing" textLength="7.23" x="796.1089" y="443.4561">9</text><text fill="#000000" font-family="sans-serif" font-size="13" lengthAdjust="spacing" textLength="168.3145" x="807.3389" y="443.4561">INSERT INTO aircraft_model</text></g><g class="message" data-entity-1="part5" data-entity-2="part4" data-source-line="27" id="msg10"><polygon fill="#181818" points="800.1089,474.6641,790.1089,478.6641,800.1089,482.6641,796.1089,478.6641" style="stroke:#181818;stroke-width:1;stroke-linejoin:miter;stroke-miterlimit:10;"/><line style="stroke:#181818;stroke-width:1;stroke-dasharray:2,2;" x1="794.1089" x2="1218.1313" y1="478.6641" y2="478.6641"/><text fill="#000000" font-family="sans-serif" font-size="13" font-weight="700" lengthAdjust="spacing" textLength="14.46" x="806.1089" y="473.8076">10</text><text fill="#000000" font-family="sans-serif" font-size="13" lengthAdjust="spacing" textLength="127.1499" x="824.5688" y="473.8076">saved record (with ID)</text></g><g class="message" data-entity-1="part4" data-entity-2="part3" data-source-line="29" id="msg11"><polygon fill="#181818" points="507.0601,505.0156,497.0601,509.0156,507.0601,513.0156,503.0601,509.0156" style="stroke:#181818;stroke-width:1;stroke-linejoin:miter;stroke-miterlimit:10;"/><line style="stroke:#181818;stroke-width:1;stroke-dasharray:2,2;" x1="501.0601" x2="783.1089" y1="509.0156" y2="509.0156"/><text fill="#000000" font-family="sans-serif" font-size="13" font-weight="700" lengthAdjust="spacing" textLength="14.46" x="513.0601" y="504.1592">11</text><text fill="#000000" font-family="sans-serif" font-size="13" lengthAdjust="spacing" textLength="70.0972" x="531.52" y="504.1592">savedModel</text></g><g class="message" data-entity-1="part3" data-entity-2="part2" data-source-line="32" id="msg12"><polygon fill="#181818" points="315.3916,542.3672,305.3916,546.3672,315.3916,550.3672,311.3916,546.3672" style="stroke:#181818;stroke-width:1;stroke-linejoin:miter;stroke-miterlimit:10;"/><line style="stroke:#181818;stroke-width:1;stroke-dasharray:2,2;" x1="309.3916" x2="490.0601" y1="546.3672" y2="546.3672"/><text fill="#000000" font-family="sans-serif" font-size="13" font-weight="700" lengthAdjust="spacing" textLength="14.46" x="321.3916" y="541.5107">12</text><text fill="#000000" font-family="sans-serif" font-size="13" lengthAdjust="spacing" textLength="135.1162" x="339.8516" y="541.5107">AircraftModelResponse</text></g><g class="message" data-entity-1="part2" data-entity-2="part1" data-source-line="34" id="msg13"><polygon fill="#181818" points="80.8618,572.7188,70.8618,576.7188,80.8618,580.7188,76.8618,576.7188" style="stroke:#181818;stroke-width:1;stroke-linejoin:miter;stroke-miterlimit:10;"/><line style="stroke:#181818;stroke-width:1;stroke-dasharray:2,2;" x1="74.8618" x2="298.3916" y1="576.7188" y2="576.7188"/><text fill="#000000" font-family="sans-serif" font-size="13" font-weight="700" lengthAdjust="spacing" textLength="14.46" x="86.8618" y="571.8623">13</text><text fill="#000000" font-family="sans-serif" font-size="13" lengthAdjust="spacing" textLength="182.0698" x="105.3218" y="571.8623">201 Created (JSON with _links)</text></g><?plantuml-src VLDDZvim4BtpAqOvaKhRj3skrAuMGjMjcb0HqXwZ2GmRQnsRscQp-VSTxD103kK2sFC-vdcCdTEgE-x9H5WvRM2MOFMYcqPK17bB1dbn1cWXoQCMZHELQ54vc3qAKnbit4hN95EjdD5IKgXDdP7JweAUXNLa9gYjfHGjUSWs_GzzGQssWfsSVMt_6zNeSCzec2qlNtvlcKH93dTVl0UuXv_vfeG5jcA1OqOByVTDlfxtNOjNT1GyUn23job3wOsgpb5iw4z7rergsQpI_3RY-U10Dw7-5qh1hiX2fmH355aB-pCSUq5GUAI8wvYzz-_vEHARdBsXDMyFIk-Fmyf8qpVjaSomJ1Y_oNvaQGbflbsNyRivV2to5GnTxeBgxszPaGK7kzu1V8Q7AoU7nKntLqkLxfIBQXfN1CqX56SwMZGeBOtBl3cKRjGhe3I4zVdIPWJyXFO3py7e4qnE-J40Cb-VlLNKEg5Ln8T5Orunv3kYlDYt-4gnefEdc_lzgSL-PPBXqtgJ5IM_olmckYcQS-Z_fsdrSZKOghIf8Ju9Tu2dPP2THdYL7ThtqDK_dTieITL-LgvpV7CVRAlLz0Xu9iFqCePlm3ry-l0HKaxKiKS_xE0TxgHGBtO-XlQulm00?></g></svg>