<?plantuml 1.2026.1?><svg xmlns="http://www.w3.org/2000/svg" xmlns:xlink="http://www.w3.org/1999/xlink" contentStyleType="text/css" data-diagram-type="SEQUENCE" height="654px" preserveAspectRatio="none" style="width:1385px;height:654px;background:#FFFFFF;" version="1.1" viewBox="0 0 1385 654" width="1385px" zoomAndPan="magnify"><defs/><g><g><title>AircraftModelController</title><rect fill="#FFFFFF" height="443.6641" style="stroke:#181818;stroke-width:1;" width="10" x="323.061" y="112.4297"/></g><g><title>RegisterAircraftModelUseCase</title><rect fill="#FFFFFF" height="385.3984" style="stroke:#181818;stroke-width:1;" width="10" x="534.6973" y="141.5625"/></g><g><title>AircraftModelRepository</title><rect fill="#FFFFFF" height="87.3984" style="stroke:#181818;stroke-width:1;" width="10" x="862.2837" y="205.8281"/></g><g><title>AircraftModelRepository</title><rect fill="#FFFFFF" height="87.3984" style="stroke:#181818;stroke-width:1;" width="10" x="862.2837" y="403.4297"/></g><g><title>Database</title><rect fill="#FFFFFF" height="29.1328" style="stroke:#181818;stroke-width:1;" width="10" x="1327.0513" y="234.9609"/></g><g><title>Database</title><rect fill="#FFFFFF" height="29.1328" style="stroke:#181818;stroke-width:1;" width="10" x="1327.0513" y="432.5625"/></g><rect fill="none" height="190.6016" style="stroke:#000000;stroke-width:1.5;" width="961.9507" x="416.501" y="308.2266"/><g class="participant-lifeline" data-entity-uid="part1" data-qualified-name="BO" id="part1-lifeline"><g><title>Backoffice Operator</title><rect fill="#000000" fill-opacity="0.00000" height="492.7969" width="8" x="73.8633" y="81.2969"/><line style="stroke:#181818;stroke-width:0.5;stroke-dasharray:5,5;" x1="77" x2="77" y1="81.2969" y2="574.0938"/></g></g><g class="participant-lifeline" data-entity-uid="part2" data-qualified-name="Ctrl" id="part2-lifeline"><g><title>AircraftModelController</title><rect fill="#000000" fill-opacity="0.00000" height="492.7969" width="8" x="324.061" y="81.2969"/><line style="stroke:#181818;stroke-width:0.5;stroke-dasharray:5,5;" x1="327.6211" x2="327.6211" y1="81.2969" y2="574.0938"/></g></g><g class="participant-lifeline" data-entity-uid="part3" data-qualified-name="UC" id="part3-lifeline"><g><title>RegisterAircraftModelUseCase</title><rect fill="#000000" fill-opacity="0.00000" height="492.7969" width="8" x="535.6973" y="81.2969"/><line style="stroke:#181818;stroke-width:0.5;stroke-dasharray:5,5;" x1="539.501" x2="539.501" y1="81.2969" y2="574.0938"/></g></g><g class="participant-lifeline" data-entity-uid="part4" data-qualified-name="Repo" id="part4-lifeline"><g><title>AircraftModelRepository</title><rect fill="#000000" fill-opacity="0.00000" height="492.7969" width="8" x="863.2837" y="81.2969"/><line style="stroke:#181818;stroke-width:0.5;stroke-dasharray:5,5;" x1="866.894" x2="866.894" y1="81.2969" y2="574.0938"/></g></g><g class="participant-lifeline" data-entity-uid="part5" data-qualified-name="DB" id="part5-lifeline"><g><title>Database</title><rect fill="#000000" fill-opacity="0.00000" height="492.7969" width="8" x="1328.0513" y="81.2969"/><line style="stroke:#181818;stroke-width:0.5;stroke-dasharray:5,5;" x1="1331.6509" x2="1331.6509" y1="81.2969" y2="574.0938"/></g></g><g class="participant participant-head" data-entity-uid="part1" data-qualified-name="BO" id="part1-head"><text fill="#000000" font-family="sans-serif" font-size="14" lengthAdjust="spacing" textLength="139.7266" x="5" y="77.9951">Backoffice Operator</text><ellipse cx="77.8633" cy="13.5" fill="#E2E2F0" rx="8" ry="8" style="stroke:#181818;stroke-width:0.5;"/><path d="M77.8633,21.5 L77.8633,48.5 M64.8633,29.5 L90.8633,29.5 M77.8633,48.5 L64.8633,63.5 M77.8633,48.5 L90.8633,63.5" fill="none" style="stroke:#181818;stroke-width:0.5;"/></g><g class="participant participant-tail" data-entity-uid="part1" data-qualified-name="BO" id="part1-tail"><text fill="#000000" font-family="sans-serif" font-size="14" lengthAdjust="spacing" textLength="139.7266" x="5" y="586.0889">Backoffice Operator</text><ellipse cx="77.8633" cy="597.8906" fill="#E2E2F0" rx="8" ry="8" style="stroke:#181818;stroke-width:0.5;"/><path d="M77.8633,605.8906 L77.8633,632.8906 M64.8633,613.8906 L90.8633,613.8906 M77.8633,632.8906 L64.8633,647.8906 M77.8633,632.8906 L90.8633,647.8906" fill="none" style="stroke:#181818;stroke-width:0.5;"/></g><g class="participant participant-head" data-entity-uid="part2" data-qualified-name="Ctrl" id="part2-head"><rect fill="#E2E2F0" height="30.2969" rx="2.5" ry="2.5" style="stroke:#181818;stroke-width:0.5;" width="176.8799" x="239.6211" y="50"/><text fill="#000000" font-family="sans-serif" font-size="14" lengthAdjust="spacing" textLength="162.8799" x="246.6211" y="69.9951">AircraftModelController</text></g><g class="participant participant-tail" data-entity-uid="part2" data-qualified-name="Ctrl" id="part2-tail"><rect fill="#E2E2F0" height="30.2969" rx="2.5" ry="2.5" style="stroke:#181818;stroke-width:0.5;" width="176.8799" x="239.6211" y="573.0938"/><text fill="#000000" font-family="sans-serif" font-size="14" lengthAdjust="spacing" textLength="162.8799" x="246.6211" y="593.0889">AircraftModelController</text></g><g class="participant participant-head" data-entity-uid="part3" data-qualified-name="UC" id="part3-head"><rect fill="#E2E2F0" height="30.2969" rx="2.5" ry="2.5" style="stroke:#181818;stroke-width:0.5;" width="226.3926" x="426.501" y="50"/><text fill="#000000" font-family="sans-serif" font-size="14" lengthAdjust="spacing" textLength="212.3926" x="433.501" y="69.9951">RegisterAircraftModelUseCase</text></g><g class="participant participant-tail" data-entity-uid="part3" data-qualified-name="UC" id="part3-tail"><rect fill="#E2E2F0" height="30.2969" rx="2.5" ry="2.5" style="stroke:#181818;stroke-width:0.5;" width="226.3926" x="426.501" y="573.0938"/><text fill="#000000" font-family="sans-serif" font-size="14" lengthAdjust="spacing" textLength="212.3926" x="433.501" y="593.0889">RegisterAircraftModelUseCase</text></g><g class="participant participant-head" data-entity-uid="part4" data-qualified-name="Repo" id="part4-head"><rect fill="#E2E2F0" height="30.2969" rx="2.5" ry="2.5" style="stroke:#181818;stroke-width:0.5;" width="182.7793" x="775.894" y="50"/><text fill="#000000" font-family="sans-serif" font-size="14" lengthAdjust="spacing" textLength="168.7793" x="782.894" y="69.9951">AircraftModelRepository</text></g><g class="participant participant-tail" data-entity-uid="part4" data-qualified-name="Repo" id="part4-tail"><rect fill="#E2E2F0" height="30.2969" rx="2.5" ry="2.5" style="stroke:#181818;stroke-width:0.5;" width="182.7793" x="775.894" y="573.0938"/><text fill="#000000" font-family="sans-serif" font-size="14" lengthAdjust="spacing" textLength="168.7793" x="782.894" y="593.0889">AircraftModelRepository</text></g><g class="participant participant-head" data-entity-uid="part5" data-qualified-name="DB" id="part5-head"><text fill="#000000" font-family="sans-serif" font-size="14" lengthAdjust="spacing" textLength="66.8008" x="1295.6509" y="77.9951">Database</text><path d="M1314.0513,29 C1314.0513,19 1332.0513,19 1332.0513,19 C1332.0513,19 1350.0513,19 1350.0513,29 L1350.0513,55 C1350.0513,65 1332.0513,65 1332.0513,65 C1332.0513,65 1314.0513,65 1314.0513,55 L1314.0513,29" fill="#E2E2F0" style="stroke:#181818;stroke-width:0.5;"/><path d="M1314.0513,29 C1314.0513,39 1332.0513,39 1332.0513,39 C1332.0513,39 1350.0513,39 1350.0513,29" fill="none" style="stroke:#181818;stroke-width:0.5;"/></g><g class="participant participant-tail" data-entity-uid="part5" data-qualified-name="DB" id="part5-tail"><text fill="#000000" font-family="sans-serif" font-size="14" lengthAdjust="spacing" textLength="66.8008" x="1295.6509" y="586.0889">Database</text><path d="M1314.0513,599.3906 C1314.0513,589.3906 1332.0513,589.3906 1332.0513,589.3906 C1332.0513,589.3906 1350.0513,589.3906 1350.0513,599.3906 L1350.0513,625.3906 C1350.0513,635.3906 1332.0513,635.3906 1332.0513,635.3906 C1332.0513,635.3906 1314.0513,635.3906 1314.0513,625.3906 L1314.0513,599.3906" fill="#E2E2F0" style="stroke:#181818;stroke-width:0.5;"/><path d="M1314.0513,599.3906 C1314.0513,609.3906 1332.0513,609.3906 1332.0513,609.3906 C1332.0513,609.3906 1350.0513,609.3906 1350.0513,599.3906" fill="none" style="stroke:#181818;stroke-width:0.5;"/></g><g><title>AircraftModelController</title><rect fill="#FFFFFF" height="443.6641" style="stroke:#181818;stroke-width:1;" width="10" x="323.061" y="112.4297"/></g><g><title>RegisterAircraftModelUseCase</title><rect fill="#FFFFFF" height="385.3984" style="stroke:#181818;stroke-width:1;" width="10" x="534.6973" y="141.5625"/></g><g><title>AircraftModelRepository</title><rect fill="#FFFFFF" height="87.3984" style="stroke:#181818;stroke-width:1;" width="10" x="862.2837" y="205.8281"/></g><g><title>AircraftModelRepository</title><rect fill="#FFFFFF" height="87.3984" style="stroke:#181818;stroke-width:1;" width="10" x="862.2837" y="403.4297"/></g><g><title>Database</title><rect fill="#FFFFFF" height="29.1328" style="stroke:#181818;stroke-width:1;" width="10" x="1327.0513" y="234.9609"/></g><g><title>Database</title><rect fill="#FFFFFF" height="29.1328" style="stroke:#181818;stroke-width:1;" width="10" x="1327.0513" y="432.5625"/></g><g class="message" data-entity-1="part1" data-entity-2="part2" id="msg1"><polygon fill="#181818" points="311.061,108.4297,321.061,112.4297,311.061,116.4297,315.061,112.4297" style="stroke:#181818;stroke-width:1;"/><line style="stroke:#181818;stroke-width:1;" x1="77.8633" x2="317.061" y1="112.4297" y2="112.4297"/><text fill="#000000" font-family="sans-serif" font-size="13" font-weight="bold" lengthAdjust="spacing" textLength="9.0454" x="84.8633" y="107.3638">1</text><text fill="#000000" font-family="sans-serif" font-size="13" lengthAdjust="spacing" textLength="206.1655" x="97.9087" y="107.3638">POST /api/aircraftModels (JSON)</text></g><g class="message" data-entity-1="part2" data-entity-2="part3" id="msg2"><polygon fill="#181818" points="522.6973,137.5625,532.6973,141.5625,522.6973,145.5625,526.6973,141.5625" style="stroke:#181818;stroke-width:1;"/><line style="stroke:#181818;stroke-width:1;" x1="333.061" x2="528.6973" y1="141.5625" y2="141.5625"/><text fill="#000000" font-family="sans-serif" font-size="13" font-weight="bold" lengthAdjust="spacing" textLength="9.0454" x="340.061" y="136.4966">2</text><text fill="#000000" font-family="sans-serif" font-size="13" lengthAdjust="spacing" textLength="112.0171" x="353.1064" y="136.4966">execute(request)</text></g><path d="M549,154.5625 L549,179.5625 L814,179.5625 L814,164.5625 L804,154.5625 L549,154.5625" fill="#FEFFDD" style="stroke:#181818;stroke-width:0.5;"/><path d="M804,154.5625 L804,164.5625 L814,164.5625 L804,154.5625" fill="#FEFFDD" style="stroke:#181818;stroke-width:0.5;"/><text fill="#000000" font-family="sans-serif" font-size="13" lengthAdjust="spacing" textLength="244.353" x="555" y="171.6294">Validates uniqueness by model name</text><g class="message" data-entity-1="part3" data-entity-2="part4" id="msg3"><polygon fill="#181818" points="850.2837,201.8281,860.2837,205.8281,850.2837,209.8281,854.2837,205.8281" style="stroke:#181818;stroke-width:1;"/><line style="stroke:#181818;stroke-width:1;" x1="544.6973" x2="856.2837" y1="205.8281" y2="205.8281"/><text fill="#000000" font-family="sans-serif" font-size="13" font-weight="bold" lengthAdjust="spacing" textLength="9.0454" x="551.6973" y="200.7622">3</text><text fill="#000000" font-family="sans-serif" font-size="13" lengthAdjust="spacing" textLength="274.752" x="564.7427" y="200.7622">existsByModelName(request.modelName)</text></g><g class="message" data-entity-1="part4" data-entity-2="part5" id="msg4"><polygon fill="#181818" points="1315.0513,230.9609,1325.0513,234.9609,1315.0513,238.9609,1319.0513,234.9609" style="stroke:#181818;stroke-width:1;"/><line style="stroke:#181818;stroke-width:1;" x1="872.2837" x2="1321.0513" y1="234.9609" y2="234.9609"/><text fill="#000000" font-family="sans-serif" font-size="13" font-weight="bold" lengthAdjust="spacing" textLength="9.0454" x="879.2837" y="229.895">4</text><text fill="#000000" font-family="sans-serif" font-size="13" lengthAdjust="spacing" textLength="422.7222" x="892.3291" y="229.895">SELECT COUNT(*) FROM aircraft_model WHERE model_name = ?</text></g><g class="message" data-entity-1="part5" data-entity-2="part4" id="msg5"><polygon fill="#181818" points="883.2837,260.0938,873.2837,264.0938,883.2837,268.0938,879.2837,264.0938" style="stroke:#181818;stroke-width:1;"/><line style="stroke:#181818;stroke-width:1;stroke-dasharray:2,2;" x1="877.2837" x2="1331.0513" y1="264.0938" y2="264.0938"/><text fill="#000000" font-family="sans-serif" font-size="13" font-weight="bold" lengthAdjust="spacing" textLength="9.0454" x="889.2837" y="259.0278">5</text><text fill="#000000" font-family="sans-serif" font-size="13" lengthAdjust="spacing" textLength="36.6768" x="902.3291" y="259.0278">count</text></g><g class="message" data-entity-1="part4" data-entity-2="part3" id="msg6"><polygon fill="#181818" points="555.6973,289.2266,545.6973,293.2266,555.6973,297.2266,551.6973,293.2266" style="stroke:#181818;stroke-width:1;"/><line style="stroke:#181818;stroke-width:1;stroke-dasharray:2,2;" x1="549.6973" x2="866.2837" y1="293.2266" y2="293.2266"/><text fill="#000000" font-family="sans-serif" font-size="13" font-weight="bold" lengthAdjust="spacing" textLength="9.0454" x="561.6973" y="288.1606">6</text><text fill="#000000" font-family="sans-serif" font-size="13" lengthAdjust="spacing" textLength="61.9849" x="574.7427" y="288.1606">true/false</text></g><path d="M416.501,308.2266 L480.9438,308.2266 L480.9438,315.3594 L470.9438,325.3594 L416.501,325.3594 L416.501,308.2266" fill="#EEEEEE" style="stroke:#000000;stroke-width:1.5;"/><rect fill="none" height="190.6016" style="stroke:#000000;stroke-width:1.5;" width="961.9507" x="416.501" y="308.2266"/><text fill="#000000" font-family="sans-serif" font-size="13" font-weight="bold" lengthAdjust="spacing" textLength="19.4429" x="431.501" y="321.2935">alt</text><text fill="#000000" font-family="sans-serif" font-size="11" font-weight="bold" lengthAdjust="spacing" textLength="177.0688" x="495.9438" y="320.437">[model name already exists]</text><g class="message" data-entity-1="part3" data-entity-2="part3" id="msg7"><line style="stroke:#181818;stroke-width:1;" x1="544.6973" x2="586.6973" y1="346.4922" y2="346.4922"/><line style="stroke:#181818;stroke-width:1;" x1="586.6973" x2="586.6973" y1="346.4922" y2="359.4922"/><line style="stroke:#181818;stroke-width:1;" x1="545.6973" x2="586.6973" y1="359.4922" y2="359.4922"/><polygon fill="#181818" points="555.6973,355.4922,545.6973,359.4922,555.6973,363.4922,551.6973,359.4922" style="stroke:#181818;stroke-width:1;"/><text fill="#000000" font-family="sans-serif" font-size="13" font-weight="bold" lengthAdjust="spacing" textLength="9.0454" x="551.6973" y="341.4263">7</text><text fill="#000000" font-family="sans-serif" font-size="13" lengthAdjust="spacing" textLength="280.541" x="564.7427" y="341.4263">throw AircraftModelAlreadyExistsException</text></g><line style="stroke:#000000;stroke-width:1;stroke-dasharray:2,2;" x1="416.501" x2="1378.4517" y1="368.4922" y2="368.4922"/><text fill="#000000" font-family="sans-serif" font-size="11" font-weight="bold" lengthAdjust="spacing" textLength="146.7598" x="421.501" y="378.7026">[model name is unique]</text><g class="message" data-entity-1="part3" data-entity-2="part4" id="msg8"><polygon fill="#181818" points="850.2837,399.4297,860.2837,403.4297,850.2837,407.4297,854.2837,403.4297" style="stroke:#181818;stroke-width:1;"/><line style="stroke:#181818;stroke-width:1;" x1="544.6973" x2="856.2837" y1="403.4297" y2="403.4297"/><text fill="#000000" font-family="sans-serif" font-size="13" font-weight="bold" lengthAdjust="spacing" textLength="9.0454" x="551.6973" y="398.3638">8</text><text fill="#000000" font-family="sans-serif" font-size="13" lengthAdjust="spacing" textLength="106.4756" x="564.7427" y="398.3638">save(newModel)</text></g><g class="message" data-entity-1="part4" data-entity-2="part5" id="msg9"><polygon fill="#181818" points="1315.0513,428.5625,1325.0513,432.5625,1315.0513,436.5625,1319.0513,432.5625" style="stroke:#181818;stroke-width:1;"/><line style="stroke:#181818;stroke-width:1;" x1="872.2837" x2="1321.0513" y1="432.5625" y2="432.5625"/><text fill="#000000" font-family="sans-serif" font-size="13" font-weight="bold" lengthAdjust="spacing" textLength="9.0454" x="879.2837" y="427.4966">9</text><text fill="#000000" font-family="sans-serif" font-size="13" lengthAdjust="spacing" textLength="181.0288" x="892.3291" y="427.4966">INSERT INTO aircraft_model</text></g><g class="message" data-entity-1="part5" data-entity-2="part4" id="msg10"><polygon fill="#181818" points="883.2837,457.6953,873.2837,461.6953,883.2837,465.6953,879.2837,461.6953" style="stroke:#181818;stroke-width:1;"/><line style="stroke:#181818;stroke-width:1;stroke-dasharray:2,2;" x1="877.2837" x2="1331.0513" y1="461.6953" y2="461.6953"/><text fill="#000000" font-family="sans-serif" font-size="13" font-weight="bold" lengthAdjust="spacing" textLength="18.0908" x="889.2837" y="456.6294">10</text><text fill="#000000" font-family="sans-serif" font-size="13" lengthAdjust="spacing" textLength="144.6885" x="911.3745" y="456.6294">saved record (with ID)</text></g><g class="message" data-entity-1="part4" data-entity-2="part3" id="msg11"><polygon fill="#181818" points="555.6973,486.8281,545.6973,490.8281,555.6973,494.8281,551.6973,490.8281" style="stroke:#181818;stroke-width:1;"/><line style="stroke:#181818;stroke-width:1;stroke-dasharray:2,2;" x1="549.6973" x2="866.2837" y1="490.8281" y2="490.8281"/><text fill="#000000" font-family="sans-serif" font-size="13" font-weight="bold" lengthAdjust="spacing" textLength="18.0908" x="561.6973" y="485.7622">11</text><text fill="#000000" font-family="sans-serif" font-size="13" lengthAdjust="spacing" textLength="77.7144" x="583.7881" y="485.7622">savedModel</text></g><g class="message" data-entity-1="part3" data-entity-2="part2" id="msg12"><polygon fill="#181818" points="344.061,522.9609,334.061,526.9609,344.061,530.9609,340.061,526.9609" style="stroke:#181818;stroke-width:1;"/><line style="stroke:#181818;stroke-width:1;stroke-dasharray:2,2;" x1="338.061" x2="538.6973" y1="526.9609" y2="526.9609"/><text fill="#000000" font-family="sans-serif" font-size="13" font-weight="bold" lengthAdjust="spacing" textLength="18.0908" x="350.061" y="521.895">12</text><text fill="#000000" font-family="sans-serif" font-size="13" lengthAdjust="spacing" textLength="150.0332" x="372.1519" y="521.895">AircraftModelResponse</text></g><g class="message" data-entity-1="part2" data-entity-2="part1" id="msg13"><polygon fill="#181818" points="88.8633,552.0938,78.8633,556.0938,88.8633,560.0938,84.8633,556.0938" style="stroke:#181818;stroke-width:1;"/><line style="stroke:#181818;stroke-width:1;stroke-dasharray:2,2;" x1="82.8633" x2="327.061" y1="556.0938" y2="556.0938"/><text fill="#000000" font-family="sans-serif" font-size="13" font-weight="bold" lengthAdjust="spacing" textLength="18.0908" x="94.8633" y="551.0278">13</text><text fill="#000000" font-family="sans-serif" font-size="13" lengthAdjust="spacing" textLength="199.1069" x="116.9541" y="551.0278">201 Created (JSON with _links)</text></g><?plantuml-src VLDDZvim4BtpAqOvaKhRj3skrAuMGjMjcb0HqXwZ2GmRQnsRscQp-VSTxD103kK2sFC-vdcCdTEgE-x9H5WvRM2MOFMYcqPK17bB1dbn1cWXoQCMZHELQ54vc3qAKnbit4hN95EjdD5IKgXDdP7JweAUXNLa9gYjfHGjUSWs_GzzGQssWfsSVMt_6zNeSCzec2qlNtvlcKH93dTVl0UuXv_vfeG5jcA1OqOByVTDlfxtNOjNT1GyUn23job3wOsgpb5iw4z7rergsQpI_3RY-U10Dw7-5qh1hiX2fmH355aB-pCSUq5GUAI8wvYzz-_vEHARdBsXDMyFIk-Fmyf8qpVjaSomJ1Y_oNvaQGbflbsNyRivV2to5GnTxeBgxszPaGK7kzu1V8Q7AoU7nKntLqkLxfIBQXfN1CqX56SwMZGeBOtBl3cKRjGhe3I4zVdIPWJyXFO3py7e4qnE-J40Cb-VlLNKEg5Ln8T5Orunv3kYlDYt-4gnefEdc_lzgSL-PPBXqtgJ5IM_olmckYcQS-Z_fsdrSZKOghIf8Ju9Tu2dPP2THdYL7ThtqDK_dTieITL-LgvpV7CVRAlLz0Xu9iFqCePlm3ry-l0HKaxKiKS_xE0TxgHGBtO-XlQulm00?></g></svg>