<svg xmlns="http://www.w3.org/2000/svg" xmlns:xlink="http://www.w3.org/1999/xlink" contentStyleType="text/css" data-diagram-type="SEQUENCE" height="704px" preserveAspectRatio="none" style="width:1670px;height:704px;background:#FFFFFF;" version="1.1" viewBox="0 0 1670 704" width="1670px" zoomAndPan="magnify"><defs/><g><g><title>FlightController</title><rect fill="#FFFFFF" height="469.3652" style="stroke:#181818;stroke-width:1;" width="10" x="382.3994" y="134.2031"/></g><g><title>ScheduleFlightUseCase</title><rect fill="#FFFFFF" height="406.7832" style="stroke:#181818;stroke-width:1;" width="10" x="793.2754" y="165.4941"/></g><g><title>RouteRepository</title><rect fill="#FFFFFF" height="31.291" style="stroke:#181818;stroke-width:1;" width="10" x="953.3979" y="196.7852"/></g><g><title>AircraftRepository</title><rect fill="#FFFFFF" height="31.291" style="stroke:#181818;stroke-width:1;" width="10" x="1085.1631" y="259.3672"/></g><g><title>FlightRepository</title><rect fill="#FFFFFF" height="31.291" style="stroke:#181818;stroke-width:1;" width="10" x="1240.2695" y="321.9492"/></g><g><title>FlightRepository</title><rect fill="#FFFFFF" height="93.873" style="stroke:#181818;stroke-width:1;" width="10" x="1240.2695" y="447.1133"/></g><g><title>Flight</title><rect fill="#FFFFFF" height="31.291" style="stroke:#181818;stroke-width:1;" width="10" x="1331.9624" y="384.5313"/></g><g><title>Database</title><rect fill="#FFFFFF" height="31.291" style="stroke:#181818;stroke-width:1;" width="10" x="1630.1792" y="478.4043"/></g><g><title>ATCC</title><rect fill="#000000" fill-opacity="0.00000" height="537.9473" width="8" x="23.0552" y="83.6211"/><line style="stroke:#181818;stroke-width:0.5;stroke-dasharray:5,5;" x1="27" x2="27" y1="83.6211" y2="621.5684"/></g><g><title>FlightController</title><rect fill="#000000" fill-opacity="0.00000" height="537.9473" width="8" x="383.3994" y="83.6211"/><line style="stroke:#181818;stroke-width:0.5;stroke-dasharray:5,5;" x1="386.9375" x2="386.9375" y1="83.6211" y2="621.5684"/></g><g><title>ScheduleFlightUseCase</title><rect fill="#000000" fill-opacity="0.00000" height="537.9473" width="8" x="794.2754" y="83.6211"/><line style="stroke:#181818;stroke-width:0.5;stroke-dasharray:5,5;" x1="798.1792" x2="798.1792" y1="83.6211" y2="621.5684"/></g><g><title>RouteRepository</title><rect fill="#000000" fill-opacity="0.00000" height="537.9473" width="8" x="954.3979" y="83.6211"/><line style="stroke:#181818;stroke-width:0.5;stroke-dasharray:5,5;" x1="958.2603" x2="958.2603" y1="83.6211" y2="621.5684"/></g><g><title>AircraftRepository</title><rect fill="#000000" fill-opacity="0.00000" height="537.9473" width="8" x="1086.1631" y="83.6211"/><line style="stroke:#181818;stroke-width:0.5;stroke-dasharray:5,5;" x1="1089.5356" x2="1089.5356" y1="83.6211" y2="621.5684"/></g><g><title>FlightRepository</title><rect fill="#000000" fill-opacity="0.00000" height="537.9473" width="8" x="1241.2695" y="83.6211"/><line style="stroke:#181818;stroke-width:0.5;stroke-dasharray:5,5;" x1="1244.6938" x2="1244.6938" y1="83.6211" y2="621.5684"/></g><g><title>Flight</title><rect fill="#000000" fill-opacity="0.00000" height="537.9473" width="8" x="1332.9624" y="83.6211"/><line style="stroke:#181818;stroke-width:0.5;stroke-dasharray:5,5;" x1="1336.8452" x2="1336.8452" y1="83.6211" y2="621.5684"/></g><g><title>Database</title><rect fill="#000000" fill-opacity="0.00000" height="537.9473" width="8" x="1631.1792" y="83.6211"/><line style="stroke:#181818;stroke-width:0.5;stroke-dasharray:5,5;" x1="1634.2139" x2="1634.2139" y1="83.6211" y2="621.5684"/></g><g class="participant participant-head" data-participant="BO"><text fill="#000000" font-family="sans-serif" font-size="14" lengthAdjust="spacing" textLength="38.1104" x="5" y="80.1074">ATCC</text><ellipse cx="27.0552" cy="13.5" fill="#E2E2F0" rx="8" ry="8" style="stroke:#181818;stroke-width:0.5;"/><path d="M27.0552,21.5 L27.0552,48.5 M14.0552,29.5 L40.0552,29.5 M27.0552,48.5 L14.0552,63.5 M27.0552,48.5 L40.0552,63.5" fill="none" style="stroke:#181818;stroke-width:0.5;"/></g><g class="participant participant-tail" data-participant="BO"><text fill="#000000" font-family="sans-serif" font-size="14" lengthAdjust="spacing" textLength="38.1104" x="5" y="635.6758">ATCC</text><ellipse cx="27.0552" cy="647.6895" fill="#E2E2F0" rx="8" ry="8" style="stroke:#181818;stroke-width:0.5;"/><path d="M27.0552,655.6895 L27.0552,682.6895 M14.0552,663.6895 L40.0552,663.6895 M27.0552,682.6895 L14.0552,697.6895 M27.0552,682.6895 L40.0552,697.6895" fill="none" style="stroke:#181818;stroke-width:0.5;"/></g><g class="participant participant-head" data-participant="Ctrl"><rect fill="#E2E2F0" height="32.6211" rx="2.5" ry="2.5" style="stroke:#181818;stroke-width:0.5;" width="108.9238" x="332.9375" y="50"/><text fill="#000000" font-family="sans-serif" font-size="14" lengthAdjust="spacing" textLength="94.9238" x="339.9375" y="72.1074">FlightController</text></g><g class="participant participant-tail" data-participant="Ctrl"><rect fill="#E2E2F0" height="32.6211" rx="2.5" ry="2.5" style="stroke:#181818;stroke-width:0.5;" width="108.9238" x="332.9375" y="620.5684"/><text fill="#000000" font-family="sans-serif" font-size="14" lengthAdjust="spacing" textLength="94.9238" x="339.9375" y="642.6758">FlightController</text></g><g class="participant participant-head" data-participant="UC"><rect fill="#E2E2F0" height="32.6211" rx="2.5" ry="2.5" style="stroke:#181818;stroke-width:0.5;" width="164.1924" x="716.1792" y="50"/><text fill="#000000" font-family="sans-serif" font-size="14" lengthAdjust="spacing" textLength="150.1924" x="723.1792" y="72.1074">ScheduleFlightUseCase</text></g><g class="participant participant-tail" data-participant="UC"><rect fill="#E2E2F0" height="32.6211" rx="2.5" ry="2.5" style="stroke:#181818;stroke-width:0.5;" width="164.1924" x="716.1792" y="620.5684"/><text fill="#000000" font-family="sans-serif" font-size="14" lengthAdjust="spacing" textLength="150.1924" x="723.1792" y="642.6758">ScheduleFlightUseCase</text></g><g class="participant participant-head" data-participant="RouteRepo"><rect fill="#E2E2F0" height="32.6211" rx="2.5" ry="2.5" style="stroke:#181818;stroke-width:0.5;" width="118.2754" x="899.2603" y="50"/><text fill="#000000" font-family="sans-serif" font-size="14" lengthAdjust="spacing" textLength="104.2754" x="906.2603" y="72.1074">RouteRepository</text></g><g class="participant participant-tail" data-participant="RouteRepo"><rect fill="#E2E2F0" height="32.6211" rx="2.5" ry="2.5" style="stroke:#181818;stroke-width:0.5;" width="118.2754" x="899.2603" y="620.5684"/><text fill="#000000" font-family="sans-serif" font-size="14" lengthAdjust="spacing" textLength="104.2754" x="906.2603" y="642.6758">RouteRepository</text></g><g class="participant participant-head" data-participant="AcRepo"><rect fill="#E2E2F0" height="32.6211" rx="2.5" ry="2.5" style="stroke:#181818;stroke-width:0.5;" width="125.2549" x="1027.5356" y="50"/><text fill="#000000" font-family="sans-serif" font-size="14" lengthAdjust="spacing" textLength="111.2549" x="1034.5356" y="72.1074">AircraftRepository</text></g><g class="participant participant-tail" data-participant="AcRepo"><rect fill="#E2E2F0" height="32.6211" rx="2.5" ry="2.5" style="stroke:#181818;stroke-width:0.5;" width="125.2549" x="1027.5356" y="620.5684"/><text fill="#000000" font-family="sans-serif" font-size="14" lengthAdjust="spacing" textLength="111.2549" x="1034.5356" y="642.6758">AircraftRepository</text></g><g class="participant participant-head" data-participant="FlightRepo"><rect fill="#E2E2F0" height="32.6211" rx="2.5" ry="2.5" style="stroke:#181818;stroke-width:0.5;" width="115.1514" x="1187.6938" y="50"/><text fill="#000000" font-family="sans-serif" font-size="14" lengthAdjust="spacing" textLength="101.1514" x="1194.6938" y="72.1074">FlightRepository</text></g><g class="participant participant-tail" data-participant="FlightRepo"><rect fill="#E2E2F0" height="32.6211" rx="2.5" ry="2.5" style="stroke:#181818;stroke-width:0.5;" width="115.1514" x="1187.6938" y="620.5684"/><text fill="#000000" font-family="sans-serif" font-size="14" lengthAdjust="spacing" textLength="101.1514" x="1194.6938" y="642.6758">FlightRepository</text></g><g class="participant participant-head" data-participant="Entity"><rect fill="#E2E2F0" height="32.6211" rx="2.5" ry="2.5" style="stroke:#181818;stroke-width:0.5;" width="48.2344" x="1312.8452" y="50"/><text fill="#000000" font-family="sans-serif" font-size="14" lengthAdjust="spacing" textLength="34.2344" x="1319.8452" y="72.1074">Flight</text></g><g class="participant participant-tail" data-participant="Entity"><rect fill="#E2E2F0" height="32.6211" rx="2.5" ry="2.5" style="stroke:#181818;stroke-width:0.5;" width="48.2344" x="1312.8452" y="620.5684"/><text fill="#000000" font-family="sans-serif" font-size="14" lengthAdjust="spacing" textLength="34.2344" x="1319.8452" y="642.6758">Flight</text></g><g class="participant participant-head" data-participant="DB"><text fill="#000000" font-family="sans-serif" font-size="14" lengthAdjust="spacing" textLength="59.9307" x="1602.2139" y="80.1074">Database</text><path d="M1617.1792,29 C1617.1792,19 1635.1792,19 1635.1792,19 C1635.1792,19 1653.1792,19 1653.1792,29 L1653.1792,55 C1653.1792,65 1635.1792,65 1635.1792,65 C1635.1792,65 1617.1792,65 1617.1792,55 L1617.1792,29" fill="#E2E2F0" style="stroke:#181818;stroke-width:0.5;"/><path d="M1617.1792,29 C1617.1792,39 1635.1792,39 1635.1792,39 C1635.1792,39 1653.1792,39 1653.1792,29" fill="none" style="stroke:#181818;stroke-width:0.5;"/></g><g class="participant participant-tail" data-participant="DB"><text fill="#000000" font-family="sans-serif" font-size="14" lengthAdjust="spacing" textLength="59.9307" x="1602.2139" y="635.6758">Database</text><path d="M1617.1792,649.1895 C1617.1792,639.1895 1635.1792,639.1895 1635.1792,639.1895 C1635.1792,639.1895 1653.1792,639.1895 1653.1792,649.1895 L1653.1792,675.1895 C1653.1792,685.1895 1635.1792,685.1895 1635.1792,685.1895 C1635.1792,685.1895 1617.1792,685.1895 1617.1792,675.1895 L1617.1792,649.1895" fill="#E2E2F0" style="stroke:#181818;stroke-width:0.5;"/><path d="M1617.1792,649.1895 C1617.1792,659.1895 1635.1792,659.1895 1635.1792,659.1895 C1635.1792,659.1895 1653.1792,659.1895 1653.1792,649.1895" fill="none" style="stroke:#181818;stroke-width:0.5;"/></g><g><title>FlightController</title><rect fill="#FFFFFF" height="469.3652" style="stroke:#181818;stroke-width:1;" width="10" x="382.3994" y="134.2031"/></g><g><title>ScheduleFlightUseCase</title><rect fill="#FFFFFF" height="406.7832" style="stroke:#181818;stroke-width:1;" width="10" x="793.2754" y="165.4941"/></g><g><title>RouteRepository</title><rect fill="#FFFFFF" height="31.291" style="stroke:#181818;stroke-width:1;" width="10" x="953.3979" y="196.7852"/></g><g><title>AircraftRepository</title><rect fill="#FFFFFF" height="31.291" style="stroke:#181818;stroke-width:1;" width="10" x="1085.1631" y="259.3672"/></g><g><title>FlightRepository</title><rect fill="#FFFFFF" height="31.291" style="stroke:#181818;stroke-width:1;" width="10" x="1240.2695" y="321.9492"/></g><g><title>FlightRepository</title><rect fill="#FFFFFF" height="93.873" style="stroke:#181818;stroke-width:1;" width="10" x="1240.2695" y="447.1133"/></g><g><title>Flight</title><rect fill="#FFFFFF" height="31.291" style="stroke:#181818;stroke-width:1;" width="10" x="1331.9624" y="384.5313"/></g><g><title>Database</title><rect fill="#FFFFFF" height="31.291" style="stroke:#181818;stroke-width:1;" width="10" x="1630.1792" y="478.4043"/></g><g class="message" data-participant-1="BO" data-participant-2="Ctrl"><polygon fill="#181818" points="370.3994,130.2031,380.3994,134.2031,370.3994,138.2031,374.3994,134.2031" style="stroke:#181818;stroke-width:1;"/><line style="stroke:#181818;stroke-width:1;" x1="27.0552" x2="376.3994" y1="134.2031" y2="134.2031"/><text fill="#000000" font-family="sans-serif" font-size="13" font-weight="bold" lengthAdjust="spacing" textLength="7.23" x="34.0552" y="120.2949">1</text><text fill="#000000" font-family="sans-serif" font-size="13" lengthAdjust="spacing" textLength="97.5381" x="45.2852" y="111.6494">POST /api/flights</text><text fill="#000000" font-family="sans-serif" font-size="13" lengthAdjust="spacing" textLength="325.1143" x="45.2852" y="128.9404">(aircraftId, routeId, departureDateTime, arrivalDateTime)</text></g><g class="message" data-participant-1="Ctrl" data-participant-2="UC"><polygon fill="#181818" points="781.2754,161.4941,791.2754,165.4941,781.2754,169.4941,785.2754,165.4941" style="stroke:#181818;stroke-width:1;"/><line style="stroke:#181818;stroke-width:1;" x1="392.3994" x2="787.2754" y1="165.4941" y2="165.4941"/><text fill="#000000" font-family="sans-serif" font-size="13" font-weight="bold" lengthAdjust="spacing" textLength="7.23" x="399.3994" y="160.2314">2</text><text fill="#000000" font-family="sans-serif" font-size="13" lengthAdjust="spacing" textLength="370.646" x="410.6294" y="160.2314">execute(aircraftId, routeId, departureDateTime, arrivalDateTime)</text></g><g class="message" data-participant-1="UC" data-participant-2="RouteRepo"><polygon fill="#181818" points="941.3979,192.7852,951.3979,196.7852,941.3979,200.7852,945.3979,196.7852" style="stroke:#181818;stroke-width:1;"/><line style="stroke:#181818;stroke-width:1;" x1="803.2754" x2="947.3979" y1="196.7852" y2="196.7852"/><text fill="#000000" font-family="sans-serif" font-size="13" font-weight="bold" lengthAdjust="spacing" textLength="7.23" x="810.2754" y="191.5225">3</text><text fill="#000000" font-family="sans-serif" font-size="13" lengthAdjust="spacing" textLength="96.1035" x="821.5054" y="191.5225">findById(routeId)</text></g><g class="message" data-participant-1="RouteRepo" data-participant-2="UC"><polygon fill="#181818" points="814.2754,224.0762,804.2754,228.0762,814.2754,232.0762,810.2754,228.0762" style="stroke:#181818;stroke-width:1;"/><line style="stroke:#181818;stroke-width:1;stroke-dasharray:2,2;" x1="808.2754" x2="957.3979" y1="228.0762" y2="228.0762"/><text fill="#000000" font-family="sans-serif" font-size="13" font-weight="bold" lengthAdjust="spacing" textLength="7.23" x="820.2754" y="222.8135">4</text><text fill="#000000" font-family="sans-serif" font-size="13" lengthAdjust="spacing" textLength="114.8926" x="831.5054" y="222.8135">returns route details</text></g><g class="message" data-participant-1="UC" data-participant-2="AcRepo"><polygon fill="#181818" points="1073.1631,255.3672,1083.1631,259.3672,1073.1631,263.3672,1077.1631,259.3672" style="stroke:#181818;stroke-width:1;"/><line style="stroke:#181818;stroke-width:1;" x1="803.2754" x2="1079.1631" y1="259.3672" y2="259.3672"/><text fill="#000000" font-family="sans-serif" font-size="13" font-weight="bold" lengthAdjust="spacing" textLength="7.23" x="810.2754" y="254.1045">5</text><text fill="#000000" font-family="sans-serif" font-size="13" lengthAdjust="spacing" textLength="106.2026" x="821.5054" y="254.1045">findById(aircraftId)</text></g><g class="message" data-participant-1="AcRepo" data-participant-2="UC"><polygon fill="#181818" points="814.2754,286.6582,804.2754,290.6582,814.2754,294.6582,810.2754,290.6582" style="stroke:#181818;stroke-width:1;"/><line style="stroke:#181818;stroke-width:1;stroke-dasharray:2,2;" x1="808.2754" x2="1089.1631" y1="290.6582" y2="290.6582"/><text fill="#000000" font-family="sans-serif" font-size="13" font-weight="bold" lengthAdjust="spacing" textLength="7.23" x="820.2754" y="285.3955">6</text><text fill="#000000" font-family="sans-serif" font-size="13" lengthAdjust="spacing" textLength="124.9917" x="831.5054" y="285.3955">returns aircraft details</text></g><g class="message" data-participant-1="UC" data-participant-2="FlightRepo"><polygon fill="#181818" points="1228.2695,317.9492,1238.2695,321.9492,1228.2695,325.9492,1232.2695,321.9492" style="stroke:#181818;stroke-width:1;"/><line style="stroke:#181818;stroke-width:1;" x1="803.2754" x2="1234.2695" y1="321.9492" y2="321.9492"/><text fill="#000000" font-family="sans-serif" font-size="13" font-weight="bold" lengthAdjust="spacing" textLength="7.23" x="810.2754" y="316.6865">7</text><text fill="#000000" font-family="sans-serif" font-size="13" lengthAdjust="spacing" textLength="406.7642" x="821.5054" y="316.6865">hasOverlappingFlights(aircraftId, departureDateTime, arrivalDateTime)</text></g><g class="message" data-participant-1="FlightRepo" data-participant-2="UC"><polygon fill="#181818" points="814.2754,349.2402,804.2754,353.2402,814.2754,357.2402,810.2754,353.2402" style="stroke:#181818;stroke-width:1;"/><line style="stroke:#181818;stroke-width:1;stroke-dasharray:2,2;" x1="808.2754" x2="1244.2695" y1="353.2402" y2="353.2402"/><text fill="#000000" font-family="sans-serif" font-size="13" font-weight="bold" lengthAdjust="spacing" textLength="7.23" x="820.2754" y="347.9775">8</text><text fill="#000000" font-family="sans-serif" font-size="13" lengthAdjust="spacing" textLength="71.5317" x="831.5054" y="347.9775">returns false</text></g><g class="message" data-participant-1="UC" data-participant-2="Entity"><polygon fill="#181818" points="1319.9624,380.5313,1329.9624,384.5313,1319.9624,388.5313,1323.9624,384.5313" style="stroke:#181818;stroke-width:1;"/><line style="stroke:#181818;stroke-width:1;" x1="803.2754" x2="1325.9624" y1="384.5313" y2="384.5313"/><text fill="#000000" font-family="sans-serif" font-size="13" font-weight="bold" lengthAdjust="spacing" textLength="7.23" x="810.2754" y="379.2686">9</text><text fill="#000000" font-family="sans-serif" font-size="13" lengthAdjust="spacing" textLength="362.6797" x="821.5054" y="379.2686">new Flight(route, aircraft, departureDateTime, arrivalDateTime)</text></g><g class="message" data-participant-1="Entity" data-participant-2="UC"><polygon fill="#181818" points="814.2754,411.8223,804.2754,415.8223,814.2754,419.8223,810.2754,415.8223" style="stroke:#181818;stroke-width:1;"/><line style="stroke:#181818;stroke-width:1;stroke-dasharray:2,2;" x1="808.2754" x2="1335.9624" y1="415.8223" y2="415.8223"/><text fill="#000000" font-family="sans-serif" font-size="13" font-weight="bold" lengthAdjust="spacing" textLength="14.46" x="820.2754" y="410.5596">10</text><text fill="#000000" font-family="sans-serif" font-size="13" lengthAdjust="spacing" textLength="106.2153" x="838.7354" y="410.5596">returns flight entity</text></g><g class="message" data-participant-1="UC" data-participant-2="FlightRepo"><polygon fill="#181818" points="1228.2695,443.1133,1238.2695,447.1133,1228.2695,451.1133,1232.2695,447.1133" style="stroke:#181818;stroke-width:1;"/><line style="stroke:#181818;stroke-width:1;" x1="803.2754" x2="1234.2695" y1="447.1133" y2="447.1133"/><text fill="#000000" font-family="sans-serif" font-size="13" font-weight="bold" lengthAdjust="spacing" textLength="14.46" x="810.2754" y="441.8506">11</text><text fill="#000000" font-family="sans-serif" font-size="13" lengthAdjust="spacing" textLength="63.5781" x="828.7354" y="441.8506">save(flight)</text></g><g class="message" data-participant-1="FlightRepo" data-participant-2="DB"><polygon fill="#181818" points="1618.1792,474.4043,1628.1792,478.4043,1618.1792,482.4043,1622.1792,478.4043" style="stroke:#181818;stroke-width:1;"/><line style="stroke:#181818;stroke-width:1;" x1="1250.2695" x2="1624.1792" y1="478.4043" y2="478.4043"/><text fill="#000000" font-family="sans-serif" font-size="13" font-weight="bold" lengthAdjust="spacing" textLength="14.46" x="1257.2695" y="473.1416">12</text><text fill="#000000" font-family="sans-serif" font-size="13" lengthAdjust="spacing" textLength="342.4497" x="1275.7295" y="473.1416">INSERT INTO flight (route_id, aircraft_id, departure, arrival)</text></g><g class="message" data-participant-1="DB" data-participant-2="FlightRepo"><polygon fill="#181818" points="1261.2695,505.6953,1251.2695,509.6953,1261.2695,513.6953,1257.2695,509.6953" style="stroke:#181818;stroke-width:1;"/><line style="stroke:#181818;stroke-width:1;stroke-dasharray:2,2;" x1="1255.2695" x2="1634.1792" y1="509.6953" y2="509.6953"/><text fill="#000000" font-family="sans-serif" font-size="13" font-weight="bold" lengthAdjust="spacing" textLength="14.46" x="1267.2695" y="504.4326">13</text><text fill="#000000" font-family="sans-serif" font-size="13" lengthAdjust="spacing" textLength="91.0317" x="1285.7295" y="504.4326">returns success</text></g><g class="message" data-participant-1="FlightRepo" data-participant-2="UC"><polygon fill="#181818" points="814.2754,536.9863,804.2754,540.9863,814.2754,544.9863,810.2754,540.9863" style="stroke:#181818;stroke-width:1;"/><line style="stroke:#181818;stroke-width:1;stroke-dasharray:2,2;" x1="808.2754" x2="1244.2695" y1="540.9863" y2="540.9863"/><text fill="#000000" font-family="sans-serif" font-size="13" font-weight="bold" lengthAdjust="spacing" textLength="14.46" x="820.2754" y="535.7236">14</text><text fill="#000000" font-family="sans-serif" font-size="13" lengthAdjust="spacing" textLength="109.8335" x="838.7354" y="535.7236">returns saved flight</text></g><g class="message" data-participant-1="UC" data-participant-2="Ctrl"><polygon fill="#181818" points="403.3994,568.2773,393.3994,572.2773,403.3994,576.2773,399.3994,572.2773" style="stroke:#181818;stroke-width:1;"/><line style="stroke:#181818;stroke-width:1;stroke-dasharray:2,2;" x1="397.3994" x2="797.2754" y1="572.2773" y2="572.2773"/><text fill="#000000" font-family="sans-serif" font-size="13" font-weight="bold" lengthAdjust="spacing" textLength="14.46" x="409.3994" y="567.0146">15</text><text fill="#000000" font-family="sans-serif" font-size="13" lengthAdjust="spacing" textLength="156.0571" x="427.8594" y="567.0146">FlightResponse.from(flight)</text></g><g class="message" data-participant-1="Ctrl" data-participant-2="BO"><polygon fill="#181818" points="38.0552,599.5684,28.0552,603.5684,38.0552,607.5684,34.0552,603.5684" style="stroke:#181818;stroke-width:1;"/><line style="stroke:#181818;stroke-width:1;stroke-dasharray:2,2;" x1="32.0552" x2="386.3994" y1="603.5684" y2="603.5684"/><text fill="#000000" font-family="sans-serif" font-size="13" font-weight="bold" lengthAdjust="spacing" textLength="14.46" x="44.0552" y="598.3057">16</text><text fill="#000000" font-family="sans-serif" font-size="13" lengthAdjust="spacing" textLength="226.9033" x="62.5151" y="598.3057">returns created scheduled Flight details</text></g><!--SRC=[hLJDQkCm4BxxAKHEMKYsznuAYTk5NDObSMuBorGQDm95DfAStRpzZYNPbXFJKjYJRUdxcnd9qBfQj-StD1bmLnkss9Hvlc1WsRR86Z1ESjc0TcpnGydtayjhxKoj51eFofrHKzY1dr2q2WFyQ347YnvxpAV8VTqwt6DJMqdELuyPrgRGZJJSGELkq1j-3ms-Dy1nSGxi8I_QINVD13XueyHiyHpV_ExpDiks1Li_-OhP8tij3YLxW4O-L5x3_j9BY2btOiLCLqZt8h1pR0sI7fRoZ2i6niWBg7xXMzTwMd0Osfbv2x8wvcI4Vv6Jr7yGf_vd94d2GvT9lv9QRAyxiOoY2M4SnaXOzxaCag-s8Gi5SI2LpGJEiADhc5PgETQKkCQXHlITNy-PiupKw3SEdUWdiCK5ZOAcaVezRDb9Kx_Ko-H09JPtOIjG5jE42I-c3EUEE1h_nEqmYjLGwXUpnPCSXUypUG-6yRpZBM-kUnOkk0p4pvlmHBU5EBkVXvTzIO-ow3r3OR-b66lp7qDvGrc92rqzqblVHkhBiItdQ2V7W1WV3QKhHiH87yrclEpzZcrgRV5xPUhpq8r4eBjWuUuIbVuMeoKtI031RFmvYYWvTuWxXNy0]--></g></svg>