<svg xmlns="http://www.w3.org/2000/svg" xmlns:xlink="http://www.w3.org/1999/xlink" contentStyleType="text/css" data-diagram-type="SEQUENCE" height="566px" preserveAspectRatio="none" style="width:1122px;height:566px;background:#FFFFFF;" version="1.1" viewBox="0 0 1122 566" width="1122px" zoomAndPan="magnify"><defs/><g><g><title>RouteController</title><rect fill="#FFFFFF" height="348.2012" style="stroke:#181818;stroke-width:1;" width="10" x="360.6948" y="116.9121"/></g><g><title>ListActiveRoutesUseCase</title><rect fill="#FFFFFF" height="285.6191" style="stroke:#181818;stroke-width:1;" width="10" x="584.645" y="148.2031"/></g><g><title>RouteRepository</title><rect fill="#FFFFFF" height="93.873" style="stroke:#181818;stroke-width:1;" width="10" x="781.603" y="179.4941"/></g><g><title>AirportRepository</title><rect fill="#FFFFFF" height="31.291" style="stroke:#181818;stroke-width:1;" width="10" x="936.3418" y="357.2402"/></g><g><title>Database</title><rect fill="#FFFFFF" height="31.291" style="stroke:#181818;stroke-width:1;" width="10" x="1082.9883" y="210.7852"/></g><rect fill="none" height="115.1641" style="stroke:#000000;stroke-width:1.5;" width="540.6963" x="481.7212" y="288.3672"/><rect fill="none" height="81.873" style="stroke:#000000;stroke-width:1.5;" width="520.6963" x="491.7212" y="314.6582"/><g><title>ATCC</title><rect fill="#000000" fill-opacity="0.00000" height="399.4922" width="8" x="23.0552" y="83.6211"/><line style="stroke:#181818;stroke-width:0.5;stroke-dasharray:5,5;" x1="27" x2="27" y1="83.6211" y2="483.1133"/></g><g><title>RouteController</title><rect fill="#000000" fill-opacity="0.00000" height="399.4922" width="8" x="361.6948" y="83.6211"/><line style="stroke:#181818;stroke-width:0.5;stroke-dasharray:5,5;" x1="365.6709" x2="365.6709" y1="83.6211" y2="483.1133"/></g><g><title>ListActiveRoutesUseCase</title><rect fill="#000000" fill-opacity="0.00000" height="399.4922" width="8" x="585.645" y="83.6211"/><line style="stroke:#181818;stroke-width:0.5;stroke-dasharray:5,5;" x1="588.7212" x2="588.7212" y1="83.6211" y2="483.1133"/></g><g><title>RouteRepository</title><rect fill="#000000" fill-opacity="0.00000" height="399.4922" width="8" x="782.603" y="83.6211"/><line style="stroke:#181818;stroke-width:0.5;stroke-dasharray:5,5;" x1="786.4653" x2="786.4653" y1="83.6211" y2="483.1133"/></g><g><title>AirportRepository</title><rect fill="#000000" fill-opacity="0.00000" height="399.4922" width="8" x="937.3418" y="83.6211"/><line style="stroke:#181818;stroke-width:0.5;stroke-dasharray:5,5;" x1="941.2661" x2="941.2661" y1="83.6211" y2="483.1133"/></g><g><title>Database</title><rect fill="#000000" fill-opacity="0.00000" height="399.4922" width="8" x="1083.9883" y="83.6211"/><line style="stroke:#181818;stroke-width:0.5;stroke-dasharray:5,5;" x1="1087.0229" x2="1087.0229" y1="83.6211" y2="483.1133"/></g><g class="participant participant-head" data-participant="BO"><text fill="#000000" font-family="sans-serif" font-size="14" lengthAdjust="spacing" textLength="38.1104" x="5" y="80.1074">ATCC</text><ellipse cx="27.0552" cy="13.5" fill="#E2E2F0" rx="8" ry="8" style="stroke:#181818;stroke-width:0.5;"/><path d="M27.0552,21.5 L27.0552,48.5 M14.0552,29.5 L40.0552,29.5 M27.0552,48.5 L14.0552,63.5 M27.0552,48.5 L40.0552,63.5" fill="none" style="stroke:#181818;stroke-width:0.5;"/></g><g class="participant participant-tail" data-participant="BO"><text fill="#000000" font-family="sans-serif" font-size="14" lengthAdjust="spacing" textLength="38.1104" x="5" y="497.2207">ATCC</text><ellipse cx="27.0552" cy="509.2344" fill="#E2E2F0" rx="8" ry="8" style="stroke:#181818;stroke-width:0.5;"/><path d="M27.0552,517.2344 L27.0552,544.2344 M14.0552,525.2344 L40.0552,525.2344 M27.0552,544.2344 L14.0552,559.2344 M27.0552,544.2344 L40.0552,559.2344" fill="none" style="stroke:#181818;stroke-width:0.5;"/></g><g class="participant participant-head" data-participant="Ctrl"><rect fill="#E2E2F0" height="32.6211" rx="2.5" ry="2.5" style="stroke:#181818;stroke-width:0.5;" width="112.0479" x="309.6709" y="50"/><text fill="#000000" font-family="sans-serif" font-size="14" lengthAdjust="spacing" textLength="98.0479" x="316.6709" y="72.1074">RouteController</text></g><g class="participant participant-tail" data-participant="Ctrl"><rect fill="#E2E2F0" height="32.6211" rx="2.5" ry="2.5" style="stroke:#181818;stroke-width:0.5;" width="112.0479" x="309.6709" y="482.1133"/><text fill="#000000" font-family="sans-serif" font-size="14" lengthAdjust="spacing" textLength="98.0479" x="316.6709" y="504.2207">RouteController</text></g><g class="participant participant-head" data-participant="UC"><rect fill="#E2E2F0" height="32.6211" rx="2.5" ry="2.5" style="stroke:#181818;stroke-width:0.5;" width="175.8477" x="501.7212" y="50"/><text fill="#000000" font-family="sans-serif" font-size="14" lengthAdjust="spacing" textLength="161.8477" x="508.7212" y="72.1074">ListActiveRoutesUseCase</text></g><g class="participant participant-tail" data-participant="UC"><rect fill="#E2E2F0" height="32.6211" rx="2.5" ry="2.5" style="stroke:#181818;stroke-width:0.5;" width="175.8477" x="501.7212" y="482.1133"/><text fill="#000000" font-family="sans-serif" font-size="14" lengthAdjust="spacing" textLength="161.8477" x="508.7212" y="504.2207">ListActiveRoutesUseCase</text></g><g class="participant participant-head" data-participant="RouteRepo"><rect fill="#E2E2F0" height="32.6211" rx="2.5" ry="2.5" style="stroke:#181818;stroke-width:0.5;" width="118.2754" x="727.4653" y="50"/><text fill="#000000" font-family="sans-serif" font-size="14" lengthAdjust="spacing" textLength="104.2754" x="734.4653" y="72.1074">RouteRepository</text></g><g class="participant participant-tail" data-participant="RouteRepo"><rect fill="#E2E2F0" height="32.6211" rx="2.5" ry="2.5" style="stroke:#181818;stroke-width:0.5;" width="118.2754" x="727.4653" y="482.1133"/><text fill="#000000" font-family="sans-serif" font-size="14" lengthAdjust="spacing" textLength="104.2754" x="734.4653" y="504.2207">RouteRepository</text></g><g class="participant participant-head" data-participant="AirportRepo"><rect fill="#E2E2F0" height="32.6211" rx="2.5" ry="2.5" style="stroke:#181818;stroke-width:0.5;" width="122.1514" x="880.2661" y="50"/><text fill="#000000" font-family="sans-serif" font-size="14" lengthAdjust="spacing" textLength="108.1514" x="887.2661" y="72.1074">AirportRepository</text></g><g class="participant participant-tail" data-participant="AirportRepo"><rect fill="#E2E2F0" height="32.6211" rx="2.5" ry="2.5" style="stroke:#181818;stroke-width:0.5;" width="122.1514" x="880.2661" y="482.1133"/><text fill="#000000" font-family="sans-serif" font-size="14" lengthAdjust="spacing" textLength="108.1514" x="887.2661" y="504.2207">AirportRepository</text></g><g class="participant participant-head" data-participant="DB"><text fill="#000000" font-family="sans-serif" font-size="14" lengthAdjust="spacing" textLength="59.9307" x="1055.0229" y="80.1074">Database</text><path d="M1069.9883,29 C1069.9883,19 1087.9883,19 1087.9883,19 C1087.9883,19 1105.9883,19 1105.9883,29 L1105.9883,55 C1105.9883,65 1087.9883,65 1087.9883,65 C1087.9883,65 1069.9883,65 1069.9883,55 L1069.9883,29" fill="#E2E2F0" style="stroke:#181818;stroke-width:0.5;"/><path d="M1069.9883,29 C1069.9883,39 1087.9883,39 1087.9883,39 C1087.9883,39 1105.9883,39 1105.9883,29" fill="none" style="stroke:#181818;stroke-width:0.5;"/></g><g class="participant participant-tail" data-participant="DB"><text fill="#000000" font-family="sans-serif" font-size="14" lengthAdjust="spacing" textLength="59.9307" x="1055.0229" y="497.2207">Database</text><path d="M1069.9883,510.7344 C1069.9883,500.7344 1087.9883,500.7344 1087.9883,500.7344 C1087.9883,500.7344 1105.9883,500.7344 1105.9883,510.7344 L1105.9883,536.7344 C1105.9883,546.7344 1087.9883,546.7344 1087.9883,546.7344 C1087.9883,546.7344 1069.9883,546.7344 1069.9883,536.7344 L1069.9883,510.7344" fill="#E2E2F0" style="stroke:#181818;stroke-width:0.5;"/><path d="M1069.9883,510.7344 C1069.9883,520.7344 1087.9883,520.7344 1087.9883,520.7344 C1087.9883,520.7344 1105.9883,520.7344 1105.9883,510.7344" fill="none" style="stroke:#181818;stroke-width:0.5;"/></g><g><title>RouteController</title><rect fill="#FFFFFF" height="348.2012" style="stroke:#181818;stroke-width:1;" width="10" x="360.6948" y="116.9121"/></g><g><title>ListActiveRoutesUseCase</title><rect fill="#FFFFFF" height="285.6191" style="stroke:#181818;stroke-width:1;" width="10" x="584.645" y="148.2031"/></g><g><title>RouteRepository</title><rect fill="#FFFFFF" height="93.873" style="stroke:#181818;stroke-width:1;" width="10" x="781.603" y="179.4941"/></g><g><title>AirportRepository</title><rect fill="#FFFFFF" height="31.291" style="stroke:#181818;stroke-width:1;" width="10" x="936.3418" y="357.2402"/></g><g><title>Database</title><rect fill="#FFFFFF" height="31.291" style="stroke:#181818;stroke-width:1;" width="10" x="1082.9883" y="210.7852"/></g><g class="message" data-participant-1="BO" data-participant-2="Ctrl"><polygon fill="#181818" points="348.6948,112.9121,358.6948,116.9121,348.6948,120.9121,352.6948,116.9121" style="stroke:#181818;stroke-width:1;"/><line style="stroke:#181818;stroke-width:1;" x1="27.0552" x2="354.6948" y1="116.9121" y2="116.9121"/><text fill="#000000" font-family="sans-serif" font-size="13" font-weight="bold" lengthAdjust="spacing" textLength="7.23" x="34.0552" y="111.6494">1</text><text fill="#000000" font-family="sans-serif" font-size="13" lengthAdjust="spacing" textLength="273.1333" x="45.2852" y="111.6494">GET /api/routes?status=active&amp;sortBy={sortBy}</text></g><g class="message" data-participant-1="Ctrl" data-participant-2="UC"><polygon fill="#181818" points="572.645,144.2031,582.645,148.2031,572.645,152.2031,576.645,148.2031" style="stroke:#181818;stroke-width:1;"/><line style="stroke:#181818;stroke-width:1;" x1="370.6948" x2="578.645" y1="148.2031" y2="148.2031"/><text fill="#000000" font-family="sans-serif" font-size="13" font-weight="bold" lengthAdjust="spacing" textLength="7.23" x="377.6948" y="142.9404">2</text><text fill="#000000" font-family="sans-serif" font-size="13" lengthAdjust="spacing" textLength="183.7202" x="388.9248" y="142.9404">execute(status="active", sortBy)</text></g><g class="message" data-participant-1="UC" data-participant-2="RouteRepo"><polygon fill="#181818" points="769.603,175.4941,779.603,179.4941,769.603,183.4941,773.603,179.4941" style="stroke:#181818;stroke-width:1;"/><line style="stroke:#181818;stroke-width:1;" x1="594.645" x2="775.603" y1="179.4941" y2="179.4941"/><text fill="#000000" font-family="sans-serif" font-size="13" font-weight="bold" lengthAdjust="spacing" textLength="7.23" x="601.645" y="174.2314">3</text><text fill="#000000" font-family="sans-serif" font-size="13" lengthAdjust="spacing" textLength="106.209" x="612.875" y="174.2314">findActiveRoutes()</text></g><g class="message" data-participant-1="RouteRepo" data-participant-2="DB"><polygon fill="#181818" points="1070.9883,206.7852,1080.9883,210.7852,1070.9883,214.7852,1074.9883,210.7852" style="stroke:#181818;stroke-width:1;"/><line style="stroke:#181818;stroke-width:1;" x1="791.603" x2="1076.9883" y1="210.7852" y2="210.7852"/><text fill="#000000" font-family="sans-serif" font-size="13" font-weight="bold" lengthAdjust="spacing" textLength="7.23" x="798.603" y="205.5225">4</text><text fill="#000000" font-family="sans-serif" font-size="13" lengthAdjust="spacing" textLength="261.1553" x="809.833" y="205.5225">SELECT * FROM route WHERE active = true</text></g><g class="message" data-participant-1="DB" data-participant-2="RouteRepo"><polygon fill="#181818" points="802.603,238.0762,792.603,242.0762,802.603,246.0762,798.603,242.0762" style="stroke:#181818;stroke-width:1;"/><line style="stroke:#181818;stroke-width:1;stroke-dasharray:2,2;" x1="796.603" x2="1086.9883" y1="242.0762" y2="242.0762"/><text fill="#000000" font-family="sans-serif" font-size="13" font-weight="bold" lengthAdjust="spacing" textLength="7.23" x="808.603" y="236.8135">5</text><text fill="#000000" font-family="sans-serif" font-size="13" lengthAdjust="spacing" textLength="158.2344" x="819.833" y="236.8135">returns active route records</text></g><g class="message" data-participant-1="RouteRepo" data-participant-2="UC"><polygon fill="#181818" points="605.645,269.3672,595.645,273.3672,605.645,277.3672,601.645,273.3672" style="stroke:#181818;stroke-width:1;"/><line style="stroke:#181818;stroke-width:1;stroke-dasharray:2,2;" x1="599.645" x2="785.603" y1="273.3672" y2="273.3672"/><text fill="#000000" font-family="sans-serif" font-size="13" font-weight="bold" lengthAdjust="spacing" textLength="7.23" x="611.645" y="268.1045">6</text><text fill="#000000" font-family="sans-serif" font-size="13" lengthAdjust="spacing" textLength="151.728" x="622.875" y="268.1045">returns list of active routes</text></g><path d="M481.7212,288.3672 L541.8921,288.3672 L541.8921,297.6582 L531.8921,307.6582 L481.7212,307.6582 L481.7212,288.3672" fill="#EEEEEE" style="stroke:#000000;stroke-width:1.5;"/><rect fill="none" height="115.1641" style="stroke:#000000;stroke-width:1.5;" width="540.6963" x="481.7212" y="288.3672"/><text fill="#000000" font-family="sans-serif" font-size="13" font-weight="bold" lengthAdjust="spacing" textLength="15.1709" x="496.7212" y="303.3955">alt</text><text fill="#000000" font-family="sans-serif" font-size="11" font-weight="bold" lengthAdjust="spacing" textLength="116.1875" x="556.8921" y="302.2373">[sortBy == "distance"]</text><path d="M491.7212,314.6582 L564.1558,314.6582 L564.1558,323.9492 L554.1558,333.9492 L491.7212,333.9492 L491.7212,314.6582" fill="#EEEEEE" style="stroke:#000000;stroke-width:1.5;"/><rect fill="none" height="81.873" style="stroke:#000000;stroke-width:1.5;" width="520.6963" x="491.7212" y="314.6582"/><text fill="#000000" font-family="sans-serif" font-size="13" font-weight="bold" lengthAdjust="spacing" textLength="27.4346" x="506.7212" y="329.6865">loop</text><text fill="#000000" font-family="sans-serif" font-size="11" font-weight="bold" lengthAdjust="spacing" textLength="80.6738" x="579.1558" y="328.5283">[for each route]</text><g class="message" data-participant-1="UC" data-participant-2="AirportRepo"><polygon fill="#181818" points="924.3418,353.2402,934.3418,357.2402,924.3418,361.2402,928.3418,357.2402" style="stroke:#181818;stroke-width:1;"/><line style="stroke:#181818;stroke-width:1;" x1="594.645" x2="930.3418" y1="357.2402" y2="357.2402"/><text fill="#000000" font-family="sans-serif" font-size="13" font-weight="bold" lengthAdjust="spacing" textLength="7.23" x="601.645" y="351.9775">7</text><text fill="#000000" font-family="sans-serif" font-size="13" lengthAdjust="spacing" textLength="311.4668" x="612.875" y="351.9775">findCoordinates(route.originIata, route.destinationIata)</text></g><g class="message" data-participant-1="AirportRepo" data-participant-2="UC"><polygon fill="#181818" points="605.645,384.5313,595.645,388.5313,605.645,392.5313,601.645,388.5313" style="stroke:#181818;stroke-width:1;"/><line style="stroke:#181818;stroke-width:1;stroke-dasharray:2,2;" x1="599.645" x2="940.3418" y1="388.5313" y2="388.5313"/><text fill="#000000" font-family="sans-serif" font-size="13" font-weight="bold" lengthAdjust="spacing" textLength="7.23" x="611.645" y="383.2686">8</text><text fill="#000000" font-family="sans-serif" font-size="13" lengthAdjust="spacing" textLength="216.0615" x="622.875" y="383.2686">returns origin and destination Airports</text></g><g class="message" data-participant-1="UC" data-participant-2="Ctrl"><polygon fill="#181818" points="381.6948,429.8223,371.6948,433.8223,381.6948,437.8223,377.6948,433.8223" style="stroke:#181818;stroke-width:1;"/><line style="stroke:#181818;stroke-width:1;stroke-dasharray:2,2;" x1="375.6948" x2="588.645" y1="433.8223" y2="433.8223"/><text fill="#000000" font-family="sans-serif" font-size="13" font-weight="bold" lengthAdjust="spacing" textLength="7.23" x="387.6948" y="428.5596">9</text><text fill="#000000" font-family="sans-serif" font-size="13" lengthAdjust="spacing" textLength="172.7134" x="398.9248" y="428.5596">returns List&lt;RouteResponse&gt;</text></g><g class="message" data-participant-1="Ctrl" data-participant-2="BO"><polygon fill="#181818" points="38.0552,461.1133,28.0552,465.1133,38.0552,469.1133,34.0552,465.1133" style="stroke:#181818;stroke-width:1;"/><line style="stroke:#181818;stroke-width:1;stroke-dasharray:2,2;" x1="32.0552" x2="364.6948" y1="465.1133" y2="465.1133"/><text fill="#000000" font-family="sans-serif" font-size="13" font-weight="bold" lengthAdjust="spacing" textLength="14.46" x="44.0552" y="459.8506">10</text><text fill="#000000" font-family="sans-serif" font-size="13" lengthAdjust="spacing" textLength="291.1797" x="62.5151" y="459.8506">returns list of active Route details sorted by criteria</text></g><!--SRC=[TPDDRzim38Rl-XM43qCxzEC-p2rYnLiBT0YG9UXPiPXDW2SP4Zqi6FRVHql-KDBD1zkW-RmaNz6g9sVx7mVqGZNaF1IhdPG5g03LHdJAasbCfon1iNKzeNIMl6jRz357ac_FirvCe5L3vYV6_B0FA5N0cBsN_r3SOkU2uTAdc3F7pbDNndVEqqLo5XLQaJfm9IZMurjCMLT2L1kuVOYzmWVuNE_WNdNctiV-7WCfwaEfOi_l0ijLf_9tUluHCQm8qwGYQh3MNh8I_iA69Qv6XI9953UGuEi5vi458mpEup5_D5RdLbrbn6B3GZ2-hfZxMh_KSWVluTDsymNY6F3wL6zhI1r02UHxNCJO0mPlByfxfDxRC459nsFZl0v2OqvdFKp3JtJBvmtkUAPoXY-J2DNIw0sK9HIQKMKRB0JmrJhNmP4taD7lIIV6Xojvbvtsw9vqtAonQZ0l4dVEcs_6FlC6t2IDEus1XXJZOlXw5fqxpBTe-fZNUZDpAWBAQiZK9oRC8faBbpNGQY7YRPXjsSwfnF0RVHoj2vsp0HzoKuU5Ihl8AA_tVyyZId0Zf4mRelceuN22nXj2RrGkEWZ-1G00]--></g></svg>