<svg xmlns="http://www.w3.org/2000/svg" xmlns:xlink="http://www.w3.org/1999/xlink" contentStyleType="text/css" data-diagram-type="DESCRIPTION" height="470px" preserveAspectRatio="none" style="width:606px;height:470px;background:#FFFFFF;" version="1.1" viewBox="0 0 606 470" width="606px" zoomAndPan="magnify"><defs/><g><!--cluster Aircraft Management (WP #1A)--><g class="cluster" data-entity="Aircraft Management .WP .1A." data-source-line="7" data-uid="ent0004" id="cluster_Aircraft Management .WP .1A."><rect fill="none" height="457" rx="2.5" ry="2.5" style="stroke:#181818;stroke-width:1;" width="316" x="284" y="7"/><text fill="#000000" font-family="sans-serif" font-size="14" font-weight="bold" lengthAdjust="spacing" textLength="204.5928" x="339.7036" y="24.1074">Aircraft Management (WP #1A)</text></g><!--entity UC101--><g class="entity" data-entity="UC101" data-source-line="8" data-uid="ent0005" id="entity_UC101"><ellipse cx="442.0289" cy="69.2058" fill="#F1F1F1" rx="111.5289" ry="24.7058" style="stroke:#181818;stroke-width:0.5;"/><text fill="#000000" font-family="sans-serif" font-size="14" lengthAdjust="spacing" textLength="196.0752" x="343.9913" y="75.0163">US101 - Register aircraft model</text></g><!--entity UC102--><g class="entity" data-entity="UC102" data-source-line="9" data-uid="ent0006" id="entity_UC102"><ellipse cx="441.8951" cy="320.179" fill="#F1F1F1" rx="141.3951" ry="30.679" style="stroke:#181818;stroke-width:0.5;"/><text fill="#000000" font-family="sans-serif" font-size="14" lengthAdjust="spacing" textLength="260.6611" x="311.5646" y="325.9896">US102 - Register specific aircraft instance</text></g><!--entity UC103--><g class="entity" data-entity="UC103" data-source-line="10" data-uid="ent0007" id="entity_UC103"><ellipse cx="441.832" cy="151.9664" fill="#F1F1F1" rx="102.832" ry="22.9664" style="stroke:#181818;stroke-width:0.5;"/><text fill="#000000" font-family="sans-serif" font-size="14" lengthAdjust="spacing" textLength="176.627" x="353.5185" y="157.7769">US103 - View aircraft details</text></g><!--entity UC104--><g class="entity" data-entity="UC104" data-source-line="11" data-uid="ent0008" id="entity_UC104"><ellipse cx="441.8862" cy="232.0772" fill="#F1F1F1" rx="98.3862" ry="22.0772" style="stroke:#181818;stroke-width:0.5;"/><text fill="#000000" font-family="sans-serif" font-size="14" lengthAdjust="spacing" textLength="166.5098" x="358.6313" y="237.8878">US104 - Search for aircraft</text></g><!--entity UC105--><g class="entity" data-entity="UC105" data-source-line="12" data-uid="ent0009" id="entity_UC105"><ellipse cx="441.7782" cy="416.7556" fill="#F1F1F1" rx="141.7782" ry="30.7556" style="stroke:#181818;stroke-width:0.5;"/><text fill="#000000" font-family="sans-serif" font-size="14" lengthAdjust="spacing" textLength="261.4746" x="311.0409" y="422.5662">US105 - Update aircraft operational status</text></g><!--entity BO--><g class="entity" data-entity="BO" data-source-line="4" data-uid="ent0002" id="entity_BO"><ellipse cx="122.8618" cy="89" fill="#F1F1F1" rx="8" ry="8" style="stroke:#181818;stroke-width:0.5;"/><path d="M122.8618,97 L122.8618,124 M109.8618,105 L135.8618,105 M122.8618,124 L109.8618,139 M122.8618,124 L135.8618,139" fill="none" style="stroke:#181818;stroke-width:0.5;"/><text fill="#000000" font-family="sans-serif" font-size="14" lengthAdjust="spacing" textLength="123.7236" x="61" y="155.6074">Backoffice Operator</text></g><!--entity ATCC--><g class="entity" data-entity="ATCC" data-source-line="5" data-uid="ent0003" id="entity_ATCC"><ellipse cx="123.0962" cy="225" fill="#F1F1F1" rx="8" ry="8" style="stroke:#181818;stroke-width:0.5;"/><path d="M123.0962,233 L123.0962,260 M110.0962,241 L136.0962,241 M123.0962,260 L110.0962,275 M123.0962,260 L136.0962,275" fill="none" style="stroke:#181818;stroke-width:0.5;"/><text fill="#000000" font-family="sans-serif" font-size="14" lengthAdjust="spacing" textLength="38.1104" x="6" y="291.6074">ATCC</text><text fill="#000000" font-family="sans-serif" font-size="14" lengthAdjust="spacing" textLength="234.1924" x="6" y="310.2285">(Air Transport Company Collaborator)</text></g><!--link BO to UC101--><g class="link" data-entity-1="BO" data-entity-2="UC101" data-source-line="15" data-uid="lnk10" id="link_BO_UC101"><path d="M185.12,110.17 C232.35,102.57 292.4861,92.8926 345.6561,84.3426" fill="none" id="BO-to-UC101" style="stroke:#181818;stroke-width:1;"/><polygon fill="#181818" points="351.58,83.39,342.0591,80.8696,346.6434,84.1838,343.3292,88.7682,351.58,83.39" style="stroke:#181818;stroke-width:1;"/></g><!--link BO to UC103--><g class="link" data-entity-1="BO" data-entity-2="UC103" data-source-line="16" data-uid="lnk11" id="link_BO_UC103"><path d="M185.12,126.17 C231.27,130.83 289.4303,136.6975 341.9403,141.9975" fill="none" id="BO-to-UC103" style="stroke:#181818;stroke-width:1;"/><polygon fill="#181818" points="347.91,142.6,339.3572,137.7164,342.9353,142.0979,338.5538,145.676,347.91,142.6" style="stroke:#181818;stroke-width:1;"/></g><!--link ATCC to UC102--><g class="link" data-entity-1="ATCC" data-entity-2="UC102" data-source-line="18" data-uid="lnk12" id="link_ATCC_UC102"><path d="M240.24,285.17 C270.01,290.33 296.0184,294.8436 325.4484,299.9536" fill="none" id="ATCC-to-UC102" style="stroke:#181818;stroke-width:1;"/><polygon fill="#181818" points="331.36,300.98,323.177,295.4993,326.4337,300.1246,321.8084,303.3814,331.36,300.98" style="stroke:#181818;stroke-width:1;"/></g><!--link ATCC to UC103--><g class="link" data-entity-1="ATCC" data-entity-2="UC103" data-source-line="19" data-uid="lnk13" id="link_ATCC_UC103"><path d="M217.15,216.49 C236.3,207.59 256.56,198.94 276,192 C304.18,181.94 330.1018,174.9112 358.1818,168.4712" fill="none" id="ATCC-to-UC103" style="stroke:#181818;stroke-width:1;"/><polygon fill="#181818" points="364.03,167.13,354.3636,165.2431,359.1565,168.2477,356.1519,173.0406,364.03,167.13" style="stroke:#181818;stroke-width:1;"/></g><!--link ATCC to UC104--><g class="link" data-entity-1="ATCC" data-entity-2="UC104" data-source-line="20" data-uid="lnk14" id="link_ATCC_UC104"><path d="M240.24,252.9 C277.17,249.05 311.4322,245.491 346.1222,241.881" fill="none" id="ATCC-to-UC104" style="stroke:#181818;stroke-width:1;"/><polygon fill="#181818" points="352.09,241.26,342.7243,238.213,347.1169,241.7775,343.5524,246.1701,352.09,241.26" style="stroke:#181818;stroke-width:1;"/></g><!--link ATCC to UC105--><g class="link" data-entity-1="ATCC" data-entity-2="UC105" data-source-line="21" data-uid="lnk15" id="link_ATCC_UC105"><path d="M186.47,313.7 C212.97,332.64 244.88,353.27 276,368 C297.88,378.36 316.6877,385.3206 340.0277,392.3906" fill="none" id="ATCC-to-UC105" style="stroke:#181818;stroke-width:1;"/><polygon fill="#181818" points="345.77,394.13,338.3161,387.6926,340.9847,392.6805,335.9969,395.3491,345.77,394.13" style="stroke:#181818;stroke-width:1;"/></g><!--SRC=[NP5FJyCm3CNl-HJMk8n39TO_LwIrPpJ4DhXmCQdRHKkJACc49iHtnwrOk_OKlVZzxET4KnCXMl2gFKMebISPbJKYd9LnwB43X_ACBUtZLHFqPJIj9Y5GHkjXLNBPDesI13j77lbo1HYWtDqSsqDLVPhrLdauU3J1MH-Xifr3S-LJQ_oo0_SuWBrTY74GyyfBZnpp1Gq7wSX4M7-ymiDcoyIF0BW4aXZOUjnldZQGm1krAaJoW3UsipNfeV-nOiyIIk-Xu4WgtcYYbGcSHjBO85qsoBZ1kwBlYQafej9XHB8baZEo9_Jo18sTeev0lWGA1ewknaZJ53kyEVyOQk2CyJ8DBCIl4EKEakJvV-axaGdHF_IeqxdCvZAVoqBy0G00]--></g></svg>