<svg xmlns="http://www.w3.org/2000/svg" xmlns:xlink="http://www.w3.org/1999/xlink" contentStyleType="text/css" data-diagram-type="DESCRIPTION" height="523px" preserveAspectRatio="none" style="width:648px;height:523px;background:#FFFFFF;" version="1.1" viewBox="0 0 648 523" width="648px" zoomAndPan="magnify"><?plantuml 1.2026.4?><defs/><g><!--cluster Enhanced Airport Features (WP #2B)--><g class="cluster" data-qualified-name="Enhanced Airport Features .WP .2B." data-source-line="7" id="ent0003"><rect fill="none" height="502" rx="2.5" ry="2.5" style="stroke:#181818;stroke-width:1;" width="350" x="284" y="7"/><text fill="#000000" font-family="sans-serif" font-size="14" font-weight="700" lengthAdjust="spacing" textLength="245.041" x="336.4795" y="23.5332">Enhanced Airport Features (WP #2B)</text></g><!--entity UC207--><g class="entity" data-qualified-name="Enhanced Airport Features .WP .2B..UC207" data-source-line="8" id="ent0004"><ellipse cx="459.131" cy="265.2262" fill="#F1F1F1" rx="159.131" ry="34.2262" style="stroke:#181818;stroke-width:0.5;"/><text fill="#000000" font-family="sans-serif" font-size="14" lengthAdjust="spacing" textLength="299.5918" x="309.3351" y="270.5309">US207 - Register airport with facilities and photo</text></g><!--entity UC208--><g class="entity" data-qualified-name="Enhanced Airport Features .WP .2B..UC208" data-source-line="9" id="ent0005"><ellipse cx="458.9247" cy="75.8849" fill="#F1F1F1" rx="152.4247" ry="32.8849" style="stroke:#181818;stroke-width:0.5;"/><text fill="#000000" font-family="sans-serif" font-size="14" lengthAdjust="spacing" textLength="285.585" x="316.1323" y="81.1896">US208 - Update airport details (hours/contact)</text></g><!--entity UC209--><g class="entity" data-qualified-name="Enhanced Airport Features .WP .2B..UC209" data-source-line="10" id="ent0006"><ellipse cx="458.993" cy="365.8986" fill="#F1F1F1" rx="144.993" ry="31.3986" style="stroke:#181818;stroke-width:0.5;"/><text fill="#000000" font-family="sans-serif" font-size="14" lengthAdjust="spacing" textLength="269.9922" x="323.9969" y="371.2033">US209 - View routes to/from specific airport</text></g><!--entity UC210--><g class="entity" data-qualified-name="Enhanced Airport Features .WP .2B..UC210" data-source-line="11" id="ent0007"><ellipse cx="458.7533" cy="169.8507" fill="#F1F1F1" rx="114.7533" ry="25.3507" style="stroke:#181818;stroke-width:0.5;"/><text fill="#000000" font-family="sans-serif" font-size="14" lengthAdjust="spacing" textLength="205.4336" x="356.0365" y="175.1554">US210 - Stats on busiest airports</text></g><!--entity UC211--><g class="entity" data-qualified-name="Enhanced Airport Features .WP .2B..UC211" data-source-line="12" id="ent0008"><ellipse cx="458.9018" cy="462.7804" fill="#F1F1F1" rx="136.9018" ry="29.7804" style="stroke:#181818;stroke-width:0.5;"/><text fill="#000000" font-family="sans-serif" font-size="14" lengthAdjust="spacing" textLength="252.916" x="332.4438" y="468.085">US211 - View airports grouped by region</text></g><!--entity BO--><g class="entity" data-qualified-name="BO" data-source-line="4" id="ent0001"><ellipse cx="122.8618" cy="139.5" fill="#F1F1F1" rx="8" ry="8" style="stroke:#181818;stroke-width:0.5;"/><path d="M122.8618,147.5 L122.8618,174.5 M109.8618,155.5 L135.8618,155.5 M122.8618,174.5 L109.8618,189.5 M122.8618,174.5 L135.8618,189.5" fill="none" style="stroke:#181818;stroke-width:0.5;"/><text fill="#000000" font-family="sans-serif" font-size="14" lengthAdjust="spacing" textLength="123.7236" x="61" y="205.5332">Backoffice Operator</text></g><!--entity ATCC--><g class="entity" data-qualified-name="ATCC" data-source-line="5" id="ent0002"><ellipse cx="123.0962" cy="375" fill="#F1F1F1" rx="8" ry="8" style="stroke:#181818;stroke-width:0.5;"/><path d="M123.0962,383 L123.0962,410 M110.0962,391 L136.0962,391 M123.0962,410 L110.0962,425 M123.0962,410 L136.0962,425" fill="none" style="stroke:#181818;stroke-width:0.5;"/><text fill="#000000" font-family="sans-serif" font-size="14" lengthAdjust="spacing" textLength="38.1104" x="6" y="441.0332">ATCC</text><text fill="#000000" font-family="sans-serif" font-size="14" lengthAdjust="spacing" textLength="234.1924" x="6" y="458.6426">(Air Transport Company Collaborator)</text></g><!--link BO to UC207--><g class="link" data-entity-1="ent0001" data-entity-2="ent0004" data-link-type="dependency" data-source-line="15" id="lnk9"><path d="M185.26,187.42 C234.88,201.54 300.8608,220.302 357.8808,236.522" fill="none" id="BO-to-UC207" style="stroke:#181818;stroke-width:1;"/><polygon fill="#181818" points="362.69,237.89,355.1279,231.5802,357.8808,236.522,352.939,239.2749,362.69,237.89" style="stroke:#181818;stroke-width:1;stroke-linejoin:miter;stroke-miterlimit:10;"/></g><!--link BO to UC208--><g class="link" data-entity-1="ent0001" data-entity-2="ent0005" data-link-type="dependency" data-source-line="16" id="lnk10"><path d="M185.01,152.7 C212.77,144.84 246.04,135.44 276,127 C304.9,118.86 331.5756,111.3795 360.1156,103.3795" fill="none" id="BO-to-UC208" style="stroke:#181818;stroke-width:1;"/><polygon fill="#181818" points="364.93,102.03,355.1844,100.6076,360.1156,103.3795,357.3436,108.3107,364.93,102.03" style="stroke:#181818;stroke-width:1;stroke-linejoin:miter;stroke-miterlimit:10;"/></g><!--link BO to UC210--><g class="link" data-entity-1="ent0001" data-entity-2="ent0007" data-link-type="dependency" data-source-line="17" id="lnk11"><path d="M185.26,170 C229.52,170 285.6,170 338.75,170" fill="none" id="BO-to-UC210" style="stroke:#181818;stroke-width:1;"/><polygon fill="#181818" points="343.75,170,334.75,166,338.75,170,334.75,174,343.75,170" style="stroke:#181818;stroke-width:1;stroke-linejoin:miter;stroke-miterlimit:10;"/></g><!--link ATCC to UC209--><g class="link" data-entity-1="ent0002" data-entity-2="ent0006" data-link-type="dependency" data-source-line="19" id="lnk12"><path d="M240.35,397.28 C271.79,392.76 300.9208,388.571 332.5908,384.021" fill="none" id="ATCC-to-UC209" style="stroke:#181818;stroke-width:1;"/><polygon fill="#181818" points="337.54,383.31,328.0626,380.6305,332.5908,384.021,329.2003,388.5492,337.54,383.31" style="stroke:#181818;stroke-width:1;stroke-linejoin:miter;stroke-miterlimit:10;"/></g><!--link ATCC to UC211--><g class="link" data-entity-1="ent0002" data-entity-2="ent0008" data-link-type="dependency" data-source-line="20" id="lnk13"><path d="M240.35,431.07 C274.14,436.03 306.0429,440.7044 339.6529,445.6344" fill="none" id="ATCC-to-UC211" style="stroke:#181818;stroke-width:1;"/><polygon fill="#181818" points="344.6,446.36,336.2758,441.0962,339.6529,445.6344,335.1148,449.0115,344.6,446.36" style="stroke:#181818;stroke-width:1;stroke-linejoin:miter;stroke-miterlimit:10;"/></g><?plantuml-src NP71Ri8m38RlUGgBNU20QBaCBfDejLsP1coNNKpgjX4bYH9N24rxzvcALgodohM_xq-SXae6TX1CLJCK9f1cuwoA9sCz1Zo3Htt2YdPyRGXkRRHLGqgXPXTWaadRbQNH15jF0UNd1312jkqdDliy_xRJZGcm3sYZTu4XTsUFzYhVfi6ZwxXP1zx6bHg2OF9gQxIQ2X13nxuHSXiemlJh7PwMcN0_2g2Df34ASDWjasUOmmTL9Z85m3juCLn3YTeqXetmQ0lmjMFN1HzomSQUbNWEla2cmL8GesaalNPjY0ljBCjDPuDZDNQinV5fw0B1jIonx1PbS6U8dhIHpVNcmR0U6T9433j6Zk0i7DieX-UUYZsM9cCixOFxKQZa25vMURpAKrRoq0ESgb-biYtCvo_tJJmKguT2OjJjZORc-byfeZy0?></g></svg>