<?plantuml 1.2026.1?><svg xmlns="http://www.w3.org/2000/svg" xmlns:xlink="http://www.w3.org/1999/xlink" contentStyleType="text/css" data-diagram-type="SEQUENCE" height="791px" preserveAspectRatio="none" style="width:1404px;height:791px;background:#FFFFFF;" version="1.1" viewBox="0 0 1404 791" width="1404px" zoomAndPan="magnify"><defs/><g><g><title>AircraftController</title><rect fill="#FFFFFF" height="580.6719" style="stroke:#181818;stroke-width:1;" width="10" x="322.1226" y="112.4297"/></g><g><title>UpdateAircraftStatusUseCase</title><rect fill="#FFFFFF" height="522.4063" style="stroke:#181818;stroke-width:1;" width="10" x="580.5151" y="141.5625"/></g><g><title>AircraftRepository</title><rect fill="#FFFFFF" height="87.3984" style="stroke:#181818;stroke-width:1;" width="10" x="935.8281" y="170.6953"/></g><g><title>AircraftRepository</title><rect fill="#FFFFFF" height="87.3984" style="stroke:#181818;stroke-width:1;" width="10" x="935.8281" y="540.4375"/></g><g><title>Aircraft</title><rect fill="#FFFFFF" height="29.1328" style="stroke:#181818;stroke-width:1;" width="10" x="1049.0371" y="482.1719"/></g><g><title>Database</title><rect fill="#FFFFFF" height="29.1328" style="stroke:#181818;stroke-width:1;" width="10" x="1345.6631" y="199.8281"/></g><g><title>Database</title><rect fill="#FFFFFF" height="29.1328" style="stroke:#181818;stroke-width:1;" width="10" x="1345.6631" y="569.5703"/></g><rect fill="none" height="362.7422" style="stroke:#000000;stroke-width:1.5;" width="932.2495" x="464.814" y="273.0938"/><g class="participant-lifeline" data-entity-uid="part1" data-qualified-name="ATCC" id="part1-lifeline"><g><title>ATCC</title><rect fill="#000000" fill-opacity="0.00000" height="629.8047" width="8" x="22.8398" y="81.2969"/><line style="stroke:#181818;stroke-width:0.5;stroke-dasharray:5,5;" x1="26" x2="26" y1="81.2969" y2="711.1016"/></g></g><g class="participant-lifeline" data-entity-uid="part2" data-qualified-name="Ctrl" id="part2-lifeline"><g><title>AircraftController</title><rect fill="#000000" fill-opacity="0.00000" height="629.8047" width="8" x="323.1226" y="81.2969"/><line style="stroke:#181818;stroke-width:0.5;stroke-dasharray:5,5;" x1="326.6997" x2="326.6997" y1="81.2969" y2="711.1016"/></g></g><g class="participant-lifeline" data-entity-uid="part3" data-qualified-name="UC" id="part3-lifeline"><g><title>UpdateAircraftStatusUseCase</title><rect fill="#000000" fill-opacity="0.00000" height="629.8047" width="8" x="581.5151" y="81.2969"/><line style="stroke:#181818;stroke-width:0.5;stroke-dasharray:5,5;" x1="584.814" x2="584.814" y1="81.2969" y2="711.1016"/></g></g><g class="participant-lifeline" data-entity-uid="part4" data-qualified-name="Repo" id="part4-lifeline"><g><title>AircraftRepository</title><rect fill="#000000" fill-opacity="0.00000" height="629.8047" width="8" x="936.8281" y="81.2969"/><line style="stroke:#181818;stroke-width:0.5;stroke-dasharray:5,5;" x1="940.4556" x2="940.4556" y1="81.2969" y2="711.1016"/></g></g><g class="participant-lifeline" data-entity-uid="part5" data-qualified-name="Entity" id="part5-lifeline"><g><title>Aircraft</title><rect fill="#000000" fill-opacity="0.00000" height="629.8047" width="8" x="1050.0371" y="81.2969"/><line style="stroke:#181818;stroke-width:0.5;stroke-dasharray:5,5;" x1="1053.2007" x2="1053.2007" y1="81.2969" y2="711.1016"/></g></g><g class="participant-lifeline" data-entity-uid="part6" data-qualified-name="DB" id="part6-lifeline"><g><title>Database</title><rect fill="#000000" fill-opacity="0.00000" height="629.8047" width="8" x="1346.6631" y="81.2969"/><line style="stroke:#181818;stroke-width:0.5;stroke-dasharray:5,5;" x1="1350.2627" x2="1350.2627" y1="81.2969" y2="711.1016"/></g></g><g class="participant participant-head" data-entity-uid="part1" data-qualified-name="ATCC" id="part1-head"><text fill="#000000" font-family="sans-serif" font-size="14" lengthAdjust="spacing" textLength="37.6797" x="5" y="77.9951">ATCC</text><ellipse cx="26.8398" cy="13.5" fill="#E2E2F0" rx="8" ry="8" style="stroke:#181818;stroke-width:0.5;"/><path d="M26.8398,21.5 L26.8398,48.5 M13.8398,29.5 L39.8398,29.5 M26.8398,48.5 L13.8398,63.5 M26.8398,48.5 L39.8398,63.5" fill="none" style="stroke:#181818;stroke-width:0.5;"/></g><g class="participant participant-tail" data-entity-uid="part1" data-qualified-name="ATCC" id="part1-tail"><text fill="#000000" font-family="sans-serif" font-size="14" lengthAdjust="spacing" textLength="37.6797" x="5" y="723.0967">ATCC</text><ellipse cx="26.8398" cy="734.8984" fill="#E2E2F0" rx="8" ry="8" style="stroke:#181818;stroke-width:0.5;"/><path d="M26.8398,742.8984 L26.8398,769.8984 M13.8398,750.8984 L39.8398,750.8984 M26.8398,769.8984 L13.8398,784.8984 M26.8398,769.8984 L39.8398,784.8984" fill="none" style="stroke:#181818;stroke-width:0.5;"/></g><g class="participant participant-head" data-entity-uid="part2" data-qualified-name="Ctrl" id="part2-head"><rect fill="#E2E2F0" height="30.2969" rx="2.5" ry="2.5" style="stroke:#181818;stroke-width:0.5;" width="134.8457" x="259.6997" y="50"/><text fill="#000000" font-family="sans-serif" font-size="14" lengthAdjust="spacing" textLength="120.8457" x="266.6997" y="69.9951">AircraftController</text></g><g class="participant participant-tail" data-entity-uid="part2" data-qualified-name="Ctrl" id="part2-tail"><rect fill="#E2E2F0" height="30.2969" rx="2.5" ry="2.5" style="stroke:#181818;stroke-width:0.5;" width="134.8457" x="259.6997" y="710.1016"/><text fill="#000000" font-family="sans-serif" font-size="14" lengthAdjust="spacing" textLength="120.8457" x="266.6997" y="730.0967">AircraftController</text></g><g class="participant participant-head" data-entity-uid="part3" data-qualified-name="UC" id="part3-head"><rect fill="#E2E2F0" height="30.2969" rx="2.5" ry="2.5" style="stroke:#181818;stroke-width:0.5;" width="221.4023" x="474.814" y="50"/><text fill="#000000" font-family="sans-serif" font-size="14" lengthAdjust="spacing" textLength="207.4023" x="481.814" y="69.9951">UpdateAircraftStatusUseCase</text></g><g class="participant participant-tail" data-entity-uid="part3" data-qualified-name="UC" id="part3-tail"><rect fill="#E2E2F0" height="30.2969" rx="2.5" ry="2.5" style="stroke:#181818;stroke-width:0.5;" width="221.4023" x="474.814" y="710.1016"/><text fill="#000000" font-family="sans-serif" font-size="14" lengthAdjust="spacing" textLength="207.4023" x="481.814" y="730.0967">UpdateAircraftStatusUseCase</text></g><g class="participant participant-head" data-entity-uid="part4" data-qualified-name="Repo" id="part4-head"><rect fill="#E2E2F0" height="30.2969" rx="2.5" ry="2.5" style="stroke:#181818;stroke-width:0.5;" width="140.7451" x="870.4556" y="50"/><text fill="#000000" font-family="sans-serif" font-size="14" lengthAdjust="spacing" textLength="126.7451" x="877.4556" y="69.9951">AircraftRepository</text></g><g class="participant participant-tail" data-entity-uid="part4" data-qualified-name="Repo" id="part4-tail"><rect fill="#E2E2F0" height="30.2969" rx="2.5" ry="2.5" style="stroke:#181818;stroke-width:0.5;" width="140.7451" x="870.4556" y="710.1016"/><text fill="#000000" font-family="sans-serif" font-size="14" lengthAdjust="spacing" textLength="126.7451" x="877.4556" y="730.0967">AircraftRepository</text></g><g class="participant participant-head" data-entity-uid="part5" data-qualified-name="Entity" id="part5-head"><rect fill="#E2E2F0" height="30.2969" rx="2.5" ry="2.5" style="stroke:#181818;stroke-width:0.5;" width="65.6729" x="1021.2007" y="50"/><text fill="#000000" font-family="sans-serif" font-size="14" lengthAdjust="spacing" textLength="51.6729" x="1028.2007" y="69.9951">Aircraft</text></g><g class="participant participant-tail" data-entity-uid="part5" data-qualified-name="Entity" id="part5-tail"><rect fill="#E2E2F0" height="30.2969" rx="2.5" ry="2.5" style="stroke:#181818;stroke-width:0.5;" width="65.6729" x="1021.2007" y="710.1016"/><text fill="#000000" font-family="sans-serif" font-size="14" lengthAdjust="spacing" textLength="51.6729" x="1028.2007" y="730.0967">Aircraft</text></g><g class="participant participant-head" data-entity-uid="part6" data-qualified-name="DB" id="part6-head"><text fill="#000000" font-family="sans-serif" font-size="14" lengthAdjust="spacing" textLength="66.8008" x="1314.2627" y="77.9951">Database</text><path d="M1332.6631,29 C1332.6631,19 1350.6631,19 1350.6631,19 C1350.6631,19 1368.6631,19 1368.6631,29 L1368.6631,55 C1368.6631,65 1350.6631,65 1350.6631,65 C1350.6631,65 1332.6631,65 1332.6631,55 L1332.6631,29" fill="#E2E2F0" style="stroke:#181818;stroke-width:0.5;"/><path d="M1332.6631,29 C1332.6631,39 1350.6631,39 1350.6631,39 C1350.6631,39 1368.6631,39 1368.6631,29" fill="none" style="stroke:#181818;stroke-width:0.5;"/></g><g class="participant participant-tail" data-entity-uid="part6" data-qualified-name="DB" id="part6-tail"><text fill="#000000" font-family="sans-serif" font-size="14" lengthAdjust="spacing" textLength="66.8008" x="1314.2627" y="723.0967">Database</text><path d="M1332.6631,736.3984 C1332.6631,726.3984 1350.6631,726.3984 1350.6631,726.3984 C1350.6631,726.3984 1368.6631,726.3984 1368.6631,736.3984 L1368.6631,762.3984 C1368.6631,772.3984 1350.6631,772.3984 1350.6631,772.3984 C1350.6631,772.3984 1332.6631,772.3984 1332.6631,762.3984 L1332.6631,736.3984" fill="#E2E2F0" style="stroke:#181818;stroke-width:0.5;"/><path d="M1332.6631,736.3984 C1332.6631,746.3984 1350.6631,746.3984 1350.6631,746.3984 C1350.6631,746.3984 1368.6631,746.3984 1368.6631,736.3984" fill="none" style="stroke:#181818;stroke-width:0.5;"/></g><g><title>AircraftController</title><rect fill="#FFFFFF" height="580.6719" style="stroke:#181818;stroke-width:1;" width="10" x="322.1226" y="112.4297"/></g><g><title>UpdateAircraftStatusUseCase</title><rect fill="#FFFFFF" height="522.4063" style="stroke:#181818;stroke-width:1;" width="10" x="580.5151" y="141.5625"/></g><g><title>AircraftRepository</title><rect fill="#FFFFFF" height="87.3984" style="stroke:#181818;stroke-width:1;" width="10" x="935.8281" y="170.6953"/></g><g><title>AircraftRepository</title><rect fill="#FFFFFF" height="87.3984" style="stroke:#181818;stroke-width:1;" width="10" x="935.8281" y="540.4375"/></g><g><title>Aircraft</title><rect fill="#FFFFFF" height="29.1328" style="stroke:#181818;stroke-width:1;" width="10" x="1049.0371" y="482.1719"/></g><g><title>Database</title><rect fill="#FFFFFF" height="29.1328" style="stroke:#181818;stroke-width:1;" width="10" x="1345.6631" y="199.8281"/></g><g><title>Database</title><rect fill="#FFFFFF" height="29.1328" style="stroke:#181818;stroke-width:1;" width="10" x="1345.6631" y="569.5703"/></g><g class="message" data-entity-1="part1" data-entity-2="part2" id="msg1"><polygon fill="#181818" points="310.1226,108.4297,320.1226,112.4297,310.1226,116.4297,314.1226,112.4297" style="stroke:#181818;stroke-width:1;"/><line style="stroke:#181818;stroke-width:1;" x1="26.8398" x2="316.1226" y1="112.4297" y2="112.4297"/><text fill="#000000" font-family="sans-serif" font-size="13" font-weight="bold" lengthAdjust="spacing" textLength="9.0454" x="33.8398" y="107.3638">1</text><text fill="#000000" font-family="sans-serif" font-size="13" lengthAdjust="spacing" textLength="263.2373" x="46.8853" y="107.3638">PATCH /api/aircrafts/{reg}/status (JSON)</text></g><g class="message" data-entity-1="part2" data-entity-2="part3" id="msg2"><polygon fill="#181818" points="568.5151,137.5625,578.5151,141.5625,568.5151,145.5625,572.5151,141.5625" style="stroke:#181818;stroke-width:1;"/><line style="stroke:#181818;stroke-width:1;" x1="332.1226" x2="574.5151" y1="141.5625" y2="141.5625"/><text fill="#000000" font-family="sans-serif" font-size="13" font-weight="bold" lengthAdjust="spacing" textLength="9.0454" x="339.1226" y="136.4966">2</text><text fill="#000000" font-family="sans-serif" font-size="13" lengthAdjust="spacing" textLength="216.3472" x="352.168" y="136.4966">execute(reg, newStatus, version)</text></g><g class="message" data-entity-1="part3" data-entity-2="part4" id="msg3"><polygon fill="#181818" points="923.8281,166.6953,933.8281,170.6953,923.8281,174.6953,927.8281,170.6953" style="stroke:#181818;stroke-width:1;"/><line style="stroke:#181818;stroke-width:1;" x1="590.5151" x2="929.8281" y1="170.6953" y2="170.6953"/><text fill="#000000" font-family="sans-serif" font-size="13" font-weight="bold" lengthAdjust="spacing" textLength="9.0454" x="597.5151" y="165.6294">3</text><text fill="#000000" font-family="sans-serif" font-size="13" lengthAdjust="spacing" textLength="204.2295" x="610.5605" y="165.6294">findByRegistrationNumber(reg)</text></g><g class="message" data-entity-1="part4" data-entity-2="part6" id="msg4"><polygon fill="#181818" points="1333.6631,195.8281,1343.6631,199.8281,1333.6631,203.8281,1337.6631,199.8281" style="stroke:#181818;stroke-width:1;"/><line style="stroke:#181818;stroke-width:1;" x1="945.8281" x2="1339.6631" y1="199.8281" y2="199.8281"/><text fill="#000000" font-family="sans-serif" font-size="13" font-weight="bold" lengthAdjust="spacing" textLength="9.0454" x="952.8281" y="194.7622">4</text><text fill="#000000" font-family="sans-serif" font-size="13" lengthAdjust="spacing" textLength="367.7896" x="965.8735" y="194.7622">SELECT * FROM aircraft WHERE registration_number = ?</text></g><g class="message" data-entity-1="part6" data-entity-2="part4" id="msg5"><polygon fill="#181818" points="956.8281,224.9609,946.8281,228.9609,956.8281,232.9609,952.8281,228.9609" style="stroke:#181818;stroke-width:1;"/><line style="stroke:#181818;stroke-width:1;stroke-dasharray:2,2;" x1="950.8281" x2="1349.6631" y1="228.9609" y2="228.9609"/><text fill="#000000" font-family="sans-serif" font-size="13" font-weight="bold" lengthAdjust="spacing" textLength="9.0454" x="962.8281" y="223.895">5</text><text fill="#000000" font-family="sans-serif" font-size="13" lengthAdjust="spacing" textLength="75.4546" x="975.8735" y="223.895">record data</text></g><g class="message" data-entity-1="part4" data-entity-2="part3" id="msg6"><polygon fill="#181818" points="601.5151,254.0938,591.5151,258.0938,601.5151,262.0938,597.5151,258.0938" style="stroke:#181818;stroke-width:1;"/><line style="stroke:#181818;stroke-width:1;stroke-dasharray:2,2;" x1="595.5151" x2="939.8281" y1="258.0938" y2="258.0938"/><text fill="#000000" font-family="sans-serif" font-size="13" font-weight="bold" lengthAdjust="spacing" textLength="9.0454" x="607.5151" y="253.0278">6</text><text fill="#000000" font-family="sans-serif" font-size="13" lengthAdjust="spacing" textLength="124.7314" x="620.5605" y="253.0278">Optional&lt;Aircraft&gt;</text></g><path d="M464.814,273.0938 L529.2568,273.0938 L529.2568,280.2266 L519.2568,290.2266 L464.814,290.2266 L464.814,273.0938" fill="#EEEEEE" style="stroke:#000000;stroke-width:1.5;"/><rect fill="none" height="362.7422" style="stroke:#000000;stroke-width:1.5;" width="932.2495" x="464.814" y="273.0938"/><text fill="#000000" font-family="sans-serif" font-size="13" font-weight="bold" lengthAdjust="spacing" textLength="19.4429" x="479.814" y="286.1606">alt</text><text fill="#000000" font-family="sans-serif" font-size="11" font-weight="bold" lengthAdjust="spacing" textLength="120.2695" x="544.2568" y="285.3042">[aircraft not found]</text><g class="message" data-entity-1="part3" data-entity-2="part3" id="msg7"><line style="stroke:#181818;stroke-width:1;" x1="590.5151" x2="632.5151" y1="311.3594" y2="311.3594"/><line style="stroke:#181818;stroke-width:1;" x1="632.5151" x2="632.5151" y1="311.3594" y2="324.3594"/><line style="stroke:#181818;stroke-width:1;" x1="591.5151" x2="632.5151" y1="324.3594" y2="324.3594"/><polygon fill="#181818" points="601.5151,320.3594,591.5151,324.3594,601.5151,328.3594,597.5151,324.3594" style="stroke:#181818;stroke-width:1;"/><text fill="#000000" font-family="sans-serif" font-size="13" font-weight="bold" lengthAdjust="spacing" textLength="9.0454" x="597.5151" y="306.2935">7</text><text fill="#000000" font-family="sans-serif" font-size="13" lengthAdjust="spacing" textLength="216.5249" x="610.5605" y="306.2935">throw AircraftNotFoundException</text></g><line style="stroke:#000000;stroke-width:1;stroke-dasharray:2,2;" x1="464.814" x2="1397.0635" y1="333.3594" y2="333.3594"/><text fill="#000000" font-family="sans-serif" font-size="11" font-weight="bold" lengthAdjust="spacing" textLength="119.9204" x="469.814" y="343.5698">[version mismatch]</text><g class="message" data-entity-1="part3" data-entity-2="part3" id="msg8"><line style="stroke:#181818;stroke-width:1;" x1="590.5151" x2="632.5151" y1="368.2969" y2="368.2969"/><line style="stroke:#181818;stroke-width:1;" x1="632.5151" x2="632.5151" y1="368.2969" y2="381.2969"/><line style="stroke:#181818;stroke-width:1;" x1="591.5151" x2="632.5151" y1="381.2969" y2="381.2969"/><polygon fill="#181818" points="601.5151,377.2969,591.5151,381.2969,601.5151,385.2969,597.5151,381.2969" style="stroke:#181818;stroke-width:1;"/><text fill="#000000" font-family="sans-serif" font-size="13" font-weight="bold" lengthAdjust="spacing" textLength="9.0454" x="597.5151" y="363.231">8</text><text fill="#000000" font-family="sans-serif" font-size="13" lengthAdjust="spacing" textLength="308.2676" x="610.5605" y="363.231">throw ObjectOptimisticLockingFailureException</text></g><line style="stroke:#000000;stroke-width:1;stroke-dasharray:2,2;" x1="464.814" x2="1397.0635" y1="390.2969" y2="390.2969"/><text fill="#000000" font-family="sans-serif" font-size="11" font-weight="bold" lengthAdjust="spacing" textLength="94.3594" x="469.814" y="400.5073">[invalid status]</text><g class="message" data-entity-1="part3" data-entity-2="part3" id="msg9"><line style="stroke:#181818;stroke-width:1;" x1="590.5151" x2="632.5151" y1="425.2344" y2="425.2344"/><line style="stroke:#181818;stroke-width:1;" x1="632.5151" x2="632.5151" y1="425.2344" y2="438.2344"/><line style="stroke:#181818;stroke-width:1;" x1="591.5151" x2="632.5151" y1="438.2344" y2="438.2344"/><polygon fill="#181818" points="601.5151,434.2344,591.5151,438.2344,601.5151,442.2344,597.5151,438.2344" style="stroke:#181818;stroke-width:1;"/><text fill="#000000" font-family="sans-serif" font-size="13" font-weight="bold" lengthAdjust="spacing" textLength="9.0454" x="597.5151" y="420.1685">9</text><text fill="#000000" font-family="sans-serif" font-size="13" lengthAdjust="spacing" textLength="227.7476" x="610.5605" y="420.1685">throw AircraftInvalidFieldException</text></g><line style="stroke:#000000;stroke-width:1;stroke-dasharray:2,2;" x1="464.814" x2="1397.0635" y1="447.2344" y2="447.2344"/><text fill="#000000" font-family="sans-serif" font-size="11" font-weight="bold" lengthAdjust="spacing" textLength="105.6226" x="469.814" y="457.4448">[update allowed]</text><g class="message" data-entity-1="part3" data-entity-2="part5" id="msg10"><polygon fill="#181818" points="1037.0371,478.1719,1047.0371,482.1719,1037.0371,486.1719,1041.0371,482.1719" style="stroke:#181818;stroke-width:1;"/><line style="stroke:#181818;stroke-width:1;" x1="590.5151" x2="1043.0371" y1="482.1719" y2="482.1719"/><text fill="#000000" font-family="sans-serif" font-size="13" font-weight="bold" lengthAdjust="spacing" textLength="18.0908" x="597.5151" y="477.106">10</text><text fill="#000000" font-family="sans-serif" font-size="13" lengthAdjust="spacing" textLength="139.731" x="619.606" y="477.106">setStatus(newStatus)</text></g><g class="message" data-entity-1="part5" data-entity-2="part3" id="msg11"><polygon fill="#181818" points="601.5151,507.3047,591.5151,511.3047,601.5151,515.3047,597.5151,511.3047" style="stroke:#181818;stroke-width:1;"/><line style="stroke:#181818;stroke-width:1;stroke-dasharray:2,2;" x1="595.5151" x2="1053.0371" y1="511.3047" y2="511.3047"/><text fill="#000000" font-family="sans-serif" font-size="13" font-weight="bold" lengthAdjust="spacing" textLength="18.0908" x="607.5151" y="506.2388">11</text><text fill="#000000" font-family="sans-serif" font-size="13" lengthAdjust="spacing" textLength="4.1323" x="629.606" y="506.2388">&#160;</text></g><g class="message" data-entity-1="part3" data-entity-2="part4" id="msg12"><polygon fill="#181818" points="923.8281,536.4375,933.8281,540.4375,923.8281,544.4375,927.8281,540.4375" style="stroke:#181818;stroke-width:1;"/><line style="stroke:#181818;stroke-width:1;" x1="590.5151" x2="929.8281" y1="540.4375" y2="540.4375"/><text fill="#000000" font-family="sans-serif" font-size="13" font-weight="bold" lengthAdjust="spacing" textLength="18.0908" x="597.5151" y="535.3716">12</text><text fill="#000000" font-family="sans-serif" font-size="13" lengthAdjust="spacing" textLength="87.6294" x="619.606" y="535.3716">save(aircraft)</text></g><g class="message" data-entity-1="part4" data-entity-2="part6" id="msg13"><polygon fill="#181818" points="1333.6631,565.5703,1343.6631,569.5703,1333.6631,573.5703,1337.6631,569.5703" style="stroke:#181818;stroke-width:1;"/><line style="stroke:#181818;stroke-width:1;" x1="945.8281" x2="1339.6631" y1="569.5703" y2="569.5703"/><text fill="#000000" font-family="sans-serif" font-size="13" font-weight="bold" lengthAdjust="spacing" textLength="18.0908" x="952.8281" y="564.5044">13</text><text fill="#000000" font-family="sans-serif" font-size="13" lengthAdjust="spacing" textLength="202.2744" x="974.9189" y="564.5044">UPDATE aircraft SET status = ?</text></g><g class="message" data-entity-1="part6" data-entity-2="part4" id="msg14"><polygon fill="#181818" points="956.8281,594.7031,946.8281,598.7031,956.8281,602.7031,952.8281,598.7031" style="stroke:#181818;stroke-width:1;"/><line style="stroke:#181818;stroke-width:1;stroke-dasharray:2,2;" x1="950.8281" x2="1349.6631" y1="598.7031" y2="598.7031"/><text fill="#000000" font-family="sans-serif" font-size="13" font-weight="bold" lengthAdjust="spacing" textLength="18.0908" x="962.8281" y="593.6372">14</text><text fill="#000000" font-family="sans-serif" font-size="13" lengthAdjust="spacing" textLength="50.8511" x="984.9189" y="593.6372">success</text></g><g class="message" data-entity-1="part4" data-entity-2="part3" id="msg15"><polygon fill="#181818" points="601.5151,623.8359,591.5151,627.8359,601.5151,631.8359,597.5151,627.8359" style="stroke:#181818;stroke-width:1;"/><line style="stroke:#181818;stroke-width:1;stroke-dasharray:2,2;" x1="595.5151" x2="939.8281" y1="627.8359" y2="627.8359"/><text fill="#000000" font-family="sans-serif" font-size="13" font-weight="bold" lengthAdjust="spacing" textLength="18.0908" x="607.5151" y="622.77">15</text><text fill="#000000" font-family="sans-serif" font-size="13" lengthAdjust="spacing" textLength="102.0386" x="629.606" y="622.77">updatedAircraft</text></g><g class="message" data-entity-1="part3" data-entity-2="part2" id="msg16"><polygon fill="#181818" points="343.1226,659.9688,333.1226,663.9688,343.1226,667.9688,339.1226,663.9688" style="stroke:#181818;stroke-width:1;"/><line style="stroke:#181818;stroke-width:1;stroke-dasharray:2,2;" x1="337.1226" x2="584.5151" y1="663.9688" y2="663.9688"/><text fill="#000000" font-family="sans-serif" font-size="13" font-weight="bold" lengthAdjust="spacing" textLength="18.0908" x="349.1226" y="658.9028">16</text><text fill="#000000" font-family="sans-serif" font-size="13" lengthAdjust="spacing" textLength="187.2051" x="371.2134" y="658.9028">ViewAircraftDetailsResponse</text></g><g class="message" data-entity-1="part2" data-entity-2="part1" id="msg17"><polygon fill="#181818" points="37.8398,689.1016,27.8398,693.1016,37.8398,697.1016,33.8398,693.1016" style="stroke:#181818;stroke-width:1;"/><line style="stroke:#181818;stroke-width:1;stroke-dasharray:2,2;" x1="31.8398" x2="326.1226" y1="693.1016" y2="693.1016"/><text fill="#000000" font-family="sans-serif" font-size="13" font-weight="bold" lengthAdjust="spacing" textLength="18.0908" x="43.8398" y="688.0356">17</text><text fill="#000000" font-family="sans-serif" font-size="13" lengthAdjust="spacing" textLength="166.1309" x="65.9307" y="688.0356">200 OK (JSON with _links)</text></g><?plantuml-src VLFHRjem57tFLrpnHATML7kijaub17LR1nMGxR4ooGMy6ZkoRw1ewh_lsavAGDto5Dld7Dzxxh6eoUXwkqIRY8ACXTxT8arx81pudwGIbcGXAw69ZwGjh5XHQZHPenJQ04p9gbDWNfM2i8NFIL3jSeUfS1WO-J-4PrWP9xcCGu3vvVl0S9nfadH8-2gnP6NeZPg_S3eQ9hu3kBeD1S8DFFBw7WQYaWFHwBZ17ulhru4B9KB_stmwkV1Eo1qt43iBR5R9KzR05ongmZwpBa7ZFlPs2JkqJXhTuNAFURZTTy7CbTJby333jNHa1J5u4dptKXrQw3bGc3eQCd6UFMJf0Zx0U3Rz0MtbyEi-csLWEtfFSP3m6RuSzTW6Lhawrc6nCBO4xrfIOXSNRsqxdLPUKwXFhUUtNNWeKoWwrgCDmShKkao0lzXw4AADDNjeLIQ6nXwLlHGORaXGyUmQ_s0htLPGiNbVPBhyZGNvoXZ7gNWmnRFKwx6GghPu9YdrJYXPGfpj_wlw6h5ZYUgyiZfa6OHIPe_TvcByMCfX4_7-Mo0k0kxDhIQfVgzXHPl3JiVL3kuaEqxiiDywVQOT9k5tJaAJFuxk5jbnElDiqHWHud6YmAFtwzEOkBeeqBdp2XliQLIYHMLhvZadL8WS3D_JyJd-bBXlAICadg6ReQkCTjXD6hiKNo0pmuE-WO_Nrp3z7byhx2Lju4b9_SokTtYUz1S0?></g></svg>