<svg xmlns="http://www.w3.org/2000/svg" xmlns:xlink="http://www.w3.org/1999/xlink" contentStyleType="text/css" data-diagram-type="SEQUENCE" height="499px" preserveAspectRatio="none" style="width:1663px;height:499px;background:#FFFFFF;" version="1.1" viewBox="0 0 1663 499" width="1663px" zoomAndPan="magnify"><defs/><g><g><title>RouteController</title><rect fill="#FFFFFF" height="281.6191" style="stroke:#181818;stroke-width:1;" width="10" x="499.5835" y="116.9121"/></g><g><title>SearchAlternativeRoutesUseCase</title><rect fill="#FFFFFF" height="219.0371" style="stroke:#181818;stroke-width:1;" width="10" x="851.9131" y="148.2031"/></g><g><title>NetworkGraphService</title><rect fill="#FFFFFF" height="156.4551" style="stroke:#181818;stroke-width:1;" width="10" x="1161.6899" y="179.4941"/></g><g><title>RouteRepository</title><rect fill="#FFFFFF" height="93.873" style="stroke:#181818;stroke-width:1;" width="10" x="1322.5762" y="210.7852"/></g><g><title>Database</title><rect fill="#FFFFFF" height="31.291" style="stroke:#181818;stroke-width:1;" width="10" x="1623.9614" y="242.0762"/></g><g><title>ATCC</title><rect fill="#000000" fill-opacity="0.00000" height="332.9102" width="8" x="23.0552" y="83.6211"/><line style="stroke:#181818;stroke-width:0.5;stroke-dasharray:5,5;" x1="27" x2="27" y1="83.6211" y2="416.5313"/></g><g><title>RouteController</title><rect fill="#000000" fill-opacity="0.00000" height="332.9102" width="8" x="500.5835" y="83.6211"/><line style="stroke:#181818;stroke-width:0.5;stroke-dasharray:5,5;" x1="504.5596" x2="504.5596" y1="83.6211" y2="416.5313"/></g><g><title>SearchAlternativeRoutesUseCase</title><rect fill="#000000" fill-opacity="0.00000" height="332.9102" width="8" x="852.9131" y="83.6211"/><line style="stroke:#181818;stroke-width:0.5;stroke-dasharray:5,5;" x1="856.6929" x2="856.6929" y1="83.6211" y2="416.5313"/></g><g><title>NetworkGraphService</title><rect fill="#000000" fill-opacity="0.00000" height="332.9102" width="8" x="1162.6899" y="83.6211"/><line style="stroke:#181818;stroke-width:0.5;stroke-dasharray:5,5;" x1="1166.2212" x2="1166.2212" y1="83.6211" y2="416.5313"/></g><g><title>RouteRepository</title><rect fill="#000000" fill-opacity="0.00000" height="332.9102" width="8" x="1323.5762" y="83.6211"/><line style="stroke:#181818;stroke-width:0.5;stroke-dasharray:5,5;" x1="1327.4385" x2="1327.4385" y1="83.6211" y2="416.5313"/></g><g><title>Database</title><rect fill="#000000" fill-opacity="0.00000" height="332.9102" width="8" x="1624.9614" y="83.6211"/><line style="stroke:#181818;stroke-width:0.5;stroke-dasharray:5,5;" x1="1627.9961" x2="1627.9961" y1="83.6211" y2="416.5313"/></g><g class="participant participant-head" data-participant="BO"><text fill="#000000" font-family="sans-serif" font-size="14" lengthAdjust="spacing" textLength="38.1104" x="5" y="80.1074">ATCC</text><ellipse cx="27.0552" cy="13.5" fill="#E2E2F0" rx="8" ry="8" style="stroke:#181818;stroke-width:0.5;"/><path d="M27.0552,21.5 L27.0552,48.5 M14.0552,29.5 L40.0552,29.5 M27.0552,48.5 L14.0552,63.5 M27.0552,48.5 L40.0552,63.5" fill="none" style="stroke:#181818;stroke-width:0.5;"/></g><g class="participant participant-tail" data-participant="BO"><text fill="#000000" font-family="sans-serif" font-size="14" lengthAdjust="spacing" textLength="38.1104" x="5" y="430.6387">ATCC</text><ellipse cx="27.0552" cy="442.6523" fill="#E2E2F0" rx="8" ry="8" style="stroke:#181818;stroke-width:0.5;"/><path d="M27.0552,450.6523 L27.0552,477.6523 M14.0552,458.6523 L40.0552,458.6523 M27.0552,477.6523 L14.0552,492.6523 M27.0552,477.6523 L40.0552,492.6523" fill="none" style="stroke:#181818;stroke-width:0.5;"/></g><g class="participant participant-head" data-participant="Ctrl"><rect fill="#E2E2F0" height="32.6211" rx="2.5" ry="2.5" style="stroke:#181818;stroke-width:0.5;" width="112.0479" x="448.5596" y="50"/><text fill="#000000" font-family="sans-serif" font-size="14" lengthAdjust="spacing" textLength="98.0479" x="455.5596" y="72.1074">RouteController</text></g><g class="participant participant-tail" data-participant="Ctrl"><rect fill="#E2E2F0" height="32.6211" rx="2.5" ry="2.5" style="stroke:#181818;stroke-width:0.5;" width="112.0479" x="448.5596" y="415.5313"/><text fill="#000000" font-family="sans-serif" font-size="14" lengthAdjust="spacing" textLength="98.0479" x="455.5596" y="437.6387">RouteController</text></g><g class="participant participant-head" data-participant="UC"><rect fill="#E2E2F0" height="32.6211" rx="2.5" ry="2.5" style="stroke:#181818;stroke-width:0.5;" width="226.4404" x="743.6929" y="50"/><text fill="#000000" font-family="sans-serif" font-size="14" lengthAdjust="spacing" textLength="212.4404" x="750.6929" y="72.1074">SearchAlternativeRoutesUseCase</text></g><g class="participant participant-tail" data-participant="UC"><rect fill="#E2E2F0" height="32.6211" rx="2.5" ry="2.5" style="stroke:#181818;stroke-width:0.5;" width="226.4404" x="743.6929" y="415.5313"/><text fill="#000000" font-family="sans-serif" font-size="14" lengthAdjust="spacing" textLength="212.4404" x="750.6929" y="437.6387">SearchAlternativeRoutesUseCase</text></g><g class="participant participant-head" data-participant="GraphSvc"><rect fill="#E2E2F0" height="32.6211" rx="2.5" ry="2.5" style="stroke:#181818;stroke-width:0.5;" width="150.9375" x="1091.2212" y="50"/><text fill="#000000" font-family="sans-serif" font-size="14" lengthAdjust="spacing" textLength="136.9375" x="1098.2212" y="72.1074">NetworkGraphService</text></g><g class="participant participant-tail" data-participant="GraphSvc"><rect fill="#E2E2F0" height="32.6211" rx="2.5" ry="2.5" style="stroke:#181818;stroke-width:0.5;" width="150.9375" x="1091.2212" y="415.5313"/><text fill="#000000" font-family="sans-serif" font-size="14" lengthAdjust="spacing" textLength="136.9375" x="1098.2212" y="437.6387">NetworkGraphService</text></g><g class="participant participant-head" data-participant="Repo"><rect fill="#E2E2F0" height="32.6211" rx="2.5" ry="2.5" style="stroke:#181818;stroke-width:0.5;" width="118.2754" x="1268.4385" y="50"/><text fill="#000000" font-family="sans-serif" font-size="14" lengthAdjust="spacing" textLength="104.2754" x="1275.4385" y="72.1074">RouteRepository</text></g><g class="participant participant-tail" data-participant="Repo"><rect fill="#E2E2F0" height="32.6211" rx="2.5" ry="2.5" style="stroke:#181818;stroke-width:0.5;" width="118.2754" x="1268.4385" y="415.5313"/><text fill="#000000" font-family="sans-serif" font-size="14" lengthAdjust="spacing" textLength="104.2754" x="1275.4385" y="437.6387">RouteRepository</text></g><g class="participant participant-head" data-participant="DB"><text fill="#000000" font-family="sans-serif" font-size="14" lengthAdjust="spacing" textLength="59.9307" x="1595.9961" y="80.1074">Database</text><path d="M1610.9614,29 C1610.9614,19 1628.9614,19 1628.9614,19 C1628.9614,19 1646.9614,19 1646.9614,29 L1646.9614,55 C1646.9614,65 1628.9614,65 1628.9614,65 C1628.9614,65 1610.9614,65 1610.9614,55 L1610.9614,29" fill="#E2E2F0" style="stroke:#181818;stroke-width:0.5;"/><path d="M1610.9614,29 C1610.9614,39 1628.9614,39 1628.9614,39 C1628.9614,39 1646.9614,39 1646.9614,29" fill="none" style="stroke:#181818;stroke-width:0.5;"/></g><g class="participant participant-tail" data-participant="DB"><text fill="#000000" font-family="sans-serif" font-size="14" lengthAdjust="spacing" textLength="59.9307" x="1595.9961" y="430.6387">Database</text><path d="M1610.9614,444.1523 C1610.9614,434.1523 1628.9614,434.1523 1628.9614,434.1523 C1628.9614,434.1523 1646.9614,434.1523 1646.9614,444.1523 L1646.9614,470.1523 C1646.9614,480.1523 1628.9614,480.1523 1628.9614,480.1523 C1628.9614,480.1523 1610.9614,480.1523 1610.9614,470.1523 L1610.9614,444.1523" fill="#E2E2F0" style="stroke:#181818;stroke-width:0.5;"/><path d="M1610.9614,444.1523 C1610.9614,454.1523 1628.9614,454.1523 1628.9614,454.1523 C1628.9614,454.1523 1646.9614,454.1523 1646.9614,444.1523" fill="none" style="stroke:#181818;stroke-width:0.5;"/></g><g><title>RouteController</title><rect fill="#FFFFFF" height="281.6191" style="stroke:#181818;stroke-width:1;" width="10" x="499.5835" y="116.9121"/></g><g><title>SearchAlternativeRoutesUseCase</title><rect fill="#FFFFFF" height="219.0371" style="stroke:#181818;stroke-width:1;" width="10" x="851.9131" y="148.2031"/></g><g><title>NetworkGraphService</title><rect fill="#FFFFFF" height="156.4551" style="stroke:#181818;stroke-width:1;" width="10" x="1161.6899" y="179.4941"/></g><g><title>RouteRepository</title><rect fill="#FFFFFF" height="93.873" style="stroke:#181818;stroke-width:1;" width="10" x="1322.5762" y="210.7852"/></g><g><title>Database</title><rect fill="#FFFFFF" height="31.291" style="stroke:#181818;stroke-width:1;" width="10" x="1623.9614" y="242.0762"/></g><g class="message" data-participant-1="BO" data-participant-2="Ctrl"><polygon fill="#181818" points="487.5835,112.9121,497.5835,116.9121,487.5835,120.9121,491.5835,116.9121" style="stroke:#181818;stroke-width:1;"/><line style="stroke:#181818;stroke-width:1;" x1="27.0552" x2="493.5835" y1="116.9121" y2="116.9121"/><text fill="#000000" font-family="sans-serif" font-size="13" font-weight="bold" lengthAdjust="spacing" textLength="7.23" x="34.0552" y="111.6494">1</text><text fill="#000000" font-family="sans-serif" font-size="13" lengthAdjust="spacing" textLength="442.2983" x="45.2852" y="111.6494">GET /api/routes/alternatives?origin={originIata}&amp;destination={destinationIata}</text></g><g class="message" data-participant-1="Ctrl" data-participant-2="UC"><polygon fill="#181818" points="839.9131,144.2031,849.9131,148.2031,839.9131,152.2031,843.9131,148.2031" style="stroke:#181818;stroke-width:1;"/><line style="stroke:#181818;stroke-width:1;" x1="509.5835" x2="845.9131" y1="148.2031" y2="148.2031"/><text fill="#000000" font-family="sans-serif" font-size="13" font-weight="bold" lengthAdjust="spacing" textLength="7.23" x="516.5835" y="142.9404">2</text><text fill="#000000" font-family="sans-serif" font-size="13" lengthAdjust="spacing" textLength="199.4561" x="527.8135" y="142.9404">execute(originIata, destinationIata)</text></g><g class="message" data-participant-1="UC" data-participant-2="GraphSvc"><polygon fill="#181818" points="1149.6899,175.4941,1159.6899,179.4941,1149.6899,183.4941,1153.6899,179.4941" style="stroke:#181818;stroke-width:1;"/><line style="stroke:#181818;stroke-width:1;" x1="861.9131" x2="1155.6899" y1="179.4941" y2="179.4941"/><text fill="#000000" font-family="sans-serif" font-size="13" font-weight="bold" lengthAdjust="spacing" textLength="7.23" x="868.9131" y="174.2314">3</text><text fill="#000000" font-family="sans-serif" font-size="13" lengthAdjust="spacing" textLength="269.5469" x="880.1431" y="174.2314">findAlternativePaths(originIata, destinationIata)</text></g><g class="message" data-participant-1="GraphSvc" data-participant-2="Repo"><polygon fill="#181818" points="1310.5762,206.7852,1320.5762,210.7852,1310.5762,214.7852,1314.5762,210.7852" style="stroke:#181818;stroke-width:1;"/><line style="stroke:#181818;stroke-width:1;" x1="1171.6899" x2="1316.5762" y1="210.7852" y2="210.7852"/><text fill="#000000" font-family="sans-serif" font-size="13" font-weight="bold" lengthAdjust="spacing" textLength="7.23" x="1178.6899" y="205.5225">4</text><text fill="#000000" font-family="sans-serif" font-size="13" lengthAdjust="spacing" textLength="120.6563" x="1189.9199" y="205.5225">findAllActiveRoutes()</text></g><g class="message" data-participant-1="Repo" data-participant-2="DB"><polygon fill="#181818" points="1611.9614,238.0762,1621.9614,242.0762,1611.9614,246.0762,1615.9614,242.0762" style="stroke:#181818;stroke-width:1;"/><line style="stroke:#181818;stroke-width:1;" x1="1332.5762" x2="1617.9614" y1="242.0762" y2="242.0762"/><text fill="#000000" font-family="sans-serif" font-size="13" font-weight="bold" lengthAdjust="spacing" textLength="7.23" x="1339.5762" y="236.8135">5</text><text fill="#000000" font-family="sans-serif" font-size="13" lengthAdjust="spacing" textLength="261.1553" x="1350.8062" y="236.8135">SELECT * FROM route WHERE active = true</text></g><g class="message" data-participant-1="DB" data-participant-2="Repo"><polygon fill="#181818" points="1343.5762,269.3672,1333.5762,273.3672,1343.5762,277.3672,1339.5762,273.3672" style="stroke:#181818;stroke-width:1;"/><line style="stroke:#181818;stroke-width:1;stroke-dasharray:2,2;" x1="1337.5762" x2="1627.9614" y1="273.3672" y2="273.3672"/><text fill="#000000" font-family="sans-serif" font-size="13" font-weight="bold" lengthAdjust="spacing" textLength="7.23" x="1349.5762" y="268.1045">6</text><text fill="#000000" font-family="sans-serif" font-size="13" lengthAdjust="spacing" textLength="134.3926" x="1360.8062" y="268.1045">returns all active routes</text></g><g class="message" data-participant-1="Repo" data-participant-2="GraphSvc"><polygon fill="#181818" points="1182.6899,300.6582,1172.6899,304.6582,1182.6899,308.6582,1178.6899,304.6582" style="stroke:#181818;stroke-width:1;"/><line style="stroke:#181818;stroke-width:1;stroke-dasharray:2,2;" x1="1176.6899" x2="1326.5762" y1="304.6582" y2="304.6582"/><text fill="#000000" font-family="sans-serif" font-size="13" font-weight="bold" lengthAdjust="spacing" textLength="7.23" x="1188.6899" y="299.3955">7</text><text fill="#000000" font-family="sans-serif" font-size="13" lengthAdjust="spacing" textLength="98.2681" x="1199.9199" y="299.3955">returns allRoutes</text></g><g class="message" data-participant-1="GraphSvc" data-participant-2="UC"><polygon fill="#181818" points="872.9131,331.9492,862.9131,335.9492,872.9131,339.9492,868.9131,335.9492" style="stroke:#181818;stroke-width:1;"/><line style="stroke:#181818;stroke-width:1;stroke-dasharray:2,2;" x1="866.9131" x2="1165.6899" y1="335.9492" y2="335.9492"/><text fill="#000000" font-family="sans-serif" font-size="13" font-weight="bold" lengthAdjust="spacing" textLength="7.23" x="878.9131" y="330.6865">8</text><text fill="#000000" font-family="sans-serif" font-size="13" lengthAdjust="spacing" textLength="203.0615" x="890.1431" y="330.6865">returns List&lt;Path&gt; alternativePaths</text></g><g class="message" data-participant-1="UC" data-participant-2="Ctrl"><polygon fill="#181818" points="520.5835,363.2402,510.5835,367.2402,520.5835,371.2402,516.5835,367.2402" style="stroke:#181818;stroke-width:1;"/><line style="stroke:#181818;stroke-width:1;stroke-dasharray:2,2;" x1="514.5835" x2="855.9131" y1="367.2402" y2="367.2402"/><text fill="#000000" font-family="sans-serif" font-size="13" font-weight="bold" lengthAdjust="spacing" textLength="7.23" x="526.5835" y="361.9775">9</text><text fill="#000000" font-family="sans-serif" font-size="13" lengthAdjust="spacing" textLength="307.0996" x="537.8135" y="361.9775">returns AlternativeRoutesResponse(alternativePaths)</text></g><g class="message" data-participant-1="Ctrl" data-participant-2="BO"><polygon fill="#181818" points="38.0552,394.5313,28.0552,398.5313,38.0552,402.5313,34.0552,398.5313" style="stroke:#181818;stroke-width:1;"/><line style="stroke:#181818;stroke-width:1;stroke-dasharray:2,2;" x1="32.0552" x2="503.5835" y1="398.5313" y2="398.5313"/><text fill="#000000" font-family="sans-serif" font-size="13" font-weight="bold" lengthAdjust="spacing" textLength="14.46" x="44.0552" y="393.2686">10</text><text fill="#000000" font-family="sans-serif" font-size="13" lengthAdjust="spacing" textLength="211.7197" x="62.5151" y="393.2686">returns list of alternative Route paths</text></g><!--SRC=[ZP9DJyCm38Rl-HNM3cWWqEw83srT6KY3eMuJPzCP5b6QAd472F7VSLEwP8C3ftx4x-Cthuqrcx9-VIIhC6TZeJTS94aFqC5efYgqh7DTOSdGoqpDb9YIhIaAihucOLliLiq9RRuU5aosHDORyZAtT9IW8ozQ9hkIE-8tOryc5glrdEn6vsrT-sEJ_s4ZeyeuBNu_V6NpgLR8-2Wze3V-UVDduv5IencSN7YpS0gJT043hFJ0UcS335xTfR7wMPVdd-tpHa1V1ojoh9i28mVHXpzjOjCRP6gpKBw9D5icqehUAPSU_K0xXZt0OG18Bafa8kvkBeWdNQwYDE-Hr-wVl6r-QiiJTfFLbbiCyp2ZVgJrYVfIaOn78fYdqpHPm15SPRDRyDd1mtMQfU151EV0jgQ0aE15U19QMkBQbWwmA3fDEmArebZLjjsD8T9clpJUR7pBBlzEDTMEpvheBW3tiemv8R1c365ZEiolhSx8LQPqrD-d7iROPgxjMWXILZ402_45vYas1PuCrRwt1l0D]--></g></svg>